<svg xmlns="http://www.w3.org/2000/svg" xmlns:xlink="http://www.w3.org/1999/xlink" width="34.961" height="34.961" viewBox="0 0 34.961 34.961">
  <defs>
    <linearGradient id="linear-gradient" x1="0.5" y1="0.015" x2="0.5" y2="0.998" gradientUnits="objectBoundingBox">
      <stop offset="0" stop-color="#e60e23"/>
      <stop offset="1" stop-color="#ad0b1b"/>
    </linearGradient>
  </defs>
  <g id="app_dish" data-name="app dish" transform="translate(17.48 17.48)">
    <g id="Grupo_18010" data-name="Grupo 18010" transform="translate(-17.48 -17.48)">
      <rect id="Rectángulo_17989" data-name="Rectángulo 17989" width="34.961" height="34.961" rx="4.3" fill="url(#linear-gradient)"/>
      <g id="Grupo_18009" data-name="Grupo 18009" transform="translate(5.306 10.845)">
        <g id="Grupo_18008" data-name="Grupo 18008">
          <path id="Trazado_38838" data-name="Trazado 38838" d="M13.669,38.211c0-1.8.847-2.445,1.572-2.445a1.286,1.286,0,0,1,1.275,1.318v3.129a1.06,1.06,0,0,1-1.078.7c-.816,0-1.769-.708-1.769-2.7m4.122-6.338-.046.016h0c-.252.09-1.249.417-2.053.615l-.134.033V33.1l.193-.021c.451-.046.622.013.686.071s.078.2.078.417v1.879a2.134,2.134,0,0,0-1.317-.421,2.894,2.894,0,0,0-2.185,1.1,4.009,4.009,0,0,0-.907,2.537c0,3.238,2.46,3.331,2.74,3.331a2.293,2.293,0,0,0,1.67-.629v.5l.2.151,2.277-.805v-.539l-.189.014c-.443.034-.612-.03-.677-.089s-.078-.167-.078-.356V31.964l-.243-.1Z" transform="translate(-12.106 -28.744)" fill="#fff"/>
          <path id="Trazado_38839" data-name="Trazado 38839" d="M30.024,33.066a1.227,1.227,0,1,1,1.227,1.227,1.227,1.227,0,0,1-1.227-1.227" transform="translate(-22.17 -28.728)" fill="#fff"/>
          <path id="Trazado_38840" data-name="Trazado 38840" d="M31.946,40.456a.874.874,0,0,0,.809-.575c.011-.021,0-.042-.028-.031a2.569,2.569,0,0,1-1.564,0c-.029-.011-.039.01-.028.031a.876.876,0,0,0,.81.575" transform="translate(-22.793 -33.226)" fill="#fff"/>
          <path id="Trazado_38841" data-name="Trazado 38841" d="M30.289,43.378a1.26,1.26,0,0,0,2.36,0c.015-.029,0-.054-.032-.039a2.95,2.95,0,0,1-2.3,0c-.035-.015-.048.01-.033.039" transform="translate(-22.315 -35.184)" fill="#fff"/>
          <path id="Trazado_38842" data-name="Trazado 38842" d="M29.386,47.1a1.689,1.689,0,0,0,3.149,0c.02-.039,0-.068-.038-.049a3.541,3.541,0,0,1-3.074,0c-.041-.018-.058.011-.037.049" transform="translate(-21.807 -37.269)" fill="#fff"/>
          <path id="Trazado_38843" data-name="Trazado 38843" d="M30.406,52.522a2.139,2.139,0,0,0,2-1.361c.025-.049.005-.082-.044-.06a4.246,4.246,0,0,1-3.923,0c-.048-.022-.068.011-.043.06a2.139,2.139,0,0,0,2.005,1.361" transform="translate(-21.252 -39.543)" fill="#fff"/>
          <path id="Trazado_38844" data-name="Trazado 38844" d="M47.252,27.533c-1.67-2.343-6.45-1.8-11.229,1.1a1.477,1.477,0,0,0-.1-.24c5.892-3.725,11.695-4.77,13.418-2.355,1.063,1.492.34,4.014-1.653,6.75a2.851,2.851,0,0,0-.309-1.166,4.313,4.313,0,0,0-.131-4.092" transform="translate(-25.486 -24.741)" fill="#fff"/>
          <path id="Trazado_38845" data-name="Trazado 38845" d="M38.246,40.971c0,1.122.822,1.678,1.738,2.2l.817.465a1.025,1.025,0,0,1,.644.917c0,.508-.376.825-.98.825-1.114,0-1.449-.926-1.631-1.831l-.028-.142H38.26v2.55h.423l.053-.059c.1-.11.1-.11.193-.11a2.627,2.627,0,0,1,.618.1,4.479,4.479,0,0,0,1.016.152,2.112,2.112,0,0,0,2.219-1.993,2.03,2.03,0,0,0-1.268-1.813l-1.523-.9a.942.942,0,0,1-.52-.849.8.8,0,0,1,.895-.739c.488,0,1.087.181,1.392,1.593l.029.139h.534l-.067-2.281h-.427l-.051.088a.119.119,0,0,1-.1.067,2.2,2.2,0,0,1-.214-.063,3.675,3.675,0,0,0-1.1-.219,1.956,1.956,0,0,0-2.12,1.909" transform="translate(-26.788 -32.785)" fill="#fff"/>
          <path id="Trazado_38846" data-name="Trazado 38846" d="M54.972,41.283c-.621-.11-.7-.124-.7-1.025V37.426c0-1.6-.642-2.416-1.908-2.416a2.544,2.544,0,0,0-1.9.876v-3.9l-.231-.139-.022.009-.06.024c-.3.122-1.451.466-1.981.614l-.128.036v.556l.2-.022a2.749,2.749,0,0,1,.333-.013.381.381,0,0,1,.277.082.6.6,0,0,1,.083.411v6.686c0,.9-.056.978-.744,1.051l-.158.018v.545H51.3v-.559l-.029,0c-.631-.067-.8-.085-.8-1.037V36.9a2.052,2.052,0,0,1,1.373-.782c.62,0,.9.419.9,1.36v2.775c0,.874-.151.974-.8,1.023h-.013v.561h3.189v-.535l-.145-.025" transform="translate(-32.285 -28.733)" fill="#fff"/>
        </g>
      </g>
    </g>
  </g>
</svg>
