<svg xmlns="http://www.w3.org/2000/svg" viewBox="0 0 79.46 35.83"><defs><style>.a97e69dc-803a-46ba-b6b8-fb70470e2b69{fill:#0a509f;}.b994dbfd-1c48-4aee-8c88-eb7926e2ddad{font-size:12px;fill:#231f20;font-family:MyriadPro-Regular, Myriad Pro;}.ec1ccff4-ec4e-4578-a4ac-f43fa8ac5eb8{letter-spacing:-0.01em;}.f664c370-4766-4d85-bc55-5100617a1058{letter-spacing:-0.01em;}.bebd74bc-2749-45aa-b6c7-4b4a2fcbec32,.f3586b85-f785-4501-bf5f-9b716e1979c9{fill:#fff;}.bebd74bc-2749-45aa-b6c7-4b4a2fcbec32{fill-rule:evenodd;}.a92fba82-0580-4e19-af60-dbacbf74b123{fill:#010101;}</style></defs><g id="a95f0084-6b53-4f81-b618-3a8fb2abd9b4" data-name="Capa 2"><g id="a0e7e9ae-8b7f-407f-9eda-a67c767cbea2" data-name="Layer 1"><polygon class="a97e69dc-803a-46ba-b6b8-fb70470e2b69" points="45.27 31.93 79.47 35.83 75.67 1.52 45.27 1.52 45.27 31.93"/><text class="b994dbfd-1c48-4aee-8c88-eb7926e2ddad" transform="translate(45.26 10.04)"><tspan class="ec1ccff4-ec4e-4578-a4ac-f43fa8ac5eb8">L</tspan><tspan x="5.5" y="0">o</tspan><tspan class="f664c370-4766-4d85-bc55-5100617a1058" x="12.08" y="0">r</tspan><tspan x="15.89" y="0">e</tspan><tspan x="0" y="14.4">m </tspan></text><polygon class="bebd74bc-2749-45aa-b6c7-4b4a2fcbec32" points="70.1 18.16 68.08 21.74 65.85 21.74 69.11 16.61 65.94 11.63 68.17 11.63 70.1 15.15 72.07 11.63 74.29 11.63 71.16 16.61 74.38 21.74 72.15 21.74 70.1 18.16"/><path class="bebd74bc-2749-45aa-b6c7-4b4a2fcbec32" d="M51.56,17.3H51.5V15.69h.06a1.27,1.27,0,0,0,1.23-1.17,1.2,1.2,0,0,0-1.23-1.15H51.5V11.58h.06a3,3,0,0,1,3.14,2.91,2.2,2.2,0,0,1-1.06,1.87,2.37,2.37,0,0,1,1.61,2.38,3.31,3.31,0,0,1-3.66,3.05H51.5V20h.06a1.46,1.46,0,0,0,1.61-1.32A1.42,1.42,0,0,0,51.56,17.3Zm-.06,0H49.83V20H51.5v1.79H48V17.3H46.57V15.69H48V11.58H51.5v1.79H49.83v2.32H51.5Z"/><path class="bebd74bc-2749-45aa-b6c7-4b4a2fcbec32" d="M61.3,20h0v2a5.28,5.28,0,0,0,0-10.55v2h0a3.29,3.29,0,0,1,0,6.57Zm0,0a3.29,3.29,0,1,1,0-6.57v-2h-.06a5.28,5.28,0,1,0,0,10.55h.06Z"/><path class="f3586b85-f785-4501-bf5f-9b716e1979c9" d="M69.82,30.61H68.18V28.68h-1.4v1.93H65.13V25.19h1.65v1.92h1.4V25.19h1.64Z"/><path class="f3586b85-f785-4501-bf5f-9b716e1979c9" d="M72.87,30.61h-2.4V25.19h2.4a2.7,2.7,0,0,1,2.79,2.73A2.65,2.65,0,0,1,72.87,30.61ZM72.12,29h.75A1.06,1.06,0,0,0,74,27.92a1.1,1.1,0,0,0-1.1-1.16h-.75Z"/><path class="a92fba82-0580-4e19-af60-dbacbf74b123" d="M6.4,16.11c0-.09,0-.09.13-.09l-.09,0a.38.38,0,0,1,.09-.12H6.44a.26.26,0,0,0-.2.08s-.09.08-.13.08L6,15.73H5.86s0,0,0,0H5.74a.16.16,0,0,1-.13,0c0-.08.08-.12.21-.16s.17-.05.17-.09a.23.23,0,0,1-.17,0H5.49a.47.47,0,0,1-.21,0h0a3,3,0,0,0-.46-.08H4.61l-.16,0c0,.08-.09.13-.13.13a.11.11,0,0,1-.08-.05s-.08,0-.12-.08-.13,0-.21.13c0-.05-.13-.09-.13-.17a.35.35,0,0,1-.08-.25.35.35,0,0,1,0-.17v-.2c0-.21-.08-.3-.29-.34a0,0,0,0,0,0,0h0l0,0,0,0c.05,0,.09,0,.13,0a.09.09,0,0,1,.08-.08A.59.59,0,0,0,3.66,14a.44.44,0,0,1,.12-.34c0-.08.17-.12.34-.12h.37s.08,0,.12,0,.17,0,.21,0,.08.09.08.13h.38a.41.41,0,0,0,.21,0H5.9a1,1,0,0,1,.34,0h0v-.46a.52.52,0,0,1,0-.37c0-.13,0-.21-.08-.29h0l0-.05.08-.08v-.16c0-.09,0-.13,0-.17h0c-.13,0-.3,0-.42,0s-.21,0-.33,0-.13,0-.21,0c-.25,0-.46,0-.67,0a1.17,1.17,0,0,0-.37,0H4a.38.38,0,0,0-.21-.12,1,1,0,0,0-.33-.09,2.5,2.5,0,0,1-.25.09,0,0,0,0,1,0,0c-.08,0-.13,0-.17-.05a.24.24,0,0,1-.16,0,1.23,1.23,0,0,1-.38,0H2.37c-.21,0-.37,0-.58,0H.12L0,13.9l.21.21-.08.08.2.09.09,0-.09,0c0,.12.13.21.17.33a.37.37,0,0,0,.33.17l-.12.08c.08,0,.12.13.21.25s0,.09.08.09a.25.25,0,0,0,.17,0l-.13.12.13.13v.25s-.09.08-.17.08H1a3.65,3.65,0,0,0-.63-1l-.25-.25A.79.79,0,0,0,0,14.9a1.3,1.3,0,0,0,.08.33.9.9,0,0,1,.05.34.47.47,0,0,1-.05.25H.37l.17,0a.75.75,0,0,0,.13.54.82.82,0,0,0-.13.5,3,3,0,0,0,.08.49c.25,0,.38.05.38.13H1l.17,0H1.7l.42,0a.35.35,0,0,0,0-.21.68.68,0,0,1-.08-.2.18.18,0,0,1-.13,0,.18.18,0,0,1-.17-.08c-.12-.09-.16-.13-.16-.17s0,0,.16,0h.05l0,0v.08a.38.38,0,0,0,0-.21,1.24,1.24,0,0,0-.13-.41.16.16,0,0,1,0-.13A.67.67,0,0,1,1.54,16v-.12a.15.15,0,0,1,.12,0h0c.05,0,.09,0,.13.12s.08.17.12.17L2,16s0,.09,0,.13l-.09.08.25.21,0,.08A.5.5,0,0,1,2,16.44l.16.37.21-.08v0a.15.15,0,0,0,0,.12.19.19,0,0,0,0,.09.09.09,0,0,1-.08.08l-.08,0v.33s0,0,.08.08.08,0,.08.09,0,0-.08.08l.08.08.13.09.12-.21a.56.56,0,0,0,.13.16.19.19,0,0,0,.16.09s.09,0,.17,0,.08,0,.12,0h.5a1.31,1.31,0,0,1,.42.08L4,17.81a.49.49,0,0,1,.25-.37c.17-.13.25-.21.25-.25s.08,0,.08.16h.71l.21,0H6.4l-.16-.08-.17-.12s0,0,.08,0h0L6.07,17h.17l.37-.08a.18.18,0,0,1,0-.13.49.49,0,0,1,0-.21V16.4A.27.27,0,0,0,6.4,16.11ZM4.61,13l0,0v.12l0-.12,0-.13ZM.37,15.57l-.12,0,.12-.09.09,0h0Zm1.29,1.66h.09v.25H1.66Zm-.54-2.08a.16.16,0,0,1,0-.13c0,.05,0,.05.13.09h.08l0,0a0,0,0,0,1,0,0H1.21S1.16,15.15,1.12,15.15Zm.13.83v-.12h.16l-.12.08,0,0v.13l0-.09Zm.16,1.21-.12.08,0,0,0-.08.12-.17.05,0Zm.13-.34-.08.09a.14.14,0,0,1-.05-.09v-.16H1.25l0-.09,0,0,.08.09s0,0,.05,0,0,.08.08.12Zm0-1.33-.08.09.08-.17h0Zm1,.09h0v-.29h0Zm.34-.33s-.09,0-.13,0l.13-.13,0,0,.08,0S2.91,15.23,2.83,15.28Zm1.41,1.66s0,0,0,0h.12Zm1-.25h0v.12h0Zm.25.54h0s-.09,0-.09,0,0-.09,0-.09h0l0,0a0,0,0,0,1,0,0,.15.15,0,0,1,.12,0v.12h.29A.21.21,0,0,1,5.49,17.23Zm.33-.33H5.69l0-.21c0,.08,0,.12.08.12s.12,0,.17.09Zm.62-.38v-.07a.1.1,0,0,0,0-.05l-.16.08L6,16.56a.87.87,0,0,1,.2-.16h0a1,1,0,0,0,.2-.09v.14S6.47,16.5,6.44,16.52Z"/><path class="a92fba82-0580-4e19-af60-dbacbf74b123" d="M3.62,19.22s.08,0,.12-.08a.42.42,0,0,1-.08-.21.49.49,0,0,1,0-.21v-.2a.17.17,0,0,0,0-.13H3.37a.49.49,0,0,0-.21,0H3c-.08,0-.12,0-.16,0a.63.63,0,0,0-.13.17.21.21,0,0,1-.08-.17H2.25v.09h.2s-.08.08-.08.12-.08.08-.08.12a.42.42,0,0,0,.08.21c0,.05,0,.05,0,.09s0,0,0,.08v0s.09.08.09.12a0,0,0,0,1,0,0l.21,0v.21a.35.35,0,0,1,0,.17c0,.08-.08.12-.16.17l.25.08,0,0a0,0,0,0,1,0,0,.17.17,0,0,1-.13,0,.73.73,0,0,0-.12.09,1.75,1.75,0,0,1,.16.66.55.55,0,0,1,0,.25h.13l.16,0H3l0,0,0,.05H3l.17.12,0,0,0,.05L3,21.43v.08c0,.08.05.12.13.17h.29a.19.19,0,0,1,.13-.05s.08,0,.08.05,0-.09,0-.17l.12-.08H3.45s-.08,0-.08-.08a.09.09,0,0,1,.08-.09s0,0,.13,0,.16,0,.16-.08v-.09c-.12,0-.16,0-.21,0l.21-.12c0-.09,0-.13-.08-.13a0,0,0,0,1,0,0l-.09.09s0-.05,0-.09,0-.12,0-.16.13-.13.21-.17l-.21-.21s.05,0,.09,0a.18.18,0,0,0,.12,0s0,0-.08,0l-.17-.33h.25l-.21-.21c.09,0,.13,0,.13-.12s0-.17.08-.17l-.21-.08S3.53,19.22,3.62,19.22Zm-.92-.08s-.08,0-.12-.08a1.59,1.59,0,0,1-.13-.13l.38.21Zm.25.42H3V20H3Zm0,1-.12.09,0-.13H3Zm.17.29s-.08,0-.13.09l.13-.13L3,20.64H3.2l0-.43a.54.54,0,0,1,0-.11v.11a.44.44,0,0,0,0,.14.72.72,0,0,1,0,.25A.31.31,0,0,1,3.16,20.8Zm.29-1.58v0l-.08,0s0-.13.08-.13,0,0,.08,0Z"/><path class="a92fba82-0580-4e19-af60-dbacbf74b123" d="M6.32,17.19s.12,0,.16.08,0,0,0,0l-.09-.17s0,0-.08,0l0,0h0l0,0s0,0,0,.06,0,0,0,0Z"/><path class="a92fba82-0580-4e19-af60-dbacbf74b123" d="M6.19,17.16h0l0,0Z"/><path class="a92fba82-0580-4e19-af60-dbacbf74b123" d="M2.37,20.43A1.91,1.91,0,0,1,2.29,20l-.59.29,0,.05-.12-.13-.13-.12v.08h0l-.08.08h0a.12.12,0,0,0,0-.08A.25.25,0,0,0,1,20.1s0,0-.08,0a.89.89,0,0,1-.46-.17l0-.08H.37l-.08-.09s0-.08.08-.16,0-.09.09-.13l.33.21-.25-.21c0-.17.21-.33.5-.54,0,0,.12-.08.17-.12l.08.16,0,.05.08-.05.13,0,.16-.08.05,0s0,0,0,.08L2,18.77a.32.32,0,0,0-.34-.34H1.54a.16.16,0,0,0-.13.05H1.29s0,0,0,0h0a.28.28,0,0,1-.17,0,.33.33,0,0,1-.17,0v-.12a1.4,1.4,0,0,0-.41-.05H.37a.49.49,0,0,0-.33.13.23.23,0,0,1,.13.21A.41.41,0,0,1,.12,19a.3.3,0,0,0,0,.16c0,.12.09.21.21.29s0,.09-.12.09H0a.15.15,0,0,0,0,.12.42.42,0,0,0,.12.21L.29,20c0,.09,0,.09-.08.09a.16.16,0,0,1-.09,0S0,20,0,20a.84.84,0,0,1,.08.29,1.06,1.06,0,0,1-.08.34A.43.43,0,0,0,.12,21H.17a.3.3,0,0,1,.16,0l0,0a.12.12,0,0,1,.09.05H.37l-.33,0c.08,0,.13,0,.13.08s-.05,0-.05.09a.12.12,0,0,0,0,.08,0,0,0,0,0,0,0,.25.25,0,0,1,.17-.08.14.14,0,0,0,.08,0,.2.2,0,0,1,.13.08.38.38,0,0,0,.21.12s.08,0,.08,0l.08-.16a.38.38,0,0,1,.13,0H1s0,0,0,.08v.16c0,.05,0,.05,0,.05l.09-.09,0,.09h0a.15.15,0,0,1,.12,0H1.7a.61.61,0,0,0,.55-.21l.12.12v.05a.84.84,0,0,0,.08-.29V21a2.09,2.09,0,0,0-.08-.37Zm-1-1.79v0c.05,0,.05.08.05.17H1.33ZM.79,20.8s0,0-.08,0H.62s-.08,0-.08.13a.24.24,0,0,1-.17-.05l-.08-.08s0,0,.08,0H.54s.08,0,.13,0,.08,0,.12-.12a.12.12,0,0,1,0,.08A.14.14,0,0,1,.79,20.8Zm.79-.08v.08l0-.08-.08-.08h.08S1.58,20.68,1.58,20.72ZM1,20.47H1v-.25h.08v.25Zm.37,0-.08.06s0,0,0,0,0,0,0,.09h0l0,0s0,0,0,0v0a.09.09,0,0,0-.08.08v0l-.05,0,0,0,0,0,0-.08.06.06.07-.06.08-.13,0,0v0l.08-.08h0l0,0,.08,0H1.43ZM2,21.51l0,0H1.9a.19.19,0,0,1-.2.12h0a.15.15,0,0,1-.12,0s0,0-.08,0,0,0,.08,0a.15.15,0,0,1,.12,0h0a.31.31,0,0,1,.17,0h0a.06.06,0,0,0,0,0l.09.05s0,0,0,0Z"/><path class="a92fba82-0580-4e19-af60-dbacbf74b123" d="M1.12,19v.2h.13s0-.08,0-.12S1.16,19,1.12,19Z"/><path class="a92fba82-0580-4e19-af60-dbacbf74b123" d="M2.79,21.47a.12.12,0,0,1,0-.08v0c0-.05,0-.09,0-.13a0,0,0,0,1,0,0H2.74s.09,0,.09.08a.21.21,0,0,1-.09.13.5.5,0,0,0-.12.08s0,.08,0,.16,0,.09.13.09h.08A.12.12,0,0,0,3,21.59a.15.15,0,0,1-.12,0S2.79,21.51,2.79,21.47Z"/><path class="a92fba82-0580-4e19-af60-dbacbf74b123" d="M1.7,19,2,19l-.21-.17v0A.1.1,0,0,1,1.7,19Z"/><path class="a92fba82-0580-4e19-af60-dbacbf74b123" d="M1.41,17.85s.05,0,.05,0H1.29a.12.12,0,0,1-.08,0H1.16a.15.15,0,0,1-.12,0H.83a.35.35,0,0,0-.21,0,.9.9,0,0,1-.16.41.59.59,0,0,0,.21,0,1.45,1.45,0,0,1,.37,0,.28.28,0,0,1,.17,0c0-.12,0-.16,0-.2a0,0,0,0,1,0,0s0,0,0,.08v.12h.13c0-.08,0-.16.08-.16s0,0,.08,0,0,0,0,.12,0,0,0,.08h.05s0,0,0-.08V18s0,0,.08,0H2a.51.51,0,0,0,.37.16s0,0,.08,0h.71a.55.55,0,0,1,.25,0,.26.26,0,0,0-.25-.2A.27.27,0,0,1,3,18a.3.3,0,0,1-.16,0h0a.21.21,0,0,1-.21-.17v.17a.17.17,0,0,1-.13,0s-.08,0-.08,0-.08,0-.12-.12A.63.63,0,0,0,2,17.81c-.09,0-.13,0-.17,0a.18.18,0,0,0-.13,0s0,0-.08,0l-.08.09s-.08,0-.13,0,0,0-.08,0v-.05S1.37,17.85,1.41,17.85Z"/><polygon class="a92fba82-0580-4e19-af60-dbacbf74b123" points="0.46 18.18 0.46 18.18 0.45 18.18 0.46 18.18"/><path class="a92fba82-0580-4e19-af60-dbacbf74b123" d="M.12,18C0,18.06,0,18.1,0,18.1a.4.4,0,0,0,.29.08H.45l-.08,0Z"/><path class="a92fba82-0580-4e19-af60-dbacbf74b123" d="M5.49,11.62l.33,0,.42,0,.08,0v-.16c0-.09,0-.13,0-.17H4.66v.12l.62.09Z"/><path class="a92fba82-0580-4e19-af60-dbacbf74b123" d="M11.76,15.77l.09-.08a.15.15,0,0,1,.12,0A1.55,1.55,0,0,0,12,15c0-.33-.08-.54-.08-.54a.8.8,0,0,1,.08-.33,1.26,1.26,0,0,0-.25-.08h0a.15.15,0,0,0-.12,0h-.29l-.09.08s0,0,0,0a.57.57,0,0,0-.25-.08.15.15,0,0,0-.12,0,.19.19,0,0,1-.09,0c-.08,0-.2,0-.29,0h-.16a.15.15,0,0,0-.13,0H9.35l0,0a.89.89,0,0,0-.46,0h0a.58.58,0,0,1-.45-.08V15.9c.24,0,.37,0,.41-.13a.19.19,0,0,1,0,.09,5.3,5.3,0,0,1,.09.87v.66a4.51,4.51,0,0,0-.05.67h0a.41.41,0,0,0-.45.12l0,.05,0,0c.12,0,.29,0,.45,0a1.5,1.5,0,0,0,.42,0h.08a2.89,2.89,0,0,0,.46,0h.5a.24.24,0,0,0,.16,0h.09a1.73,1.73,0,0,0,.2,0h.09a0,0,0,0,0,0,0h.08a.86.86,0,0,0,.29,0h.09a.27.27,0,0,0,.25-.12l0,0s.08.08.12.08h.17a.31.31,0,0,1,.12,0,.31.31,0,0,0,0-.12l-.08-.09a.09.09,0,0,1,.08-.08h.5a.12.12,0,0,0,0-.08s0-.09,0-.17a.15.15,0,0,1,0-.12c0-.05,0-.09.12-.13a.18.18,0,0,1-.08-.29,2,2,0,0,1-.21,0,1.92,1.92,0,0,0,.17-.13s.08-.08.12-.08v-.25a.31.31,0,0,1-.08-.21s0-.12.08-.29v-.33c-.12,0-.29,0-.41,0A.65.65,0,0,1,11.76,15.77ZM10.18,18l0,0L10,17.81l.12,0h0Zm.38-.59s-.08.05-.13.09,0,0,0,.08l-.05-.06,0,0,0,0-.09,0h.09a0,0,0,0,0,0,0l0,0c.05,0,.06-.07.09-.11a.13.13,0,0,0,.05-.12c0-.12.08-.21.16-.17a.18.18,0,0,1,0,.13S10.64,17.31,10.56,17.39Zm.25-1.28v0a.19.19,0,0,0-.09,0v.12s-.08-.08-.08-.12a.09.09,0,0,1,.08-.08s0-.05.09-.05h.12A.13.13,0,0,0,10.81,16.11Zm.25,1.74-.13,0-.08-.08h.21Zm.25.09-.09.08-.08.08.08-.12.09-.13Zm.08-.5h-.12c0-.09,0-.13,0-.17h.08Zm.21-1h0l0,0-.1,0a.09.09,0,0,0-.08-.08c0-.05,0-.05,0-.05v-.08l.22.19.07,0,0,0Z"/><path class="a92fba82-0580-4e19-af60-dbacbf74b123" d="M8.81,13.61c.13,0,.29,0,.5.09a2,2,0,0,1,.46,0h.5a.24.24,0,0,0,.16,0h.38a.15.15,0,0,1,.12,0h.38c.08,0,.2,0,.29,0h.12a.49.49,0,0,0,.21,0V11.41H8.36v1.08l0,1h0A1.51,1.51,0,0,0,8.81,13.61Z"/><path class="a92fba82-0580-4e19-af60-dbacbf74b123" d="M10.81,21.63s-.09,0-.09,0h-.08c-.08,0-.12-.08-.21-.12a.3.3,0,0,1-.16-.08s-.09,0-.13-.09H10a.21.21,0,0,1-.08-.16c.08-.09.12-.09.12-.09a.78.78,0,0,0-.21-.12H9.69l0,.08-.25.13,0-.25v0l-.13.12a.58.58,0,0,1-.25.09.33.33,0,0,1-.16-.09L9,21a.15.15,0,0,0,.12,0c.09-.08.09-.13.09-.17a0,0,0,0,0,0,0l-.34-.08-.45-.08.16.08a.51.51,0,0,0-.16.37.57.57,0,0,0,0,.21v.21a.41.41,0,0,1,0,.21l.2-.21a.38.38,0,0,0,.09.12.41.41,0,0,0,.16,0s0,0,.09.05.2,0,.29,0a.15.15,0,0,0,.12,0h0v0a1,1,0,0,1,.42,0h.08c.13,0,.21-.05.21-.09s0,0,.08,0,.09.05.13.09h1a.86.86,0,0,1-.29,0A.13.13,0,0,1,10.81,21.63Zm-2-.2h0l0-.08,0-.09.05,0c0,.05.08.09.12.05l.08-.05.05.05A1.36,1.36,0,0,0,8.81,21.43Z"/><path class="a92fba82-0580-4e19-af60-dbacbf74b123" d="M12,19.64c0-.17-.08-.25-.25-.21v-.08s.05-.09.13-.09H12a4.11,4.11,0,0,1,0-.62c-.08,0-.16,0-.25,0h-.5a.62.62,0,0,1-.29,0h-.16l0,0H10.6a.11.11,0,0,0-.12.12l-.05,0a.12.12,0,0,1,0-.08H9.1a1,1,0,0,1-.29,0,.75.75,0,0,0-.25,0,.31.31,0,0,0-.2.08l0,0,0,0c.16.09.24.17.24.3a.7.7,0,0,1-.16.37.3.3,0,0,0-.08.17.27.27,0,0,0-.09.24.31.31,0,0,0,0,.17h0c.08,0,.12,0,.16,0l-.16.17h0s0,0,0,.08v0l.08-.16h.12c.09,0,.13,0,.13,0v-.21l.08,0,0-.08,0-.08c.09,0,.13,0,.13.12s0,.08-.13.21a.14.14,0,0,1,0,.08.16.16,0,0,0,0,.13l-.12-.09a.56.56,0,0,0,.16.13l.17,0h.33s0,0,0,0l0,0,.42.09v.08h0l.08,0,.17,0c-.08-.05-.13-.05-.17-.09s0-.08-.08-.08v0a.75.75,0,0,1,0-.29h.12a.38.38,0,0,0,.21,0s0,0,.08,0a.17.17,0,0,1,.13,0h.12c0-.08,0-.16,0-.21s.05-.08.09-.08a.34.34,0,0,1,.2.13l0,0h0l.12.12s.09,0,.13,0a.14.14,0,0,1,.08,0c-.08,0-.08-.08-.08-.12s0-.21.16-.21h0l0,0,.12.13c.08,0,.08.08.08.12s0,.13-.2.17l.29.08.12,0,.21,0,0,0,.08-.08s.08,0,0-.08Zm-3.16-.17H8.77v-.29h.08Zm.59.21-.13-.08-.16-.13.16,0,.13,0a.1.1,0,0,1-.09.08.16.16,0,0,0,0,.09Zm.41.33H9.77l-.08,0L9.77,20l0,0h0L10,20Zm-.12-.37v-.25h.08v.25H9.73Zm.12-.75h0l0,0a.16.16,0,0,1,0,.09h-.2a.23.23,0,0,1,.08-.13s0,0,.08,0a.92.92,0,0,1,.17-.13Zm.5.58-.08.09h-.13v-.13l0,0,.09-.12,0-.09s.08,0,.08.09S10.39,19.39,10.35,19.47Zm.13-.29-.05-.08,0-.17h.09Zm.24-.29.09-.17V19h-.17Zm.09.46s0,.08-.09.12a.27.27,0,0,1-.2.09c.12,0,.16-.17.2-.3v-.08h.13C10.85,19.26,10.81,19.31,10.81,19.35Zm.41-.17-.16,0s0-.08.12-.08l0,0s.09,0,.09,0v0s0,0,.08.08h-.17Zm.17.38,0-.17.17.13.12.12-.12,0Zm.46.5h-.21l.08-.13.13-.12Z"/><polygon class="a92fba82-0580-4e19-af60-dbacbf74b123" points="8.36 19.02 8.31 19.02 8.36 19.14 8.36 19.02"/><path class="a92fba82-0580-4e19-af60-dbacbf74b123" d="M19.54,21a.13.13,0,0,0,0,.1A.12.12,0,0,0,19.54,21Z"/><path class="a92fba82-0580-4e19-af60-dbacbf74b123" d="M15.63,12.24h.17c.08,0,.12,0,.16,0h.09s.08,0,.12,0h0s.09,0,.09,0v0h.16a.16.16,0,0,0,.13,0s0,0,.08,0,0,0,.08,0V12.2s0,0,.09,0a.84.84,0,0,1,.29.08c.08,0,.16,0,.25,0a.43.43,0,0,0,.25.05.43.43,0,0,0,.2,0c.13,0,.21,0,.29,0v-.08l.21,0,.42.08.08-.29h0c.09,0,.13,0,.13.08a.17.17,0,0,0,0,.13c0,.08.08.12.2.12h.42s.08,0,.12.09a0,0,0,0,0,.05-.05h.12c.08,0,.13,0,.21-.12l.12.17h.42c.08,0,.21,0,.29.08H21a.57.57,0,0,0,.25,0,.33.33,0,0,0,.17,0h.41c.09,0,.17,0,.25,0a1.45,1.45,0,0,0-.25-.29,1.13,1.13,0,0,1-.24-.21.25.25,0,0,0-.17-.08.92.92,0,0,0-.17-.13L21,12a0,0,0,0,1,0,0l-.33-.13c-.08,0-.17,0-.25-.08s-.08,0-.17,0a1.51,1.51,0,0,0-.45-.08.24.24,0,0,0-.17-.05.55.55,0,0,0-.25,0,1.61,1.61,0,0,0-.46,0h0c-.08,0-.17,0-.29,0a.81.81,0,0,1-.21.09s-.08-.05-.12-.09h-.83a.53.53,0,0,0-.25,0,.58.58,0,0,0-.29.05.25.25,0,0,0-.17,0c-.08,0-.13,0-.21,0a.14.14,0,0,1-.08,0,1,1,0,0,0-.21.12.13.13,0,0,0-.12,0,.76.76,0,0,0-.25.16l-.05,0s-.08-.08-.08-.12v0l0,0-.08,0,0,0s0,0,0,.08A.12.12,0,0,1,15.63,12.24Zm3.2-.5H19l-.09,0,0,0Zm-2,.29h.08a.14.14,0,0,0,0,.09h0L16.75,12Z"/><path class="a92fba82-0580-4e19-af60-dbacbf74b123" d="M17.38,21.68l-.17-.13C17.25,21.63,17.29,21.68,17.38,21.68Z"/><path class="a92fba82-0580-4e19-af60-dbacbf74b123" d="M15.8,20.68s0,0,.08,0l-.08,0-.05-.09.05,0,.2-.17v.3a0,0,0,0,1,.05-.05s.08,0,.12-.08a1,1,0,0,1,.21-.12s.08-.05.08-.05a1,1,0,0,0,.21-.12.3.3,0,0,1,.17-.08c.12-.09.2-.13.29-.21l.25-.13a.76.76,0,0,1,.25-.16c.08-.08.16-.13.2-.17h.05s0,0-.05-.08a.1.1,0,0,0-.08-.09l-.12-.12V19s0,0,0-.09l.08.09c.08,0,.08-.13,0-.25s-.12-.17-.12-.21.08-.13.16-.17l-.16-.12.16-.13V18a.75.75,0,0,1,.5-.13v-.08s0-.08-.12-.12a.15.15,0,0,1-.13-.13s0,0,.17,0,0-.08,0-.13,0-.16,0-.24a1.4,1.4,0,0,1,0-.25c0-.17-.08-.25-.29-.25h-.12c0-.09,0-.17.08-.17a0,0,0,0,1,0,0s.08,0,.12.08.05.08.09.08.08-.08.08-.12,0-.08-.08-.17-.09-.12-.09-.16.05-.13.21-.21a1.53,1.53,0,0,1-.5-.08h-.08a2.91,2.91,0,0,1,0-.88,1.79,1.79,0,0,0,0-.83.12.12,0,0,0,.08,0h.08a.16.16,0,0,1-.08-.16.27.27,0,0,1,.08-.21v0c.05,0,.09-.09.09-.13s0-.08-.09-.12v0a.61.61,0,0,1,.25-.2l.25-.13h0c.05,0,.21.08.42.13,0,0,0,0,.08,0s.13.08.13.16,0,.09,0,.17a7.47,7.47,0,0,0,.12,1.71l0-.09a1,1,0,0,0,.21.09.38.38,0,0,0,.21,0h0s.12,0,.17,0l.37-.13h.08l0,0,0,0v0s.09,0,.17,0h0a.47.47,0,0,1,.21,0h0a.65.65,0,0,1,.29.09h0a1.6,1.6,0,0,0,.25,0,.5.5,0,0,0,.17,0s0,0,0-.09.08.09.13.09.12,0,.2,0h0c.09,0,.17,0,.3,0s0,0,0,0h0a1.1,1.1,0,0,0,.21,0h0a0,0,0,0,1,0,0s-.05,0,0,.09v0l.12-.13a0,0,0,0,1,0,0s0,0,0-.13,0,0,0-.08,0-.08-.12-.08a1.05,1.05,0,0,0,.08-.34,2.38,2.38,0,0,0-.08-.41.15.15,0,0,0,0-.12,1.15,1.15,0,0,0-.05-.25s.05-.13.05-.17v-.17a.27.27,0,0,0-.21-.29h-.08A.28.28,0,0,0,22,13h-.13s-.08,0-.12,0h-.46s-.12,0-.16-.08v0h-.71s-.08,0-.17,0a2.14,2.14,0,0,1-.45-.08l-.13.13,0,0c-.08,0-.17,0-.25,0l-.46-.12h-.21a1,1,0,0,1-.33,0,1.8,1.8,0,0,1-.5,0h-.2a.59.59,0,0,1-.25-.05.53.53,0,0,1-.25,0h-.29a.28.28,0,0,0-.17,0h-.62a1.85,1.85,0,0,0-.25,0s-.05,0-.09,0h0a0,0,0,0,1,0,0h-.17c0-.05,0-.05-.08-.05H15.3a.76.76,0,0,0-.33.09l-.05,0s0,0-.08.08a.4.4,0,0,0-.17.17s0,.08-.08.12,0,0,0,.09-.13.2-.17.33l-.12,1a1,1,0,0,0,.12.54h-.16a2.08,2.08,0,0,0,.08.33,1.17,1.17,0,0,1,.08.29.42.42,0,0,1-.16.33c0,.09.08.13.16.13a.33.33,0,0,0,.17,0h.12a.26.26,0,0,1,.09.16.79.79,0,0,1,0,.21.77.77,0,0,0,0,.46.47.47,0,0,1,0,.41l.08.09v0s0,0,0,.08h0a.12.12,0,0,0,0,.08l.08.09v0c-.08,0-.08,0-.08.08a.33.33,0,0,0,0,.17,0,0,0,0,0,0,0v.13l-.17,0-.12,0h0l0,0h.29l.13,0,.33,0h.12a.17.17,0,0,1,0,.13s0,0-.08,0a.66.66,0,0,1-.25.08H15a.16.16,0,0,1-.13,0h-.29a.18.18,0,0,0-.13,0c.05.17,0,.25-.12.25h-.08v.21a.31.31,0,0,1,.12,0c.08,0,.08,0,.08.08V19s.05.08.13.08l-.33.25h.2c.05,0,.09.08.09.12h-.13a.09.09,0,0,0-.08.09.28.28,0,0,1,.17,0,.12.12,0,0,0,.08,0s0,0,.08,0l-.08.08,0,0-.13-.12c0,.12,0,.21.13.29l0,0q.12.06.12.12l-.08.09a.14.14,0,0,1,0,.08v0h.25s0,0,0,.08,0,.05-.08.09l-.09.08h.17s.08,0,.08,0,0,0-.08.13l.13.08,0,0a.64.64,0,0,0,.29.17s0,0,.08,0h.08s0,0,.09-.05a.12.12,0,0,0,.08,0h0Zm2-3.83.05-.16v.37h-.05Zm0,.3,0,0a.27.27,0,0,1,.25.09v.12a2.39,2.39,0,0,1-.25-.21h0Zm4.24-3.7.05,0s.08,0,.08,0h0q.12.06.12.12s0,.09,0,.09H22.2l.08-.09-.08-.08v0h-.13Zm-.25.45h.09v.21L21.82,14l-.08-.13Zm-.58-.25h0l0,.13v0s0,0,.08,0H21.2ZM21,14.9h0v0h0Zm-.62-1.54,0,.09v.08h0Zm-.83.29h.12l0,0-.08,0ZM14.8,14h-.13l-.12,0h.25Zm-.25,4.74,0-.13a0,0,0,0,1,0,0l.08.08Zm.29,1.37-.08-.08,0,0h0s.08,0,.08.17Zm1.29-.08h-.08L16,20h.17Zm.25-1.42-.08.21v-.21s0-.08.08-.12,0,0,0-.09Zm.5,1.12h-.13l.09-.16,0-.08Zm0-1.82h-.08a0,0,0,0,1-.05-.05.14.14,0,0,1-.08,0H17C17,17.94,17,17.94,16.92,17.94Zm-.08-.25h.08l0,0a0,0,0,0,1,0,0h-.13V17.6h.13C16.79,17.64,16.84,17.64,16.84,17.69Zm.29,1.66s-.05,0-.09.08,0-.08.09-.17a.09.09,0,0,1,.08-.08S17.17,19.26,17.13,19.35Zm0-1.87h.12l-.12.08-.09,0Zm-.06-2.94.06,0,.12.12h-.08a0,0,0,0,1,0,0l-.05,0A.15.15,0,0,0,17.07,14.54Zm.31,4.14v0l.08-.08.12.21Zm.25-2.28,0-.09a.19.19,0,0,1,0,.09v.08s0,0-.08,0h-.05Zm-.05,1v0a.26.26,0,0,1-.08.17c0,.08-.08.13,0,.17s0,0-.08,0h-.13c0-.05.08-.05.13-.09S17.58,17.44,17.58,17.35Zm-.12-.41v.16h-.13l.05,0,.08-.08h-.08l-.05,0h.13Zm-.54-3.2a.35.35,0,0,1,.21,0s0,0,0,0a.4.4,0,0,0,.11.14l0,0,0,0a.51.51,0,0,0-.15-.06.69.69,0,0,0-.21.09l.12-.17ZM17,15.07a.18.18,0,0,1,0,.12s-.12,0-.2,0Zm-.33-.75.08,0,.09.16v0c-.05-.08-.13-.16-.17-.16l-.07,0a.15.15,0,0,0,0,.07H16.5l.1-.07S16.64,14.32,16.67,14.32Zm-.21-.87c.08,0,.08-.09.08-.09v0l0,0a0,0,0,0,1,0,0l.09.08-.17.09,0,0h0A.09.09,0,0,0,16.46,13.45Zm-.29,4.69a.3.3,0,0,1,0-.16c0-.17.09-.25.17-.25v.12s0,.09-.08.13-.13.12-.13.16,0,.09,0,0ZM16,15.32l.05,0,.08.08H16Zm-.2,2.62v-.05l.08-.08L16,18Zm-.05-5.28h.13v.12h-.13Zm.05,1.49.08.08v0l-.08-.09L15.67,14Zm-.13,2,.08.08h0c.05,0,.05,0,.05,0l0,.05a.6.6,0,0,1,.12.24.21.21,0,0,1-.08-.16l0-.08,0-.05-.05,0s0,0-.08,0Zm-.21-.91.09-.09v.09a.09.09,0,0,0,.08.08.14.14,0,0,1-.08,0h-.13ZM15.05,17v.12h0s0,0,0-.12,0-.08-.08-.13-.05,0-.05,0H15s.08,0,.08.13v0ZM15,15.44h-.13l.13-.12,0,0,0,.16Zm.29-.46v-.16s0,0,0,0,0,0,.08,0l-.08,0Zm.12,3-.08-.13h.12V18Zm0,.49h.09v.25h-.09Zm-.12,2.29-.13,0,.07-.07h0l.06.07,0,.07Zm.25-.37h-.17l0-.05h.13l.08.05ZM15.63,17a.09.09,0,0,1-.08-.08.23.23,0,0,1,.08-.13s0,0,0,0a.16.16,0,0,0,0,.13Z"/><path class="a92fba82-0580-4e19-af60-dbacbf74b123" d="M17.46,21.72l0,0h-.12Z"/><path class="a92fba82-0580-4e19-af60-dbacbf74b123" d="M22.61,17.06a.31.31,0,0,0-.29.29h-.2a1.14,1.14,0,0,0-.3.17,1.85,1.85,0,0,0-.24.29l0-.08-.12.12a.18.18,0,0,0,.12,0l-.12.13-.09.08.09,0-.13.13h0l-.16-.17L21.2,18h-.37a.22.22,0,0,1,.12-.21s0,0,0,0a.7.7,0,0,1,.25-.13v0c.08,0,.13,0,.17,0a.59.59,0,0,0,.17-.13.21.21,0,0,0,.12-.16l0,0,.08-.13s.08,0,.08.09v0a.92.92,0,0,1,.3-.17.14.14,0,0,0,.08,0h0a.59.59,0,0,0,.17-.13.7.7,0,0,0,.16-.2s.09.08.13,0a.21.21,0,0,1,.08-.17.14.14,0,0,1,0,.08.15.15,0,0,0,.13,0,.25.25,0,0,0,.08-.17s-.08,0-.12-.08,0,0,.08-.09,0,0,0-.08l-.5,0-.08.21h-.13a.15.15,0,0,1-.12,0s0-.05.08-.09,0,0,0-.08H21.24a.57.57,0,0,0-.25,0h-.37c-.08,0-.17,0-.25,0H20.2a1.93,1.93,0,0,0-.33.09v-.05a.24.24,0,0,1,.21-.08.55.55,0,0,0-.25,0h-.08a.25.25,0,0,0-.17,0,.46.46,0,0,0-.21.08s0,0,0-.08a.15.15,0,0,0-.12,0,.55.55,0,0,0-.21,0s-.09,0-.13.08h0a.19.19,0,0,1,0,.09.31.31,0,0,1,.09.2,1.21,1.21,0,0,1-.09.3c0,.16-.08.25,0,.33h0l.13,0a.15.15,0,0,1,0,.12.14.14,0,0,1-.09.05.12.12,0,0,0,0,.08s0,0,0,.08a.35.35,0,0,0,.17.09.3.3,0,0,0,.17-.05h.12a.63.63,0,0,1,.25.09v.21s0,.08-.08.08a.6.6,0,0,0-.13.16l0,0V18h-.21v.62a.42.42,0,0,0,.21-.08.74.74,0,0,0,.25-.17l.12-.12.05,0a1.41,1.41,0,0,1,.45-.29h.17a.31.31,0,0,1,.25.08h.08l-.08,0-.25.17-.17.08-.25.17a.25.25,0,0,1-.2.24c-.05,0-.09.05-.17.05a.55.55,0,0,0-.25,0,.37.37,0,0,0-.25.25v.29c0,.12,0,.17.13.17a.27.27,0,0,1-.21.08l.08,0a.93.93,0,0,1-.21.25s-.08,0-.12,0c-.21.13-.33.17-.38.25a0,0,0,0,0,0,0,.62.62,0,0,0-.5-.29,1.73,1.73,0,0,1-.2,0,.66.66,0,0,0-.25.17c-.09,0-.17.12-.25.16s0,0-.05,0a.9.9,0,0,1-.24.21,1.09,1.09,0,0,0-.17.13l-.21.12a.14.14,0,0,1-.08,0l-.08-.08-.13.12-.12.09-.25.2-.13.13s0,0,.08,0h.05a.14.14,0,0,0,.08,0c.08-.08.12-.08.17-.13l.08.09a.09.09,0,0,0-.08.08v.13s.08,0,.12,0a.33.33,0,0,0,.21.08.12.12,0,0,0,.08,0,.47.47,0,0,0,.21,0h.17a.25.25,0,0,0,.2-.24l-.2-.13c-.05,0-.09,0-.17-.08L16.46,21s-.08-.08-.08-.12l.08-.05h.21l.17,0h0l0,0-.13-.12a1.59,1.59,0,0,1,.13-.13c.12-.08.2-.16.29-.21h.12a.27.27,0,0,1,.13.17v0a.18.18,0,0,0,.25,0l.2-.08c.09,0,.13,0,.17.13l-.12.08s.08,0,.12,0,.12,0,.25.16a.14.14,0,0,1,.08,0h.13c0-.08,0-.16,0-.16l.12.08v-.13a.09.09,0,0,1,.09-.08.73.73,0,0,1,.16.21l.09.08.25-.16.12.08-.21.12c.13,0,.17,0,.21,0V21a0,0,0,0,0,0,0,.16.16,0,0,1,.13,0l0,0v0a0,0,0,0,1,0,0,.19.19,0,0,1,.17-.09h0a.26.26,0,0,0,.25-.12v.21a.31.31,0,0,0,.08.2v-.2s.08,0,.08,0a.22.22,0,0,1,.13.21v.37h.91c.08,0,.13,0,.17,0s.08,0,.12-.08,0,0,0,.08v0a.51.51,0,0,0,.24,0h.3s.08,0,.08,0a.25.25,0,0,0,.21-.12v.08l0,.08a.16.16,0,0,0,.08-.16v-.25a.38.38,0,0,1,0-.21l-.16,0v-.21l0,0c.08,0,.12.08.12,0a.86.86,0,0,1-.08-.38.3.3,0,0,1,0-.16V20a.71.71,0,0,0-.12-.41v0a.74.74,0,0,0,.16-.54v-.71L22.45,18c.08,0,.16,0,.25-.08a.57.57,0,0,1,.25-.13.14.14,0,0,0,.08,0s0,0,0-.08a1.11,1.11,0,0,1,0-.29,2.16,2.16,0,0,0,.08-.38.31.31,0,0,0-.08-.2A1.31,1.31,0,0,0,22.61,17.06Zm-3.28-.5.12.09v.16l-.12-.16-.08-.17Zm0,.75s-.08-.08-.12-.21L19.15,17l0,0L19,16.94c.06,0,.1,0,.15.1l.1-.1V17s0,.08.08.13a.91.91,0,0,1,.17.08A.37.37,0,0,1,19.33,17.31Zm-1.5,2.79-.06,0,0,0-.08,0,.1,0,.06-.07.13-.08.16.17Zm.54.5h-.12l.08-.09.13,0C18.37,20.51,18.37,20.55,18.37,20.6Zm1.25-.67h0l-.21,0h.17s0,0,0,0h0Zm.62.25h0v-.25h0Zm.25-.54-.12-.25,0,0h0l.12.12Zm.17,1h0l0,0,0,0,.21-.13ZM21,19.43h0v-.08l0,0Zm.59.67,0-.12s0,0,0,0a.06.06,0,0,1,0-.08l0,.09a.07.07,0,0,1,0,0,.11.11,0,0,0,.08,0Zm.62-1.17-.08.13-.09.08.09-.12.08-.13Z"/><path class="a92fba82-0580-4e19-af60-dbacbf74b123" d="M33.09,21.22h0v-.08h-.25s0,.08.08.08Z"/><path class="a92fba82-0580-4e19-af60-dbacbf74b123" d="M33.21,21.59h0l0,0h0v-.12l-.21.17c0-.05-.08-.05-.08-.09a.14.14,0,0,0,0-.08.12.12,0,0,0,0-.08.27.27,0,0,1-.21-.08l-.12.12.21.08-.09.17H33a.09.09,0,0,0,.13,0,.23.23,0,0,0,.17,0C33.26,21.63,33.26,21.59,33.21,21.59Z"/><polygon class="a92fba82-0580-4e19-af60-dbacbf74b123" points="33.09 20.84 33.01 20.93 33.09 20.93 33.26 20.93 33.13 20.8 33.09 20.84"/><path class="a92fba82-0580-4e19-af60-dbacbf74b123" d="M33.09,19.26l0,0Z"/><path class="a92fba82-0580-4e19-af60-dbacbf74b123" d="M32.47,19.31h0l.12-.17h-.29s0,0,0,.08l0,0Z"/><path class="a92fba82-0580-4e19-af60-dbacbf74b123" d="M30.18,18.85l-.5-.17.42.3s0,.08.08.12a1.67,1.67,0,0,0,.42.62c.12.17.24.34.37.5a1.16,1.16,0,0,1,.21.25h.12l0-.08a.16.16,0,0,1,0-.09s0,0,.08-.08a1.11,1.11,0,0,0,.38.13l.08-.38s0,.09-.08.17,0,.08-.12.08h-.05c-.12-.08-.16-.12-.16-.21s.08-.08.25-.12.2-.13.2-.21.09,0,.09.13v.12h.16v0s.09,0,.17,0h0a.16.16,0,0,1,.13,0s0,0,.08,0l0,0a.41.41,0,0,1,.16,0l.09,0a1.52,1.52,0,0,0-.29-.21h-.13s0,0,0,0a.32.32,0,0,1,0-.13H32s0,0,.08-.12a.27.27,0,0,0-.17,0h-.16c-.08,0-.17-.05-.13-.21l-.12.12s0-.12-.09-.17-.08,0-.16-.08a.35.35,0,0,1-.17,0H31a2.24,2.24,0,0,1-.37,0l.08-.08Zm1,1.16h.12l-.08,0-.08,0Z"/><path class="a92fba82-0580-4e19-af60-dbacbf74b123" d="M31,13.4a.45.45,0,0,1,.25,0h.21a3.88,3.88,0,0,1,.7,0h.34a2.48,2.48,0,0,1,.62,0h.12V11.41H29.64l-.08,1.87c.2,0,.37,0,.62.08S30.68,13.4,31,13.4Z"/><path class="a92fba82-0580-4e19-af60-dbacbf74b123" d="M32.8,21l-.33-.08h-.09v-.42h0l-.21.29h0L32,20.72l.08-.08-.13.08s0,.08.13.08l.08.09,0,0s.12,0,.16.08.08,0,.13,0,.12,0,.2,0S32.8,21.05,32.8,21Z"/><polygon class="a92fba82-0580-4e19-af60-dbacbf74b123" points="32.05 20.1 32.05 20.22 32.13 20.14 32.17 20.1 32.13 20.1 32.05 20.1"/><path class="a92fba82-0580-4e19-af60-dbacbf74b123" d="M33,19.22h0Z"/><path class="a92fba82-0580-4e19-af60-dbacbf74b123" d="M33.13,18.43h0c-.21,0-.42,0-.62,0h-.34a5.24,5.24,0,0,0-.75,0h-.16a.55.55,0,0,1-.25,0h-.29a2.34,2.34,0,0,0-.5-.08,1.61,1.61,0,0,1-.54-.09s-.08,0-.08.09,0,0,.12.08.17.08.17.12l.12-.12.21.17.12.12a1,1,0,0,0,.34.12,1.52,1.52,0,0,1,.25.05l0-.05c0,.05,0,.05,0,.09a.7.7,0,0,0,.25.17h.12a0,0,0,0,1,0,0,.76.76,0,0,1,.46.2.64.64,0,0,1,.21-.24s0-.05.08-.05a.25.25,0,0,1,.17-.08c0-.08,0-.17,0-.17h0l0,0a0,0,0,0,0,0,.05.2.2,0,0,1,0,.21l.29-.26,0,.05-.17.21s0,0,.09,0a0,0,0,0,0,0,0c0-.05,0-.09.12-.09S33,19,33,19s0,.08-.09.16a.3.3,0,0,0-.12.13s0,0,.08,0a.16.16,0,0,1,.13,0s0-.08.08-.08h.12a.31.31,0,0,0,0-.21.7.7,0,0,0,0-.29C33.17,18.52,33.13,18.43,33.13,18.43Zm0,.34h0V18.6h0Z"/><path class="a92fba82-0580-4e19-af60-dbacbf74b123" d="M32.26,21.22a.16.16,0,0,0-.13,0,.24.24,0,0,0-.16,0l-.09.29a.42.42,0,0,1-.2-.29.19.19,0,0,0-.17-.21h-.13v0s0,0-.08.08,0,0,0-.08V20.8h0a.88.88,0,0,0-.25-.16s-.08-.09-.13-.09a.41.41,0,0,0-.29-.16h-.08l.13-.21c-.05-.08-.09-.08-.17-.08a.35.35,0,0,0-.17,0s-.08,0-.08,0H30.1V20.1s0-.09.08-.09h0c.08,0,.13-.08.13-.12l-.09-.08-.08.12-.08,0-.09,0s0-.08.09-.12l.08-.09,0,0,0,0L30,19.56l0,0a.65.65,0,0,0-.45-.42c0,.37,0,.62.2.71a.26.26,0,0,0-.2.25.4.4,0,0,1,0,.12.31.31,0,0,1,0,.12c0,.09,0,.13-.08.17l.12.13-.12.12c.12,0,.2,0,.2,0l-.16.13s0,0,0,.08.08.08.2.08a.19.19,0,0,1,.21.17.72.72,0,0,1-.25.13s-.08-.05-.08-.05v.38l.54-.17.08,0v.21h.21v0h.13a.37.37,0,0,0,.24-.09.58.58,0,0,1,.09-.28s0,.08,0,.12a0,0,0,0,1,0,0s.08,0,.17.08l0,.09h.24c.09,0,.17-.05.26-.05s.28-.08.33-.12l-.09.08.25,0,.09.05a.57.57,0,0,0,0-.21c0-.08,0-.12.08-.12h.08l-.08-.09S32.3,21.22,32.26,21.22Zm-2.08-.33L30,21l-.12-.29.08.08s.13,0,.21,0v0c.08-.08.17-.12.25-.08Zm.79.37c-.08,0-.08-.08-.08-.08s0,0,0,0l0,0,.08.12A.12.12,0,0,1,31,21.26Z"/><path class="a92fba82-0580-4e19-af60-dbacbf74b123" d="M25.44,13a.39.39,0,0,0,.21,0h.29a3.48,3.48,0,0,1,.71.08.85.85,0,0,1,.37.08h.29s.25,0,.58.09c.13,0,.29,0,.5,0v-.21a3.12,3.12,0,0,1,0-.54,2.84,2.84,0,0,0,.05-.58,2.17,2.17,0,0,0-.09-.54H24.86V12.9a1.15,1.15,0,0,0,.25,0Z"/><path class="a92fba82-0580-4e19-af60-dbacbf74b123" d="M29,16H27.31a.3.3,0,0,1-.16,0c-.17,0-.34,0-.5,0-.34.05-.67.13-1,.21a.39.39,0,0,0-.21,0h-.08s.08.05.08.05a.18.18,0,0,1,.13,0l-.13.12a.91.91,0,0,0-.12.71,1.5,1.5,0,0,1-.05.83s-.08,0-.16,0-.29,0-.33.16l.16.21a.12.12,0,0,1-.08,0l-.08,1,.16.21c-.08,0-.08,0-.08,0l.08.08s0,.09,0,.13h0a1.93,1.93,0,0,0-.08.46c0,.2.08.29.29.25,0,0,0,0-.13,0s-.21,0-.16.12.16,0,.16.08a1.14,1.14,0,0,0-.08.55.86.86,0,0,0,0,.33,1.46,1.46,0,0,0,.21-.25s0-.08,0-.12l.12.24c.05.09.09.13.17.13h.21c.08,0,.12,0,.17-.13a2.2,2.2,0,0,0,.29,0,1,1,0,0,0,.33.05h.21c.16,0,.33,0,.5,0h.74a.82.82,0,0,0,.5-.13.14.14,0,0,1,0-.08s0-.08.08-.21.05-.16.05-.21-.09-.16-.21-.2l.21-.13c-.09,0-.13-.08-.13-.16a.22.22,0,0,1,0-.13.31.31,0,0,0,0-.17.12.12,0,0,0,0-.08.35.35,0,0,1-.21,0l.09-.08a.3.3,0,0,0,.16,0s.05,0,.05,0,0,0-.05-.09v-.12s0-.08.05-.08c-.09-.34-.17-.59-.21-.71a.5.5,0,0,0,.12-.08c.09-.09.09-.21.09-.38a.63.63,0,0,0-.13-.41.5.5,0,0,0,0-.17.09.09,0,0,1,.09-.08s.08,0,.12,0a.2.2,0,0,1-.08-.13s0-.08.08-.16a.22.22,0,0,0,0-.13c.13.09.17.13.25.13s.08-.09.17-.25.12-.25.21-.25l.12.16a1.4,1.4,0,0,0,0-.45,3.36,3.36,0,0,0-.12-.92C29.18,16.15,29.1,16.11,29,16Zm-3.82,4.49,0-.08L25,20.26l.08.09,0,0Zm.33,1H25.4v-.16h.08Zm0-1.45h0a.12.12,0,0,0-.09.06.31.31,0,0,1,0,.1s-.05,0-.05,0l0-.06c0-.07,0-.11,0-.11h.34S25.57,20.06,25.44,20.06Zm1.71,1.49-.13,0,.08-.12h.13Zm.16-3.82-.08,0v-.13h.12Zm.58,1.41L28,19v.2h-.13l-.12,0Zm.38,2.16L27.89,21l0,0h.29a.15.15,0,0,0,0,.12l.08.09C28.27,21.18,28.27,21.22,28.27,21.3Z"/><path class="a92fba82-0580-4e19-af60-dbacbf74b123" d="M33.71,16.06a.19.19,0,0,1,.09-.16l-.13.08c-.08,0-.12,0-.21-.08s-.12-.13-.2-.08l0-2.12h-.12a3,3,0,0,1-.62,0h-.75a.86.86,0,0,0-.34,0h-.16a.55.55,0,0,1-.25,0h-.79a2.6,2.6,0,0,0-.58,0s0,0,0,.25,0,.21.12.21a1.29,1.29,0,0,0-.12.46,1.35,1.35,0,0,1,0,.54h-1a.5.5,0,0,1-.13-.38c0-.21,0-.33,0-.37a.58.58,0,0,0,.13-.42,1,1,0,0,0-.09-.45,1.05,1.05,0,0,1-.5,0,2.32,2.32,0,0,1-.58,0h-.16c-.17,0-.34,0-.5-.08h0a4.4,4.4,0,0,0-1-.12c-.08,0-.13,0-.21,0h-.66v.55a.92.92,0,0,0,.12.53,2.54,2.54,0,0,0-.17.75,7.85,7.85,0,0,0,.13.88h.08c0-.09,0-.17.09-.17s.08.08,0,.13,0,0,0-.05h0c.08,0,.12.05.12.13a.9.9,0,0,0,.09.21s0-.05.08-.05a.39.39,0,0,0,.21,0,8.33,8.33,0,0,1,1-.16c.16,0,.33,0,.5,0a.25.25,0,0,0,.16-.05h1a6.62,6.62,0,0,1,1.37.09v.54a6.32,6.32,0,0,1,0,1,.18.18,0,0,0,.13,0,.12.12,0,0,1,.08,0c.12,0,.21.13.21.21v.21c0,.08,0,.12,0,.16h0c.17,0,.42.05.79.09.08,0,.17,0,.25,0h.16a.88.88,0,0,0,.34,0c.12,0,.29,0,.41.08h.34a3.18,3.18,0,0,0,.62,0h.17l0-.16.59-.08V16.31c-.13,0-.21,0-.21,0a.31.31,0,0,1,.12,0Zm-1.53,1.38s0,0,0,.08H32l0,0h.17a0,0,0,0,1,0,0c.09,0,.09-.05.09-.09A.05.05,0,0,1,32.18,17.44Zm0-.29h-.09l0,0a0,0,0,0,0,0,0l-.08.08,0,0,.08-.09s0,0,.05,0,0,0,0-.06h.09s0,0,.08,0S32.26,17.15,32.22,17.15Z"/><path class="a92fba82-0580-4e19-af60-dbacbf74b123" d="M33.09,19.31h0v0h0l-.08,0Z"/><path class="a92fba82-0580-4e19-af60-dbacbf74b123" d="M32.42,19l0,0Z"/><path class="a92fba82-0580-4e19-af60-dbacbf74b123" d="M32.47,19l0,0Z"/><path class="a92fba82-0580-4e19-af60-dbacbf74b123" d="M43.82,12.7a.36.36,0,0,1-.17-.09.31.31,0,0,1,.21-.08l0-.91s-.09,0-.13,0-.08,0-.13.16a.23.23,0,0,1-.16.13l-.08-.25a.88.88,0,0,0-.38-.09c-.12,0-.25.05-.46.05a1.83,1.83,0,0,1-.37,0h-.17v0h-.33a.61.61,0,0,0-.25-.05.37.37,0,0,0-.21.09L41,11.49H39.82c-.08,0-.16,0-.25.09l-.33-.17s0,.08-.08.08,0,.09,0,.17,0,.12-.13.16a1.29,1.29,0,0,0-.08-.24.09.09,0,0,1,.08-.09,1.89,1.89,0,0,1-.37,0c-.17,0-.33,0-.42,0a.66.66,0,0,0-.33.08v.25a.18.18,0,0,1-.17-.12,1.79,1.79,0,0,0-.12-.21H36.25a1.84,1.84,0,0,0-.79.08v2l2.2,0a.25.25,0,0,1,0,.17V14a.43.43,0,0,0,.17.25.47.47,0,0,0-.13.33.82.82,0,0,1,0,.37l.59.09c.08,0,.37,0,.83,0h.41c.09,0,.17,0,.25,0h.34s.12,0,.16,0c.21,0,.38.09.54.13l-.12.12a.16.16,0,0,0-.13,0,.43.43,0,0,0-.2,0s0,0-.09,0-.08,0-.12,0a0,0,0,0,1,0,0s-.09,0-.09,0l-.25,0-.66.09-.87.12,0,.75a.21.21,0,0,1,.21-.17h.33a1.17,1.17,0,0,0,.29-.08,3.54,3.54,0,0,0,.66-.25h.09a.57.57,0,0,1,.25-.08s.12,0,.16-.09a2.16,2.16,0,0,1,.67-.08.88.88,0,0,1,.37-.12c.09,0,.17-.05.25-.05a1.18,1.18,0,0,0,.46-.2H41.9s-.08,0-.08,0l-.17.16a.32.32,0,0,1-.12-.29c0-.17-.08-.25-.13-.25a.69.69,0,0,0,.21-.54s0-.25-.08-.58a.55.55,0,0,1,.54-.29,2.09,2.09,0,0,1,.66,0,1.31,1.31,0,0,0,.59,0v0h.5v-.67h0a.12.12,0,0,0,0-.08A.09.09,0,0,0,43.82,12.7Zm-4-.5h0s.09,0,.13,0l.08,0-.12.12.21,0,.16.05c.25,0,.34,0,.29.08l-.29-.08h-.16c-.13,0-.25,0-.34,0l-.08.08-.08-.08C39.66,12.36,39.74,12.28,39.82,12.2Zm1.54.75c0,.12-.12.2-.21.2l-.29-.2,0,.29s.08,0,.17,0v.21c0-.17-.13-.25-.38-.25l-.08,0,0,0a.23.23,0,0,1,.08-.13c.09,0,.13-.08.13-.12l-.09-.09h0a.52.52,0,0,1-.29.24h-.16c-.13,0-.21,0-.21.09s0,0,0-.09a1.05,1.05,0,0,0-.17-.12.12.12,0,0,1-.08,0l-.33-.13-.08-.08.16-.12,0,.2.29-.12H40l-.09-.08c.13.12.21.16.25.12h0l0,0,0,0a.16.16,0,0,0-.09,0h.38a.32.32,0,0,1-.13.24l0,0s0,0,0,.08h.09c.06,0,.13-.06.2-.12h0l0,0a.11.11,0,0,1,0-.08.1.1,0,0,1,.09-.08.2.2,0,0,0,.12-.14,0,0,0,0,1,0-.07v.07l0,0a.12.12,0,0,0,.09.05h.2c-.12,0-.2,0-.2.08s.08.08.16.08a.21.21,0,0,0,.17-.08l.08-.08c0-.05,0-.05,0-.05A1.11,1.11,0,0,1,41.36,13Z"/><path class="a92fba82-0580-4e19-af60-dbacbf74b123" d="M39.33,15.32h-.17l-.83,0v.16a7.18,7.18,0,0,0,.83-.08A.25.25,0,0,1,39.33,15.32Z"/><path class="a92fba82-0580-4e19-af60-dbacbf74b123" d="M42.07,16.48v-.87c-.17,0-.42.12-.71.21s-.62.16-1,.29c0,0-.12,0-.16.08a1.05,1.05,0,0,1-.34.08,4.49,4.49,0,0,1-.66.21c-.38.12-.67.21-.87.25v1.62c.16,0,.45.13.87.21a.55.55,0,0,1,.25,0c.16,0,.29,0,.41,0l.34.08a.2.2,0,0,1,.16.05,1.58,1.58,0,0,1,.21,0l.13-.17.2.25H41a1.45,1.45,0,0,1,.37,0h0a2.68,2.68,0,0,0,.42.09s0-.09,0-.21.08-.13.13-.13,0,0,.08,0V18.1a.53.53,0,0,1,0-.25,1.45,1.45,0,0,1,0-.37,3.45,3.45,0,0,0,.08-.42.68.68,0,0,0-.21-.5C42,16.48,42,16.48,42.07,16.48Z"/><path class="a92fba82-0580-4e19-af60-dbacbf74b123" d="M41.4,19.26s0-.08,0-.08a.15.15,0,0,0-.12,0,.35.35,0,0,1-.25-.08h-.67s-.12,0-.16,0-.21,0-.34-.09l-.45-.12a.38.38,0,0,1-.21,0,5.76,5.76,0,0,0-.79-.09.91.91,0,0,0-.33,0c0,.17,0,.3,0,.38a.53.53,0,0,0,.25.29l0,0c-.13,0-.21,0-.25,0a.73.73,0,0,1,0,.29c0,.13,0,.33,0,.62A3.89,3.89,0,0,0,38,21a1.26,1.26,0,0,0,0,.38c.09,0,.13,0,.13.08s0,.12-.17.2a.19.19,0,0,0,.09,0l.08,0s.08.08.08.17h2.41a.85.85,0,0,1,.34-.09s.16.05.41.09a.58.58,0,0,0,.46,0,8.5,8.5,0,0,0,0-1.13,12.36,12.36,0,0,0,0-1.29ZM41.28,21l-.08,0h.16A.14.14,0,0,0,41.28,21Z"/></g></g></svg>