<svg xmlns="http://www.w3.org/2000/svg" viewBox="0 0 65.22 33.3"><defs><style>.a0e39602-c01c-41c4-a16d-acc0cdd7792e{fill:#f48220;}.a8f019e6-0413-4c56-856c-fe95b50c8e46,.be7fa819-130c-4746-aa19-f614c7bdcca7{fill:#fff;}.be7fa819-130c-4746-aa19-f614c7bdcca7{fill-rule:evenodd;}.b0b0556d-bb0a-4384-bc25-b79839c3aca0{fill:#010101;}</style></defs><g id="a1e5f183-3487-40d7-b9fb-e3c5640d1c86" data-name="Capa 2"><g id="a9433c45-d60a-45a4-858b-7f4dc3b02220" data-name="Layer 1"><polygon class="a0e39602-c01c-41c4-a16d-acc0cdd7792e" points="32.03 29.52 65.22 33.3 61.54 0 32.03 0 32.03 29.52"/><polygon class="be7fa819-130c-4746-aa19-f614c7bdcca7" points="55.59 16.12 53.66 19.53 51.54 19.53 54.64 14.64 51.63 9.9 53.75 9.9 55.59 13.25 57.46 9.9 59.58 9.9 56.59 14.64 59.67 19.53 57.54 19.53 55.59 16.12"/><path class="be7fa819-130c-4746-aa19-f614c7bdcca7" d="M37.83,15.26h0V13.72h0A1.2,1.2,0,0,0,39,12.61a1.14,1.14,0,0,0-1.17-1.09h0V9.81h0a2.81,2.81,0,0,1,3,2.77,2.11,2.11,0,0,1-1,1.79,2.25,2.25,0,0,1,1.54,2.26,3.16,3.16,0,0,1-3.49,2.9h-.08v-1.7h0a1.4,1.4,0,0,0,1.54-1.26A1.36,1.36,0,0,0,37.83,15.26Zm0,0h-1.6v2.57h1.6v1.7H34.4V15.26H33.08V13.72H34.4V9.81h3.38v1.71h-1.6v2.2h1.6Z"/><path class="be7fa819-130c-4746-aa19-f614c7bdcca7" d="M47.1,17.72h0v1.89a5,5,0,0,0,0-10v1.9h0a3.13,3.13,0,0,1,0,6.26Zm0,0a3.13,3.13,0,0,1,0-6.26V9.56h-.05a5,5,0,1,0,0,10h.05Z"/><path class="b0b0556d-bb0a-4384-bc25-b79839c3aca0" d="M1.56,11.35V14.2h4v1.4h-4v4.1H0V9.9H6.6v1.45Z"/><path class="b0b0556d-bb0a-4384-bc25-b79839c3aca0" d="M12.67,17.48H8.08L7.17,19.7H5.51L9.65,9.9H11.1l4.14,9.8H13.58Zm-.56-1.36-1.26-3.07c-.22-.53-.45-1.28-.47-1.28h0s-.25.75-.46,1.28L8.65,16.12Z"/><path class="b0b0556d-bb0a-4384-bc25-b79839c3aca0" d="M21.12,12.75a2.14,2.14,0,0,0-2.2-1.7c-1.1,0-1.84.53-1.84,1.31,0,.94,1.23,1.25,2.49,1.64s3.16,1.14,3.16,3-1.47,2.93-3.66,2.93A3.75,3.75,0,0,1,15.19,17l1.48-.41a2.37,2.37,0,0,0,2.46,1.93c1.24,0,2-.64,2-1.48,0-1.22-1.51-1.47-2.9-1.94-1.15-.39-2.7-.93-2.7-2.64C15.5,10.92,17,9.7,19,9.7a3.53,3.53,0,0,1,3.61,2.65Z"/><path class="b0b0556d-bb0a-4384-bc25-b79839c3aca0" d="M30.83,9.9v1.45H27.64V19.7H26.1V11.35H22.94V9.9Z"/><path class="b0b0556d-bb0a-4384-bc25-b79839c3aca0" d="M8.13,27.65l-.56.56-1-1a2.73,2.73,0,0,1-2.18,1.14,2.27,2.27,0,0,1-1.58-.58,2,2,0,0,1-.66-1.52,2.6,2.6,0,0,1,1.3-2.09,2.44,2.44,0,0,1-.84-1.48,1.46,1.46,0,0,1,.48-1.13,1.72,1.72,0,0,1,1.18-.42,1.75,1.75,0,0,1,1.19.42A1.44,1.44,0,0,1,6,22.68c0,.55-.41,1.1-1.22,1.65L6.46,26a4,4,0,0,0,.3-1.71H7.5A4.72,4.72,0,0,1,7,26.54ZM6,26.68l-2-2a1.87,1.87,0,0,0-1,1.53,1.23,1.23,0,0,0,.45,1,1.58,1.58,0,0,0,1.06.36A1.84,1.84,0,0,0,6,26.68Zm-.88-4a.75.75,0,0,0-.24-.59.9.9,0,0,0-.63-.22.72.72,0,0,0-.81.81,1,1,0,0,0,.26.63,4.16,4.16,0,0,0,.49.5,3.45,3.45,0,0,0,.64-.46A1,1,0,0,0,5.11,22.68Z"/><path class="b0b0556d-bb0a-4384-bc25-b79839c3aca0" d="M10.31,22.33v2h2.83v1H10.31v2.91H9.21V21.3h4.68v1Z"/><path class="b0b0556d-bb0a-4384-bc25-b79839c3aca0" d="M20.54,21.3v4c0,2-1.1,3.09-2.93,3.09s-2.92-1.08-2.92-3.09v-4h1.1v4c0,1.4.62,2.08,1.82,2.08s1.84-.68,1.84-2.08v-4Z"/><path class="b0b0556d-bb0a-4384-bc25-b79839c3aca0" d="M27.62,21.3v7h-1l-2.53-3.41c-.61-.85-1.21-1.71-1.22-1.71h0s0,.93,0,2.17v2.95h-1.1V21.3h1l2.55,3.43c.5.67,1.19,1.65,1.2,1.65h0s0-1,0-2.12v-3Z"/><path class="a8f019e6-0413-4c56-856c-fe95b50c8e46" d="M55.88,28.23H54.29V26.37H52.94v1.86H51.35V23h1.59v1.85h1.35V23h1.59Z"/><path class="a8f019e6-0413-4c56-856c-fe95b50c8e46" d="M58.82,28.23H56.51V23h2.31a2.6,2.6,0,0,1,2.69,2.63A2.55,2.55,0,0,1,58.82,28.23Zm-.72-1.51h.72a1,1,0,0,0,1.06-1.08,1.05,1.05,0,0,0-1.06-1.12H58.1Z"/></g></g></svg>