<svg xmlns="http://www.w3.org/2000/svg" viewBox="0 0 62.95 26.97"><defs><style>.e4d9fc17-8fe4-4db3-9aee-666c5af7ec79{fill:#010101;}.b177380f-b4a9-4d5a-b018-f1be8a3555c9{fill:#c3d948;}</style></defs><g id="b52aa567-2509-4fb8-af58-f4e78a36c2ed" data-name="Capa 2"><g id="e13dbfba-6afb-4d66-a652-142e88cc3c51" data-name="Layer 1"><g id="a7375210-81ef-44c1-a313-3f56e973a299" data-name="GINX"><path id="b5e4f965-fb87-40f1-8c94-bcbe9cc12657" data-name="G" class="e4d9fc17-8fe4-4db3-9aee-666c5af7ec79" d="M18,18H0V0H18V5.52H6A.48.48,0,0,0,5.52,6v6a.47.47,0,0,0,.48.48h6a.47.47,0,0,0,.48-.48h0a.47.47,0,0,0-.46-.46H6.59a.13.13,0,0,1-.13-.13V6.6a.13.13,0,0,1,.13-.14H18Z"/><rect id="b94ce92c-4ea1-4b78-8667-ce364976c25d" data-name="I" class="e4d9fc17-8fe4-4db3-9aee-666c5af7ec79" x="18.97" y="6.46" width="6.03" height="11.58"/><rect id="f31d8201-de4c-4929-be07-0f59de8d0c55" data-name="." class="b177380f-b4a9-4d5a-b018-f1be8a3555c9" x="18.97" width="6.03" height="5.52"/><polygon id="b81db331-ab02-4625-b766-a53d7ab65eb0" data-name="N" class="e4d9fc17-8fe4-4db3-9aee-666c5af7ec79" points="43.97 18.04 37.92 18.04 37.92 5.99 31.99 5.99 31.99 18.04 25.94 18.04 25.94 0 43.97 0 43.97 18.04"/><polygon id="bd9f7bf3-d5ea-43f8-8176-3326ca943743" data-name="X" class="e4d9fc17-8fe4-4db3-9aee-666c5af7ec79" points="62.95 13.61 58.35 9.02 62.95 4.42 62.95 0 58.52 0 53.93 4.59 49.34 0 44.91 0 44.91 4.42 49.51 9.02 44.91 13.61 44.91 18.04 49.34 18.04 53.93 13.44 58.52 18.04 62.95 18.04 62.95 13.61"/></g><g id="a4a3128c-14ce-4d6d-a082-a483ab388912" data-name="EsportTV"><path class="b177380f-b4a9-4d5a-b018-f1be8a3555c9" d="M0,26.36V21.61a.52.52,0,0,1,.52-.52H3.9a.46.46,0,0,1,.45.46A.45.45,0,0,1,3.9,22H1v1.5H3.52A.47.47,0,0,1,4,24a.45.45,0,0,1-.46.44H1V26h2.9a.46.46,0,0,1,.45.46.45.45,0,0,1-.45.45H.54A.51.51,0,0,1,0,26.36Z"/><path class="e4d9fc17-8fe4-4db3-9aee-666c5af7ec79" d="M7,26.23a.5.5,0,0,1-.2-.39.48.48,0,0,1,.48-.47.49.49,0,0,1,.3.09,2.5,2.5,0,0,0,1.62.59c.63,0,1-.29,1-.72v0c0-.41-.23-.63-1.3-.88C7.71,24.13,7,23.77,7,22.7H7A1.78,1.78,0,0,1,9,21a3.16,3.16,0,0,1,1.83.54A.45.45,0,0,1,11,22a.49.49,0,0,1-.74.4A2.42,2.42,0,0,0,9,21.91c-.59,0-.94.31-.94.69H8c0,.45.26.65,1.38.91s1.85.74,1.85,1.69v0c0,1.08-.85,1.72-2.07,1.72A3.6,3.6,0,0,1,7,26.23Z"/><path class="e4d9fc17-8fe4-4db3-9aee-666c5af7ec79" d="M14.07,21.61a.51.51,0,0,1,.51-.52h1.77A1.94,1.94,0,0,1,18.54,23h0c0,1.3-1,2-2.31,2H15.09v1.4a.5.5,0,0,1-.51.5.5.5,0,0,1-.51-.5Zm2.2,2.49c.76,0,1.24-.43,1.24-1v0c0-.68-.49-1-1.24-1H15.09V24.1Z"/><path class="e4d9fc17-8fe4-4db3-9aee-666c5af7ec79" d="M20.94,24v0a3,3,0,0,1,6,0h0a3,3,0,0,1-3,3A2.93,2.93,0,0,1,20.94,24Zm5,0v0a2,2,0,0,0-2-2.05A2,2,0,0,0,22,24h0A2,2,0,0,0,24,26,2,2,0,0,0,25.92,24Z"/><path class="e4d9fc17-8fe4-4db3-9aee-666c5af7ec79" d="M29.83,21.61a.51.51,0,0,1,.51-.52h2.07a2.33,2.33,0,0,1,1.66.58,1.74,1.74,0,0,1,.48,1.25h0a1.71,1.71,0,0,1-1.31,1.73l1.11,1.39a.61.61,0,0,1,.16.39.48.48,0,0,1-.49.47.57.57,0,0,1-.49-.26l-1.4-1.79H30.85v1.55a.51.51,0,0,1-1,0ZM32.33,24c.73,0,1.19-.38,1.19-1h0c0-.62-.44-1-1.2-1H30.85V24Z"/><path class="e4d9fc17-8fe4-4db3-9aee-666c5af7ec79" d="M38.81,22h-1.4a.48.48,0,0,1,0-.95h3.84a.48.48,0,0,1,0,.95H39.83v4.37a.51.51,0,0,1-1,0Z"/><path class="e4d9fc17-8fe4-4db3-9aee-666c5af7ec79" d="M44.08,26.23a.49.49,0,0,1-.19-.39.47.47,0,0,1,.48-.47.43.43,0,0,1,.29.09,2.5,2.5,0,0,0,1.62.59c.63,0,1-.29,1-.72v0c0-.41-.23-.63-1.3-.88-1.23-.3-1.92-.66-1.92-1.73h0a1.77,1.77,0,0,1,2-1.68,3.16,3.16,0,0,1,1.83.54.43.43,0,0,1,.22.4.47.47,0,0,1-.48.47.48.48,0,0,1-.26-.07A2.37,2.37,0,0,0,46,21.91c-.59,0-.94.31-.94.69h0c0,.45.27.65,1.38.91s1.85.74,1.85,1.69v0c0,1.08-.85,1.72-2.06,1.72A3.61,3.61,0,0,1,44.08,26.23Z"/><path class="b177380f-b4a9-4d5a-b018-f1be8a3555c9" d="M52.43,22H51a.48.48,0,1,1,0-.95h3.83a.48.48,0,0,1,0,.95H53.45v4.37a.51.51,0,0,1-1,0Z"/><path class="b177380f-b4a9-4d5a-b018-f1be8a3555c9" d="M59.65,26.54l-2-4.75a.5.5,0,0,1,.45-.74.53.53,0,0,1,.52.37l1.67,4.16L62,21.38a.54.54,0,0,1,.49-.33.49.49,0,0,1,.5.49.65.65,0,0,1-.05.21l-2,4.79a.6.6,0,0,1-.59.41h-.05A.6.6,0,0,1,59.65,26.54Z"/></g></g></g></svg>