<svg xmlns="http://www.w3.org/2000/svg" viewBox="0 0 47.96 47.96"><defs><style>.ae489753-5e4e-41cb-8ead-28b0c9dbabbc{fill:#fff;}.be7ddd5b-5f56-4c90-950c-01c00fdaa6d9{fill:#00438c;}.a35227ad-869b-44d2-bca1-5b071af558e7{fill:#da1a32;}</style></defs><g id="f959762e-9656-4ab6-bdde-728359832d60" data-name="Capa 2"><g id="f9d15e1c-cf66-4e64-9b15-bc868726a51b" data-name="Layer 1"><path class="ae489753-5e4e-41cb-8ead-28b0c9dbabbc" d="M43,0H5A5,5,0,0,0,0,5V43a5,5,0,0,0,5,5H43a5,5,0,0,0,5-5V5A5,5,0,0,0,43,0Z"/><path class="be7ddd5b-5f56-4c90-950c-01c00fdaa6d9" d="M15.71,42.28c-.61-.55-.2-.78-.22-1-.41-1.66-1.73-2.67-1-3.22-.17-.55-.52-1.23-.5-1.23a20.76,20.76,0,0,1-4.11-3.38c-.36-.39-1-.79-1.09-1.11A32.4,32.4,0,0,1,5.27,27.2l-1-.14c-.45-1.83-1.94-3.36-2-5.2a10.15,10.15,0,0,1,.43-2.47,3.27,3.27,0,0,1,.7-.79v-.49c-2.15.06-1.53-.16-1.9-1-.26-.57-.08-.7,0-1.1A24.34,24.34,0,0,1,3.2,12.17c.12-.41.53-1.42.53-1.42,1.6-3.26,2.2-3,4.1-3.2l.09-.14c1.91-.08,1.59-.22,1.86-2.06-.27.12-.36-.57-.36-.57-.15-1,.29-.85.5-.87,0-1.71.22-2.25,1.46-2.73H5A3.8,3.8,0,0,0,1.17,5V43A3.8,3.8,0,0,0,5,46.8H16.19c-1.28-.69-.52-2-.48-4.52"/><path class="a35227ad-869b-44d2-bca1-5b071af558e7" d="M43,1.18H12.57a1.77,1.77,0,0,1,1.1.84c.47,0,1,1.09.16,2.65.38.25.08.63-.19,1.08-.08.14-.17.39-.43.38-.33.69-.73,1.36-1,1.4a.5.5,0,0,0,0,.55,5.09,5.09,0,0,1,1.25.73V9c.34.2.52.36.86.58.92.58,2,1.6,1.9,5.14.26.77.37,2.28.61,2.76a7.75,7.75,0,0,1,.94,2.46,5.24,5.24,0,0,0,.3,1.47l.09,0c.77.18.64.27.71.41L19,22c.22.1.53.19.53.58v0a2.33,2.33,0,0,1,.17.26,4.09,4.09,0,0,1,.26.51v0a3.42,3.42,0,0,1,0,2.36v.09a3.42,3.42,0,0,1-1.53,1.72l-.07,0-.12,0a3.22,3.22,0,0,1-1.45.34,3.42,3.42,0,0,1-.8-6.74c-.4-1-1.2-2.52-1.44-3s-.79-3.73-.91-4.37c0-.14-1.46.83-1.46.89s-1.08,2.67-1.12,2.81a4,4,0,0,0,0,.44s.49.06.77.91S13,22.84,13,22.84a2.61,2.61,0,0,1-.24.23c1.07,3.57.7,5.11,1.18,6.16.6,1.48.76,1.29,1.28,2.53.37.91.78,4.47.92,4.63A3.3,3.3,0,0,1,17,38.1a8.71,8.71,0,0,0-.31,2.36c.11.42.16,1.36.36,1.54,0,0,.18.36.09.51s-.08.14-.05.2c.31,1.12,1.33,3-.3,4l-.1.06H43A3.77,3.77,0,0,0,46.78,43V5A3.8,3.8,0,0,0,43,1.18Z"/><path class="ae489753-5e4e-41cb-8ead-28b0c9dbabbc" d="M42.26,10.22H38.44l-.85,13.85L37,33.21l-.58-9-.88-14h-4l2.9,27.54h4.82ZM21.2,13.67h2.85V37.74h3.71V13.67h2.89V10.2H21.2Z"/><path class="ae489753-5e4e-41cb-8ead-28b0c9dbabbc" d="M7.09,44.42V37.53H8.43c.77,0,1.25.41,1.25,1.38v1c0,.63-.19,1-.46,1.1a1.14,1.14,0,0,1,.46,1v1c0,1-.5,1.37-1.25,1.37Zm.92-3v2.12h.35c.32,0,.4-.16.4-.49V41.89c0-.34-.1-.46-.41-.46Zm0-3v2.28h.34c.33,0,.41-.12.41-.5V38.86c0-.32-.09-.46-.4-.46ZM11.84,43H11l-.12,1.4H10l.83-6.89h1.32l.8,6.89H12Zm-.41-4.72h0c-.06.83-.17,2.29-.21,2.75l-.1,1.19h.71l-.1-1.19c0-.47-.17-1.91-.25-2.75M4.36,44.42h-.8V37.53H4.83l1,5.65c-.08-1.36-.2-3-.2-4.38V37.53h.8v6.89H5.29l-1-5.52c.06,1.27.09,2.29.09,3.35Z"/></g></g></svg>