<svg xmlns="http://www.w3.org/2000/svg" viewBox="0 0 83.53 17.22"><defs><style>.a52fedd7-b409-4032-a636-9ab054dc4807{fill:#fff;}.b8475d07-80d2-409f-af3d-74c2c68f7949{fill:#f47a3f;}.a0639fc0-4ab1-433f-bb3d-620da01e28c1{fill:#ce1141;}.be0256ab-7c97-4d0f-bbd9-fec06d8b1c7c{fill:#009ddd;}.b240bf0d-5bb3-4b6c-ae2f-b0d1c6ac6685{fill:#7d77b7;}.aee4da94-f163-46a9-9ca5-9a5672d43fc7{fill:#62bb46;}.eb2ad06e-9d55-46ab-8732-fd3996406543{fill:#febe10;}.a86d7fbe-6856-4df4-8c60-5ccfdf5e60fc{fill:#231f20;}</style></defs><g id="af0d9ae6-64b4-487a-ba7b-17bae9106845" data-name="Capa 2"><g id="f377e034-5f17-48ca-9625-2df2961538ed" data-name="Layer 1"><path class="a52fedd7-b409-4032-a636-9ab054dc4807" d="M27.53,15.78a3.63,3.63,0,0,0-.76-5.07,3.37,3.37,0,0,0-1.83-.64,3.57,3.57,0,0,0,.12-5.43,3.71,3.71,0,0,0-4.23-.46,3.64,3.64,0,0,0-1-3.17A3.51,3.51,0,0,0,17.3,0a3.6,3.6,0,0,0-3.17,1.93A3.61,3.61,0,0,0,11,0a3.53,3.53,0,0,0-2.5,1,3.64,3.64,0,0,0-1,3.17,3.71,3.71,0,0,0-4.23.46,3.57,3.57,0,0,0,.12,5.43,3.37,3.37,0,0,0-1.83.64A3.75,3.75,0,0,0,.16,12.5a3.66,3.66,0,0,0,.57,3.3,3.63,3.63,0,0,0,2.91,1.42h21a3.63,3.63,0,0,0,2.91-1.42Z"/><path class="b8475d07-80d2-409f-af3d-74c2c68f7949" d="M5.66,4.5a3,3,0,0,0-1.94.74,2.81,2.81,0,0,0,.49,4.51l8,5.47L8.31,6.43A2.84,2.84,0,0,0,5.66,4.5Z"/><path class="a0639fc0-4ab1-433f-bb3d-620da01e28c1" d="M13.35,2.17A2.86,2.86,0,0,1,13.71,4s-1.54,9.26-1.56,9.26L8.3,4.44A2.82,2.82,0,0,1,9,1.57,2.78,2.78,0,0,1,12,1,3,3,0,0,1,13.35,2.17Z"/><path class="be0256ab-7c97-4d0f-bbd9-fec06d8b1c7c" d="M22.59,4.5a3,3,0,0,1,1.94.74A2.81,2.81,0,0,1,24,9.75L16.1,15.22,20,6.43A2.83,2.83,0,0,1,22.59,4.5Z"/><path class="b240bf0d-5bb3-4b6c-ae2f-b0d1c6ac6685" d="M15.7,3.63c.09,0,.24.07.25.16-.48.31-1.29.65-1.19,1.36l.11.78c.45,2.71,1.22,7.31,1.23,7.31L20,4.44a2.8,2.8,0,0,0-.73-2.87,2.77,2.77,0,0,0-3-.56A3,3,0,0,0,14.9,2.17a2.92,2.92,0,0,0-.38,1.46Z"/><path class="aee4da94-f163-46a9-9ca5-9a5672d43fc7" d="M24.76,10.86a2.75,2.75,0,0,1,2.56,1.86,2.86,2.86,0,0,1-.44,2.6,2.81,2.81,0,0,1-2.27,1.1H15.76l7.29-5A3.2,3.2,0,0,1,24.76,10.86Z"/><path class="eb2ad06e-9d55-46ab-8732-fd3996406543" d="M3.49,10.86A2.76,2.76,0,0,0,.93,12.72a2.89,2.89,0,0,0,.44,2.6,2.81,2.81,0,0,0,2.27,1.1h8.85l-7.29-5A3.17,3.17,0,0,0,3.49,10.86Z"/><path class="a86d7fbe-6856-4df4-8c60-5ccfdf5e60fc" d="M75.8,3.38h5.8a.84.84,0,0,0,.74-.45L83.53.19H74.31a2,2,0,0,0-2,2V16.38l-.92-2.09a.77.77,0,0,0-.71-.45h-6V1.29a1.1,1.1,0,0,0-1.1-1.1H61.2V2.84a9.43,9.43,0,0,1,.93,3.48,8.62,8.62,0,0,0-16.83,1H40.67a.73.73,0,0,0-.68.42l-1.11,2.53h5.19a5.13,5.13,0,0,1-5,3.74,5.27,5.27,0,0,1-5.18-5.45,5.28,5.28,0,0,1,5.23-5.44,6.75,6.75,0,0,1,3.76,1.36.7.7,0,0,0,1-.2l1.2-2.1A9,9,0,0,0,39.25,0a8.61,8.61,0,1,0-.17,17.22,8.69,8.69,0,0,0,8.41-6.8,8.12,8.12,0,0,1-.57,3.35,8.64,8.64,0,0,0,14.28-.68v2a2,2,0,0,0,2,2H74.7a1.09,1.09,0,0,0,1.1-1.09V10.32h4.93a.84.84,0,0,0,.74-.45l1.1-2.5H75.8Zm-22,10.68A5.31,5.31,0,0,1,48.7,8.61,5.14,5.14,0,1,1,59,8.61,5.31,5.31,0,0,1,53.83,14.06Z"/></g></g></svg>