<svg xmlns="http://www.w3.org/2000/svg" viewBox="0 0 82.58 40.68"><defs><style>.b717d399-316a-403c-b41f-9cf1d21ba16e{fill:#7cb242;}</style></defs><g id="a05c343b-2ca7-4abf-a15a-ff1d2fde886b" data-name="Capa 2"><g id="afc18c88-3d62-46d3-a83a-7ffb8b1582b2" data-name="Layer 1"><path d="M8,17.9a7.74,7.74,0,0,1,6.89,3.7A7.31,7.31,0,0,1,11,32.32a8,8,0,0,1-8.68-1.66A7.33,7.33,0,0,1,4.8,18.5,8.7,8.7,0,0,1,8,17.9ZM4.42,25.48a6.82,6.82,0,0,0,.14.91,3.44,3.44,0,0,0,2.62,2.66,3.31,3.31,0,0,0,3.48-1.11,3.91,3.91,0,0,0,.81-3.25A3.57,3.57,0,0,0,6.31,22,3.68,3.68,0,0,0,4.42,25.48Z"/><path d="M44.33,32.56v-.77a1.39,1.39,0,0,0-.21.1A5.18,5.18,0,0,1,36,28.72a6.51,6.51,0,0,1,.52-4.78A5.14,5.14,0,0,1,44,22.05l.34.22V20.69h-.69V17.58h4.66V29.46l.73,0v3.06Zm-4.56-5.51c0,.09,0,.27,0,.45a2.32,2.32,0,0,0,2.1,2,2.23,2.23,0,0,0,2.29-1.65,3,3,0,0,0-.1-2,2.21,2.21,0,0,0-3.37-.93A2.52,2.52,0,0,0,39.77,27.05Z"/><path d="M24.06,24.55h-.7V21.46H28v8l.7,0v3.07H24.08v-.82l-.37.23a5.24,5.24,0,0,1-3.94.79,3.51,3.51,0,0,1-2.83-3.47c-.06-1.42,0-2.84,0-4.26v-.47h-.7V21.46h4.65v.41c0,1.88,0,3.77,0,5.65a1.68,1.68,0,0,0,1.29,1.78,1.58,1.58,0,0,0,1.89-1.49C24.1,26.74,24.06,25.68,24.06,24.55Z"/><path d="M54.89,21.16c2.83.13,4.85,1.11,6,3.46a5.76,5.76,0,0,1-3.92,8,6.36,6.36,0,0,1-6.18-1.44A5.72,5.72,0,0,1,53,21.57,13.85,13.85,0,0,1,54.89,21.16Zm.25,3.38A2.31,2.31,0,0,0,52.82,27a2.4,2.4,0,0,0,2.36,2.52A2.32,2.32,0,0,0,57.52,27,2.39,2.39,0,0,0,55.14,24.54Z"/><path d="M74.22,27A5.87,5.87,0,0,1,69,32.78a6.39,6.39,0,0,1-5.38-1.53,5.69,5.69,0,0,1,.12-8.53,6.58,6.58,0,0,1,9.3.86A5.61,5.61,0,0,1,74.22,27Zm-8.56,0A2.41,2.41,0,0,0,68,29.52a2.32,2.32,0,0,0,2.35-2.46A2.4,2.4,0,0,0,68,24.53,2.32,2.32,0,0,0,65.66,27Z"/><path d="M34,18.65v2.77H35.6v3.19H34c0,.13,0,.23,0,.33v3.61c0,.58.26.84.84.85h.78v3.12a19.7,19.7,0,0,1-3,0A3.27,3.27,0,0,1,30,29.28V24.62H28.6V21.45H30v-2.8Z"/><path d="M82.58,21.29v4.09a3.71,3.71,0,0,0-3,1.31,4.15,4.15,0,0,0-.51,2.77l.7,0v3.07H74.39V29.5h.67V24.57l-.68,0V21.48h4.67v1.06c.57-.32,1.09-.65,1.65-.91A3.94,3.94,0,0,1,82.58,21.29Z"/><path d="M63.25,40.58h-.6V35.5a.7.7,0,0,1,.83.28c.88,1.15,1.79,2.26,2.69,3.39l.28.33v-4H67v5.06a.55.55,0,0,1-.69-.23c-1-1.27-2-2.54-3.09-3.88Z"/><path d="M72.22,39.49v-4h.58v5.06a.54.54,0,0,1-.68-.23q-1.43-1.8-2.87-3.58c0-.07-.12-.14-.23-.27v4.09h-.57V35.5a.63.63,0,0,1,.77.24c.92,1.18,1.86,2.34,2.79,3.51Z"/><path d="M74.22,35.49H78V36H74.82v1.7H77.6v.56H74.82V40H78v.52H74.22Z"/><path d="M51.91,37.72h3V35.49h.59v5.08h-.59V38.32h-3v2.25h-.58V35.49h.57Z"/><path d="M49.91,36.56c-1.33-.84-2.39-.82-3.12.1a2.23,2.23,0,0,0,.15,2.9c.81.8,1.93.75,3.06-.17l.38.36a2.67,2.67,0,1,1-4-3.54,2.82,2.82,0,0,1,4,0Z"/><path d="M79.1,35.48h.57V40h2.91v.55H79.1Z"/><path d="M16.46,18.31l9.81-9.79h0l-9.79,9.8Z"/><path d="M27.47,7.24l-.8.86.84-.83Z"/><polygon class="b717d399-316a-403c-b41f-9cf1d21ba16e" points="15.84 18.58 34.49 6.99 48.26 13.77 34.56 0 15.84 18.58"/><path d="M61.1,40.56h.61l0-.09a0,0,0,0,0,0,0c-.74-1.61-1.47-3.22-2.22-4.82a.45.45,0,0,0-.75,0c-.34.73-.68,1.46-1,2.19l-.44,1c-.27.57-.53,1.15-.8,1.74h0v0H57l.59-1.29h2.88Zm-2-4.42,1.15,2.53H57.92Z"/></g></g></svg>