<svg xmlns="http://www.w3.org/2000/svg" xmlns:xlink="http://www.w3.org/1999/xlink" viewBox="0 0 75.8 33.15"><defs><style>.eb251fd3-537c-4e47-90e1-b98b66ce8d9a{fill:url(#b11697b5-c693-4992-8d77-7ef525281ba8);}.b3756b5c-7949-4122-aecd-1dde1ecbf70f{fill:#fff;}.a6ec7d48-d83e-43ed-809d-72ff62be8909{fill:#1d1d1b;}</style><linearGradient id="b11697b5-c693-4992-8d77-7ef525281ba8" x1="42.76" y1="16.57" x2="75.8" y2="16.57" gradientUnits="userSpaceOnUse"><stop offset="0" stop-color="#e65026"/><stop offset="1" stop-color="#e42c2f"/></linearGradient></defs><g id="acce49cb-34b0-45be-ba73-403085db168a" data-name="Capa 2"><g id="bb34a60a-08fa-4982-b9c0-95ec1a61501e" data-name="Layer 1"><polygon class="eb251fd3-537c-4e47-90e1-b98b66ce8d9a" points="42.76 29.38 75.8 33.15 72.14 0 42.76 0 42.76 29.38"/><path class="b3756b5c-7949-4122-aecd-1dde1ecbf70f" d="M46.7,15.37a10.83,10.83,0,0,1,3.61-8.19A12.3,12.3,0,0,1,59,3.8a18.86,18.86,0,0,1,5.2.71A8.86,8.86,0,0,1,67.11,6l-1.87,5.77c-.24-.14-.14-.24-1.38-.57a14.31,14.31,0,0,0-3.69-.5,4.62,4.62,0,0,0-3.43,1.47,4.93,4.93,0,0,0-1.42,3.57,5.11,5.11,0,0,0,1.17,3.38,3.57,3.57,0,0,0,2.8,1.4,3.19,3.19,0,0,0,2.21-.81,2.65,2.65,0,0,0,.9-2.05l-3.61.88.3-5.25H69.87a7.87,7.87,0,0,1,.29,2,10.67,10.67,0,0,1-3.44,8,12.09,12.09,0,0,1-16.58,0A10.47,10.47,0,0,1,46.7,15.37Z"/><path class="a6ec7d48-d83e-43ed-809d-72ff62be8909" d="M7.47,12.87a3.72,3.72,0,0,1-2.57,1A4.82,4.82,0,0,1,0,8.91,4.82,4.82,0,0,1,4.9,4,4.86,4.86,0,0,1,9.2,6.51l-2.31.61a2.68,2.68,0,0,0-2-.88A2.47,2.47,0,0,0,2.36,8.91,2.56,2.56,0,0,0,5,11.62a2.37,2.37,0,0,0,2.44-1.49H5V8.29H9.42v5.35H7.47c0-.62,0-.76,0-.77Z"/><path class="a6ec7d48-d83e-43ed-809d-72ff62be8909" d="M17,12.16H13.22l-.54,1.48H10.23L14,4.18h2.15L20,13.64H17.5Zm-.73-2-.68-1.84c-.2-.54-.44-1.39-.45-1.39h0s-.25.85-.46,1.39L14,10.17Z"/><path class="a6ec7d48-d83e-43ed-809d-72ff62be8909" d="M30.18,4.18v9.46H28V11.33C28,9.09,28,8,28,8h0s-.77,1.3-.85,1.43L26,11.3H24.87L23.76,9.41C23.68,9.28,22.92,8,22.91,8h0S23,9.09,23,11.33v2.31H20.73V4.18h2.14l1.77,2.87c.69,1.12.8,1.36.81,1.36h0s.12-.24.81-1.36L28,4.18Z"/><path class="a6ec7d48-d83e-43ed-809d-72ff62be8909" d="M39.25,11.52v2.12h-7V4.18h6.88V6.31H34.56V7.86h3.61v2H34.56v1.67Z"/><path class="a6ec7d48-d83e-43ed-809d-72ff62be8909" d="M7.45,15.91v.76H4.12v9h-.8V16.67H0v-.76Z"/><path class="a6ec7d48-d83e-43ed-809d-72ff62be8909" d="M13,15.71a5.06,5.06,0,0,1,0,10.11,5.06,5.06,0,0,1,0-10.11ZM13,25a4.14,4.14,0,0,0,4.23-4.28A4.12,4.12,0,0,0,13,16.49a4.1,4.1,0,0,0-4.22,4.27A4.12,4.12,0,0,0,13,25Z"/><path class="a6ec7d48-d83e-43ed-809d-72ff62be8909" d="M24.58,15.71a5.06,5.06,0,1,1-5,5.05A5,5,0,0,1,24.58,15.71Zm0,9.33a4.15,4.15,0,0,0,4.24-4.28,4.23,4.23,0,1,0-8.46,0A4.13,4.13,0,0,0,24.58,25Z"/><path class="a6ec7d48-d83e-43ed-809d-72ff62be8909" d="M39.25,15.91v9.71H38.5l-5-6.67c-.83-1.14-1.25-1.77-1.26-1.77h0s0,1.14,0,2.53v5.91H31.5V15.91h.75l4.94,6.65c.77,1,1.27,1.72,1.28,1.72h0s0-1.17,0-2.47v-5.9Z"/><path class="b3756b5c-7949-4122-aecd-1dde1ecbf70f" d="M69.6,30H68.44V28.63h-1V30H66.29V26.17h1.16v1.35h1V26.17H69.6Z"/><path class="b3756b5c-7949-4122-aecd-1dde1ecbf70f" d="M71.74,30H70.06V26.17h1.68a1.9,1.9,0,0,1,2,1.92A1.87,1.87,0,0,1,71.74,30Zm-.52-1.11h.52a.75.75,0,0,0,.78-.79.77.77,0,0,0-.78-.81h-.52Z"/></g></g></svg>