<svg xmlns="http://www.w3.org/2000/svg" xmlns:xlink="http://www.w3.org/1999/xlink" viewBox="0 0 57.14 27.51"><defs><style>.fe5df4fe-0a8f-4d50-9b0b-dc1a2808824c{fill:none;}.fcce8d4f-65c3-4972-8b74-04ec3d9b3120{fill:#009eda;}.a4ffd75a-3e5a-478a-9ad8-14e3c02da0b9{fill:#fff;}.a8debdc5-0fad-47fa-b3fc-566ebd696b9e{fill:#131718;}.a4c62ab4-e701-4972-bc78-26ec3e5042cd{clip-path:url(#e1ed34fb-febf-4876-b2d0-05424220e13a);}.aa6ff0ac-2fe8-4937-9871-afabe110f2e6{fill:url(#a0250e66-3450-4c92-9564-58028dc1998e);}</style><clipPath id="e1ed34fb-febf-4876-b2d0-05424220e13a"><polygon class="fe5df4fe-0a8f-4d50-9b0b-dc1a2808824c" points="27.76 21.94 25.89 22.07 27.4 23.18 26.96 24.99 28.47 23.9 30.06 24.89 29.49 23.11 30.92 21.9 29.05 21.89 28.34 20.16 27.76 21.94"/></clipPath><linearGradient id="a0250e66-3450-4c92-9564-58028dc1998e" x1="-597.94" y1="-329.2" x2="-597.86" y2="-329.2" gradientTransform="matrix(0, 58.65, -58.65, 0, -19278.35, 35087.93)" gradientUnits="userSpaceOnUse"><stop offset="0" stop-color="#643a25"/><stop offset="0.54" stop-color="#c8a55f"/><stop offset="0.68" stop-color="#e4cdb3"/><stop offset="0.8" stop-color="#c9a661"/><stop offset="0.8" stop-color="#c8a55f"/><stop offset="0.94" stop-color="#815a36"/><stop offset="1" stop-color="#643a25"/></linearGradient></defs><g id="a6b1c095-67ed-4d9d-9c60-df78896fc2f0" data-name="Capa 2"><g id="a0517fc3-e5fe-436b-807f-114891a52ce0" data-name="Layer 1"><rect class="fcce8d4f-65c3-4972-8b74-04ec3d9b3120" width="57.14" height="21.67"/><path class="a4ffd75a-3e5a-478a-9ad8-14e3c02da0b9" d="M50.87,9.25v-3H42.8V7a5.1,5.1,0,0,0-3.52-1h0C36,6,34.86,7.26,34.86,9.19V12c0,1-.19,1.15-.49,1.15s-.5-.23-.5-1.15V6.23H29.94c-1.4,0-2.45.65-3.19,2.61l-1.28,3.72c-.12.34-.26.39-.41.39s-.35-.11-.47-.48l-.43-.91A2.33,2.33,0,0,0,25.6,9.29V9c0-1.51-.88-2.77-4.46-2.77H6.26v3H8.7V8.61a.37.37,0,0,1,.37-.36h1v5.57a1.87,1.87,0,0,0,1.87,1.87h1.85V13.6h0a.67.67,0,0,1-.67-.67V8.25h1a.37.37,0,0,1,.37.36v.64h2.36v3.68a.67.67,0,0,1-.67.67v2.08h3.73v-3.6h.31a1.31,1.31,0,0,1,1.16.64l1.54,3H26c1.38,0,1.67-.3,2.12-1.42l.54-1.52h2.2v2.94h20V12.6H48.41v.63a.37.37,0,0,1-.37.36H45.86V11.87H47.7v-2H45.86V8.25h2.19a.37.37,0,0,1,.37.36v.64Zm-28.43-.1c0,.49-.25.89-1.4.89H19.85V8.25H21c1.16,0,1.41.41,1.41.9Zm8.38,1.58H29.23l.28-.73c.47-1.11.79-1.39,1.31-1.39Zm9.82,1.37v.08c0,1.16-.62,1.4-1.37,1.4h0c-.75,0-1.36-.24-1.36-1.4V9.61c0-1.15.61-1.4,1.36-1.4h0c.75,0,1.37.25,1.37,1.4v.06h2.22l0,2.43Z"/><polygon class="a8debdc5-0fad-47fa-b3fc-566ebd696b9e" points="28.34 19.29 28.25 17.55 4.14 18.82 4.57 27.04 28.68 25.78 28.77 27.51 52.99 26.24 52.56 18.02 28.34 19.29"/><g class="a4c62ab4-e701-4972-bc78-26ec3e5042cd"><rect class="aa6ff0ac-2fe8-4937-9871-afabe110f2e6" x="25.55" y="19.64" width="5.72" height="5.87" transform="matrix(0.2, -0.98, 0.98, 0.2, 0.72, 46.03)"/></g><path class="a4ffd75a-3e5a-478a-9ad8-14e3c02da0b9" d="M9.47,23.7a2.55,2.55,0,0,1,0,.64.91.91,0,0,1-.25.46,1.23,1.23,0,0,1-.53.3,3.4,3.4,0,0,1-.9.14,4,4,0,0,1-.85,0,3,3,0,0,1-.74-.2l.13-.86a5.4,5.4,0,0,0,.7.13,4.32,4.32,0,0,0,.73,0l.34,0a.34.34,0,0,0,.2-.1A.26.26,0,0,0,8.35,24a1,1,0,0,0,0-.26c0-.1,0-.19,0-.26a.26.26,0,0,0-.11-.16A.74.74,0,0,0,8,23.21l-.47-.09A3.84,3.84,0,0,1,6.79,23a1,1,0,0,1-.43-.25.84.84,0,0,1-.21-.41,3.37,3.37,0,0,1-.08-.65,2.36,2.36,0,0,1,0-.62.86.86,0,0,1,.24-.44,1.12,1.12,0,0,1,.51-.27,4,4,0,0,1,.83-.12c.21,0,.45,0,.7,0a7.83,7.83,0,0,1,.79.08l-.06.93c-.28,0-.53-.06-.73-.07H7.75l-.3,0a.51.51,0,0,0-.18.08.28.28,0,0,0-.08.15.72.72,0,0,0,0,.22c0,.12,0,.21,0,.28a.25.25,0,0,0,.1.15.76.76,0,0,0,.25.1,3.9,3.9,0,0,0,.45.09,4.8,4.8,0,0,1,.78.2,1.1,1.1,0,0,1,.44.27.72.72,0,0,1,.19.39,4.65,4.65,0,0,1,.06.61"/><path class="a4ffd75a-3e5a-478a-9ad8-14e3c02da0b9" d="M13.64,22A1.27,1.27,0,0,1,13.3,23a2,2,0,0,1-1.27.42l-.84,0L11.27,25,10.16,25l-.25-4.89,2-.11a2.93,2.93,0,0,1,.76.05,1.32,1.32,0,0,1,.52.24,1,1,0,0,1,.3.42,1.78,1.78,0,0,1,.12.6Zm-1.13-.48a.54.54,0,0,0-.14-.39.64.64,0,0,0-.47-.1l-.84.05.08,1.47.84,0a.6.6,0,0,0,.46-.16.63.63,0,0,0,.1-.41Z"/><path class="a4ffd75a-3e5a-478a-9ad8-14e3c02da0b9" d="M17.91,23.21a1.49,1.49,0,0,1-.07.55,1.36,1.36,0,0,1-.3.5,1.61,1.61,0,0,1-.57.37,2.45,2.45,0,0,1-.87.17,2.67,2.67,0,0,1-.89-.08,1.54,1.54,0,0,1-.6-.31,1.31,1.31,0,0,1-.36-.46,1.77,1.77,0,0,1-.13-.55l-.1-2a1.49,1.49,0,0,1,.07-.55,1.36,1.36,0,0,1,.3-.5,1.61,1.61,0,0,1,.57-.37,2.62,2.62,0,0,1,.87-.18,2.68,2.68,0,0,1,.89.09,1.48,1.48,0,0,1,.6.31,1.31,1.31,0,0,1,.36.46,1.77,1.77,0,0,1,.13.54Zm-1.2-1.89a.6.6,0,0,0-.21-.45,1,1,0,0,0-.62-.13.92.92,0,0,0-.59.2.58.58,0,0,0-.17.46l.1,1.85a.57.57,0,0,0,.21.44.91.91,0,0,0,.62.14.9.9,0,0,0,.59-.2.58.58,0,0,0,.17-.46Z"/><path class="a4ffd75a-3e5a-478a-9ad8-14e3c02da0b9" d="M20.36,23l-.65,0,.08,1.52-1.1.05-.26-4.89,2-.11a3.5,3.5,0,0,1,.76.05,1.21,1.21,0,0,1,.51.24,1,1,0,0,1,.31.42,1.78,1.78,0,0,1,.12.6l0,.6a1.56,1.56,0,0,1-.13.78,1,1,0,0,1-.52.49l1.27,1.61-1.31.07Zm.71-1.92a.54.54,0,0,0-.14-.39.68.68,0,0,0-.47-.09l-.88,0,.08,1.44.87,0a.69.69,0,0,0,.47-.16.61.61,0,0,0,.09-.41Z"/><polygon class="a4ffd75a-3e5a-478a-9ad8-14e3c02da0b9" points="24.9 20.34 25.11 24.26 24 24.32 23.8 20.4 22.48 20.47 22.43 19.49 26.17 19.3 26.22 20.27 24.9 20.34"/><path class="a4ffd75a-3e5a-478a-9ad8-14e3c02da0b9" d="M34.51,24.18a2.18,2.18,0,0,1,0,.64.91.91,0,0,1-.25.46,1.17,1.17,0,0,1-.53.3,3.86,3.86,0,0,1-.89.14,4.8,4.8,0,0,1-.85,0,3,3,0,0,1-.75-.2l.14-.86c.23.05.46.1.69.13a4.37,4.37,0,0,0,.73,0l.35,0a.35.35,0,0,0,.29-.26,1,1,0,0,0,0-.26c0-.11,0-.19,0-.26a.25.25,0,0,0-.1-.16.65.65,0,0,0-.25-.11l-.48-.09a5.16,5.16,0,0,1-.72-.17,1,1,0,0,1-.42-.25.85.85,0,0,1-.22-.41,4.41,4.41,0,0,1-.08-.65,2.47,2.47,0,0,1,0-.63.82.82,0,0,1,.25-.43,1.14,1.14,0,0,1,.5-.27,4.1,4.1,0,0,1,.83-.12c.22,0,.45,0,.7,0a7.55,7.55,0,0,1,.79.08l-.06.93c-.28,0-.52-.06-.73-.07h-.64l-.3,0a.75.75,0,0,0-.18.08.28.28,0,0,0-.08.15.75.75,0,0,0,0,.22,1.65,1.65,0,0,0,0,.27.29.29,0,0,0,.1.16.86.86,0,0,0,.25.1l.45.09a4.69,4.69,0,0,1,.79.2,1.17,1.17,0,0,1,.43.26.79.79,0,0,1,.19.4,4.48,4.48,0,0,1,.06.61m2.63-2.69.21,3.92-1.1.06L36,21.55l-1.31.07-.06-1,3.74-.19.05,1Zm7.87,2-.64,0,.08,1.52-1.11.06-.25-4.89,2-.11a2.52,2.52,0,0,1,.76.05,1.39,1.39,0,0,1,.52.23,1,1,0,0,1,.31.42,2.45,2.45,0,0,1,.12.6l0,.61a1.66,1.66,0,0,1-.13.77,1.08,1.08,0,0,1-.52.49l1.27,1.61L46.17,25Zm.72-1.93a.54.54,0,0,0-.15-.39.69.69,0,0,0-.46-.09l-.88.05.08,1.44.87,0a.61.61,0,0,0,.46-.15.57.57,0,0,0,.1-.42ZM51,23.32a2.64,2.64,0,0,1,0,.65.91.91,0,0,1-.25.46,1.23,1.23,0,0,1-.53.3,3.87,3.87,0,0,1-.9.14,4.89,4.89,0,0,1-.85,0,3,3,0,0,1-.74-.2l.14-.86c.22.05.45.1.69.13a4.32,4.32,0,0,0,.73,0l.34,0a.34.34,0,0,0,.2-.1.26.26,0,0,0,.09-.16,1,1,0,0,0,0-.26c0-.11,0-.19,0-.26a.32.32,0,0,0-.11-.17.76.76,0,0,0-.25-.1L49,22.75a4.83,4.83,0,0,1-.72-.17,1,1,0,0,1-.43-.25.84.84,0,0,1-.21-.41,3.37,3.37,0,0,1-.08-.65,2.47,2.47,0,0,1,0-.63.88.88,0,0,1,.24-.43,1.12,1.12,0,0,1,.51-.27,4,4,0,0,1,.83-.12c.21,0,.45,0,.7,0a7.83,7.83,0,0,1,.79.08l-.06.93c-.28,0-.53-.06-.73-.07s-.42,0-.64,0a2.16,2.16,0,0,0-.3,0,.51.51,0,0,0-.18.08.28.28,0,0,0-.08.15.72.72,0,0,0,0,.22q0,.18,0,.27a.25.25,0,0,0,.1.16.86.86,0,0,0,.25.1l.45.09a4.8,4.8,0,0,1,.78.2,1.22,1.22,0,0,1,.44.26.79.79,0,0,1,.19.4,4.31,4.31,0,0,1,.06.6"/><path class="a4ffd75a-3e5a-478a-9ad8-14e3c02da0b9" d="M42.84,25.12l-1.15.06-.31-.94-1.64.08-.21,1-1.15.06,1.24-5,1.46-.07Zm-2.9-1.73,1.13-.06-.67-2Z"/></g></g></svg>