<svg xmlns="http://www.w3.org/2000/svg" viewBox="0 0 82.67 19.91"><defs><style>.b644c197-98c6-4e28-b629-435aa7f4546d{fill:#050505;}.f2ecda29-db62-46af-8540-bed6f722f16f{fill:#0e0e0e;}.bdade21f-ab47-4bea-ad70-f04a93bc2a12{fill:#151515;}.fff40518-6238-47af-9f2f-30ffe1fdd034{fill:#202020;}.afe067e7-4bc7-4518-84af-b8538a05a907{fill:#0b0b0b;}.adaed5d8-0e42-44bd-8825-e07f5b6b0962{fill:#c12729;}.e99c74db-2ca4-4358-ab20-cb494ad4b0b1{fill:#171717;}.ba79d728-ae2e-4376-9632-9579d187a883{fill:#070808;}.ea04460f-b871-4b04-aa75-99d0c1dc5cc6{fill:#101010;}.a908b690-42dc-484d-a094-e2438d7dce54{fill:#131313;}.b1b65719-043a-4077-b4aa-ea79a54c78d3{fill:#020202;}.b9853263-37f6-48ed-be18-a83c5fe298d2{fill:#1a1a1a;}.be7a82c4-82bc-47a4-98ab-f8b00db42612{fill:#1d1d1d;}.e2f29b20-e447-428e-99be-d6656063531d{fill:#292928;}.ee169233-e096-41f7-9a14-31b72cbea725{fill:#e22426;}.f288007e-f17e-488e-9785-d409e6af18b4{fill:#1e1e1e;}.ef7c6911-e5f1-4e21-a02c-d4aae75ee9a2{fill:#272726;}.a122c21d-c927-4066-af07-3283e8a14f74{fill:#1c1c1c;}.f2737dd2-f57c-4743-b4f1-3ec033128ed8{fill:#2c2c2b;}.eff54630-8c61-483a-9f53-80a52790d73b{fill:#30302f;}.eb34a829-53a0-48ad-95e4-a8c43e5bef32{fill:#e52425;}.bec463c0-d32a-4954-b522-5f7a8eb3d6b7{fill:#2a2a29;}.b018c179-0f2f-49ca-88bd-22c3921ba625{fill:#242424;}.bb90b0c7-6d7b-4c2b-b6b9-b1576210313a{fill:#c32829;}.b6b9519b-cac6-4a90-abd5-bdb6fd6d8f09{fill:#e02426;}.b38ccb40-6436-484a-af99-5f064e877435{fill:#333331;}.bba0d16a-90b2-4237-b70b-81f9fcf3e07d{fill:#dc2527;}.b0c6a405-a733-46ff-bf84-d0f4cfd68020{fill:#d02527;}.b32e3875-3a13-4170-b29e-e8d3a59cb6fa{fill:#323231;}.b92286fb-a8c6-4c6e-8481-186115760581{fill:#2d2d2c;}.a11f40e2-a2d1-4fcc-b06f-7e1b2fd414be{fill:#222;}.b4b31810-545a-4c5c-b1a0-8f2b1b766b02{fill:#d12527;}.fad80351-2da6-40b7-81c7-852c28671841{fill:#2a2a2a;}.f4b21180-8196-4d5f-ae93-2cf5f5928b8d{fill:#cd2527;}.b327c54d-bcbf-4345-ae86-b8afa2c2e034{fill:#252525;}.b3fe9def-4e29-45d8-9964-d1a255f5853a{fill:#d52627;}.a10a1215-cbda-4d13-be80-dd0314f0d7ec{fill:#d82627;}.f6fe9584-33c4-4d81-887b-1dba642def1b{fill:#2f2f2e;}.faadc416-a993-4ec5-955d-5a810ba745cc{fill:#c82627;}.e0690a73-f667-4082-8f91-771f9ba1e1a9{fill:#c62727;}.e5ee83a5-97cd-4947-9907-a821d12eb764{fill:#c92627;}.ae9eb225-d2b1-44c1-b092-bb41f5430021{fill:#c52828;}.b3e35ffe-20e4-493f-a03b-53a15422619c{fill:#ceedfc;}.bbea29d7-d1e7-439a-984a-a0f820e2aaec{fill:#fff;}.e9a9f68e-7a68-429f-afc2-7854951cc0b4{fill:#141414;}.ed6a59d2-6fe0-4c75-bfe3-825cabdd37d5{fill:#df2426;}.f292ff6b-fbfb-4caa-a6ef-08695686be6c{fill:#dc2427;}.e4e7a9e7-9698-4037-a8a0-2ae239fe597d{fill:#d42627;}.bd1f30ca-c514-4b6e-b9dd-a1805a9dd066{fill:#d82527;}.f8ed0de7-1777-4b69-af2e-00fd1be97f8e{fill:#c72727;}.e30bb7bf-0c93-4372-8f06-125274a34605{fill:#191818;}.e6577a46-a5e4-4a8a-b74a-bab65ce9178b{fill:#252424;}.bd017e0a-d333-4857-b7a6-9a636e01057a{fill:#070707;}.b553e64d-0522-4826-b608-03098d79e1aa{fill:#111;}.e7ee6112-702f-4858-9ee7-3e304a7e7d69{fill:#212120;}.b492a6ea-64d4-47d3-9c62-8e30e8bfd21e{fill:#282828;}.ad50c58a-2551-4e54-8b9a-8cd16058f1e7{fill:#cf2527;}.f011d3eb-37ba-470c-8b19-3c59a72e5128{fill:#d32627;}.b2fc6f6e-a597-4490-a69a-9e2c4294edd2{fill:#cb2528;}</style></defs><g id="f44ddd34-6703-46a3-ad5a-9c5c849592c1" data-name="Capa 2"><g id="b60fa73e-43e1-4cc6-92a0-3c5a3c272715" data-name="Layer 1"><g id="e1ff4ed9-e7ae-4c22-bd12-5113a13f33b9" data-name="Mtnk5l.tif"><path class="b644c197-98c6-4e28-b629-435aa7f4546d" d="M1.91,12.11s0,0,0,0,0-.08,0-.12H2s0-.08,0-.12,0,0,0,0a.32.32,0,0,0,0-.09H2s0-.09,0-.12h0s0-.09,0-.13,0,0,0,0,0-.08,0-.12c.06-.32.17-.63.26-1C3.18,7.8,3.94,5.22,4.74,2.66c.18-.55.35-1.09.57-1.62l.1-.22a1.27,1.27,0,0,1,1-.75A5.4,5.4,0,0,1,7.33,0H9.74C11.36,0,13,0,14.61,0h.15c.06.12,0,.21-.09.28-.9,1.09-1.81,2.18-2.7,3.28a.38.38,0,0,1-.34.15,1.43,1.43,0,0,0-.46,0c-.7,0-1.39.07-2.09.06s-.75.13-.9.66C7.81,5.69,7.46,6.9,7.1,8.1A.83.83,0,0,1,7,8.32a.41.41,0,0,1,0,.09.08.08,0,0,1,0,.05l0,.09,0,0a.24.24,0,0,0,0,.08l0,.05s0,0,0,.08a.09.09,0,0,1,0,0l0,.08s0,0,0,0l0,.09s0,0,0,0a.29.29,0,0,0,0,.09v0l0,.09,0,0s0,.06,0,.09a.06.06,0,0,1,0,0l0,.08a.09.09,0,0,1,0,0l0,.08s0,0,0,0l0,.08v0a.29.29,0,0,0,0,.09s0,0,0,0l0,.09,0,0s0,.05,0,.08,0,0,0,0,0,.08,0,.12a.08.08,0,0,1,0,0c-.6.67-1.16,1.39-1.73,2.08L2.39,15.19c-.61.74-1.22,1.47-1.83,2.22a.35.35,0,0,1-.11.1c-.08,0-.13,0-.1-.08h0s0-.09,0-.13,0,0,0,0a.29.29,0,0,0,0-.1h0s0-.08,0-.12h0s0-.09,0-.13h0s0-.09,0-.12h0s0-.09,0-.12,0,0,0,0a.29.29,0,0,0,0-.1h0s0-.09,0-.12h0s0-.09,0-.13h0s0-.09,0-.12h0s0-.09,0-.12a0,0,0,0,1,0,0s0-.08,0-.12h0s0-.09,0-.12h0c.05,0,0-.09,0-.13h0s0-.08,0-.12h0s0-.08,0-.12a0,0,0,0,1,0,0s0-.08,0-.11H1s0-.09,0-.12H1c.05,0,0-.09,0-.13h0s0-.08,0-.12h0s0-.08,0-.12,0,0,0,0,0-.08,0-.11h0s0-.09,0-.13,0,0,0,0a.38.38,0,0,0,0-.1h0s0-.08,0-.12h0s0-.09,0-.13,0,0,0,0,0-.08,0-.11h0s0-.09,0-.13,0,0,0,0a.29.29,0,0,0,0-.1h0s0-.08,0-.12h0c.05,0,0-.09,0-.13h0s0-.09,0-.12h0s0-.09,0-.12,0,0,0,0a.32.32,0,0,0,0-.09v0h0s0-.08,0-.11h0c.05,0,0-.09,0-.13h0s0-.09,0-.12h0s0-.08,0-.12,0,0,0,0a.32.32,0,0,0,0-.09v0h0s0-.09,0-.12h0S1.89,12.15,1.91,12.11Z"/><path class="f2ecda29-db62-46af-8540-bed6f722f16f" d="M.35,17.43c0,.05,0,.09.08.05a.68.68,0,0,0,.17-.21l1-1.26.79-.94.81-1c.27-.32.54-.63.79-1s.56-.66.82-1,.55-.66.83-1c.14-.17.28-.34.41-.52s.19-.14.26-.25c.06.07,0,.15,0,.22-.46,1.5-.9,3-1.38,4.5-.12.35-.23.7-.34,1.05s0,.38.27.45a1.32,1.32,0,0,0,.28,0c.59,0,1.17,0,1.76,0A.7.7,0,0,0,7.7,16c.28-.94.58-1.86.86-2.79a.91.91,0,0,1,1-.72c.68,0,1.36,0,2,0h.09c.18,0,.21.09.11.24a4.74,4.74,0,0,1-.4.49L8,17.35c-.67.82-1.35,1.63-2,2.44a.18.18,0,0,1-.17.1H1.28a.74.74,0,0,1-.21,0,1.2,1.2,0,0,1-.53-.11A.86.86,0,0,1,0,19a1.58,1.58,0,0,1,0-.53A7.46,7.46,0,0,1,.35,17.43Z"/><path class="bdade21f-ab47-4bea-ad70-f04a93bc2a12" d="M22.13,0h6.23c.36,0,.73,0,1.09,0h.72s.12,0,.16,0a.17.17,0,0,1,0,.19L29.9.75c-.78,1-1.56,1.89-2.33,2.84a1.83,1.83,0,0,0-.13.16.34.34,0,0,1-.19.09,1.7,1.7,0,0,0-.66.44c-.26.3-.55.58-.83.87-.61.62-1.2,1.28-1.84,1.88a1.8,1.8,0,0,1-.49.38c-.26.13-.43.06-.51-.22-.16-.52-.29-1.05-.45-1.58s-.26-.94-.43-1.4a.61.61,0,0,0-.63-.47h-.88a.45.45,0,0,1-.23,0c-.06-.1,0-.15.07-.21l1.57-1.91L23,.35s.12-.1.08-.18-.12-.05-.19-.05H22.3C22.24.11,22.15.14,22.13,0Z"/><path class="f2ecda29-db62-46af-8540-bed6f722f16f" d="M22.13,0c.06.06.12,0,.19,0h.62c.08,0,.14,0,.17.09s0,.11-.06.16c-.28.34-.55.68-.83,1l-.79.95-.81,1a2.55,2.55,0,0,1-.26.3.2.2,0,0,0-.06.12c-.08.08-.19.06-.29.06-.55,0-1.09,0-1.64.06-.06,0-.11,0-.13.09a.43.43,0,0,0,0,.05.7.7,0,0,0,0,.32.11.11,0,0,1,0,.05.53.53,0,0,0,0,.12.06.06,0,0,0,0,0,.43.43,0,0,0,0,.11s0,0,0,0l0,.12a.11.11,0,0,1,0,0c-.26.38-.57.71-.86,1.07a.18.18,0,0,1-.09.06h-.05a.12.12,0,0,1,0,0s0,0,0,0l0,0a.08.08,0,0,0,0,0s0,0,0,0l0,0,0,0,0,0,0,0,0,0s0,0,0,0l0,0v0l0,0s0,0,0,0l0,0,0,0,0,0,0,0h0l0,0,0,0s-.05,0-.08-.07a4.39,4.39,0,0,0-1.53-1,6,6,0,0,0-1.77-.34c-.67-.06-1.33,0-2,0-.09,0-.19,0-.27,0a.83.83,0,0,1,.41,0,.38.38,0,0,0,.33-.14c.25-.33.51-.65.77-1l.63-.76c.21-.24.41-.48.61-.73L14.6.32A.56.56,0,0,0,14.76,0h7.37Z"/><path class="fff40518-6238-47af-9f2f-30ffe1fdd034" d="M35.32,0a1.87,1.87,0,0,1,.94.09.5.5,0,0,1,.31.72,2.11,2.11,0,0,1-.31.52c-.4.51-.82,1-1.24,1.5-2.25,2.65-4.54,5.26-6.83,7.86a1.26,1.26,0,0,0-.36,1,9.34,9.34,0,0,1-.63.78l-1.38,1.67c-.08.1-.16.2-.3.15a.65.65,0,0,1-.16-.32c-.15-.37-.28-.75-.43-1.12a.31.31,0,0,1,0-.19c.26-.35.55-.68.83-1l4.54-5.49,3.28-4c.51-.62,1-1.24,1.54-1.85A1.7,1.7,0,0,1,35.32,0Z"/><path class="afe067e7-4bc7-4518-84af-b8538a05a907" d="M55.73,14.6H51.35a1.42,1.42,0,0,1-.5-.08.78.78,0,0,1-.55-.69,2.33,2.33,0,0,1,.13-1c.44-1.32.8-2.67,1.21-4,0-.16.1-.32.14-.48a.88.88,0,0,1,.81-.61s.08,0,.13,0h2.86c.1,0,.2,0,.2.13a12,12,0,0,1,0,1.47c-.07.1-.18.08-.28.08H54a.69.69,0,0,0-.8.6c-.21.75-.44,1.5-.66,2.25a1.16,1.16,0,0,0-.07.37c0,.2.08.28.28.29h2.74c.23,0,.26.05.27.26v1.24A.26.26,0,0,1,55.73,14.6Z"/><path class="adaed5d8-0e42-44bd-8825-e07f5b6b0962" d="M33.29,16.7c-.28,0-.57,0-.85,0a1.53,1.53,0,0,1-1.26-.79c-.78-1.32-1.48-2.68-2.18-4a.61.61,0,0,1,.12-.7l.61-.71,2.64-3,.11-.11c.12,0,.13.08.14.16a1.22,1.22,0,0,1,0,.27v4.77a1.8,1.8,0,0,0,0,.4.37.37,0,0,1,0,.29c-.15.45-.31.89-.46,1.34a.58.58,0,0,0,0,.14c0,.07,0,0,0,0h.92a.32.32,0,0,1,.23,0,.4.4,0,0,1,0,.24c0,.48,0,1,0,1.45A.32.32,0,0,1,33.29,16.7Z"/><path class="e99c74db-2ca4-4358-ab20-cb494ad4b0b1" d="M60.28,7.78s0-.07,0-.07h5.35a1.76,1.76,0,0,1,.78.16.91.91,0,0,1,.53,1,3.53,3.53,0,0,1-.16.64c-.16.51-.31,1-.47,1.53a1.25,1.25,0,0,1-.3.54.8.8,0,0,1-.62.26h-.6l.74,2.74s-.06,0-.09,0H64c-.1,0-.14,0-.17-.13-.22-.83-.45-1.66-.67-2.5,0-.15,0-.15-.2-.15H62a.34.34,0,0,1-.06-.25q0-.45,0-.9c0-.14-.06-.2-.2-.2s-.23,0-.29-.1a.39.39,0,0,1,.29-.06h2.45c.38,0,.46-.08.56-.44,0-.1.07-.2.09-.3s0-.29-.22-.32H62a.49.49,0,0,1-.29-.05.06.06,0,0,1,0-.07c.2,0,.19-.19.19-.34s0-.52,0-.78-.06-.22-.22-.21H60.43A.34.34,0,0,1,60.28,7.78Z"/><path class="ba79d728-ae2e-4376-9632-9579d187a883" d="M44.45,7.71h4.88a1.8,1.8,0,0,1,.65.09A1,1,0,0,1,50.62,9c-.13.51-.3,1-.45,1.52-.06.19-.11.39-.18.58a1,1,0,0,1-.65.67.58.58,0,0,1-.19,0H45.56a.21.21,0,0,1-.05-.12c0-.44,0-.88,0-1.33a.42.42,0,0,1,.29-.06h1.93c.52,0,.57,0,.71-.54s.08-.52-.41-.52h-2.5a.35.35,0,0,1-.17,0s0-.05,0-.06c.18-.12.14-.31.14-.48s0-.44,0-.67,0-.22-.23-.22h-.61C44.58,7.79,44.49,7.81,44.45,7.71Z"/><path class="ea04460f-b871-4b04-aa75-99d0c1dc5cc6" d="M55.73,14.6V13.19c0-.24,0-.22-.23-.22,0,0,0,0,0,0a1.18,1.18,0,0,0,.46-.8c.21-.72.42-1.45.64-2.17a1.21,1.21,0,0,0,0-.18c0-.24-.1-.37-.33-.38h-.38a.27.27,0,0,1-.21-.05V7.93c0-.19,0-.19-.19-.19H52.59s.12,0,.18,0h5a1.49,1.49,0,0,1,.47.07.78.78,0,0,1,.6.72,2.72,2.72,0,0,1-.13,1.06l-1.32,4.36a.91.91,0,0,1-.9.69Z"/><path class="a908b690-42dc-484d-a094-e2438d7dce54" d="M61.46,10.37c.09.07.2,0,.29,0,.25,0,.25,0,.25.23v1.18h-.88c-.18,0-.18,0-.22.15-.25.81-.49,1.62-.74,2.42l0,.09c0,.1-.06.12-.15.12H58.21c0-.19.1-.37.16-.54Q59.3,11,60.24,7.86a.3.3,0,0,1,0-.08.28.28,0,0,1,.18,0h1.37c.16,0,.16,0,.16.17,0,.36,0,.71,0,1.07,0,.12,0,.18-.17.17,0,0-.08,0-.1,0s0,.21,0,.31A6.56,6.56,0,0,0,61.46,10.37Z"/><path class="b1b65719-043a-4077-b4aa-ea79a54c78d3" d="M45.52,10.37a.78.78,0,0,1,0,.3v1.15h-1s0,.06,0,.09c-.08.36-.2.71-.31,1.06s-.3,1-.46,1.51c0,.07,0,.13-.12.13H41.9c0-.06,0-.1,0-.15q1-3.29,2-6.57l0-.09c0-.08.06-.11.13-.1h.4c.06,0,.12,0,.18,0h.78c.15,0,.15,0,.15.15V9c0,.09,0,.17-.12.16s-.06,0-.07.08,0,.13,0,.2c-.06.22-.14.45-.2.67s0,.21.15.22S45.47,10.31,45.52,10.37Z"/><path class="b9853263-37f6-48ed-be18-a83c5fe298d2" d="M27.41,3.73a3.49,3.49,0,0,1,.41-.54c.22-.28.45-.55.67-.82s.43-.5.64-.76l.61-.74.45-.55a.27.27,0,0,0,.07-.08c.08-.12.06-.17-.09-.17H28.56c-.06,0-.14,0-.2,0h5.35c.08.11,0,.19-.07.27L32,2.24,30.93,3.59c-.06.07-.1.14-.19.15h-.12c-1,0-2,.07-2.94,0C27.59,3.79,27.49,3.81,27.41,3.73Z"/><path class="be7a82c4-82bc-47a4-98ab-f8b00db42612" d="M35.32,0a1,1,0,0,1-.22.35c-.27.34-.55.68-.83,1l-.63.76c-.21.24-.41.49-.61.73l-.65.79c-.2.24-.4.49-.61.73l-.66.81-.75.91-.66.8-.61.75-.62.75-.63.75-.67.81c-.25.3-.5.6-.74.91l-.47.57c-.27.32-.54.64-.8,1a1.36,1.36,0,0,1-.24.24l0,0s0-.05-.07-.08c-.11-.21-.18-.43-.27-.65a.17.17,0,0,1,0-.12.75.75,0,0,0,.29-.24L28.59,7c.57-.69,1.13-1.36,1.68-2,.07-.08.21-.14.14-.29a.11.11,0,0,1,0-.12l.61-.65a.37.37,0,0,0,.22-.14l1.77-2.15c.34-.41.68-.83,1-1.23A1.88,1.88,0,0,0,34.29,0,8.85,8.85,0,0,1,35.32,0Z"/><path class="e2f29b20-e447-428e-99be-d6656063531d" d="M76.28,11.83a1,1,0,0,1-1-.75,1.39,1.39,0,0,1,0-.7c.19-.67.38-1.35.58-2a.8.8,0,0,1,.77-.63c.33,0,.67,0,1,0a.28.28,0,0,1,.06.23V9a.5.5,0,0,1-.13.37,1.51,1.51,0,0,0-.23.88.79.79,0,0,1,.06.34v1a.37.37,0,0,1,0,.25A7.12,7.12,0,0,1,76.28,11.83Z"/><path class="ee169233-e096-41f7-9a14-31b72cbea725" d="M41.74,11.06a8.21,8.21,0,0,1-.27,1c-.21.74-.42,1.48-.64,2.22a.21.21,0,0,1,0,.1c-.11-.06-.1-.17-.1-.26,0-.35,0-.69,0-1V9.25a1.21,1.21,0,0,0,0-.19c0-.24,0-.26-.26-.27a2.62,2.62,0,0,1-.28,0H37c-.27,0-.54,0-.82,0a.34.34,0,0,1-.2,0c0-.08,0-.09.07-.1a1.23,1.23,0,0,1,.27,0h4c.31,0,.32,0,.42-.3s.27-.75.4-1.13c-.23-.06-.47,0-.68-.07.22-.14.18-.37.18-.57V5.29c0-.09,0-.19.06-.27.3,0,.6,0,.9,0a.13.13,0,0,1,.14.13,1.48,1.48,0,0,1,0,.21v5.32A2.55,2.55,0,0,1,41.74,11.06Z"/><path class="f288007e-f17e-488e-9785-d409e6af18b4" d="M72.09,9.46c-.09.38-.21.74-.32,1.11L70.6,14.45c0,.05,0,.17-.12.15s-.1-.2-.1-.31V8c0-.14-.06-.2-.2-.2h-2c-.08,0-.19,0-.22-.09h2.94c.3,0,.59,0,.89,0a.45.45,0,0,1,.23,0,.17.17,0,0,1,0,.12C72.1,8.39,72.13,8.93,72.09,9.46Z"/><path class="ef7c6911-e5f1-4e21-a02c-d4aae75ee9a2" d="M28.78,13.58h0v0a.09.09,0,0,0,0,.05h0s0,.05,0,.07h0s0,.06,0,.08h0s0,0,0,.07h0s0,.06,0,.08h0s0,0,0,.07h0c0,.11,0,.17-.09.24l-2.52,3.06c-.69.83-1.39,1.66-2.06,2.51a.09.09,0,0,1-.09.05h-.73c-.15,0-.07-.11,0-.16a5.89,5.89,0,0,1,.44-.55c.64-.76,1.26-1.54,1.9-2.29a1,1,0,0,0,.17-.28.45.45,0,0,0,.1-.54.82.82,0,0,1-.09-.38.84.84,0,0,0,.39-.33l1.86-2.26a.73.73,0,0,1,.17-.18,1.91,1.91,0,0,1,.23.45l0,.05s0,0,0,0l0,.05h0S28.77,13.56,28.78,13.58Z"/><path class="a122c21d-c927-4066-af07-3283e8a14f74" d="M69.45,7.74h.86c.09,0,.14,0,.13.13V14.3a.75.75,0,0,0,0,.3H68.65c.09-.29.18-.58.26-.87.3-1,.59-1.94.88-2.91l0-.07c.05,0,0-.09,0-.13v0s0-.08,0-.12h0s0-.09,0-.12h0s0-.09,0-.13,0,0,0,0,0-.08,0-.12h0s0-.08,0-.11h0s0-.09,0-.13,0,0,0,0,0-.09,0-.12h0s0-.08,0-.12h0s0-.09,0-.13,0,0,0,0a.13.13,0,0,0,0-.1h0s0-.08,0-.12h0c0-.06,0-.06,0-.07a5.08,5.08,0,0,1-.78,0,.3.3,0,0,1-.06-.2c0-.34,0-.68,0-1A.26.26,0,0,1,69.45,7.74Z"/><path class="f2737dd2-f57c-4743-b4f1-3ec033128ed8" d="M29.63,15.22c.22.38.42.78.61,1.18,0,.1-.06.16-.12.23-.81,1-1.62,2-2.44,2.94-.09.11-.13.28-.3.32h-1.5c-.17,0-.07-.11,0-.17s.33-.41.49-.61l2.46-3c.23-.27.44-.55.67-.81C29.51,15.28,29.54,15.21,29.63,15.22Z"/><path class="eff54630-8c61-483a-9f53-80a52790d73b" d="M75.19,13c0-.07.13,0,.19,0h3.83a1.23,1.23,0,0,0,.38,0,.57.57,0,0,0,.35-.33l.14-.39c.07-.18.06-.19-.09-.32,0-.46,0-.92,0-1.38a.18.18,0,0,1,0-.12c.34,0,.67,0,1,0,.11,0,.15,0,.16.15a1.62,1.62,0,0,1,0,.22v3.37a.71.71,0,0,1,0,.25c-.11.15-.29.17-.46.23a9.93,9.93,0,0,1-1.22,0,.35.35,0,0,1-.06-.27v-1c0-.22,0-.23-.23-.23H75.4C75.32,13.06,75.25,13.07,75.19,13Z"/><path class="eb34a829-53a0-48ad-95e4-a8c43e5bef32" d="M41.74,11.06a2.19,2.19,0,0,1,0-.57V5.2c0-.17,0-.17-.17-.17h-.82c-.17.1-.35,0-.52.06H36.3c-.08,0-.17,0-.21-.09.26,0,.53,0,.8,0h5.56a.81.81,0,0,1,.73.44.6.6,0,0,1,0,.51q-.73,2.51-1.45,5S41.75,11,41.74,11.06Z"/><path class="bec463c0-d32a-4954-b522-5f7a8eb3d6b7" d="M24.31,19.86c0-.15.14-.23.22-.34.22-.28.45-.55.68-.82l.63-.75c.2-.25.4-.49.61-.73s.43-.53.65-.79.51-.63.77-.94l.64-.78c.15-.19.32-.37.46-.57A.54.54,0,0,0,29,14a7.68,7.68,0,0,1,.41.81,1.46,1.46,0,0,1-.37.52l-2.79,3.39c-.29.34-.57.68-.85,1-.05.06-.09.12-.19.11h-.76S24.36,19.91,24.31,19.86Z"/><path class="eff54630-8c61-483a-9f53-80a52790d73b" d="M27.45,19.87c0-.16.13-.23.21-.33l.69-.85c.27-.33.55-.65.83-1s.5-.63.76-.94c.1-.13.21-.24.3-.37.24.44.47.88.69,1.33a.17.17,0,0,1-.07.15c-.53.64-1.05,1.27-1.57,1.92a.19.19,0,0,1-.16.09H27.47Z"/><path class="b018c179-0f2f-49ca-88bd-22c3921ba625" d="M28.44,12.92c0,.16-.18.25-.28.38s-.43.52-.64.78l-.6.73c-.22.27-.45.53-.66.8-.07.08-.13.13-.23.07s-.09-.1-.11-.17c-.14-.34-.25-.7-.39-1a.14.14,0,0,1,0-.16.32.32,0,0,0,.22-.13c.32-.39.63-.78.95-1.16s.42-.51.63-.76l.27-.34a.83.83,0,0,1,.22-.2l.53,1A.77.77,0,0,1,28.44,12.92Z"/><path class="bb90b0c7-6d7b-4c2b-b6b9-b1576210313a" d="M32.64,13a.32.32,0,0,1-.07-.25V7.56c0-.09,0-.2-.09-.25.26-.33.53-.64.81-.95.08.08.06.18.06.27,0,.75,0,1.5,0,2.25a.76.76,0,0,0,0,.15.48.48,0,0,1,0,.26c-.08.26-.18.51-.27.77a1.53,1.53,0,0,0-.08.67.85.85,0,0,0,.26.61c.06.06.13.11.13.21,0,.37,0,.75,0,1.12a.46.46,0,0,1,0,.26A1.27,1.27,0,0,1,32.64,13Z"/><path class="b6b9519b-cac6-4a90-abd5-bdb6fd6d8f09" d="M40.13,8.74h.44c.15,0,.17,0,.18.16v5.18a.44.44,0,0,0,0,.28,8.6,8.6,0,0,1-.24.87c-.06.23-.13.46-.19.69a.51.51,0,0,1-.19.3c-.11-.1-.09-.24-.09-.37q0-1.52,0-3a.34.34,0,0,0,0-.2c0-.1,0-.18,0-.27.11-.35.27-.68.35-1a.93.93,0,0,0-.3-1c0-.05-.11-.09-.09-.18a10.29,10.29,0,0,0,0-1.11C40.08,8.93,40.06,8.82,40.13,8.74Z"/><path class="b38ccb40-6436-484a-af99-5f064e877435" d="M27.45,19.87h1.64a.16.16,0,0,0,.14-.07c.35-.45.72-.88,1.08-1.32l.62-.75a3.85,3.85,0,0,1,.37.73,1.09,1.09,0,0,1-.59,1.3,2.2,2.2,0,0,1-.88.14H1.41a1,1,0,0,1-.34,0H5.89a.42.42,0,0,1,.22-.05h14q.82,0,1.65,0c.37,0,.74,0,1.1,0a1.61,1.61,0,0,1,.62,0h.84c.33,0,.67,0,1,0a.55.55,0,0,1,.5,0Z"/><path class="bba0d16a-90b2-4237-b70b-81f9fcf3e07d" d="M40.06,12.58s.07,0,.07,0a.75.75,0,0,1,0,.15v2.89a2.59,2.59,0,0,0,0,.56,1.36,1.36,0,0,1-.9.46c-.41,0-.42,0-.42-.36s0-1,0-1.56a.19.19,0,0,1,.11-.16,1.2,1.2,0,0,0,.55-.72c.1-.25.18-.5.29-.74l.07-.11,0,0a.11.11,0,0,0,0-.12s0,0,0,0l0-.08v0l0-.08Z"/><path class="b0c6a405-a733-46ff-bf84-d0f4cfd68020" d="M36.09,5s.12,0,.18,0h.85a.24.24,0,0,1,.05.18c0,.58,0,1.16,0,1.75a.29.29,0,0,1,0,.09.21.21,0,0,1,0,.06,1.87,1.87,0,0,1-.58,0,2.77,2.77,0,0,1-.76,0,.42.42,0,0,1-.05-.27V5.42A.5.5,0,0,0,35.59,5Z"/><path class="b32e3875-3a13-4170-b29e-e8d3a59cb6fa" d="M81.18,14.38a.41.41,0,0,1,0-.24V10.56c0-.14,0-.15-.15-.15H80a.06.06,0,0,1-.07,0,0,0,0,0,1,0,0h0a11.61,11.61,0,0,1,1.18,0,1.35,1.35,0,0,1,.28,0,1,1,0,0,1,.73,1.26c-.06.27-.16.53-.24.8-.15.48-.3.95-.46,1.43A1,1,0,0,1,81.18,14.38Z"/><path class="b92286fb-a8c6-4c6e-8481-186115760581" d="M77.63,9.32a1.17,1.17,0,0,0,.07-.49V7.75s0,0,0,0c.59,0,1.18,0,1.77,0a.25.25,0,0,1,.06.18V9a.3.3,0,0,1-.06.2c-.29,0-.58,0-.87,0a5.76,5.76,0,0,0-.59,0A.72.72,0,0,0,77.63,9.32Z"/><path class="b9853263-37f6-48ed-be18-a83c5fe298d2" d="M69.45,7.74V9.16a1.41,1.41,0,0,1-.29,0h-1.5a.41.41,0,0,1-.19,0,1.64,1.64,0,0,1,.1-.38c.1-.33.19-.67.31-1,0,0,0,0,0-.07H68c.06,0,.13,0,.2,0Z"/><path class="a11f40e2-a2d1-4fcc-b06f-7e1b2fd414be" d="M72.09,9.46a14.11,14.11,0,0,1,0-1.72,8.75,8.75,0,0,1,.89,0h.76a.14.14,0,0,1,.16.14c0,.39,0,.78,0,1.18a.23.23,0,0,1-.06.12c-.27,0-.54,0-.81,0h-.66c-.11,0-.16,0-.18.14A.28.28,0,0,1,72.09,9.46Z"/><path class="b4b31810-545a-4c5c-b1a0-8f2b1b766b02" d="M37.12,16.7q-.61,0-1.23,0a.31.31,0,0,1-.06-.23V15a.36.36,0,0,1,.05-.22.23.23,0,0,1,.14,0c.33,0,.65,0,1,0a.17.17,0,0,1,.12,0,.32.32,0,0,1,.06.23v1.49A.32.32,0,0,1,37.12,16.7Z"/><path class="fad80351-2da6-40b7-81c7-852c28671841" d="M25.81,19.87h-.5a1.2,1.2,0,0,1,.25-.34c.34-.42.69-.83,1-1.26s.56-.65.83-1,.51-.63.76-.94l.64-.75.42-.52a2.11,2.11,0,0,0,.19-.23,1.08,1.08,0,0,1,.16.3s0,.06,0,.08h0q-.33.36-.63.75c-.14.18-.3.35-.44.52-.28.33-.55.67-.82,1l-.63.75c-.19.24-.39.47-.58.7l-.63.78A.6.6,0,0,0,25.81,19.87Z"/><path class="a122c21d-c927-4066-af07-3283e8a14f74" d="M34.29,0c0,.18-.09.28-.19.39-.27.34-.53.68-.82,1s-.43.54-.66.8-.26.31-.39.47l-.65.79-.28.35c-.09.1-.13.12-.23.08s-.17-.15-.26-.22a1.77,1.77,0,0,1,.26-.35c.27-.34.55-.67.83-1l.64-.77.58-.69.49-.6a.33.33,0,0,0,.1-.24A2.81,2.81,0,0,1,34.29,0Z"/><path class="eff54630-8c61-483a-9f53-80a52790d73b" d="M79.5,9.16V7.75s.07,0,.1,0H81c.12,0,.19,0,.19.16q0,.57,0,1.14a.18.18,0,0,1-.06.13c-.38,0-.77,0-1.15,0A4,4,0,0,1,79.5,9.16Z"/><path class="f2737dd2-f57c-4743-b4f1-3ec033128ed8" d="M77.4,11.82V10.2a.55.55,0,0,0,.38.18c.37,0,.74,0,1.11,0a.07.07,0,0,1,.06,0,.41.41,0,0,1,0,.22v1c0,.13,0,.21-.21.2H77.52S77.43,11.85,77.4,11.82Z"/><path class="b38ccb40-6436-484a-af99-5f064e877435" d="M81.14,9.15V7.88c0-.13,0-.14-.14-.14H79.5c-.6,0-1.2,0-1.8,0l-1,0a.37.37,0,0,1,.18,0h5.63a.25.25,0,0,1,.15,0s0,.07,0,.11c-.13.4-.25.8-.38,1.2,0,.06,0,.13-.13.13C81.82,9.16,81.48,9.18,81.14,9.15Z"/><path class="f4b21180-8196-4d5f-ae93-2cf5f5928b8d" d="M35.59,5c.19,0,.19,0,.19.25V7.08a.24.24,0,0,1-.21.06c-.17,0-.34,0-.52,0-.35,0-.36,0-.37-.38s0-.86,0-1.29a.4.4,0,0,1,0-.26A2.42,2.42,0,0,1,35.59,5Z"/><path class="b327c54d-bcbf-4345-ae86-b8afa2c2e034" d="M73.8,9.16c0-.42,0-.83,0-1.24,0-.18,0-.18-.17-.18H71.12c-.06,0-.13,0-.18,0h4.42a.24.24,0,0,1,0,.17c-.11.39-.23.77-.34,1.15,0,.15,0,.15-.2.15C74.46,9.16,74.13,9.18,73.8,9.16Z"/><path class="ef7c6911-e5f1-4e21-a02c-d4aae75ee9a2" d="M75.19,13h1a.27.27,0,0,1,.06.21v1.19a.36.36,0,0,1-.06.2,10,10,0,0,1-1.45,0c.15-.52.31-1,.47-1.57Z"/><path class="b3fe9def-4e29-45d8-9964-d1a255f5853a" d="M37.12,16.7V14.76a.17.17,0,0,1,.15,0c.23,0,.46,0,.69,0a.18.18,0,0,1,.21.19c0,.54,0,1.08,0,1.62,0,.12-.06.18-.2.17a1.09,1.09,0,0,0-.36,0A4,4,0,0,1,37.12,16.7Z"/><path class="f4b21180-8196-4d5f-ae93-2cf5f5928b8d" d="M35.89,14.76V16.7a6.91,6.91,0,0,1-.91,0,.27.27,0,0,1-.06-.21q0-.76,0-1.53a.34.34,0,0,1,0-.2c.08-.08.19,0,.29,0a4.34,4.34,0,0,1,.51,0A.15.15,0,0,1,35.89,14.76Z"/><path class="a10a1215-cbda-4d13-be80-dd0314f0d7ec" d="M35.89,14.76h-.11s0,0,0-.06a.61.61,0,0,1,.3,0h2.34c.16,0,.31-.07.47,0v1.86c0,.1,0,.14.13.14a1.77,1.77,0,0,1,.23,0,1.89,1.89,0,0,1-.53,0H37.61a.88.88,0,0,1,.36,0c.13,0,.14,0,.14-.15V14.91c0-.14,0-.15-.16-.15H35.89Z"/><path class="f6fe9584-33c4-4d81-887b-1dba642def1b" d="M77.4,11.82h1.36c.16,0,.16,0,.17-.16V10.41a5.9,5.9,0,0,1,1,0H80c0,.43,0,.86,0,1.29,0,.07,0,.14,0,.2a1.68,1.68,0,0,0-.45-.05h-3c-.09,0-.19,0-.27,0Z"/><path class="faadc416-a993-4ec5-955d-5a810ba745cc" d="M34.71,5.21a1.17,1.17,0,0,1,0,.32c0,.46,0,.92,0,1.37,0,.19,0,.19.19.19h.84l.76,0a0,0,0,0,1,0,.05.63.63,0,0,1-.27,0q-.7,0-1.41,0a1.17,1.17,0,0,0-.75.21.2.2,0,0,1-.16.06c-.09,0-.11-.1-.12-.18,0-.48,0-1,0-1.46a.08.08,0,0,1,0,0A2.09,2.09,0,0,1,34.71,5.21Z"/><path class="e0690a73-f667-4082-8f91-771f9ba1e1a9" d="M33.29,16.7V14.76a1.57,1.57,0,0,1,.86,0,.42.42,0,0,1,.05.22v1.5a.3.3,0,0,1-.07.24C33.85,16.71,33.57,16.72,33.29,16.7Z"/><path class="e5ee83a5-97cd-4947-9907-a821d12eb764" d="M34.13,16.71v-2l.06,0a4.7,4.7,0,0,1,.65,0,.19.19,0,0,1,.14,0V16.7A8,8,0,0,1,34.13,16.71Z"/><path class="ae9eb225-d2b1-44c1-b092-bb41f5430021" d="M33.83,5.76a.92.92,0,0,1,0,.29V7.23c0,.08,0,.17.08.21a0,0,0,0,1,0,0s0,.06,0,.08c-.15.34-.24.69-.36,1a1.57,1.57,0,0,1-.09.23.26.26,0,0,0-.05.09s0,0,0,0l0,.08s0,0,0,0,0-.13,0-.2V6.36A4.37,4.37,0,0,1,33.83,5.76Z"/><path class="b3e35ffe-20e4-493f-a03b-53a15422619c" d="M74.69,14.6h1.45a.31.31,0,0,1,.21,0c.44,0,.88,0,1.31,0s1.08,0,1.62,0a.33.33,0,0,1,.22,0h1.22c0,.05-.12,0-.18,0H74.86C74.8,14.64,74.73,14.67,74.69,14.6Z"/><path class="f6fe9584-33c4-4d81-887b-1dba642def1b" d="M78.89,10.41H78c-.06,0-.13,0-.18,0a10.27,10.27,0,0,1,1.11,0s0,0,0,0Z"/><path class="eff54630-8c61-483a-9f53-80a52790d73b" d="M78.89,10.41v0a9.55,9.55,0,0,1,1.07,0v0H78.89Z"/><path class="f288007e-f17e-488e-9785-d409e6af18b4" d="M70.09,9.86c0,.05,0,.1,0,.13S70.05,9.9,70.09,9.86Z"/><path class="f288007e-f17e-488e-9785-d409e6af18b4" d="M70.06,10s0,.08,0,.11A.12.12,0,0,1,70.06,10Z"/><path class="f288007e-f17e-488e-9785-d409e6af18b4" d="M70,10.1c0,.05,0,.09,0,.12A.17.17,0,0,1,70,10.1Z"/><path class="f288007e-f17e-488e-9785-d409e6af18b4" d="M70,10.24s0,.1,0,.13A.16.16,0,0,1,70,10.24Z"/><path class="f288007e-f17e-488e-9785-d409e6af18b4" d="M70.14,9.72s0,.09,0,.12A.11.11,0,0,1,70.14,9.72Z"/><path class="f288007e-f17e-488e-9785-d409e6af18b4" d="M70.17,9.6c0,.05,0,.09,0,.12A.15.15,0,0,1,70.17,9.6Z"/><path class="f288007e-f17e-488e-9785-d409e6af18b4" d="M70.21,9.48s0,.1,0,.13A.16.16,0,0,1,70.21,9.48Z"/><path class="f2ecda29-db62-46af-8540-bed6f722f16f" d="M.38,17.3c0,.05,0,.1,0,.13A.19.19,0,0,1,.38,17.3Z"/><path class="f288007e-f17e-488e-9785-d409e6af18b4" d="M69.91,10.48s0,.09,0,.12A.15.15,0,0,1,69.91,10.48Z"/><path class="f288007e-f17e-488e-9785-d409e6af18b4" d="M69.86,10.62c0,.05,0,.1,0,.13S69.82,10.66,69.86,10.62Z"/><path class="f2ecda29-db62-46af-8540-bed6f722f16f" d="M2.15,11.32s0,.09,0,.12A.15.15,0,0,1,2.15,11.32Z"/><path class="f2ecda29-db62-46af-8540-bed6f722f16f" d="M2.1,11.46s0,.1,0,.13A.21.21,0,0,1,2.1,11.46Z"/><path class="f2ecda29-db62-46af-8540-bed6f722f16f" d="M.46,17c0,.05,0,.09,0,.12A.14.14,0,0,1,.46,17Z"/><path class="f2ecda29-db62-46af-8540-bed6f722f16f" d="M2.07,11.59s0,.09,0,.12S2,11.62,2.07,11.59Z"/><path class="f2ecda29-db62-46af-8540-bed6f722f16f" d="M.5,16.92s0,.1,0,.13S.46,17,.5,16.92Z"/><path class="f288007e-f17e-488e-9785-d409e6af18b4" d="M70.29,9.22s0,.09,0,.12A.15.15,0,0,1,70.29,9.22Z"/><path class="f2ecda29-db62-46af-8540-bed6f722f16f" d="M.54,16.78s0,.09,0,.12A.16.16,0,0,1,.54,16.78Z"/><path class="f2ecda29-db62-46af-8540-bed6f722f16f" d="M.58,16.66s0,.09,0,.12A.14.14,0,0,1,.58,16.66Z"/><path class="f2ecda29-db62-46af-8540-bed6f722f16f" d="M.65,16.4a.11.11,0,0,1,0,.12A.12.12,0,0,1,.65,16.4Z"/><path class="f2ecda29-db62-46af-8540-bed6f722f16f" d="M2,11.85c0,.05,0,.09,0,.12A.14.14,0,0,1,2,11.85Z"/><path class="f2ecda29-db62-46af-8540-bed6f722f16f" d="M2,12a.11.11,0,0,1,0,.12A.12.12,0,0,1,2,12Z"/><path class="f2ecda29-db62-46af-8540-bed6f722f16f" d="M1.91,12.11c0,.05,0,.1,0,.13S1.87,12.15,1.91,12.11Z"/><path class="f2ecda29-db62-46af-8540-bed6f722f16f" d="M1.88,12.24s0,.09,0,.12S1.84,12.27,1.88,12.24Z"/><path class="f2ecda29-db62-46af-8540-bed6f722f16f" d="M.69,16.27c0,.05,0,.1,0,.13A.16.16,0,0,1,.69,16.27Z"/><path class="f2ecda29-db62-46af-8540-bed6f722f16f" d="M1.8,12.5s0,.09,0,.12A.14.14,0,0,1,1.8,12.5Z"/><path class="f288007e-f17e-488e-9785-d409e6af18b4" d="M70.23,9.16c.09,0,.09,0,0,.07A.07.07,0,0,0,70.23,9.16Z"/><path class="f2ecda29-db62-46af-8540-bed6f722f16f" d="M.73,16.13s0,.09,0,.12A.12.12,0,0,1,.73,16.13Z"/><path class="f2ecda29-db62-46af-8540-bed6f722f16f" d="M1.76,12.62s0,.09,0,.12A.12.12,0,0,1,1.76,12.62Z"/><path class="f2ecda29-db62-46af-8540-bed6f722f16f" d="M.77,16s0,.09,0,.12A.14.14,0,0,1,.77,16Z"/><path class="f2ecda29-db62-46af-8540-bed6f722f16f" d="M1.72,12.76c0,.05,0,.1,0,.13S1.68,12.8,1.72,12.76Z"/><path class="f2ecda29-db62-46af-8540-bed6f722f16f" d="M.81,15.86c0,.05,0,.09,0,.12A.19.19,0,0,1,.81,15.86Z"/><path class="f2ecda29-db62-46af-8540-bed6f722f16f" d="M1.68,12.89s0,.08,0,.11A.14.14,0,0,1,1.68,12.89Z"/><path class="f2ecda29-db62-46af-8540-bed6f722f16f" d="M.84,15.75s0,.09,0,.12A.16.16,0,0,1,.84,15.75Z"/><path class="f2ecda29-db62-46af-8540-bed6f722f16f" d="M.88,15.62c0,.05,0,.1,0,.13A.16.16,0,0,1,.88,15.62Z"/><path class="f2ecda29-db62-46af-8540-bed6f722f16f" d="M.92,15.48s0,.09,0,.12A.12.12,0,0,1,.92,15.48Z"/><path class="f2ecda29-db62-46af-8540-bed6f722f16f" d="M1,15.36s0,.09,0,.12A.14.14,0,0,1,1,15.36Z"/><path class="f2ecda29-db62-46af-8540-bed6f722f16f" d="M1.61,13.15s0,.09,0,.12A.14.14,0,0,1,1.61,13.15Z"/><path class="f2ecda29-db62-46af-8540-bed6f722f16f" d="M1.57,13.27s0,.09,0,.12A.12.12,0,0,1,1.57,13.27Z"/><path class="f2ecda29-db62-46af-8540-bed6f722f16f" d="M1.53,13.41c0,.05,0,.1,0,.13S1.49,13.44,1.53,13.41Z"/><path class="f2ecda29-db62-46af-8540-bed6f722f16f" d="M1,15.22s0,.08,0,.11A.15.15,0,0,1,1,15.22Z"/><path class="f2ecda29-db62-46af-8540-bed6f722f16f" d="M1.49,13.53c0,.05,0,.09,0,.12A.14.14,0,0,1,1.49,13.53Z"/><path class="f2ecda29-db62-46af-8540-bed6f722f16f" d="M1,15.1s0,.09,0,.12A.16.16,0,0,1,1,15.1Z"/><path class="f288007e-f17e-488e-9785-d409e6af18b4" d="M69.94,10.37s0,.09,0,.12S69.9,10.4,69.94,10.37Z"/><path class="f2ecda29-db62-46af-8540-bed6f722f16f" d="M1.07,15s0,.1,0,.13S1,15,1.07,15Z"/><path class="f2ecda29-db62-46af-8540-bed6f722f16f" d="M1.11,14.83c0,.05,0,.09,0,.12A.13.13,0,0,1,1.11,14.83Z"/><path class="f2ecda29-db62-46af-8540-bed6f722f16f" d="M1.42,13.79c0,.05,0,.1,0,.13A.16.16,0,0,1,1.42,13.79Z"/><path class="f2ecda29-db62-46af-8540-bed6f722f16f" d="M1.15,14.71s0,.09,0,.12A.14.14,0,0,1,1.15,14.71Z"/><path class="f2ecda29-db62-46af-8540-bed6f722f16f" d="M1.38,13.92s0,.09,0,.11A.11.11,0,0,1,1.38,13.92Z"/><path class="f2ecda29-db62-46af-8540-bed6f722f16f" d="M1.34,14.06s0,.1,0,.13S1.3,14.09,1.34,14.06Z"/><path class="f2ecda29-db62-46af-8540-bed6f722f16f" d="M1.3,14.18c0,.05,0,.09,0,.12A.14.14,0,0,1,1.3,14.18Z"/><path class="f2ecda29-db62-46af-8540-bed6f722f16f" d="M1.23,14.44c0,.05,0,.1,0,.13A.16.16,0,0,1,1.23,14.44Z"/><path class="f2ecda29-db62-46af-8540-bed6f722f16f" d="M1.19,14.57s0,.08,0,.11A.11.11,0,0,1,1.19,14.57Z"/><path class="f2ecda29-db62-46af-8540-bed6f722f16f" d="M1.26,14.32a.08.08,0,0,1,0,.1A.12.12,0,0,1,1.26,14.32Z"/><path class="bec463c0-d32a-4954-b522-5f7a8eb3d6b7" d="M29,14s0,0,0-.07A.07.07,0,0,1,29,14Z"/><path class="bec463c0-d32a-4954-b522-5f7a8eb3d6b7" d="M29,14a.07.07,0,0,1,0-.08A.09.09,0,0,1,29,14Z"/><path class="bec463c0-d32a-4954-b522-5f7a8eb3d6b7" d="M28.94,13.88a.07.07,0,0,1,0-.07A.07.07,0,0,1,28.94,13.88Z"/><path class="bec463c0-d32a-4954-b522-5f7a8eb3d6b7" d="M28.9,13.81a.09.09,0,0,1,0-.08A.08.08,0,0,1,28.9,13.81Z"/><path class="f2ecda29-db62-46af-8540-bed6f722f16f" d="M.42,17.18a.08.08,0,0,1,0,.1A.12.12,0,0,1,.42,17.18Z"/><path class="f2ecda29-db62-46af-8540-bed6f722f16f" d="M1.45,13.67a.08.08,0,0,1,0,.1A.12.12,0,0,1,1.45,13.67Z"/><path class="f288007e-f17e-488e-9785-d409e6af18b4" d="M67.92,7.71a.08.08,0,0,1,0,.07S67.87,7.71,67.92,7.71Z"/><path class="bec463c0-d32a-4954-b522-5f7a8eb3d6b7" d="M28.86,13.73a.08.08,0,0,1,0-.07A.07.07,0,0,1,28.86,13.73Z"/><path class="f288007e-f17e-488e-9785-d409e6af18b4" d="M70.24,9.36a.08.08,0,0,1,0,.1S70.21,9.38,70.24,9.36Z"/><path class="f2737dd2-f57c-4743-b4f1-3ec033128ed8" d="M29.63,15.22a.07.07,0,0,1,0-.08A.08.08,0,0,1,29.63,15.22Z"/><path class="f2ecda29-db62-46af-8540-bed6f722f16f" d="M2,11.73s0,.07,0,.09A.07.07,0,0,1,2,11.73Z"/><path class="f2ecda29-db62-46af-8540-bed6f722f16f" d="M1.64,13a.07.07,0,0,1,0,.09S1.61,13.05,1.64,13Z"/><path class="ba79d728-ae2e-4376-9632-9579d187a883" d="M44.57,11.91a.09.09,0,0,1,0-.09S44.61,11.89,44.57,11.91Z"/><path class="f2ecda29-db62-46af-8540-bed6f722f16f" d="M1.84,12.38s0,.07,0,.09S1.8,12.4,1.84,12.38Z"/><path class="f2ecda29-db62-46af-8540-bed6f722f16f" d="M.61,16.53s0,.08,0,.1A.12.12,0,0,1,.61,16.53Z"/><path class="bec463c0-d32a-4954-b522-5f7a8eb3d6b7" d="M28.7,13.42l0-.05S28.71,13.4,28.7,13.42Z"/><path class="bec463c0-d32a-4954-b522-5f7a8eb3d6b7" d="M28.74,13.5a.05.05,0,0,1,0-.05S28.74,13.48,28.74,13.5Z"/><path class="bec463c0-d32a-4954-b522-5f7a8eb3d6b7" d="M28.78,13.58a.09.09,0,0,1,0-.06A.06.06,0,0,1,28.78,13.58Z"/><path class="bec463c0-d32a-4954-b522-5f7a8eb3d6b7" d="M28.82,13.65a.05.05,0,0,1,0-.05A.05.05,0,0,1,28.82,13.65Z"/><path class="bbea29d7-d1e7-439a-984a-a0f820e2aaec" d="M11.2,3.73c.42,0,.84,0,1.26,0a10.16,10.16,0,0,1,1.35,0A4.88,4.88,0,0,1,15,4a4.18,4.18,0,0,1,1.84,1.17s0,0,0,.07h0l0,0h0l0,0h0s0,0,0,.07h0l0,0h0s0,.06,0,.07h0s0,0,0,0h0s0,0,0,.07h0s0,.06,0,.08h0s0,.05,0,.07h0s0,.06,0,.08h0s0,.06,0,.08h0a1.18,1.18,0,0,1,.24.69A5.05,5.05,0,0,1,15,11.65a7.63,7.63,0,0,1-2.78.9,1,1,0,0,1-.43,0,.38.38,0,0,0-.21,0l-1.34,0-.83,0a1,1,0,0,0-.34.08.68.68,0,0,0-.44.46c-.3,1-.6,1.93-.89,2.89l-.06.18a.67.67,0,0,1-.69.47q-.95,0-1.89,0l-.23,0c-.35-.05-.43-.18-.32-.52S4.83,15.36,5,15c.46-1.51.92-3,1.39-4.52,0,0,0-.06,0-.09h0s0-.09,0-.13h0s0-.09,0-.12h0s0-.09,0-.12h0s0-.1,0-.13h0s0-.08,0-.12h0s0-.09,0-.12h0a.19.19,0,0,1,0-.1s0,0,0,0,0-.09,0-.13h0s0-.08,0-.11h0s0-.1,0-.13h0s0-.09,0-.12h0s0-.08,0-.11h0v0s0-.09,0-.12h0s0-.09,0-.12h0s0-.08,0-.12h0a.32.32,0,0,1,0-.09c.13-.36.23-.73.34-1.09.28-1,.57-1.92.85-2.88A.77.77,0,0,1,9,3.77C9.72,3.78,10.46,3.75,11.2,3.73Z"/><path class="f2ecda29-db62-46af-8540-bed6f722f16f" d="M6.46,10a.11.11,0,0,1,0,.12S6.42,10,6.46,10Z"/><path class="f2ecda29-db62-46af-8540-bed6f722f16f" d="M6.43,10.11a.15.15,0,0,1,0,.12C6.39,10.18,6.38,10.13,6.43,10.11Z"/><path class="f2ecda29-db62-46af-8540-bed6f722f16f" d="M6.4,10.22s0,.1,0,.13S6.34,10.25,6.4,10.22Z"/><path class="f2ecda29-db62-46af-8540-bed6f722f16f" d="M6.51,9.84a.16.16,0,0,1,0,.13C6.47,9.92,6.45,9.87,6.51,9.84Z"/><path class="f2ecda29-db62-46af-8540-bed6f722f16f" d="M6.54,9.72s0,.09,0,.12S6.49,9.75,6.54,9.72Z"/><path class="f2ecda29-db62-46af-8540-bed6f722f16f" d="M6.58,9.61a.15.15,0,0,1,0,.12C6.54,9.68,6.53,9.64,6.58,9.61Z"/><path class="f2ecda29-db62-46af-8540-bed6f722f16f" d="M6.66,9.34a.16.16,0,0,1,0,.13C6.62,9.42,6.61,9.37,6.66,9.34Z"/><path class="f2ecda29-db62-46af-8540-bed6f722f16f" d="M6.69,9.23a.11.11,0,0,1,0,.11S6.65,9.26,6.69,9.23Z"/><path class="f2ecda29-db62-46af-8540-bed6f722f16f" d="M6.74,9.08a.17.17,0,0,1,0,.13C6.7,9.16,6.68,9.11,6.74,9.08Z"/><path class="f2ecda29-db62-46af-8540-bed6f722f16f" d="M6.77,9s0,.09,0,.12S6.72,9,6.77,9Z"/><path class="f2ecda29-db62-46af-8540-bed6f722f16f" d="M6.81,8.85a.12.12,0,0,1,0,.11S6.76,8.87,6.81,8.85Z"/><path class="f2ecda29-db62-46af-8540-bed6f722f16f" d="M6.92,8.46a.12.12,0,0,1,0,.12S6.88,8.49,6.92,8.46Z"/><path class="f2ecda29-db62-46af-8540-bed6f722f16f" d="M6.89,8.58a.14.14,0,0,1,0,.12S6.84,8.61,6.89,8.58Z"/><path class="f2ecda29-db62-46af-8540-bed6f722f16f" d="M6.85,8.7a.14.14,0,0,1,0,.12S6.8,8.73,6.85,8.7Z"/><path class="f2ecda29-db62-46af-8540-bed6f722f16f" d="M7,8.35s0,.07,0,.09A.08.08,0,0,1,7,8.35Z"/><path class="f2ecda29-db62-46af-8540-bed6f722f16f" d="M6.62,9.49a.12.12,0,0,1,0,.1A.08.08,0,0,1,6.62,9.49Z"/><path class="e9a9f68e-7a68-429f-afc2-7854951cc0b4" d="M11.61,12.54a.76.76,0,0,1,.3,0,6.45,6.45,0,0,0,4.22-1.78,4.84,4.84,0,0,0,1.3-2.45,4.47,4.47,0,0,0,.08-1.63,4,4,0,0,0-.2-.75.2.2,0,0,0,.15-.08c.28-.37.59-.7.86-1.08.1,0,.09.13.12.2.38,1.26.74,2.53,1.15,3.78a4.39,4.39,0,0,1,.27.87.87.87,0,0,1-.29.77c-.4.35-.79.72-1.18,1.08l-2,1.84-1.2,1.12c-.64.59-1.27,1.19-1.92,1.77-.2.17-.23.25-.16.41a.36.36,0,0,0,.23,0h1.06c.08,0,.17,0,.21.07s0,.14-.08.2c-.66.81-1.32,1.61-2,2.41a2.67,2.67,0,0,1-.5.56H5.89a.7.7,0,0,1,.17-.24c.3-.36.6-.72.89-1.09l.79-1c.28-.33.54-.66.82-1s.56-.65.83-1l.76-.95.64-.75.61-.75.34-.41c0-.05.09-.09.06-.15s-.1,0-.15,0Z"/><path class="bbea29d7-d1e7-439a-984a-a0f820e2aaec" d="M13.08,16.63c-.1-.14-.1-.16,0-.28a1.07,1.07,0,0,1,.14-.16l6.27-5.8a.86.86,0,0,0,.35-.62,1,1,0,0,0-.07-.45c-.39-1.05-.69-2.14-1-3.21-.13-.43-.25-.86-.38-1.29,0,0,0-.05,0-.07s0,0,0,0,0-.08,0-.11h0s0-.09,0-.13,0,0,0,0,0-.09,0-.13a0,0,0,0,0,0,0,.81.81,0,0,1,0-.38h0a.28.28,0,0,1,.09-.13,1,1,0,0,1,.5,0c.5,0,1,0,1.51,0s.74,0,1.11,0a.67.67,0,0,1,.69.51c.3,1,.58,2,.86,3,.08.26.21.32.45.19a2,2,0,0,0,.5-.4c.72-.71,1.41-1.44,2.11-2.16.14-.15.29-.3.43-.46a1.87,1.87,0,0,1,1-.62h1.88c.51,0,1,0,1.52,0,.22,0,.23,0,.26.22a2.93,2.93,0,0,1-.39.48,2.35,2.35,0,0,0-.26.29c0,.09-.08.13-.13.19-1,1-2,2-2.92,3s-1.78,1.78-2.66,2.68a.87.87,0,0,0-.22,1c0,.1.11.19.08.31a5.44,5.44,0,0,0,.32.79s0,.06,0,.09h0c.12.4.29.78.44,1.18a2.49,2.49,0,0,0,.18.45c.13.38.26.75.4,1.13a1.25,1.25,0,0,0,.09.25c0,.17.12.33.16.5a.34.34,0,0,1-.16.44l-.06.05h-.13c-1,0-2,0-3.05,0a.49.49,0,0,1-.16-.05,1,1,0,0,1-.41-.57c-.17-.48-.32-1-.51-1.45s-.32-.88-.49-1.32a1.63,1.63,0,0,0-.09-.19.27.27,0,0,0-.4-.08.45.45,0,0,0-.13.1,9.22,9.22,0,0,1-.71.69c-.86.87-1.76,1.69-2.65,2.53a1.25,1.25,0,0,1-.87.34c-.52,0-1,0-1.56,0S13.65,16.68,13.08,16.63Z"/><path class="e9a9f68e-7a68-429f-afc2-7854951cc0b4" d="M18.2,3.92a1.21,1.21,0,0,0,0,.38A.42.42,0,0,1,18.2,3.92Z"/><path class="e9a9f68e-7a68-429f-afc2-7854951cc0b4" d="M18.29,3.77l-.09.13A.12.12,0,0,1,18.29,3.77Z"/><path class="e9a9f68e-7a68-429f-afc2-7854951cc0b4" d="M18.2,4.33a.13.13,0,0,1,0,.13S18.2,4.38,18.2,4.33Z"/><path class="e9a9f68e-7a68-429f-afc2-7854951cc0b4" d="M18.28,4.61a.11.11,0,0,1,0,.11A.09.09,0,0,1,18.28,4.61Z"/><path class="e9a9f68e-7a68-429f-afc2-7854951cc0b4" d="M18.24,4.48a.16.16,0,0,1,0,.13C18.23,4.58,18.24,4.53,18.24,4.48Z"/><path class="e9a9f68e-7a68-429f-afc2-7854951cc0b4" d="M17,5.37a.07.07,0,0,1,0-.07A.07.07,0,0,1,17,5.37Z"/><path class="e9a9f68e-7a68-429f-afc2-7854951cc0b4" d="M17.09,5.48a.07.07,0,0,1,0-.07A.08.08,0,0,1,17.09,5.48Z"/><path class="e9a9f68e-7a68-429f-afc2-7854951cc0b4" d="M17.16,5.6a.07.07,0,0,1,0-.07S17.16,5.57,17.16,5.6Z"/><path class="e9a9f68e-7a68-429f-afc2-7854951cc0b4" d="M16.9,5.22s0,0,0-.07A.07.07,0,0,1,16.9,5.22Z"/><path class="e9a9f68e-7a68-429f-afc2-7854951cc0b4" d="M17.32,5.91a.07.07,0,0,1,0-.08A.09.09,0,0,1,17.32,5.91Z"/><path class="e9a9f68e-7a68-429f-afc2-7854951cc0b4" d="M17.28,5.83a.08.08,0,0,1,0-.08A.09.09,0,0,1,17.28,5.83Z"/><path class="e9a9f68e-7a68-429f-afc2-7854951cc0b4" d="M17.2,5.68a.08.08,0,0,1,0-.08A.07.07,0,0,1,17.2,5.68Z"/><path class="e9a9f68e-7a68-429f-afc2-7854951cc0b4" d="M17.24,5.75a.08.08,0,0,1,0-.07S17.24,5.72,17.24,5.75Z"/><path class="e9a9f68e-7a68-429f-afc2-7854951cc0b4" d="M16.94,5.26s0,0,0,0Z"/><path class="e9a9f68e-7a68-429f-afc2-7854951cc0b4" d="M17,5.3s0,0,0,0S17,5.28,17,5.3Z"/><path class="e9a9f68e-7a68-429f-afc2-7854951cc0b4" d="M17.12,5.53s0,0,0,0Z"/><path class="e9a9f68e-7a68-429f-afc2-7854951cc0b4" d="M17.05,5.42a.05.05,0,0,1,0,0Z"/><path class="bbea29d7-d1e7-439a-984a-a0f820e2aaec" d="M33.33,9.07s0,0,0,0,0,0,0-.08a0,0,0,0,0,0,0,.41.41,0,0,0,0-.08A8.75,8.75,0,0,0,33.7,8a2.22,2.22,0,0,1,.2-.48s0,0,0,0,0,0,0,0a1.2,1.2,0,0,1,.88-.33h1.52a.4.4,0,0,0,.19,0,5.61,5.61,0,0,0,.58,0,.83.83,0,0,1,.27,0h2.28c.21,0,.41,0,.62,0a.34.34,0,0,1,.2,0c.24,0,.48,0,.72,0,0,.06,0,.1,0,.14-.15.43-.3.86-.46,1.29,0,.15,0,.15-.22.15H36.32a1.13,1.13,0,0,0-.32,0,.1.1,0,0,1-.08,0,.64.64,0,0,0-.52.58l0,.13c0,.33,0,.38.31.45.77,0,1.53,0,2.3,0h1.27a1.61,1.61,0,0,1,.62.09c.08,0,.16.06.19.15a1,1,0,0,1,.46.87,1.47,1.47,0,0,1-.07.41c-.09.31-.22.62-.33.93a.6.6,0,0,0-.06.19,0,0,0,0,0,0,0,.32.32,0,0,1,0,.09h0s0,.08,0,.11h0c0,.06,0,.15-.07.19h0s0,.08,0,.11c-.12.25-.19.51-.29.77a2.37,2.37,0,0,1-.17.36,1,1,0,0,1-.49.42,2.31,2.31,0,0,1-.64.05H35.78c-.54,0-1.07,0-1.61,0H32.3a.61.61,0,0,1-.19,0s-.07,0,0-.06a.56.56,0,0,1,0-.12c.17-.5.35-1,.52-1.49a.29.29,0,0,0,0-.09c0-.06.12,0,.18,0h.47a.34.34,0,0,1,.22-.05h3.27c.18,0,.35,0,.52,0a.68.68,0,0,0,.62-.41l.16-.37a.19.19,0,0,0-.13-.27,1.13,1.13,0,0,0-.41-.06H34a2.54,2.54,0,0,1-.45-.13.2.2,0,0,1-.15-.12A1.17,1.17,0,0,1,33,10.16c.1-.31.2-.6.31-.9A.59.59,0,0,0,33.33,9.07Z"/><path class="f4b21180-8196-4d5f-ae93-2cf5f5928b8d" d="M32.11,14.73h2.06s0,0,0,0h-1.9C32.23,14.76,32.16,14.78,32.11,14.73Z"/><path class="a122c21d-c927-4066-af07-3283e8a14f74" d="M24.57,11.79a1.28,1.28,0,0,1-.14-.37.86.86,0,0,1,.22-.91l1.74-1.74c1.31-1.33,2.63-2.66,3.93-4l.1-.09.11,0a.81.81,0,0,1-.24.4c-.15.16-.26.34-.4.5l-.67.8-.39.47-.5.61-.76.93-.69.83-.39.47c-.22.27-.45.54-.67.82l-.39.46-.49.6-.2.24A.13.13,0,0,1,24.57,11.79Z"/><path class="fff40518-6238-47af-9f2f-30ffe1fdd034" d="M24.92,12.67s0-.05,0-.09S24.92,12.63,24.92,12.67Z"/><path class="b0c6a405-a733-46ff-bf84-d0f4cfd68020" d="M35.61,10c-.27,0-.34-.12-.3-.39a1.79,1.79,0,0,1,.09-.4.59.59,0,0,1,.6-.45l1,0s0,0,0,0A2.75,2.75,0,0,1,37,10C36.56,10,36.09,10,35.61,10Z"/><path class="ed6a59d2-6fe0-4c75-bfe3-825cabdd37d5" d="M40.49,7.1a5.47,5.47,0,0,1-.81,0l0,0c.15,0,.19-.14.19-.3,0-.49,0-1,0-1.46,0-.1,0-.2,0-.28h.77V7c0,.1,0,.15-.13.14Z"/><path class="f292ff6b-fbfb-4caa-a6ef-08695686be6c" d="M40.06,10.18a1.88,1.88,0,0,0-.77-.21c-.44,0-.44,0-.44-.44V9a.31.31,0,0,1,.06-.23h1.22c0,.41,0,.83,0,1.24C40.13,10.05,40.15,10.14,40.06,10.18Z"/><path class="a10a1215-cbda-4d13-be80-dd0314f0d7ec" d="M38.91,8.74V9.8c0,.15,0,.15.15.15s.16,0,.23,0H35.81a.44.44,0,0,1-.2,0l1.43,0a1.32,1.32,0,0,1,.56,0c.3,0,.3,0,.3-.29V9c0-.08,0-.17.06-.23Z"/><path class="e4e7a9e7-9698-4037-a8a0-2ae239fe597d" d="M38,8.74v1c0,.17,0,.17-.18.17H37V8.74Z"/><path class="ef7c6911-e5f1-4e21-a02c-d4aae75ee9a2" d="M26,16.63h0c0,.15-.11.23-.18.32-.22.28-.45.55-.67.82s-.43.51-.64.76l-.76.92-.26.33s-.05.05-.05.1h-.61c-.05-.07,0-.13,0-.18.83-1,1.64-2,2.47-3l.06-.05c.07,0,.15,0,.2,0a.08.08,0,0,1,0,0s0,0,0,0S25.88,16.69,26,16.63Z"/><path class="b92286fb-a8c6-4c6e-8481-186115760581" d="M79.5,14.6H77.66a.25.25,0,0,1,0-.19q0-.6,0-1.2a.29.29,0,0,1,0-.2h1.7c.13,0,.14,0,.14.14Z"/><path class="e2f29b20-e447-428e-99be-d6656063531d" d="M77.66,13V14.6H76.14V13Z"/><path class="f292ff6b-fbfb-4caa-a6ef-08695686be6c" d="M39.94,5V6.86c0,.25,0,.23-.21.23h0c-.21,0-.42,0-.63,0s-.19-.06-.2-.19V5.31A.39.39,0,0,1,38.91,5Z"/><path class="b3fe9def-4e29-45d8-9964-d1a255f5853a" d="M37.12,7.09V5h1a.35.35,0,0,1,.06.24V6.85c0,.25,0,.26-.27.26A6.77,6.77,0,0,1,37.12,7.09Z"/><path class="bd1f30ca-c514-4b6e-b9dd-a1805a9dd066" d="M37.12,7.09h.82c.17,0,.17,0,.17-.17V5h.8V6.9c0,.19,0,.19.19.19h-2Z"/><path class="f8ed0de7-1777-4b69-af2e-00fd1be97f8e" d="M34.44,12.92H33.29V11.7c0-.07,0-.14.06-.19a2.57,2.57,0,0,0,.59.2c.06,0,.12,0,.17,0,.39,0,.39,0,.39.39v.57A.31.31,0,0,1,34.44,12.92Z"/><path class="e30bb7bf-0c93-4372-8f06-125274a34605" d="M13.08,16.63h3.21a1.38,1.38,0,0,0,1-.39c1-.94,2-1.87,3-2.82l.26-.27.13-.13c.25-.22.48-.17.61.15.18.47.37.94.52,1.42.05.1,0,.17-.06.24-.51.63-1,1.25-1.54,1.87l-2.07,2.5a3.91,3.91,0,0,1-.57.65H12.05a1.69,1.69,0,0,1,.29-.37c.39-.49.79-1,1.18-1.45l.83-1a1.24,1.24,0,0,0,.18-.22s.08-.08.05-.13-.08,0-.12,0H13.22C13.17,16.67,13.12,16.68,13.08,16.63Z"/><path class="f288007e-f17e-488e-9785-d409e6af18b4" d="M17.51,19.86a4.34,4.34,0,0,1,.42-.54l.82-1c.14-.18.3-.36.45-.54l.79-1,.62-.75.63-.75.44-.55a.19.19,0,0,0,.07-.17A11.8,11.8,0,0,1,22.24,16a1.16,1.16,0,0,0,.39.61c.14.12,0,.22,0,.31l-.76.93c-.51.62-1,1.23-1.53,1.86a1.07,1.07,0,0,1-.19.18Z"/><path class="a11f40e2-a2d1-4fcc-b06f-7e1b2fd414be" d="M20.11,19.86c0-.11.12-.17.18-.25.25-.32.52-.63.77-.94s.55-.67.83-1l.64-.76c.08-.09.18-.18.1-.32a.26.26,0,0,1,.12.05c.36,0,.73,0,1.09,0h.4c.19,0,.07.13,0,.18l-.66.82c-.5.59-1,1.19-1.48,1.79a5,5,0,0,1-.38.42Z"/><path class="e6577a46-a5e4-4a8a-b74a-bab65ce9178b" d="M21.75,19.86a.32.32,0,0,1,.1-.17c.25-.25.43-.55.67-.8a5.19,5.19,0,0,0,.37-.45l.69-.83c.13-.15.25-.3.37-.46l.3-.36s.06-.07.06-.11a4.58,4.58,0,0,1,1.11,0c0,.14-.15.22-.23.32-.35.44-.71.87-1.07,1.3s-.72.86-1.07,1.3c-.07.09-.17.15-.19.27Z"/><path class="b6b9519b-cac6-4a90-abd5-bdb6fd6d8f09" d="M39.91,13a.34.34,0,0,1,.07-.19C40,13,40,13,39.91,13Z"/><path class="b6b9519b-cac6-4a90-abd5-bdb6fd6d8f09" d="M40,12.81a.15.15,0,0,1,0-.11S40,12.79,40,12.81Z"/><path class="b6b9519b-cac6-4a90-abd5-bdb6fd6d8f09" d="M39.86,13.12a.12.12,0,0,1,0-.11S39.91,13.09,39.86,13.12Z"/><path class="b6b9519b-cac6-4a90-abd5-bdb6fd6d8f09" d="M40,12.7s0-.07,0-.09A.07.07,0,0,1,40,12.7Z"/><path class="b3fe9def-4e29-45d8-9964-d1a255f5853a" d="M37.11,7.09h0a2.81,2.81,0,0,1-.58,0h0A5.42,5.42,0,0,1,37.11,7.09Z"/><path class="b4b31810-545a-4c5c-b1a0-8f2b1b766b02" d="M34.17,14.76v0h1.61v0H34.17Z"/><path class="bb90b0c7-6d7b-4c2b-b6b9-b1576210313a" d="M33.4,8.85a.07.07,0,0,1,0,.08A.08.08,0,0,1,33.4,8.85Z"/><path class="bb90b0c7-6d7b-4c2b-b6b9-b1576210313a" d="M33.37,9a.09.09,0,0,1,0,.08A.09.09,0,0,1,33.37,9Z"/><path class="faadc416-a993-4ec5-955d-5a810ba745cc" d="M33.92,7.48l0,0S33.9,7.48,33.92,7.48Z"/><path class="bd017e0a-d333-4857-b7a6-9a636e01057a" d="M11,9.56a3.75,3.75,0,0,1-.58,0c-.26,0-.35-.16-.28-.41.25-.88.51-1.75.77-2.63,0-.15,0-.15.2-.16h.38a.28.28,0,0,1,0,.25c-.11.9-.21,1.79-.33,2.69C11.17,9.43,11.15,9.55,11,9.56Z"/><path class="e99c74db-2ca4-4358-ab20-cb494ad4b0b1" d="M12.47,9.3a2.29,2.29,0,0,1-.77.19,3.92,3.92,0,0,1,.07-.68c.07-.67.16-1.34.25-2a.89.89,0,0,0,0-.43,2,2,0,0,1,.8.15c.1.06.07.15.06.24-.09.7-.17,1.41-.26,2.11C12.59,9,12.62,9.19,12.47,9.3Z"/><path class="b553e64d-0522-4826-b608-03098d79e1aa" d="M12,6.37a.14.14,0,0,1,.09.2c0,.24-.06.49-.09.73s-.07.54-.11.81,0,.3-.05.45-.07.54-.1.81a.61.61,0,0,1-.05.12,2.52,2.52,0,0,1-.72.07.19.19,0,0,0,.14-.19c0-.25.06-.49.09-.74s.07-.51.1-.76,0-.28,0-.42c0-.29.07-.59.12-.88a1.47,1.47,0,0,0,0-.21A1.4,1.4,0,0,1,12,6.37Z"/><path class="e7ee6112-702f-4858-9ee7-3e304a7e7d69" d="M12.47,9.3a2.68,2.68,0,0,0,.11-.63c0-.27.07-.54.11-.8s0-.27,0-.4c0-.29.07-.58.1-.86,0,0,0-.06,0-.09a1,1,0,0,1,.39.17.31.31,0,0,1,0,.21c-.08.68-.17,1.35-.24,2a.23.23,0,0,1-.09.18A1,1,0,0,1,12.47,9.3Z"/><path class="b492a6ea-64d4-47d3-9c62-8e30e8bfd21e" d="M12.89,9.11A1.19,1.19,0,0,0,13,8.65c.05-.42.11-.83.16-1.24l.09-.72a.33.33,0,0,1,.15.11.87.87,0,0,0,.16.17h0a3,3,0,0,1-.07.67c0,.35-.09.7-.12,1a.28.28,0,0,1-.05.16h0l0,0A1,1,0,0,1,12.89,9.11Z"/><path class="f6fe9584-33c4-4d81-887b-1dba642def1b" d="M13.27,8.84a3.51,3.51,0,0,1,.07-.72c0-.25.05-.5.08-.75a1.37,1.37,0,0,1,.09-.4,1.09,1.09,0,0,1,.25.77A1.33,1.33,0,0,1,13.27,8.84Z"/><path class="f6fe9584-33c4-4d81-887b-1dba642def1b" d="M13.51,7a.23.23,0,0,1-.16-.17A.44.44,0,0,1,13.51,7Z"/><path class="f6fe9584-33c4-4d81-887b-1dba642def1b" d="M13.23,8.88l0,0S13.25,8.88,13.23,8.88Z"/><path class="ef7c6911-e5f1-4e21-a02c-d4aae75ee9a2" d="M25.42,16.67c-.37,0-.74,0-1.11,0H22.94c-.06,0-.14,0-.19,0q1.62,0,3.24,0c0,.05-.09,0-.14,0a.3.3,0,0,0-.24.07C25.58,16.62,25.49,16.68,25.42,16.67Z"/><path class="ad50c58a-2551-4e54-8b9a-8cd16058f1e7" d="M36.81,12.92H35.28s0,0,0,0a2.57,2.57,0,0,1,0-1.17c.48,0,1,0,1.45,0a.11.11,0,0,1,.13.1,5.27,5.27,0,0,1,0,1.05S36.82,12.91,36.81,12.92Z"/><path class="f011d3eb-37ba-470c-8b19-3c59a72e5128" d="M36.81,12.92v-1c0-.16,0-.16-.17-.16H35.28a1.4,1.4,0,0,1-.76,0s0,0,0,0h3.09a1.23,1.23,0,0,1,.38,0c.21.05.27.16.18.36l-.15.35a.71.71,0,0,1-.67.47C37.14,12.94,37,12.92,36.81,12.92Z"/><path class="b2fc6f6e-a597-4490-a69a-9e2c4294edd2" d="M34.48,11.72c.06,0,.12,0,.18,0h.62v1.17h-.84v-1c0-.15,0-.15-.15-.15h.19Z"/><path class="ad50c58a-2551-4e54-8b9a-8cd16058f1e7" d="M34.06,11.72v0s-.09,0-.12,0Z"/><polygon class="ef7c6911-e5f1-4e21-a02c-d4aae75ee9a2" points="25.61 16.74 25.6 16.76 25.6 16.75 25.61 16.74"/></g></g></g></svg>