<svg xmlns="http://www.w3.org/2000/svg" xmlns:xlink="http://www.w3.org/1999/xlink" width="85" height="85" viewBox="0 0 85 85">
  <defs>
    <filter id="Rect치ngulo_18112" x="0" y="0" width="85" height="85" filterUnits="userSpaceOnUse">
      <feOffset dy="3" input="SourceAlpha"/>
      <feGaussianBlur stdDeviation="3" result="blur"/>
      <feFlood flood-opacity="0.161"/>
      <feComposite operator="in" in2="blur"/>
      <feComposite in="SourceGraphic"/>
    </filter>
  </defs>
  <g id="Grupo_18846" data-name="Grupo 18846" transform="translate(-1052 -1582)">
    <g transform="matrix(1, 0, 0, 1, 1052, 1582)" filter="url(#Rect치ngulo_18112)">
      <rect id="Rect치ngulo_18112-2" data-name="Rect치ngulo 18112" width="67" height="67" rx="10" transform="translate(9 6)" fill="#fff"/>
    </g>
    <g id="a3" transform="translate(1073 1614)">
      <g id="Grupo_18267" data-name="Grupo 18267" transform="translate(0 0)">
        <g id="Grupo_18264" data-name="Grupo 18264" transform="translate(20.086 9.587)">
          <path id="Trazado_40307" data-name="Trazado 40307" d="M55.709,26.455A1.912,1.912,0,0,1,57.8,24.36a2.516,2.516,0,0,1,.9.152,1.627,1.627,0,0,1,.653.448,2.081,2.081,0,0,1,.387,1.715H56.286v.03a1.223,1.223,0,0,0,.4.987,1.67,1.67,0,0,0,1.115.341,2.061,2.061,0,0,0,.786-.144,1.526,1.526,0,0,0,.588-.417l.356.364a1.773,1.773,0,0,1-.725.531,2.626,2.626,0,0,1-1.006.182,1.912,1.912,0,0,1-2.095-2.095m.577-.22h2.975a1.244,1.244,0,0,0-.3-.956,1.53,1.53,0,0,0-1.154-.4,1.665,1.665,0,0,0-1.108.345,1.223,1.223,0,0,0-.41.991Z" transform="translate(-50.435 -22.858)" fill="#001c2c"/>
          <path id="Trazado_40308" data-name="Trazado 40308" d="M67.161,24.39l.106.539a1.282,1.282,0,0,1,.137-.163,1.141,1.141,0,0,1,.247-.186,1.657,1.657,0,0,1,.38-.155,1.9,1.9,0,0,1,.527-.065,1.3,1.3,0,0,1,.133.008.577.577,0,0,1,.117.023v.546a1.962,1.962,0,0,0-.543,0,1.191,1.191,0,0,0-.489.213,1.145,1.145,0,0,0-.266.262,1.12,1.12,0,0,0-.148.289,1.567,1.567,0,0,0-.068.3,2.3,2.3,0,0,0-.019.288v2.232h-.547V24.39Z" transform="translate(-56.437 -22.858)" fill="#001c2c"/>
          <path id="Trazado_40309" data-name="Trazado 40309" d="M73.163,21.371a.275.275,0,0,1,.311-.311.326.326,0,0,1,.235.08.3.3,0,0,1,.084.231.29.29,0,0,1-.319.319.278.278,0,0,1-.311-.319m.046,1.222h.547v4.128h-.547Z" transform="translate(-59.943 -21.06)" fill="#001c2c"/>
          <path id="Trazado_40310" data-name="Trazado 40310" d="M76.781,26.455a1.912,1.912,0,0,1,2.095-2.095,2.515,2.515,0,0,1,.9.152,1.627,1.627,0,0,1,.653.448,2.081,2.081,0,0,1,.387,1.715H77.357v.03a1.223,1.223,0,0,0,.4.987,1.671,1.671,0,0,0,1.116.341,2.06,2.06,0,0,0,.785-.144,1.523,1.523,0,0,0,.588-.417l.357.364a1.774,1.774,0,0,1-.725.531,2.625,2.625,0,0,1-1.005.182,1.911,1.911,0,0,1-2.095-2.095m.576-.22h2.975a1.242,1.242,0,0,0-.3-.956,1.529,1.529,0,0,0-1.153-.4,1.663,1.663,0,0,0-1.108.345,1.224,1.224,0,0,0-.41.991Z" transform="translate(-61.914 -22.858)" fill="#001c2c"/>
          <path id="Trazado_40311" data-name="Trazado 40311" d="M87.083,27.28H87.6a.86.86,0,0,0,.061.2.762.762,0,0,0,.193.265,1.148,1.148,0,0,0,.4.228,1.967,1.967,0,0,0,.668.1,1.428,1.428,0,0,0,1.04-.311.48.48,0,0,0,.129-.254.733.733,0,0,0,.008-.171,1.253,1.253,0,0,0-.031-.141.4.4,0,0,0-.14-.186,1.32,1.32,0,0,0-.361-.193,3.149,3.149,0,0,0-.691-.156,2.71,2.71,0,0,1-1.248-.421.876.876,0,0,1-.353-.808,1.009,1.009,0,0,1,.471-.793,1.98,1.98,0,0,1,1.131-.293,2.416,2.416,0,0,1,.645.1,1.552,1.552,0,0,1,.5.25,1.162,1.162,0,0,1,.33.391,1.18,1.18,0,0,1,.125.516h-.531a.629.629,0,0,0-.1-.368.789.789,0,0,0-.262-.239,1.211,1.211,0,0,0-.356-.133,1.839,1.839,0,0,0-.38-.042,1.582,1.582,0,0,0-.77.159.537.537,0,0,0-.3.463q-.016.569,1.184.736a2.918,2.918,0,0,1,1.305.417.931.931,0,0,1,.387.827.968.968,0,0,1-.11.406,1.052,1.052,0,0,1-.315.361,1.73,1.73,0,0,1-.531.258,2.542,2.542,0,0,1-.751.1,2.646,2.646,0,0,1-.717-.065,1.831,1.831,0,0,1-.588-.243,1.324,1.324,0,0,1-.4-.4,1.006,1.006,0,0,1-.152-.55" transform="translate(-67.526 -22.848)" fill="#001c2c"/>
          <g id="Grupo_18263" data-name="Grupo 18263" transform="translate(0 0.551)">
            <path id="Trazado_40312" data-name="Trazado 40312" d="M51.265,22.987a.843.843,0,0,1,.193.341,1.159,1.159,0,0,1,.042.258h.615a1.471,1.471,0,0,0-.569-1.131,1.719,1.719,0,0,0-.294-.184l-.427.427A1.114,1.114,0,0,1,51.265,22.987Z" transform="translate(-47.774 -22.271)" fill="#001c2c"/>
            <path id="Trazado_40313" data-name="Trazado 40313" d="M48.324,27.373a2.064,2.064,0,0,0-.664-.383,5.035,5.035,0,0,0-1.139-.258,4.268,4.268,0,0,1-.709-.141c-.055-.016-.106-.034-.154-.051l-.444.444a4.561,4.561,0,0,0,1.209.31,4.528,4.528,0,0,1,.914.2,1.723,1.723,0,0,1,.478.25A.516.516,0,0,1,48,28a1.469,1.469,0,0,1,.038.2,1.008,1.008,0,0,1-.007.213,1.121,1.121,0,0,1-.053.193.594.594,0,0,1-.122.193,1.286,1.286,0,0,1-.531.3,2.818,2.818,0,0,1-.842.106,2.629,2.629,0,0,1-.85-.114,1.585,1.585,0,0,1-.516-.277,1.009,1.009,0,0,1-.27-.338,1.067,1.067,0,0,1-.095-.3h-.63a1.358,1.358,0,0,0,.274.74,1.8,1.8,0,0,0,.577.482,2.668,2.668,0,0,0,.751.262,4.085,4.085,0,0,0,.782.08,3.307,3.307,0,0,0,.967-.125,2.223,2.223,0,0,0,.676-.326,1.352,1.352,0,0,0,.4-.455,1.187,1.187,0,0,0,.14-.52,1.531,1.531,0,0,0-.065-.482A1.039,1.039,0,0,0,48.324,27.373Z" transform="translate(-44.123 -24.597)" fill="#001c2c"/>
          </g>
        </g>
        <g id="Grupo_18266" data-name="Grupo 18266">
          <path id="Trazado_40314" data-name="Trazado 40314" d="M6.214,4.2,5.444.375H2.968L0,15.319H1.943l.64-3.523h3.2l.273,1.552L7.327,12.08l.4-.4ZM5.357,10.11H2.882l.378-2.1L3.45,6.966l.735-4.072.5,2.834.778,4.382Z" transform="translate(0 -0.204)" fill="#001c2c"/>
          <g id="Grupo_18265" data-name="Grupo 18265" transform="translate(7.948)">
            <path id="Trazado_40315" data-name="Trazado 40315" d="M20.982,0h-.149A5.343,5.343,0,0,0,19.59.132a2.52,2.52,0,0,0-2.03,2.03,4.614,4.614,0,0,0-.1,1v1.6h1.9V3.416c0-1.3.6-1.729,1.43-1.729h.192c.833,0,1.431.427,1.431,1.729v1.6c0,1.132-.534,1.537-1.559,1.537H19.359V8.22h1.708a1.191,1.191,0,0,1,1.345,1.323V11.87a2,2,0,0,1-.351,1.29,1.312,1.312,0,0,1-1.08.44h-.149c-.833,0-1.43-.427-1.43-1.729V10.842l-1.8,1.8-.107.107c.008.061.019.12.029.179l.051.254a2.636,2.636,0,0,0,2.658,2.091c.125.009.252.015.385.015H21.2a3.281,3.281,0,0,0,2.271-.722,3.139,3.139,0,0,0,.889-2.438V9.5a1.87,1.87,0,0,0-1.515-2.156c1.3-.192,1.515-1.409,1.515-2.349V3.16C24.355.918,23.1,0,20.982,0" transform="translate(-17.459 0)" fill="#ea3617"/>
            <path id="Trazado_40316" data-name="Trazado 40316" d="M40.639,7.216,38.7,6.148c-.854-.491-1.174-.811-1.174-1.708V3.416c0-1.086.477-1.571,1.331-1.652.086-.008.176-.014.27-.014,1.025,0,1.6.469,1.6,1.665V5.444h1.964V3.074C42.689.918,41.194,0,39.145,0H39.1a4.939,4.939,0,0,0-1.733.28,2.727,2.727,0,0,0-1.811,2.794V4.953c0,1.43.726,2.071,2.093,2.861l1.921,1.067a2.3,2.3,0,0,1,1.024.9L42.081,8.3a5.492,5.492,0,0,0-1.441-1.08" transform="translate(-27.319 0)" fill="#001c2c"/>
            <path id="Trazado_40317" data-name="Trazado 40317" d="M37.522,23.35v-2.2H35.558v2.541a3.216,3.216,0,0,0,.592,2.058l1.523-1.523a2.282,2.282,0,0,1-.151-.877" transform="translate(-27.319 -11.522)" fill="#001c2c"/>
          </g>
        </g>
      </g>
    </g>
  </g>
</svg>
