<svg xmlns="http://www.w3.org/2000/svg" xmlns:xlink="http://www.w3.org/1999/xlink" width="85" height="85" viewBox="0 0 85 85">
  <defs>
    <filter id="Rectángulo_18090" x="0" y="0" width="85" height="85" filterUnits="userSpaceOnUse">
      <feOffset dy="3" input="SourceAlpha"/>
      <feGaussianBlur stdDeviation="3" result="blur"/>
      <feFlood flood-opacity="0.161"/>
      <feComposite operator="in" in2="blur"/>
      <feComposite in="SourceGraphic"/>
    </filter>
    <clipPath id="clip-path">
      <rect id="Rectángulo_27229" data-name="Rectángulo 27229" width="56" height="10.343" fill="none"/>
    </clipPath>
  </defs>
  <g id="Grupo_40781" data-name="Grupo 40781" transform="translate(9119 -2763)">
    <g transform="matrix(1, 0, 0, 1, -9119, 2763)" filter="url(#Rectángulo_18090)">
      <rect id="Rectángulo_18090-2" data-name="Rectángulo 18090" width="67" height="67" rx="10" transform="translate(9 6)" fill="#fff"/>
    </g>
    <g id="Grupo_40780" data-name="Grupo 40780" transform="translate(-9104 2797)">
      <g id="Grupo_40779" data-name="Grupo 40779" transform="translate(0 0)" clip-path="url(#clip-path)">
        <path id="Trazado_83740" data-name="Trazado 83740" d="M0,.055A.775.775,0,0,1,.087.047q1.351,0,2.7,0c.029,0,.057,0,.1.007V1.318H1.722V9.035H2.884v1.281H0Z" transform="translate(0 0.028)" fill="#040506"/>
        <path id="Trazado_83741" data-name="Trazado 83741" d="M32.337,7.511H30.484V7.374q0-2,0-4a1.8,1.8,0,0,0-.024-.325.5.5,0,0,0-.362-.437.574.574,0,0,0-.612.191.987.987,0,0,0-.2.666c0,.513,0,1.027,0,1.541v2.5H27.437V1.343h1.771v.731a.364.364,0,0,0,.055-.06,1.559,1.559,0,0,1,1.489-.836,2.692,2.692,0,0,1,.615.077,1.172,1.172,0,0,1,.819.71c.018.044.036.087.06.15.031-.046.054-.08.078-.114a1.623,1.623,0,0,1,.839-.733,2.054,2.054,0,0,1,1.443.06,1.218,1.218,0,0,1,.725.963,3.39,3.39,0,0,1,.059.63c0,1.492,0,2.982,0,4.474,0,.1-.031.126-.129.126-.532,0-1.064,0-1.6,0h-.127V7.375q0-2.008,0-4.014a1.654,1.654,0,0,0-.036-.348.483.483,0,0,0-.372-.411.579.579,0,0,0-.592.194.884.884,0,0,0-.2.588c0,.419,0,.839,0,1.258V7.511" transform="translate(17.346 0.736)" fill="#040506"/>
        <path id="Trazado_83742" data-name="Trazado 83742" d="M23.785,7.454H23.67c-.632,0-1.262,0-1.893,0-.09,0-.122-.024-.14-.116q-.624-3-1.255-6a.318.318,0,0,1-.007-.064h1.841q.3,2.267.6,4.533h.028c.031-.2.064-.395.093-.594q.25-1.626.5-3.25c.031-.206.065-.411.091-.617.008-.067.036-.082.1-.082q.908,0,1.815,0c.077,0,.095.026.106.1q.311,2.2.63,4.4c0,.015,0,.029.034.046q.326-2.265.653-4.536h1.777q-.1.463-.2.921-.553,2.561-1.107,5.125c-.021.1-.054.134-.16.132-.609-.007-1.219,0-1.828,0H25.21q-.338-2.284-.674-4.559h-.028c-.24,1.516-.482,3.033-.723,4.559" transform="translate(12.882 0.802)" fill="#040506"/>
        <path id="Trazado_83743" data-name="Trazado 83743" d="M10.284,8.211H8.5V7.48l-.02,0c-.011.024-.024.049-.034.073a1.28,1.28,0,0,1-1.216.828A1.638,1.638,0,0,1,5.462,7.057a5.816,5.816,0,0,1-.22-1.642,9.263,9.263,0,0,1,.132-1.993A2.325,2.325,0,0,1,5.8,2.405a1.476,1.476,0,0,1,1.272-.529,1.381,1.381,0,0,1,1.319.792.142.142,0,0,0,.021.024l.021,0V.058h1.849ZM7.062,4.964c.024.45.036.792.064,1.133a1.424,1.424,0,0,0,.193.664.545.545,0,0,0,.537.268.457.457,0,0,0,.426-.323,2.336,2.336,0,0,0,.149-.633c.026-.563.029-1.128.024-1.693a2.078,2.078,0,0,0-.15-.8.528.528,0,0,0-.509-.362.558.558,0,0,0-.555.364.826.826,0,0,0-.072.229c-.042.419-.078.839-.106,1.154" transform="translate(3.313 0.036)" fill="#040506"/>
        <path id="Trazado_83744" data-name="Trazado 83744" d="M8.84,1.272h1.849v.139q0,2,0,4a1.96,1.96,0,0,0,.02.294.527.527,0,0,0,.4.475.6.6,0,0,0,.615-.245.923.923,0,0,0,.162-.535c0-.442,0-.883,0-1.324v-2.8h1.848v6.17c-.036,0-.072.007-.106.007-.517,0-1.036,0-1.554,0-.1,0-.126-.028-.121-.122.008-.165,0-.328,0-.493,0-.034,0-.069-.007-.131-.029.044-.042.062-.054.083a1.558,1.558,0,0,1-1.36.818,1.977,1.977,0,0,1-.868-.129,1.251,1.251,0,0,1-.777-1,3.382,3.382,0,0,1-.055-.628c0-1.484,0-2.969,0-4.453Z" transform="translate(5.589 0.804)" fill="#040506"/>
        <path id="Trazado_83745" data-name="Trazado 83745" d="M6.88,7.514c-.026,0-.064.007-.1.007-.514,0-1.028,0-1.542,0-.085,0-.126-.028-.137-.111-.028-.2-.055-.392-.085-.6-.013.02-.024.031-.034.046a1.6,1.6,0,0,1-1.639.814,1.985,1.985,0,0,1-.459-.09,1.321,1.321,0,0,1-.9-1.061A2.662,2.662,0,0,1,2.08,4.9,1.451,1.451,0,0,1,3.1,4.034c.444-.126.893-.237,1.342-.354l.039-.011a.673.673,0,0,0,.436-1.01.441.441,0,0,0-.088-.124.662.662,0,0,0-1.02.206,3.161,3.161,0,0,0-.108.478H2.08a2.67,2.67,0,0,1,.186-1.012,1.487,1.487,0,0,1,1.027-.88A4.3,4.3,0,0,1,5.624,1.32a1.386,1.386,0,0,1,1.05,1.272,4.7,4.7,0,0,1,.023.48c0,1.082,0,2.166,0,3.248a7.353,7.353,0,0,0,.06.8,2.359,2.359,0,0,0,.119.39M4.968,4.488c-.3.124-.6.245-.891.377a.578.578,0,0,0-.322.344,1.224,1.224,0,0,0,.033.906.457.457,0,0,0,.473.286.679.679,0,0,0,.686-.573A.575.575,0,0,0,4.968,5.7V4.488" transform="translate(1.202 0.734)" fill="#040506"/>
        <path id="Trazado_83746" data-name="Trazado 83746" d="M17.347,5.566h1.624c.02.144.029.287.055.429a.68.68,0,0,0,1.082.423.658.658,0,0,0,.062-.961,1.284,1.284,0,0,0-.495-.291c-.4-.15-.8-.3-1.2-.459a2.348,2.348,0,0,1-.428-.24,1.414,1.414,0,0,1-.637-1.048,2.4,2.4,0,0,1,.054-.976,1.531,1.531,0,0,1,.989-1.05,3.645,3.645,0,0,1,2.486-.028A1.485,1.485,0,0,1,21.981,2.83c0,.09,0,.181,0,.277H20.352c-.016-.139-.024-.273-.049-.4a.433.433,0,0,0-.4-.372,1.562,1.562,0,0,0-.38.007.439.439,0,0,0-.4.348.517.517,0,0,0,.184.606,2.582,2.582,0,0,0,.527.256c.375.139.766.238,1.133.4a1.716,1.716,0,0,1,1.1,1.81A1.842,1.842,0,0,1,21.367,7.2a2.18,2.18,0,0,1-1.019.421,4.1,4.1,0,0,1-1.9-.118,1.5,1.5,0,0,1-1.1-1.436c-.01-.166,0-.333,0-.506" transform="translate(10.965 0.734)" fill="#040506"/>
        <path id="Trazado_83747" data-name="Trazado 83747" d="M33.745,9.038V1.326H32.578V.05H35.4V10.3H32.578V9.038Z" transform="translate(20.596 0.031)" fill="#040506"/>
        <path id="Trazado_83748" data-name="Trazado 83748" d="M14.621,3.243h-.759V1.975h.754V.16h1.851V1.97h.857V3.24h-.849c0,.051-.007.09-.007.129V6.333a1.368,1.368,0,0,0,.01.163.423.423,0,0,0,.464.442c.122.007.246,0,.38,0,0,.021.007.049.007.075,0,.348,0,.694,0,1.04,0,.078-.021.1-.1.113a7.12,7.12,0,0,1-1.582.023.986.986,0,0,1-1-1.054c-.018-.22-.026-.444-.026-.666,0-1.027,0-2.055,0-3.083Z" transform="translate(8.764 0.101)" fill="#040506"/>
        <rect id="Rectángulo_27226" data-name="Rectángulo 27226" width="1.831" height="8.158" transform="translate(20.222 0.093)" fill="#040506"/>
        <rect id="Rectángulo_27227" data-name="Rectángulo 27227" width="1.838" height="6.173" transform="translate(42.082 2.075)" fill="#040506"/>
        <rect id="Rectángulo_27228" data-name="Rectángulo 27228" width="1.841" height="1.405" transform="translate(42.079)" fill="#040506"/>
      </g>
    </g>
  </g>
</svg>
