<svg xmlns="http://www.w3.org/2000/svg" xmlns:xlink="http://www.w3.org/1999/xlink" width="85" height="85" viewBox="0 0 85 85">
  <defs>
    <filter id="Rect치ngulo_18090" x="0" y="0" width="85" height="85" filterUnits="userSpaceOnUse">
      <feOffset dy="3" input="SourceAlpha"/>
      <feGaussianBlur stdDeviation="3" result="blur"/>
      <feFlood flood-opacity="0.161"/>
      <feComposite operator="in" in2="blur"/>
      <feComposite in="SourceGraphic"/>
    </filter>
  </defs>
  <g id="Grupo_18830" data-name="Grupo 18830" transform="translate(-787 -1494)">
    <g transform="matrix(1, 0, 0, 1, 787, 1494)" filter="url(#Rect치ngulo_18090)">
      <rect id="Rect치ngulo_18090-2" data-name="Rect치ngulo 18090" width="67" height="67" rx="10" transform="translate(9 6)" fill="#fff"/>
    </g>
    <g id="Grupo_18236" data-name="Grupo 18236" transform="translate(813 1525)">
      <path id="Trazado_541" data-name="Trazado 541" d="M280.31,145.165a2.657,2.657,0,0,0,2.543,2.556,2.966,2.966,0,0,0,2.239-.906l-3.254-4.092a2.823,2.823,0,0,0-1.528,2.442" transform="translate(-265.271 -133.288)" fill="#1a1818"/>
      <path id="Trazado_542" data-name="Trazado 542" d="M282.411,142.546a1.722,1.722,0,0,0,.894-1.317,1.236,1.236,0,0,0-1.269-1.315,1.212,1.212,0,0,0-1.272,1.31,3.214,3.214,0,0,0,1.005,1.764c.213-.132.642-.442.642-.442" transform="translate(-264.572 -137.609)" fill="#1a1818"/>
      <path id="Trazado_543" data-name="Trazado 543" d="M287.412,145.609v-.147h.1c.081,0,.1.025.1.071s-.028.076-.114.076Zm.274-.074c0-.091-.056-.135-.167-.135h-.178v.472h.071v-.2h.081l.124.2h.081l-.135-.206a.124.124,0,0,0,.122-.132" transform="translate(-254.455 -129.169)" fill="#1a1818"/>
      <path id="Trazado_544" data-name="Trazado 544" d="M287.654,146.084a.342.342,0,1,1,.332-.343.33.33,0,0,1-.332.343m0-.751a.409.409,0,1,0,.411.409.408.408,0,0,0-.411-.409" transform="translate(-254.61 -129.273)" fill="#1a1818"/>
      <path id="Trazado_545" data-name="Trazado 545" d="M283.882,145l2.566,3.122h5.523l0-4.064-7.239,0c-.571.657-.647.708-.853.944" transform="translate(-259.776 -131.244)" fill="#1a1818"/>
      <path id="Trazado_546" data-name="Trazado 546" d="M286.355,145.565v-2.739h8.77v-3.82H282.692a3.863,3.863,0,0,1,2.056,3.566,3.624,3.624,0,0,1-1.716,3.005s-.774.6-1.2.9l3.251,3.909,1.284-1.366H294.6v-3.452Z" transform="translate(-262.926 -139.006)" fill="#1a1818"/>
      <path id="Trazado_547" data-name="Trazado 547" d="M282.155,148.834l1.795-5.394,1.749,5.394Zm7.412-9.828h-8.5l-6.678,16.874h5.65l1.089-3.13h5.287a6.27,6.27,0,0,1-.287-1.942c0-2.2,1.551-3.632,3.01-4.627a5.677,5.677,0,0,1-1.67-3.658,3.749,3.749,0,0,1,2.1-3.518" transform="translate(-274.385 -139.006)" fill="#1a1818"/>
    </g>
  </g>
</svg>
