<svg xmlns="http://www.w3.org/2000/svg" xmlns:xlink="http://www.w3.org/1999/xlink" width="85" height="85" viewBox="0 0 85 85">
  <defs>
    <filter id="Rectángulo_18090" x="0" y="0" width="85" height="85" filterUnits="userSpaceOnUse">
      <feOffset dy="3" input="SourceAlpha"/>
      <feGaussianBlur stdDeviation="3" result="blur"/>
      <feFlood flood-opacity="0.161"/>
      <feComposite operator="in" in2="blur"/>
      <feComposite in="SourceGraphic"/>
    </filter>
    <clipPath id="clip-path">
      <path id="Trazado_60690" data-name="Trazado 60690" d="M5.281,7.763a2.244,2.244,0,0,1-.756-.511A2.445,2.445,0,0,1,3.84,5.536a2.235,2.235,0,0,1,.184-.909,2.517,2.517,0,0,1,.5-.746,2.249,2.249,0,0,1,.756-.511,2.435,2.435,0,0,1,.95-.184,2.384,2.384,0,0,1,.929.184,2.255,2.255,0,0,1,.756.511,2.608,2.608,0,0,1,.511.766,2.275,2.275,0,0,1,.194.929,2.2,2.2,0,0,1-.194.919,2.647,2.647,0,0,1-.511.756,2.25,2.25,0,0,1-.756.511,2.384,2.384,0,0,1-.929.184,2.435,2.435,0,0,1-.95-.184M3.125.439a5.1,5.1,0,0,0-1.655,1.2A5.48,5.48,0,0,0,.388,3.4,5.9,5.9,0,0,0,0,5.536,6.074,6.074,0,0,0,.4,7.763,5.415,5.415,0,0,0,1.512,9.54a5.069,5.069,0,0,0,1.675,1.175,5.207,5.207,0,0,0,2.1.419A3.879,3.879,0,0,0,8.5,9.642v1.164h3.718V.327H8.5V1.369A4.269,4.269,0,0,0,5.25,0,5.049,5.049,0,0,0,3.125.439" transform="translate(0 0)" fill="#0e2974"/>
    </clipPath>
    <clipPath id="clip-path-2">
      <path id="Trazado_60691" data-name="Trazado 60691" d="M14.7,133.8a3.944,3.944,0,0,0-3.554-1.961,4.781,4.781,0,0,0-3.391,1.451V132h-3.7v10.479h3.7v-5.168a5.66,5.66,0,0,1,.133-1.358,2.169,2.169,0,0,1,.368-.817,1.162,1.162,0,0,1,.541-.4,2.056,2.056,0,0,1,.654-.1,2.079,2.079,0,0,1,.715.112.991.991,0,0,1,.5.419,2.436,2.436,0,0,1,.3.827,7.05,7.05,0,0,1,.1,1.318v5.168h3.7v-5.168q0-2.594,1.777-2.594a1.814,1.814,0,0,1,.613.1,1.084,1.084,0,0,1,.5.388,2.07,2.07,0,0,1,.327.8,6.274,6.274,0,0,1,.112,1.307v5.168h3.7v-6.8a5.078,5.078,0,0,0-.276-1.777,3.229,3.229,0,0,0-.746-1.2,2.86,2.86,0,0,0-1.124-.674,4.433,4.433,0,0,0-1.389-.214A3.964,3.964,0,0,0,14.7,133.8" transform="translate(-4.058 -131.818)" fill="#0e2974"/>
    </clipPath>
    <clipPath id="clip-path-3">
      <path id="Trazado_60692" data-name="Trazado 60692" d="M190.324,84.147a2.24,2.24,0,0,1-.756-.511,2.444,2.444,0,0,1-.684-1.716,2.236,2.236,0,0,1,.184-.909,2.516,2.516,0,0,1,.5-.746,2.246,2.246,0,0,1,.756-.511,2.433,2.433,0,0,1,.95-.184,2.384,2.384,0,0,1,.929.184,2.254,2.254,0,0,1,.756.511,2.609,2.609,0,0,1,.511.766,2.277,2.277,0,0,1,.194.929,2.206,2.206,0,0,1-.194.919,2.644,2.644,0,0,1-.511.756,2.248,2.248,0,0,1-.756.511,2.385,2.385,0,0,1-.929.184,2.435,2.435,0,0,1-.95-.184m-2.155-7.323a5.1,5.1,0,0,0-1.655,1.195,5.485,5.485,0,0,0-1.083,1.767,5.9,5.9,0,0,0-.388,2.135,6.074,6.074,0,0,0,.4,2.227,5.415,5.415,0,0,0,1.113,1.777A5.067,5.067,0,0,0,188.23,87.1a5.207,5.207,0,0,0,2.1.419,3.88,3.88,0,0,0,3.207-1.491v1.164h3.718V76.711h-3.718v1.042a4.269,4.269,0,0,0-3.248-1.369,5.046,5.046,0,0,0-2.124.439m1.471-2.911,1.716,1.267,3.554-3.146-2.349-1.7Z" transform="translate(-185.043 -70.338)" fill="#0e2974"/>
    </clipPath>
    <clipPath id="clip-path-4">
      <path id="Trazado_60693" data-name="Trazado 60693" d="M315.478,130.054a4.411,4.411,0,0,0-1.481.756,3.276,3.276,0,0,0-.94,1.2,3.717,3.717,0,0,0-.327,1.583,2.552,2.552,0,0,0,.684,1.89,4.734,4.734,0,0,0,2.4,1.032q.51.1.827.194a1.72,1.72,0,0,1,.48.2.552.552,0,0,1,.214.245.956.956,0,0,1,.051.337.672.672,0,0,1-.327.572,1.446,1.446,0,0,1-.838.225,5.266,5.266,0,0,1-2.942-1.062l-1.348,2.615a8.216,8.216,0,0,0,4.188,1.205,7.014,7.014,0,0,0,2.022-.276,4.853,4.853,0,0,0,1.573-.776,3.519,3.519,0,0,0,1.021-1.236,3.647,3.647,0,0,0,.368-1.655,2.786,2.786,0,0,0-.756-2.012A4.246,4.246,0,0,0,318.062,134q-.552-.123-.889-.2a1.923,1.923,0,0,1-.511-.184.523.523,0,0,1-.225-.214.719.719,0,0,1-.051-.3.627.627,0,0,1,.317-.551,1.5,1.5,0,0,1,.827-.2,4.322,4.322,0,0,1,2,.531l1.246-2.411a8.762,8.762,0,0,0-3.371-.674,6.587,6.587,0,0,0-1.93.266" transform="translate(-311.934 -129.788)" fill="#0e2974"/>
    </clipPath>
    <clipPath id="clip-path-5">
      <rect id="Rectángulo_22409" data-name="Rectángulo 22409" width="6.488" height="1.699" fill="#0e2974"/>
    </clipPath>
    <clipPath id="clip-path-6">
      <rect id="Rectángulo_22411" data-name="Rectángulo 22411" width="1.699" height="6.488" fill="#0e2974"/>
    </clipPath>
  </defs>
  <g id="amas" transform="translate(-169 -97)">
    <g id="Grupo_31989" data-name="Grupo 31989" transform="translate(-300 84)">
      <g transform="matrix(1, 0, 0, 1, 469, 13)" filter="url(#Rectángulo_18090)">
        <rect id="Rectángulo_18090-2" data-name="Rectángulo 18090" width="67" height="67" rx="10" transform="translate(9 6)" fill="#fff"/>
      </g>
    </g>
    <g id="Grupo_31995" data-name="Grupo 31995" transform="translate(-11385.903 -3890.522)">
      <g id="Grupo_28599" data-name="Grupo 28599" transform="translate(11573.903 4011.522)">
        <g id="Grupo_28598" data-name="Grupo 28598" clip-path="url(#clip-path)">
          <rect id="Rectángulo_22404" data-name="Rectángulo 22404" width="12.216" height="11.133" transform="translate(0)" fill="#0e2974"/>
        </g>
      </g>
      <g id="Grupo_28601" data-name="Grupo 28601" transform="translate(11574.313 4024.793)">
        <g id="Grupo_28600" data-name="Grupo 28600" clip-path="url(#clip-path-2)">
          <rect id="Rectángulo_22405" data-name="Rectángulo 22405" width="17.731" height="10.663" transform="translate(0)" fill="#0e2974"/>
        </g>
      </g>
      <g id="Grupo_28603" data-name="Grupo 28603" transform="translate(11592.534 4018.603)">
        <g id="Grupo_28602" data-name="Grupo 28602" clip-path="url(#clip-path-3)">
          <rect id="Rectángulo_22406" data-name="Rectángulo 22406" width="12.216" height="17.18" transform="translate(0 0)" fill="#0e2974"/>
        </g>
      </g>
      <g id="Grupo_28605" data-name="Grupo 28605" transform="translate(11605.309 4024.589)">
        <g id="Grupo_28604" data-name="Grupo 28604" clip-path="url(#clip-path-4)">
          <rect id="Rectángulo_22407" data-name="Rectángulo 22407" width="9.172" height="11.256" fill="#0e2974"/>
        </g>
      </g>
      <g id="Grupo_28607" data-name="Grupo 28607" transform="translate(11614.352 4038.089)">
        <g id="Grupo_28606" data-name="Grupo 28606" clip-path="url(#clip-path-5)">
          <rect id="Rectángulo_22408" data-name="Rectángulo 22408" width="6.488" height="1.699" fill="#0e2974"/>
        </g>
      </g>
      <g id="Grupo_28609" data-name="Grupo 28609" transform="translate(11616.748 4035.694)">
        <g id="Grupo_28608" data-name="Grupo 28608" clip-path="url(#clip-path-6)">
          <rect id="Rectángulo_22410" data-name="Rectángulo 22410" width="1.699" height="6.488" transform="translate(0)" fill="#0e2974"/>
        </g>
      </g>
    </g>
  </g>
</svg>
