<svg xmlns="http://www.w3.org/2000/svg" xmlns:xlink="http://www.w3.org/1999/xlink" width="85" height="85" viewBox="0 0 85 85">
  <defs>
    <filter id="Rect치ngulo_18104" x="0" y="0" width="85" height="85" filterUnits="userSpaceOnUse">
      <feOffset dy="3" input="SourceAlpha"/>
      <feGaussianBlur stdDeviation="3" result="blur"/>
      <feFlood flood-opacity="0.161"/>
      <feComposite operator="in" in2="blur"/>
      <feComposite in="SourceGraphic"/>
    </filter>
  </defs>
  <g id="Grupo_18837" data-name="Grupo 18837" transform="translate(-345.113 -1582)">
    <g transform="matrix(1, 0, 0, 1, 345.11, 1582)" filter="url(#Rect치ngulo_18104)">
      <rect id="Rect치ngulo_18104-2" data-name="Rect치ngulo 18104" width="67" height="67" rx="10" transform="translate(9 6)" fill="#fff"/>
    </g>
    <g id="Grupo_18248" data-name="Grupo 18248" transform="translate(363.57 1606.407)">
      <g id="_316_Animal_Planet_Color" data-name="316 Animal Planet Color" transform="translate(0 0)">
        <g id="Grupo_18247" data-name="Grupo 18247" transform="translate(0 0)">
          <path id="Trazado_40237" data-name="Trazado 40237" d="M367.167.565l-.705,1.225c3.718.725,5.877,2.309,5.877,4.161a2.407,2.407,0,0,1-2.514,2.42c-2.425,0-4.209-3.814-4.209-3.814-.507-.016-1.416-.037-1.416-.037A14.625,14.625,0,0,0,357.642,0V5.419a9.277,9.277,0,0,1,1.22,1.231,12.988,12.988,0,0,0-17.25,3.49l.254.46a9.276,9.276,0,0,1,2.863-2.021c-2.376,2.077-3.739,5.522-4.408,7.764l2.078,2.079a15.278,15.278,0,0,1,22.243-.614l2.251-2.253a30.153,30.153,0,0,0-4.241-5.578,12.092,12.092,0,0,0,5.673,1.212c3.3,0,6.242-1.832,6.242-4.57C374.567,3.349,371.763,1.276,367.167.565Z" transform="translate(-330.434)" fill="#007dc7"/>
          <path id="Trazado_40238" data-name="Trazado 40238" d="M17.07,723.826V726H15.944v-1.682c0-.517-.081-.95-.583-.95-.631,0-.742.619-.742,1.107V726H13.493v-1.616c0-.391.02-1.016-.594-1.016-.524,0-.735.468-.735,1.107V726H11.036v-3.392h1.127v.449h.026a1.443,1.443,0,0,1,1.157-.565c.9,0,1.1.565,1.1.565a1.574,1.574,0,0,1,1.286-.565A1.187,1.187,0,0,1,17.07,723.826Zm-13.1-1.214V726H2.847v-.39H2.82a1.368,1.368,0,0,1-1.107.507A1.748,1.748,0,0,1,0,724.3a1.72,1.72,0,0,1,1.7-1.809,1.337,1.337,0,0,1,1.148.561v-.445ZM2.9,724.306a.876.876,0,1,0-.875.876A.879.879,0,0,0,2.9,724.306Zm18.6-1.695V726H20.374v-.39h-.027a1.368,1.368,0,0,1-1.107.507,1.748,1.748,0,0,1-1.714-1.816,1.72,1.72,0,0,1,1.7-1.809,1.338,1.338,0,0,1,1.148.561v-.445Zm-1.07,1.695a.876.876,0,1,0-.875.876A.879.879,0,0,0,20.431,724.306ZM7.1,722.495a1.33,1.33,0,0,0-1.17.562H5.907v-.445H4.781V726H5.907v-1.528c0-.722.269-1.107.737-1.107s.594.364.594.907V726H8.364v-2.11C8.364,722.964,7.94,722.495,7.1,722.495Zm2.563-1.776a.639.639,0,1,0,.639.639A.64.64,0,0,0,9.666,720.719ZM9.1,722.611V726H10.23v-3.392Zm13.2-1.349V726h1.127v-4.74Zm4.516,1.349v.445a1.337,1.337,0,0,1,1.147-.561,1.72,1.72,0,0,1,1.7,1.809,1.749,1.749,0,0,1-1.714,1.816,1.367,1.367,0,0,1-1.106-.507h-.027v1.764H25.7v-4.765Zm.818,2.571a.877.877,0,1,0-.875-.877A.877.877,0,0,0,27.642,725.182Zm2.522-3.92V726h1.127v-4.74Zm5.595,1.348V726H34.632v-.391H34.6a1.367,1.367,0,0,1-1.106.507,1.749,1.749,0,0,1-1.714-1.816,1.72,1.72,0,0,1,1.7-1.809,1.337,1.337,0,0,1,1.148.561v-.445Zm-1.07,1.695a.876.876,0,1,0-.875.877A.878.878,0,0,0,34.689,724.306Zm4.2-1.811a1.33,1.33,0,0,0-1.17.562h-.026v-.445H36.565V726h1.126v-1.528c0-.722.269-1.107.737-1.107s.594.364.594.907V726h1.126v-2.11C40.148,722.964,39.723,722.495,38.887,722.495Zm4.752,2.13H41.756a.889.889,0,0,0,.92.643,2.5,2.5,0,0,0,.963-.208l.216.8a3.289,3.289,0,0,1-1.223.262,1.807,1.807,0,0,1-2.028-1.8,1.725,1.725,0,0,1,1.8-1.825,1.758,1.758,0,0,1,1.828,2.129h-.6Zm-1.9-.692h1.5a.758.758,0,0,0-.745-.63A.747.747,0,0,0,41.741,723.932Zm4.37-.443v1.29c0,.3.086.435.284.472a1.3,1.3,0,0,0,.53-.032l.081.818a3.05,3.05,0,0,1-.734.082c-.9,0-1.289-.446-1.289-1.337v-1.293h-.491v-.878h.491v-.8h1.127v.8h.806v.878Z" transform="translate(0 -699.779)" fill="#1a1818"/>
        </g>
      </g>
    </g>
  </g>
</svg>
