<svg xmlns="http://www.w3.org/2000/svg" xmlns:xlink="http://www.w3.org/1999/xlink" width="85" height="85" viewBox="0 0 85 85">
  <defs>
    <filter id="Rect치ngulo_18127" x="0" y="0" width="85" height="85" filterUnits="userSpaceOnUse">
      <feOffset dy="3" input="SourceAlpha"/>
      <feGaussianBlur stdDeviation="3" result="blur"/>
      <feFlood flood-opacity="0.161"/>
      <feComposite operator="in" in2="blur"/>
      <feComposite in="SourceGraphic"/>
    </filter>
  </defs>
  <g id="Grupo_18855" data-name="Grupo 18855" transform="translate(-523 -1662)">
    <g transform="matrix(1, 0, 0, 1, 523, 1662)" filter="url(#Rect치ngulo_18127)">
      <rect id="Rect치ngulo_18127-2" data-name="Rect치ngulo 18127" width="67" height="67" rx="10" transform="translate(9 6)" fill="#fff"/>
    </g>
    <g id="_218_Antena_3_Color" data-name="218 Antena 3 Color" transform="translate(551 1685)">
      <g id="Grupo_18283" data-name="Grupo 18283" transform="translate(0 0)">
        <path id="Trazado_40351" data-name="Trazado 40351" d="M6.271,13.683C8.38,10.182,10.36,6.6,12.7,3.244a17.452,17.452,0,0,0,1.324-2.062c.218-.43.163-.764-.136-.985a1.376,1.376,0,0,0-.943-.186C6.5.53.088,4.84.028,11.041c.017,2.264,1.283,5.006,2.314,5.729.774.542,1.463.471,2.235-.469A21.291,21.291,0,0,0,6.271,13.683Z" transform="translate(0.002 0)" fill="#f1612a"/>
        <path id="Trazado_40352" data-name="Trazado 40352" d="M23.726,16.3c.771.94,1.46,1.011,2.235.469,1.031-.723,2.3-3.464,2.313-5.729C28.215,4.84,21.8.53,15.36.012A1.375,1.375,0,0,0,14.417.2c-.3.221-.353.555-.137.985a17.6,17.6,0,0,0,1.325,2.062c2.338,3.359,4.317,6.939,6.425,10.439A21.3,21.3,0,0,0,23.726,16.3Z" transform="translate(0.864 0)" fill="#f1612a"/>
        <path id="Trazado_40353" data-name="Trazado 40353" d="M15.481,10.384a9.047,9.047,0,0,0-1.21-.1h0a8.859,8.859,0,0,0-1.21.1,9.552,9.552,0,0,0-7.522,5.694c-.777,1.62-.432,2.736.972,3.841q.123.1.248.191c.258.173.513.341.761.5,3.67,2.4,5.012,3.247,5.554,3.5a2.82,2.82,0,0,0,1.167.309H14.3a2.826,2.826,0,0,0,1.168-.309c.541-.248,1.883-1.1,5.554-3.5q.374-.244.763-.5c.083-.063.164-.125.246-.19,1.4-1.106,1.749-2.22.972-3.84A9.551,9.551,0,0,0,15.481,10.384Z" transform="translate(0.314 0.629)" fill="#f1612a"/>
        <g id="Grupo_18282" data-name="Grupo 18282" transform="translate(0 27.788)">
          <g id="Grupo_18281" data-name="Grupo 18281" transform="translate(0 0)">
            <path id="Trazado_40354" data-name="Trazado 40354" d="M5.079,30.269l-.047.09a1.351,1.351,0,0,1-.675.161,1.118,1.118,0,0,1-.676-.193,1.763,1.763,0,0,1-.423-.515H1.622l-.245.63H0L1.835,26.26H3.04L4.325,29c.152.328.258.393.364.393a.255.255,0,0,0,.145-.046l.08.046ZM1.953,28.975h.941l-.457-1.241Z" transform="translate(0 -26.184)" fill="#f1612a"/>
            <path id="Trazado_40355" data-name="Trazado 40355" d="M8.657,28.513v1.879H7.36V28.6a.431.431,0,1,0-.862,0v1.789H5.2V28.4c0-.135-.053-.206-.145-.206a.131.131,0,0,0-.093.033l-.08-.046-.139-.836.047-.09a1.313,1.313,0,0,1,.636-.161.876.876,0,0,1,.742.342,1.774,1.774,0,0,1,1.06-.342A1.344,1.344,0,0,1,8.657,28.513Z" transform="translate(0.29 -26.132)" fill="#f1612a"/>
            <path id="Trazado_40356" data-name="Trazado 40356" d="M11.689,30.158l-.033.09a1.615,1.615,0,0,1-.927.277,1.276,1.276,0,0,1-1.371-1.332V28.131H8.775v-.9h.583v-.9l1.186-.141.1.057v.985h.941v.9h-.941v.907c0,.3.153.424.331.424a.533.533,0,0,0,.292-.1l.08.046Z" transform="translate(0.536 -26.188)" fill="#f1612a"/>
            <path id="Trazado_40357" data-name="Trazado 40357" d="M12.954,29.079c.053.353.39.5.768.5a1.142,1.142,0,0,0,.795-.29h.092l.543.521v.09a2.045,2.045,0,0,1-1.51.567,1.729,1.729,0,0,1-1.934-1.68A1.675,1.675,0,0,1,13.536,27.1a1.653,1.653,0,0,1,1.8,1.692,1.409,1.409,0,0,1-.027.29Zm-.006-.579H14.1a.576.576,0,0,0-1.152,0Z" transform="translate(0.715 -26.132)" fill="#f1612a"/>
            <path id="Trazado_40358" data-name="Trazado 40358" d="M19.248,28.513v1.879h-1.3V28.6a.43.43,0,1,0-.861,0v1.789h-1.3V28.4c0-.135-.053-.206-.145-.206a.128.128,0,0,0-.092.033l-.08-.046-.139-.836.046-.09a1.317,1.317,0,0,1,.637-.161.876.876,0,0,1,.742.342,1.771,1.771,0,0,1,1.059-.342A1.343,1.343,0,0,1,19.248,28.513Z" transform="translate(0.937 -26.132)" fill="#f1612a"/>
            <path id="Trazado_40359" data-name="Trazado 40359" d="M23.265,30.218l-.047.09a1.241,1.241,0,0,1-.615.161.911.911,0,0,1-.749-.334,1.788,1.788,0,0,1-1.066.334c-.754,0-1.377-.405-1.377-1.056,0-.682.689-1.01,1.5-1.01a2.319,2.319,0,0,1,.636.084v-.1c0-.244-.212-.431-.57-.431a1.051,1.051,0,0,0-.689.257H20.2l-.537-.515v-.09a2.189,2.189,0,0,1,1.471-.508c.815,0,1.675.354,1.675,1.255v.811c0,.135.053.206.145.206a.135.135,0,0,0,.093-.032l.08.045Zm-1.716-.868v-.2a1.192,1.192,0,0,0-.411-.077c-.311,0-.456.141-.456.328,0,.206.192.329.41.329A.432.432,0,0,0,21.549,29.35Z" transform="translate(1.186 -26.132)" fill="#f1612a"/>
            <path id="Trazado_40360" data-name="Trazado 40360" d="M27.653,29.25c0,.8-.742,1.274-1.8,1.274A2.284,2.284,0,0,1,24.11,29.8v-.09l.609-.611h.092a1.408,1.408,0,0,0,.96.463c.331,0,.55-.147.55-.386,0-.309-.278-.437-.7-.437h-.464V27.9h.562c.312,0,.523-.161.523-.386,0-.29-.264-.361-.523-.361a1.356,1.356,0,0,0-.787.271h-.093l-.5-.644V26.69a2.44,2.44,0,0,1,1.569-.5c.874,0,1.61.372,1.61,1.222a1.078,1.078,0,0,1-.5.855A1.053,1.053,0,0,1,27.653,29.25Z" transform="translate(1.473 -26.188)" fill="#f1612a"/>
          </g>
        </g>
      </g>
    </g>
  </g>
</svg>
