<svg xmlns="http://www.w3.org/2000/svg" xmlns:xlink="http://www.w3.org/1999/xlink" width="58" height="58" viewBox="0 0 58 58">
  <defs>
    <clipPath id="clip-path">
      <rect id="Rect치ngulo_27223" data-name="Rect치ngulo 27223" width="50.286" height="13.421" fill="none"/>
    </clipPath>
  </defs>
  <g id="Grupo_40770" data-name="Grupo 40770" transform="translate(8898.5 -2707.5)">
    <rect id="Rect치ngulo_18110" data-name="Rect치ngulo 18110" width="58" height="58" transform="translate(-8898.5 2707.5)" fill="none"/>
    <g id="Grupo_40769" data-name="Grupo 40769" transform="translate(-8895 2729)" clip-path="url(#clip-path)">
      <path id="Trazado_83724" data-name="Trazado 83724" d="M13.437,6.716q0,2.61,0,5.22a1.5,1.5,0,0,1-.074.544,1.4,1.4,0,0,1-1.138.935.994.994,0,0,1-.173.006H1.4a1.3,1.3,0,0,1-.719-.2A1.379,1.379,0,0,1,0,12.051c0-.025,0-.051,0-.076Q0,6.712,0,1.449A1.4,1.4,0,0,1,.124.829,1.371,1.371,0,0,1,1.306,0c.043,0,.087,0,.13,0Q6.721,0,12.007,0a1.381,1.381,0,0,1,1.062.454,1.314,1.314,0,0,1,.365.88q0,.108,0,.217,0,2.583,0,5.166M9.849,6.408a3.127,3.127,0,1,0-3.122,3.12,3.12,3.12,0,0,0,3.122-3.12M6.3,10.491a.979.979,0,0,1-.118,0c-.089-.013-.179-.026-.267-.044A4.03,4.03,0,0,1,3.886,9.388,4.019,4.019,0,0,1,2.657,5.734,3.913,3.913,0,0,1,3.931,3.38,4.026,4.026,0,0,1,7.03,2.3a3.967,3.967,0,0,1,1.82.577A4.109,4.109,0,0,1,10.8,7.02a4.03,4.03,0,0,1-.851,1.941c-.076.1-.162.185-.238.281a.216.216,0,0,0,.12.356.232.232,0,0,0,.223-.083,4.463,4.463,0,0,0,.871-1.335A4.557,4.557,0,0,0,9.586,2.842,4.5,4.5,0,0,0,6.851,1.836a5.852,5.852,0,0,0-.669.037,3.707,3.707,0,0,0-.917.2A4.491,4.491,0,0,0,3.172,3.54a4.452,4.452,0,0,0-.944,3.686A4.418,4.418,0,0,0,3.482,9.615,4.517,4.517,0,0,0,5.432,10.78a4.991,4.991,0,0,0,.763.157c.1.013.1.016.1.116,0,.144,0,.289,0,.433a.655.655,0,0,0,.011.083,6.586,6.586,0,0,0,.842-.841l-.786-.782A.293.293,0,0,0,6.3,9.915Z" transform="translate(0 0)" fill="#4e94a5"/>
      <path id="Trazado_83725" data-name="Trazado 83725" d="M346.535,95.473c-.007.073-.015.122-.015.17q0,.85,0,1.7c0,.04,0,.079,0,.119a.446.446,0,0,1-.875.11.583.583,0,0,1-.022-.16q0-2.934,0-5.867a.479.479,0,0,1,.175-.391.433.433,0,0,1,.4-.082.3.3,0,0,1,.182.159,1.153,1.153,0,0,1,.116.425.836.836,0,0,0,.051.235c.033-.034.055-.055.074-.078a1.956,1.956,0,0,1,1.19-.7,2.009,2.009,0,0,1,1.217.158,2.474,2.474,0,0,1,1.455,1.895,2.6,2.6,0,0,1-.361,1.92,2.367,2.367,0,0,1-1.587,1.091,2.169,2.169,0,0,1-.838.01,1.759,1.759,0,0,1-.814-.407c-.088-.074-.169-.157-.254-.236-.022-.021-.047-.039-.09-.076m.017-1.818a1.74,1.74,0,0,0,.558,1.326,1.447,1.447,0,0,0,1.764.143,1.687,1.687,0,0,0,.684-.934,1.744,1.744,0,0,0-.275-1.581A1.389,1.389,0,0,0,347.951,92a1.467,1.467,0,0,0-.891.427,1.717,1.717,0,0,0-.508,1.225" transform="translate(-330.003 -86.942)" fill="#4e94a5"/>
      <path id="Trazado_83726" data-name="Trazado 83726" d="M762.855,57.013c0-.06.008-.1.008-.15,0-.6,0-1.191,0-1.787a.452.452,0,0,1,.153-.356.428.428,0,0,1,.474-.081.408.408,0,0,1,.269.385c0,.043,0,.087,0,.13q0,2.87,0,5.74c0,.043,0,.087,0,.13a.455.455,0,0,1-.459.436.321.321,0,0,1-.3-.2,1.974,1.974,0,0,1-.094-.331c-.016-.066-.018-.136-.029-.2a1.014,1.014,0,0,0-.033-.11c-.035.037-.059.06-.08.086a1.9,1.9,0,0,1-1.054.663,2.074,2.074,0,0,1-1.567-.239,2.515,2.515,0,0,1-1.251-1.844,2.62,2.62,0,0,1,.37-1.868,2.334,2.334,0,0,1,1.743-1.121,1.971,1.971,0,0,1,.92.077,1.994,1.994,0,0,1,.74.479c.041.04.08.083.122.123a.4.4,0,0,0,.068.039m-3.116,1.848c.007.064.013.15.025.236a1.651,1.651,0,0,0,.7,1.171,1.449,1.449,0,0,0,1.983-.332,1.743,1.743,0,0,0,.32-1.594,1.5,1.5,0,0,0-1.281-1.178,1.321,1.321,0,0,0-1.014.246,1.769,1.769,0,0,0-.735,1.451" transform="translate(-724.565 -52.135)" fill="#4e94a5"/>
      <path id="Trazado_83727" data-name="Trazado 83727" d="M882.977,94.663c.024.079.041.145.065.207a1.7,1.7,0,0,0,.837.941,1.368,1.368,0,0,0,1.526-.161,1.738,1.738,0,0,0,.331-.34.447.447,0,0,1,.752.483,1.852,1.852,0,0,1-.241.305,2.269,2.269,0,0,1-1.241.7,2.381,2.381,0,0,1-2.142-.615,2.62,2.62,0,0,1,.628-4.25,2.155,2.155,0,0,1,1.181-.2,2.247,2.247,0,0,1,1.862,1.386,1.929,1.929,0,0,1,.158.648,2.748,2.748,0,0,1,0,.442.434.434,0,0,1-.431.415c-.791,0-1.583,0-2.374.006-.274,0-.549.009-.823.014-.021,0-.042.006-.085.012m2.809-.924a1.414,1.414,0,0,0-.028-.142,1.355,1.355,0,0,0-1.549-.951,1.548,1.548,0,0,0-1.17,1.02.31.31,0,0,0-.011.078c.118.026,2.662.023,2.757,0" transform="translate(-842.185 -87.58)" fill="#4e94a5"/>
      <path id="Trazado_83728" data-name="Trazado 83728" d="M537.439,94.646a.792.792,0,0,0,.017.095,1.689,1.689,0,0,0,.972,1.1,1.349,1.349,0,0,0,1.443-.217,2.35,2.35,0,0,0,.307-.318.6.6,0,0,1,.228-.177.441.441,0,0,1,.595.37.476.476,0,0,1-.092.336,2.284,2.284,0,0,1-1.48.959,2.377,2.377,0,0,1-2.443-1,2.432,2.432,0,0,1-.476-1.261,2.545,2.545,0,0,1,1.179-2.464,2.1,2.1,0,0,1,1.329-.35,2.229,2.229,0,0,1,1.828,1.115,1.988,1.988,0,0,1,.305,1.078c0,.1,0,.2,0,.292a.44.44,0,0,1-.432.417c-.054,0-.108,0-.163,0-.759,0-1.517,0-2.276,0-.253,0-.505.009-.758.014-.021,0-.042,0-.079.009m2.8-.906a.844.844,0,0,0-.014-.117,1.36,1.36,0,0,0-1.594-.986,1.56,1.56,0,0,0-1.131.994.56.56,0,0,0-.021.108Z" transform="translate(-512.257 -87.566)" fill="#4e94a5"/>
      <path id="Trazado_83729" data-name="Trazado 83729" d="M655.527,91.9l.093-.075c.172-.137.34-.281.518-.409a1.26,1.26,0,0,1,.722-.231,2.074,2.074,0,0,1,.474.035,1.655,1.655,0,0,1,1.073.8,2.189,2.189,0,0,1,.331,1.1c.039.913.01,1.826.018,2.739a.483.483,0,0,1-.341.474.459.459,0,0,1-.546-.322.894.894,0,0,1-.022-.2c0-.8,0-1.6,0-2.393a3.582,3.582,0,0,0-.046-.527,1.029,1.029,0,0,0-.3-.588.738.738,0,0,0-.526-.217,1.267,1.267,0,0,0-.867.276,1.48,1.48,0,0,0-.421.608,2.558,2.558,0,0,0-.177.952c0,.617,0,1.235,0,1.852,0,.043,0,.087,0,.13a.45.45,0,0,1-.45.448.444.444,0,0,1-.444-.442c0-.022,0-.043,0-.065q0-2.085,0-4.17a.693.693,0,0,1,.057-.3.361.361,0,0,1,.6-.063,1.163,1.163,0,0,1,.17.372.627.627,0,0,0,.085.231" transform="translate(-625.032 -87.039)" fill="#4e94a5"/>
      <path id="Trazado_83730" data-name="Trazado 83730" d="M1013.78,85.335c.005-.061.013-.113.014-.166,0-.437,0-.873,0-1.31a.377.377,0,0,1,.162-.335.383.383,0,0,1,.4-.031.343.343,0,0,1,.212.315c0,.141,0,.281,0,.422,0,.314,0,.628,0,.942,0,.052.009.1.015.169h.141c.444,0,.889.005,1.333,0a.393.393,0,0,1,.032.786c-.245,0-.491,0-.737,0h-.629c-.15,0-.155.005-.156.161q0,.6,0,1.191c0,.054,0,.108,0,.162a.361.361,0,0,1-.378.372.366.366,0,0,1-.4-.368c-.006-.245,0-.491,0-.736,0-.209,0-.418,0-.628,0-.139-.009-.149-.147-.149h-1.235c-.043,0-.087,0-.13,0a.369.369,0,0,1-.38-.388.381.381,0,0,1,.374-.4c.032,0,.065,0,.1,0h1.268c.043,0,.085,0,.139-.006" transform="translate(-966.179 -79.681)" fill="#4e94a5"/>
      <path id="Trazado_83731" data-name="Trazado 83731" d="M469.28,91.892c.031-.04.054-.067.074-.095a1.614,1.614,0,0,1,.654-.536.9.9,0,0,1,.346-.082,2.544,2.544,0,0,1,.782.095.489.489,0,0,1,.332.608.357.357,0,0,1-.453.26,1.473,1.473,0,0,1-.212-.081,1.059,1.059,0,0,0-.791-.029.86.86,0,0,0-.476.421,1.7,1.7,0,0,0-.2.669,5.4,5.4,0,0,0-.024.54c0,.736,0,1.473,0,2.209a.878.878,0,0,1-.018.171.342.342,0,0,1-.261.275.586.586,0,0,1-.362-.008.364.364,0,0,1-.249-.336c0-.039,0-.079,0-.119q0-2.085,0-4.17a.933.933,0,0,1,.026-.246.345.345,0,0,1,.515-.22.5.5,0,0,1,.265.409c.008.061.015.122.026.182a.5.5,0,0,0,.033.082" transform="translate(-447.25 -87.053)" fill="#4e94a5"/>
      <path id="Trazado_83732" data-name="Trazado 83732" d="M113.958,102.438l-.027.011c-.028-.026-.056-.053-.085-.077-.154-.13-.305-.265-.465-.387a.945.945,0,0,0-.467-.189,1.564,1.564,0,0,0-1.4.529,1.814,1.814,0,0,0-.483,1.495,1.769,1.769,0,0,0,1.032,1.473,1.287,1.287,0,0,0,1.366-.094c.147-.1.281-.225.42-.339.029-.024.057-.049.1-.087.006.05.012.077.012.1,0,.09,0,.181,0,.271a.455.455,0,0,0,.029.147.223.223,0,0,0,.429-.072,1.175,1.175,0,0,0,0-.119q0-1.5,0-3.009c0-.036,0-.072,0-.108a.223.223,0,0,0-.217-.213c-.118,0-.191.071-.2.206-.009.111-.015.223-.024.334,0,.042-.013.083-.02.125" transform="translate(-105.999 -97.173)" fill="#fff"/>
      <path id="Trazado_83733" data-name="Trazado 83733" d="M51.761,49.249v-.576a.292.292,0,0,1,.064.031l.786.782a6.585,6.585,0,0,1-.842.841.655.655,0,0,1-.011-.083c0-.144,0-.289,0-.433,0-.1,0-.1-.1-.116a4.992,4.992,0,0,1-.763-.157,4.517,4.517,0,0,1-1.951-1.165,4.542,4.542,0,0,1-.309-6.074,4.491,4.491,0,0,1,2.093-1.464,3.707,3.707,0,0,1,.917-.2,5.851,5.851,0,0,1,.669-.037,4.56,4.56,0,0,1,3.2,7.679.232.232,0,0,1-.223.083.216.216,0,0,1-.12-.356c.076-.1.162-.185.238-.281a4.03,4.03,0,0,0,.851-1.941,4.109,4.109,0,0,0-1.951-4.147,3.967,3.967,0,0,0-1.82-.577,4.026,4.026,0,0,0-3.1,1.084,3.913,3.913,0,0,0-1.274,2.354A4.134,4.134,0,0,0,51.377,49.2c.088.019.178.031.267.044a.979.979,0,0,0,.118,0" transform="translate(-45.463 -38.758)" fill="#fff"/>
      <path id="Trazado_83734" data-name="Trazado 83734" d="M113.958,102.438c.007-.042.016-.083.02-.125.009-.111.015-.223.024-.334.011-.135.084-.208.2-.206a.223.223,0,0,1,.217.213c0,.036,0,.072,0,.108q0,1.5,0,3.009a1.162,1.162,0,0,1,0,.119.223.223,0,0,1-.429.072.453.453,0,0,1-.029-.147c0-.09,0-.18,0-.271,0-.027-.006-.054-.012-.1-.043.038-.071.063-.1.087-.14.114-.273.236-.42.339a1.287,1.287,0,0,1-1.366.094,1.769,1.769,0,0,1-1.032-1.473,1.814,1.814,0,0,1,.483-1.495,1.564,1.564,0,0,1,1.4-.529.945.945,0,0,1,.467.189c.16.122.311.257.465.387.029.025.057.052.085.077l.027-.011m-2.446,1.1a1.458,1.458,0,0,0,.3.953,1.11,1.11,0,0,0,.944.465,1.142,1.142,0,0,0,.755-.312,1.366,1.366,0,0,0-.079-2.146,1.159,1.159,0,0,0-1.365,0,1.357,1.357,0,0,0-.555,1.044" transform="translate(-105.999 -97.173)" fill="#4e94a5"/>
      <path id="Trazado_83735" data-name="Trazado 83735" d="M122.012,114.048a1.357,1.357,0,0,1,.555-1.044,1.159,1.159,0,0,1,1.365,0,1.366,1.366,0,0,1,.079,2.146,1.142,1.142,0,0,1-.755.312,1.11,1.11,0,0,1-.944-.465,1.458,1.458,0,0,1-.3-.953" transform="translate(-116.499 -107.687)" fill="#fff"/>
    </g>
  </g>
</svg>
