<svg xmlns="http://www.w3.org/2000/svg" xmlns:xlink="http://www.w3.org/1999/xlink" width="85" height="85" viewBox="0 0 85 85">
  <defs>
    <filter id="Rect치ngulo_18088" x="0" y="0" width="85" height="85" filterUnits="userSpaceOnUse">
      <feOffset dy="3" input="SourceAlpha"/>
      <feGaussianBlur stdDeviation="3" result="blur"/>
      <feFlood flood-opacity="0.161"/>
      <feComposite operator="in" in2="blur"/>
      <feComposite in="SourceGraphic"/>
    </filter>
  </defs>
  <g id="Grupo_18832" data-name="Grupo 18832" transform="translate(-611 -1494)">
    <g transform="matrix(1, 0, 0, 1, 611, 1494)" filter="url(#Rect치ngulo_18088)">
      <rect id="Rect치ngulo_18088-2" data-name="Rect치ngulo 18088" width="67" height="67" rx="10" transform="translate(9 6)" fill="#fff"/>
    </g>
    <g id="Grupo_18230" data-name="Grupo 18230" transform="translate(632 1528)">
      <path id="Trazado_468" data-name="Trazado 468" d="M224.905,149.733H222.6l-.845-2.185-.168-.122h-4.4l-.16.122-.878,2.185h-2.229l4.3-10.008h2.432l4.257,10.008m-5.5-7.815-.162.117-1.533,3.815.013.162.137.081h3.054l.15-.074v-.17l-1.48-3.81-.162-.122Z" transform="translate(-213.917 -139.486)" fill="#1a1818"/>
      <path id="Trazado_469" data-name="Trazado 469" d="M228.728,149.733h-2.158a3.845,3.845,0,0,1-.213-1.015,9.922,9.922,0,0,0-.15-1.3,2.1,2.1,0,0,0-.614-1.322,2.208,2.208,0,0,0-1.508-.409h-2.592l-.175.2v3.851h-2.236V139.725h6.168a4.039,4.039,0,0,1,1.371.231,3.006,3.006,0,0,1,1.041.589,2.639,2.639,0,0,1,.457,3.348,2.545,2.545,0,0,1-1.34.947l-.117.173v.031l.127.188a1.763,1.763,0,0,1,.734.315l.467.518.264.673.122.746.03.576.056.693.135.7.132.287m-7.234-8.6-.175.185v2.927l.175.18h2.835a2.194,2.194,0,0,0,1.419-.393,1.479,1.479,0,0,0,.533-1.272,1.438,1.438,0,0,0-.533-1.246,2.217,2.217,0,0,0-1.419-.381Z" transform="translate(-205.97 -139.486)" fill="#1a1818"/>
      <path id="Trazado_470" data-name="Trazado 470" d="M229.075,149.734h-2.256v-8.266l-.169-.184h-3.364v-1.559H232.6v1.559h-3.358l-.167.184v8.266" transform="translate(-199.505 -139.486)" fill="#1a1818"/>
      <path id="Trazado_471" data-name="Trazado 471" d="M232.171,150.117a7.6,7.6,0,0,1-1.835-.216,4.551,4.551,0,0,1-1.566-.635,3.009,3.009,0,0,1-1.056-1.081,2.861,2.861,0,0,1-.388-1.366H229.5a2.161,2.161,0,0,0,.233.789l.622.642a3.231,3.231,0,0,0,.9.371,5.219,5.219,0,0,0,1.033.107l.762-.058.779-.2.624-.447a1.161,1.161,0,0,0-.086-1.612,3.194,3.194,0,0,0-.84-.47,10.685,10.685,0,0,0-1.15-.289c-.414-.091-.848-.2-1.272-.294s-.855-.223-1.272-.358a4.119,4.119,0,0,1-1.074-.533,2.4,2.4,0,0,1-.749-.777,2.1,2.1,0,0,1-.292-1.1,2.235,2.235,0,0,1,.378-1.295,3.08,3.08,0,0,1,.954-.924,4.455,4.455,0,0,1,1.363-.553,6.294,6.294,0,0,1,1.548-.193,8.615,8.615,0,0,1,1.746.178,5.071,5.071,0,0,1,1.457.569,2.786,2.786,0,0,1,.982.985,2.516,2.516,0,0,1,.358,1.244h-2.191l-.218-.68-.569-.551a2.8,2.8,0,0,0-.782-.264,6.12,6.12,0,0,0-.9-.069l-.652.051-.609.231-.48.4-.206.675.178.609a1.113,1.113,0,0,0,.581.4,8.645,8.645,0,0,0,1.086.338c.467.079,1.076.231,1.8.4a6.724,6.724,0,0,1,.909.208,4.179,4.179,0,0,1,1.13.467,3.035,3.035,0,0,1,.944.843,2.191,2.191,0,0,1,.388,1.317,2.608,2.608,0,0,1-1.175,2.223,4.65,4.65,0,0,1-1.47.668,7.9,7.9,0,0,1-2.094.239" transform="translate(-193.292 -139.631)" fill="#1a1818"/>
    </g>
  </g>
</svg>
