<svg xmlns="http://www.w3.org/2000/svg" xmlns:xlink="http://www.w3.org/1999/xlink" width="85" height="85" viewBox="0 0 85 85">
  <defs>
    <filter id="Rectángulo_18090" x="0" y="0" width="85" height="85" filterUnits="userSpaceOnUse">
      <feOffset dy="3" input="SourceAlpha"/>
      <feGaussianBlur stdDeviation="3" result="blur"/>
      <feFlood flood-opacity="0.161"/>
      <feComposite operator="in" in2="blur"/>
      <feComposite in="SourceGraphic"/>
    </filter>
    <clipPath id="clip-path">
      <rect id="Rectángulo_26491" data-name="Rectángulo 26491" width="43.908" height="50.988" fill="none"/>
    </clipPath>
  </defs>
  <g id="azteca_deportes" transform="translate(-19 -13)">
    <g transform="matrix(1, 0, 0, 1, 19, 13)" filter="url(#Rectángulo_18090)">
      <rect id="Rectángulo_18090-2" data-name="Rectángulo 18090" width="67" height="67" rx="10" transform="translate(9 6)" fill="#fff"/>
    </g>
    <g id="Grupo_40745" data-name="Grupo 40745" transform="translate(42 27.006)">
      <g id="Grupo_39004" data-name="Grupo 39004" clip-path="url(#clip-path)">
        <path id="Trazado_79327" data-name="Trazado 79327" d="M12.5,15.309a2.959,2.959,0,0,0,1.39.4c.751,0,1.108-.367,1.108-.855s-.3-.76-1.059-1.046c-1.046-.38-1.534-.951-1.534-1.629a1.781,1.781,0,0,1,1.986-1.688,2.682,2.682,0,0,1,1.4.357l-.249.751a2.342,2.342,0,0,0-1.177-.334c-.616,0-.951.357-.951.783,0,.475.334.692,1.082.987.987.37,1.511.869,1.511,1.724,0,1.023-.8,1.737-2.14,1.737a3.26,3.26,0,0,1-1.616-.406Z" transform="translate(27.904 23.903)" fill="#666665" fill-rule="evenodd"/>
        <path id="Trazado_79328" data-name="Trazado 79328" d="M11.437,13.691a1.831,1.831,0,0,0,1.96,1.986,3.722,3.722,0,0,0,1.593-.3l.19.751a4.667,4.667,0,0,1-1.924.367,2.683,2.683,0,0,1-2.829-2.9,2.8,2.8,0,0,1,2.711-3.1A2.426,2.426,0,0,1,15.5,13.206a2.334,2.334,0,0,1-.036.485Zm3.055-.747h0a1.487,1.487,0,0,0-1.439-1.7,1.724,1.724,0,0,0-1.6,1.7Z" transform="translate(23.75 23.905)" fill="#666665" fill-rule="evenodd"/>
        <path id="Trazado_79329" data-name="Trazado 79329" d="M11.089,10.114v1.38h1.5v.8h-1.5v3.088c0,.715.2,1.118.783,1.118a2.019,2.019,0,0,0,.606-.069l.049.8a2.944,2.944,0,0,1-.928.141,1.5,1.5,0,0,1-1.131-.439,2.251,2.251,0,0,1-.4-1.511V12.29H9.175v-.8h.892V10.435Z" transform="translate(20.898 23.037)" fill="#666665" fill-rule="evenodd"/>
        <path id="Trazado_79330" data-name="Trazado 79330" d="M8.136,12.419c0-.678-.01-1.259-.049-1.8h.921l.046,1.131h.033A1.74,1.74,0,0,1,10.693,10.5a1.9,1.9,0,0,1,.285.023V11.5a2.79,2.79,0,0,0-.354-.023,1.466,1.466,0,0,0-1.406,1.331,3.35,3.35,0,0,0-.033.485v3.081H8.136Z" transform="translate(18.42 23.905)" fill="#666665" fill-rule="evenodd"/>
        <path id="Trazado_79331" data-name="Trazado 79331" d="M8.745,16.509a2.742,2.742,0,0,1-2.76-2.96A2.817,2.817,0,0,1,8.84,10.494a2.72,2.72,0,0,1,2.766,2.95,2.818,2.818,0,0,1-2.852,3.065Zm.046-.783h0c1,0,1.747-.937,1.747-2.245,0-.977-.488-2.2-1.724-2.2s-1.757,1.141-1.757,2.235c0,1.259.711,2.209,1.721,2.209Z" transform="translate(13.632 23.903)" fill="#666665" fill-rule="evenodd"/>
        <path id="Trazado_79332" data-name="Trazado 79332" d="M4.083,12.5c0-.737-.013-1.331-.049-1.878h.941l.059.987h.023a2.223,2.223,0,0,1,2.032-1.118c1.4,0,2.448,1.177,2.448,2.924,0,2.068-1.272,3.091-2.612,3.091a2,2,0,0,1-1.773-.9H5.129v3.124H4.083Zm1.046,1.534h0a1.675,1.675,0,0,0,.049.429,1.6,1.6,0,0,0,1.557,1.223c1.1,0,1.747-.9,1.747-2.222,0-1.154-.6-2.14-1.7-2.14a1.672,1.672,0,0,0-1.593,1.295,2.651,2.651,0,0,0-.059.416Z" transform="translate(9.188 23.903)" fill="#666665" fill-rule="evenodd"/>
        <path id="Trazado_79333" data-name="Trazado 79333" d="M3.115,13.691a1.831,1.831,0,0,0,1.96,1.986,3.722,3.722,0,0,0,1.593-.3l.19.751a4.667,4.667,0,0,1-1.924.367,2.683,2.683,0,0,1-2.829-2.9,2.8,2.8,0,0,1,2.711-3.1,2.426,2.426,0,0,1,2.363,2.711,2.334,2.334,0,0,1-.036.485Zm3.055-.747h0a1.487,1.487,0,0,0-1.439-1.7,1.724,1.724,0,0,0-1.6,1.7Z" transform="translate(4.795 23.905)" fill="#666665" fill-rule="evenodd"/>
        <path id="Trazado_79334" data-name="Trazado 79334" d="M5.445,9.715v6.952c0,.511.013,1.095.049,1.488H4.554l-.046-1H4.482a2.1,2.1,0,0,1-1.947,1.131A2.631,2.631,0,0,1,.06,15.363c-.01-1.927,1.19-3.091,2.58-3.091a1.92,1.92,0,0,1,1.737.865H4.4V9.715ZM4.4,14.743h0a2.119,2.119,0,0,0-.046-.452,1.546,1.546,0,0,0-1.511-1.2c-1.082,0-1.724.951-1.724,2.209,0,1.177.583,2.14,1.7,2.14a1.584,1.584,0,0,0,1.534-1.259,1.808,1.808,0,0,0,.046-.439Z" transform="translate(0.137 22.128)" fill="#666665" fill-rule="evenodd"/>
        <path id="Trazado_79335" data-name="Trazado 79335" d="M2.6,6.839v1.7H3.917V9.9H2.6v2.147c0,.718.17,1.046.728,1.046a3.166,3.166,0,0,0,.547-.049l.01,1.393a3.563,3.563,0,0,1-1.2.161A1.93,1.93,0,0,1,1.3,14.083a2.45,2.45,0,0,1-.511-1.76V9.9H0V8.537H.787V7.252Z" transform="translate(0 15.577)" fill="#666665"/>
        <path id="Trazado_79336" data-name="Trazado 79336" d="M3.239,7.357l.8,2.753a13.605,13.605,0,0,1,.341,1.442h.036c.1-.482.193-.931.328-1.442l.764-2.753h1.94L5.241,13.29H3.4L1.236,7.357Z" transform="translate(2.815 16.757)" fill="#666665"/>
        <path id="Trazado_79337" data-name="Trazado 79337" d="M7.3,13.383l-.111-.6H7.153a2.126,2.126,0,0,1-1.7.728A1.818,1.818,0,0,1,3.538,11.7c0-1.544,1.383-2.285,3.484-2.271V9.342c0-.315-.17-.764-1.082-.764A3.325,3.325,0,0,0,4.3,9.027l-.341-1.19a4.9,4.9,0,0,1,2.3-.521,2.308,2.308,0,0,1,2.609,2.56v2.062a9.018,9.018,0,0,0,.085,1.445Zm-.22-2.8c-.97-.013-1.721.216-1.721.934a.661.661,0,0,0,.728.7,1.006,1.006,0,0,0,.957-.678,1.4,1.4,0,0,0,.036-.315Z" transform="translate(8.059 16.664)" fill="#666665"/>
        <path id="Trazado_79338" data-name="Trazado 79338" d="M5.356,12.234l1.868-2.34c.341-.4.606-.695.947-1.055V8.812H5.562V7.357h4.851v1.1L8.63,10.7A13.32,13.32,0,0,1,7.66,11.8v.023h2.852V13.29H5.356Z" transform="translate(12.2 16.757)" fill="#666665"/>
        <path id="Trazado_79339" data-name="Trazado 79339" d="M9.558,6.839v1.7h1.324V9.9H9.558v2.147c0,.718.17,1.046.731,1.046a3.123,3.123,0,0,0,.544-.049l.013,1.393a3.6,3.6,0,0,1-1.2.161,1.93,1.93,0,0,1-1.383-.511,2.466,2.466,0,0,1-.508-1.76V9.9h-.79V8.537h.79V7.252Z" transform="translate(15.858 15.577)" fill="#666665"/>
        <path id="Trazado_79340" data-name="Trazado 79340" d="M10.008,11c.062.764.813,1.128,1.678,1.128a5.232,5.232,0,0,0,1.636-.243l.243,1.249a5.858,5.858,0,0,1-2.147.364,2.846,2.846,0,0,1-3.166-3.019,2.971,2.971,0,0,1,3-3.166c1.917,0,2.645,1.491,2.645,2.96A4.5,4.5,0,0,1,13.83,11Zm2.173-1.262a1.072,1.072,0,0,0-1.042-1.2A1.212,1.212,0,0,0,10,9.743Z" transform="translate(18.794 16.666)" fill="#666665"/>
        <path id="Trazado_79341" data-name="Trazado 79341" d="M14.886,13.237a4.555,4.555,0,0,1-1.652.265,2.875,2.875,0,0,1-3.14-3.032,3.094,3.094,0,0,1,3.4-3.153,4.3,4.3,0,0,1,1.406.229L14.6,8.917a2.533,2.533,0,0,0-1.029-.18A1.531,1.531,0,0,0,11.989,10.4a1.543,1.543,0,0,0,1.622,1.662,2.816,2.816,0,0,0,1.059-.184Z" transform="translate(22.991 16.666)" fill="#666665"/>
        <path id="Trazado_79342" data-name="Trazado 79342" d="M15.412,13.383l-.108-.6h-.036a2.126,2.126,0,0,1-1.7.728A1.818,1.818,0,0,1,11.652,11.7c0-1.544,1.383-2.285,3.484-2.271V9.342c0-.315-.17-.764-1.082-.764a3.348,3.348,0,0,0-1.639.449l-.338-1.19a4.9,4.9,0,0,1,2.3-.521,2.306,2.306,0,0,1,2.609,2.56v2.062a9.018,9.018,0,0,0,.085,1.445Zm-.216-2.8c-.97-.013-1.724.216-1.724.934a.662.662,0,0,0,.728.7,1.007,1.007,0,0,0,.96-.678,1.4,1.4,0,0,0,.036-.315Z" transform="translate(26.54 16.664)" fill="#666665"/>
        <path id="Trazado_79343" data-name="Trazado 79343" d="M18.932,13.6,11.912,2.321l-.075-.108a1.7,1.7,0,0,0-1.347-.751c-2.334,0-2.868,4.232-2.868,5.13a19.489,19.489,0,0,0,.721,4.9c1.36,4.346,4.045,5.408,6.3,5.408h.013a9.166,9.166,0,0,0,3.56-.78,1.686,1.686,0,0,0,.973-1.124,1.637,1.637,0,0,0-.252-1.393" transform="translate(17.359 3.33)" fill="#ffb711"/>
        <path id="Trazado_79344" data-name="Trazado 79344" d="M17.534.01l-.023.007a17.834,17.834,0,0,0-13.757,13.7,12.426,12.426,0,0,0-.315,3.514,2.3,2.3,0,0,0,2.485,1.888,2.24,2.24,0,0,0,1.931-1.6,3.947,3.947,0,0,0,.177-1.036v-.118c0-1.236.279-11.777,9.715-15.779A.319.319,0,0,0,17.92.2.319.319,0,0,0,17.534.01" transform="translate(7.708 0)" fill="#10418f"/>
        <path id="Trazado_79345" data-name="Trazado 79345" d="M15.792.11C12.317,1.2,5.027,4.781,5.027,16.964a8.109,8.109,0,0,0,.216,2.5,2.241,2.241,0,0,0,3.091,1.2,2.272,2.272,0,0,0,1.285-2.1c0-.636-.3-1.747-.377-2.38a20.792,20.792,0,0,1-.161-2.573c0-3.822,1.049-9.745,6.936-12.921l.026-.013a.305.305,0,0,0,.157-.4.315.315,0,0,0-.41-.164" transform="translate(11.42 0.205)" fill="#522db2"/>
        <path id="Trazado_79346" data-name="Trazado 79346" d="M13.428.395c-.6.259-9.224,3.638-6.421,17a6.437,6.437,0,0,0,.685,1.885,2.274,2.274,0,0,0,2.865.885A2.31,2.31,0,0,0,11.878,18.2c.052-1.108-1-2.544-1.4-3.769a15.8,15.8,0,0,1-.8-4.805A10.95,10.95,0,0,1,13.746.916a.322.322,0,0,0,.072-.387.318.318,0,0,0-.39-.134" transform="translate(14.688 0.851)" fill="#ef172f"/>
        <path id="Trazado_79347" data-name="Trazado 79347" d="M12.86,1.178c-.088-.043-1.6-.721-8.04-.721-.964,0-2.035.013-3.232.049a.312.312,0,0,0-.282.22.388.388,0,0,0,.115.341A23.67,23.67,0,0,1,8.17,8.638a.609.609,0,0,0,.616.344A.62.62,0,0,0,9.294,8.6,17.312,17.312,0,0,1,13.336,3.05a1.1,1.1,0,0,0,.328-.819,1.148,1.148,0,0,0-.8-1.052" transform="translate(2.951 1.041)" fill="#00a12f"/>
        <path id="Trazado_79348" data-name="Trazado 79348" d="M2.148,13.908h.99l.885,3.179L4.7,13.908H5.75L4.619,19.234h-.99l-.892-3.173-.682,3.173H1.014Z" transform="translate(2.309 31.679)" fill="#666665"/>
        <path id="Trazado_79349" data-name="Trazado 79349" d="M3.847,13.908H6.839l-.213,1.006H4.686L4.42,16.12H5.862l-.187.908H4.233l-.259,1.209H5.918l-.213,1H2.713Z" transform="translate(6.179 31.679)" fill="#666665"/>
        <path id="Trazado_79350" data-name="Trazado 79350" d="M5.453,14.914h-1.1l.213-1.006H7.827l-.213,1.006H6.5l-.928,4.32H4.532Z" transform="translate(9.906 31.678)" fill="#666665"/>
        <path id="Trazado_79351" data-name="Trazado 79351" d="M5.744,13.908H6.757l.036,3.474,1.488-3.474h.931l.007,3.474,1.55-3.474h1.059L9.438,19.234H8.366V15.858L6.914,19.234H5.849Z" transform="translate(13.083 31.679)" fill="#666665"/>
        <path id="Trazado_79352" data-name="Trazado 79352" d="M7.835,17.333l.341-1.6a2.016,2.016,0,0,1,2-1.852c1.088,0,1.806.757,1.518,2.085l-.331,1.58c-.243,1.134-.839,1.836-1.99,1.836a1.514,1.514,0,0,1-1.541-2.045M9.49,18.382c.423,0,.7-.265.823-.8l.37-1.747c.151-.718-.2-.96-.626-.96-.364,0-.7.2-.833.81l-.37,1.747c-.174.783.213.951.636.951" transform="translate(17.715 31.61)" fill="#666665"/>
        <path id="Trazado_79353" data-name="Trazado 79353" d="M10.446,13.907H12a1.449,1.449,0,0,1,1.524,1.927l-.036.174a1.888,1.888,0,0,1-1.278,1.609l.56,1.616h-1.15l-.429-1.373h-.538l-.292,1.373H9.312Zm.937,2.963a1,1,0,0,0,1.065-.875l.039-.174c.157-.731-.174-.914-.652-.914h-.551l-.423,1.963Z" transform="translate(21.21 31.676)" fill="#666665"/>
        <path id="Trazado_79354" data-name="Trazado 79354" d="M12.05,13.908H13.1l-.465,2.19h.361l1.482-2.19h1.246l-1.895,2.645.764,2.681h-1.1L12.9,17.022h-.465l-.479,2.212H10.916Z" transform="translate(24.864 31.679)" fill="#666665"/>
      </g>
    </g>
  </g>
</svg>
