<svg xmlns="http://www.w3.org/2000/svg" xmlns:xlink="http://www.w3.org/1999/xlink" width="85" height="85" viewBox="0 0 85 85">
  <defs>
    <filter id="Rectángulo_18090" x="0" y="0" width="85" height="85" filterUnits="userSpaceOnUse">
      <feOffset dy="3" input="SourceAlpha"/>
      <feGaussianBlur stdDeviation="3" result="blur"/>
      <feFlood flood-opacity="0.161"/>
      <feComposite operator="in" in2="blur"/>
      <feComposite in="SourceGraphic"/>
    </filter>
    <clipPath id="clip-path">
      <rect id="Rectángulo_23341" data-name="Rectángulo 23341" width="57.361" height="14.559" fill="none"/>
    </clipPath>
  </defs>
  <g id="azteca_int" transform="translate(-619 -13)">
    <g id="Grupo_31989" data-name="Grupo 31989" transform="translate(150)">
      <g transform="matrix(1, 0, 0, 1, 469, 13)" filter="url(#Rectángulo_18090)">
        <rect id="Rectángulo_18090-2" data-name="Rectángulo 18090" width="67" height="67" rx="10" transform="translate(9 6)" fill="#fff"/>
      </g>
    </g>
    <g id="Grupo_31981" data-name="Grupo 31981" transform="translate(633 45)">
      <g id="Grupo_31980" data-name="Grupo 31980" transform="translate(0 0)" clip-path="url(#clip-path)">
        <path id="Trazado_67169" data-name="Trazado 67169" d="M9.665.336A9.11,9.11,0,0,0,4.389,8.614a3.888,3.888,0,0,1-.124.946,1.2,1.2,0,0,1-1.629.783A1.41,1.41,0,0,1,1.83,8.871,9.717,9.717,0,0,1,9.543.008.161.161,0,0,1,9.761.12a.173.173,0,0,1-.1.216" transform="translate(1.895 0)" fill="#006eba"/>
        <path id="Trazado_67170" data-name="Trazado 67170" d="M3.837,11.209c-.534-.4-.561-.846-.579-1.545C3.154,5.494,4.722,1.545,8.985.144c.006,0,.047-.018.122-.051.226-.1.4.2.114.357C5.95,2.232,5.018,6.067,5.687,9.488a3,3,0,0,1,.082.8,1.238,1.238,0,0,1-1.931.924" transform="translate(3.38 0.076)" fill="#6c4499"/>
        <path id="Trazado_67171" data-name="Trazado 67171" d="M7.35,9.374a1.258,1.258,0,1,1-2.308.983A6.044,6.044,0,0,1,4.75,9.34c-.648-3.35-.106-7,3.142-8.805a2.555,2.555,0,0,1,.455-.2.145.145,0,0,1,.137.027c.12.1.094.214-.018.308A6.4,6.4,0,0,0,6.591,7.556,11.53,11.53,0,0,0,7.35,9.374" transform="translate(4.685 0.336)" fill="#ff3342"/>
        <path id="Trazado_67172" data-name="Trazado 67172" d="M3.718,4.806A13.4,13.4,0,0,0,.061.737.153.153,0,0,1,0,.627C-.009.511.04.449.151.445a35.541,35.541,0,0,1,4.7.071c.465.039,2.131.13,1.872,1.028a1.14,1.14,0,0,1-.312.43A9.958,9.958,0,0,0,4.4,4.776c-.179.373-.481.387-.683.031" transform="translate(0 0.415)" fill="#009f5b"/>
        <path id="Trazado_67173" data-name="Trazado 67173" d="M18.456,4.483q-.009,1.272,0,2.544c.008,1.032.548,1.06,1.39.968q.049-.006.049.043l.02,1.488a.085.085,0,0,1-.065.084c-1.91.469-3.443-.012-3.454-2.265,0-.95,0-1.9,0-2.844a.056.056,0,0,0-.053-.057h-.783c-.039,0-.059-.018-.059-.057V2.931a.041.041,0,0,1,.039-.041h.818a.035.035,0,0,0,.039-.039V1.488a.061.061,0,0,1,.053-.065L18.415.974c.027-.006.041,0,.041.031V2.852a.036.036,0,0,0,.037.039H19.91a.042.042,0,0,1,.041.041V4.405a.04.04,0,0,1-.041.039H18.495a.035.035,0,0,0-.039.039" transform="translate(16.103 1.01)" fill="#76787b"/>
        <path id="Trazado_67174" data-name="Trazado 67174" d="M11.108,9.36A3.6,3.6,0,0,1,5.984,6.914a9.334,9.334,0,0,1-.449-2.8,4.284,4.284,0,0,1,.752-2.424.968.968,0,0,1,1.295-.257,2.009,2.009,0,0,1,.475.581Q9.8,4.821,11.552,7.629a1.921,1.921,0,0,1,.32.732c.053.526-.292.816-.765,1" transform="translate(5.747 1.325)" fill="#ffc300"/>
        <path id="Trazado_67175" data-name="Trazado 67175" d="M13.414,8.083a.014.014,0,0,0-.016-.01l-.006,0A2.633,2.633,0,0,1,11,8.843,2.126,2.126,0,0,1,9.828,5.306,4.586,4.586,0,0,1,13.158,4.23a.039.039,0,0,0,.041-.041c.037-.667-.589-.9-1.146-.891a4,4,0,0,0-1.878.485q-.037.021-.049-.018L9.757,2.478a.057.057,0,0,1,.029-.067c2.061-.966,5.486-1.017,5.533,2.175.02,1.36-.045,2.754.1,4.1,0,.031-.01.045-.041.045H13.565A.041.041,0,0,1,13.52,8.7Zm-2.037-1.3a.727.727,0,0,0,.832.6c1.1-.1,1.076-.905,1.07-1.774a.034.034,0,0,0-.037-.039c-.805-.047-2.022.153-1.865,1.215" transform="translate(9.63 1.903)" fill="#76787b"/>
        <path id="Trazado_67176" data-name="Trazado 67176" d="M20.1,8.685c-3.123-.877-2.893-5.676-.02-6.659a3.471,3.471,0,0,1,1.639-.155c2.084.3,2.756,2.257,2.477,4.1a.072.072,0,0,1-.071.063H19.929a.068.068,0,0,0-.069.067l0,.016c.373,1.562,2.636,1.24,3.7.9a.035.035,0,0,1,.045.024l0,0,.265,1.358a.049.049,0,0,1-.035.061,6.426,6.426,0,0,1-3.745.216M19.9,4.6l2.391-.012a.018.018,0,0,0,.018-.018V4.559a1.25,1.25,0,0,0-1.191-1.3H21.06a1.249,1.249,0,0,0-1.176,1.315v.014A.018.018,0,0,0,19.9,4.6" transform="translate(18.531 1.906)" fill="#76787b"/>
        <path id="Trazado_67177" data-name="Trazado 67177" d="M22.242,8a3.673,3.673,0,0,1-.756-4.033c.828-2.006,3.209-2.5,5.132-1.874a.046.046,0,0,1,.033.055l-.312,1.476c-.006.035-.027.045-.059.035a2.5,2.5,0,0,0-2.122.088,1.991,1.991,0,0,0-.029,3.168,2.588,2.588,0,0,0,2.22.1c.031-.012.049,0,.053.031l.236,1.472a.061.061,0,0,1-.043.071A4.565,4.565,0,0,1,22.242,8" transform="translate(22.018 1.909)" fill="#76787b"/>
        <path id="Trazado_67178" data-name="Trazado 67178" d="M28.174,8.086a.027.027,0,0,0-.033-.022l-.016.008c-1.386,1.543-4.341.8-4.073-1.568.21-1.863,2.316-2.288,3.849-2.277a.081.081,0,0,0,.082-.08v-.01c-.159-1.4-2.334-.75-3.046-.359-.027.014-.043.006-.051-.022l-.365-1.28a.063.063,0,0,1,.035-.073,5.744,5.744,0,0,1,3.005-.536c1.8.169,2.522,1.223,2.53,2.96a31.3,31.3,0,0,0,.092,3.863c0,.024-.008.037-.035.037h-1.8a.056.056,0,0,1-.063-.053ZM26.4,7.218a1.031,1.031,0,0,0,1.286-.126c.44-.381.363-.9.343-1.5,0-.027-.014-.039-.041-.041a2.132,2.132,0,0,0-1.725.55A.835.835,0,0,0,26.4,7.218" transform="translate(24.967 1.912)" fill="#76787b"/>
        <path id="Trazado_67179" data-name="Trazado 67179" d="M29.1,2.709a.946.946,0,1,1-1-.871.936.936,0,0,1,1,.871m-.928.767a.715.715,0,1,0-.707-.7.7.7,0,0,0,.707.7" transform="translate(28.262 1.909)" fill="#76787b"/>
        <path id="Trazado_67180" data-name="Trazado 67180" d="M15.259,6.962h3.125A.04.04,0,0,1,18.423,7V8.6a.043.043,0,0,1-.049.049H12.619a.037.037,0,0,1-.039-.039V7.464a.112.112,0,0,1,.024-.071c1.017-1.27,1.988-2.559,3.121-3.764.027-.031.02-.045-.02-.045H12.861a.05.05,0,0,1-.049-.049V1.973c0-.039.018-.059.057-.059h5.417a.039.039,0,0,1,.039.039V3.137A.1.1,0,0,1,18.3,3.2c-1,1.258-1.976,2.536-3.06,3.725-.022.024-.016.037.016.037" transform="translate(13.068 1.988)" fill="#76787b"/>
        <path id="Trazado_67181" data-name="Trazado 67181" d="M28.155,2.585a.736.736,0,0,1,.13.4.037.037,0,0,1-.041.041H28.1a.059.059,0,0,1-.059-.047l-.069-.271a.127.127,0,0,0-.251.033v.236a.043.043,0,0,1-.049.049h-.126c-.039,0-.057-.02-.057-.059V2.136a.041.041,0,0,1,.037-.045c.23-.051.752-.09.744.243,0,.092-.049.128-.11.188a.045.045,0,0,0-.008.063m-.43-.318v.181a.037.037,0,0,0,.037.037h.057c.11,0,.2-.051.2-.112V2.342c0-.061-.088-.11-.2-.112h-.057a.037.037,0,0,0-.037.037" transform="translate(28.558 2.137)" fill="#76787b"/>
        <path id="Trazado_67182" data-name="Trazado 67182" d="M21.282,8.349a1.219,1.219,0,0,1-.122-2.318,1.319,1.319,0,0,1,1.392.255.041.041,0,0,1,0,.069l-.361.345a.045.045,0,0,1-.069,0,.713.713,0,0,0-.389-.173c-1.142-.139-.7,2.014.453,1.066a.04.04,0,0,1,.057.006l.338.383a.043.043,0,0,1,0,.063,1.422,1.422,0,0,1-1.3.3" transform="translate(21.164 6.167)" fill="#76787b"/>
        <path id="Trazado_67183" data-name="Trazado 67183" d="M24.689,7.268a1.105,1.105,0,0,1-1.113,1.1h-.355a1.11,1.11,0,0,1-1.1-1.113l0-.214a1.107,1.107,0,0,1,1.113-1.1l.355,0a1.109,1.109,0,0,1,1.1,1.113ZM23.382,7.8a.651.651,0,1,0-.6-.671.639.639,0,0,0,.6.671" transform="translate(22.976 6.171)" fill="#76787b"/>
        <path id="Trazado_67184" data-name="Trazado 67184" d="M12.634,5.961h.589a.045.045,0,0,1,.045.045V8.265a.046.046,0,0,1-.045.047h-.589a.046.046,0,0,1-.045-.047V6.006a.045.045,0,0,1,.045-.045" transform="translate(13.077 6.192)" fill="#76787b"/>
        <path id="Trazado_67185" data-name="Trazado 67185" d="M14.679,7.151l-.006-1.14a.045.045,0,0,1,.049-.051h.593A.035.035,0,0,1,15.354,6V8.262a.043.043,0,0,1-.049.049h-.477a.1.1,0,0,1-.08-.039l-.879-1.14a.02.02,0,0,0-.029,0,.021.021,0,0,0-.01.018l.014,1.113a.045.045,0,0,1-.051.051h-.585a.043.043,0,0,1-.049-.049V6.019a.053.053,0,0,1,.059-.059h.467a.085.085,0,0,1,.065.033l.9,1.166c.018.022.027.02.027-.008" transform="translate(13.67 6.191)" fill="#76787b"/>
        <path id="Trazado_67186" data-name="Trazado 67186" d="M15.019,6.524h-.6a.039.039,0,0,1-.039-.039V6a.037.037,0,0,1,.039-.039h1.961A.039.039,0,0,1,16.418,6v.485a.04.04,0,0,1-.039.039h-.6a.04.04,0,0,0-.039.039V8.271a.037.037,0,0,1-.039.039h-.6a.039.039,0,0,1-.039-.039V6.562a.04.04,0,0,0-.039-.039" transform="translate(14.937 6.192)" fill="#76787b"/>
        <path id="Trazado_67187" data-name="Trazado 67187" d="M16.183,7.437v.251a.041.041,0,0,0,.041.041h1.142a.041.041,0,0,1,.041.041v.5a.041.041,0,0,1-.041.043h-1.8a.041.041,0,0,1-.041-.043V6a.041.041,0,0,1,.041-.041h1.743A.041.041,0,0,1,17.347,6v.5a.041.041,0,0,1-.041.041H16.223a.041.041,0,0,0-.041.041v.228a.041.041,0,0,0,.041.041h1.026a.041.041,0,0,1,.041.041V7.36a.041.041,0,0,1-.041.041l-1.026,0a.041.041,0,0,0-.041.041" transform="translate(16.124 6.192)" fill="#76787b"/>
        <path id="Trazado_67188" data-name="Trazado 67188" d="M17.317,7.656v.626a.035.035,0,0,1-.039.039h-.6a.035.035,0,0,1-.039-.039V6.011a.035.035,0,0,1,.039-.039c.687,0,2.025-.236,2,.869a.684.684,0,0,1-.436.63.035.035,0,0,0-.012.045l0,0,.553.73a.043.043,0,0,1-.008.063.041.041,0,0,1-.027.008H18.1a.073.073,0,0,1-.063-.033l-.5-.7a.119.119,0,0,0-.216.069m0-1.105,0,.473a.038.038,0,0,0,.037.037h.408a.255.255,0,0,0,.257-.251V6.771a.252.252,0,0,0-.255-.255l-.408,0a.037.037,0,0,0-.037.037" transform="translate(17.281 6.181)" fill="#76787b"/>
        <path id="Trazado_67189" data-name="Trazado 67189" d="M19.379,7.119V5.988a.027.027,0,0,1,.027-.027h.626a.027.027,0,0,1,.027.027v2.3a.027.027,0,0,1-.027.027h-.54l-.022-.01-.9-1.156a.029.029,0,0,0-.039-.006.033.033,0,0,0-.01.022V8.283a.027.027,0,0,1-.027.027h-.626a.027.027,0,0,1-.027-.027v-2.3a.027.027,0,0,1,.027-.027h.54a.026.026,0,0,1,.022.01l.9,1.164a.029.029,0,0,0,.039.006l.01-.022" transform="translate(18.538 6.192)" fill="#76787b"/>
        <path id="Trazado_67190" data-name="Trazado 67190" d="M20.88,7.922h-.97a.038.038,0,0,0-.035.022l-.128.343a.038.038,0,0,1-.035.022h-.646a.037.037,0,0,1-.037-.037l0-.014,1.021-2.275a.033.033,0,0,1,.033-.022h.632a.035.035,0,0,1,.033.022l1.017,2.275a.037.037,0,0,1-.018.049l-.014,0h-.644a.036.036,0,0,1-.035-.022l-.145-.343a.033.033,0,0,0-.033-.022m-.744-.6a.026.026,0,0,0,.016.035l.008,0h.479a.03.03,0,0,0,.027-.029l0-.008-.239-.61a.026.026,0,0,0-.035-.016l-.016.016Z" transform="translate(19.767 6.192)" fill="#76787b"/>
        <path id="Trazado_67191" data-name="Trazado 67191" d="M21.653,5.961h.589a.045.045,0,0,1,.045.045V8.265a.046.046,0,0,1-.045.047h-.589a.047.047,0,0,1-.047-.047V6.006a.047.047,0,0,1,.047-.045" transform="translate(22.444 6.192)" fill="#76787b"/>
        <path id="Trazado_67192" data-name="Trazado 67192" d="M24.213,8.31h-.632a.023.023,0,0,1-.022-.024v-2.3a.023.023,0,0,1,.022-.024h.542l.018.008.9,1.172a.023.023,0,0,0,.033,0l.01-.018-.02-1.142a.022.022,0,0,1,.022-.024h.638a.025.025,0,0,1,.024.024v2.3a.025.025,0,0,1-.024.024H25.2l-.02-.01-.9-1.162a.023.023,0,0,0-.033,0l-.01.018V8.285a.024.024,0,0,1-.024.024" transform="translate(24.473 6.192)" fill="#76787b"/>
        <path id="Trazado_67193" data-name="Trazado 67193" d="M26.593,7.922h-.968a.039.039,0,0,0-.037.022l-.135.343a.036.036,0,0,1-.035.022h-.638a.037.037,0,0,1-.039-.037l0-.016,1.017-2.273a.038.038,0,0,1,.035-.022h.63a.038.038,0,0,1,.035.022l1.019,2.273a.04.04,0,0,1-.018.051l-.016,0H26.8a.038.038,0,0,1-.035-.022l-.135-.343a.038.038,0,0,0-.035-.022m-.75-.6a.027.027,0,0,0,.014.035l.01,0,.489,0a.027.027,0,0,0,.027-.027l0-.01-.247-.6a.029.029,0,0,0-.035-.014l-.014.014Z" transform="translate(25.701 6.192)" fill="#76787b"/>
        <path id="Trazado_67194" data-name="Trazado 67194" d="M26.907,7.727h1.028a.039.039,0,0,1,.039.039v.5a.039.039,0,0,1-.039.041H26.228a.041.041,0,0,1-.041-.041V6a.039.039,0,0,1,.041-.039h.6A.039.039,0,0,1,26.868,6V7.688a.039.039,0,0,0,.039.039" transform="translate(27.203 6.192)" fill="#76787b"/>
      </g>
    </g>
  </g>
</svg>
