<svg xmlns="http://www.w3.org/2000/svg" xmlns:xlink="http://www.w3.org/1999/xlink" width="85" height="85" viewBox="0 0 85 85">
  <defs>
    <filter id="Rect치ngulo_18132" x="0" y="0" width="85" height="85" filterUnits="userSpaceOnUse">
      <feOffset dy="3" input="SourceAlpha"/>
      <feGaussianBlur stdDeviation="3" result="blur"/>
      <feFlood flood-opacity="0.161"/>
      <feComposite operator="in" in2="blur"/>
      <feComposite in="SourceGraphic"/>
    </filter>
  </defs>
  <g id="Grupo_18850" data-name="Grupo 18850" transform="translate(-961 -1662)">
    <g transform="matrix(1, 0, 0, 1, 961, 1662)" filter="url(#Rect치ngulo_18132)">
      <rect id="Rect치ngulo_18132-2" data-name="Rect치ngulo 18132" width="67" height="67" rx="10" transform="translate(9 6)" fill="#fff"/>
    </g>
    <g id="BABY_FIRST" data-name="BABY FIRST" transform="translate(978 1689)">
      <g id="Grupo_18302" data-name="Grupo 18302" transform="translate(0 0)">
        <g id="Grupo_18298" data-name="Grupo 18298" transform="translate(19.012)">
          <path id="Trazado_40373" data-name="Trazado 40373" d="M323.444,47.692a4.037,4.037,0,0,0-1.294-.611,1.754,1.754,0,0,0,.386-1.483,2.886,2.886,0,0,0-.557-1.1,2.61,2.61,0,0,0-.243-.279,4.03,4.03,0,0,1,1.213-.89,2.407,2.407,0,0,1,.386-.162,2.188,2.188,0,0,1,2,.135,1.934,1.934,0,0,1,.863,1.671,2.72,2.72,0,0,1-.53,1.842,2.323,2.323,0,0,1-1.573.827A4.691,4.691,0,0,1,323.444,47.692Z" transform="translate(-312.612 -39.238)" fill="#65b462" fill-rule="evenodd"/>
          <path id="Trazado_40374" data-name="Trazado 40374" d="M297.036,92.816a4.378,4.378,0,0,0-.27-1.878,3.706,3.706,0,0,0,.44-.027,3.168,3.168,0,0,0,1.851-.881q.063-.063.126-.135.1-.108.18-.216a4.037,4.037,0,0,1,1.294.611q.135.1.261.207a2.176,2.176,0,0,1,.872,1.8,1.943,1.943,0,0,1-1.016,1.582,2.714,2.714,0,0,1-1.851.458,2.3,2.3,0,0,1-1.51-.944A4.332,4.332,0,0,1,297.036,92.816Z" transform="translate(-289.826 -81.837)" fill="#125ea9" fill-rule="evenodd"/>
          <path id="Trazado_40375" data-name="Trazado 40375" d="M290.064,3.664a4.093,4.093,0,0,1-.135-1.429,2.706,2.706,0,0,1,.045-.377A2.186,2.186,0,0,1,291.088.2a1.938,1.938,0,0,1,1.887.09A2.661,2.661,0,0,1,294.3,1.669a2.277,2.277,0,0,1-.063,1.779,6.5,6.5,0,0,1-.324.647,4.03,4.03,0,0,0-1.213.89q-.162-.162-.341-.323a3.951,3.951,0,0,0-1.878-.935,2.749,2.749,0,0,0-.377-.063Z" transform="translate(-283.572 0)" fill="#fde383" fill-rule="evenodd"/>
          <path id="Trazado_40376" data-name="Trazado 40376" d="M237.841,12.5a4.267,4.267,0,0,1-1.1-.548q-.144-.108-.27-.216a2.176,2.176,0,0,1-.881-1.788,1.923,1.923,0,0,1,1.016-1.591,2.652,2.652,0,0,1,1.851-.458,2.278,2.278,0,0,1,1.51.944,4.192,4.192,0,0,1,.386.575,4.091,4.091,0,0,0,.135,1.429,2.41,2.41,0,0,0-2.139.845,2.712,2.712,0,0,0-.323.431A1.85,1.85,0,0,0,237.841,12.5Z" transform="translate(-234 -7.187)" fill="#f89b34" fill-rule="evenodd"/>
          <path id="Trazado_40377" data-name="Trazado 40377" d="M220.144,54.537a4.268,4.268,0,0,0,1.1.548,2.377,2.377,0,0,0-.108,1.393,2.67,2.67,0,0,0,.53,1.177,2.8,2.8,0,0,0,.261.279,4.31,4.31,0,0,1-1.321.989,3.551,3.551,0,0,1-.35.144,2.2,2.2,0,0,1-1.986-.135,1.942,1.942,0,0,1-.863-1.681,2.652,2.652,0,0,1,.521-1.833,2.309,2.309,0,0,1,1.573-.836A4.705,4.705,0,0,1,220.144,54.537Z" transform="translate(-217.399 -49.768)" fill="#ee4633" fill-rule="evenodd"/>
          <path id="Trazado_40378" data-name="Trazado 40378" d="M248.655,94.368a4.31,4.31,0,0,0,1.321-.989,3.2,3.2,0,0,0,.539.413,3.4,3.4,0,0,0,1.546.512q.162.009.333.009a4.379,4.379,0,0,1,.27,1.878,3.632,3.632,0,0,1-.054.368,2.216,2.216,0,0,1-1.114,1.654,1.92,1.92,0,0,1-1.878-.09,2.7,2.7,0,0,1-1.33-1.375,2.3,2.3,0,0,1,.072-1.779A4.321,4.321,0,0,1,248.655,94.368Z" transform="translate(-245.453 -85.213)" fill="#f38eb0" fill-rule="evenodd"/>
          <g id="Grupo_18288" data-name="Grupo 18288" transform="translate(3.676 3.651)">
            <path id="Trazado_40379" data-name="Trazado 40379" d="M265.128,43.365a2.888,2.888,0,0,1,.557,1.1,1.754,1.754,0,0,1-.386,1.483q-.081.108-.18.216-.063.072-.126.135a3.168,3.168,0,0,1-1.851.881,3.705,3.705,0,0,1-.44.027q-.171,0-.332-.009a3.4,3.4,0,0,1-1.546-.512,3.2,3.2,0,0,1-.539-.413,2.814,2.814,0,0,1-.261-.279,2.669,2.669,0,0,1-.53-1.177,2.377,2.377,0,0,1,.108-1.393,1.852,1.852,0,0,1,.189-.377,2.709,2.709,0,0,1,.323-.431,2.41,2.41,0,0,1,2.139-.845h.036a2.75,2.75,0,0,1,.377.063,3.951,3.951,0,0,1,1.878.935q.18.162.342.323A2.62,2.62,0,0,1,265.128,43.365Z" transform="translate(-259.437 -41.753)" fill="#fcdfc0" fill-rule="evenodd"/>
          </g>
          <g id="Grupo_18297" data-name="Grupo 18297" transform="translate(5.685 3.574)">
            <g id="Grupo_18290" data-name="Grupo 18290" transform="translate(1.207 2.447)">
              <g id="Grupo_18289" data-name="Grupo 18289">
                <path id="Trazado_40380" data-name="Trazado 40380" d="M296.874,69.5a.622.622,0,0,1-.27.265.272.272,0,0,1-.279.022.294.294,0,0,1-.126-.256.7.7,0,0,1,.1-.364.666.666,0,0,1,.261-.27.285.285,0,0,1,.288-.014.282.282,0,0,1,.121.247A.672.672,0,0,1,296.874,69.5Z" transform="translate(-296.2 -68.856)" fill="#58230d" fill-rule="evenodd"/>
              </g>
            </g>
            <g id="Grupo_18292" data-name="Grupo 18292" transform="translate(0.047 1.944)">
              <g id="Grupo_18291" data-name="Grupo 18291">
                <path id="Trazado_40381" data-name="Trazado 40381" d="M283.348,64.019a.277.277,0,0,1-.279.018.294.294,0,0,1-.126-.256.7.7,0,0,1,.1-.364.666.666,0,0,1,.26-.27.285.285,0,0,1,.288-.013.282.282,0,0,1,.121.247.67.67,0,0,1-.1.368A.617.617,0,0,1,283.348,64.019Z" transform="translate(-282.944 -63.101)" fill="#58230d" fill-rule="evenodd"/>
              </g>
            </g>
            <g id="Grupo_18294" data-name="Grupo 18294" transform="translate(0 3.218)">
              <g id="Grupo_18293" data-name="Grupo 18293">
                <path id="Trazado_40382" data-name="Trazado 40382" d="M282.794,78.379a.724.724,0,0,1-.394-.7.015.015,0,0,1,.029-.008,1.165,1.165,0,0,0,1.283.527.015.015,0,0,1,.009.029A1.03,1.03,0,0,1,282.794,78.379Z" transform="translate(-282.401 -77.665)" fill="#ef6832" fill-rule="evenodd"/>
              </g>
            </g>
            <g id="Grupo_18296" data-name="Grupo 18296" transform="translate(1.557)">
              <g id="Grupo_18295" data-name="Grupo 18295">
                <path id="Trazado_40383" data-name="Trazado 40383" d="M300.531,42.309a.837.837,0,0,1-.26-.047.09.09,0,0,1,.056-.171.449.449,0,0,0,.34.008.35.35,0,0,0,.162-.221.421.421,0,0,0,.013-.058.57.57,0,0,1-.45-.075.256.256,0,0,1-.085-.21.258.258,0,0,1,.111-.232.351.351,0,0,1,.339.038l.009.005a.586.586,0,0,1,.222.247.207.207,0,0,0,.09-.095.568.568,0,0,0-.066-.429l-.035-.07a.09.09,0,1,1,.161-.08l.036.072,0,0a.708.708,0,0,1,.066.579.4.4,0,0,1-.216.2.57.57,0,0,1-.026.158.527.527,0,0,1-.252.327A.475.475,0,0,1,300.531,42.309Zm0-.854a.045.045,0,0,0-.021,0c-.007,0-.021.027-.022.083a.078.078,0,0,0,.023.069c.022.019.093.056.3.033a.426.426,0,0,0-.141-.144A.338.338,0,0,0,300.531,41.455Z" transform="translate(-300.209 -40.87)" fill="#58230d"/>
              </g>
            </g>
          </g>
        </g>
        <g id="Grupo_18301" data-name="Grupo 18301" transform="translate(0 13.938)">
          <path id="Trazado_40384" data-name="Trazado 40384" d="M161.4,164.721a2.873,2.873,0,0,0-2.7-.136,2.834,2.834,0,0,0-.265.145v-1.767a.871.871,0,0,0-.261-.643.887.887,0,0,0-1.517.643v4.44a3.114,3.114,0,0,0,.408,1.573,3.019,3.019,0,0,0,2.663,1.526,3.094,3.094,0,0,0,1.564-.408,2.96,2.96,0,0,0,1.115-1.12,3.145,3.145,0,0,0,.4-1.571,3.311,3.311,0,0,0-.372-1.561A2.86,2.86,0,0,0,161.4,164.721Zm-2.825,1.938a1.29,1.29,0,0,1,.476-.5,1.355,1.355,0,0,1,1.356,0,1.327,1.327,0,0,1,.483.506,1.492,1.492,0,0,1,.18.74,1.517,1.517,0,0,1-.181.746,1.315,1.315,0,0,1-.482.51,1.3,1.3,0,0,1-1.831-.507,1.547,1.547,0,0,1-.178-.749A1.525,1.525,0,0,1,158.577,166.659Z" transform="translate(-142.96 -161.837)" fill="#f89b34"/>
          <path id="Trazado_40385" data-name="Trazado 40385" d="M4.742,164.721a2.775,2.775,0,0,0-1.476-.409,2.8,2.8,0,0,0-1.221.272,2.834,2.834,0,0,0-.265.145v-1.767a.871.871,0,0,0-.261-.643.885.885,0,0,0-.628-.246.879.879,0,0,0-.638.251.88.88,0,0,0-.251.638v4.44a3.114,3.114,0,0,0,.408,1.573A3.019,3.019,0,0,0,3.07,170.5a3.094,3.094,0,0,0,1.564-.408,2.96,2.96,0,0,0,1.115-1.12,3.145,3.145,0,0,0,.4-1.571,3.311,3.311,0,0,0-.372-1.561A2.861,2.861,0,0,0,4.742,164.721Zm-2.825,1.938a1.289,1.289,0,0,1,.476-.5,1.274,1.274,0,0,1,.678-.182,1.274,1.274,0,0,1,.678.182,1.327,1.327,0,0,1,.483.506,1.492,1.492,0,0,1,.18.74,1.516,1.516,0,0,1-.181.746,1.315,1.315,0,0,1-.482.51,1.273,1.273,0,0,1-.678.182,1.274,1.274,0,0,1-1.153-.688,1.548,1.548,0,0,1-.178-.749A1.524,1.524,0,0,1,1.916,166.659Z" transform="translate(0 -161.837)" fill="#125ea9"/>
          <path id="Trazado_40386" data-name="Trazado 40386" d="M308.936,161.058a.908.908,0,0,0,.618-.227.829.829,0,0,0,0-1.227.907.907,0,0,0-.617-.227,2.659,2.659,0,0,0-1.339.339,2.382,2.382,0,0,0-.93.964,2.841,2.841,0,0,0-.317,1.17h-.033a.861.861,0,0,0-.6.221.793.793,0,0,0-.253.6.771.771,0,0,0,.252.58.862.862,0,0,0,.6.221h.026v3.66a.869.869,0,0,0,.261.643.86.86,0,0,0,.609.247.9.9,0,0,0,.657-.251.88.88,0,0,0,.251-.638v-3.66h.6a.862.862,0,0,0,.6-.221.771.771,0,0,0,.253-.581.794.794,0,0,0-.253-.6.862.862,0,0,0-.6-.221h-.6a.9.9,0,0,1,.222-.559A.742.742,0,0,1,308.936,161.058Z" transform="translate(-278.752 -159.377)" fill="#125ea9"/>
          <g id="Grupo_18299" data-name="Grupo 18299" transform="translate(31.606 0)">
            <path id="Trazado_40387" data-name="Trazado 40387" d="M362.4,159.377a.884.884,0,1,0,.62.259A.861.861,0,0,0,362.4,159.377Z" transform="translate(-361.508 -159.377)" fill="#65b462"/>
            <path id="Trazado_40388" data-name="Trazado 40388" d="M362.292,187.729a.9.9,0,0,0-.628.238.826.826,0,0,0-.261.621v4.446a.831.831,0,0,0,.256.612.939.939,0,0,0,1.276,0,.84.84,0,0,0,.247-.607v-4.446a.837.837,0,0,0-.252-.617A.9.9,0,0,0,362.292,187.729Z" transform="translate(-361.403 -185.25)" fill="#65b462"/>
          </g>
          <path id="Trazado_40389" data-name="Trazado 40389" d="M399.622,187.882a2.09,2.09,0,0,0-.993-.2,2.582,2.582,0,0,0-1.392.4.84.84,0,0,0-.73-.341.83.83,0,0,0-.88.88v4.353a.861.861,0,0,0,.247.648.878.878,0,0,0,.633.231.862.862,0,0,0,.648-.247.881.881,0,0,0,.231-.633v-2.843a.633.633,0,0,1,.271-.552,1.467,1.467,0,0,1,.894-.243,3.476,3.476,0,0,1,.556.06,1.148,1.148,0,0,0,.223.027.77.77,0,0,0,.766-.592.705.705,0,0,0,.026-.21A.825.825,0,0,0,399.622,187.882Z" transform="translate(-361.028 -185.205)" fill="#f89b34"/>
          <path id="Trazado_40390" data-name="Trazado 40390" d="M516.911,172.621h0a.774.774,0,0,0-.59-.267h-.331a.261.261,0,0,1-.221-.118.615.615,0,0,1-.126-.4v-2.268h.435a.862.862,0,0,0,.6-.221.771.771,0,0,0,.253-.581.793.793,0,0,0-.253-.6.862.862,0,0,0-.6-.221h-.435V166.93a.88.88,0,1,0-1.759,0v1.009h-.055a.861.861,0,0,0-.6.221.794.794,0,0,0-.253.6.771.771,0,0,0,.253.581.862.862,0,0,0,.6.221h.055v2.268a2.445,2.445,0,0,0,.269,1.146,2.122,2.122,0,0,0,.757.827,2,2,0,0,0,1.081.309h.175a1,1,0,0,0,.668-.23.828.828,0,0,0,.3-.65A.9.9,0,0,0,516.911,172.621Z" transform="translate(-468.117 -165.466)" fill="#125ea9"/>
          <path id="Trazado_40391" data-name="Trazado 40391" d="M234.979,187.759a.953.953,0,0,0-.386-.079.786.786,0,0,0-.739.516l-1.231,2.775-1.409-2.8a.825.825,0,0,0-.76-.49.87.87,0,0,0-.359.075.905.905,0,0,0-.358.291.81.81,0,0,0-.059.852l2.1,3.989-.893,2.009a.908.908,0,0,0-.1.4.785.785,0,0,0,.53.741.983.983,0,0,0,.388.09.786.786,0,0,0,.742-.543l2.978-6.7a.982.982,0,0,0,.09-.388A.787.787,0,0,0,234.979,187.759Z" transform="translate(-209.508 -185.205)" fill="#ee4633"/>
          <path id="Trazado_40392" data-name="Trazado 40392" d="M82.967,188.089h0a3.045,3.045,0,0,0-1.556-.409,3.1,3.1,0,0,0-1.564.408,2.959,2.959,0,0,0-1.115,1.121,3.144,3.144,0,0,0-.4,1.571,3.306,3.306,0,0,0,.372,1.561,2.857,2.857,0,0,0,1.037,1.12,2.873,2.873,0,0,0,2.7.137,2.831,2.831,0,0,0,.371-.214.89.89,0,0,0,1.673-.432V190.78a3.115,3.115,0,0,0-.408-1.573A3.019,3.019,0,0,0,82.967,188.089Zm-.4,3.433a1.289,1.289,0,0,1-.476.5,1.354,1.354,0,0,1-1.356,0,1.324,1.324,0,0,1-.483-.507,1.49,1.49,0,0,1-.18-.74,1.517,1.517,0,0,1,.181-.746,1.317,1.317,0,0,1,.482-.51,1.3,1.3,0,0,1,1.831.506,1.55,1.55,0,0,1,.178.75A1.522,1.522,0,0,1,82.564,191.522Z" transform="translate(-71.48 -185.205)" fill="#65b462"/>
          <path id="Trazado_40393" data-name="Trazado 40393" d="M457.075,190.9a1.7,1.7,0,0,0-.473-.49,7.558,7.558,0,0,0-1.94-.6c-.114-.038-.245-.112-.239-.232.005-.1.1-.164.2-.2a1.4,1.4,0,0,1,1.139.158,2.262,2.262,0,0,0,.457.235.8.8,0,0,0,.867-.328.88.88,0,0,0,.032-.874,1.591,1.591,0,0,0-.7-.564,3.024,3.024,0,0,0-1.549-.321,2.382,2.382,0,0,0-1.656.724,1.819,1.819,0,0,0,.556,2.838,13.947,13.947,0,0,0,1.643.44c.136.047.294.158.252.3a.273.273,0,0,1-.171.149,1.342,1.342,0,0,1-1.2-.088,4.224,4.224,0,0,0-.475-.306.811.811,0,0,0-1.111.939,1.241,1.241,0,0,0,.522.674,3,3,0,0,0,1.751.518,2.579,2.579,0,0,0,1.814-.672,1.908,1.908,0,0,0,.558-1.443A1.789,1.789,0,0,0,457.075,190.9Z" transform="translate(-413.099 -185.204)" fill="#ee4633"/>
          <g id="Grupo_18300" data-name="Grupo 18300" transform="translate(49.301 0.584)">
            <path id="Trazado_40394" data-name="Trazado 40394" d="M564.693,166.079a.093.093,0,0,1,0,.141.11.11,0,0,1-.077.029h-.272v.772a.1.1,0,0,1-.032.075.121.121,0,0,1-.16,0,.1.1,0,0,1-.032-.075v-.772h-.275a.1.1,0,0,1-.075-.029.1.1,0,0,1,0-.141.1.1,0,0,1,.075-.029h.772A.11.11,0,0,1,564.693,166.079Zm1.232-.029a.133.133,0,0,1,.085.029.09.09,0,0,1,.037.074v.867a.1.1,0,0,1-.034.074.117.117,0,0,1-.159,0,.1.1,0,0,1-.032-.075v-.528l-.282.512a.094.094,0,0,1-.093.054.123.123,0,0,1-.061-.016.113.113,0,0,1-.045-.045l-.275-.5v.522a.1.1,0,0,1-.032.075.121.121,0,0,1-.16,0,.1.1,0,0,1-.032-.075v-.867a.09.09,0,0,1,.037-.074.133.133,0,0,1,.085-.029.109.109,0,0,1,.1.054l.384.682.371-.682A.106.106,0,0,1,565.925,166.05Z" transform="translate(-563.739 -166.05)" fill="#f89b34"/>
          </g>
        </g>
      </g>
    </g>
  </g>
</svg>
