<svg xmlns="http://www.w3.org/2000/svg" xmlns:xlink="http://www.w3.org/1999/xlink" width="85" height="85" viewBox="0 0 85 85">
  <defs>
    <filter id="Rect치ngulo_18109" x="0" y="0" width="85" height="85" filterUnits="userSpaceOnUse">
      <feOffset dy="3" input="SourceAlpha"/>
      <feGaussianBlur stdDeviation="3" result="blur"/>
      <feFlood flood-opacity="0.161"/>
      <feComposite operator="in" in2="blur"/>
      <feComposite in="SourceGraphic"/>
    </filter>
  </defs>
  <g id="Grupo_18843" data-name="Grupo 18843" transform="translate(-787 -1582)">
    <g transform="matrix(1, 0, 0, 1, 787, 1582)" filter="url(#Rect치ngulo_18109)">
      <rect id="Rect치ngulo_18109-2" data-name="Rect치ngulo 18109" width="67" height="67" rx="10" transform="translate(9 6)" fill="#fff"/>
    </g>
    <g id="_296_Baby_TV_Color" data-name="296 Baby TV Color" transform="translate(808 1605)">
      <g id="Grupo_18257" data-name="Grupo 18257" transform="translate(0 0)">
        <path id="Trazado_40257" data-name="Trazado 40257" d="M33.667,27.081l.593-1.534,2.57-.338-.691,1.872h.743l-.254.7h-.721l-.787,2.176c-.128.338.106.653.419.492a3.05,3.05,0,0,0,.875-.96l.2-.408.589.237a4.231,4.231,0,0,1-1.74,2.067,2.021,2.021,0,0,1-2.578-.019,1.577,1.577,0,0,1-.219-1.409c.115-.381.767-2.176.767-2.176H32.8l.222-.7h.65" transform="translate(-1.692 -1.308)" fill="#f9830a"/>
        <path id="Trazado_40258" data-name="Trazado 40258" d="M38.684,27.154h2.509s-.853,2.234-1.007,2.683-.015.847.426.639a3.238,3.238,0,0,0,.87-.707,3.083,3.083,0,0,1,.172-1.678c.369-.937.876-1.192,1.169-.981s.455.88-.074,1.915a5.31,5.31,0,0,1-2.261,2.407,2.238,2.238,0,0,1-2.405.1c-.619-.4-.465-1.339-.315-1.766s.917-2.615.917-2.615" transform="translate(-1.954 -1.404)" fill="#f9830a"/>
        <path id="Trazado_40259" data-name="Trazado 40259" d="M11.008,29.571a2.428,2.428,0,0,0-1.422-1.618,2.477,2.477,0,0,0-.535-.228s1.4-.364,1.281-1.306S9.2,24.6,6.816,24.519s-6.3.152-6.764,2.262a1.563,1.563,0,0,0,1.933,1.909.694.694,0,0,0,.412-.624s-1.195-.728-.511-1.752A2.019,2.019,0,0,1,3.422,25.3a7.824,7.824,0,0,0-.272,1.463c-.061.762-.033,1.951-.033,2.44a6.238,6.238,0,0,1-.1,1.44,1.653,1.653,0,0,1-.295.513,3.746,3.746,0,0,0,1.987.4,2.32,2.32,0,0,0,1.366-.593,4.4,4.4,0,0,0,2.807.593c1.564-.228,2.324-.964,2.126-1.984m-3.729.789A1.062,1.062,0,1,1,8.346,29.3,1.062,1.062,0,0,1,7.279,30.359Zm0-3.037a1.061,1.061,0,1,1,1.067-1.062A1.061,1.061,0,0,1,7.279,27.323Z" transform="translate(0 -1.272)" fill="#c2021b"/>
        <path id="Trazado_40260" data-name="Trazado 40260" d="M28.2,27.63v2.6c0,.4.22.547.407.547s.467-.343.557-.767.062-2.345.062-2.345a1.045,1.045,0,0,1,.933-.461,2.893,2.893,0,0,1,1.342.426s-.05,3.637-.05,4.6a2.26,2.26,0,0,1-2.47,2.526c-2.141,0-3.079-1.235-2.605-1.915s1.574-.148,1.755.211c.2.363.2.685.069.83l-.25.144s.657.227.939-.161a1.792,1.792,0,0,0,.291-1.105V31.418a1.783,1.783,0,0,1-1.383.571,1.841,1.841,0,0,1-1.869-1.7V27.63A1.281,1.281,0,0,1,27,27.184a1.659,1.659,0,0,1,1.191.446" transform="translate(-1.346 -1.411)" fill="#c2021b"/>
        <path id="Trazado_40261" data-name="Trazado 40261" d="M18.5,30.371c-.259,0-.54-.363-.515-.989s.054-2.185.054-2.185a1.98,1.98,0,0,0-1.208-.259c-.831.016-1.028.233-1.028.233l-.059.451a2.6,2.6,0,0,0-3.044-.07,1.947,1.947,0,0,0-.552,2.465,2.974,2.974,0,0,0,1.741,1.453c1.661.4,2.224-.583,2.224-.583a2.514,2.514,0,0,0,1.784.683c1.025-.089.852-1.2.6-1.2m-4.988-.252a1.063,1.063,0,1,1,1.071-1.063A1.073,1.073,0,0,1,13.514,30.119Z" transform="translate(-0.62 -1.398)" fill="#c2021b"/>
        <path id="Trazado_40262" data-name="Trazado 40262" d="M24.438,27.685a2.218,2.218,0,0,0-3.02-.291V24.731a2.4,2.4,0,0,0-1.195-.485,1.407,1.407,0,0,0-1.069.445s-.043,2.38-.043,3.19-.338,3.283,2.685,3.559c1.746.155,2.793-.354,3.223-1.22a2.134,2.134,0,0,0-.582-2.535m-1.075,2.294a1.063,1.063,0,1,1,1.068-1.063A1.073,1.073,0,0,1,23.363,29.979Z" transform="translate(-0.992 -1.258)" fill="#c2021b"/>
        <path id="Trazado_40263" data-name="Trazado 40263" d="M18.116,19.457c-.239.209-5.768,3.9-7.9,3.521-1.129-.2-1.459-1.141-1.459-2.333a12.6,12.6,0,0,1,.132-1.59,3.565,3.565,0,0,1,2.155-2.589l.031.017a11.454,11.454,0,0,0,2.984,1.152c.381.109.785.216,1.215.313a18.243,18.243,0,0,0,3.322.492,2.978,2.978,0,0,1-.478,1.017m1.212-2.376a6.035,6.035,0,0,1-.584,1A30.756,30.756,0,0,1,14,17.268a17.691,17.691,0,0,1-2.744-1.078l-.221-.14-.877-.565c-1.8-1.168-3.406-2.192-3.406-4.368a6.274,6.274,0,0,1,.206-1.469c.57-2.191,1.361-3.578,2.289-4.016a1.666,1.666,0,0,1,1.477.047A10.911,10.911,0,0,1,13.377,7.52a29.2,29.2,0,0,1,3.759,4.594c1.287,2.045,2.091,3.248,2.274,3.52l.045.071.03.465A2.293,2.293,0,0,1,19.327,17.081Zm1.155-2.291a1.245,1.245,0,0,1-.813.6c-.289-.468-1.156-1.924-2.689-4.2A21.33,21.33,0,0,0,13.7,7.352l.387-.722.093-.168A3.172,3.172,0,0,1,16.4,4.607c1.122-.1,2.522,2.765,2.977,3.893A50.137,50.137,0,0,1,20.5,14.635Z" transform="translate(-0.351 -0.239)" fill="#99c027"/>
        <path id="Trazado_40264" data-name="Trazado 40264" d="M15.036,11.863A3.148,3.148,0,1,0,11.9,15.014a3.149,3.149,0,0,0,3.141-3.151" transform="translate(-0.454 -0.452)" fill="#c1041c"/>
        <path id="Trazado_40265" data-name="Trazado 40265" d="M14.389,20.434a1.685,1.685,0,1,0-1.687,1.68,1.691,1.691,0,0,0,1.687-1.68" transform="translate(-0.572 -0.973)" fill="#c1041c"/>
        <path id="Trazado_40266" data-name="Trazado 40266" d="M18.588,13.144l0,0A3.759,3.759,0,0,0,19.231,11c0-1.743-1.065-3.153-2.39-3.153a2.114,2.114,0,0,0-1.589.795,27.835,27.835,0,0,1,3.336,4.507" transform="translate(-0.792 -0.407)" fill="#c1041c"/>
        <path id="Trazado_40267" data-name="Trazado 40267" d="M20.35,17.805l-.068.237-.235.488.486.406a2.716,2.716,0,0,1,.613.922,10.8,10.8,0,0,0,.276-1.3l-.5-.421-.573-.337" transform="translate(-1.041 -0.924)" fill="#c1041c"/>
        <path id="Trazado_40268" data-name="Trazado 40268" d="M20.466,16.527a5.3,5.3,0,0,1-.021.893l.27.181a3.1,3.1,0,0,1,.711.578,6.812,6.812,0,0,0,.139-1.056l-.556-.356-.544-.241" transform="translate(-1.061 -0.858)" fill="#c1041c"/>
        <path id="Trazado_40269" data-name="Trazado 40269" d="M29.708,3.229a.833.833,0,0,0-.833.835l.122.41a10.689,10.689,0,0,1-.931,1.294,6.5,6.5,0,0,1-.826.826,5.267,5.267,0,0,0-2.131-.822,11.408,11.408,0,0,1,.762-1.961,20.545,20.545,0,0,1,1-1.874l.18.019a.978.978,0,1,0-.985-.98l.105.511L24.388,5.708h-.144A4.88,4.88,0,0,0,20,8.022l-.008.066s.266,1.111.55,2.5.5,3.1.5,3.1a4.225,4.225,0,0,1,.031,1.073c-.092.285-.8.685-.8.685l-.006.062.02,0a4.424,4.424,0,0,1,1.008.427c.016-.493,0-.839,0-.952,0-.339.482-.852.482-.852a5.82,5.82,0,0,0,3.008.852c3.039,0,4.624-1.762,4.624-4.363a4.823,4.823,0,0,0-1.724-3.69c.228-.25.727-.788,1.044-1.117s.68-.724.891-.934l.09.011a.831.831,0,0,0,0-1.663m-4.685,7.876c-.905.181-1.47.1-1.909-.905a3.278,3.278,0,0,1,.521-2.57,1.868,1.868,0,0,1,1.322-1.018c1.176-.046,2.042,1.446,2.116,1.6l-.426,1.655c-.141.548-.27,1.037-.285,1.08A7.939,7.939,0,0,0,25.023,11.105Zm3.7-2.207a2.462,2.462,0,0,1,.031,2.268,1.151,1.151,0,0,1-1.263.466l-.989-.666-.02-.01-.037-.013c.037-.134.568-2.182.685-2.642l.029-.093.315-.174C27.955,7.935,28.532,8.475,28.723,8.9Zm-9.155,8.943-.265.211s-.117.426-.2.74-.365.65-1.105,1.189S14.565,22,14.565,22c-.565,1.929.4,2.067,1.678,1.9s3.033-1.448,4.116-3.666a7.194,7.194,0,0,0,.374-.941l-.332-.715A3.851,3.851,0,0,0,19.568,17.841Z" transform="translate(-0.748)" fill="#ffc600"/>
        <path id="Trazado_40270" data-name="Trazado 40270" d="M25.814,9.836a.656.656,0,0,0-.644-.672.674.674,0,0,0,0,1.344.656.656,0,0,0,.644-.672" transform="translate(-1.274 -0.476)"/>
        <path id="Trazado_40271" data-name="Trazado 40271" d="M28.757,10.638a.525.525,0,1,0-.526.546.535.535,0,0,0,.526-.546" transform="translate(-1.438 -0.524)"/>
        <path id="Trazado_40272" data-name="Trazado 40272" d="M23.416,12.018a7.525,7.525,0,0,0,2.555,1.5,5.989,5.989,0,0,0,1.783.237c.209-.016.29.05-.176.085a.664.664,0,0,0-.717.61,1.7,1.7,0,0,0-.011.554,3.233,3.233,0,0,1-2.056-.437c-1.061-.628-1.039-2.111-1.263-2.366s-.224-.272-.115-.186" transform="translate(-1.212 -0.621)" fill="#c1041c"/>
        <path id="Trazado_40273" data-name="Trazado 40273" d="M27.9,12.084c.068-.268-.211-.585-.637-.7s-.828,0-.907.266.2.581.637.7c.418.119.828,0,.907-.27" transform="translate(-1.368 -0.588)" fill="#c1041c"/>
        <path id="Trazado_40274" data-name="Trazado 40274" d="M28.308,1a.6.6,0,0,0-.6-.594.6.6,0,1,0,0,1.195.608.608,0,0,0,.6-.6" transform="translate(-1.407 -0.021)" fill="#c1041c"/>
        <path id="Trazado_40275" data-name="Trazado 40275" d="M31.029,4.259a.509.509,0,1,0-.5.513.508.508,0,0,0,.5-.513" transform="translate(-1.558 -0.195)" fill="#c1041c"/>
        <path id="Trazado_40276" data-name="Trazado 40276" d="M46.16,27.9l-.115.419-.3.3-.419.111-.426-.111-.3-.3-.119-.417.119-.416.3-.311.426-.115.419.115.3.311.115.414m-.115,0-.1-.356-.265-.278-.351-.092-.362.092-.269.278L44.6,27.9l.092.363.269.259.362.1.351-.1.266-.259Zm-1.073-.488h.406l.2.029.1.089.046.154-.043.119L45.6,27.9l.082.078.019.136v.111l.045.124.011.029h-.163l-.031-.14,0-.124-.027-.085-.048-.037-.123-.011H45.13v.4h-.157Zm.157.138v.287h.232l.15-.029.05-.112-.04-.113-.144-.033Z" transform="translate(-2.309 -1.405)"/>
      </g>
    </g>
  </g>
</svg>
