<svg xmlns="http://www.w3.org/2000/svg" width="58" height="58" viewBox="0 0 58 58">
  <g id="Grupo_18642" data-name="Grupo 18642" transform="translate(0.174)">
    <rect id="Rectángulo_18112" data-name="Rectángulo 18112" width="58" height="58" transform="translate(-0.174)" fill="none"/>
    <g id="_145_Canal_del_Congreso_Color" data-name="145 Canal del Congreso Color" transform="translate(29.662 29.355)">
      <g id="Grupo_18560" data-name="Grupo 18560" transform="translate(-20.097 -13.704)">
        <path id="Trazado_40728" data-name="Trazado 40728" d="M34.737,9.862a5.222,5.222,0,0,1-4.3-2.289,5.217,5.217,0,0,0-4.25-2.3h-.128a3.439,3.439,0,0,0,.077,6.878,2.3,2.3,0,1,0-.054-4.591,1.946,1.946,0,0,0-.955.234l-.224-.14.176-.177a2.8,2.8,0,0,1,1.063-.207,2.859,2.859,0,0,1,2.8,2.312,3.271,3.271,0,0,1-.128,1.579A5.189,5.189,0,0,0,36.33,9.61a4.415,4.415,0,0,1-1.593.251" transform="translate(-2.961 -0.688)" fill="#f47b20"/>
        <path id="Trazado_40729" data-name="Trazado 40729" d="M16.506,19.1a5.209,5.209,0,0,0,4.3-2.294,5.252,5.252,0,0,1,4.261-2.3h.115a3.443,3.443,0,0,1-.056,6.886,2.3,2.3,0,1,1,.03-4.59,2.035,2.035,0,0,1,.965.228l.219-.147-.186-.177a2.637,2.637,0,0,0-1.034-.2,2.85,2.85,0,0,0-2.814,2.309,3.148,3.148,0,0,0,.123,1.581,5.16,5.16,0,0,1-3.041,1,5.223,5.223,0,0,1-4.478-2.558,4.535,4.535,0,0,0,1.593.262" transform="translate(-1.946 -1.893)" fill="#fdb913"/>
        <path id="Trazado_40730" data-name="Trazado 40730" d="M8.585,13.821a5.211,5.211,0,0,0,4.31-2.3,5.211,5.211,0,0,1,4.248-2.3h.112A3.446,3.446,0,0,1,17.2,16.12a2.3,2.3,0,1,1,.043-4.6,2.048,2.048,0,0,1,.96.228l.223-.138-.177-.17a2.553,2.553,0,0,0-1.055-.2,2.844,2.844,0,0,0-2.806,2.3,3.162,3.162,0,0,0,.12,1.581,5.139,5.139,0,0,1-3.043.994A5.194,5.194,0,0,1,7,13.572a4.693,4.693,0,0,0,1.585.249" transform="translate(-0.913 -1.204)" fill="#7581bf"/>
        <path id="Trazado_40731" data-name="Trazado 40731" d="M35.1,7.046A18.382,18.382,0,0,0,6.894,6.167,25.255,25.255,0,0,1,35.1,7.046" transform="translate(-0.9)" fill="#c4c6c8"/>
        <path id="Trazado_40732" data-name="Trazado 40732" d="M2.9,27.444a1.162,1.162,0,0,0-1.205-.962A1.517,1.517,0,0,0,.217,28.155a1.512,1.512,0,0,0,1.476,1.67,1.346,1.346,0,0,0,1.274-1.273h.207a1.527,1.527,0,0,1-1.481,1.469A1.7,1.7,0,0,1,0,28.155a1.7,1.7,0,0,1,1.693-1.862,1.34,1.34,0,0,1,1.422,1.151H2.9" transform="translate(0 -3.431)"/>
        <path id="Trazado_40733" data-name="Trazado 40733" d="M5.538,28.631c-.151.174-.564.147-.924.207-.457.049-.7.205-.7.594,0,.3.223.546.662.546a.892.892,0,0,0,.963-.87v-.476m.189.987.171.311.143-.021v.166l-.153.01c-.309,0-.35-.155-.35-.367v-.132H5.53a1,1,0,0,1-.96.556c-.472,0-.853-.179-.853-.71,0-.6.518-.728.945-.771.848-.057.881-.116.881-.541,0-.1-.133-.491-.712-.491a.709.709,0,0,0-.79.679H3.85c.02-.551.37-.85.981-.85.446,0,.9.155.9.663Z" transform="translate(-0.485 -3.583)"/>
        <path id="Trazado_40734" data-name="Trazado 40734" d="M6.439,27.529h.184v.54h.017a.943.943,0,0,1,.911-.607c.9,0,.912.73.912,1.048v1.575h-.19V28.468c0-.255-.033-.839-.723-.839-.576,0-.929.44-.929,1.079v1.376H6.439V27.529" transform="translate(-0.84 -3.584)"/>
        <path id="Trazado_40735" data-name="Trazado 40735" d="M10.8,28.631c-.143.174-.551.147-.919.207-.454.049-.7.205-.7.594,0,.3.223.546.674.546a.885.885,0,0,0,.949-.87v-.476m.2.987.163.311.143-.021v.166l-.153.01c-.3,0-.35-.155-.35-.367v-.132a1,1,0,0,1-.955.556c-.477,0-.86-.179-.86-.71,0-.6.526-.728.944-.771.85-.057.881-.116.881-.541,0-.1-.132-.491-.71-.491a.7.7,0,0,0-.791.679H9.119a.858.858,0,0,1,.978-.85c.439,0,.9.155.9.663Z" transform="translate(-1.172 -3.583)"/>
        <rect id="Rectángulo_18192" data-name="Rectángulo 18192" width="0.179" height="3.565" transform="translate(10.225 22.936)"/>
        <path id="Trazado_40736" data-name="Trazado 40736" d="M15.636,28.667c0-.59-.3-1.179-.949-1.179-.671,0-.955.574-.955,1.179s.3,1.17.963,1.17.942-.573.942-1.17m0,.736h0a1.016,1.016,0,0,1-.976.6c-.779,0-1.108-.627-1.108-1.336,0-.75.365-1.349,1.138-1.349a.974.974,0,0,1,.945.637h0V26.379h.2v3.564h-.2Z" transform="translate(-1.768 -3.442)"/>
        <path id="Trazado_40737" data-name="Trazado 40737" d="M18.52,28.66a.971.971,0,0,0-.937-1.032,1.039,1.039,0,0,0-.939,1.032H18.52m-1.876.177a.985.985,0,0,0,.939,1.14.875.875,0,0,0,.916-.763h.192a1.038,1.038,0,0,1-1.109.927,1.138,1.138,0,0,1-1.13-1.288c-.005-.695.355-1.4,1.13-1.4.8,0,1.162.639,1.123,1.381Z" transform="translate(-2.147 -3.583)"/>
        <rect id="Rectángulo_18193" data-name="Rectángulo 18193" width="0.189" height="3.565" transform="translate(16.804 22.936)"/>
        <path id="Trazado_40738" data-name="Trazado 40738" d="M23.64,27.651a.642.642,0,0,0-.717-.546c-.595,0-.822.534-.822,1.053s.227,1.067.822,1.067a.658.658,0,0,0,.717-.661h.924a1.5,1.5,0,0,1-1.626,1.457,1.858,1.858,0,0,1,0-3.713,1.524,1.524,0,0,1,1.626,1.343H23.64" transform="translate(-2.761 -3.433)"/>
        <path id="Trazado_40739" data-name="Trazado 40739" d="M26.536,29.516c.385,0,.513-.389.513-.729,0-.323-.128-.723-.513-.723s-.516.4-.516.723c0,.34.123.729.516.729m0-2.087a1.369,1.369,0,1,1-1.358,1.358,1.321,1.321,0,0,1,1.358-1.358" transform="translate(-3.286 -3.579)"/>
        <path id="Trazado_40740" data-name="Trazado 40740" d="M28.534,27.492h.822v.362h.01a.978.978,0,0,1,.823-.424c.855,0,.924.625.924,1V30.08h-.856V28.834c0-.35.043-.718-.419-.718-.319,0-.456.283-.456.561v1.4h-.848V27.492" transform="translate(-3.724 -3.579)"/>
        <path id="Trazado_40741" data-name="Trazado 40741" d="M33.025,28.075c-.363,0-.5.323-.5.653,0,.293.146.606.485.606.37,0,.518-.288.518-.606s-.132-.653-.508-.653m1.309,1.688c0,.44-.079,1.225-1.294,1.225-.595,0-1.162-.132-1.259-.816h.84l.148.21.307.065c.416,0,.447-.283.447-.61v-.245h-.01a.8.8,0,0,1-.69.378c-.791,0-1.136-.552-1.136-1.269a1.151,1.151,0,0,1,1.136-1.272.752.752,0,0,1,.695.391h.005v-.329h.811Z" transform="translate(-4.135 -3.579)"/>
        <path id="Trazado_40742" data-name="Trazado 40742" d="M35.111,27.494h.823v.467h.01a.771.771,0,0,1,.769-.516l.2.027v.774l-.324-.045a.588.588,0,0,0-.628.605v1.276h-.848V27.494" transform="translate(-4.582 -3.581)"/>
        <path id="Trazado_40743" data-name="Trazado 40743" d="M38.878,28.532a.521.521,0,0,0-.51-.524.554.554,0,0,0-.536.524h1.047M37.831,29a.548.548,0,0,0,.575.588l.483-.292h.8a1.221,1.221,0,0,1-1.284.871,1.308,1.308,0,0,1-1.422-1.385,1.356,1.356,0,0,1,1.389-1.353A1.336,1.336,0,0,1,39.721,29Z" transform="translate(-4.826 -3.579)"/>
        <path id="Trazado_40744" data-name="Trazado 40744" d="M40.977,29.228l.138.29.311.1.4-.283-.409-.267c-.546-.135-1.2-.158-1.2-.853,0-.611.663-.785,1.18-.785.551,0,1.156.163,1.187.837H41.8l-.107-.229-.265-.067-.37.195c0,.244.572.288.965.373a.727.727,0,0,1,.646.705c0,.7-.646.923-1.236.923-.605,0-1.241-.206-1.262-.939h.807" transform="translate(-5.242 -3.579)"/>
        <path id="Trazado_40745" data-name="Trazado 40745" d="M44.45,29.516c.4,0,.51-.389.51-.729,0-.323-.107-.723-.51-.723s-.5.4-.5.723c0,.34.115.729.5.729m0-2.087a1.369,1.369,0,1,1-1.358,1.358,1.317,1.317,0,0,1,1.358-1.358" transform="translate(-5.623 -3.579)"/>
      </g>
    </g>
  </g>
</svg>
