<svg xmlns="http://www.w3.org/2000/svg" width="57" height="58" viewBox="0 0 57 58">
  <g id="Grupo_18607" data-name="Grupo 18607" transform="translate(-0.244)">
    <rect id="Rectángulo_18108" data-name="Rectángulo 18108" width="57" height="58" transform="translate(0.244)" fill="none"/>
    <g id="_114_Canal_Catorce_Color" data-name="114 Canal Catorce Color" transform="translate(29.092 29.13)">
      <g id="Grupo_18491" data-name="Grupo 18491" transform="translate(-24.745 -7.392)" style="mix-blend-mode: normal;isolation: isolate">
        <g id="Grupo_18490" data-name="Grupo 18490">
          <g id="Grupo_18489" data-name="Grupo 18489">
            <g id="Grupo_18488" data-name="Grupo 18488" style="mix-blend-mode: normal;isolation: isolate">
              <g id="Grupo_18487" data-name="Grupo 18487">
                <g id="Grupo_18486" data-name="Grupo 18486">
                  <g id="Grupo_18485" data-name="Grupo 18485" style="mix-blend-mode: normal;isolation: isolate">
                    <g id="Grupo_18484" data-name="Grupo 18484">
                      <g id="Grupo_18481" data-name="Grupo 18481" transform="translate(23.734 3.326)">
                        <path id="Trazado_40530" data-name="Trazado 40530" d="M291.3,41.5a.826.826,0,0,0-.34-.34,1.044,1.044,0,0,0-.533-.139,1.448,1.448,0,0,0-.634.139,1.54,1.54,0,0,0-.5.378,1.77,1.77,0,0,0-.328.554,1.893,1.893,0,0,0-.118.668,1.4,1.4,0,0,0,.071.454,1.009,1.009,0,0,0,.214.365,1.031,1.031,0,0,0,.357.248,1.249,1.249,0,0,0,.5.093,1.379,1.379,0,0,0,.638-.135,1.62,1.62,0,0,0,.453-.344l.47.437a2.6,2.6,0,0,1-.709.508,2.051,2.051,0,0,1-.9.189,2.273,2.273,0,0,1-.777-.126,1.708,1.708,0,0,1-.592-.353,1.573,1.573,0,0,1-.378-.541,1.77,1.77,0,0,1-.134-.7,2.618,2.618,0,0,1,.172-.945,2.427,2.427,0,0,1,.487-.789,2.336,2.336,0,0,1,.76-.542,2.374,2.374,0,0,1,.991-.2,2.26,2.26,0,0,1,.432.042,2.054,2.054,0,0,1,.4.122,1.422,1.422,0,0,1,.344.206,1.065,1.065,0,0,1,.256.3Z" transform="translate(-288.063 -40.37)" fill="#2ed9c3"/>
                        <path id="Trazado_40531" data-name="Trazado 40531" d="M339.264,42.547q-.327,0-.68.029a3.1,3.1,0,0,0-.642.118,1.226,1.226,0,0,0-.475.256.563.563,0,0,0-.185.437.524.524,0,0,0,.063.273.514.514,0,0,0,.168.172.666.666,0,0,0,.235.093,1.4,1.4,0,0,0,.265.025,1.335,1.335,0,0,0,.487-.088,1.277,1.277,0,0,0,.395-.239,1.4,1.4,0,0,0,.437-.781l.059-.294Zm.21-.571q.017-.118.025-.185a1.032,1.032,0,0,0,.008-.126.58.58,0,0,0-.218-.508,1.062,1.062,0,0,0-.621-.155,1.724,1.724,0,0,0-.638.126,2.2,2.2,0,0,0-.554.311l-.319-.521a2.506,2.506,0,0,1,.747-.4,2.677,2.677,0,0,1,.874-.147,2.365,2.365,0,0,1,.55.063,1.429,1.429,0,0,1,.47.2,1.044,1.044,0,0,1,.332.365,1.107,1.107,0,0,1,.126.546c0,.05,0,.116-.009.2a1.644,1.644,0,0,1-.025.206l-.294,1.613q-.042.235-.067.483t-.025.416h-.714q0-.126.013-.269t.038-.286h-.017a1.782,1.782,0,0,1-.621.487,1.907,1.907,0,0,1-.79.151,1.868,1.868,0,0,1-.42-.05,1.181,1.181,0,0,1-.4-.172.973.973,0,0,1-.3-.323.986.986,0,0,1-.118-.5,1.128,1.128,0,0,1,.269-.785,1.778,1.778,0,0,1,.693-.462,3.7,3.7,0,0,1,.953-.218,10.216,10.216,0,0,1,1.05-.055" transform="translate(-332.517 -40.372)" fill="#2ed9c3"/>
                        <path id="Trazado_40532" data-name="Trazado 40532" d="M390.944,40.481q-.017.118-.038.315t-.046.332h.017a1.691,1.691,0,0,1,.558-.55,1.456,1.456,0,0,1,.769-.206,1.329,1.329,0,0,1,1,.349,1.205,1.205,0,0,1,.34.878,2.351,2.351,0,0,1-.034.4l-.437,2.461h-.781l.386-2.2a2.052,2.052,0,0,0,.05-.445.9.9,0,0,0-.168-.563.722.722,0,0,0-.6-.218,1.1,1.1,0,0,0-.815.357,1.8,1.8,0,0,0-.454.953l-.369,2.116h-.781l.546-3.116q.033-.159.071-.411t.055-.454Z" transform="translate(-381.173 -40.372)" fill="#2ed9c3"/>
                        <path id="Trazado_40533" data-name="Trazado 40533" d="M447.1,42.547q-.327,0-.68.029a3.106,3.106,0,0,0-.642.118,1.223,1.223,0,0,0-.474.256.563.563,0,0,0-.185.437.524.524,0,0,0,.063.273.518.518,0,0,0,.168.172.668.668,0,0,0,.235.093,1.4,1.4,0,0,0,.265.025,1.335,1.335,0,0,0,.487-.088,1.276,1.276,0,0,0,.395-.239,1.4,1.4,0,0,0,.437-.781l.059-.294Zm.21-.571q.017-.118.025-.185a1.032,1.032,0,0,0,.008-.126.58.58,0,0,0-.218-.508,1.062,1.062,0,0,0-.621-.155,1.725,1.725,0,0,0-.638.126,2.2,2.2,0,0,0-.554.311L445,40.918a2.506,2.506,0,0,1,.747-.4,2.678,2.678,0,0,1,.874-.147,2.365,2.365,0,0,1,.55.063,1.431,1.431,0,0,1,.471.2,1.046,1.046,0,0,1,.331.365,1.107,1.107,0,0,1,.126.546c0,.05,0,.116-.008.2a1.669,1.669,0,0,1-.025.206l-.294,1.613q-.042.235-.067.483t-.025.416h-.714q0-.126.013-.269t.038-.286H447a1.782,1.782,0,0,1-.621.487,1.907,1.907,0,0,1-.789.151,1.868,1.868,0,0,1-.42-.05,1.181,1.181,0,0,1-.4-.172.972.972,0,0,1-.3-.323.986.986,0,0,1-.118-.5,1.128,1.128,0,0,1,.269-.785,1.776,1.776,0,0,1,.693-.462,3.7,3.7,0,0,1,.953-.218,10.218,10.218,0,0,1,1.05-.055" transform="translate(-431.473 -40.372)" fill="#2ed9c3"/>
                      </g>
                      <g id="Grupo_18482" data-name="Grupo 18482" transform="translate(40.983 1.067)">
                        <path id="Trazado_40534" data-name="Trazado 40534" d="M498.192,19.3h-.781l1.117-6.349h.79Z" transform="translate(-497.411 -12.95)" fill="#2ed9c3"/>
                      </g>
                      <g id="Grupo_18483" data-name="Grupo 18483">
                        <path id="Trazado_40535" data-name="Trazado 40535" d="M277.572,117.168a.9.9,0,0,0-.336-.315.978.978,0,0,0-.5-.13,1.317,1.317,0,0,0-.575.126,1.373,1.373,0,0,0-.454.345,1.686,1.686,0,0,0-.3.505,1.666,1.666,0,0,0-.109.6,1.342,1.342,0,0,0,.059.4.939.939,0,0,0,.185.337.909.909,0,0,0,.319.236,1.1,1.1,0,0,0,.462.088,1.235,1.235,0,0,0,.609-.13,1.96,1.96,0,0,0,.424-.323l.563.57a2.543,2.543,0,0,1-.722.5,2.195,2.195,0,0,1-.932.187,2.372,2.372,0,0,1-.794-.126,1.8,1.8,0,0,1-.613-.357,1.576,1.576,0,0,1-.395-.55,1.776,1.776,0,0,1-.139-.714,2.573,2.573,0,0,1,.176-.941,2.533,2.533,0,0,1,.5-.8,2.339,2.339,0,0,1,.777-.554,2.438,2.438,0,0,1,1.012-.206,2.288,2.288,0,0,1,.861.164,1.271,1.271,0,0,1,.626.517Z" transform="translate(-251.727 -106.366)" fill="#6e7d7d"/>
                        <path id="Trazado_40536" data-name="Trazado 40536" d="M325.474,118.212q-.285,0-.592.021a2.636,2.636,0,0,0-.563.1,1.141,1.141,0,0,0-.42.214.464.464,0,0,0-.164.374.48.48,0,0,0,.054.239.432.432,0,0,0,.147.155.636.636,0,0,0,.21.084,1.16,1.16,0,0,0,.244.025,1.173,1.173,0,0,0,.424-.076,1.107,1.107,0,0,0,.344-.206,1.158,1.158,0,0,0,.244-.3,1.31,1.31,0,0,0,.138-.374l.05-.252Zm.21-.705c.011-.067.018-.119.021-.155s0-.071,0-.1a.467.467,0,0,0-.189-.42,1.011,1.011,0,0,0-.558-.126,1.8,1.8,0,0,0-.609.113,2.237,2.237,0,0,0-.558.29l-.378-.664a2.815,2.815,0,0,1,.785-.382,3,3,0,0,1,.9-.138,2.587,2.587,0,0,1,.567.063,1.549,1.549,0,0,1,.5.206,1.087,1.087,0,0,1,.357.374,1.128,1.128,0,0,1,.134.575q0,.076-.008.185a1.667,1.667,0,0,1-.025.193l-.294,1.638q-.042.235-.071.487a3.719,3.719,0,0,0-.029.42h-.907a2.443,2.443,0,0,1,.05-.479h-.017a1.615,1.615,0,0,1-1.31.563,2.005,2.005,0,0,1-.437-.051,1.218,1.218,0,0,1-.411-.172.946.946,0,0,1-.3-.328,1.029,1.029,0,0,1-.118-.517,1.184,1.184,0,0,1,.264-.8,1.776,1.776,0,0,1,.685-.479,3.506,3.506,0,0,1,.936-.231,8.988,8.988,0,0,1,1.012-.059" transform="translate(-296.192 -106.368)" fill="#6e7d7d"/>
                        <path id="Trazado_40537" data-name="Trazado 40537" d="M376.481,104.958l.143-.806h.7l.2-1.176h.974l-.2,1.176h.907l-.143.806h-.89l-.353,1.885a1.188,1.188,0,0,0-.025.234.329.329,0,0,0,.13.3.637.637,0,0,0,.349.083,1.337,1.337,0,0,0,.2-.014,1.823,1.823,0,0,0,.181-.036l-.059.747a1.48,1.48,0,0,1-.3.08,1.894,1.894,0,0,1-.315.029,1.3,1.3,0,0,1-.907-.256.888.888,0,0,1-.269-.674q0-.117.013-.256a2.183,2.183,0,0,1,.038-.255l.344-1.868Z" transform="translate(-345.462 -94.492)" fill="#6e7d7d"/>
                        <path id="Trazado_40538" data-name="Trazado 40538" d="M412.95,117.77a1.051,1.051,0,0,0-.277-.75.987.987,0,0,0-.756-.295,1.248,1.248,0,0,0-.575.131,1.359,1.359,0,0,0-.437.35,1.645,1.645,0,0,0-.281.505,1.811,1.811,0,0,0-.1.607,1.069,1.069,0,0,0,.269.75.971.971,0,0,0,.756.295,1.293,1.293,0,0,0,1.02-.472,1.63,1.63,0,0,0,.281-.51,1.849,1.849,0,0,0,.1-.611m-1.453,2.4a2.32,2.32,0,0,1-.777-.126,1.8,1.8,0,0,1-.617-.361,1.657,1.657,0,0,1-.554-1.268,2.615,2.615,0,0,1,.172-.945,2.435,2.435,0,0,1,.491-.794,2.367,2.367,0,0,1,1.772-.756,2.344,2.344,0,0,1,.785.126,1.844,1.844,0,0,1,.617.357,1.643,1.643,0,0,1,.407.554,1.7,1.7,0,0,1,.147.71,2.674,2.674,0,0,1-.172.957,2.431,2.431,0,0,1-.491.8,2.331,2.331,0,0,1-.773.546,2.459,2.459,0,0,1-1.008.2" transform="translate(-375.805 -106.368)" fill="#6e7d7d"/>
                        <path id="Trazado_40539" data-name="Trazado 40539" d="M469.813,116.7a1.925,1.925,0,0,1,.5-.567,1.114,1.114,0,0,1,.689-.214c.039,0,.081,0,.126,0a.461.461,0,0,1,.117.021l-.134.915a1.157,1.157,0,0,0-.164-.034,1.225,1.225,0,0,0-.139-.008,1.116,1.116,0,0,0-.563.126,1.172,1.172,0,0,0-.353.3,1.192,1.192,0,0,0-.193.361,2.03,2.03,0,0,0-.075.294l-.378,2.158h-.983l.563-3.166q.033-.16.071-.412t.055-.453h.924q0,.042-.008.126c-.006.056-.013.117-.021.185s-.017.133-.025.2-.015.119-.021.164Z" transform="translate(-429.678 -106.368)" fill="#6e7d7d"/>
                        <path id="Trazado_40540" data-name="Trazado 40540" d="M506.247,117.168a.9.9,0,0,0-.336-.315.978.978,0,0,0-.5-.13,1.317,1.317,0,0,0-.575.126,1.371,1.371,0,0,0-.453.345,1.683,1.683,0,0,0-.3.505,1.665,1.665,0,0,0-.109.6,1.339,1.339,0,0,0,.059.4.936.936,0,0,0,.185.337.911.911,0,0,0,.319.236,1.1,1.1,0,0,0,.462.088,1.236,1.236,0,0,0,.609-.13,1.957,1.957,0,0,0,.424-.323l.563.57a2.545,2.545,0,0,1-.722.5,2.2,2.2,0,0,1-.932.187,2.372,2.372,0,0,1-.794-.126,1.8,1.8,0,0,1-.613-.357,1.576,1.576,0,0,1-.395-.55,1.772,1.772,0,0,1-.139-.714,2.575,2.575,0,0,1,.176-.941,2.536,2.536,0,0,1,.5-.8,2.341,2.341,0,0,1,.777-.554,2.437,2.437,0,0,1,1.012-.206,2.288,2.288,0,0,1,.861.164,1.27,1.27,0,0,1,.626.517Z" transform="translate(-461.561 -106.366)" fill="#6e7d7d"/>
                        <path id="Trazado_40541" data-name="Trazado 40541" d="M554.757,117.649c.005-.039.01-.076.013-.109s0-.067,0-.1a.747.747,0,0,0-.231-.554.89.89,0,0,0-.651-.227,1.155,1.155,0,0,0-.47.092,1.27,1.27,0,0,0-.365.239,1.4,1.4,0,0,0-.256.323,1.166,1.166,0,0,0-.134.336Zm-2.184.705a.469.469,0,0,0-.008.093.849.849,0,0,0,.08.369.863.863,0,0,0,.223.29,1.094,1.094,0,0,0,.336.193,1.2,1.2,0,0,0,.42.071,1.406,1.406,0,0,0,.659-.143,1.742,1.742,0,0,0,.491-.386l.563.529a2.391,2.391,0,0,1-1.822.806,2.253,2.253,0,0,1-.756-.122,1.75,1.75,0,0,1-.6-.349,1.576,1.576,0,0,1-.395-.559,1.9,1.9,0,0,1-.143-.76,2.632,2.632,0,0,1,.177-.97,2.437,2.437,0,0,1,.491-.785,2.245,2.245,0,0,1,.747-.525,2.337,2.337,0,0,1,.945-.189,2.131,2.131,0,0,1,.668.1,1.5,1.5,0,0,1,.533.3,1.364,1.364,0,0,1,.353.5,1.823,1.823,0,0,1,.126.706q0,.134-.025.374a3.5,3.5,0,0,1-.076.449Z" transform="translate(-506.174 -106.368)" fill="#6e7d7d"/>
                        <path id="Trazado_40542" data-name="Trazado 40542" d="M86.54,139.278H80.334l-.67,3.309h6.427l.6-3.132a.149.149,0,0,0-.147-.177" transform="translate(-73.1 -127.803)" fill="#2ed9c3"/>
                        <path id="Trazado_40543" data-name="Trazado 40543" d="M223.412,0h-.859l-1.517,8.058a.149.149,0,0,0,.147.177l1.691.009,1.373-7.235A.851.851,0,0,0,223.412,0" transform="translate(-202.822)" fill="#2ed9c3"/>
                        <path id="Trazado_40544" data-name="Trazado 40544" d="M206.34,139.394l-.674,3.191h1.161a.851.851,0,0,0,.836-.692l.495-2.607-1.672-.011a.149.149,0,0,0-.146.118" transform="translate(-188.721 -127.801)" fill="#2ed9c3"/>
                        <path id="Trazado_40545" data-name="Trazado 40545" d="M148.157,51.236l-2.7,3.718a.149.149,0,0,0,.122.237l1.992-.012a.149.149,0,0,0,.146-.121l.711-3.706a.149.149,0,0,0-.268-.116" transform="translate(-133.443 -46.958)" fill="#2ed9c3"/>
                        <path id="Trazado_40546" data-name="Trazado 40546" d="M95.546,8.095a.148.148,0,0,1,.029-.064L101.868,0H97.029L95.553,8.059" transform="translate(-87.674)" fill="#2ed9c3"/>
                        <path id="Trazado_40547" data-name="Trazado 40547" d="M4.67,3.272H2.319l-.31,0,.19-.241L4.432.06A.149.149,0,0,1,4.551,0H3.334A.851.851,0,0,0,2.5.692L.016,13.775a.851.851,0,0,0,.836,1.009H2.7L4.817,3.449a.149.149,0,0,0-.147-.177" transform="translate(0)" fill="#9eacaa"/>
                      </g>
                    </g>
                  </g>
                </g>
              </g>
            </g>
          </g>
        </g>
      </g>
    </g>
  </g>
</svg>
