<svg xmlns="http://www.w3.org/2000/svg" width="58" height="58" viewBox="0 0 58 58">
  <g id="Grupo_18603" data-name="Grupo 18603" transform="translate(0.152)">
    <rect id="Rectángulo_18107" data-name="Rectángulo 18107" width="58" height="58" transform="translate(-0.152)" fill="none"/>
    <g id="_111_Once_TV_Color" data-name="111 Once TV Color" transform="translate(29.525 29.051)">
      <g id="Grupo_18516" data-name="Grupo 18516" transform="translate(-11.265 -17.748)">
        <path id="Trazado_40586" data-name="Trazado 40586" d="M34.091,43.549l-.007,0a.8.8,0,0,1-.546-.76v-6H32.461v5.857c0,.048,0,.1,0,.144s0,.1.007.145a1.593,1.593,0,0,0,.318.823,1.615,1.615,0,0,0,.7.528l.625-.624.009-.01a.065.065,0,0,0,.015-.042A.066.066,0,0,0,34.091,43.549Z" transform="translate(-12.615 -14.297)" fill="#64002e"/>
        <g id="Grupo_18514" data-name="Grupo 18514" transform="translate(5.629 24.561)">
          <path id="Trazado_40587" data-name="Trazado 40587" d="M11.506,40.174a2.987,2.987,0,0,0-2.019.849h0a.032.032,0,0,0-.01.023.034.034,0,0,0,.009.023l0,0,.422.421.023.023a.269.269,0,0,0,.347.007h0a2.016,2.016,0,0,1,1.094-.544.965.965,0,0,1,1.078.942v.127h-.293c-1.173,0-2.953.108-2.953,1.63,0,.927.841,1.39,1.711,1.39a1.676,1.676,0,0,0,1.506-.745h.029v.611h.905A.14.14,0,0,0,13.5,44.8V42.27C13.5,41.606,13.51,40.174,11.506,40.174Zm.921,2.949c0,.664-.392,1.09-1.217,1.09-.392,0-.844-.188-.844-.624,0-.684,1.146-.733,1.809-.733h.251Z" transform="translate(-9.208 -40.174)" fill="#64002e"/>
        </g>
        <g id="Grupo_18515" data-name="Grupo 18515" transform="translate(15.02 24.561)">
          <path id="Trazado_40588" data-name="Trazado 40588" d="M26.866,40.174a2.986,2.986,0,0,0-2.019.849h0a.035.035,0,0,0-.01.024.034.034,0,0,0,.009.023l0,0,.422.421.023.023a.269.269,0,0,0,.347.007h0a2.017,2.017,0,0,1,1.095-.544.965.965,0,0,1,1.077.942v.127h-.293c-1.173,0-2.953.108-2.953,1.63,0,.927.841,1.39,1.711,1.39a1.676,1.676,0,0,0,1.506-.745h.029v.611h.905a.14.14,0,0,0,.141-.134V42.27C28.86,41.606,28.87,40.174,26.866,40.174Zm.92,2.949c0,.664-.392,1.09-1.216,1.09-.392,0-.844-.188-.844-.624,0-.684,1.146-.733,1.809-.733h.251Z" transform="translate(-24.568 -40.174)" fill="#64002e"/>
        </g>
        <path id="Trazado_40589" data-name="Trazado 40589" d="M4.3,49.051a2.755,2.755,0,1,1,0,5.507,2.755,2.755,0,1,1,0-5.507Zm0,4.327a1.574,1.574,0,0,0,0-3.147,1.574,1.574,0,0,0,0,3.147Z" transform="translate(-0.56 -19.063)" fill="#64002e"/>
        <path id="Trazado_40590" data-name="Trazado 40590" d="M29.544,49.067a2.629,2.629,0,0,0-2.768,2.724v.032a2.708,2.708,0,0,0,2.768,2.724,3.066,3.066,0,0,0,2.01-.794l.01-.01a.04.04,0,0,0,.007-.021.037.037,0,0,0-.01-.025h0l-.5-.531,0,0a.3.3,0,0,0-.392-.023l-.011.009a2.077,2.077,0,0,1-1.075.351,1.7,1.7,0,0,1-1.631-1.392c-.006-.028-.006-.032,0,0h0v-.01A.069.069,0,0,1,28,52.023h3.564a.275.275,0,0,0,.267-.275h0A2.5,2.5,0,0,0,29.544,49.067ZM30.7,51.113a.03.03,0,0,1-.031.029H28.195a.03.03,0,0,1-.031-.029h0a1.289,1.289,0,0,1,2.535,0v0Z" transform="translate(-10.406 -19.067)" fill="#64002e"/>
        <path id="Trazado_40591" data-name="Trazado 40591" d="M24.272,53.68l-.433-.707-.021-.021a.286.286,0,0,0-.2-.074.289.289,0,0,0-.157.048l-.03.023a2.1,2.1,0,0,1-1.047.427,1.519,1.519,0,0,1-1.557-1.559h0v0h0a1.518,1.518,0,0,1,1.528-1.586,2.1,2.1,0,0,1,1.054.407l.031.023a.29.29,0,0,0,.352-.032l.021-.021.419-.715,0,0a.031.031,0,0,0,.009-.023.032.032,0,0,0-.009-.022l0,0a2.608,2.608,0,0,0-1.89-.789,2.72,2.72,0,0,0-2.83,2.777h0v.006h0a2.721,2.721,0,0,0,2.88,2.726,2.6,2.6,0,0,0,1.873-.822l0,0a.036.036,0,0,0,.008-.023.034.034,0,0,0-.009-.023Z" transform="translate(-7.586 -19.061)" fill="#64002e"/>
        <path id="Trazado_40592" data-name="Trazado 40592" d="M19.695,40.135A1.565,1.565,0,0,0,18.2,41h-.02v-.633h0v0a.134.134,0,0,0-.13-.132h-.877a.067.067,0,0,0-.064.067v4.484a.134.134,0,0,0,.134.134h.97a.033.033,0,0,0,.033-.031v0h0V42.37a1.091,1.091,0,0,1,1.13-1.185c.818,0,.857.855.857,1.37v2.1a.268.268,0,0,0,.267.262h.868a.034.034,0,0,0,.034-.034V41.972A1.626,1.626,0,0,0,19.695,40.135Z" transform="translate(-6.648 -15.598)" fill="#64002e"/>
        <path id="Trazado_40593" data-name="Trazado 40593" d="M14.137,49.057a1.7,1.7,0,0,0-1.644.968h-.022v-.707a.149.149,0,0,0-.146-.147h-.981a.074.074,0,0,0-.072.074v5.013a.15.15,0,0,0,.15.15h1.086a.037.037,0,0,0,.037-.035V51.559a1.2,1.2,0,0,1,1.233-1.327c.915,0,.959.957.959,1.533v2.353a.3.3,0,0,0,.3.29h.971a.037.037,0,0,0,.037-.037V51.113A1.82,1.82,0,0,0,14.137,49.057Z" transform="translate(-4.381 -19.065)" fill="#64002e"/>
        <path id="Trazado_40594" data-name="Trazado 40594" d="M6.151,40.815l0,0a2.882,2.882,0,0,0-1.911-.741,2.469,2.469,0,0,0-2.478,2.615h0a2.483,2.483,0,0,0,2.757,2.333,2.869,2.869,0,0,0,1.552-.629l0,0a.027.027,0,0,0,.008-.02v-.006l0-.007c-.1-.277-.184-.626-.184-.626s-.027-.15-.1-.2a.318.318,0,0,0-.2-.045.259.259,0,0,0-.142.05l-.027.022a1.813,1.813,0,0,1-.97.4,1.371,1.371,0,0,1-1.494-1.338h0A1.376,1.376,0,0,1,4.3,41.132a1.947,1.947,0,0,1,.984.323l.029.019a.27.27,0,0,0,.322-.043l.018-.02.5-.551,0,0a.03.03,0,0,0,.007-.021A.031.031,0,0,0,6.151,40.815Z" transform="translate(-0.682 -15.572)" fill="#64002e"/>
        <path id="Trazado_40595" data-name="Trazado 40595" d="M19.232,3.293a11.28,11.28,0,0,0-15.932,0,11.246,11.246,0,0,0,7.965,19.2,11.242,11.242,0,0,0,7.967-19.2ZM11.266,16.6a5.352,5.352,0,1,1,5.361-5.351A5.356,5.356,0,0,1,11.266,16.6Z" fill="#64002e"/>
      </g>
    </g>
  </g>
</svg>
