<svg xmlns="http://www.w3.org/2000/svg" xmlns:xlink="http://www.w3.org/1999/xlink" width="85" height="85" viewBox="0 0 85 85">
  <defs>
    <filter id="Rectángulo_18090" x="0" y="0" width="85" height="85" filterUnits="userSpaceOnUse">
      <feOffset dy="3" input="SourceAlpha"/>
      <feGaussianBlur stdDeviation="3" result="blur"/>
      <feFlood flood-opacity="0.161"/>
      <feComposite operator="in" in2="blur"/>
      <feComposite in="SourceGraphic"/>
    </filter>
    <clipPath id="clip-path">
      <rect id="Rectángulo_23363" data-name="Rectángulo 23363" width="59.805" height="13.242" transform="translate(0 0)" fill="none"/>
    </clipPath>
  </defs>
  <g id="Grupo_32048" data-name="Grupo 32048" transform="translate(-244 -197)">
    <g id="Grupo_31989" data-name="Grupo 31989" transform="translate(-225 184)">
      <g transform="matrix(1, 0, 0, 1, 469, 13)" filter="url(#Rectángulo_18090)">
        <rect id="Rectángulo_18090-2" data-name="Rectángulo 18090" width="67" height="67" rx="10" transform="translate(9 6)" fill="#fff"/>
      </g>
    </g>
    <g id="Grupo_32047" data-name="Grupo 32047" transform="translate(257 230)">
      <g id="Grupo_32046" data-name="Grupo 32046" transform="translate(0 0)" clip-path="url(#clip-path)">
        <path id="Trazado_67226" data-name="Trazado 67226" d="M144.221,12.405a.816.816,0,0,1-.806.819c-3.105.036-6.267,0-9.358.018-.739-.007-1.478-.017-2.216-.023a.816.816,0,0,1-.81-.818c.006-3.857,0-7.725-.006-11.583A.816.816,0,0,1,131.843,0c3.839,0,7.712.016,11.551,0a.816.816,0,0,1,.82.808c.005.523.008,1.078,0,1.514-.038,2.949,0,7.194,0,10.08" transform="translate(-107.713 0)" fill="#2fcdf2"/>
        <path id="Trazado_67227" data-name="Trazado 67227" d="M140.837,24.727a2.26,2.26,0,0,0-1.069-1.828,2.844,2.844,0,0,0-2.589-.038,2.422,2.422,0,0,0-1.2,2.366,2.182,2.182,0,0,0,1.428,2,3.277,3.277,0,0,0,2.652-.249,2.329,2.329,0,0,0,.777-2.25" transform="translate(-111.774 -18.552)" fill="#fff"/>
        <path id="Trazado_67228" data-name="Trazado 67228" d="M174.939,22.684a2.3,2.3,0,0,0-1.895.969,2.75,2.75,0,0,0-.156,2.552,2.467,2.467,0,0,0,2.336,1.294,2.2,2.2,0,0,0,2.083-1.316,3.169,3.169,0,0,0-.131-2.627,2.388,2.388,0,0,0-2.237-.871" transform="translate(-141.927 -18.646)" fill="#fff"/>
        <path id="Trazado_67229" data-name="Trazado 67229" d="M143.674,27.873a1.232,1.232,0,0,0-.151-.021,1.268,1.268,0,0,0-1.271.5,1.866,1.866,0,0,0-.15,1.505,1.321,1.321,0,0,0,1.208.927,1.473,1.473,0,0,0,1.341-.582,1.971,1.971,0,0,0,.113-1.4,1.411,1.411,0,0,0-1.09-.933" transform="translate(-116.743 -22.887)"/>
        <path id="Trazado_67230" data-name="Trazado 67230" d="M181.171,28.5a1.539,1.539,0,0,0-1.222-.6,1.732,1.732,0,0,0-.26,0,1.263,1.263,0,0,0-1.06.659,1.608,1.608,0,0,0,.349,1.952,1.655,1.655,0,0,0,2.035-.007,1.75,1.75,0,0,0,.157-2.007" transform="translate(-146.699 -22.935)"/>
        <path id="Trazado_67231" data-name="Trazado 67231" d="M163.324,49.079h-.057l-.05,0h0l-.079-.007-.047-.006-.02,0a1.257,1.257,0,0,1-.617-.247.712.712,0,0,1-.133-.131.342.342,0,0,1-.046-.36.236.236,0,0,1,.251-.1l.022.006h0a.383.383,0,0,1,.046.02l.014.007a.693.693,0,0,1,.075.049l.009.007.011.009.013.01a1.367,1.367,0,0,0,.2.128.885.885,0,0,0,.4.1h.014a.886.886,0,0,0,.4-.1,1.364,1.364,0,0,0,.2-.128l.013-.01.011-.009.008-.006a.6.6,0,0,1,.075-.05l.014-.007a.381.381,0,0,1,.046-.02h0c.014,0,.022-.006.022,0a.233.233,0,0,1,.251.1.342.342,0,0,1-.046.36.714.714,0,0,1-.132.131,1.262,1.262,0,0,1-.617.247l-.02,0-.047.006-.079.007h0l-.053,0h-.049" transform="translate(-133.372 -39.637)" fill="#ed1b98"/>
        <path id="Trazado_67232" data-name="Trazado 67232" d="M71.9,25.19a1.559,1.559,0,0,0,.655-1.868,1.64,1.64,0,0,0-1.331-.9,5.228,5.228,0,0,0-1.728-.007.922.922,0,0,0-.7.452,3.566,3.566,0,0,0-.187,1.392v.026c-.024.541.022,1.042.039,1.584a1.663,1.663,0,0,0,.4,1.235.729.729,0,0,0,.911.039,1.379,1.379,0,0,0,.334-1.035c0-.066,0-.133,0-.2a8.252,8.252,0,0,0,.825.971c.071.062.144.119.218.176a.793.793,0,0,0,1.17-.135c.308-.476-.285-1.422-.606-1.735m-1.7-.555c.01-.506,0-.892-.007-1.041a1.937,1.937,0,0,1,.22-.016.8.8,0,0,1,.623.164.541.541,0,0,1,.132.349.521.521,0,0,1-.374.489,1.94,1.94,0,0,1-.569.056h-.025" transform="translate(-56.393 -18.373)"/>
        <path id="Trazado_67233" data-name="Trazado 67233" d="M312.26,23.489a2.687,2.687,0,0,0-3.585-.74,2.607,2.607,0,0,0-.882,3.3A2.518,2.518,0,0,0,309.93,27.3a2.9,2.9,0,0,0,1.467-.331,2.548,2.548,0,0,0,.863-3.48M309.4,25.2a.758.758,0,0,1,1.165-.916.785.785,0,0,1,.006,1.159A.8.8,0,0,1,309.4,25.2" transform="translate(-252.814 -18.388)"/>
        <path id="Trazado_67234" data-name="Trazado 67234" d="M278.8,22.384c-.77-.029-1.378-.032-2.147,0-.609.029-1.107.359-.949,1.028.111.467.76.537,1.248.551-.006.5-.022,1.188,0,1.69a4.849,4.849,0,0,0,.078.92.839.839,0,0,0,1.61.189,6.156,6.156,0,0,0,.144-2.033c0-.215.008-.554.011-.769.541,0,1.192-.128,1.245-.645.086-.828-.637-.912-1.237-.934" transform="translate(-226.622 -18.383)"/>
        <path id="Trazado_67235" data-name="Trazado 67235" d="M217.672,26.16c.123.152.254.3.388.439a2.044,2.044,0,0,0,.5.386,1.308,1.308,0,0,0,.627.16c.627-.01.819-.575.854-1.085.029-.417.023-.9.019-1.312,0-.319-.007-.612,0-.917a3.342,3.342,0,0,0-.066-.9.888.888,0,0,0-.568-.614.98.98,0,0,0-.8.13,1.673,1.673,0,0,0-.427,1.374,10.891,10.891,0,0,0-.826-.943,1.555,1.555,0,0,0-1.158-.582.781.781,0,0,0-.732.572,6.839,6.839,0,0,0-.116,1.824c0,.4-.026.81,0,1.213a1.819,1.819,0,0,0,.287,1,.822.822,0,0,0,.784.335.736.736,0,0,0,.572-.314,2.147,2.147,0,0,0,.238-1.335s.255.357.424.565" transform="translate(-177.036 -18.32)"/>
        <path id="Trazado_67236" data-name="Trazado 67236" d="M103.959,22.889a.84.84,0,0,0-.321-.326,2.3,2.3,0,0,0-1.131-.2c-.563,0-1.07-.023-1.633,0a1.767,1.767,0,0,0-.458.074.783.783,0,0,0-.5,1c.106.373.5.483.855.542.09.015.262.024.353.028.008.676-.035,1.621.038,2.293.059.535.292,1.012.961.985a.609.609,0,0,0,.454-.263,1.721,1.721,0,0,0,.234-.986c.007-.144.041-2.022.043-2.022a2.643,2.643,0,0,0,.53-.043.709.709,0,0,0,.575-1.087" transform="translate(-82.106 -18.378)"/>
        <path id="Trazado_67237" data-name="Trazado 67237" d="M2.994,25.365a2.428,2.428,0,0,1-.291.119.641.641,0,0,1-.626-.127.87.87,0,0,1-.255-.612.83.83,0,0,1,.361-.7.654.654,0,0,1,.377-.092,1.518,1.518,0,0,1,.465.158,1.065,1.065,0,0,0,.9-.065.725.725,0,0,0,.351-.725.941.941,0,0,0-.4-.695,1.912,1.912,0,0,0-.8-.337,2.7,2.7,0,0,0-.4-.033,2.655,2.655,0,0,0-2.075.888A2.646,2.646,0,0,0,.24,25.9a2.4,2.4,0,0,0,1.416,1.2,2.972,2.972,0,0,0,1.53.052A1.378,1.378,0,0,0,4.2,26.443a.959.959,0,0,0,.068-.615.82.82,0,0,0-.98-.544,1.1,1.1,0,0,0-.3.081" transform="translate(0 -18.296)"/>
        <path id="Trazado_67238" data-name="Trazado 67238" d="M36.107,23.085c-.2-.416-.5-1.045-1.1-1.07-.058,0-.105,0-.112,0-.538.018-.827.5-1.034.923-.051.1-.105.207-.161.309-.213.39-.4.793-.581,1.2-.2.459-.408.928-.566,1.4a1.1,1.1,0,0,0-.054.415.751.751,0,0,0,.351.673.915.915,0,0,0,.68.1c.37-.1.552-.424.674-.826.189,0,.521,0,.711,0h.073c.187,0,.518,0,.708,0a1.315,1.315,0,0,0,.049.131.953.953,0,0,0,.626.7.881.881,0,0,0,.219.028H36.6a.9.9,0,0,0,.571-.227l.017-.015a.615.615,0,0,0,.173-.247,1.066,1.066,0,0,0,.058-.295,1.259,1.259,0,0,0-.136-.645L37,25q-.421-.971-.9-1.916m-1.16,1.837c-.207,0-.232,0-.525-.006a11.557,11.557,0,0,1,.524-1.2h0c.157.3.41.91.524,1.2-.293.006-.318,0-.525.006" transform="translate(-26.711 -18.097)"/>
        <path id="Trazado_67239" data-name="Trazado 67239" d="M255.383,22.694a.844.844,0,0,0-.7-.339.919.919,0,0,0-.7.342,1.986,1.986,0,0,0-.31,1.148c-.031.445-.017.9-.019,1.343a5.926,5.926,0,0,0,.066,1.3.96.96,0,0,0,1.421.656c.651-.4.548-1.269.566-1.909.013-.442,0-.838,0-1.257a2.349,2.349,0,0,0-.327-1.286" transform="translate(-208.519 -18.377)"/>
      </g>
    </g>
  </g>
</svg>
