<svg xmlns="http://www.w3.org/2000/svg" width="58" height="58" viewBox="0 0 58 58">
  <g id="Grupo_18589" data-name="Grupo 18589" transform="translate(0.208)">
    <rect id="Rectángulo_18104" data-name="Rectángulo 18104" width="58" height="58" transform="translate(-0.208)" fill="none"/>
    <g id="Grupo_18468" data-name="Grupo 18468" transform="translate(19.248 19.004)">
      <path id="Trazado_1301" data-name="Trazado 1301" d="M68.8,251.126a1.016,1.016,0,0,1,.333-.683.98.98,0,0,1,.7-.281h8.222a1.031,1.031,0,1,1,0,2.063H70.692l-.865,5.294a7.294,7.294,0,0,1,3.2-.733,6.982,6.982,0,0,1,2.827.583,7.47,7.47,0,0,1,2.331,1.581,7.556,7.556,0,0,1,1.581,2.329,7.177,7.177,0,0,1,0,5.659,7.555,7.555,0,0,1-1.581,2.329,7.468,7.468,0,0,1-2.331,1.581,6.946,6.946,0,0,1-2.827.583,7.063,7.063,0,0,1-3.846-1.081A7.675,7.675,0,0,1,66.5,267.5a1.506,1.506,0,0,1-.233-.831.983.983,0,0,1,.233-.648.852.852,0,0,1,.7-.283,1.033,1.033,0,0,1,.681.267,2.232,2.232,0,0,1,.517.631,5.23,5.23,0,0,0,4.628,2.73,5.029,5.029,0,0,0,2.048-.417,5.377,5.377,0,0,0,2.794-2.8,5.231,5.231,0,0,0,0-4.092,5.377,5.377,0,0,0-2.794-2.8,5.029,5.029,0,0,0-2.048-.417,7.931,7.931,0,0,0-.967.065,5.587,5.587,0,0,0-1.033.233,4.515,4.515,0,0,0-.929.433,2.212,2.212,0,0,0-.7.667,4.856,4.856,0,0,1-.5.6.848.848,0,0,1-.633.233.861.861,0,0,1-.665-.3.988.988,0,0,1-.267-.667.186.186,0,0,1,.019-.1.241.241,0,0,0,.017-.1Z" transform="translate(-64.868 -248.765)" fill="#70338a"/>
      <path id="Trazado_1302" data-name="Trazado 1302" d="M73.749,273.554a8.455,8.455,0,0,1-4.59-1.3A9.1,9.1,0,0,1,66,268.9a2.815,2.815,0,0,1-.4-1.5,2.392,2.392,0,0,1,.552-1.538,2.42,2.42,0,0,1,3.357-.2,3.61,3.61,0,0,1,.842,1.027,3.769,3.769,0,0,0,1.4,1.461,3.908,3.908,0,0,0,3.49.248,3.988,3.988,0,0,0,2.077-2.079,3.822,3.822,0,0,0,0-2.969,3.968,3.968,0,0,0-2.075-2.082,4.124,4.124,0,0,0-2.281-.244,4.2,4.2,0,0,0-.769.175,3.086,3.086,0,0,0-.633.294.891.891,0,0,0-.273.252,6.162,6.162,0,0,1-.679.817,2.218,2.218,0,0,1-1.615.638,2.255,2.255,0,0,1-1.706-.767,2.373,2.373,0,0,1-.621-1.594l.1-.588,1.379-8.578a2.418,2.418,0,0,1,.76-1.523,2.379,2.379,0,0,1,1.656-.66h8.222a2.427,2.427,0,1,1,0,4.855H72.6l-.308,1.89a8.6,8.6,0,0,1,4.84.579,8.9,8.9,0,0,1,2.761,1.873,9.058,9.058,0,0,1,1.873,2.754,8.581,8.581,0,0,1,0,6.78,9.027,9.027,0,0,1-1.873,2.759,8.9,8.9,0,0,1-2.761,1.873A8.371,8.371,0,0,1,73.749,273.554Zm-5.113-12.972,0,0Z" transform="translate(-65.594 -249.491)" fill="#70338a"/>
      <text id="CINCO" transform="translate(23.166 24.552) rotate(-90)" fill="#70338a" font-size="6" font-family="Helvetica" letter-spacing="0.04em"><tspan x="0" y="0">CINCO</tspan></text>
    </g>
  </g>
</svg>
