<svg xmlns="http://www.w3.org/2000/svg" xmlns:xlink="http://www.w3.org/1999/xlink" width="85" height="84" viewBox="0 0 85 84">
  <defs>
    <filter id="Rectángulo_18065" x="0" y="0" width="85" height="84" filterUnits="userSpaceOnUse">
      <feOffset dy="3" input="SourceAlpha"/>
      <feGaussianBlur stdDeviation="3" result="blur"/>
      <feFlood flood-opacity="0.161"/>
      <feComposite operator="in" in2="blur"/>
      <feComposite in="SourceGraphic"/>
    </filter>
  </defs>
  <g id="Grupo_18810" data-name="Grupo 18810" transform="translate(-259 -1410)">
    <g transform="matrix(1, 0, 0, 1, 259, 1410)" filter="url(#Rectángulo_18065)">
      <rect id="Rectángulo_18065-2" data-name="Rectángulo 18065" width="67" height="66" rx="10" transform="translate(9 6)" fill="#fff"/>
    </g>
    <g id="Grupo_18221" data-name="Grupo 18221" transform="translate(276 1435)">
      <path id="Trazado_408" data-name="Trazado 408" d="M77.409,127.81a2.048,2.048,0,0,1-2.319-.32,2.163,2.163,0,0,1,0-2.847,2.054,2.054,0,0,1,2.319-.322,1.488,1.488,0,0,1,.616.608l1.6-.923a3.493,3.493,0,0,0-1.314-1.252,3.776,3.776,0,1,0,0,6.631,3.427,3.427,0,0,0,1.31-1.256l-1.6-.932a1.478,1.478,0,0,1-.616.614" transform="translate(-72.713 -101.93)" fill="#060606"/>
      <rect id="Rectángulo_8" data-name="Rectángulo 8" width="1.853" height="7.248" transform="translate(7.166 20.513)" fill="#060606"/>
      <path id="Trazado_409" data-name="Trazado 409" d="M81.247,122.359V126l-2.557-3.645H77.251v7.248H79.1v-3.644l2.558,3.644h1.429v-7.248Z" transform="translate(-67.506 -101.847)" fill="#060606"/>
      <path id="Trazado_410" data-name="Trazado 410" d="M82.167,127.868V126.8h2.5v-1.708h-2.5v-1h2.754v-1.73H80.312v7.248h4.66v-1.739Z" transform="translate(-63.993 -101.847)" fill="#060606"/>
      <path id="Trazado_411" data-name="Trazado 411" d="M86.428,129.094a2.949,2.949,0,0,1-2.216-.88,3.154,3.154,0,0,1,0-4.327A2.943,2.943,0,0,1,86.428,123a2.789,2.789,0,0,1,2.5,1.452l.642-.374a3.57,3.57,0,0,0-3.137-1.78,3.749,3.749,0,1,0,0,7.5,3.555,3.555,0,0,0,3.137-1.793l-.642-.361a2.791,2.791,0,0,1-2.5,1.449" transform="translate(-61.337 -101.912)" fill="#060606"/>
      <path id="Trazado_412" data-name="Trazado 412" d="M89.367,122.359h-.747l-2.785,7.248H86.6l.672-1.778h3.438l.672,1.778h.767Zm-1.834,4.784,1.458-3.883,1.462,3.883Z" transform="translate(-57.658 -101.847)" fill="#060606"/>
      <path id="Trazado_413" data-name="Trazado 413" d="M93.676,122.359v5.9l-4.038-5.9h-.621v7.248h.724v-5.9l4.039,5.9H94.4v-7.248Z" transform="translate(-54.006 -101.847)" fill="#060606"/>
      <path id="Trazado_414" data-name="Trazado 414" d="M95.3,122.359H94.55l-2.785,7.248h.767l.672-1.778h3.438l.674,1.778h.767Zm-1.832,4.784,1.46-3.883,1.46,3.883Z" transform="translate(-50.852 -101.847)" fill="#060606"/>
      <path id="Trazado_415" data-name="Trazado 415" d="M95.673,128.925v-6.565h-.725v7.248h4.039v-.682Z" transform="translate(-47.201 -101.847)" fill="#060606"/>
      <path id="Trazado_416" data-name="Trazado 416" d="M88.936,112.807a8.243,8.243,0,1,0,8.242,8.242,8.241,8.241,0,0,0-8.242-8.242m-1.16,9.665a2.044,2.044,0,0,0,2.319.322,1.483,1.483,0,0,0,.616-.616l1.6.932a3.433,3.433,0,0,1-1.31,1.258,3.709,3.709,0,0,1-1.827.462,3.781,3.781,0,1,1,1.823-7.1,3.483,3.483,0,0,1,1.314,1.254l-1.6.921a1.484,1.484,0,0,0-.616-.606,1.864,1.864,0,0,0-.917-.223,1.883,1.883,0,0,0-1.4.543,2.169,2.169,0,0,0,0,2.847" transform="translate(-63.558 -112.807)" fill="#060606"/>
    </g>
  </g>
</svg>
