<svg xmlns="http://www.w3.org/2000/svg" xmlns:xlink="http://www.w3.org/1999/xlink" width="84.849" height="84.849" viewBox="0 0 84.849 84.849">
  <defs>
    <filter id="Rect치ngulo_18066" x="0" y="0" width="84.849" height="84.849" filterUnits="userSpaceOnUse">
      <feOffset dy="3" input="SourceAlpha"/>
      <feGaussianBlur stdDeviation="3" result="blur"/>
      <feFlood flood-opacity="0.161"/>
      <feComposite operator="in" in2="blur"/>
      <feComposite in="SourceGraphic"/>
    </filter>
  </defs>
  <g id="Grupo_18811" data-name="Grupo 18811" transform="translate(-347 -1409)">
    <g transform="matrix(1, 0, 0, 1, 347, 1409)" filter="url(#Rect치ngulo_18066)">
      <rect id="Rect치ngulo_18066-2" data-name="Rect치ngulo 18066" width="66.849" height="66.849" rx="10" transform="translate(9 6)" fill="#fff"/>
    </g>
    <g id="Grupo_18217" data-name="Grupo 18217" transform="translate(362 1439)">
      <path id="Trazado_327" data-name="Trazado 327" d="M159.6,115.555l-47.624,6.123-.85,8.731,47.227-5.726Z" transform="translate(-107.89 -113.63)" fill="#040505"/>
      <path id="Trazado_328" data-name="Trazado 328" d="M148.7,121.782l.365,1.544-1.176.144Zm15.139-7.191L162.1,126.968,109.5,133.426l1.741-12.377Zm-7.375,6.911,2.392-3.487-2.492.306-1.114,1.723-.929-1.472-2.326.286,1.887,2.868-2.153,3.141-1.613-5.769-2.135.262-3.427,6.528.879-6.224-2.364.29-1.707,2.508-1.052-2.169-2.123.262-.939,6.65,2.107-.26.463-3.295,1.144,2.183.038,0,1.815-2.548-.465,3.3,1.969-.242.174-.022,2.173-.266.455-.933,2.252-.278.216.851,1.723-.212.567-.07,1.925-.236,1.308-2.009,1.008,1.725,2.326-.288Zm-22.679,2.047.094-.675,3.377-.413.262-1.825-5.491.675-.939,6.65,5.485-.675.256-1.823-3.375.413.108-.721,3.145-.387.222-1.6Zm-9.807,5.284,2.131-.262.473-3.307,1.919,3.013,1.913-.236.939-6.65-2.133.262-.451,3.173-1.841-2.891-2.013.248Zm.276-6.57-2.153.266-.939,6.65,2.153-.264Zm-9.136,6.512c-.06.593.549,1.08,1.352.982h0l4.014-.493.278-1.859-2.728.335c-.361.044-.685-.068-.621-.535l.238-1.685c.074-.535.525-.679,1-.737l2.526-.307.266-1.865-4.443.547a1.4,1.4,0,0,0-1.244,1.052l-.639,4.565Z" transform="translate(-109.505 -114.591)" fill="#ffae05"/>
    </g>
  </g>
</svg>
