<svg xmlns="http://www.w3.org/2000/svg" xmlns:xlink="http://www.w3.org/1999/xlink" width="85" height="85" viewBox="0 0 85 85">
  <defs>
    <filter id="Rectángulo_18093" x="0" y="0" width="85" height="85" filterUnits="userSpaceOnUse">
      <feOffset dy="3" input="SourceAlpha"/>
      <feGaussianBlur stdDeviation="3" result="blur"/>
      <feFlood flood-opacity="0.161"/>
      <feComposite operator="in" in2="blur"/>
      <feComposite in="SourceGraphic"/>
    </filter>
  </defs>
  <g id="Claro" transform="translate(-870 -1195)">
    <g transform="matrix(1, 0, 0, 1, 870, 1195)" filter="url(#Rectángulo_18093)">
      <rect id="Rectángulo_18093-2" data-name="Rectángulo 18093" width="67" height="67" rx="10" transform="translate(9 6)" fill="#f7fcfe"/>
    </g>
    <g id="Grupo_18238" data-name="Grupo 18238" transform="translate(891 1221)">
      <path id="Trazado_552" data-name="Trazado 552" d="M391.1,150.733a3.27,3.27,0,0,1-2.565-.866l.983-.983a2.187,2.187,0,0,0,1.6.568c.521,0,1.065-.174,1.065-.624,0-.3-.162-.509-.638-.554l-.946-.094c-1.086-.1-1.758-.577-1.758-1.687,0-1.246,1.1-1.917,2.323-1.917a3.193,3.193,0,0,1,2.3.7l-.925.936a2.1,2.1,0,0,0-1.4-.4c-.6,0-.854.277-.854.577,0,.221.091.472.622.519l.948.094c1.192.115,1.793.751,1.793,1.767,0,1.33-1.133,1.964-2.555,1.964" transform="translate(-377.151 -125.513)" fill="#060606"/>
      <path id="Trazado_553" data-name="Trazado 553" d="M395.581,150.191a2.084,2.084,0,0,1-1.464.544,1.784,1.784,0,0,1-1.457-.6v2.741h-1.5v-8.229h1.455v.566a1.838,1.838,0,0,1,1.5-.634,2.093,2.093,0,0,1,1.464.542,5.54,5.54,0,0,1,0,5.073m-1.905-4.264c-.9,0-1.016.739-1.016,1.722s.115,1.732,1.016,1.732,1.018-.751,1.018-1.732-.115-1.722-1.018-1.722" transform="translate(-373.623 -125.513)" fill="#060606"/>
      <path id="Trazado_554" data-name="Trazado 554" d="M398.08,149.994a2.727,2.727,0,0,1-3.733,0,4.362,4.362,0,0,1,0-4.679,2.727,2.727,0,0,1,3.733,0,4.349,4.349,0,0,1,0,4.679m-1.166-3.8a.961.961,0,0,0-.706-.265.928.928,0,0,0-.692.265,2.032,2.032,0,0,0-.347,1.455,2.065,2.065,0,0,0,.347,1.469.928.928,0,0,0,.692.265.961.961,0,0,0,.706-.265,2.076,2.076,0,0,0,.345-1.469,2.043,2.043,0,0,0-.345-1.455" transform="translate(-370.246 -125.513)" fill="#060606"/>
      <path id="Trazado_555" data-name="Trazado 555" d="M399.493,146.284a1.006,1.006,0,0,0-1.769.751v3.63h-1.5v-6.021h1.467v.577a2.041,2.041,0,0,1,1.514-.645,1.815,1.815,0,0,1,1.422.566Z" transform="translate(-366.804 -125.513)" fill="#060606"/>
      <path id="Trazado_556" data-name="Trazado 556" d="M400.7,151.547a1.633,1.633,0,0,1-1.746-1.722v-2.98h-.636V145.7h.636v-1.779h1.5V145.7h1.065v1.145H400.46v2.886c0,.35.162.544.521.544h.544v1.272Z" transform="translate(-363.977 -126.395)" fill="#060606"/>
      <path id="Trazado_557" data-name="Trazado 557" d="M402.483,150.733a3.269,3.269,0,0,1-2.565-.866l.981-.983a2.189,2.189,0,0,0,1.607.568c.521,0,1.063-.174,1.063-.624,0-.3-.162-.509-.636-.554l-.948-.094c-1.086-.1-1.755-.577-1.755-1.687,0-1.246,1.1-1.917,2.321-1.917a3.186,3.186,0,0,1,2.3.7l-.924.936a2.088,2.088,0,0,0-1.4-.4c-.6,0-.854.277-.854.577,0,.221.094.472.624.519l.948.094c1.19.115,1.793.751,1.793,1.767,0,1.33-1.133,1.964-2.555,1.964" transform="translate(-361.828 -125.513)" fill="#060606"/>
      <path id="Trazado_558" data-name="Trazado 558" d="M401.468,145.34a2.216,2.216,0,0,1-3.172,0,2.264,2.264,0,0,1-.671-1.6,2.211,2.211,0,0,1,.671-1.617,2.024,2.024,0,0,1,1.577-.652,2.1,2.1,0,0,1,1.614.652,2.283,2.283,0,0,1-.019,3.215m1.438-4.655a4.145,4.145,0,0,0-3.034-1.265,4.028,4.028,0,0,0-2.994,1.265,4.169,4.169,0,0,0-1.262,3.057,4.094,4.094,0,0,0,1.262,3.039,4.044,4.044,0,0,0,2.994,1.281,4.306,4.306,0,0,0,4.275-4.32,4.233,4.233,0,0,0-1.241-3.057" transform="translate(-367.62 -132.456)" fill="#d60812"/>
      <path id="Trazado_559" data-name="Trazado 559" d="M388.965,138.521a4.852,4.852,0,0,0-3.724,1.558,5.112,5.112,0,0,0-1.556,3.768,5.184,5.184,0,0,0,1.556,3.787,5.033,5.033,0,0,0,3.724,1.542,5.128,5.128,0,0,0,3.212-1.089,5.353,5.353,0,0,0,1.851-2.818h-2.147a3.725,3.725,0,0,1-1.164,1.359,3.273,3.273,0,0,1-1.753.514,3.153,3.153,0,0,1-2.3-.967,3.337,3.337,0,0,1,0-4.655,3.2,3.2,0,0,1,4.057-.434,3.569,3.569,0,0,1,1.164,1.361h2.147a5.279,5.279,0,0,0-1.851-2.82,4.93,4.93,0,0,0-3.212-1.105" transform="translate(-383.685 -133.667)" fill="#d60812"/>
      <path id="Trazado_560" data-name="Trazado 560" d="M394.435,144.05l.394-.216v.828a1.733,1.733,0,0,1-.57,1.478,2.155,2.155,0,0,1-1.284.415,1.12,1.12,0,0,1-.727-.237,1.175,1.175,0,0,1,.2-1.736,2.76,2.76,0,0,1,.967-.277Zm-.866-4.637a3.366,3.366,0,0,0-2.9,1.084,3.275,3.275,0,0,0-.589,1.8h2.051a1.316,1.316,0,0,1,.293-.749,1.22,1.22,0,0,1,1.084-.4,1.807,1.807,0,0,1,1,.2.741.741,0,0,1,.354.692.681.681,0,0,1-.472.631l-1.579.253a4.972,4.972,0,0,0-1.772.535,2.32,2.32,0,0,0-1.122,2.231,2.2,2.2,0,0,0,.688,1.753,2.64,2.64,0,0,0,1.678.573,3.992,3.992,0,0,0,2.637-.849v.849h2.051v-6.037a2.106,2.106,0,0,0-1.025-2.03,4.748,4.748,0,0,0-2.384-.535" transform="translate(-375.285 -132.467)" fill="#d60812"/>
      <rect id="Rectángulo_19" data-name="Rectángulo 19" width="2.049" height="10.694" transform="translate(11.388 4.855)" fill="#d60812"/>
      <path id="Trazado_561" data-name="Trazado 561" d="M396.926,139.685a3.271,3.271,0,0,0-1.46,1.164V139.8l-1.95-.021v8.208h2.027v-3.926a2.946,2.946,0,0,1,.258-1.441,1.943,1.943,0,0,1,.711-.788,1.986,1.986,0,0,1,1.124-.357l.629.042-.019-2.093-.533.04Z" transform="translate(-370.447 -132.444)" fill="#d60812"/>
      <rect id="Rectángulo_20" data-name="Rectángulo 20" width="6.999" height="1.84" transform="translate(35.582 5.98) rotate(-45.03)" fill="#d60812"/>
      <rect id="Rectángulo_21" data-name="Rectángulo 21" width="1.833" height="5.309" transform="translate(31.582 0)" fill="#d60812"/>
      <rect id="Rectángulo_22" data-name="Rectángulo 22" width="5.419" height="1.835" transform="translate(37.789 9.334)" fill="#d60812"/>
      <rect id="Rectángulo_23" data-name="Rectángulo 23" width="43.208" height="27.358" transform="translate(0.001 0)" fill="none"/>
      <rect id="Rectángulo_24" data-name="Rectángulo 24" width="43.208" height="27.359" transform="translate(0.001 0)" fill="none"/>
    </g>
  </g>
</svg>
