<svg xmlns="http://www.w3.org/2000/svg" xmlns:xlink="http://www.w3.org/1999/xlink" width="85" height="85" viewBox="0 0 85 85">
  <defs>
    <filter id="Rectángulo_18090" x="0" y="0" width="85" height="85" filterUnits="userSpaceOnUse">
      <feOffset dy="3" input="SourceAlpha"/>
      <feGaussianBlur stdDeviation="3" result="blur"/>
      <feFlood flood-opacity="0.161"/>
      <feComposite operator="in" in2="blur"/>
      <feComposite in="SourceGraphic"/>
    </filter>
    <clipPath id="clip-path">
      <rect id="Rectángulo_23335" data-name="Rectángulo 23335" width="38.959" height="24.759" fill="none"/>
    </clipPath>
  </defs>
  <g id="click" transform="translate(-94 -97)">
    <g id="Grupo_31989" data-name="Grupo 31989" transform="translate(-375 84)">
      <g transform="matrix(1, 0, 0, 1, 469, 13)" filter="url(#Rectángulo_18090)">
        <rect id="Rectángulo_18090-2" data-name="Rectángulo 18090" width="67" height="67" rx="10" transform="translate(9 6)" fill="#fff"/>
      </g>
    </g>
    <g id="click-2" data-name="click" transform="translate(117 124)">
      <g id="Grupo_31956" data-name="Grupo 31956" clip-path="url(#clip-path)">
        <path id="Trazado_67124" data-name="Trazado 67124" d="M17.267,18.855a8.113,8.113,0,1,1-.383-13.223l3.054-3.054A12.379,12.379,0,1,0,20.3,21.89Z" transform="translate(0 0)" fill="#003847"/>
        <path id="Trazado_67125" data-name="Trazado 67125" d="M518.563,171.866a.423.423,0,0,1,0,.732l-1.591.919-1.591.919a.423.423,0,0,1-.634-.366v-3.675a.423.423,0,0,1,.634-.366l1.591.919Z" transform="translate(-483.111 -159.525)" fill="#003847"/>
        <path id="Trazado_67126" data-name="Trazado 67126" d="M280.146,127.126v7.788h4.894v2h-7.075v-9.788Z" transform="translate(-260.882 -119.313)" fill="#003847"/>
        <rect id="Rectángulo_23334" data-name="Rectángulo 23334" width="2.167" height="9.788" transform="translate(25.473 7.813)" fill="#003847"/>
        <path id="Trazado_67127" data-name="Trazado 67127" d="M474.741,118.2a3.945,3.945,0,1,0,.186-6.43l-1.485-1.485a6.02,6.02,0,1,1-.178,9.392Z" transform="translate(-444.18 -102.327)" fill="#003847"/>
      </g>
    </g>
  </g>
</svg>
