<svg xmlns="http://www.w3.org/2000/svg" xmlns:xlink="http://www.w3.org/1999/xlink" width="85" height="85" viewBox="0 0 85 85">
  <defs>
    <filter id="Rect치ngulo_18084" x="0" y="0" width="85" height="85" filterUnits="userSpaceOnUse">
      <feOffset dy="3" input="SourceAlpha"/>
      <feGaussianBlur stdDeviation="3" result="blur"/>
      <feFlood flood-opacity="0.161"/>
      <feComposite operator="in" in2="blur"/>
      <feComposite in="SourceGraphic"/>
    </filter>
  </defs>
  <g id="Grupo_18836" data-name="Grupo 18836" transform="translate(-259 -1494)">
    <g transform="matrix(1, 0, 0, 1, 259, 1494)" filter="url(#Rect치ngulo_18084)">
      <rect id="Rect치ngulo_18084-2" data-name="Rect치ngulo 18084" width="67" height="67" rx="10" transform="translate(9 6)" fill="#fff"/>
    </g>
    <g id="Grupo_18235" data-name="Grupo 18235" transform="translate(281 1520)">
      <path id="Trazado_536" data-name="Trazado 536" d="M92.747,144.894v.165h-.312v.83h-.2v-.83h-.315v-.165Zm1.076,1-.038-.589c0-.074,0-.17-.013-.279h-.005c-.023.094-.053.211-.079.3l-.18.551H93.3l-.175-.563c-.018-.074-.048-.193-.066-.287h-.013c0,.1,0,.188-.005.279l-.038.589h-.193l.074-1h.292l.175.482a2.312,2.312,0,0,1,.063.254h.013a1.783,1.783,0,0,1,.063-.244l.175-.492h.284l.079,1Z" transform="translate(-53.529 -119.527)" fill="#e50021"/>
      <path id="Trazado_537" data-name="Trazado 537" d="M77.894,147.3a5.936,5.936,0,0,0,6.336,6.046h5.242a.643.643,0,0,0,.632-.635V141.859a1.085,1.085,0,0,1,.713-1.107,1.066,1.066,0,0,1,1.18.437l.01.02c1.457,2.386,7.232,11.628,7.414,11.927a.45.45,0,0,0,.485.216c.18-.051.294-.269.294-.563V141.862a1.08,1.08,0,0,1,.711-1.1,1.05,1.05,0,0,1,1.175.439l.013.013c1.457,2.386,7.224,11.63,7.417,11.927a.452.452,0,0,0,.5.218c.183-.053.294-.272.294-.566v-14.4h-2.236V146.8s-1.348-2.284-3.647-6.224c-2.246-3.861-6.485-2.264-6.485,1.056v5.165s-1.312-2.287-3.607-6.224c-2.239-3.861-6.49-2.264-6.493,1.056v8.884a.581.581,0,0,1-.579.6H84.483c-6.011.01-5.473-7.681-.358-7.686,2.274-.005,3.066,0,3.066,0V141.2H84.006A5.92,5.92,0,0,0,77.894,147.3Z" transform="translate(-75.101 -129.645)" fill="#e50021"/>
      <path id="Trazado_538" data-name="Trazado 538" d="M112.567,138.345v14.4a1.058,1.058,0,0,1-.688,1.107.986.986,0,0,1-.289.043,1.059,1.059,0,0,1-.85-.48l-.005-.013c-.058-.1-5.937-9.5-7.427-11.937a.492.492,0,0,0-.536-.213.55.55,0,0,0-.312.566v10.925a1.071,1.071,0,0,1-.688,1.109,1,1,0,0,1-1.122-.442l-.01-.01c-.058-.094-5.935-9.5-7.424-11.935a.483.483,0,0,0-.53-.213.53.53,0,0,0-.317.563v10.851a1.2,1.2,0,0,1-1.2,1.2H85.922a6.64,6.64,0,1,1-.226-13.275h3.188v-2.251H86.1c-12.491,0-12.382,17.8.168,17.806h4.9a3.214,3.214,0,0,0,3.465-3.551v-4.511s2.749,4.556,3.83,6.341c1.833,3.031,6.277,2.434,6.264-1.353v-4.988l3.82,6.343c1.843,3.031,6.277,2.437,6.264-1.353V138.345Z" transform="translate(-76.794 -129.605)" fill="#e50021"/>
      <path id="Trazado_539" data-name="Trazado 539" d="M99.285,139.364c-2.051.056-3.49-.518-5.681-1.383l-.213-.089a13.029,13.029,0,0,0-5.5-1.35,5.415,5.415,0,0,0-5.343,3.833h.871a5.594,5.594,0,0,1,1.086-1.6,4.21,4.21,0,0,1,2.871-.942,6.047,6.047,0,0,1,1.4.183,9.938,9.938,0,0,1,1.368.4l1.663.66c.594.231,1.038.429,1.5.586l.208.091a17.7,17.7,0,0,0,2.434.721,10.337,10.337,0,0,0,2.325.264,8.388,8.388,0,0,0,4.637-1.373,7.544,7.544,0,0,0,3.041-4.325h-.833l-.028.091A5.963,5.963,0,0,1,99.285,139.364Z" transform="translate(-67.934 -134.683)" fill="#e50021"/>
      <path id="Trazado_540" data-name="Trazado 540" d="M82.9,140.52a5.964,5.964,0,0,1,5.795-4.229,13.284,13.284,0,0,1,5.678,1.386l.223.086a12.913,12.913,0,0,0,5.5,1.355,5.416,5.416,0,0,0,5.343-3.861h-.873a5.556,5.556,0,0,1-1.091,1.6,4.179,4.179,0,0,1-2.873.944,6.282,6.282,0,0,1-1.394-.183,12.981,12.981,0,0,1-1.366-.4l-1.657-.665L96,136.491l-1.427-.543a19.758,19.758,0,0,0-2.536-.789,10.544,10.544,0,0,0-2.315-.259,8.374,8.374,0,0,0-4.64,1.368,7.614,7.614,0,0,0-3.051,4.323h.853Z" transform="translate(-68.743 -134.9)" fill="#e50021"/>
    </g>
  </g>
</svg>
