<svg xmlns="http://www.w3.org/2000/svg" xmlns:xlink="http://www.w3.org/1999/xlink" width="84" height="85" viewBox="0 0 84 85">
  <defs>
    <filter id="Rectángulo_18108" x="0" y="0" width="84" height="85" filterUnits="userSpaceOnUse">
      <feOffset dy="3" input="SourceAlpha"/>
      <feGaussianBlur stdDeviation="3" result="blur"/>
      <feFlood flood-opacity="0.161"/>
      <feComposite operator="in" in2="blur"/>
      <feComposite in="SourceGraphic"/>
    </filter>
  </defs>
  <g id="Grupo_18841" data-name="Grupo 18841" transform="translate(-700 -1582)">
    <g transform="matrix(1, 0, 0, 1, 700, 1582)" filter="url(#Rectángulo_18108)">
      <rect id="Rectángulo_18108-2" data-name="Rectángulo 18108" width="66" height="67" rx="10" transform="translate(9 6)" fill="#fff"/>
    </g>
    <g id="_352_CNN_Internacional_Color" data-name="352 CNN Internacional Color" transform="translate(742.162 1621.173)">
      <g id="Grupo_18256" data-name="Grupo 18256" transform="translate(-16.162 -16.173)">
        <rect id="Rectángulo_18121" data-name="Rectángulo 18121" width="32.323" height="32.347" fill="#bc061b"/>
        <path id="Trazado_40255" data-name="Trazado 40255" d="M4.388,11.815A2.463,2.463,0,0,1,6.85,9.351H8.718v-1.4H6.834a3.86,3.86,0,0,0,0,7.719H10.46a.391.391,0,0,0,.367-.364V8.161a.836.836,0,0,1,.615-.826.919.919,0,0,1,1.046.5c.014.023.9,1.56,2.263,3.9l2.187,3.775c.114.194.27.286.419.246a.285.285,0,0,0,.2-.289V8.161a.841.841,0,0,1,.611-.828.921.921,0,0,1,1.042.5c.014.021.8,1.38,2.1,3.617l2.355,4.059c.113.194.27.286.419.246a.283.283,0,0,0,.2-.287V6h-1.4v5.636s-2.336-4.026-2.443-4.209c-1.484-2.519-4.286-1.479-4.286.691v3.519s-2.334-4.026-2.442-4.209c-1.484-2.519-4.286-1.479-4.286.691v5.766a.385.385,0,0,1-.386.393H6.85a2.463,2.463,0,0,1-2.462-2.464" transform="translate(2.179 4.358)" fill="#fff"/>
        <path id="Trazado_40256" data-name="Trazado 40256" d="M25.671,5.983v9.468a.839.839,0,0,1-.615.826.871.871,0,0,1-.216.029.961.961,0,0,1-.829-.53c-.012-.023-.94-1.622-2.355-4.064-1.022-1.759-2.076-3.579-2.1-3.614-.114-.192-.27-.286-.416-.246a.283.283,0,0,0-.2.289v7.309a.841.841,0,0,1-.615.826.925.925,0,0,1-1.048-.5c-.01-.021-.874-1.51-2.189-3.778-1.1-1.9-2.241-3.865-2.261-3.9-.114-.194-.27-.286-.419-.244a.282.282,0,0,0-.2.287v7.15a.948.948,0,0,1-.925.923H7.659a4.418,4.418,0,0,1,0-8.836H9.543v-1.4H7.66a5.814,5.814,0,0,0,0,11.628h3.662a2.109,2.109,0,0,0,2.284-2.322V11.973S15.943,16,16.05,16.182c1.484,2.521,4.286,1.479,4.286-.691V11.973S22.67,16,22.777,16.182c1.484,2.521,4.286,1.479,4.286-.691V5.983Z" transform="translate(1.354 4.377)" fill="#fff"/>
      </g>
    </g>
  </g>
</svg>
