<svg xmlns="http://www.w3.org/2000/svg" xmlns:xlink="http://www.w3.org/1999/xlink" width="85" height="85" viewBox="0 0 85 85">
  <defs>
    <filter id="Rectángulo_18103" x="0" y="0" width="85" height="85" filterUnits="userSpaceOnUse">
      <feOffset dy="3" input="SourceAlpha"/>
      <feGaussianBlur stdDeviation="3" result="blur"/>
      <feFlood flood-opacity="0.161"/>
      <feComposite operator="in" in2="blur"/>
      <feComposite in="SourceGraphic"/>
    </filter>
  </defs>
  <g id="Grupo_18809" data-name="Grupo 18809" transform="translate(-259 -1582)">
    <g transform="matrix(1, 0, 0, 1, 259, 1582)" filter="url(#Rectángulo_18103)">
      <rect id="Rectángulo_18103-2" data-name="Rectángulo 18103" width="67" height="67" rx="10" transform="translate(9 6)" fill="#fff"/>
    </g>
    <g id="Grupo_18246" data-name="Grupo 18246" transform="translate(278 1613)">
      <path id="Trazado_40219" data-name="Trazado 40219" d="M79.137,156.32a8.057,8.057,0,0,0-7.027,4.111l1.688.95a6.122,6.122,0,1,1,0,6.005l-1.688.948a8.06,8.06,0,1,0,7.024-12.014" transform="translate(-72.08 -156.309)" fill="#ffb800"/>
      <path id="Trazado_40220" data-name="Trazado 40220" d="M79.682,163.629a2.168,2.168,0,1,1,0-2.124l1.688-.95a4.1,4.1,0,1,0-.006,4.024Z" transform="translate(-70.737 -154.493)" fill="#ffb800"/>
      <path id="Trazado_40221" data-name="Trazado 40221" d="M96.379,167.276l-.192-.81H94.511l-.19.81H93.045l1.791-6.253h1.009l1.81,6.253Zm-1.168-3.719-.442,1.843h1.159l-.442-1.843c-.028-.122-.057-.27-.087-.442a3.14,3.14,0,0,1-.054-.392c-.007.089-.022.216-.046.384s-.055.316-.089.449" transform="translate(-54.32 -152.319)" fill="#060606"/>
      <path id="Trazado_40222" data-name="Trazado 40222" d="M82.762,158.342a2.193,2.193,0,0,0-.318,1.442v.7a2.139,2.139,0,0,0,.318,1.425.763.763,0,0,0,.615.257.906.906,0,0,0,.884-.615l1.1.475a2,2,0,0,1-1.985,1.309,2.048,2.048,0,0,1-1.333-.425,2.909,2.909,0,0,1-.85-2.418v-.758a2.873,2.873,0,0,1,.85-2.377,2.1,2.1,0,0,1,1.333-.442,1.985,1.985,0,0,1,1.985,1.351l-1.1.475a.891.891,0,0,0-.884-.658.775.775,0,0,0-.615.259" transform="translate(-64.373 -155.804)" fill="#060606"/>
      <path id="Trazado_40223" data-name="Trazado 40223" d="M84.594,162.909a2.909,2.909,0,0,1-.85-2.418v-.758a2.873,2.873,0,0,1,.85-2.377,2.234,2.234,0,0,1,2.667,0,2.873,2.873,0,0,1,.85,2.377v.791a2.878,2.878,0,0,1-.85,2.384,2.3,2.3,0,0,1-2.667,0m.717-4.567A2.207,2.207,0,0,0,85,159.784v.7a2.153,2.153,0,0,0,.316,1.425.868.868,0,0,0,1.233,0,2.139,2.139,0,0,0,.318-1.425v-.7a2.193,2.193,0,0,0-.318-1.442.864.864,0,0,0-1.233,0" transform="translate(-62.21 -155.804)" fill="#060606"/>
      <path id="Trazado_40224" data-name="Trazado 40224" d="M88.953,163.212l-.942-3.425-.384,3.425H86.47l.725-6.251H88.37l1.075,3.95,1.076-3.95h1.166l.734,6.251H91.262l-.392-3.425-.934,3.425Z" transform="translate(-59.898 -155.765)" fill="#060606"/>
      <path id="Trazado_40225" data-name="Trazado 40225" d="M90.213,156.96h3.319v1.167H91.463v1.326h1.793v1.166H91.463v1.425h2.069v1.167H90.213Z" transform="translate(-56.722 -155.765)" fill="#060606"/>
      <path id="Trazado_40226" data-name="Trazado 40226" d="M92.577,156.961h2a1.969,1.969,0,0,1,1.575.708,2.715,2.715,0,0,1,.584,1.784v1.116a3.019,3.019,0,0,1-.584,1.917,1.961,1.961,0,0,1-1.575.726h-2Zm1.858,5.083a.908.908,0,0,0,.793-.375,2.14,2.14,0,0,0,.257-1.183v-.993a1.693,1.693,0,0,0-.257-1.017.932.932,0,0,0-.793-.349h-.608v3.917Z" transform="translate(-54.717 -155.765)" fill="#060606"/>
      <path id="Trazado_40227" data-name="Trazado 40227" d="M96.577,160.2l-1.75-3.243h1.35l1.026,1.976,1.025-1.976h1.351L97.827,160.2v3.009h-1.25Z" transform="translate(-52.809 -155.766)" fill="#060606"/>
      <path id="Trazado_40228" data-name="Trazado 40228" d="M82.762,162.4a2.193,2.193,0,0,0-.318,1.442v.7a2.139,2.139,0,0,0,.318,1.425.765.765,0,0,0,.615.259.908.908,0,0,0,.884-.617l1.1.475a2,2,0,0,1-1.985,1.309,2.038,2.038,0,0,1-1.333-.425,2.909,2.909,0,0,1-.85-2.418v-.758a2.866,2.866,0,0,1,.85-2.375,2.1,2.1,0,0,1,1.333-.442,1.983,1.983,0,0,1,1.985,1.351l-1.1.475a.893.893,0,0,0-.884-.66.778.778,0,0,0-.615.259" transform="translate(-64.373 -152.362)" fill="#060606"/>
      <path id="Trazado_40229" data-name="Trazado 40229" d="M83.813,161.018h3.16v1.167H85.063v1.326H86.7v1.166H85.063V166.1h1.909v1.167h-3.16Z" transform="translate(-62.152 -152.324)" fill="#060606"/>
      <path id="Trazado_40230" data-name="Trazado 40230" d="M86.022,161.018h1.1l1.67,3.659v-3.659h1.142v6.251h-1.1l-1.671-3.609v3.609H86.022Z" transform="translate(-60.278 -152.324)" fill="#060606"/>
      <path id="Trazado_40231" data-name="Trazado 40231" d="M89.643,162.185H88.478v-1.167h3.58v1.167H90.893v5.084h-1.25Z" transform="translate(-58.194 -152.324)" fill="#060606"/>
      <path id="Trazado_40232" data-name="Trazado 40232" d="M92.017,167.269H90.766v-6.251h1.993a1.945,1.945,0,0,1,1.917,2.066v.142a2.048,2.048,0,0,1-.941,1.8l.917,2.242H93.392l-.81-1.983h-.566Zm.6-3.151c.468,0,.81-.29.81-.974v-.017c0-.625-.342-.943-.81-.943h-.6v1.933Z" transform="translate(-56.253 -152.323)" fill="#060606"/>
      <path id="Trazado_40233" data-name="Trazado 40233" d="M95.773,161.018h1.25V166.1H98.84v1.167H95.773Z" transform="translate(-52.006 -152.324)" fill="#060606"/>
      <rect id="Rectángulo_18115" data-name="Rectángulo 18115" width="46.864" height="16.141" fill="none"/>
      <rect id="Rectángulo_18116" data-name="Rectángulo 18116" width="46.863" height="16.141" fill="none"/>
    </g>
  </g>
</svg>
