<svg xmlns="http://www.w3.org/2000/svg" xmlns:xlink="http://www.w3.org/1999/xlink" width="85" height="85" viewBox="0 0 85 85">
  <defs>
    <filter id="Rectángulo_18090" x="0" y="0" width="85" height="85" filterUnits="userSpaceOnUse">
      <feOffset dy="3" input="SourceAlpha"/>
      <feGaussianBlur stdDeviation="3" result="blur"/>
      <feFlood flood-opacity="0.161"/>
      <feComposite operator="in" in2="blur"/>
      <feComposite in="SourceGraphic"/>
    </filter>
    <clipPath id="clip-path">
      <rect id="Rectángulo_23338" data-name="Rectángulo 23338" width="57.243" height="10.71" fill="none"/>
    </clipPath>
  </defs>
  <g id="corazon" transform="translate(-19 -97)">
    <g id="corazon-2" data-name="corazon">
      <g id="Grupo_31989" data-name="Grupo 31989" transform="translate(-450 84)">
        <g transform="matrix(1, 0, 0, 1, 469, 13)" filter="url(#Rectángulo_18090)">
          <rect id="Rectángulo_18090-2" data-name="Rectángulo 18090" width="67" height="67" rx="10" transform="translate(9 6)" fill="#fff"/>
        </g>
      </g>
      <g id="corazon-3" data-name="corazon" transform="translate(33 131)">
        <g id="Grupo_31960" data-name="Grupo 31960" transform="translate(0 0)" clip-path="url(#clip-path)">
          <path id="Trazado_67135" data-name="Trazado 67135" d="M0,14.225A4.038,4.038,0,0,1,.323,12.6a3.862,3.862,0,0,1,2.151-2.1,4.131,4.131,0,0,1,1.56-.3,4.138,4.138,0,0,1,1.856.421A3.693,3.693,0,0,1,7.279,11.8a.527.527,0,0,1,.081.313.345.345,0,0,1-.17.278l-.556.43a.383.383,0,0,1-.323.1.424.424,0,0,1-.287-.17,2.324,2.324,0,0,0-1.99-.95,2.651,2.651,0,0,0-.95.17,2.5,2.5,0,0,0-.789.475,2.145,2.145,0,0,0-.538.762,2.725,2.725,0,0,0,0,2.035,2.261,2.261,0,0,0,.538.762,2.416,2.416,0,0,0,.789.484,2.651,2.651,0,0,0,.95.17,2.546,2.546,0,0,0,1.139-.251,2.292,2.292,0,0,0,.851-.717.424.424,0,0,1,.287-.17.362.362,0,0,1,.323.116l.556.43a.347.347,0,0,1,.17.277.526.526,0,0,1-.081.314,3.613,3.613,0,0,1-1.39,1.166,4.2,4.2,0,0,1-1.856.412,4.141,4.141,0,0,1-1.56-.3A3.882,3.882,0,0,1,.323,15.856,4.01,4.01,0,0,1,0,14.225" transform="translate(0 -7.549)" fill="#b10027"/>
          <path id="Trazado_67136" data-name="Trazado 67136" d="M32.064,14.225a4.038,4.038,0,0,1,.323-1.623,3.864,3.864,0,0,1,2.151-2.1,4.258,4.258,0,0,1,3.12,0,3.939,3.939,0,0,1,1.282.825A3.8,3.8,0,0,1,39.8,12.6a4.4,4.4,0,0,1,0,3.263,3.8,3.8,0,0,1-.86,1.273,3.934,3.934,0,0,1-1.282.825,4.254,4.254,0,0,1-3.12,0,3.861,3.861,0,0,1-2.151-2.1,4.076,4.076,0,0,1-.323-1.64m1.56,0a2.58,2.58,0,0,0,.2,1.031,2.238,2.238,0,0,0,.538.771,2.416,2.416,0,0,0,.789.484,2.738,2.738,0,0,0,1.9,0,2.326,2.326,0,0,0,.78-.484,2.2,2.2,0,0,0,.52-.771,2.683,2.683,0,0,0,.188-1.031,2.632,2.632,0,0,0-.188-1.013,2.108,2.108,0,0,0-.52-.762,2.409,2.409,0,0,0-.78-.475,2.738,2.738,0,0,0-1.9,0,2.505,2.505,0,0,0-.789.475,2.145,2.145,0,0,0-.538.762,2.531,2.531,0,0,0-.2,1.013" transform="translate(-23.71 -7.549)" fill="#b10027"/>
          <path id="Trazado_67137" data-name="Trazado 67137" d="M72.407,12.476a3.756,3.756,0,0,0-1.049.143,2.537,2.537,0,0,0-.869.439,2.2,2.2,0,0,0-.609.762,2.62,2.62,0,0,0-.251,1.111V18.2a.41.41,0,0,1-.116.287.386.386,0,0,1-.3.125h-.753a.385.385,0,0,1-.3-.125.41.41,0,0,1-.116-.287V11.329a.426.426,0,0,1,.116-.314.4.4,0,0,1,.3-.116h.753a.4.4,0,0,1,.3.116.426.426,0,0,1,.116.314v.161c0,.084.015.134.045.152a.136.136,0,0,0,.126-.009,2.041,2.041,0,0,0,.215-.116,2.693,2.693,0,0,1,.3-.152,7.869,7.869,0,0,1,1-.332,4.361,4.361,0,0,1,1.094-.134.409.409,0,0,1,.287.116.388.388,0,0,1,.126.3v.752a.387.387,0,0,1-.126.3.408.408,0,0,1-.287.116" transform="translate(-50.32 -8.059)" fill="#b10027"/>
          <path id="Trazado_67138" data-name="Trazado 67138" d="M95.986,10.389a.4.4,0,0,1,.3.116.424.424,0,0,1,.117.314v6.866a.408.408,0,0,1-.117.287.386.386,0,0,1-.3.125h-.735a.385.385,0,0,1-.3-.125.409.409,0,0,1-.116-.287v-.036c0-.095-.084-.1-.251-.018a7.315,7.315,0,0,1-1.058.448,3.6,3.6,0,0,1-1.147.18,4.143,4.143,0,0,1-1.56-.3,3.861,3.861,0,0,1-2.151-2.1,4.284,4.284,0,0,1,0-3.263,3.864,3.864,0,0,1,2.151-2.1,4.133,4.133,0,0,1,1.56-.3,3.825,3.825,0,0,1,.87.1,5.438,5.438,0,0,1,.816.26,2.375,2.375,0,0,1,.547.287q.188.143.224,0v-.036a.425.425,0,0,1,.116-.314.4.4,0,0,1,.3-.116Zm-6.078,3.836a2.58,2.58,0,0,0,.2,1.031,2.238,2.238,0,0,0,.538.771,2.416,2.416,0,0,0,.789.484,2.738,2.738,0,0,0,1.9,0,2.326,2.326,0,0,0,.78-.484,2.2,2.2,0,0,0,.52-.771,2.683,2.683,0,0,0,.188-1.031,2.632,2.632,0,0,0-.188-1.013,2.108,2.108,0,0,0-.52-.762,2.409,2.409,0,0,0-.78-.475,2.738,2.738,0,0,0-1.9,0,2.505,2.505,0,0,0-.789.475,2.145,2.145,0,0,0-.538.762,2.531,2.531,0,0,0-.2,1.013" transform="translate(-65.33 -7.549)" fill="#b10027"/>
          <path id="Trazado_67139" data-name="Trazado 67139" d="M126.935,16.527q-.251.322-.2.412c.036.06.167.089.394.089h3.209a.429.429,0,0,1,.412.412v.753a.387.387,0,0,1-.126.3.409.409,0,0,1-.287.116h-5.593a.392.392,0,0,1-.3-.116.418.418,0,0,1-.108-.3v-.574a1.124,1.124,0,0,1,.251-.663l3.156-3.927q.251-.3.233-.43c-.012-.083-.1-.125-.269-.125H125.07a.4.4,0,0,1-.287-.125.415.415,0,0,1-.125-.305v-.717a.413.413,0,0,1,.412-.43h4.948a.393.393,0,0,1,.3.116.445.445,0,0,1,.108.314v.556a.832.832,0,0,1-.081.341,1.687,1.687,0,0,1-.188.322Z" transform="translate(-91.94 -8.058)" fill="#b10027"/>
          <path id="Trazado_67140" data-name="Trazado 67140" d="M153.441,14.225a4.038,4.038,0,0,1,.323-1.623,3.86,3.86,0,0,1,2.151-2.1,4.257,4.257,0,0,1,3.119,0,3.941,3.941,0,0,1,1.282.825,3.805,3.805,0,0,1,.86,1.272,4.4,4.4,0,0,1,0,3.263,3.8,3.8,0,0,1-.86,1.273,3.936,3.936,0,0,1-1.282.825,4.254,4.254,0,0,1-3.119,0,3.857,3.857,0,0,1-2.151-2.1,4.076,4.076,0,0,1-.323-1.64m1.56,0a2.571,2.571,0,0,0,.2,1.031,2.231,2.231,0,0,0,.538.771,2.419,2.419,0,0,0,.789.484,2.739,2.739,0,0,0,1.9,0,2.324,2.324,0,0,0,.78-.484,2.194,2.194,0,0,0,.52-.771,2.684,2.684,0,0,0,.188-1.031,2.632,2.632,0,0,0-.188-1.013,2.1,2.1,0,0,0-.52-.762,2.407,2.407,0,0,0-.78-.475,2.739,2.739,0,0,0-1.9,0,2.507,2.507,0,0,0-.789.475,2.138,2.138,0,0,0-.538.762,2.522,2.522,0,0,0-.2,1.013" transform="translate(-113.462 -7.549)" fill="#b10027"/>
          <path id="Trazado_67141" data-name="Trazado 67141" d="M164.8.984a.317.317,0,0,1-.209.442l-2.922.75a.346.346,0,0,1-.256-.011.364.364,0,0,1-.2-.2l-.066-.183a.358.358,0,0,1,.021-.277.471.471,0,0,1,.2-.192L164.087.023a.351.351,0,0,1,.469.222Z" transform="translate(-119.147 0)" fill="#b10027"/>
          <path id="Trazado_67142" data-name="Trazado 67142" d="M195.281,14.225a2.637,2.637,0,0,0-.188-1.013,2.113,2.113,0,0,0-.52-.762,2.4,2.4,0,0,0-.78-.475,2.65,2.65,0,0,0-.95-.17,2.729,2.729,0,0,0-.932.161,2.461,2.461,0,0,0-.789.457,2.109,2.109,0,0,0-.538.726,2.3,2.3,0,0,0-.2.968v3.567a.41.41,0,0,1-.116.287.386.386,0,0,1-.3.125h-.753a.384.384,0,0,1-.3-.125.408.408,0,0,1-.116-.287V10.819a.424.424,0,0,1,.116-.314.4.4,0,0,1,.3-.116h.753a.4.4,0,0,1,.3.116.426.426,0,0,1,.116.314c0,.107.069.123.206.045s.308-.165.511-.26a5.51,5.51,0,0,1,.843-.287,3.686,3.686,0,0,1,.9-.107,4.135,4.135,0,0,1,1.56.3,3.933,3.933,0,0,1,1.282.825,3.806,3.806,0,0,1,.861,1.272,4.143,4.143,0,0,1,.313,1.623v3.46a.41.41,0,0,1-.116.287.386.386,0,0,1-.3.125h-.753a.429.429,0,0,1-.412-.412Z" transform="translate(-139.615 -7.549)" fill="#b10027"/>
        </g>
      </g>
    </g>
  </g>
</svg>
