<svg xmlns="http://www.w3.org/2000/svg" xmlns:xlink="http://www.w3.org/1999/xlink" width="85" height="85" viewBox="0 0 85 85">
  <defs>
    <filter id="Rectángulo_18090" x="0" y="0" width="85" height="85" filterUnits="userSpaceOnUse">
      <feOffset dy="3" input="SourceAlpha"/>
      <feGaussianBlur stdDeviation="3" result="blur"/>
      <feFlood flood-opacity="0.161"/>
      <feComposite operator="in" in2="blur"/>
      <feComposite in="SourceGraphic"/>
    </filter>
    <clipPath id="clip-path">
      <rect id="Rectángulo_23339" data-name="Rectángulo 23339" width="54.107" height="20.682" fill="none"/>
    </clipPath>
  </defs>
  <g id="daystart" transform="translate(-544 -13)">
    <g id="Grupo_31989" data-name="Grupo 31989" transform="translate(75)">
      <g transform="matrix(1, 0, 0, 1, 469, 13)" filter="url(#Rectángulo_18090)">
        <rect id="Rectángulo_18090-2" data-name="Rectángulo 18090" width="67" height="67" rx="10" transform="translate(9 6)" fill="#fff"/>
      </g>
    </g>
    <g id="Grupo_31990" data-name="Grupo 31990" transform="translate(559 42)">
      <g id="Grupo_31976" data-name="Grupo 31976" clip-path="url(#clip-path)">
        <path id="Trazado_67143" data-name="Trazado 67143" d="M0,38.413V29.85a.777.777,0,0,1,.11-.015c1.064.011,2.129.006,3.193.041a6.7,6.7,0,0,1,2.2.42,3.957,3.957,0,0,1,2.673,3.376A3.905,3.905,0,0,1,6.317,37.55a4.793,4.793,0,0,1-2.039.73,11.779,11.779,0,0,1-1.842.132c-.742,0-1.485,0-2.227,0H0m1.9-1.925a.51.51,0,0,0,.084.016c.476-.012.953-.011,1.428-.042a4.588,4.588,0,0,0,1.386-.32,2.533,2.533,0,0,0,1.037-.73,1.929,1.929,0,0,0,.476-1.122,2,2,0,0,0-.8-1.722,2.964,2.964,0,0,0-1.029-.555,7.627,7.627,0,0,0-2.558-.248c-.005,0-.01.009-.027.024Z" transform="translate(0 -27.221)"/>
        <path id="Trazado_67144" data-name="Trazado 67144" d="M542.646,35.235l2.752,3.129c-.093.008-.152.016-.211.016-.63,0-1.261,0-1.891,0a.344.344,0,0,1-.3-.143q-1.18-1.438-2.37-2.867c-.067-.08-.135-.16-.234-.277-.026.251-.01.463-.013.674s0,.435,0,.652V37.7c0,.216,0,.432,0,.662h-1.9v-.233c0-1.563,0-3.126,0-4.688a.369.369,0,0,1,.177-.345c.51-.358,1.011-.73,1.516-1.1.056-.04.114-.078.207-.142.011.252,0,.471.006.69s0,.449,0,.673,0,.444,0,.652c.04.018.052.029.064.029.546-.009,1.092-.011,1.637-.034a1.6,1.6,0,0,0,.7-.214,1.184,1.184,0,0,0,.047-2.083,1.909,1.909,0,0,0-.855-.264c-.209-.017-.42-.022-.63-.022-.875,0-1.751,0-2.627,0h-.221V29.814c.067,0,.128-.011.189-.011,1.023,0,2.045,0,3.068,0a5.5,5.5,0,0,1,1.557.2,2.954,2.954,0,0,1,1.53,1.057,2.234,2.234,0,0,1,.4,2.006,2.712,2.712,0,0,1-1.907,1.979c-.172.057-.352.09-.528.136-.045.012-.089.03-.155.052" transform="translate(-491.291 -27.19)"/>
        <path id="Trazado_67145" data-name="Trazado 67145" d="M91.781,38.461H89.736c.023-.151,4.042-8.27,4.239-8.566h1.466l4.274,8.535a16.819,16.819,0,0,1-2.075.024c-.028-.055-.061-.115-.092-.178-.3-.615-.613-1.228-.91-1.847a.27.27,0,0,0-.286-.18q-1.639.01-3.279,0a.27.27,0,0,0-.287.178c-.293.613-.6,1.219-.9,1.828-.034.068-.07.136-.1.2m1.737-3.711h2.346l-1.149-2.6h-.047l-1.149,2.6" transform="translate(-81.873 -27.276)"/>
        <path id="Trazado_67146" data-name="Trazado 67146" d="M409.9,4.475h4.675L416.033,0c.531,1.476,1,2.966,1.5,4.469h4.7l.017.047-3.805,2.761,1.454,4.478-.036.026-3.792-2.756-6.594,4.849-.03-.037,6.591-6.29,1.582,1.147c-.141-.607-.346-1.187-.538-1.8l1.849-1.257-.006-.042-.547-.006h-1.717l-.581-1.775-.043,0-.58,1.773H412.9a3.385,3.385,0,0,0,.5.429c.156.13.318.253.478.378l.489.387-.023.038-4.456-2.3.013-.044" transform="translate(-373.569)"/>
        <path id="Trazado_67147" data-name="Trazado 67147" d="M285.5,32.01h-1.921c-.012-.048-.022-.089-.031-.129a.927.927,0,0,0-.8-.756,1.4,1.4,0,0,0-.9.1.771.771,0,0,0-.473.668.733.733,0,0,0,.41.745,4.259,4.259,0,0,0,.679.273c.387.123.781.219,1.169.338a4.42,4.42,0,0,1,1.1.514,2.288,2.288,0,0,1,.15,3.718,3.664,3.664,0,0,1-1.681.717,4.236,4.236,0,0,1-2.523-.326,2.967,2.967,0,0,1-.955-.674,2.293,2.293,0,0,1-.623-1.461c.666-.018,1.32-.005,1.972-.008a1,1,0,0,1,.04.114,1.158,1.158,0,0,0,1.013.958,1.716,1.716,0,0,0,1.29-.238.926.926,0,0,0,.4-1.1.807.807,0,0,0-.4-.5,4.379,4.379,0,0,0-.648-.292c-.436-.15-.88-.279-1.32-.418a4.636,4.636,0,0,1-.977-.431,2.081,2.081,0,0,1-.367-3.286,3.09,3.09,0,0,1,1.632-.807,3.746,3.746,0,0,1,2.41.337,2.474,2.474,0,0,1,1.073.975,1.985,1.985,0,0,1,.277.967" transform="translate(-254.647 -27.065)"/>
        <path id="Trazado_67148" data-name="Trazado 67148" d="M189.126,29.873h2.034c.011.1-.057.158-.1.225-1,1.618-2.007,3.238-3.021,4.851a1.258,1.258,0,0,0-.2.726c.013.841,0,1.682,0,2.522v.237h-1.895c0-.081-.009-.162-.009-.243,0-.9,0-1.808,0-2.712a.667.667,0,0,0-.107-.374q-1.552-2.486-3.1-4.976c-.047-.075-.09-.152-.147-.25h2.068l2.223,3.923c.174-.274.312-.537.46-.793s.3-.523.447-.785l.448-.785.447-.785.446-.782" transform="translate(-166.588 -27.256)"/>
        <path id="Trazado_67149" data-name="Trazado 67149" d="M368.884,38.529h-1.891V31.457c-.636-.028-1.255,0-1.889-.018V29.973h5.647a7.246,7.246,0,0,1,.021,1.464c-.62.022-1.247,0-1.889.014Z" transform="translate(-333.114 -27.347)"/>
        <path id="Trazado_67150" data-name="Trazado 67150" d="M111.932,154.747h-5.486l.063-.283c.143-.018.281-.033.418-.051a.575.575,0,0,0,.574-.516q.472-2.036.941-4.073c0-.014.009-.027.011-.04.064-.307-.013-.439-.317-.533-.125-.039-.255-.064-.4-.1l.062-.28h5.18l-.339,1.484h-.3c-.016-.055-.035-.113-.051-.172a1.69,1.69,0,0,0-.382-.716.613.613,0,0,0-.437-.225c-.461-.016-.923-.027-1.408-.04l-.528,2.28a2.564,2.564,0,0,0,1.045-.032.971.971,0,0,0,.481-.358c.124-.186.238-.379.365-.583h.289l-.562,2.431h-.295l-.022-.158c-.023-.166-.034-.335-.072-.5a.45.45,0,0,0-.353-.352,2.188,2.188,0,0,0-.394-.05c-.187-.008-.375,0-.572,0-.089.379-.177.738-.257,1.1-.067.3-.128.6-.188.9a.6.6,0,0,0-.007.187.283.283,0,0,0,.26.285,1.221,1.221,0,0,0,.271.03c.35,0,.7,0,1.049-.024a.956.956,0,0,0,.7-.343c.26-.312.531-.616.775-.94a.317.317,0,0,1,.41-.133l-.524,1.8" transform="translate(-97.119 -135.828)"/>
        <path id="Trazado_67151" data-name="Trazado 67151" d="M218.15,174.03c-.085.372-.175.739-.251,1.109-.053.258.031.379.29.443.141.035.286.056.447.087l-.057.252h-2.841c0-.05.008-.1.012-.141a.139.139,0,0,1,.151-.139c.083,0,.166-.025.249-.034a.47.47,0,0,0,.432-.418c.078-.356.161-.71.241-1.065.2-.867.394-1.734.587-2.6a1.9,1.9,0,0,0,.054-.415c0-.243-.106-.342-.349-.352a1.365,1.365,0,0,0-.272.016c-.088.014-.173.046-.287.077a1.747,1.747,0,0,1,.057-.257.217.217,0,0,1,.1-.116,3.082,3.082,0,0,1,.965-.276,2.136,2.136,0,0,1,.48.028.746.746,0,0,1,.543.392c.023.043.049.084.088.149l.179-.138a2.055,2.055,0,0,1,1.018-.467,1.247,1.247,0,0,1,1.541,1.16A2.614,2.614,0,0,1,220.4,173.9a2.178,2.178,0,0,1-1.706.331,3.361,3.361,0,0,1-.548-.2m1.994-2.279c-.009-.147-.016-.293-.029-.44a.738.738,0,0,0-.039-.163.529.529,0,0,0-.549-.4.948.948,0,0,0-.676.335.313.313,0,0,0-.067.15c-.152.668-.306,1.336-.451,2.006a.569.569,0,0,0,.487.683.7.7,0,0,0,.532-.141,1.458,1.458,0,0,0,.43-.535,3.412,3.412,0,0,0,.361-1.5" transform="translate(-196.835 -155.239)"/>
        <path id="Trazado_67152" data-name="Trazado 67152" d="M291.826,170.054c-.019.107-.029.175-.044.241-.194.817-.39,1.634-.581,2.452a2.013,2.013,0,0,0-.059.394c-.008.243.084.355.324.379a1.849,1.849,0,0,0,.394-.03,1.356,1.356,0,0,0,.181-.046c.02.274-.006.314-.246.409a2.5,2.5,0,0,1-.992.24.989.989,0,0,1-.951-.534c-.006-.011-.022-.017-.046-.036-.082.065-.167.137-.255.2a1.76,1.76,0,0,1-1.416.378,1.165,1.165,0,0,1-.957-.838,2.231,2.231,0,0,1-.035-1.225,2.5,2.5,0,0,1,1.718-1.953,1.886,1.886,0,0,1,1.62.156.272.272,0,0,0,.219.022c.309-.063.617-.127.926-.188.052-.01.106-.012.2-.022m-3.332,2.581c.008.079.016.233.042.384a.6.6,0,0,0,.251.421.76.76,0,0,0,1.044-.419c.086-.353.168-.708.251-1.062.068-.286.142-.57.2-.858a.572.572,0,0,0-.167-.6.591.591,0,0,0-.615-.077,1.046,1.046,0,0,0-.314.2,1.714,1.714,0,0,0-.41.6,3.735,3.735,0,0,0-.284,1.4" transform="translate(-261.919 -155.081)"/>
        <path id="Trazado_67153" data-name="Trazado 67153" d="M347.757,174.165h-1.3c.079-.346.157-.677.231-1.01.138-.615.276-1.229.408-1.845a.8.8,0,0,0,.008-.27c-.025-.186-.1-.263-.287-.273a2.331,2.331,0,0,0-.395.03,1.307,1.307,0,0,0-.182.048c-.025-.252.019-.331.236-.41a2.807,2.807,0,0,1,.847-.23,2.322,2.322,0,0,1,.48.025.757.757,0,0,1,.594.48l.079.184c.093-.074.174-.139.256-.2a2.319,2.319,0,0,1,1.3-.534,1.84,1.84,0,0,1,.335.011.8.8,0,0,1,.736.907,4.982,4.982,0,0,1-.127.7c-.106.449-.238.893-.332,1.345-.09.432.067.592.5.554a3.482,3.482,0,0,0,.369-.071c.032.24,0,.319-.217.39-.264.088-.531.173-.8.236a1.14,1.14,0,0,1-.6-.046.766.766,0,0,1-.58-.8,3.73,3.73,0,0,1,.1-.682c.085-.368.195-.73.288-1.1a1.826,1.826,0,0,0,.055-.352.374.374,0,0,0-.492-.425,1.592,1.592,0,0,0-.8.443.43.43,0,0,0-.088.206q-.294,1.257-.582,2.517c-.012.054-.028.107-.046.171" transform="translate(-315.897 -155.246)"/>
        <path id="Trazado_67154" data-name="Trazado 67154" d="M412.5,174.154a2.347,2.347,0,0,1-.965-.183,1.5,1.5,0,0,1-.957-1.409,2.414,2.414,0,0,1,1.968-2.5,3.079,3.079,0,0,1,1.354-.015,1.557,1.557,0,0,1,1.288,1.862,2.477,2.477,0,0,1-2.167,2.187c-.173.025-.347.037-.521.055m-.537-1.24a3.653,3.653,0,0,0,.055.451.568.568,0,0,0,.766.442.769.769,0,0,0,.364-.237,1.882,1.882,0,0,0,.369-.63,5.116,5.116,0,0,0,.288-1.814,1.571,1.571,0,0,0-.093-.491.49.49,0,0,0-.485-.336.773.773,0,0,0-.57.223,1.63,1.63,0,0,0-.4.635,5.47,5.47,0,0,0-.3,1.757" transform="translate(-374.599 -155.088)"/>
        <path id="Trazado_67155" data-name="Trazado 67155" d="M179.734,170.35a.738.738,0,0,0-.713.5.493.493,0,0,0,.248.606c.141.075.3.124.444.187.212.09.43.169.634.274a1.1,1.1,0,0,1,.08,1.906,2.173,2.173,0,0,1-.624.288,3.688,3.688,0,0,1-1.808,0,1.618,1.618,0,0,1-.477-.209.58.58,0,0,1-.2-.85.673.673,0,0,1,.923-.119,1.052,1.052,0,0,1,.336.449c.07.167.128.339.2.522a.873.873,0,0,0,.647-.16.578.578,0,0,0-.072-1,5.008,5.008,0,0,0-.565-.224,2.145,2.145,0,0,1-.661-.357,1.037,1.037,0,0,1-.085-1.543,1.745,1.745,0,0,1,.915-.482,3.57,3.57,0,0,1,1.5-.012,1.055,1.055,0,0,1,.591.3.556.556,0,0,1-.124.88.664.664,0,0,1-.728-.078,1.228,1.228,0,0,1-.351-.563c-.036-.1-.07-.21-.1-.311" transform="translate(-161.677 -155.153)"/>
        <path id="Trazado_67156" data-name="Trazado 67156" d="M471.3,146.388l.065-.275c.088-.008.163-.018.239-.022l1.678-.083c.22-.011.23,0,.18.221q-.448,1.954-.9,3.908c-.073.321-.148.641-.212.964-.086.44.06.608.506.58a4.409,4.409,0,0,0,.457-.079,1.671,1.671,0,0,1-.056.243.214.214,0,0,1-.1.116,3.357,3.357,0,0,1-.963.283,1.557,1.557,0,0,1-.622-.067.741.741,0,0,1-.55-.8,8.269,8.269,0,0,1,.185-1.052c.238-1.058.486-2.114.73-3.171a2.061,2.061,0,0,0,.043-.227.389.389,0,0,0-.315-.471c-.113-.031-.23-.046-.366-.072" transform="translate(-429.745 -133.213)"/>
        <path id="Trazado_67157" data-name="Trazado 67157" d="M363.318,147.808l.288.1a2.363,2.363,0,0,1-.886,1.057.976.976,0,0,1-.849.07c-.152-.048-.293-.13-.441-.191a3.8,3.8,0,0,0-.448-.174.4.4,0,0,0-.46.169l-.289.4-.267-.111a.839.839,0,0,1,.071-.157,7.386,7.386,0,0,1,.537-.694.975.975,0,0,1,1.188-.231c.179.079.358.157.533.245a.878.878,0,0,0,.532.064.438.438,0,0,0,.316-.251c.058-.1.118-.2.176-.3" transform="translate(-328.425 -134.857)"/>
      </g>
    </g>
  </g>
</svg>
