<svg xmlns="http://www.w3.org/2000/svg" xmlns:xlink="http://www.w3.org/1999/xlink" width="86" height="85" viewBox="0 0 86 85">
  <defs>
    <filter id="Rect치ngulo_18052" x="0" y="0" width="86" height="85" filterUnits="userSpaceOnUse">
      <feOffset dy="3" input="SourceAlpha"/>
      <feGaussianBlur stdDeviation="3" result="blur"/>
      <feFlood flood-opacity="0.161"/>
      <feComposite operator="in" in2="blur"/>
      <feComposite in="SourceGraphic"/>
    </filter>
  </defs>
  <g id="Grupo_18791" data-name="Grupo 18791" transform="translate(-1227 -1325)">
    <g transform="matrix(1, 0, 0, 1, 1227, 1325)" filter="url(#Rect치ngulo_18052)">
      <rect id="Rect치ngulo_18052-2" data-name="Rect치ngulo 18052" width="68" height="67" rx="10" transform="translate(9 6)" fill="#fff"/>
    </g>
    <g id="Grupo_18216" data-name="Grupo 18216" transform="translate(1251 1351)">
      <path id="Trazado_1040" data-name="Trazado 1040" d="M468.77,94.34h-8.835v14.839l8.835,2.022Z" transform="translate(-459.936 -88.286)" fill="#e71318"/>
      <path id="Trazado_1041" data-name="Trazado 1041" d="M478.144,94.34H464.767v17.6l18.934,4.333c4.829-1.733,7.079-5.837,7.079-10.526,0-6.218-3.953-11.406-12.636-11.406m-.861,16.569H473.6V100.583h3.681c3.073,0,4.178,2.569,4.23,5.163-.052,2.594-1.157,5.163-4.23,5.163" transform="translate(-452.716 -88.286)" fill="#e71318"/>
      <path id="Discovery" d="M466.613,93.27a1.365,1.365,0,0,1-1.449,1.364h-.825a1.3,1.3,0,0,0,.406-.434h.419a.926.926,0,1,0,0-1.851h-.534v.4a1.414,1.414,0,0,0-.274-.257,1.17,1.17,0,0,0-.2-.112v-.466h1.013A1.358,1.358,0,0,1,466.613,93.27Zm.272,1.382h.469V92.6h-.469Zm2.217-1.018a.955.955,0,0,0-.2-.115,1.9,1.9,0,0,0-.227-.082l-.172-.06a.824.824,0,0,1-.147-.06.306.306,0,0,1-.1-.075.13.13,0,0,1-.037-.095V93.14a.183.183,0,0,1,.075-.147.338.338,0,0,1,.215-.057.854.854,0,0,1,.277.052,1.366,1.366,0,0,1,.3.142l.187-.337a1.379,1.379,0,0,0-.362-.17,1.27,1.27,0,0,0-.392-.062.972.972,0,0,0-.287.042.65.65,0,0,0-.232.125.572.572,0,0,0-.157.2.584.584,0,0,0-.055.262V93.2a.48.48,0,0,0,.057.249.544.544,0,0,0,.15.17.821.821,0,0,0,.207.11,2.019,2.019,0,0,0,.227.075l.172.052a1.065,1.065,0,0,1,.147.057.307.307,0,0,1,.1.077.146.146,0,0,1,.037.1v.007a.187.187,0,0,1-.085.162.392.392,0,0,1-.234.062.9.9,0,0,1-.332-.067,1.358,1.358,0,0,1-.342-.187l-.21.319a1.51,1.51,0,0,0,.421.229,1.375,1.375,0,0,0,.452.077,1.07,1.07,0,0,0,.3-.04.763.763,0,0,0,.242-.122.579.579,0,0,0,.162-.2.63.63,0,0,0,.057-.284v-.007a.44.44,0,0,0-.057-.237A.59.59,0,0,0,469.1,93.634Zm4.542-.429a1.048,1.048,0,0,1,.082.414v.007a.988.988,0,0,1-.085.412,1.044,1.044,0,0,1-.229.342,1.086,1.086,0,0,1-.347.232,1.182,1.182,0,0,1-.873,0,1.078,1.078,0,0,1-.347-.229,1.02,1.02,0,0,1-.229-.337,1.091,1.091,0,0,1-.08-.414v-.007a1.06,1.06,0,0,1,.082-.417,1.139,1.139,0,0,1,.232-.339,1.075,1.075,0,0,1,.344-.232,1.1,1.1,0,0,1,.437-.085,1.137,1.137,0,0,1,.439.082,1.106,1.106,0,0,1,.347.229A1.081,1.081,0,0,1,473.644,93.205Zm-.389.422a.691.691,0,0,0-.047-.257.645.645,0,0,0-.13-.21.624.624,0,0,0-.2-.142.617.617,0,0,0-.706.14.584.584,0,0,0-.125.207.718.718,0,0,0-.045.254v.007a.721.721,0,0,0,.047.254.683.683,0,0,0,.13.212.635.635,0,0,0,.2.142.6.6,0,0,0,.249.055.619.619,0,0,0,.259-.055.6.6,0,0,0,.322-.349.762.762,0,0,0,.042-.252Zm1.549.479L474.25,92.6h-.506l.845,2.07h.424l.841-2.07h-.494Zm3.02-.87a1.4,1.4,0,0,1,.062.424l0,.062-.005.07H476.37a.6.6,0,0,0,.2.387.593.593,0,0,0,.392.135.719.719,0,0,0,.3-.062,1.065,1.065,0,0,0,.252-.182l.277.244a1.193,1.193,0,0,1-.352.279,1.063,1.063,0,0,1-.489.1,1.105,1.105,0,0,1-.417-.077,1.011,1.011,0,0,1-.334-.219,1.043,1.043,0,0,1-.222-.334,1.113,1.113,0,0,1-.082-.434v-.007a1.154,1.154,0,0,1,.075-.417,1.02,1.02,0,0,1,.21-.342.966.966,0,0,1,.314-.229,1.058,1.058,0,0,1,.836.007.911.911,0,0,1,.307.239A1.031,1.031,0,0,1,477.824,93.235Zm-.4.195a.514.514,0,0,0-.05-.162.624.624,0,0,0-.1-.172.464.464,0,0,0-.157-.115.515.515,0,0,0-.21-.042.484.484,0,0,0-.362.15.556.556,0,0,0-.172.342Zm-6.814.858a.625.625,0,0,1-.614-.666.615.615,0,0,1,.591-.656.688.688,0,0,1,.531.257l.292-.317a1.032,1.032,0,0,0-.821-.352,1.071,1.071,0,0,0,0,2.143,1.039,1.039,0,0,0,.841-.387l-.284-.279A.726.726,0,0,1,470.606,94.288Zm8.1-1.352V92.6h-.471v2.055h.471v-.783a1.021,1.021,0,0,1,.05-.357A.9.9,0,0,1,479.5,93l-.16-.392A1.035,1.035,0,0,0,478.71,92.936Zm2.459-.339L480.64,94.1l-.491-1.507h-.5l.763,2.04,0,.012a1.619,1.619,0,0,1-.292.516,1.155,1.155,0,0,1-.454.045V95.6a2,2,0,0,0,.681-.07.665.665,0,0,0,.3-.362c.117-.237,1.018-2.569,1.018-2.569Z" transform="translate(-453.637 -91.913)" fill="#e71318"/>
      <path id="Trazado_1042" data-name="Trazado 1042" d="M465.675,93.229a1.086,1.086,0,1,0-1.085,1.085A1.086,1.086,0,0,0,465.675,93.229Z" transform="translate(-454.605 -91.572)" fill="#e71318"/>
    </g>
  </g>
</svg>
