<svg xmlns="http://www.w3.org/2000/svg" xmlns:xlink="http://www.w3.org/1999/xlink" width="85" height="85" viewBox="0 0 85 85">
  <defs>
    <filter id="Rectángulo_18090" x="0" y="0" width="85" height="85" filterUnits="userSpaceOnUse">
      <feOffset dy="3" input="SourceAlpha"/>
      <feGaussianBlur stdDeviation="3" result="blur"/>
      <feFlood flood-opacity="0.161"/>
      <feComposite operator="in" in2="blur"/>
      <feComposite in="SourceGraphic"/>
    </filter>
    <clipPath id="clip-path">
      <rect id="Rectángulo_23017" data-name="Rectángulo 23017" width="53.274" height="11.031" fill="none"/>
    </clipPath>
  </defs>
  <g id="discovery" transform="translate(-288 -102)">
    <g transform="matrix(1, 0, 0, 1, 288, 102)" filter="url(#Rectángulo_18090)">
      <rect id="Rectángulo_18090-2" data-name="Rectángulo 18090" width="67" height="67" rx="10" transform="translate(9 6)" fill="#fff"/>
    </g>
    <g id="Grupo_35438" data-name="Grupo 35438" transform="translate(304 136)">
      <g id="Grupo_35437" data-name="Grupo 35437" transform="translate(0 0)" clip-path="url(#clip-path)">
        <path id="Trazado_89910" data-name="Trazado 89910" d="M7.538,5.6a.872.872,0,0,0,.959.825c.481,0,.715-.259.715-.53,0-.221-.148-.405-.6-.5l-.7-.159c-1.3-.282-1.82-1.021-1.82-1.882a2.166,2.166,0,0,1,2.349-2.03,2.171,2.171,0,0,1,2.45,1.82L9.335,3.42a.8.8,0,0,0-.874-.751A.6.6,0,0,0,7.8,3.2c0,.259.208.407.48.456l.812.159c1.267.259,1.882,1.021,1.882,1.92A2.158,2.158,0,0,1,8.535,7.8a2.294,2.294,0,0,1-2.584-1.92Z" transform="translate(4.817 1.066)" fill="#211411"/>
        <path id="Trazado_89911" data-name="Trazado 89911" d="M10.82,4.564a1.4,1.4,0,0,0,1.428,1.513,1.26,1.26,0,0,0,1.267-.91l1.648.5A2.894,2.894,0,0,1,12.248,7.8,3.19,3.19,0,0,1,8.962,4.564a3.157,3.157,0,0,1,3.224-3.248,2.86,2.86,0,0,1,2.94,2.128l-1.674.5a1.2,1.2,0,0,0-1.23-.91,1.385,1.385,0,0,0-1.4,1.525" transform="translate(7.254 1.066)" fill="#211411"/>
        <path id="Trazado_89912" data-name="Trazado 89912" d="M19.056,4.551A3.163,3.163,0,0,1,15.806,7.8a3.17,3.17,0,0,1-3.248-3.248,3.159,3.159,0,0,1,3.248-3.235,3.152,3.152,0,0,1,3.25,3.235m-1.871,0a1.384,1.384,0,1,0-2.756,0,1.385,1.385,0,1,0,2.756,0" transform="translate(10.165 1.066)" fill="#211411"/>
        <path id="Trazado_89913" data-name="Trazado 89913" d="M20.371,7.532H18.49L15.978,1.418h2.03l1.415,3.8,1.3-3.8H22.7Z" transform="translate(12.934 1.148)" fill="#211411"/>
        <path id="Trazado_89914" data-name="Trazado 89914" d="M25.567,5.856A2.746,2.746,0,0,1,22.749,7.8a3.114,3.114,0,0,1-3.186-3.261,3.085,3.085,0,0,1,3.051-3.223,2.859,2.859,0,0,1,3.065,3.138,3.762,3.762,0,0,1-.038.577H21.383a1.326,1.326,0,0,0,1.391,1.182,1.181,1.181,0,0,0,1.23-.8Zm-1.7-2.03a1.1,1.1,0,0,0-1.23-1.033,1.164,1.164,0,0,0-1.218,1.033Z" transform="translate(15.836 1.066)" fill="#211411"/>
        <path id="Trazado_89915" data-name="Trazado 89915" d="M27.219,3.291a2.556,2.556,0,0,0-.59-.062c-.751,0-1.428.443-1.428,1.661V7.56H23.33V1.446h1.809v.825a1.727,1.727,0,0,1,1.587-.887,1.878,1.878,0,0,1,.492.062Z" transform="translate(18.885 1.121)" fill="#211411"/>
        <path id="Trazado_89916" data-name="Trazado 89916" d="M26.8,9.882l1.39-3.174L25.621,1.418h2.092L29.2,4.691l1.353-3.273h1.981L28.771,9.882Z" transform="translate(20.739 1.148)" fill="#211411"/>
        <path id="Trazado_89917" data-name="Trazado 89917" d="M5.48,4.34a2.6,2.6,0,0,0-2.593-2.6H.287V.005h2.6a4.338,4.338,0,1,1,0,8.671H.287V6.942h2.6A2.6,2.6,0,0,0,5.48,4.34" transform="translate(0.232 0.004)" fill="#211411"/>
        <path id="Trazado_89918" data-name="Trazado 89918" d="M.275,1.793c-.005.007,0,.005.005,0l0-.005-.009.007" transform="translate(0.22 1.446)" fill="#211411"/>
        <path id="Trazado_89919" data-name="Trazado 89919" d="M.994,1.558c0-.007,0-.007-.007,0l0,.005.005-.009" transform="translate(0.799 1.258)" fill="#211411"/>
        <path id="Trazado_89920" data-name="Trazado 89920" d="M1.075,1.443l-.011,0,0,0,.007-.005" transform="translate(0.861 1.168)" fill="#211411"/>
        <path id="Trazado_89921" data-name="Trazado 89921" d="M.517,3.124c-.005.005,0,.005,0,0l.007,0c0-.007-.005-.007-.011,0" transform="translate(0.416 2.525)" fill="#211411"/>
        <path id="Trazado_89922" data-name="Trazado 89922" d="M.866,3.432H.871l-.005,0v0" transform="translate(0.701 2.777)" fill="#211411"/>
        <path id="Trazado_89923" data-name="Trazado 89923" d="M.822,1.6l0,0,0,.005.007,0" transform="translate(0.659 1.289)" fill="#211411"/>
        <path id="Trazado_89924" data-name="Trazado 89924" d="M1.992,2.335V2.329c-.005-.011-.007-.013-.005,0l.005.009" transform="translate(1.607 1.878)" fill="#211411"/>
        <path id="Trazado_89925" data-name="Trazado 89925" d="M.31,2.332c-.005,0-.005,0,0,.011s.009.011.009,0L.31,2.332" transform="translate(0.247 1.888)" fill="#211411"/>
        <path id="Trazado_89926" data-name="Trazado 89926" d="M.314,1.962l0,0,0,.011.005,0,0-.009" transform="translate(0.248 1.588)" fill="#211411"/>
        <path id="Trazado_89927" data-name="Trazado 89927" d="M.4,2.367c-.005.007-.007.027,0,.027l.009-.007c.005-.011,0-.029-.005-.02" transform="translate(0.32 1.915)" fill="#211411"/>
        <path id="Trazado_89928" data-name="Trazado 89928" d="M.5,3.109l0,.005,0,0,0-.005,0,0" transform="translate(0.409 2.514)" fill="#211411"/>
        <path id="Trazado_89929" data-name="Trazado 89929" d="M.43,2.718l.011.013c.007,0,.007,0,0-.009s-.016-.014-.013,0" transform="translate(0.348 2.195)" fill="#211411"/>
        <path id="Trazado_89930" data-name="Trazado 89930" d="M.485,3.063v.005l.005.005V3.068L.485,3.063" transform="translate(0.393 2.48)" fill="#211411"/>
        <path id="Trazado_89931" data-name="Trazado 89931" d="M.77,1.494l0,.005.005,0,0-.005-.005,0" transform="translate(0.624 1.207)" fill="#211411"/>
        <path id="Trazado_89932" data-name="Trazado 89932" d="M1.173,2.334c-.018-.009-.02-.007-.011.013s.027.013.027,0l-.016-.013" transform="translate(0.937 1.886)" fill="#211411"/>
        <path id="Trazado_89933" data-name="Trazado 89933" d="M.989,2.412l-.009,0,.009.013H1L.989,2.412" transform="translate(0.793 1.951)" fill="#211411"/>
        <path id="Trazado_89934" data-name="Trazado 89934" d="M1.456,2.361l.005-.007-.007,0,0,.007.005,0" transform="translate(1.174 1.903)" fill="#211411"/>
        <path id="Trazado_89935" data-name="Trazado 89935" d="M.984,2.432l0,.007.007-.007,0-.007-.007.007" transform="translate(0.796 1.963)" fill="#211411"/>
        <path id="Trazado_89936" data-name="Trazado 89936" d="M1.449,2.474c0,.011,0,.024.009.027s.009.009,0,0l-.007-.027,0-.018a.061.061,0,0,1,0,.018" transform="translate(1.173 1.988)" fill="#211411"/>
        <path id="Trazado_89937" data-name="Trazado 89937" d="M2.005,1.952l0-.005,0,0,0,.007,0-.005" transform="translate(1.619 1.576)" fill="#211411"/>
        <path id="Trazado_89938" data-name="Trazado 89938" d="M1.423,2.66l0-.018s-.005.013-.005.031l0,.042.005.02c.005.009.007.005.009-.022l0-.034,0-.018" transform="translate(1.143 2.139)" fill="#211411"/>
        <path id="Trazado_89939" data-name="Trazado 89939" d="M1.171,1.708l-.007.013c0,.005.016,0,.02-.009s-.005-.013-.013,0" transform="translate(0.942 1.379)" fill="#211411"/>
        <path id="Trazado_89940" data-name="Trazado 89940" d="M1.405,2.583l.022,0,.005-.005.011-.027c.011-.02.011-.024,0-.027s-.038,0-.042.005a.09.09,0,0,0-.009.034c-.005.025,0,.027.009.024" transform="translate(1.128 2.037)" fill="#211411"/>
        <path id="Trazado_89941" data-name="Trazado 89941" d="M1.6,1.585l0,.005.005.007,0-.005L1.6,1.585" transform="translate(1.296 1.283)" fill="#211411"/>
        <path id="Trazado_89942" data-name="Trazado 89942" d="M1.312,1.67l-.005,0L1.3,1.679l-.005.005-.007,0,.005.007c.009,0,.025-.014.024-.024l0-.009,0,.007" transform="translate(1.042 1.347)" fill="#211411"/>
        <path id="Trazado_89943" data-name="Trazado 89943" d="M1.278,1.586l0,.007.005-.007,0-.005-.005.005" transform="translate(1.035 1.28)" fill="#211411"/>
        <path id="Trazado_89944" data-name="Trazado 89944" d="M1.278,1.666l0,0,0-.007,0,0,0,.007" transform="translate(1.035 1.343)" fill="#211411"/>
        <path id="Trazado_89945" data-name="Trazado 89945" d="M1.269,1.676l0,.011,0-.005c0-.013,0-.014-.007-.005" transform="translate(1.027 1.352)" fill="#211411"/>
        <path id="Trazado_89946" data-name="Trazado 89946" d="M.735,1.588l-.013,0,0,0,.009-.005" transform="translate(0.585 1.286)" fill="#211411"/>
        <path id="Trazado_89947" data-name="Trazado 89947" d="M.605,1.83l-.011.007c-.009.011-.007.013.005,0S.609,1.83.605,1.83" transform="translate(0.477 1.482)" fill="#211411"/>
        <path id="Trazado_89948" data-name="Trazado 89948" d="M.716,1.646l0-.005Q.71,1.63.7,1.646l0,.005.013-.005" transform="translate(0.568 1.325)" fill="#211411"/>
        <path id="Trazado_89949" data-name="Trazado 89949" d="M.7,1.584l.009-.007,0,0-.014,0,0,0-.007.013s0,.005.005,0L.7,1.584" transform="translate(0.553 1.272)" fill="#211411"/>
        <path id="Trazado_89950" data-name="Trazado 89950" d="M.632,1.6l.007,0,0,0-.005,0" transform="translate(0.512 1.295)" fill="#211411"/>
        <path id="Trazado_89951" data-name="Trazado 89951" d="M.635,1.831c0-.009,0-.013-.005-.005l0,.014.007-.009" transform="translate(0.508 1.475)" fill="#211411"/>
        <path id="Trazado_89952" data-name="Trazado 89952" d="M.678,1.8l0-.007,0-.005-.005.005,0,.007" transform="translate(0.546 1.448)" fill="#211411"/>
        <path id="Trazado_89953" data-name="Trazado 89953" d="M.7,1.482l0,0,.005,0,0,0" transform="translate(0.568 1.2)" fill="#211411"/>
        <path id="Trazado_89954" data-name="Trazado 89954" d="M.733,1.471c.005-.007,0-.005-.009,0l-.009.005H.72l.013-.007" transform="translate(0.579 1.187)" fill="#211411"/>
        <path id="Trazado_89955" data-name="Trazado 89955" d="M.6,1.669c0-.007-.005-.013-.009-.005v.005l.005,0,0,0" transform="translate(0.478 1.344)" fill="#211411"/>
        <path id="Trazado_89956" data-name="Trazado 89956" d="M.7,1.491s-.005,0-.005,0L.679,1.5c-.007,0-.005,0,0,0S.7,1.5.7,1.491" transform="translate(0.546 1.205)" fill="#211411"/>
        <path id="Trazado_89957" data-name="Trazado 89957" d="M.611,2.942l0-.011S.6,2.939.605,2.946l.005,0" transform="translate(0.49 2.373)" fill="#211411"/>
        <path id="Trazado_89958" data-name="Trazado 89958" d="M.715,1.8c.005-.007.005-.007-.007,0S.7,1.8.7,1.8L.715,1.8" transform="translate(0.568 1.451)" fill="#211411"/>
        <path id="Trazado_89959" data-name="Trazado 89959" d="M.494,1.912A.344.344,0,0,0,.451,2c0,.013.016-.007.029-.036a.142.142,0,0,1,.029-.04c.022-.02.022-.02.024-.005s0,.014-.007.022l-.011.014.005,0c.005-.005.007-.005.005.007l0,.014L.54,1.948l.016-.027,0,.005c.005.014.014,0,.011-.016S.56,1.892.558,1.9l0,.007V1.9C.56,1.89.509,1.9.494,1.912" transform="translate(0.365 1.535)" fill="#211411"/>
        <path id="Trazado_89960" data-name="Trazado 89960" d="M.525,1.943a.037.037,0,0,0,.027-.009c.007-.009.009-.022,0-.014l-.02.007c-.025.005-.031.016-.009.016" transform="translate(0.414 1.553)" fill="#211411"/>
        <path id="Trazado_89961" data-name="Trazado 89961" d="M.451,1.692l-.016.014L.42,1.723l.005,0,.011-.007.009-.005,0,.005s0,0,.005,0L.467,1.7c.014-.005.02-.016.005-.011s-.011,0-.005,0,0-.005-.029.009L.418,1.7.434,1.7l.016-.007" transform="translate(0.338 1.359)" fill="#211411"/>
        <path id="Trazado_89962" data-name="Trazado 89962" d="M.521,1.7c0-.007,0-.005-.009,0L.507,1.71s.009,0,.014-.009" transform="translate(0.41 1.374)" fill="#211411"/>
        <path id="Trazado_89963" data-name="Trazado 89963" d="M.5,1.857c0-.009,0-.014,0-.009s-.009.014,0,.014L.5,1.857" transform="translate(0.398 1.495)" fill="#211411"/>
        <path id="Trazado_89964" data-name="Trazado 89964" d="M.463,1.787.458,1.8l.029-.033c.005-.007,0-.005-.011.005l-.005.009-.007.009" transform="translate(0.371 1.425)" fill="#211411"/>
        <path id="Trazado_89965" data-name="Trazado 89965" d="M.491,1.9C.5,1.9.5,1.9.5,1.9s0,.014.02.014H.534L.54,1.895c0-.009,0-.016,0-.014L.534,1.875c0-.016-.011-.014-.043.009l-.034.025c-.007.007.02,0,.034-.007" transform="translate(0.369 1.509)" fill="#211411"/>
        <path id="Trazado_89966" data-name="Trazado 89966" d="M.565,1.643.56,1.648v.005l.005-.005V1.643" transform="translate(0.453 1.33)" fill="#211411"/>
        <path id="Trazado_89967" data-name="Trazado 89967" d="M.444,1.86l.005-.018c0-.007,0-.011,0-.007S.44,1.864.444,1.86" transform="translate(0.358 1.484)" fill="#211411"/>
        <path id="Trazado_89968" data-name="Trazado 89968" d="M.46,1.748l-.018.011c-.013.011-.013.011.009,0s.018-.011.009-.009" transform="translate(0.351 1.415)" fill="#211411"/>
        <path id="Trazado_89969" data-name="Trazado 89969" d="M.458,1.815c-.009.011-.009.014-.007.016l0,.009,0,.009.007-.009.013-.027c.005-.011.005-.011-.005,0" transform="translate(0.359 1.462)" fill="#211411"/>
        <path id="Trazado_89970" data-name="Trazado 89970" d="M.493,1.952c-.014.005-.02.016-.009.016a.17.17,0,0,0,.054-.027c.005-.009,0-.007-.045.011" transform="translate(0.387 1.568)" fill="#211411"/>
        <path id="Trazado_89971" data-name="Trazado 89971" d="M.48,1.8l-.007,0-.009.009a.038.038,0,0,0,0,.031l0,.024c-.005.013-.005.013,0,.005a.164.164,0,0,0,.016-.042L.48,1.8" transform="translate(0.366 1.461)" fill="#211411"/>
        <path id="Trazado_89972" data-name="Trazado 89972" d="M.454,1.873l.009-.009,0-.011-.009.011c-.007.007-.007.009,0,.009" transform="translate(0.366 1.5)" fill="#211411"/>
        <path id="Trazado_89973" data-name="Trazado 89973" d="M.456,1.727l0,0-.018.02L.42,1.761l.013,0,.02-.007.02-.018.018-.011L.5,1.716c.007-.009,0-.005-.016.007s-.022.011-.027,0" transform="translate(0.34 1.386)" fill="#211411"/>
        <path id="Trazado_89974" data-name="Trazado 89974" d="M1.721,1.945l-.009.005.009.007.009-.005-.009-.007" transform="translate(1.385 1.575)" fill="#211411"/>
        <path id="Trazado_89975" data-name="Trazado 89975" d="M1.708,1.894l0,0h.011l-.007,0" transform="translate(1.38 1.534)" fill="#211411"/>
        <path id="Trazado_89976" data-name="Trazado 89976" d="M1.724,1.573v.005l.005.005V1.579l-.005-.005" transform="translate(1.396 1.274)" fill="#211411"/>
        <path id="Trazado_89977" data-name="Trazado 89977" d="M1.691,1.894c-.013.005-.014.011-.011.024s.007.011.007,0L1.7,1.9,1.7,1.9l0-.005-.011,0" transform="translate(1.358 1.53)" fill="#211411"/>
        <path id="Trazado_89978" data-name="Trazado 89978" d="M1.628,1.594l0,.009.005.009,0,.005,0-.016c-.005-.018-.009-.018-.009-.007" transform="translate(1.318 1.285)" fill="#211411"/>
        <path id="Trazado_89979" data-name="Trazado 89979" d="M1.72,1.588c-.005-.009-.016-.02-.013-.013l.009.013c.007.007.007.007,0,0" transform="translate(1.381 1.273)" fill="#211411"/>
        <path id="Trazado_89980" data-name="Trazado 89980" d="M1.733,1.875l0,.007.011.007,0-.007-.011-.007" transform="translate(1.403 1.518)" fill="#211411"/>
        <path id="Trazado_89981" data-name="Trazado 89981" d="M1.854,1.8v.02a.1.1,0,0,1-.013.06v.005l.013-.009.007-.011c.005,0,.005-.027,0-.045L1.854,1.8" transform="translate(1.49 1.46)" fill="#211411"/>
        <path id="Trazado_89982" data-name="Trazado 89982" d="M1.879,2.024V2.03l.005.007,0-.005-.007-.007" transform="translate(1.521 1.639)" fill="#211411"/>
        <path id="Trazado_89983" data-name="Trazado 89983" d="M2.079,1.252A2.079,2.079,0,1,0,4.158,3.331,2.078,2.078,0,0,0,2.079,1.252M3.968,3.5V3.51l0,0,0,0M3.834,3.42l0,0,0,0,0,0M3.82,3.393c0-.005,0-.005,0,0v0l0-.005-.014.042s.005-.033.009-.042m-.005.081c.007,0,.009,0,.009.005l-.005.005H3.809l0,0,.009-.007m0,.078,0,.009,0,0,0-.009,0,0m-.027-.291,0-.014a.2.2,0,0,1,.014.049l0,0s0,0,0,.009,0,.011,0,.011-.011-.005-.014-.02,0-.013-.009-.011l0,.009s0,0,0,0l0-.018.005,0c0,.009,0,.005.007-.009m.007.233,0,0,0-.005,0,0,0,.005m0,.13v0l-.005.007V3.63l.005-.005m0-.21a.025.025,0,0,1-.02.011c-.011,0-.014,0-.016.009l0,.018c0,.007,0,.009.009,0l.013-.009s0,0-.005.013l-.011.013v.04a.047.047,0,0,1,0,.025s0-.005,0-.014,0-.009,0,0,0,0,0,0V3.49l-.009.025-.011.029s0,0,0-.014l0-.024a.131.131,0,0,1,.013-.051l0-.014c0-.013.016-.036.018-.031s.018,0,.024,0,.009-.007,0,.007m-.02.17,0,.007-.014.016c-.014.018-.014.018-.013.007a.133.133,0,0,1,.025-.031h.005m-.06.033,0,0c0,.009,0,.013-.007,0l0-.007h.005m-.009-.009L3.7,3.613l0,0L3.7,3.6l0,0,.005,0,0,.013m0-.092-.007,0q0-.008-.011-.005c-.007,0-.013,0-.011,0l-.005,0c-.005,0-.007,0-.005-.016a.028.028,0,0,0,0-.018.114.114,0,0,1,0-.047c0-.007.005-.009.013-.007l.009-.007.011-.02a.062.062,0,0,0,.018-.024l.005-.016.005-.02c0-.024.005-.025.013-.013l.013.016,0,.005,0,.011,0,.007,0,.007,0,.005,0,.02,0,.022-.005.013-.009.016-.011.024-.005.016a.075.075,0,0,1-.016.034m-.011.09,0,.007,0-.005,0-.005,0,0M3.559,3.49V3.5l0,0V3.494l0,0m-.007-.036,0-.005,0-.005,0,.005,0,.005m0-.049c-.007-.02-.024-.04-.024-.043l0,0,.013,0a.06.06,0,0,1,.029.029.075.075,0,0,0,.014.031l.007.007.009.02,0,.018,0,.029a.058.058,0,0,1,0,.049.06.06,0,0,1-.013.029c-.009,0-.027-.045-.027-.071l0-.034,0-.024a.106.106,0,0,0-.011-.04m.072.177s.009.005.02,0,.016,0,.016,0l.011.009.009.007c0,.005-.031.007-.043,0l-.02,0c-.013,0-.022-.009-.018-.02a.015.015,0,0,1,.025,0m-.007-.09c.005-.007.007-.005.007.009l0,.014-.005-.024m.016.02,0-.005c.005,0,.005,0,0,.009l0,0m.033.072,0,0,0,0-.005,0m0-1.116.011.02c.009.013.009.014.005.011H3.68c0,.005,0,0-.02-.049l-.027-.062c-.005-.007-.016-.036-.013-.036l0-.009c0-.007,0-.005.007.007l.009.022a.565.565,0,0,0,.029.056c.005.009.007.014,0,.014s0,.013,0,.025m.014.512v.013L3.677,2.98a.07.07,0,0,1-.007-.031.035.035,0,0,1,0-.02l0,0,.011.054m.052.248s0,.011,0,.024c0,.029-.007.027,0,0l.005-.022m-.005-.054,0,0,.007.016c0,.013,0,.013,0,0l-.009-.016m.036.08,0-.02c0-.016,0-.016,0-.009s0,.005-.005-.007,0-.013,0-.011.009.014.013.036,0,.014,0,.011m0-.02c0-.007,0-.007,0,0l.005.013,0,0,0,0,0-.005m-.042.36c.011,0,.009.007,0,.009l-.007,0,.009-.005m.04-.4c.005,0,.007.007.011.033s0,.011,0,0l0-.014,0-.013c0-.007,0-.009,0-.009M3.762,3.2l-.005-.005.007,0,0,0m-.009-.025c0-.007-.007-.011-.007-.005l0,0-.009,0-.005-.009,0-.007-.009-.014,0-.018,0-.016L3.706,3.08l.005-.009c.005,0,.007,0,.013.018l0,.029c0,.016.007.038.018.042l.013.014c0,.013,0,.013-.005,0m-.007-.467c.007.018.007.027,0,.018l0,0-.009.005c-.005,0-.007,0-.005.011s0,.014-.007,0l-.007-.009c-.005,0-.005,0,0,.007s.009.024,0,.018l0,.005c0,.009,0,.007-.005,0s0-.011,0-.014,0-.013,0-.011l0,.005,0,0c-.007-.005-.005,0,0,.011a.037.037,0,0,1,.009.025c0,.025,0,.027-.009,0L3.7,2.77s-.005-.007-.005-.02.007-.036.016-.034.011-.005.005-.034c0-.007,0-.007,0,0s0,.009.007,0a.112.112,0,0,0-.005-.052c-.009-.02-.011-.031-.005-.025v0l0-.007.011.022a.072.072,0,0,1,.013.036.493.493,0,0,0,.013.052m-.024-.136,0,.009c0,.007,0,.007-.005,0s-.014-.007-.014,0l0,0,0,.007c0,.005,0,.005,0,0s-.009-.029-.005-.027,0-.013-.007-.033,0-.014.011.005l.013.014c.009,0,.018.024.011.022m-.011-.138V2.428l0,.007,0,0m-.262-.489.005,0,.011.009-.016-.009v0m-.067-.038.005,0,.024.013c.018.009.024.013.024.018s-.034-.005-.043-.013-.014-.018-.009-.02m.062.062c.005.007,0,0-.013,0l-.005-.007.018.011m-.241-.1,0,.005L3.2,1.869l0,0,.005.005m-.152-.116c0-.009.016-.013.018,0l.011.007.016.013-.024,0-.025,0,0-.009m-.09-.047,0,0V1.7c.005-.011.042,0,.047.016l.013.009c.011.005.013.007.016.016s0,.011-.018,0-.038-.018-.036-.024l-.013-.005L2.96,1.708m-.284-.076.011,0,0,.005-.013,0v0m-.029-.005.014.005c0,.007-.022.005-.025,0s0-.005.011,0m-.027,0,0,.005c0,.007-.007.007-.009,0l.005-.005M2.6,1.8s.009,0,.009-.011l.007-.011,0-.009,0-.009.011-.013A.078.078,0,0,1,2.7,1.726l.024,0c.009-.005.031,0,.033,0s-.007.007-.02.009c-.04.005-.058.011-.058.016l-.005,0c-.009,0-.036.038-.033.049l.018.022.014.013-.018,0a.041.041,0,0,1-.025-.009l-.016-.011c-.011,0-.024-.016-.014-.016M2.6,1.864a.01.01,0,0,1-.016.007l0-.009c0-.007.018-.007.02,0m-.063-.252.016,0-.016.005c-.016.005-.018.005-.018,0l.018,0m-.391-.047a.06.06,0,0,0,.027,0l.049.009c.005.007-.036.02-.045.014L2.146,1.58c-.033-.005-.036-.018,0-.014m-.056.018h.005V1.574c0-.007.016-.005.018,0l.007,0,.007,0,.013.011a.1.1,0,0,1,.031.016l.022.009v0c-.005.011-.038.011-.034,0s-.009-.02-.018-.02l-.013.013-.011.013L2.1,1.637c0,.009,0,.009-.02,0l-.009-.011c.005,0,0,0,0-.005s-.009-.005.009-.011S2.1,1.6,2.092,1.6l-.018,0c-.011.007-.034,0-.031-.009l0-.005L2.034,1.58c0-.007.043-.005.052,0m-.329.637a.021.021,0,0,1,0-.016c0-.009.005-.013.013-.013l.014-.011c.005-.014.036-.016.038,0L1.815,2.2l-.005.013a.036.036,0,0,1-.024.036l-.024.009-.016,0c0-.005,0-.007.005-.018s.009-.013.005-.014m.06-.119L1.824,2.1V2.1l-.007.007V2.1m0,.177a.067.067,0,0,1,.025-.016c.009,0,.007,0,0-.005s-.016,0-.018,0l0,0,.011-.009c.009,0,.009-.007.005-.014s0-.011.007-.013a.019.019,0,0,0,.016-.009l0-.011,0-.011c0-.007,0-.007-.013,0s-.013,0-.007-.014,0-.025-.007-.009,0,0,0-.007,0-.013,0-.011,0,0,0-.018l.016-.027.018-.007c.011,0,.011,0,0,.009s-.013.016.005.013.018.005,0,.025-.007.013,0,.016l.007.018.009.016L1.9,2.2c0,.009.007.016.011.016s.014.014,0,.025l-.005.016-.005.007-.018,0-.04.007a.1.1,0,0,0-.034.009c-.007,0-.005,0,0-.011m.107-.309c-.016,0-.025-.005-.022-.007s.007-.014,0-.014-.005,0,0-.009,0-.011-.007-.011-.009-.009.007-.016a.013.013,0,0,1,.016.007c0,.007.007.009.011.005l.031-.009c.013,0,.024-.005.025-.009l0-.005.033.033c-.007.027-.067.04-.1.036m-.29-.438c.007,0,.011,0,.009,0l-.022,0,.013,0M1.142,1.7l.011-.009.007-.007s.007-.007.022-.011a.031.031,0,0,1,.027.005l.007,0,.007,0,.005,0c0-.005.009-.007.027-.011l.031-.009c0-.005-.011,0-.036,0s-.013,0-.007,0l0-.005-.009.007a.015.015,0,0,1-.024,0c-.005-.005,0-.011.018-.016l.027-.013.02,0,.016-.005a.133.133,0,0,1,.036-.018A.32.32,0,0,1,1.5,1.585L1.471,1.6l-.022.011-.014.011L1.4,1.636a.261.261,0,0,1-.069.031c-.011,0-.016.013-.005.011s.005,0,0,.007L1.3,1.7,1.287,1.7l-.011.009c-.009.005-.009.005,0,.009s0,.005-.06.018-.062.011-.033,0l.011-.009.014-.005.014,0,0-.005-.007,0c-.013.005-.014,0-.007-.005l0,0c-.031.016-.04.02-.047.018s-.011-.007,0-.014.007-.005,0,0-.022,0-.014-.007m.016.038c0-.007.009-.009.009,0l-.005.005,0,0m0,.009v0l-.005.007V1.751l.005-.005M1.111,1.71l0,0-.007,0,.005,0m-.005.022.009-.005h.013v.005c0,.007,0,.009,0,.009s.007,0,0,0-.013,0-.013,0l0,0-.005-.009m0,.027.009,0h.022c.009,0,.018,0,.02.007s.007.007.043,0,.043-.009.045-.005l0,.005-.009.007-.063.016c-.042.007-.052.009-.051,0l0-.009,0-.007-.011,0c-.014,0-.02,0-.014-.007m.005.024c0,.011-.013.02-.022.014l-.005,0,.011-.009c.013-.009.014-.009.016,0m-.058-.042.013-.007H1.08c.009,0,.014.005.009.013l-.013,0s-.007,0-.016,0-.014,0-.009,0,.009-.005,0,0l0,0m-.016.029,0,.005,0,0,.005,0m0,.018c0,.005.005.005.009,0s.005-.007.007,0l.007,0,.013-.009c.011,0,.013,0,.007.007a.044.044,0,0,1-.029.025c-.007,0-.007,0,0-.005s.005-.009-.005,0-.013.005-.013,0l0,0,0,0c0-.007.009-.007.013,0m-.022.018,0,.007,0,0,.005-.005m0,.04,0-.005c-.007,0,0-.009.009-.013l.027-.007-.007.011c-.009.007-.009.007,0,.009s0,.018-.013.022l-.013.007-.009,0L1,1.856V1.849h.007l.011,0M.988,1.768,1,1.76l0,0L.992,1.77c-.014.005-.014,0,0,0m-.005.009c.009,0,.013,0,.009,0l-.016.009c-.007,0-.011,0-.009,0l.016-.011m-.024.009,0,0-.005,0,0,0m0,.031.013,0c.009,0,.009,0,.007-.009L.983,1.8c.009-.007.011-.007.009,0s0,.007.009,0,.011,0,.007,0a.056.056,0,0,1-.029.022l-.033.014-.024.009c0-.005,0-.005.005-.007l.005-.005H.926l-.011.007-.011,0-.005,0,.014-.014a.044.044,0,0,1,.025-.016c.007,0,.014,0,.016,0M.9,1.838.9,1.831l0,.005c-.009.007-.014.009-.007,0m0-.013c.025-.018.052-.031.043-.018s-.025.02-.022.014,0,0-.009,0L.9,1.833l0,0-.016.007H.87l.022-.016m-.078.08.016-.02.011-.009.022-.009.018,0c.009,0,.016,0,.011.009l0,0c.007,0,.007,0,.005,0s0,.005.007,0,.013,0,.011,0,0,0,.007,0,.016-.011.013,0,0,.011.009,0,0-.013.011-.014L.97,1.849c.005-.007.024-.013.02-.007l-.009.011c-.007.005-.009.009-.014.025s0,.018,0,.018L.975,1.9l.005.005-.011,0-.007.005c.005.009-.025.022-.034.014l-.014,0c-.014.013-.06.029-.058.022L.849,1.949l-.011,0,0-.005L.85,1.934l.022-.009.013,0s-.007,0-.02,0-.024.005-.022,0l.009-.007c.009,0,.009-.005,0-.007H.845L.859,1.9l.013-.013-.007.005-.031.024c-.007.009-.025.016-.031.013L.8,1.922l.016-.016M.186,2.985l-.005.009s0,0,0-.009l.005-.009,0,.009m.27.512,0-.011,0-.007,0,.013,0,.005M.95,4.641c0,.007,0,.013,0,.013L.941,4.648l-.007,0-.013,0V4.636L.91,4.612C.9,4.594.894,4.589.888,4.589l0,0,0-.025-.005.007c0,.007,0,.005-.005-.007L.863,4.54l0-.007.009.007.009.007C.872,4.516.867,4.509.85,4.507V4.5l.014,0c.007,0,.007,0,.005-.011l0-.024c0-.029-.007-.043-.013-.045s-.005.005,0,.013,0,.016,0,.016L.845,4.438.84,4.41l0-.027L.832,4.359a.087.087,0,0,1-.005-.045.2.2,0,0,0-.007-.09l0-.025V4.187a.089.089,0,0,1-.005-.036A1.068,1.068,0,0,0,.791,4a.132.132,0,0,0-.056-.094C.706,3.883.68,3.85.682,3.84A.159.159,0,0,0,.666,3.8C.659,3.785.642,3.751.633,3.724A.378.378,0,0,0,.6,3.662.084.084,0,0,1,.59,3.588C.6,3.577.6,3.561.59,3.559L.581,3.545c0-.018,0-.072.009-.072l0-.016L.6,3.438c.013-.005.02-.09.022-.119l0-.033C.615,3.279.6,3.3.6,3.309s-.009.011-.016,0L.568,3.291c-.013,0-.013,0-.009-.013a.021.021,0,0,0-.013-.025s0-.007,0-.016a.109.109,0,0,0,0-.034l0-.025L.541,3.172A.061.061,0,0,1,.5,3.127C.5,3.1.494,3.092.48,3.1S.467,3.109.452,3.09L.434,3.063.425,3.049a.081.081,0,0,1-.011-.043l.007-.018a.162.162,0,0,0,.011-.081l0-.038V2.833a.232.232,0,0,1,.007-.054c0-.016.005-.025,0-.031s0-.005-.013.014L.423,2.79l0,.033,0,.033-.007.027,0,.027,0,.025C.4,2.94.4,2.895.4,2.884l0-.02C.4,2.832.4,2.835.405,2.826S.413,2.817.413,2.8A.286.286,0,0,1,.422,2.75c.011-.042.013-.054,0-.06l0-.007.007-.031A.1.1,0,0,1,.44,2.618l0-.005c-.005.005,0-.014.005-.027l0-.013a.7.7,0,0,1,.058-.109.2.2,0,0,0,.027-.052C.541,2.4.541,2.4.543,2.4s.011.007.016,0,.007-.024,0-.027l0-.007,0-.005c-.005,0-.009.014-.009.025l0,.013c-.005,0-.013-.033-.009-.042l.005,0c0,.007.007.007.009,0l0-.005s0,0,0-.013l.005-.013c0-.007,0-.011,0-.007s0,0,0-.011.009-.013,0-.005-.014.009,0-.011l.009-.016,0-.025v0l-.009.011v.007l0,.007c-.005.009-.007.011-.007.005l.007-.018c0-.007,0-.011,0-.009v0L.577,2.24.59,2.22l-.005.007-.007.009V2.231L.584,2.22.59,2.209h0l-.005.007,0,0-.016.033s.007-.025.016-.036.005-.009,0-.005-.013.009-.013,0l0-.02c-.007,0-.005,0-.005-.007s0,0-.009.005L.548,2.2l-.014.011c-.011.011-.022.014-.011.005l0-.005L.55,2.186l0,0a.133.133,0,0,0-.029.027l-.011.007L.5,2.231s0,0-.005.007l-.02.018-.014.013-.005.005-.016.013L.42,2.305l-.011.007.005-.007.005,0,0,0,.02-.018.025-.027C.48,2.24.48,2.24.474,2.242l-.007.007,0,0-.007,0c-.005,0-.005,0,0-.007s.007-.009,0-.009L.5,2.175.519,2.16l.009-.013,0,0-.007.005.02-.025.007,0L.552,2.11l0,0L.6,2.054l.024-.016.014-.009.007,0,.007,0,.011,0,.011,0c.029-.009.016,0,.031,0s.009,0,.016-.005A.246.246,0,0,1,.769,1.99l.018-.011c.007-.005.007-.005.007,0s0,.009.011,0l.005,0s0,0,.011,0l.02,0a.035.035,0,0,0,.024,0c.011,0,.02,0,.009.005l-.013.009s0,0,.018,0S.919,1.987.912,2V2l.009-.014c0-.009.007-.011.016-.016L.95,1.965l-.013,0c-.007.005-.013.005-.013,0s.029-.016.031-.007S1,1.97,1.013,1.96s.013-.016,0-.016,0,0,.009-.009.022-.009.022,0l-.005.009-.009,0,0,.005,0,.013,0,.009.009-.007a.026.026,0,0,1,.014-.016c.013-.005.024-.016.016-.014V1.931l0-.007c-.013,0-.014-.005-.007-.018l.016-.018A.045.045,0,0,0,1.1,1.86l.011-.016a.121.121,0,0,1,.051-.014.1.1,0,0,1-.038.027l-.016.011L1.1,1.88l0,.029c-.009,0-.011.013,0,.011s.005,0,0,.011-.005.014.009,0,.011-.009.014,0,0,.007-.005.011-.007.007-.005.014.007.007.013-.005l.007-.007.016-.011.009-.013c-.005,0,0-.009.011-.013L1.153,1.9c-.013,0-.018-.005-.018-.013s0-.013.014-.027A.071.071,0,0,1,1.2,1.827c.013,0,.013,0,0,.005l-.013.011-.007.013v.013c0,.007.005.007.009,0V1.864s0,0,0-.011a.054.054,0,0,1,.04-.029c.014-.005.018-.005.016,0h0s.007-.007.018-.007.027,0,.02.013l0,.005.009.013.011.007c.007-.007.022,0,.018.007l.005,0c.011,0,.013,0,.009.007s0,.005,0,0l.009,0-.009.007q-.011,0,0,.005l0,.005c-.02,0-.014.022.009.027a.01.01,0,0,1,.011.009l.011.007.013,0-.016.014-.016.013-.005.005c-.005.011-.016.009-.018,0s-.009-.022-.02-.013-.009.011-.007.02l.007.009L1.314,2a.032.032,0,0,1-.009.025c-.007.011-.009.009-.02,0s-.022-.009-.009.007.007.027,0,.022l-.014-.007L1.25,2.037l-.007,0c-.007.007-.014-.007-.009-.014l0-.005-.007-.007C1.225,2,1.218,2,1.2,2s-.024,0-.022,0,.02-.022.024-.02a.027.027,0,0,0,.02,0c.011,0,.013-.005.014-.011l.009-.013c.025-.014.034-.036.016-.047L1.252,1.9l-.005,0H1.241l0-.013c-.005-.011-.007-.011-.011,0S1.22,1.894,1.2,1.9l-.025,0,.011.007,0,.013-.007.005c-.005,0-.009.009-.007.016l0,.009-.011.007-.02.011c-.005,0-.011,0-.013.011l0,0-.011-.007H1.111a.193.193,0,0,1-.054.054.039.039,0,0,0-.029.02l-.007.005A.191.191,0,0,0,.964,2.1c-.024.029-.029.04-.022.043s0,.009,0,.018,0,.014.011.014a.021.021,0,0,1,.02.011L.986,2.2l.005.005.014.005c.018,0,.018,0,0,.042a.059.059,0,0,0,0,.027c0,.016,0,.018.014.013s.016-.014.027-.049l.007-.024.02-.013L1.1,2.186c.013-.016.018-.038.013-.045s0-.007.007-.02a.074.074,0,0,0,.022-.04l.016-.031.014,0,.022,0c.011,0,.024.009.02.016l.007.009c.009,0,.009,0,0,.025s-.009.024,0,.022l.009,0c0,.013.02,0,.042-.022l.018-.02,0,.036a.169.169,0,0,1,0,.047l0,.016,0,.014.007.007.009,0,.009.007,0,.005c-.005,0,0,.009,0,.014s.009.011,0,.027a.035.035,0,0,1-.027.025.141.141,0,0,0-.036.02c-.016.013-.022.013-.052.011s-.038,0-.049.007l-.027.018-.034.033c-.016.018-.018.02-.007.009a.125.125,0,0,1,.069-.04c.014,0,.018,0,.014.009a.026.026,0,0,1-.016.014c-.011,0-.011.005-.005.005s.005.005,0,.014a.025.025,0,0,0,.014.036c.009,0,.016,0,.027-.016S1.2,2.394,1.2,2.4s0,.013,0,.013l0,.007-.007,0c0-.007,0-.007,0,0a.087.087,0,0,1-.045.031l-.022.013L1.1,2.473l.011-.025.014-.009c.011-.011.011-.011,0-.007L1.1,2.437l-.014.009-.029.016a.072.072,0,0,0-.04.051c0,.007,0,.009-.02.013s-.02.007-.018.011l-.007.005c-.007,0-.013,0-.02.016s-.011.018-.016.018l-.009.009-.011.022c-.007.011-.007.009,0-.011s.005-.018,0-.013A.12.12,0,0,0,.9,2.633l-.007.014c-.005.007-.005.009,0,.009v.007l-.007,0-.005.007c0,.007,0,.011-.009.011l-.014.009L.84,2.7l-.02.016L.8,2.736c-.005,0-.024.027-.029.04L.765,2.8a.279.279,0,0,1-.022.081L.731,2.9s-.007-.016,0-.024l0-.022A.043.043,0,0,1,.735,2.83c.011-.018.005-.045-.005-.038s-.011,0-.013,0S.706,2.781.695,2.779s-.02,0-.024.016S.666,2.808.655,2.8A.043.043,0,0,0,.6,2.8l-.016.011c-.007,0-.027.029-.034.051L.543,2.89a.29.29,0,0,0-.022.043A.193.193,0,0,0,.5,3.005c0,.04,0,.052.022.043s.014,0,.014,0,.022-.016.029-.033a.039.039,0,0,1,.038-.031c.018,0,.02,0,.005.024A.087.087,0,0,0,.6,3.038l-.011.014-.011.02A.1.1,0,0,1,.559,3.1c-.009.011-.009.011.024.013s.024,0,.025.014,0,.016-.016.056-.018.045-.016.062a.062.062,0,0,0,.007.029c0,.009.007.009.02,0s.025-.005.031.016.005.013.022-.005l.018-.029L.68,3.248H.688L.7,3.242l.009,0,.022-.013c.018-.014.022-.011.009.009s-.011.027,0,.016l.014-.007.007-.009,0,0,.005.005.009.016a.014.014,0,0,0,.016.013l.018.005c0,.007.011.007.024,0s.022-.007.022,0l.011.016c.007,0,.009.009,0,.018s-.005.014,0,.016.016.011.024.033S.91,3.4.939,3.4s.033.011.043.033A.37.37,0,0,1,1,3.483l.014.034c.009.009.009.011,0,.029a.055.055,0,0,0-.009.034c0,.013,0,.013.009,0s.009-.016.02-.013.022.018.011.033l-.005.018s.009,0,.014-.013l.009-.02L1.1,3.6c.024.014.031.022.031.033s0,.014.013.009a.019.019,0,0,1,.022,0,.128.128,0,0,0,.034.011c.018,0,.029.009.054.034a.182.182,0,0,0,.045.033c.009,0,.014.007.02.029a.119.119,0,0,1,.007.047.35.35,0,0,1-.052.1c-.007.009-.007.022,0,.051a.367.367,0,0,1,0,.063.054.054,0,0,0,0,.025l-.007.025-.007.029c0,.009-.016.022-.031.022a.11.11,0,0,0-.074.038.069.069,0,0,0,0,.036.073.073,0,0,1,0,.045l-.014.027,0,0,0-.013c0-.005-.011.013-.014.036a.1.1,0,0,1-.013.033c-.009.013-.013.014-.034.007a.069.069,0,0,1-.031-.014l-.007,0,.013.014.013.018.007.011c.007,0,.007.014,0,.029s-.022.018-.051.013C.993,4.4.99,4.4.993,4.4l0,.022c0,.013,0,.013-.02.005s-.02-.005-.013.007l.011.016,0,.005,0,0,0,.031L.964,4.5c-.018,0-.007.033.013.038a.013.013,0,0,1,0,.024L.972,4.58.966,4.59c-.009,0-.009.007,0,.022s.007.014,0,.014,0,0,0,.005l.013.011a.1.1,0,0,0,.043.034c.014,0,.009.009-.007.009L1,4.679c-.007-.005-.007-.005,0,0l0,0L.979,4.676.968,4.668.957,4.663l0,0,.007-.007c0-.007,0-.009,0-.009l0-.009L.955,4.628.95,4.641M.48,2.265c-.009.005,0,0,.005-.011L.5,2.245.5,2.24l0,0-.005.005L.48,2.265M.543,2.3.55,2.294s0,0,0,.013l-.009.014L.543,2.3m.7-.375a.033.033,0,0,1-.025.022c-.013,0,0-.018.018-.025l.013-.005-.005.009m.009,0,0,0H1.25l.005,0M1.227,1.9l-.013.011.007-.009c.014-.013.016-.013.005,0m-.06.127-.007,0,0,0,0,0m-.045-.005c-.005,0-.009,0-.022.007s-.016.009-.016,0l-.009,0c-.007,0-.007,0,0-.005L1.095,2l.018-.02.007,0,0,.005V2c.011,0,.02.013.016.018l0,.005,0,.005c-.005.007-.011.007-.018,0m.013.029,0,.005-.009.007V2.061l.011-.007m-.025,0L1.1,2.057l0-.005.013-.007,0,.005m-.036.138-.009.005,0,0,.007-.007,0,0m-.06.074-.005,0,0-.007.005,0,0,.005M1.3,2.4l-.011,0c-.005,0,0-.005.005-.016s.018-.018.011-.007l0,.009,0,.011m.007-.047c-.005.011-.007.014,0,.011l-.014.016c-.022.02-.034.027-.02.011s0-.007-.022-.007-.029,0-.027,0l.007-.007.007-.011.007-.009.011-.013.024-.031c.02-.02.036-.025.02-.005s-.025.031-.018.025l.007.005c0,.007.007.009.016.007s.013,0,0,.011m-.114,0-.011-.011c0-.011.013-.007.016,0s0,.011-.005.007m-.034.071L1.149,2.4V2.4l.011.009c.007.005.007.005,0,.007m-.28.865-.005.005,0-.007.005-.005,0,.007M.867,3.087l-.013.005L.847,3.085.859,3.08l.007.007M.727,3.013.72,3,.715,2.991.706,2.984.7,2.976.691,2.969c0-.009-.007-.011-.014,0L.66,2.976c-.009,0-.009,0,0-.005A.062.062,0,0,1,.68,2.955C.7,2.947.711,2.953.746,3l.018.02c.009.009,0,.018-.022.016s-.018,0-.013-.011,0-.011,0-.011M.72,3.074c0,.005,0,.007-.009.005L.7,3.072c0-.009.016-.007.022,0m.034-.156L.76,2.911l0,.007-.005.007,0-.007m.009.152c.011,0,.018-.009.014-.024s.034-.007.045.009l.009.018-.018,0-.022,0c-.007.005-.043-.005-.042-.011H.764M1.3,4.925l0,0,0,0,.007,0m-.049.087-.016-.005A.015.015,0,0,1,1.216,5V5h.009l.016,0c.013,0,.014,0,0-.005l-.005,0,0-.013,0-.009c.009,0,.013,0,.031.02s.029.043,0,.036-.02-.005-.009-.007l0-.005m-.038-.027q.022.005,0,.005L1.2,4.985h.011M1.2,4.972l.005,0-.005,0v0m.051-.024.009,0,0,.007c-.005,0-.007,0-.005-.009M1.2,5.007l-.005,0L1.182,5l.005,0,.009.007M1.109,4.65c-.007,0-.007,0-.005-.005l.011-.005c.011,0,.007.009-.005.011m-.016-.005c-.005,0-.005,0-.007,0l.005-.005c.009,0,.009,0,0,.009m-.027.317,0,0,0-.005v0l.005.005m-.074-.5,0,.005L.983,4.458l0,0,.005.005M1,4.934.981,4.929.975,4.923.966,4.916l.014.005c.027.011.045.022.022.013m.322.2H1.314L1.3,5.124l.013,0c.018,0,.025.005.013.009m.049-.065H1.364l.007.005v.009l-.009.005-.005,0s-.009.005-.024,0l-.031,0a.18.18,0,0,1-.065-.022l-.024-.011s.022.024.042.033L1.27,5.1a.272.272,0,0,1-.065-.025c-.009,0-.013-.005-.009,0l.016.011.02.011H1.227A2.054,2.054,0,0,1,.99,4.956L.984,4.951.977,4.945.966,4.936s0,0,.007,0l.013,0L.97,4.931.952,4.922H.959a.476.476,0,0,0,.118.049l.013,0,.016.009.014.007L1.144,5c.018.009.022.009.022,0h.011l.016.009.02.011c.009,0,.011.005.011,0l-.007-.007,0,0s.005,0,.011.005.011.011.036.014.04,0,.036,0l-.013-.018c-.024-.034-.024-.033-.013-.029s.007,0,0-.011l-.007-.011,0-.005.009-.011.014-.011a.107.107,0,0,1,.038-.011l.011,0h.011l.009,0-.009,0-.007.005-.005,0c-.011,0-.025.005-.025.014l-.005,0c-.005,0-.011,0-.018.011l0,.011.013.011a.073.073,0,0,1,.033.029l.007.009.009.013.007.011,0,0,.009.011.011.007-.011,0m-.013-.128,0,0-.005-.005,0,0,.007.005m.04.23,0,0,.014,0,0,0L1.4,5.166M1.449,2c-.005-.029-.005-.029.005-.043s.011-.013,0-.005-.016.009-.013,0a.051.051,0,0,0,0-.024c0-.007,0-.014,0-.016l0-.011c0-.005,0-.009.013-.022l.022-.014L1.5,1.846c.009-.014.009-.016,0-.009l-.005,0-.009-.009c-.009,0-.009,0-.005,0l.005.009-.011,0c-.013.005-.022,0-.016-.011l.005-.009.005-.005.007-.009,0,0,.005.005.016,0c.007.007.007-.009,0-.018a.022.022,0,0,0-.024,0c-.016,0-.016,0,0-.016s.007-.011,0-.031l-.007-.022,0-.007c0-.014-.027-.018-.065-.011s-.038.007-.04,0l-.009-.009c-.005,0,0,0,.009-.005l.018-.011,0,0-.033-.007s.013-.009.056-.024c.024-.007.033-.011.036-.018l-.009,0c-.007,0-.011,0-.007,0a.148.148,0,0,1,.056-.027c.009,0,.014,0,.016-.009s.076-.029.08-.02h.007l.013,0q.016.011.016-.005c0-.011,0-.011.033,0s.027.007.027,0l0-.005c.007,0,0-.007-.005-.011s.005-.005.031-.005a.119.119,0,0,0,.042-.005l.022-.009a.321.321,0,0,1,.118,0L1.9,1.54l.013.005L1.9,1.552l-.02.005s.005.005.018,0,.02,0,.013.005L1.9,1.576l0,0,.018-.005.025-.005.025,0a.05.05,0,0,1,.036,0l.02.005L2,1.576a.139.139,0,0,0-.045.025l-.014.005-.013.009-.009.009L1.9,1.639l-.009.013L1.9,1.646l.011,0,.011.007c.013,0,.014.005.005.018H1.923L1.909,1.67l-.005,0,0,0c-.018,0-.02.011,0,.011a.02.02,0,0,1,.016.022l-.011,0c-.013,0-.013.013,0,.014h.013l-.013.005-.011.009c0,.011-.025.016-.036.009l-.013,0,.011.011c.013.007.014.014.007.02s-.024-.007-.024-.014l0-.005c-.011,0,0,.018.009.022s.024.024.02.034-.029,0-.031,0l-.009-.011c-.005-.005-.007,0-.007,0l-.009.014c-.005,0,0,0,.005,0l.024.005c.005.005,0,.007-.022.02s-.087.029-.094.02-.005-.005-.007,0l-.076.011s.06.005.052.014a.079.079,0,0,1-.033.02l-.025.013c-.007.005-.007,0,0-.005s.005-.011,0,0L1.6,1.931c-.014,0-.018.005-.016.013l-.005.011,0,0c.005.005,0,.013-.016.025L1.543,2l-.014.031c-.011.016-.016.022-.024.022L1.5,2.045l0-.005,0-.005-.009,0c-.016.005-.024,0-.031-.033m.134,3.219H1.565l-.08-.024h.009q.016,0,.016-.011l.013-.009c.018,0,.051.009.052.018l.007.013c.005.009.005.009,0,.013m.009-.507c-.009-.007-.011-.007,0,0l.014.007c.005.007,0,.005-.014,0m.487.575a1.98,1.98,0,0,1-.346-.033l.007,0-.009-.005-.009,0,.007-.005c.005,0,.005,0-.011-.005H1.7l-.042-.02c.005-.02.118-.022.154-.016.011,0,.018,0,.018,0l.02-.014c.016-.007.018-.007.007-.007s-.013,0-.013,0l.011-.007.013,0,.007,0,.013,0c.007,0,.007,0,0-.011s-.007-.007,0-.005H1.9c.009,0,.011,0,.016,0s.005.009.014,0,.02-.011.016,0l.029.007a.1.1,0,0,0,.058-.005.335.335,0,0,1,.085,0l.013,0a.291.291,0,0,1,.089,0,.21.21,0,0,0,.065,0A.112.112,0,0,0,2.35,5.11c.005,0,.007,0,.014,0l.013.007h.007c0,.007.013,0,.02-.005a.115.115,0,0,1,.045-.022l.02-.007.022,0c.007,0,.009,0,.011,0s0-.005.009,0l.009-.005c0-.011.049-.024.058-.014l.005.007a.24.24,0,0,0,.078,0c.014,0,.025,0,.024,0l-.024.025-.007,0c-.005.005,0,.009.007,0s.005,0,0,.005l-.011.007-.007.014c.005,0,.025-.009.036-.022L2.687,5.1l.007-.005.027-.013.036-.022.022-.013.014-.007a.106.106,0,0,1,.045-.016l.014-.009,0,0L2.863,5C2.873,5,2.879,5,2.9,5s.025,0,.033-.009.027-.016.029-.013.014.005.025,0a.336.336,0,0,0,.058-.024l0,0c0,.005.009,0,.018-.007l.02-.011c.013-.005.014-.005.02-.013l.007-.009,0,.007,0,.007.022-.005.029-.007v0s.005.005.014,0l0,0,.005,0,.009-.005H3.2l.011,0s.007,0,.02,0a1.951,1.951,0,0,1-1.154.378M1.8,5.173V5.168l.005.005,0,0,0,0m.177-.043,0-.005,0,.007,0,.005,0-.007m.749-1.178a.06.06,0,0,1,.04-.065.093.093,0,0,0,.029-.022l.02-.025.011-.02.005-.014.005,0a.139.139,0,0,1,.009.054c0,.02,0,.024-.007.02l-.007.009a.025.025,0,0,1,0,.02l-.007.016a.726.726,0,0,1-.065.152l-.022.009c-.024.007-.033-.005-.033-.042A.071.071,0,0,1,2.714,4a.043.043,0,0,0,.011-.043M2.9,4.6c.007,0,.009,0,0,.005s-.018.009-.016,0L2.9,4.6m0-.622,0-.007,0,.005,0,.007,0-.005m.031-.762q.014,0,.005.011l-.009,0,0-.007m.177,1.56,0,0,0,0-.005,0m.264-1.422c-.005.007-.009.007-.013,0a.192.192,0,0,1-.016-.067c0-.014,0-.013.018.014s.02.043.011.052M3.5,3.1l0,.014c-.005.016-.009.018-.018.013s-.007-.007-.007-.018-.013-.049-.018-.049l-.005-.009-.009-.016A.078.078,0,0,1,3.42,3c-.013-.027-.024-.036-.022-.02S3.4,3,3.395,3L3.38,3,3.366,3s0,.005,0,.013,0,.027-.005.027l-.011.022c-.009.036-.018.058-.022.058l0,.007-.005.009c-.005,0-.005.009,0,.036a.2.2,0,0,1,.007.114c-.011.033-.018.031-.031,0l-.027-.052L3.252,3.2l-.018-.038a.507.507,0,0,1-.047-.127l-.007-.025c-.009-.018-.009-.018-.009,0s-.013.025-.033,0-.018-.022-.009-.022l.007-.007,0,0c-.005.005-.025-.013-.051-.043-.009-.013-.02-.022-.02-.02A.208.208,0,0,1,2.933,2.9l-.013-.02c-.007-.018-.018-.024-.014-.009l0,0-.011,0c-.033.007-.069-.034-.083-.06s-.027-.033-.043-.02-.007.007.007.034a.1.1,0,0,0,.022.031.1.1,0,0,1,.018.031c.011.025.011.027.011.013s.014-.013.014.007c0,.04.042.04.062,0l.011-.024.005.02c.007.024.014.034.031.04a.065.065,0,0,1,.027.02l.013.014-.005.024-.011.022c-.005,0-.009.02,0,.027l-.007.013-.007.016L2.944,3.1,2.937,3.1c0,.005-.005.011-.016.014a.04.04,0,0,0-.027.022.068.068,0,0,1-.025.025.09.09,0,0,0-.029.02L2.825,3.2,2.81,3.2l-.018.007-.02.009-.02.007a.223.223,0,0,1-.031-.083A.134.134,0,0,0,2.7,3.1a.105.105,0,0,1-.02-.036.072.072,0,0,0-.024-.027A.065.065,0,0,1,2.633,3,.1.1,0,0,0,2.6,2.935l-.014-.02L2.56,2.87c-.014-.02-.027-.042-.031-.047s0-.005,0,.005-.009.018-.025-.011l-.018-.024.009.022.024.047.027.051.016.038a.071.071,0,0,0,.018.031.129.129,0,0,1,.024.052.083.083,0,0,0,.024.049.126.126,0,0,1,.024.042.092.092,0,0,0,.033.045c.029.024.069.069.062.072s0,.011.009.022l.016.018.052-.014a.422.422,0,0,0,.06-.022c.007-.005.009,0,.011.029l0,.04-.013.052a.194.194,0,0,1-.071.119.343.343,0,0,0-.045.045l-.049.056a.4.4,0,0,0-.036.054c-.014.027-.016.036-.013.049l0,.043a.063.063,0,0,0,.007.038c.005.005.005.02,0,.06s-.005.056-.02.071a.126.126,0,0,1-.031.024.073.073,0,0,0-.033.025l-.029.027c-.013.011-.013.013-.009.033a.2.2,0,0,1,0,.047c0,.02,0,.022-.027.034s-.025.014-.029.04a.065.065,0,0,1-.02.043l-.033.04a.171.171,0,0,1-.134.067.16.16,0,0,0-.043.009.022.022,0,0,1-.024,0c-.014-.005-.029-.029-.024-.038s-.029-.071-.042-.081A.125.125,0,0,1,2.148,4.1a.2.2,0,0,0-.016-.052.263.263,0,0,1-.054-.1A.164.164,0,0,1,2.1,3.852a.037.037,0,0,0,.007-.038L2.1,3.767a.3.3,0,0,0-.067-.128C2,3.6,1.987,3.579,1.994,3.568A.1.1,0,0,0,2,3.526a.218.218,0,0,1,.005-.045c0-.005-.005-.018-.016-.027a.041.041,0,0,0-.047-.014c-.031.005-.043,0-.042-.02L1.887,3.4a.125.125,0,0,0-.112.016c-.031.013-.042.014-.06.009a.119.119,0,0,0-.051,0c-.056.014-.06.014-.072,0s-.072-.062-.074-.09A.119.119,0,0,0,1.5,3.291l-.016-.036-.011-.011c-.011,0-.013-.007-.007-.024a.073.073,0,0,0,0-.034c0-.011,0-.016,0-.02A.254.254,0,0,0,1.5,3.09c.005-.042.005-.054,0-.067s0-.016.013-.043l.027-.045.014-.022a.2.2,0,0,1,.062-.078c.031-.018.049-.042.047-.06A.122.122,0,0,1,1.71,2.7a.089.089,0,0,0,.029-.034c.009-.024.013-.027.02-.016a.09.09,0,0,0,.065.005.2.2,0,0,1,.123-.04.456.456,0,0,0,.078-.009c.013,0,.02,0,.02,0s0,.005.011,0,.007,0,0,.007a.019.019,0,0,0,0,.024c.005.009.005.013-.007.024l-.013.018.056.029c.007-.007.047.013.052.025a.02.02,0,0,0,.018.013.113.113,0,0,1,.038.014c.024.013.027.013.033,0a.038.038,0,0,0,.007-.025.036.036,0,0,1,.045-.029l.014.011s.014.009.033.014l.052.016a.055.055,0,0,0,.058,0,.025.025,0,0,1,.033,0c.024.016.04,0,.051-.042a.5.5,0,0,0,.007-.067V2.62l-.018,0L2.5,2.631c0,.011-.024.007-.042-.005s-.016-.009-.024,0-.011.009-.02,0l-.027-.016c-.009-.005-.016-.013-.016-.02l-.005-.011,0-.016c0-.013,0-.018-.005-.018l0-.011c.005-.024-.033-.036-.043-.016a.013.013,0,0,1-.016.007c-.011-.005-.014.005-.005.014l0,.014,0,.009c.024-.005.033.013.011.022s-.013.011-.011.018,0,.011,0,.011-.034-.031-.027-.034-.005-.014-.016-.029a.1.1,0,0,1-.024-.047A.044.044,0,0,0,2.2,2.472a.205.205,0,0,0-.034-.022.064.064,0,0,1-.024-.025q-.008-.019-.016-.016L2.113,2.4c0-.016-.024-.005-.024.014l0,.016s.014.013.025.027.024.029.029.029l.007.007.007.005c.009,0,.045.029.042.033l-.014-.005c-.009-.007-.013-.007-.018,0s-.005.011,0,.016.007.009-.007.025-.014.02-.011,0,0-.043-.038-.063a.266.266,0,0,1-.056-.054c-.013-.016-.025-.031-.027-.029L2,2.444c-.02.013-.029.014-.036.009a.026.026,0,0,0-.04.022A.029.029,0,0,1,1.9,2.5a.087.087,0,0,0-.045.054c0,.013-.016.042-.025.042l-.011.011c0,.007-.011.011-.024.011a.068.068,0,0,0-.033.009c-.013.005-.016,0-.024-.007a.019.019,0,0,0-.025-.009c-.014,0-.014,0-.013-.013a.037.037,0,0,0,0-.025.044.044,0,0,1,.005-.031.186.186,0,0,0,.013-.052c0-.027,0-.031.014-.038l.018-.005.049.005c.042,0,.043,0,.049-.014A.121.121,0,0,0,1.86,2.4c0-.027-.018-.06-.038-.058l-.007-.011c0-.011.011-.013.034-.011s.013,0,.014-.014,0-.013.009-.007.013.005.025,0a.052.052,0,0,0,.02-.02.025.025,0,0,1,.018-.014.078.078,0,0,0,.029-.027c.009-.014.013-.018.014-.013s.005.005.007-.005.007-.016.042-.018c.013,0,.013,0,.009-.054l0-.022.013-.005c.007-.011.022-.014.018,0v.016c0,.007,0,.011,0,.014l-.013.013c-.005.016.009.027.036.027a.076.076,0,0,1,.031.005s.02,0,.038-.007.033-.011.036-.007.027.009.025,0l.009-.005c.009,0,.009-.005.009-.024,0-.036.013-.051.029-.033s.016.009.02-.009,0-.014-.007-.016l-.009-.011c0-.011.013-.014.049-.016.018,0,.031,0,.033-.005s-.009-.016-.022-.014l-.04.005c-.031.005-.052-.005-.052-.027a.062.062,0,0,0,0-.025c0-.009,0-.014.047-.052.013-.011.007-.02-.013-.022s-.042.011-.036.022,0,.016-.027.029a.062.062,0,0,0-.033.051l.007.013.013.009c.007.009.009.011,0,.018l-.018.018c-.011.007-.013.011-.011.027s-.007.034-.025.034l-.013.005a.011.011,0,0,1-.022,0l0-.014L2.1,2.121,2.092,2.1l0-.009,0-.009-.007-.016-.005,0a.05.05,0,0,1-.02.022.03.03,0,0,1-.033.009C2,2.088,2,2.084,2.007,2.073s.007-.011,0-.005-.009,0,0-.005.007-.011,0-.018A.035.035,0,0,1,2.019,2l.025-.011.007-.011.007-.005s.009,0,.016-.011l.014-.009,0,0L2.1,1.938l.013-.018a.1.1,0,0,1,.031-.038c.022-.016.033-.033.016-.025l-.013,0c0-.005,0-.005,0,0s.009,0,.007,0,0-.005.005,0,.024,0,.014-.005,0-.007,0-.007l.014,0,0,0q-.005-.011.011,0c.005,0,.011,0,.018,0l.018-.005.013,0,.018-.013c.011-.005.013,0,.007,0l-.005.013.005,0L2.3,1.809,2.312,1.8l.007,0,.005,0,.016,0c.014.005.014.005.005.011s-.005.005.014.011a.307.307,0,0,1,.1.034A.1.1,0,0,1,2.5,1.9a.016.016,0,0,1-.009.018c-.009.009-.016.009-.049,0s-.052-.009-.031,0a.017.017,0,0,1,.011.014l0,.018a.092.092,0,0,0,.04.027c.007,0,0-.011-.005-.016l-.009-.011c0-.005,0-.007.009,0l.025.009c.016.005.018,0,.011-.005s-.007-.014.009-.024a.023.023,0,0,1,.024,0,.01.01,0,0,0,.011-.016l-.005-.014-.005-.016c-.007-.005.016-.005.027,0s.009.016,0,.014-.011.011,0,.016.027.005.027,0,.022-.018.042-.022l.014-.005.009,0c0,.005.013.007.033,0s.029,0,.033,0,.005.007.009,0,0-.016-.014-.029-.011-.011,0-.007l.034.013a.475.475,0,0,1,.054.025c.033.02.04.014.011-.009l-.013-.014V1.858l-.007-.011,0-.007.007-.02L2.8,1.809l0-.005,0-.005.005.007.007.007a.02.02,0,0,1,.016.024l.005.014.011.025a.061.061,0,0,0,.014.029c.007.009.007.011,0,.027s-.007.016-.018.011-.013,0-.009,0,.033.011.042,0a.019.019,0,0,0,0-.025c0-.009,0-.013,0-.014a.031.031,0,0,1,.027.02c0,.009,0,.009,0,0S2.9,1.9,2.886,1.9s-.025-.011-.024-.025l-.009-.018c-.007-.007-.009-.009-.005-.014l.007,0,0-.009q0-.011,0-.005l.009.018c0,.011.005.013.014.016s.011,0,0,0-.014-.016,0-.009.013.005,0-.005-.009-.011,0-.005l.027.014.02.007-.007-.009c-.011-.005-.029-.029-.024-.029l.033,0c.022,0,.029,0,.022,0l-.007-.007,0-.005c.007-.011.06-.013.092,0,.009,0,.016,0,.014,0l0,0,.005,0,.005-.007a.028.028,0,0,1,.033.013.056.056,0,0,0,.036.018l.022.011.014.009.007.007c.005.011.005.014,0,.016l-.016.007-.014.005c-.009,0,0,.009.013.009l.007-.005c0-.005,0-.005.011,0l.038.014.034.018.024.013c.013,0,.014,0,.011-.005s0-.005.014,0l.024.013c.007.005.007.005.005.007l0,.005c.007,0,.016.014.009.013s0,0,.005.009.025.024.025.016,0-.007.016,0l.022.011h.005l.005,0c.005,0,.005,0,0-.007s-.005-.011,0-.011l.009,0,.018.009A.026.026,0,0,1,3.472,2l0,0c0-.009.018,0,.027.013s0,.009.022.02l.024.014.013.014.007.009,0,0,0,.005,0,0,.005.005a2.2,2.2,0,0,1,.128.183l0,0c-.007-.009-.013-.011-.013,0h0l0,0H3.679s0,0,0,.014.005.022.009.024l.007.013.005.011.005.005v0c-.005-.005-.005,0,0,.014s.005.011,0,.013,0,.005,0,.013l0,.013,0,.009c0,.013,0,.031,0,.022l-.018-.036L3.67,2.336a.082.082,0,0,1-.009-.049l0-.013,0-.022a.061.061,0,0,0-.011-.04s0,0,0,.011l0,.007,0,0c0,.009-.005.005-.011-.007l-.011-.011c-.007,0-.009,0-.009.014s0,.016.005.022l0,0H3.619l-.009,0c0-.007-.02-.02-.018-.013l-.014,0c-.025-.013-.007,0-.011.043L3.561,2.3l0,.009.007,0,.011.014c0,.007,0,.009,0,0s0,0,.005.007.005.005.005,0,.034.027.038.052l.011.033a.211.211,0,0,1,.013.074c0,.06,0,.071-.011.06s-.009-.005-.011.007a.05.05,0,0,0,0,.024.05.05,0,0,1,0,.033l.016.029a.142.142,0,0,1,.024.047c.007.022.007.024,0,.029l-.009,0a.185.185,0,0,1-.016-.049c0-.007-.007-.018-.013-.018s-.011-.007-.014-.024,0-.014-.011-.02-.011,0-.013,0-.011,0-.013-.014l-.005-.016L3.563,2.6l-.009.02c-.005,0,0,.018.009.022l.009.011c0,.011.011.016.011.005l.011,0c.013.005.016.013.009.016a.053.053,0,0,0-.005.043c.005,0,.009.011.027.04s.022.047.018.054l0,.007h.005c.009,0,.014.022.014.058a.049.049,0,0,0,0,.024l0,.009a.114.114,0,0,1-.005.045c-.005.022-.02.033-.025.02s0,0,0,0A.019.019,0,0,1,3.621,3c-.013.011-.013.024,0,.04l.005.018c0,.016,0,.022-.009.016s-.013-.033,0-.033,0,0,0-.009L3.6,3.014c-.005-.02-.02-.014-.025.011s0,.04.024.076a.217.217,0,0,1,.043.083.072.072,0,0,1,0,.043l-.007.014,0,.007L3.63,3.28l-.005-.016-.011-.018-.022-.025L3.572,3.2l-.007-.009c-.005-.02-.007,0-.005.029s.005.047.016.063a.063.063,0,0,1,.011.025l.011.016c.014.007.042.038.038.058l0,.034c0,.016,0,.018,0,.018s-.024-.047-.033-.08A.177.177,0,0,0,3.566,3.3a.161.161,0,0,1-.013-.049.344.344,0,0,0-.02-.072l-.022-.049L3.5,3.1M1.911,2.548l.005-.007c.009,0,.009,0,0,.011l-.007,0m.112-.038c.013,0,.016,0,.014.024s-.009.027-.022.027,0-.011,0-.024,0-.025.009-.027m0-.036c.005-.009.011,0,.011.009L2.03,2.5l-.005-.024m.065.114s.011-.005.027-.005.025,0,.024.016l-.007.016L2.11,2.6l-.02-.014m.25.069.011,0h-.02l.009,0m.13.009.016-.007.011.007-.016.007L2.47,2.665m-.4-.5-.007,0,0-.005c.009,0,.009,0,0,.009m.016-.018c.013-.005.014-.005.014,0s-.011.02-.016.016-.007-.013,0-.016m.1-.038L2.2,2.1l.005.007L2.2,2.117l-.005-.005m.06-.02.011-.005c.007,0,.007,0,0,.007s-.014.007-.014,0m1.437.192v.005l0-.005V2.278l0,.005m-.109.038-.005-.007V2.309l.005.007v.005m.107,1.75,0,0h0l-.005,0m.029.087-.007.011L3.7,4.174c-.007.013-.009.007,0-.016L3.7,4.14l.011-.005c.013-.005.013,0,0,.024m.094-.049L3.8,4.131l0,0-.016.025c-.011.024-.018.033-.025.033l0-.005a.315.315,0,0,1,.031-.049.167.167,0,0,0,.025-.04l.013-.018,0,0s0,.009-.011.027m.043-.074-.005.009a.266.266,0,0,1-.022.042l0-.013,0-.014,0-.013.007-.014.013-.038,0-.013c0-.011,0-.013,0-.007l0,.018,0,.013,0,.005,0,0,0,0-.013.025m.013-.38s0,.005,0,.016l0,.022,0,.024a.043.043,0,0,0,0,.022l0,.027,0,.018v.009l0,.024a.08.08,0,0,1,0,.031l-.007.027L3.834,3.9l-.013.033-.013.025c-.007.014-.04.078-.043.092l-.009.013-.016.016c-.013.014-.013.016-.013.009s0-.007-.009,0-.009.011-.009.007L3.7,4.1c-.005,0-.007-.007,0-.022s.007-.022,0-.016,0,0,0-.005.007-.022,0-.009-.007.009,0-.011.013-.027,0,0-.02.027-.016.018.005-.04,0-.04l-.007,0-.014.005c-.038.025-.051.036-.058.051a.034.034,0,0,1-.02.013.07.07,0,0,0-.029.02c-.018.016-.02.018-.027.011s-.005-.013,0-.018l.018-.045,0-.016.009-.042c0-.022.005-.029.009-.033l.005-.018c0-.014.018-.065.022-.062l.005,0,0-.007.011-.011.029-.025.025-.02a.17.17,0,0,0,.022-.04c0-.014.013-.027.011-.018l0,.005,0-.009.005-.009.005-.007A.064.064,0,0,1,3.737,3.7l0-.005c0-.007.011-.013.013-.009V3.7l.005,0,.007-.009.007-.016.007-.014a.018.018,0,0,1,.013-.014L3.8,3.626h.007l.013.005.005.007L3.82,3.65l-.009.018c-.007.018-.007.02,0,.038l.005.014c0,.007.005,0,.011-.011l.014-.042.02-.069c.005-.011.005-.005,0,.024s0,.029,0,.033m-.045,0v.005l0,.005V3.664l0-.005m.014-.127,0-.016,0,0-.005.018c-.005.009-.005.009,0,0m.067.02c0-.02-.005-.027-.011-.016l-.007.014c0,.013-.014.018-.016.005s0-.007-.009,0-.007.005-.005,0l.005-.011,0-.007a.109.109,0,0,0,0-.036l-.011-.009-.009,0,0,.005,0-.007V3.469l0-.007,0,0-.005-.005,0-.011-.005,0,.007-.009c.007-.007.016-.009.018,0l0,.016a.044.044,0,0,0,0,.022c0,.009,0,.007.013-.013s.011-.02.013-.016l.016.016c.013.011.018.02.016.029l0,.013,0,.011a.027.027,0,0,0-.005.025l0,.014v0l0,.011,0,.013-.007,0L3.9,3.552m.014.2,0-.013c0-.02,0-.022,0,0s0,.014,0,.014m.016-.261H3.925l0-.005.007,0,.009-.014c.005-.011.007-.014.005-.005l-.013.029m.016-.033V3.452l0,0v.007l0,0m.007.034,0-.018,0,0v.014m.011.04,0,0,0,0v0l0,0m.005-.013v0c0-.005,0-.005,0,0m.013.127,0-.007,0,.005c0,.007-.005.009,0,0m.009-.02V3.622l0-.005v.005l0,.005" transform="translate(0 1.014)" fill="#211411"/>
        <path id="Trazado_89984" data-name="Trazado 89984" d="M1.822,1.856c0,.007,0,.009,0,0l-.005-.011s0,0,0,.007" transform="translate(1.473 1.496)" fill="#211411"/>
        <path id="Trazado_89985" data-name="Trazado 89985" d="M1.847,1.643l0-.005L1.84,1.632l0,.005.005.005" transform="translate(1.49 1.322)" fill="#211411"/>
        <path id="Trazado_89986" data-name="Trazado 89986" d="M1.779,1.852v.005l.007.007V1.859l-.007-.007" transform="translate(1.44 1.499)" fill="#211411"/>
        <path id="Trazado_89987" data-name="Trazado 89987" d="M1.4,2.492,1.389,2.5l-.007.014.013-.007L1.4,2.492" transform="translate(1.119 2.018)" fill="#211411"/>
        <path id="Trazado_89988" data-name="Trazado 89988" d="M1.459,1.985l0,0h.009l-.007,0" transform="translate(1.18 1.608)" fill="#211411"/>
        <path id="Trazado_89989" data-name="Trazado 89989" d="M1.514,1.726l0-.007,0,.007,0,.005,0-.005" transform="translate(1.221 1.392)" fill="#211411"/>
        <path id="Trazado_89990" data-name="Trazado 89990" d="M1.368,1.986l.005.007,0-.007L1.37,1.978l0,.007" transform="translate(1.108 1.602)" fill="#211411"/>
        <path id="Trazado_89991" data-name="Trazado 89991" d="M1.6,2.057,1.6,2.05l-.009-.013L1.6,2.029H1.61s0-.007-.007-.02S1.588,2,1.583,2,1.577,2.009,1.576,2l0-.014-.025-.025c-.011-.014-.016-.025-.013-.025l.009-.009.011-.005c.007,0,.011-.009.007-.025s-.031-.022-.054,0-.033.034-.02.058l.011.02L1.521,2l.022.029,0,.024a.109.109,0,0,0,0,.034c.011.024.06.045.076.033s0-.047-.009-.054l0-.011" transform="translate(1.198 1.518)" fill="#211411"/>
        <path id="Trazado_89992" data-name="Trazado 89992" d="M1.48,1.993l0,.011.009.011,0-.011L1.48,1.993" transform="translate(1.198 1.614)" fill="#211411"/>
        <path id="Trazado_89993" data-name="Trazado 89993" d="M1.328,1.95c-.009,0-.02,0-.02.007s0,.007.014.007.02,0,.02-.007,0-.007-.014-.007" transform="translate(1.059 1.579)" fill="#211411"/>
        <path id="Trazado_89994" data-name="Trazado 89994" d="M1.472,1.779l0-.013-.005.007c0,.013,0,.038.009.031l0-.009c-.005-.005-.005-.009,0-.016" transform="translate(1.188 1.43)" fill="#211411"/>
        <path id="Trazado_89995" data-name="Trazado 89995" d="M1.361,2.594a.094.094,0,0,0,.009.045l.013.027.009.014c.009,0,.007-.007-.005-.031A.107.107,0,0,1,1.374,2.6c0-.04-.013-.049-.013-.011" transform="translate(1.102 2.08)" fill="#211411"/>
        <path id="Trazado_89996" data-name="Trazado 89996" d="M1.336,1.713c.016,0,.013-.016,0-.027s-.02-.013-.022,0,.014.031.025.031" transform="translate(1.06 1.357)" fill="#211411"/>
        <path id="Trazado_89997" data-name="Trazado 89997" d="M1.61,1.916C1.6,1.907,1.6,1.9,1.6,1.9s0-.011-.009-.011-.029.024-.024.047.005.018.029.024.016,0,.013,0V1.937a.019.019,0,0,0,0-.022" transform="translate(1.271 1.526)" fill="#211411"/>
        <path id="Trazado_89998" data-name="Trazado 89998" d="M1.368,1.7l-.007-.022c-.005-.009-.011-.013-.009-.007l-.005,0c-.011-.007-.005.005.007.02l.014.005" transform="translate(1.085 1.35)" fill="#211411"/>
        <path id="Trazado_89999" data-name="Trazado 89999" d="M1.39,1.73,1.38,1.716c-.007-.005-.009-.005-.007,0s.02.027.018.013" transform="translate(1.11 1.386)" fill="#211411"/>
        <path id="Trazado_90000" data-name="Trazado 90000" d="M1.477,1.934c-.013-.007-.022-.016-.022-.02l.005,0c.005,0,.013-.016.007-.024l.009-.011.009-.009H1.475l-.02.005-.025.013c-.016.007-.018.009-.009.018l.018.005c.009,0,.011,0,.009,0l-.011.007-.018.007c-.005.005-.011,0-.018-.007S1.39,1.907,1.4,1.9s.005-.007-.007-.007-.016,0-.016-.007c0-.022-.033,0-.036.029l-.005.007c-.005-.005-.022.058-.018.069s.052.027.078.011a.052.052,0,0,1,.06,0,.12.12,0,0,0,.087.011c.025-.033-.038-.067-.06-.081" transform="translate(1.062 1.513)" fill="#211411"/>
        <rect id="Rectángulo_23016" data-name="Rectángulo 23016" width="1.871" height="6.114" transform="translate(8.352 2.566)" fill="#211411"/>
        <path id="Trazado_90001" data-name="Trazado 90001" d="M5.516,0A.881.881,0,0,1,6.4.876.877.877,0,1,1,5.516,0" transform="translate(3.763 0)" fill="#211411"/>
      </g>
    </g>
  </g>
</svg>
