<svg xmlns="http://www.w3.org/2000/svg" xmlns:xlink="http://www.w3.org/1999/xlink" width="85" height="85" viewBox="0 0 85 85">
  <defs>
    <filter id="Rectángulo_18090" x="0" y="0" width="85" height="85" filterUnits="userSpaceOnUse">
      <feOffset dy="3" input="SourceAlpha"/>
      <feGaussianBlur stdDeviation="3" result="blur"/>
      <feFlood flood-opacity="0.161"/>
      <feComposite operator="in" in2="blur"/>
      <feComposite in="SourceGraphic"/>
    </filter>
    <clipPath id="clip-path">
      <rect id="Rectángulo_26917" data-name="Rectángulo 26917" width="51.85" height="43.375" fill="none"/>
    </clipPath>
    <clipPath id="clip-path-2">
      <path id="Trazado_82112" data-name="Trazado 82112" d="M16.372,31.838a3.746,3.746,0,0,1-3.582-3.772V21.108a7.457,7.457,0,0,0,0-13.292V5.533a3.746,3.746,0,0,1,3.582-3.769h.112a3.694,3.694,0,0,1,3.691,3.691v9.275a.333.333,0,0,0,.571.233l6.11-6.11a3.7,3.7,0,0,1,3.289-1.021,3.519,3.519,0,0,1,1.41.583,3.695,3.695,0,0,1,.522,5.663l-5.445,5.448a.334.334,0,0,0,0,.471l5.536,5.539a3.693,3.693,0,0,1-5.222,5.225l-6.2-6.2a.335.335,0,0,0-.571.239v3.349a3.7,3.7,0,0,1-3.691,3.694h-.112M16.469,0l-.082,0a5.649,5.649,0,0,0-5.53,5.623V7.146A7.459,7.459,0,1,0,9.4,21.92a7.692,7.692,0,0,0,1.453-.139V28.22a5.68,5.68,0,0,0,5.627,5.72h.088A5.652,5.652,0,0,0,22.089,28.8L25.578,32.3a5.588,5.588,0,0,0,3.978,1.646h0a5.62,5.62,0,0,0,5.623-5.623v-.006a5.581,5.581,0,0,0-1.646-3.974L29.283,20.09a.245.245,0,0,1-.066-.157.24.24,0,0,1,.066-.16l4.092-4.092a5.793,5.793,0,0,0,1.715-4.038,5.625,5.625,0,0,0-9.6-3.987l-3.383,3.383V5.72A5.681,5.681,0,0,0,16.484,0Z" transform="translate(-1.945)" fill="none"/>
    </clipPath>
    <linearGradient id="linear-gradient" x1="-0.177" y1="1.278" x2="-0.086" y2="1.278" gradientUnits="objectBoundingBox">
      <stop offset="0" stop-color="#223c89"/>
      <stop offset="0.142" stop-color="#223c89"/>
      <stop offset="0.384" stop-color="#21408c"/>
      <stop offset="0.997" stop-color="#21438f"/>
      <stop offset="1" stop-color="#21438f"/>
    </linearGradient>
    <clipPath id="clip-path-4">
      <path id="Trazado_82114" data-name="Trazado 82114" d="M9.118.584A3.746,3.746,0,0,0,5.536,4.353V6.636A7.453,7.453,0,0,1,9.61,13.281v.006a7.455,7.455,0,0,1-4.074,6.641v6.958a3.746,3.746,0,0,0,3.582,3.772,3.7,3.7,0,0,0,3.8-3.694V23.616a.335.335,0,0,1,.571-.239l6.2,6.2a3.693,3.693,0,0,0,5.222-5.225l-5.536-5.539a.334.334,0,0,1,0-.471L24.823,12.9A3.695,3.695,0,0,0,24.3,7.234a3.519,3.519,0,0,0-1.41-.583A3.7,3.7,0,0,0,19.6,7.672l-6.11,6.11a.333.333,0,0,1-.571-.233V4.275A3.694,3.694,0,0,0,9.23.584H9.118" transform="translate(-5.536 -0.584)" fill="none"/>
    </clipPath>
    <linearGradient id="linear-gradient-2" x1="-0.534" y1="1.137" x2="0.312" y2="1.57" gradientUnits="objectBoundingBox">
      <stop offset="0" stop-color="#57a021"/>
      <stop offset="0.352" stop-color="#57a021"/>
      <stop offset="0.865" stop-color="#c0c819"/>
      <stop offset="1" stop-color="#c0c819"/>
    </linearGradient>
  </defs>
  <g id="Grupo_40766" data-name="Grupo 40766" transform="translate(9119 -2688)">
    <g transform="matrix(1, 0, 0, 1, -9119, 2688)" filter="url(#Rectángulo_18090)">
      <rect id="Rectángulo_18090-2" data-name="Rectángulo 18090" width="67" height="67" rx="10" transform="translate(9 6)" fill="#fff"/>
    </g>
    <g id="Grupo_40765" data-name="Grupo 40765" transform="translate(-9102 2706)">
      <g id="Grupo_40072" data-name="Grupo 40072" transform="translate(0 0)">
        <g id="Grupo_40071" data-name="Grupo 40071" clip-path="url(#clip-path)">
          <path id="Trazado_82111" data-name="Trazado 82111" d="M22.165,13.863a.584.584,0,0,0-.353.094.668.668,0,0,0-.2.29l-.737,1.842c-.033.088-.063.169-.091.251A2.533,2.533,0,0,0,20.7,16.1l-.737-1.86a.647.647,0,0,0-.193-.272.615.615,0,0,0-.387-.1.768.768,0,0,0-.468.13.435.435,0,0,0-.187.374,1.025,1.025,0,0,0,.006.13.789.789,0,0,0,.066.205l1.3,2.948c.021.042.045.085.072.13a.488.488,0,0,0,.121.13.586.586,0,0,0,.184.094.943.943,0,0,0,.269.033.8.8,0,0,0,.4-.088.638.638,0,0,0,.245-.284l1.314-2.954a.768.768,0,0,0,.054-.187.92.92,0,0,0,.012-.151.483.483,0,0,0-.16-.365.656.656,0,0,0-.456-.145M11.543,15.255a.817.817,0,0,1,.248-.3.748.748,0,0,1,.447-.121.737.737,0,0,1,.384.085,1.808,1.808,0,0,1,.32.245c.079.069.145.133.2.184a.411.411,0,0,0,.287.1.558.558,0,0,0,.39-.151.492.492,0,0,0,.166-.384.752.752,0,0,0-.112-.359,1.269,1.269,0,0,0-.329-.365,2.043,2.043,0,0,0-.532-.284,2.2,2.2,0,0,0-.755-.118,2.3,2.3,0,0,0-.843.148,1.836,1.836,0,0,0-.661.438,1.917,1.917,0,0,0-.429.7,2.964,2.964,0,0,0-.042,1.709,1.789,1.789,0,0,0,.347.673,1.767,1.767,0,0,0,.631.474,2.251,2.251,0,0,0,.936.178,2.438,2.438,0,0,0,.743-.106,2.211,2.211,0,0,0,.556-.266,1.328,1.328,0,0,0,.359-.35.683.683,0,0,0,.13-.374.446.446,0,0,0-.051-.211.585.585,0,0,0-.121-.166.55.55,0,0,0-.175-.121.464.464,0,0,0-.468.039,1.387,1.387,0,0,0-.169.16,1.453,1.453,0,0,1-.332.275.814.814,0,0,1-.4.082.752.752,0,0,1-.7-.381,1.092,1.092,0,0,1-.13-.359,2.228,2.228,0,0,1-.033-.35,2.759,2.759,0,0,1,.027-.347,1.284,1.284,0,0,1,.112-.381m-8.124-2.76a.89.89,0,0,0-.4.088.4.4,0,0,0-.205.4V14.2l0-.006a1.1,1.1,0,0,0-.245-.205,1.5,1.5,0,0,0-.329-.145,1.556,1.556,0,0,0-.429-.054,1.754,1.754,0,0,0-.767.163,1.677,1.677,0,0,0-.574.453,2.029,2.029,0,0,0-.35.683A2.947,2.947,0,0,0,0,15.938a2.981,2.981,0,0,0,.118.861,2.043,2.043,0,0,0,.341.689,1.6,1.6,0,0,0,.568.453,1.754,1.754,0,0,0,.767.163,1.523,1.523,0,0,0,.544-.085,1.55,1.55,0,0,0,.368-.187,1.262,1.262,0,0,0,.151-.13.405.405,0,0,0,.133.211.7.7,0,0,0,.45.115c.48,0,.583-.269.583-.5V13a.47.47,0,0,0-.157-.368.649.649,0,0,0-.447-.136M2.64,16.789a.672.672,0,0,1-.595.29.661.661,0,0,1-.6-.305,1.48,1.48,0,0,1-.208-.821,1.84,1.84,0,0,1,.054-.459,1.07,1.07,0,0,1,.16-.356.693.693,0,0,1,.257-.23.744.744,0,0,1,.353-.082.7.7,0,0,1,.341.082.651.651,0,0,1,.245.227,1.254,1.254,0,0,1,.154.359,1.84,1.84,0,0,1,.054.459,1.454,1.454,0,0,1-.214.837m2.679-2.927a.652.652,0,0,0-.474.151.547.547,0,0,0-.151.4v3.12c0,.223.106.489.616.489a.712.712,0,0,0,.426-.112.457.457,0,0,0,.169-.393v-3.15a.464.464,0,0,0-.163-.387.659.659,0,0,0-.423-.124m3.168,1.564-.4-.076a.819.819,0,0,1-.4-.142.256.256,0,0,1-.079-.184.224.224,0,0,1,.109-.19.674.674,0,0,1,.39-.088,1.224,1.224,0,0,1,.462.072,2.509,2.509,0,0,1,.384.19.989.989,0,0,0,.16.079.463.463,0,0,0,.408-.015.747.747,0,0,0,.145-.136.581.581,0,0,0,.115-.359.478.478,0,0,0-.045-.2.581.581,0,0,0-.16-.2,1.889,1.889,0,0,0-.513-.266,2.578,2.578,0,0,0-.894-.13,2.646,2.646,0,0,0-.692.085,1.629,1.629,0,0,0-.556.26,1.193,1.193,0,0,0-.5,1,1.226,1.226,0,0,0,.1.519,1.028,1.028,0,0,0,.278.371,1.474,1.474,0,0,0,.423.242,2.839,2.839,0,0,0,.526.136l.456.076a.684.684,0,0,1,.378.142.3.3,0,0,1,.082.2.261.261,0,0,1-.112.223.749.749,0,0,1-.426.091,1.128,1.128,0,0,1-.411-.063,1.471,1.471,0,0,1-.293-.145c-.091-.054-.169-.106-.239-.151a.461.461,0,0,0-.538.012A.718.718,0,0,0,6.466,17a.657.657,0,0,0-.085.326.418.418,0,0,0,.057.208.544.544,0,0,0,.172.181,1.972,1.972,0,0,0,.6.278,2.994,2.994,0,0,0,.84.109,2.281,2.281,0,0,0,1.3-.332,1.323,1.323,0,0,0,.163-1.915,2.1,2.1,0,0,0-1.036-.429M5.762,12.464a.756.756,0,0,0-.453-.151.666.666,0,0,0-.483.181.667.667,0,0,0,0,.927.686.686,0,0,0,.483.172.686.686,0,0,0,.483-.172.614.614,0,0,0,.187-.468.573.573,0,0,0-.217-.489M18.033,14.37a1.912,1.912,0,0,0-.658-.429,2.268,2.268,0,0,0-.855-.154,2.34,2.34,0,0,0-.855.151,1.915,1.915,0,0,0-1.105,1.117,2.478,2.478,0,0,0-.154.882,2.577,2.577,0,0,0,.148.885,1.931,1.931,0,0,0,.417.689,1.881,1.881,0,0,0,.667.441,2.433,2.433,0,0,0,.876.151,2.247,2.247,0,0,0,.858-.157,1.9,1.9,0,0,0,1.09-1.13,2.546,2.546,0,0,0,.151-.894,2.451,2.451,0,0,0-.151-.873,1.892,1.892,0,0,0-.429-.68m-.87,2.413a.786.786,0,0,1-.649.281.764.764,0,0,1-.634-.281,1.289,1.289,0,0,1-.236-.831,1.3,1.3,0,0,1,.236-.834.858.858,0,0,1,1.284,0,1.582,1.582,0,0,1,0,1.661m28.223-4.289a.89.89,0,0,0-.4.088.4.4,0,0,0-.2.4V14.2l-.006-.006a1.156,1.156,0,0,0-.242-.205,1.467,1.467,0,0,0-.332-.145,1.541,1.541,0,0,0-.429-.054,1.754,1.754,0,0,0-.767.163,1.677,1.677,0,0,0-.574.453,2.029,2.029,0,0,0-.35.683,2.947,2.947,0,0,0-.118.852,2.98,2.98,0,0,0,.118.861,2.048,2.048,0,0,0,.344.689,1.591,1.591,0,0,0,.565.453,1.754,1.754,0,0,0,.767.163,1.523,1.523,0,0,0,.544-.085,1.55,1.55,0,0,0,.368-.187,1.092,1.092,0,0,0,.154-.13.383.383,0,0,0,.13.211.709.709,0,0,0,.453.115c.48,0,.58-.269.58-.5V13a.47.47,0,0,0-.157-.368.649.649,0,0,0-.447-.136m-.779,4.295a.672.672,0,0,1-.595.29.661.661,0,0,1-.6-.305,1.48,1.48,0,0,1-.208-.821,1.84,1.84,0,0,1,.054-.459,1.134,1.134,0,0,1,.16-.356.717.717,0,0,1,.257-.23.744.744,0,0,1,.353-.082.688.688,0,0,1,.341.082.659.659,0,0,1,.248.227,1.341,1.341,0,0,1,.151.359,1.84,1.84,0,0,1,.054.459,1.454,1.454,0,0,1-.214.837m-2.679-4.9a.684.684,0,0,0-.438-.012.446.446,0,0,0-.275.323l-.725,2.425a.476.476,0,0,0,.045.42.666.666,0,0,0,.371.239.654.654,0,0,0,.5-.009.554.554,0,0,0,.263-.344l.716-2.395c.063-.214.036-.5-.453-.646m6.789,3.543-.4-.076a.8.8,0,0,1-.4-.142.248.248,0,0,1-.082-.184.231.231,0,0,1,.109-.19.681.681,0,0,1,.39-.088,1.252,1.252,0,0,1,.465.072,2.629,2.629,0,0,1,.381.19,1.03,1.03,0,0,0,.163.079.456.456,0,0,0,.4-.015.608.608,0,0,0,.145-.136A.581.581,0,0,0,50,14.578a.478.478,0,0,0-.045-.2.569.569,0,0,0-.157-.2,1.963,1.963,0,0,0-.516-.266,2.567,2.567,0,0,0-.894-.13,2.646,2.646,0,0,0-.692.085,1.614,1.614,0,0,0-.553.26,1.2,1.2,0,0,0-.365.426,1.23,1.23,0,0,0-.13.577,1.276,1.276,0,0,0,.1.519,1.036,1.036,0,0,0,.281.371,1.457,1.457,0,0,0,.42.242,2.872,2.872,0,0,0,.529.136l.456.076a.681.681,0,0,1,.374.142.3.3,0,0,1,.082.2.261.261,0,0,1-.112.223.737.737,0,0,1-.423.091,1.128,1.128,0,0,1-.411-.063,1.589,1.589,0,0,1-.3-.145c-.088-.054-.166-.106-.239-.151a.457.457,0,0,0-.535.012A.637.637,0,0,0,46.7,17a.66.66,0,0,0-.088.326.423.423,0,0,0,.06.208.565.565,0,0,0,.169.181,1.992,1.992,0,0,0,.607.278,2.972,2.972,0,0,0,.837.109,2.274,2.274,0,0,0,1.3-.332,1.327,1.327,0,0,0,.166-1.915,2.124,2.124,0,0,0-1.039-.429M50.9,13.944h-.526a.051.051,0,0,0-.042.018.085.085,0,0,0-.012.045.073.073,0,0,0,.012.045.048.048,0,0,0,.045.021h.181v.565c0,.039.024.06.076.06a.072.072,0,0,0,.057-.018.06.06,0,0,0,.018-.042v-.565h.19a.043.043,0,0,0,.042-.021.074.074,0,0,0,.015-.045.09.09,0,0,0-.015-.045.051.051,0,0,0-.042-.018m-26.027-.157a2.118,2.118,0,0,0-.927.19,1.834,1.834,0,0,0-.643.5,1.982,1.982,0,0,0-.371.707,2.822,2.822,0,0,0-.118.809,2.643,2.643,0,0,0,.148.933,1.678,1.678,0,0,0,1.111,1.054,2.936,2.936,0,0,0,.876.124,2.967,2.967,0,0,0,.683-.082,1.959,1.959,0,0,0,.6-.242,1.08,1.08,0,0,0,.284-.233.472.472,0,0,0,.1-.29.605.605,0,0,0-.148-.393.452.452,0,0,0-.341-.178.522.522,0,0,0-.278.072c-.063.039-.133.079-.205.118s-.178.088-.287.139a.867.867,0,0,1-.378.072.815.815,0,0,1-.921-.776h2.114a.782.782,0,0,0,.417-.094.4.4,0,0,0,.169-.371,2.139,2.139,0,0,0-.51-1.525,1.82,1.82,0,0,0-1.374-.535M24.1,15.373a.694.694,0,0,1,.236-.438.773.773,0,0,1,.516-.178.747.747,0,0,1,.314.06.569.569,0,0,1,.211.163.659.659,0,0,1,.127.223.846.846,0,0,1,.036.169Zm27.722-1.416a.162.162,0,0,0-.072-.015.181.181,0,0,0-.079.015.107.107,0,0,0-.042.057l-.175.522-.184-.529a.083.083,0,0,0-.036-.048.116.116,0,0,0-.072-.018.129.129,0,0,0-.072.018.06.06,0,0,0-.027.057v.619a.077.077,0,0,0,.015.048.093.093,0,0,0,.057.015.077.077,0,0,0,.057-.018.072.072,0,0,0,.015-.042V14.2l.16.426a.12.12,0,0,0,.03.045.093.093,0,0,0,.057.015.089.089,0,0,0,.048-.012.059.059,0,0,0,.03-.039l.169-.471v.465a.059.059,0,0,0,.018.048.065.065,0,0,0,.054.018.077.077,0,0,0,.057-.018.072.072,0,0,0,.015-.042v-.631a.064.064,0,0,0-.024-.051M29.782,14a.469.469,0,0,0-.175-.157.656.656,0,0,0-.311-.06.992.992,0,0,0-.61.19,1.7,1.7,0,0,0-.266.245.336.336,0,0,0-.172-.275.809.809,0,0,0-.4-.085.572.572,0,0,0-.456.151.5.5,0,0,0-.13.344v3.15c0,.242.1.529.595.529a.664.664,0,0,0,.447-.127.511.511,0,0,0,.148-.4v-1.48a2.679,2.679,0,0,1,.057-.6.469.469,0,0,1,.263-.326,1.54,1.54,0,0,1,.3-.109l.3-.06a.691.691,0,0,0,.26-.085.535.535,0,0,0,.151-.145.444.444,0,0,0,.069-.181,1.028,1.028,0,0,0,.012-.16,1.093,1.093,0,0,0-.012-.163.461.461,0,0,0-.072-.19m3.778-.284a.559.559,0,0,0-.347.1.725.725,0,0,0-.205.287l-.843,2.02-.8-2.027a.634.634,0,0,0-.2-.272.608.608,0,0,0-.387-.106.788.788,0,0,0-.468.13.442.442,0,0,0-.187.374c0,.039,0,.082.006.13a.682.682,0,0,0,.069.205l1.32,2.966-.477,1.015a1.875,1.875,0,0,0-.079.184.608.608,0,0,0-.042.223.483.483,0,0,0,.154.347.609.609,0,0,0,.441.157.567.567,0,0,0,.381-.133.933.933,0,0,0,.239-.341l1.972-4.409a.759.759,0,0,0,.057-.184c.006-.057.012-.109.012-.151a.471.471,0,0,0-.163-.365.657.657,0,0,0-.456-.148m7.279,1.818a.678.678,0,0,0-.513.027.623.623,0,0,0-.314.393.575.575,0,0,0,.069.532.75.75,0,0,0,.39.275.658.658,0,0,0,.516-.036.6.6,0,0,0,.311-.384.616.616,0,0,0-.045-.5.687.687,0,0,0-.414-.3m-1.96.006.809-.722a.522.522,0,0,0,.205-.384.5.5,0,0,0-.042-.208.568.568,0,0,0-.112-.16.771.771,0,0,0-.184-.13.513.513,0,0,0-.245-.057.582.582,0,0,0-.323.094,1.962,1.962,0,0,0-.275.23l-1.009.945-.012-2.135a.412.412,0,0,0-.2-.378.774.774,0,0,0-.393-.1c-.516,0-.622.293-.622.532l.03,4.518c0,.223.112.486.622.483a.719.719,0,0,0,.426-.115.455.455,0,0,0,.166-.393l-.006-1.012.275-.263.846,1.308a1.464,1.464,0,0,0,.266.329.589.589,0,0,0,.4.13.666.666,0,0,0,.441-.142.456.456,0,0,0,.175-.359A.6.6,0,0,0,40,17.242Z" transform="translate(0 23.922)" fill="#223c89"/>
        </g>
      </g>
      <g id="Grupo_40074" data-name="Grupo 40074" transform="translate(5.874 0)">
        <g id="Grupo_40073" data-name="Grupo 40073" clip-path="url(#clip-path-2)">
          <rect id="Rectángulo_26918" data-name="Rectángulo 26918" width="33.237" height="33.943" transform="translate(0 0)" fill="url(#linear-gradient)"/>
        </g>
      </g>
      <g id="Grupo_40076" data-name="Grupo 40076" transform="translate(0 0)">
        <g id="Grupo_40075" data-name="Grupo 40075" clip-path="url(#clip-path)">
          <path id="Trazado_82113" data-name="Trazado 82113" d="M5.819,5.642H6.982a2.253,2.253,0,1,1,0,4.506H5.819ZM3.352,3.175v9.438h3.63a4.719,4.719,0,1,0-.045-9.438Z" transform="translate(6.771 6.414)" fill="#ffc400"/>
        </g>
      </g>
      <g id="Grupo_40078" data-name="Grupo 40078" transform="translate(16.719 1.764)">
        <g id="Grupo_40077" data-name="Grupo 40077" clip-path="url(#clip-path-4)">
          <rect id="Rectángulo_26920" data-name="Rectángulo 26920" width="32.785" height="36.327" transform="matrix(0.866, -0.5, 0.5, 0.866, -13.049, 7.533)" fill="url(#linear-gradient-2)"/>
        </g>
      </g>
    </g>
  </g>
</svg>
