<svg xmlns="http://www.w3.org/2000/svg" xmlns:xlink="http://www.w3.org/1999/xlink" width="84" height="84" viewBox="0 0 84 84">
  <defs>
    <filter id="Rect치ngulo_18070" x="0" y="0" width="84" height="84" filterUnits="userSpaceOnUse">
      <feOffset dy="3" input="SourceAlpha"/>
      <feGaussianBlur stdDeviation="3" result="blur"/>
      <feFlood flood-opacity="0.161"/>
      <feComposite operator="in" in2="blur"/>
      <feComposite in="SourceGraphic"/>
    </filter>
  </defs>
  <g id="Grupo_18815" data-name="Grupo 18815" transform="translate(-700 -1410)">
    <g transform="matrix(1, 0, 0, 1, 700, 1410)" filter="url(#Rect치ngulo_18070)">
      <rect id="Rect치ngulo_18070-2" data-name="Rect치ngulo 18070" width="66" height="66" rx="10" transform="translate(9 6)" fill="#fff"/>
    </g>
    <g id="Grupo_18218" data-name="Grupo 18218" transform="translate(714 1437)">
      <path id="Trazado_329" data-name="Trazado 329" d="M252.888,116.78c-1.2.2-1.964.9-1.775,1.46A7.126,7.126,0,0,1,252.888,116.78Z" transform="translate(-227.245 -111.879)" fill="#008ad8"/>
      <path id="Trazado_330" data-name="Trazado 330" d="M243.746,120.555c0,.521,1.912,2.1,4.724,3.091-.005-1.226.01-3.052.026-4.327C246.213,119.433,243.743,119.74,243.746,120.555Z" transform="translate(-238.84 -107.867)" fill="#008ad8"/>
      <path id="Trazado_331" data-name="Trazado 331" d="M251.432,118.838a2.719,2.719,0,0,0,.808.108c.764,0,2.534-.707,2.534-1.569a.509.509,0,0,0-.552-.516C253.5,116.867,252.038,118.155,251.432,118.838Z" transform="translate(-226.695 -111.75)" fill="#008ad8"/>
      <path id="Trazado_332" data-name="Trazado 332" d="M298.638,126.307a4.493,4.493,0,0,0-3.225-3.228,4.6,4.6,0,0,0-2.962.222,5.789,5.789,0,0,0-1.417.859,3.474,3.474,0,0,0-2.237-.88,22.79,22.79,0,0,0-5.3.931c-.5-.88-1.275-1.858-2.219-1.93a1.29,1.29,0,0,0-1.143.506,2.57,2.57,0,0,0-.224,1.938c-1.347-1.349-4.371-1.437-6.3-1.45a14.141,14.141,0,0,0-4.892.828,8.6,8.6,0,0,0,2.485-2.1,2.44,2.44,0,0,0,2.255-1,2.518,2.518,0,0,0,.129-2.554,2.754,2.754,0,0,0-1.68-1.365,2.5,2.5,0,0,0-2.242.446h0a2.364,2.364,0,0,0-1.484-1.891,2.626,2.626,0,0,0-2.557.346,2.334,2.334,0,0,0-.815,1.195,2.2,2.2,0,0,0,.206,1.656l-.008.008a3.408,3.408,0,0,0-1.293,2.593,22.94,22.94,0,0,0-5.573-4,22.591,22.591,0,0,0-9.232-2.559,20.434,20.434,0,0,0-4.647.41c-2.366.71-2.6,2.43-2.343,3.176.284.839,1.264,1.166,2.521.949a1.331,1.331,0,0,0,1.058-1.076,19.017,19.017,0,0,1,5.955.591,18.672,18.672,0,0,0-.929,4.711,14.9,14.9,0,0,0-3.194,1.035,3.831,3.831,0,0,0-2.09,1.933,2.9,2.9,0,0,0,.844,2.714,13.933,13.933,0,0,0,4.4,3.31,2.324,2.324,0,0,0,1.468,2.012,2.059,2.059,0,0,0,2.353-.751,16.67,16.67,0,0,0,2.856.261l0,1.128a2.54,2.54,0,0,0,2.531,2.539h28.529a3.216,3.216,0,0,0,1.922,1.8c1.5.294,1.677-1.1,1.757-1.538a9.89,9.89,0,0,1,.3-1.367l1.1-3.677a6.871,6.871,0,0,0,2.825-1.166,7.031,7.031,0,0,0,1.9-2.062A4.725,4.725,0,0,0,298.638,126.307Zm-20.306-1.355c.947.07,3.22,4.216,3.483,4.141.168-.044.186-.436.186-.653-.005-1.05-1.089-3.788-1.094-4.575,0-.261.044-.508.276-.508.931,0,2.529,2.944,2.539,5.354,0,1.048-.648,2.668-1.755,2.67-1.022.005-2.854-3.777-3.189-3.777-.452,0,.132,4.139-.993,4.141-.759,0-.937-.684-.939-1.7S277.359,124.882,278.332,124.952Zm-4.766-.6c1.084-.005,3-.016,3.006.733,0,1.251-6.164.573-6.174,1.491-.005.279,1.337.341,2.58.441,1.662.142,3.568.369,3.574,2.384,0,.828-.71,2.433-3.537,2.438-2.867.01-3.888-1.46-3.891-2.085-.005-1.2,1.148-1.533,1.948-1.535.761,0,3.228.294,3.23.9,0,.333-.617.663-1.362.666s-1.822-.663-2.348-.663a.681.681,0,0,0-.753.555c0,.206.031.614,1.429.612.678-.005,3.976-.372,3.973-1.282,0-.408-1.514-.813-2.758-.939-1.53-.155-3.829.224-3.834-1.329C268.641,124.454,272.754,124.356,273.566,124.356Zm-6.972-5.32a1.47,1.47,0,0,1-.854-.82,1.284,1.284,0,0,1,.2-1.249,1.68,1.68,0,0,1,2.183-.328,1.371,1.371,0,0,1,.64,1.063,1.309,1.309,0,0,1-.361.949,2.075,2.075,0,0,1,1.344.635l.021,0a1.279,1.279,0,0,1,.165-.6,1.469,1.469,0,0,1,1.107-.728,1.773,1.773,0,0,1,1.455.575,1.571,1.571,0,0,1,.428,1,1.45,1.45,0,0,1-.472,1.174,1.513,1.513,0,0,1-1.259.33,1.311,1.311,0,0,1-.537-.17,4.446,4.446,0,0,1-3.406,2.245c-1.989-.034-2.482-1.182-2.485-1.842A3.044,3.044,0,0,1,266.595,119.036Zm-13.1,5.364c5.243,0,6.806,1.45,6.809,2.688a1.868,1.868,0,0,1-1.151,1.517c-.526-.036-1.13.013-1.133-.255,0-.359.653-.617.653-.991-.005-.441-2.467-1.1-4.348-1.1-.235,0-.508,0-.8.005.028,1.494.1,3.855.132,4.982a13.633,13.633,0,0,0,2.609.253c2.536-.008,7.139-.8,7.129-4.335-.015-4.549-8.933-9.913-16.676-9.892-.9.005-2.709.083-2.709.421,0,.289.467.232.467.521,0,.2-.317.235-.671.235s-.929-.041-.916-.534a1.881,1.881,0,0,1,1.148-1.416h0a13.326,13.326,0,0,1,3.989-.539c8.189-.23,17.6,6.476,17.61,11.138.013,3.478-3.8,6.017-8.548,6.03a13.676,13.676,0,0,1-3.424-.423c-.072.524-.3,1.019-.978,1.019-.932.008-1.133-.715-1.187-1.762-3.274-1.422-5.3-3.759-5.3-4.686-.005-1.133,2.513-2.283,5.341-2.712.054-1.334.245-3.749.9-3.749C253.232,120.813,253.444,123.007,253.493,124.4Zm6.445,12.521a1.494,1.494,0,0,1-1.4-.813c-.15-.454.07-.929.653-1.419a4.6,4.6,0,0,1,2.619-1.337.822.822,0,0,1,.947.578.381.381,0,0,1-.735.2.31.31,0,0,0-.15-.013,3.934,3.934,0,0,0-2.191,1.161c-.379.317-.441.521-.418.591.044.132.353.276.614.292a18.116,18.116,0,0,0,3.187-.248.381.381,0,1,1,.245.722A18.527,18.527,0,0,1,259.938,136.921Zm6.912-1.711.072,1.625a.377.377,0,0,1-.364.4l-.018,0a.381.381,0,0,1-.379-.366l-.065-1.45c-.335.1-.725.212-1.109.325v.937a.382.382,0,0,1-.764,0v-.707l-.108.034a.427.427,0,0,1-.111.015.382.382,0,0,1-.111-.748l.33-.1v-1.406a.382.382,0,1,1,.764,0v1.177c.356-.106.743-.217,1.073-.312l-.052-1.2a.381.381,0,1,1,.761-.034l.046,1.032.059-.01a.372.372,0,0,1,.433.32C267.328,134.989,267.191,135.156,266.85,135.211Zm-.508-6.466c.026-1.182.046-4.415.849-4.417.627,0,.919.823,1.019,5.1.054,2.255-.165,2.332-.808,2.332C266.685,131.761,266.285,131.438,266.342,128.745Zm1.724,8.563a.383.383,0,0,1-.328-.464c.046-.2.093-.384.137-.562a.381.381,0,0,1-.113-.735c.018-.005.142-.054.33-.126.619-2.361.846-2.371,1.1-2.379.2-.008.395-.013,1.275,1.584a.383.383,0,0,1,.31.573c.2.387.439.844.707,1.383a.381.381,0,1,1-.681.341c-.232-.462-.485-.952-.728-1.406-.418.137-.931.323-1.339.477-.09.341-.175.691-.255,1.029A.377.377,0,0,1,268.066,137.308Zm4.234.119a.375.375,0,0,1-.421-.248,10.487,10.487,0,0,1-.049-1.659c-.008-1.682.026-1.8.3-1.909.3-.126.493.116.782.482.183.232.413.544.658.872.224.3.516.689.746.98.01-.632.1-2.518.121-2.7a.381.381,0,1,1,.756.093c-.015.132-.1,1.636-.114,2.278s-.01,1.195-.317,1.383a.489.489,0,0,1-.48.013c-.183-.093-.405-.359-1.324-1.595-.114-.152-.243-.325-.366-.488-.005.8.013,1.886.026,2.08A.375.375,0,0,1,272.3,137.427Zm6.693-.462c-.372.168-.746-.168-1.38-.774l-.057-.052c-.165-.16-.418-.428-.686-.712-.1-.1-.212-.224-.325-.343.023.49.064,1.133.111,1.731a.382.382,0,0,1-.351.41l-.031,0a.382.382,0,0,1-.379-.353s-.052-.655-.088-1.313c-.08-1.365-.1-1.61.253-1.716.286-.085.39.023,1.365,1.058.25.263.508.539.661.684l.057.054c.08.077.2.193.323.3-.062-.671-.173-1.739-.24-2.358a.382.382,0,0,1,.759-.083c.01.1.268,2.5.289,2.954A.489.489,0,0,1,278.992,136.965Zm3.976-.276a5.889,5.889,0,0,1-2.025.255,1,1,0,0,1-.818-.178,3.483,3.483,0,0,1-.268-1.187.411.411,0,0,1-.015-.1l0-.018c-.083-.691-.126-1.4-.126-1.409a.5.5,0,0,1,.147-.364c.188-.183.457-.188.919-.181s1.556-.057,1.7-.07a.381.381,0,0,1,.191.735,18.513,18.513,0,0,1-1.9.1c-.054,0-.17,0-.273,0,.015.2.023.284.057.6.622-.023,1.406-.08,1.755-.139a.358.358,0,0,1,.369.351.381.381,0,0,1-.32.372,11.627,11.627,0,0,1-1.716.155c.021.144.062.511.08.6a8.245,8.245,0,0,0,1.881-.219c.206-.039.382-.046.485.137A.438.438,0,0,1,282.968,136.689Zm1.133-3.45a.387.387,0,0,1,.385.377c0,.1.041,2.379.046,2.766l.041-.005a10.617,10.617,0,0,1,2.753-.137.381.381,0,1,1-.08.759,9.768,9.768,0,0,0-2.544.129c-.483.088-.934-.121-.934-.7,0-.142-.031-1.894-.046-2.8A.382.382,0,0,1,284.1,133.239Zm1.6-.947c-1.288.041-1.752-1.357-1.757-1.989a11.793,11.793,0,0,1,.521-1.868c.041-.16-.175-.364-.163-.5.057-.568.875-.63.944-.833a3.616,3.616,0,0,0,.217-.95c-.028-.157-1.182-.39-1.182-.973,0-.619,2.459-.609,4.353-.813,1.1-.124,2,.911,1.927,1.158a.736.736,0,0,1-.583.482c-.178.044-2.541.108-2.895.255-.178.075-.286.795-.2.937a8.777,8.777,0,0,0,1.894.168.6.6,0,0,1-.152,1.166c-.284.015-2-.01-2.276.077s-.55,1.36-.405,1.491a26.374,26.374,0,0,0,2.74-.359c.392,0,.947.436.906.813A5.766,5.766,0,0,1,285.7,132.292Zm6.817-.263c-.23.96-.885,3.207-1.3,4.438-.294.857-.343,2.118-.565,2.167-.583.126-1.558-.818-1.574-1.78-.034-1.863,1-4.933,1.427-6.314a3.651,3.651,0,0,1-.39-1.574c-.008-2.059,1.891-4.265,2.485-4.753.31-.25.586.441.341.968-.237.5-1.5,2.51-1.5,3.184a1.132,1.132,0,0,0,.126.462c1.244-1.587,3.377-3.937,4.482-4,.4-.023,1.661.49,1.669,2.619S295.093,132.21,292.518,132.029Z" transform="translate(-241.844 -114.881)" fill="#008ad8"/>
      <path id="Trazado_333" data-name="Trazado 333" d="M252.361,123.312c.243-.088.49-.175.725-.253-.16-.286-.307-.537-.426-.728C252.575,122.582,252.472,122.925,252.361,123.312Z" transform="translate(-225.227 -103.106)" fill="#008ad8"/>
      <path id="Trazado_334" data-name="Trazado 334" d="M264.61,119.322c-.5-.01-1.858,2.134-2.789,3.746,1.365.026,3.279-1.288,3.274-2.867C265.093,119.675,264.958,119.325,264.61,119.322Z" transform="translate(-210.278 -107.862)" fill="#008ad8"/>
    </g>
  </g>
</svg>
