<svg xmlns="http://www.w3.org/2000/svg" width="58" height="58" viewBox="0 0 58 58">
  <g id="Grupo_18588" data-name="Grupo 18588" transform="translate(-0.396)">
    <rect id="Rectángulo_18103" data-name="Rectángulo 18103" width="58" height="58" transform="translate(0.396)" fill="none"/>
    <g id="Grupo_18467" data-name="Grupo 18467" transform="translate(19.156 19.004)">
      <path id="Trazado_1299" data-name="Trazado 1299" d="M54.607,261.831q1.019-.959,1.65-1.667a9.505,9.505,0,0,0,.992-1.294,3.814,3.814,0,0,0,.481-1.113,5.364,5.364,0,0,0,.117-1.127,4.341,4.341,0,0,0-.3-1.623,4.15,4.15,0,0,0-.844-1.321,3.74,3.74,0,0,0-1.294-.885,4.178,4.178,0,0,0-1.652-.315,4.007,4.007,0,0,0-2.448.767,3.736,3.736,0,0,0-1.4,2.121,1.966,1.966,0,0,1-.315.646.688.688,0,0,1-.585.256.876.876,0,0,1-.9-.9,3.363,3.363,0,0,1,.4-1.473,5.164,5.164,0,0,1,1.158-1.5,6.466,6.466,0,0,1,1.817-1.158,5.958,5.958,0,0,1,2.419-.467,5.252,5.252,0,0,1,2.24.477,6.056,6.056,0,0,1,3.5,5.5,5.952,5.952,0,0,1-.7,2.825,10.028,10.028,0,0,1-2.236,2.738L50.4,268.178l8.295,0a.92.92,0,0,1,.663.267.909.909,0,0,1,.271.663.856.856,0,0,1-.271.646.917.917,0,0,1-.66.256l-10.13.008a2.343,2.343,0,0,1-.285-.029,1.1,1.1,0,0,1-.375-.135,1.232,1.232,0,0,1-.331-.3.8.8,0,0,1-.15-.5,1.5,1.5,0,0,1,.51-.871Z" transform="translate(-46.166 -249.511)" fill="#42a8e1"/>
      <path id="Trazado_1300" data-name="Trazado 1300" d="M49.224,271.931a3.192,3.192,0,0,1-.471-.044,2.319,2.319,0,0,1-.823-.292,2.421,2.421,0,0,1-.694-.619,2.051,2.051,0,0,1-.415-1.269,2.66,2.66,0,0,1,.879-1.763l6.7-6.374q.972-.916,1.577-1.592a8.36,8.36,0,0,0,.858-1.115,2.567,2.567,0,0,0,.323-.735,3.974,3.974,0,0,0,.085-.842,3.077,3.077,0,0,0-.21-1.156,2.91,2.91,0,0,0-.588-.921,2.51,2.51,0,0,0-.867-.59,2.946,2.946,0,0,0-1.154-.217h0a2.769,2.769,0,0,0-1.706.521,2.5,2.5,0,0,0-.927,1.433,3.335,3.335,0,0,1-.533,1.088,2.164,2.164,0,0,1-3.125.121,2.116,2.116,0,0,1-.623-1.533A4.631,4.631,0,0,1,48.039,254a6.451,6.451,0,0,1,1.436-1.873,7.763,7.763,0,0,1,2.165-1.386,7.231,7.231,0,0,1,2.923-.573h.01a6.512,6.512,0,0,1,2.757.6,7.269,7.269,0,0,1,2.2,1.561,7.385,7.385,0,0,1,1.492,2.3,7.326,7.326,0,0,1-.3,6.192,11.384,11.384,0,0,1-2.509,3.088l-3.946,3.667,5.088,0a2.184,2.184,0,0,1,2.194,2.192,2.092,2.092,0,0,1-.665,1.561,2.166,2.166,0,0,1-1.527.6Zm.025-16.018Z" transform="translate(-46.822 -250.168)" fill="#42a8e1"/>
      <text id="DOS" transform="translate(22.772 22.488) rotate(-90)" fill="#42a8e1" font-size="9" font-family="Helvetica" letter-spacing="0.04em"><tspan x="0" y="0">DOS</tspan></text>
    </g>
  </g>
</svg>
