<svg xmlns="http://www.w3.org/2000/svg" xmlns:xlink="http://www.w3.org/1999/xlink" width="85" height="85" viewBox="0 0 85 85">
  <defs>
    <filter id="Rect치ngulo_18090" x="0" y="0" width="85" height="85" filterUnits="userSpaceOnUse">
      <feOffset dy="3" input="SourceAlpha"/>
      <feGaussianBlur stdDeviation="3" result="blur"/>
      <feFlood flood-opacity="0.161"/>
      <feComposite operator="in" in2="blur"/>
      <feComposite in="SourceGraphic"/>
    </filter>
  </defs>
  <g id="dreamworks" transform="translate(-469 -13)">
    <g transform="matrix(1, 0, 0, 1, 469, 13)" filter="url(#Rect치ngulo_18090)">
      <rect id="Rect치ngulo_18090-2" data-name="Rect치ngulo 18090" width="67" height="67" rx="10" transform="translate(9 6)" fill="#fff"/>
    </g>
    <path id="Trazado_67204" data-name="Trazado 67204" d="M55.337,33.12l-.2-.057c-.581-.16-.921-.33-.921-.615s.322-.477.778-.477a1.261,1.261,0,0,1,1.216.762l.393-.04c-.1-.387-.161-.666-.2-.888-.117-.023-.259-.046-.465-.08a4.848,4.848,0,0,0-.822-.069c-1.4,0-2.136.524-2.136,1.168,0,.609.822.911,1.564,1.122l.134.04c.554.148.894.347.894.683,0,.37-.363.544-.827.544a1.858,1.858,0,0,1-1.586-.943l-.393.074c.08.284.164.526.232.739l.034.111c-.067-.013-.119-.026-.12-.026a1.862,1.862,0,0,1-.734-.443c-.555-.478-1.135-1.065-1.681-1.606.37-.279.81-.569,1.285-.866a2.143,2.143,0,0,1,1.232-.332V31.69H50.661v.192H51c.238.017.141.173.018.275-.511.433-1.048.854-1.69,1.321V32.59c0-.615.07-.674.651-.708V31.69H47.229v.192c.616.034.686.094.686.708v1.942a1.641,1.641,0,0,1-.048.493c-.057.148-.248.175-.386.154a.854.854,0,0,1-.458-.3c-.137-.145-.273-.29-.411-.433-.255-.264-.585-.7-.709-.856.656-.166,1.143-.462,1.143-.963a.875.875,0,0,0-.62-.755,4.061,4.061,0,0,0-1.5-.183H42.111l.057.192c.594.034.607.094.607.708v.81c-.03-1.107-1.415-1.854-3.051-1.854a3.268,3.268,0,0,0-2.533.895c.3-.584.5-.956.524-1,.421-.688.532-.68,1.225-.742v-.263H35.983V30.7l.47.031c.532.032.569.1.408.542-.173.461-.631,1.552-1.064,2.467l-.025-.042L33.892,30.43h-.866L31.405,33.7l-.025.042-1.176-2.6c-.149-.32-.111-.365.347-.4l.4-.031v-.263h-3.86V30.7c.569.047.792.047,1.126.7l.151.3H26.521l-1.379,2.285L23.565,31.69H21.446v.192c.712.04.784.137.721.864l-.1,1.166a6.614,6.614,0,0,1-.144,1.009c-.015.061-.025.135-.078.147s-.2-.207-.316-.419c-.329-.589-.7-1.269-1.074-1.956L19.866,31.6l-.6.081-1.733,2.983c-.02.034-.039.066-.058.1a1.029,1.029,0,0,1-.2.218,2.322,2.322,0,0,1-1.047.173,2.174,2.174,0,0,1-.616-.052c-.158-.052-.176-.209-.176-.509v-.929h.44c.757,0,.783.023.871.531h.387V32.833h-.387c-.088.439-.114.461-.871.461h-.44v-1.1c0-.2.018-.23.352-.23h.15a1.806,1.806,0,0,1,.9.133,1.01,1.01,0,0,1,.326.565l.387-.018c-.044-.433-.088-.854-.1-.952H13.282v.192c.59.034.66.108.66.732v1.9c0,.44-.036.589-.3.651a.566.566,0,0,1-.279,0,.621.621,0,0,1-.2-.116c-.139-.116-.331-.312-.627-.617-.252-.265-.574-.663-.7-.825.644-.167,1.123-.467,1.123-.975a.855.855,0,0,0-.609-.744,3.842,3.842,0,0,0-1.471-.2l-2.834,0a2.721,2.721,0,0,0-.666-.574,7.372,7.372,0,0,0-3.643-.687H.1v.3c.811.046.911.1.911.934v2.548c0,.834-.1.93-1.01.976v.249H3.219c2.882,0,5.24-.816,5.24-2.739a1.479,1.479,0,0,0-.235-.785H8.3a1.535,1.535,0,0,1,.237.015A.377.377,0,0,1,8.694,32c.109.1.13.277.13.611v1.9c0,.623-.07.687-.688.722v.2h2.751v-.2c-.6-.035-.67-.1-.67-.722v-.693h.113a.425.425,0,0,1,.366.208,3.315,3.315,0,0,0,1.149,1.233,2.441,2.441,0,0,0,1.1.175H18.7v-.2h-.251c-.4-.029-.407-.128-.286-.376l.26-.542H19.84l.312.577c.112.208.1.307-.225.336l-.26.005v.2h3.825v-.2c-.586-.029-.784-.105-.82-.319a4.109,4.109,0,0,1-.018-.952l.063-1.281h.018l1.688,2.752h.411l1.777-2.954h.036l.027,2.031c.009.641-.018.682-.694.722v.2H28.8v-.183c-.649-.041-.667-.1-.694-.74l-.09-1.933c-.023-.524,0-.643.451-.692L30.3,35.443h.953l1.658-3.12h.025l1.819,3.12h.952c.356-.775.707-1.452,1.014-2.072a1.35,1.35,0,0,0-.01.162c0,1.048,1.184,1.969,3.009,1.969,1.715,0,3.023-.828,3.053-2.024v1.054c0,.615-.071.674-.7.708v.2h2.852v-.2c-.611-.034-.682-.093-.682-.708v-.725h.115a.435.435,0,0,1,.372.205,5.563,5.563,0,0,0,.713.936,1.681,1.681,0,0,0,.977.472,4.888,4.888,0,0,0,.567.021h3.029v-.2c-.625-.034-.713-.093-.7-.708v-.911h.017c.643.621,1.559,1.455,1.894,1.819h2.2a6.344,6.344,0,0,0,.9.081h0c.086,0,.174.008.262.008,1.385,0,2.27-.513,2.27-1.213C56.866,33.65,56.16,33.354,55.337,33.12ZM4,35.083c-.6,0-.873-.173-.873-.86V31.258c0-.193.012-.371.075-.386a1.782,1.782,0,0,1,.537-.054,2.134,2.134,0,0,1,2.42,2.123A2.106,2.106,0,0,1,4,35.083Zm6.986-1.627a1.5,1.5,0,0,1-.653.1h-.122V32.227c0-.231.026-.29.392-.29a.83.83,0,0,1,.87.781A.8.8,0,0,1,10.991,33.456Zm7.576.5.537-1.09h.026l.546,1.09Zm21.162,1.212c-.886,0-1.334-.9-1.334-1.657a1.507,1.507,0,0,1,1.336-1.665c.777,0,1.365.548,1.365,1.693A1.56,1.56,0,0,1,39.729,35.164Zm5.305-1.721a1.57,1.57,0,0,1-.664.1h-.124V32.209c0-.228.026-.287.4-.287a.855.855,0,0,1,.886.792A.791.791,0,0,1,45.034,33.443ZM28.119,20.51a4.685,4.685,0,0,0,.227.471,11.253,11.253,0,0,0-1.531,1,1.589,1.589,0,0,1,.167-1.027c.023-.067.05-.132.079-.2h.01c.048-.005.154-.012.2-.022.1-.022.237-.034.254-.168a.5.5,0,0,0,0-.063c0-.167.12-.822.162-1.06.108.248.229.529.265.631h0C28.006,20.223,28.059,20.367,28.119,20.51Zm-2.3-2.6a2.458,2.458,0,0,1,.434.118c.122.04.246.077.37.113q-.043.156-.085.312a1.046,1.046,0,0,1-.753-.188.262.262,0,0,0-.289-.05.139.139,0,0,0-.058.082q-.073-.19-.152-.379l.143-.008A2.117,2.117,0,0,1,25.818,17.915ZM15.29,15.221q0-.071,0-.143a13.046,13.046,0,0,1,1.176-5.3A17.856,17.856,0,0,1,19.825,11.8a17.733,17.733,0,0,1,3.342,3.276,13.482,13.482,0,0,1,1.291,1.992.88.88,0,0,0-.116.047h0c-.06.03-.107.069-.111.113a.157.157,0,0,0,.118.168s.015.223.187.237c0,.006.037.163.17.161,0,0,.012.082.16.122q.119.275.225.554a.27.27,0,0,0-.054.013c-.115.043-.243.15-.186.293.021.054.055.107.108.116a.237.237,0,0,0,.151.246l0,0a.205.205,0,0,0,.222.163.3.3,0,0,0,.056.062c.044.151.086.3.124.455a.193.193,0,0,0,.179.144H25.7a.2.2,0,0,0,.045-.005.191.191,0,0,0,.12-.087.185.185,0,0,0,.022-.142c-.031-.123-.064-.246-.1-.368.14-.068.265-.157.409-.219a.6.6,0,0,1,.175-.044l-.125.49c-.036.14-.084.327-.114.41s-.049.1-.08.19c-.047.143.071.234.172.3l.017.009c-.015.082-.026.14-.03.159a5.167,5.167,0,0,1-.218.785c-.008.018-.017.039-.024.05a2.275,2.275,0,0,1-.426.485,1.757,1.757,0,0,1-.309.234.732.732,0,0,1-.136.071q-.073.025-.148.046c-.031.009-.061.017-.092.024a1.291,1.291,0,0,1-.18.028,1.218,1.218,0,0,1-.255-.011.112.112,0,0,0-.054,0,.072.072,0,0,0-.022.012.137.137,0,0,0-.045.1.225.225,0,0,0,.019.106.218.218,0,0,0,.047.065,10.44,10.44,0,0,1-2.724-.266,9.689,9.689,0,0,0,4.277,1.548c-.029.068-.062.135-.085.206-.036.113.071.177.15.237.021.016.043.029.064.044a3.36,3.36,0,0,1-.192.5,2.265,2.265,0,0,1-.437.558c-.053.05-.14.123-.232.2-.113.1-.24.2-.336.293a1.27,1.27,0,0,1-.355.248.549.549,0,0,1-.213.047.876.876,0,0,1-.121-.015c-.056-.008-.11-.007-.141.048a.193.193,0,0,0-.019.161.273.273,0,0,0,.235.15.328.328,0,0,1,.1.02c.034.017.063.044.1.063a.746.746,0,0,0,.619.009,5.872,5.872,0,0,0,.594-.281h0a1.248,1.248,0,0,1,.507-.089.372.372,0,0,0,.245-.054.322.322,0,0,0,.1-.224.53.53,0,0,0-.031-.254c-.091-.228-.015-.391.11-.662l.007-.016a2.163,2.163,0,0,1,.3-.449c.045.005.125.014.171.015.1,0,.223.018.265-.093.015-.04.019-.083.031-.125a4.163,4.163,0,0,1,.134-.438,11.422,11.422,0,0,0,4.8-1.093,11.615,11.615,0,0,0,3.83-2.9,10.438,10.438,0,0,0,2.2-4.11,10.8,10.8,0,0,0-1-7.775A10.693,10.693,0,0,0,31.964,3.47a11.374,11.374,0,0,0-2.373-.687,12.3,12.3,0,0,0-6.226.554q-.306.109-.607.234a12.327,12.327,0,0,0-1.933.974c-.06.036-.077.026-.083.019A13.143,13.143,0,1,1,15.29,15.221ZM29.885,18.29a1.7,1.7,0,0,1,.288.981,4.393,4.393,0,0,1-.044.492c-.1-.106-.172-.188-.178-.2h0c-.276-.348-.542-.7-.8-1.061a5.991,5.991,0,0,0,.73-.223Zm4.867-5.283a9.452,9.452,0,0,1-.955,4.125,8.535,8.535,0,0,1-1.3,1.906c0-.1,0-.192,0-.287,0-.213-.02-.426-.045-.636a4.938,4.938,0,0,0-.161-.815,3.263,3.263,0,0,0-.224-.571,2.191,2.191,0,0,0-.231-.364,1.577,1.577,0,0,0-.106-.121c-.062-.073-.125-.123-.145-.149a1.348,1.348,0,0,1-.071-.252c-.029-.118-.23-.069-.309-.048a.446.446,0,0,0-.1.039.1.1,0,0,1,0-.056.4.4,0,0,1,.185-.155,1.29,1.29,0,0,0,.625-.8,1.538,1.538,0,0,0-.282-1.239.957.957,0,0,0-.132-.12,3.377,3.377,0,0,1-.362-.264c-.058-.064-.109-.093-.135-.162a.251.251,0,0,0,.048.211,1.084,1.084,0,0,0-.994-.138c-.113.023-.227.048-.341.069a1.069,1.069,0,0,1-.255.027.981.981,0,0,1-.251-.051.4.4,0,0,1-.178-.133.409.409,0,0,0,.192.33.391.391,0,0,0-.445.381c.006,0,.086-.157.228-.084a.453.453,0,0,0-.156.335.468.468,0,0,1-.106.379.275.275,0,0,0,.206-.119c0,.044,0,.088,0,.131a2.469,2.469,0,0,0,.034.253.207.207,0,0,1-.074.178c-.084.08-.241.184-.239.275a.246.246,0,0,0,.109.141.287.287,0,0,1,.05.052c.036.055-.036.072-.047.116s.028.081.065.11l.013.01s-.035.036-.037.039a.092.092,0,0,0,0,.093c.021.031.085.048.094.088s0,.09,0,.135a.257.257,0,0,0,.152.183.7.7,0,0,0,.277.057c.111,0,.2-.006.31-.006l.2.267c-.09.079-.165.158-.22.214a2.606,2.606,0,0,1-1.337.781.875.875,0,0,0-.633-.31.843.843,0,0,0-.793.447,1.989,1.989,0,0,1-.989-.24.964.964,0,0,1-.172-.126,1.729,1.729,0,0,1-.116-.146.535.535,0,0,0-.266-.154l-.156-.046c-.058-.017-.133-.036-.19-.057a.3.3,0,0,1-.135-.124c-.03-.04-.051-.085-.077-.128a.079.079,0,0,0-.086-.045.12.12,0,0,0-.078.1s0,.009,0,.013a13.971,13.971,0,0,0-1.135-1.7,17.24,17.24,0,0,0-3.446-3.3,21.11,21.11,0,0,0-3.435-2.034,13.139,13.139,0,0,1,1.025-1.76A9.056,9.056,0,0,1,20.5,5.129,10.545,10.545,0,0,1,23.94,3.841C30.6,2.663,34.793,7.544,34.752,13.007Z" transform="translate(483 33.922)" fill="#00245b"/>
  </g>
</svg>
