<svg xmlns="http://www.w3.org/2000/svg" xmlns:xlink="http://www.w3.org/1999/xlink" width="84" height="85" viewBox="0 0 84 85">
  <defs>
    <filter id="Rect치ngulo_18129" x="0" y="0" width="84" height="85" filterUnits="userSpaceOnUse">
      <feOffset dy="3" input="SourceAlpha"/>
      <feGaussianBlur stdDeviation="3" result="blur"/>
      <feFlood flood-opacity="0.161"/>
      <feComposite operator="in" in2="blur"/>
      <feComposite in="SourceGraphic"/>
    </filter>
  </defs>
  <g id="Grupo_18853" data-name="Grupo 18853" transform="translate(-700 -1662)">
    <g transform="matrix(1, 0, 0, 1, 700, 1662)" filter="url(#Rect치ngulo_18129)">
      <rect id="Rect치ngulo_18129-2" data-name="Rect치ngulo 18129" width="66" height="67" rx="10" transform="translate(9 6)" fill="#fff"/>
    </g>
    <g id="europe_europe" data-name="europe europe" transform="translate(726 1680)">
      <g id="Grupo_18287" data-name="Grupo 18287" transform="translate(0 0)">
        <g id="Grupo_18285" data-name="Grupo 18285">
          <path id="Trazado_40361" data-name="Trazado 40361" d="M0,0V31.978H31.978V0Z" fill="#303185"/>
          <g id="Grupo_18284" data-name="Grupo 18284" transform="translate(4.398 7.398)">
            <path id="Trazado_40362" data-name="Trazado 40362" d="M36.991,54.091a3.292,3.292,0,0,0-3.12-1.672,3.637,3.637,0,0,0-3.314,1.923,7.507,7.507,0,0,0-.875,2.585h8.033a7.938,7.938,0,0,0-.723-2.836" transform="translate(-29.606 -51.917)" fill="#fff"/>
            <path id="Trazado_40363" data-name="Trazado 40363" d="M37.971,49.086a7.329,7.329,0,0,1,1.3.962A6.819,6.819,0,0,1,41.3,55.335H29.18q.188,4.436,2,6.456a5.565,5.565,0,0,0,4.286,2.026,5.37,5.37,0,0,0,3.37-1.052,10.516,10.516,0,0,0,2.535-2.977l.669.228a10.878,10.878,0,0,1-2.934,4.5,7.19,7.19,0,0,1-2.63,1.638H52.54V62.174H43.887V59.493h7.043V55.511H43.887V53.068h8.322V49.086Z" transform="translate(-29.18 -49.086)" fill="#fff"/>
          </g>
        </g>
        <g id="Grupo_18286" data-name="Grupo 18286" transform="translate(0.012 36.642)">
          <path id="Trazado_40364" data-name="Trazado 40364" d="M.079,243.728H3.227v.588H1.991v3.3H1.31v-3.3H.079Z" transform="translate(-0.079 -243.635)" fill="#eaeaea"/>
          <path id="Trazado_40365" data-name="Trazado 40365" d="M24.685,243.728h2.8v.588H25.366v1.018h1.961v.555H25.366v1.138h2.157v.588H24.685Z" transform="translate(-20.976 -243.635)" fill="#eaeaea"/>
          <path id="Trazado_40366" data-name="Trazado 40366" d="M60.4,244.443a1.388,1.388,0,0,0-.12-.31.863.863,0,0,0-.2-.245.873.873,0,0,0-.28-.161,1.115,1.115,0,0,0-.373-.057,1.09,1.09,0,0,0-.537.125,1.056,1.056,0,0,0-.368.335,1.514,1.514,0,0,0-.21.477,2.216,2.216,0,0,0,0,1.089,1.513,1.513,0,0,0,.21.477,1.052,1.052,0,0,0,.368.335,1.089,1.089,0,0,0,.537.125.968.968,0,0,0,.4-.079.9.9,0,0,0,.3-.218,1.026,1.026,0,0,0,.2-.324,1.554,1.554,0,0,0,.093-.4h.664a1.842,1.842,0,0,1-.15.637,1.562,1.562,0,0,1-.346.5,1.526,1.526,0,0,1-.512.324,1.775,1.775,0,0,1-.648.114,1.835,1.835,0,0,1-.782-.161,1.717,1.717,0,0,1-.585-.438,1.961,1.961,0,0,1-.368-.648,2.484,2.484,0,0,1,0-1.574,1.962,1.962,0,0,1,.368-.648,1.751,1.751,0,0,1,.585-.441,1.81,1.81,0,0,1,.782-.163,2.061,2.061,0,0,1,.615.09,1.592,1.592,0,0,1,.509.261,1.357,1.357,0,0,1,.357.417,1.451,1.451,0,0,1,.169.561Z" transform="translate(-48.903 -243.114)" fill="#eaeaea"/>
          <path id="Trazado_40367" data-name="Trazado 40367" d="M84.243,243.728h.724l1.5,3.889h-.73l-.365-1.029H83.819l-.365,1.029h-.7ZM84,246.07h1.187l-.583-1.672h-.016Z" transform="translate(-70.291 -243.635)" fill="#eaeaea"/>
          <path id="Trazado_40368" data-name="Trazado 40368" d="M110.5,243.728h.958l1.073,3.044h.011l1.046-3.044h.948v3.889h-.648v-3h-.011l-1.078,3h-.561l-1.078-3h-.011v3H110.5Z" transform="translate(-93.859 -243.635)" fill="#eaeaea"/>
          <path id="Trazado_40369" data-name="Trazado 40369" d="M143.42,243.728h3.419a1.354,1.354,0,0,1,.839.24.852.852,0,0,1,.316.724.867.867,0,0,1-.144.5.927.927,0,0,1-.411.324v.011a.85.85,0,0,1,.545.34,1.126,1.126,0,0,1,.185.662,1.112,1.112,0,0,1-.082.428.869.869,0,0,1-.256.343,1.29,1.29,0,0,1-.447.229,2.2,2.2,0,0,1-.648.084H143.42Zm.681,1.629h2.64a.609.609,0,0,0,.408-.139.5.5,0,0,0,.163-.4.507.507,0,0,0-.147-.414.658.658,0,0,0-.425-.12H144.1Zm0,1.7h2.733a.677.677,0,0,0,.482-.161.592.592,0,0,0,.172-.455.568.568,0,0,0-.172-.444.693.693,0,0,0-.482-.155H144.1Z" transform="translate(-121.816 -243.635)" fill="#eaeaea"/>
          <path id="Trazado_40370" data-name="Trazado 40370" d="M179.728,243.728h.681v3.889h-.681Z" transform="translate(-152.652 -243.635)" fill="#eaeaea"/>
          <path id="Trazado_40371" data-name="Trazado 40371" d="M188.988,243.728h.724l1.5,3.889h-.73l-.365-1.029h-1.552l-.365,1.029h-.7Zm-.24,2.342h1.187l-.583-1.672h-.016Z" transform="translate(-159.249 -243.635)" fill="#eaeaea"/>
          <path id="Trazado_40372" data-name="Trazado 40372" d="M27.522,277.287v.248H24.685v-.248Z" transform="translate(-20.976 -272.137)" fill="#eaeaea"/>
        </g>
      </g>
    </g>
  </g>
</svg>
