<svg xmlns="http://www.w3.org/2000/svg" xmlns:xlink="http://www.w3.org/1999/xlink" width="85" height="85" viewBox="0 0 85 85">
  <defs>
    <filter id="Rectángulo_18090" x="0" y="0" width="85" height="85" filterUnits="userSpaceOnUse">
      <feOffset dy="3" input="SourceAlpha"/>
      <feGaussianBlur stdDeviation="3" result="blur"/>
      <feFlood flood-opacity="0.161"/>
      <feComposite operator="in" in2="blur"/>
      <feComposite in="SourceGraphic"/>
    </filter>
    <clipPath id="clip-path">
      <rect id="Rectángulo_26483" data-name="Rectángulo 26483" width="50.628" height="40.444" fill="none"/>
    </clipPath>
  </defs>
  <g id="Grupo_40754" data-name="Grupo 40754" transform="translate(8971 -2609)">
    <g transform="matrix(1, 0, 0, 1, -8971, 2609)" filter="url(#Rectángulo_18090)">
      <rect id="Rectángulo_18090-2" data-name="Rectángulo 18090" width="67" height="67" rx="10" transform="translate(9 6)" fill="#fff"/>
    </g>
    <g id="Grupo_40753" data-name="Grupo 40753" transform="translate(-8954 2628)">
      <g id="Grupo_38989" data-name="Grupo 38989" transform="translate(0 0)" clip-path="url(#clip-path)">
        <path id="Trazado_79278" data-name="Trazado 79278" d="M2.133,11.105C.709,11.105,0,12.186,0,13.552,0,15,.756,16.076,2.171,16.076a2.422,2.422,0,0,0,1.592-.556l-.343-.477a1.984,1.984,0,0,1-1.249.467c-.782,0-1.341-.521-1.424-1.63H4.052c.019-.2.038-.41.038-.617a1.9,1.9,0,0,0-1.958-2.158M3.391,13.33H.747c.064-1.052.54-1.659,1.37-1.659A1.267,1.267,0,0,1,3.4,13.107a1.891,1.891,0,0,1-.01.222" transform="translate(0 24.19)" fill="#0b2e21"/>
        <path id="Trazado_79279" data-name="Trazado 79279" d="M2.3,15.274V10.421H1.556v4.853c0,1.491.277,2.292,1.611,2.292a2.411,2.411,0,0,0,.261-.01v-.6a1.431,1.431,0,0,1-.2.01c-.671,0-.931-.445-.931-1.694" transform="translate(3.389 22.7)" fill="#0b2e21"/>
        <path id="Trazado_79280" data-name="Trazado 79280" d="M5.939,15H7.207v.954a1.416,1.416,0,0,1-.267.1,2.635,2.635,0,0,1-.6.07,2.092,2.092,0,0,1-1.068-.257,1.636,1.636,0,0,1-.661-.709,2.355,2.355,0,0,1-.216-1.046A2.059,2.059,0,0,1,4.639,13.1a1.839,1.839,0,0,1,.677-.709,1.781,1.781,0,0,1,.941-.257,2.032,2.032,0,0,1,.836.165,1.763,1.763,0,0,1,.626.461l1.192-1.408a3.217,3.217,0,0,0-1.2-.721,4.56,4.56,0,0,0-1.561-.264,4.038,4.038,0,0,0-1.945.47,3.539,3.539,0,0,0-1.389,1.322,3.725,3.725,0,0,0-.512,1.951,3.737,3.737,0,0,0,.509,1.964,3.45,3.45,0,0,0,1.4,1.313,4.255,4.255,0,0,0,2.009.467,6.429,6.429,0,0,0,1.519-.181,5.128,5.128,0,0,0,1.284-.489V13.42H5.939Z" transform="translate(5.023 22.58)" fill="#0b2e21"/>
        <path id="Trazado_79281" data-name="Trazado 79281" d="M8.977,11.322a3.214,3.214,0,0,0-1.459-.331,3.134,3.134,0,0,0-1.44.331,2.6,2.6,0,0,0-1.046.95,2.666,2.666,0,0,0-.391,1.456A2.725,2.725,0,0,0,5.033,15.2a2.668,2.668,0,0,0,1.046.969,3.1,3.1,0,0,0,1.44.34,3.173,3.173,0,0,0,1.453-.34,2.665,2.665,0,0,0,1.068-.969,2.7,2.7,0,0,0,.394-1.468,2.581,2.581,0,0,0-1.456-2.406M8.459,14.3a1.016,1.016,0,0,1-.922.569,1.011,1.011,0,0,1-.563-.156A.989.989,0,0,1,6.6,14.3a1.268,1.268,0,0,1-.13-.569,1.2,1.2,0,0,1,.13-.543,1.011,1.011,0,0,1,.922-.563,1.033,1.033,0,0,1,.559.153,1.068,1.068,0,0,1,.378.41,1.165,1.165,0,0,1,.133.543,1.268,1.268,0,0,1-.13.569" transform="translate(10.112 23.942)" fill="#0b2e21"/>
        <path id="Trazado_79282" data-name="Trazado 79282" d="M11.948,15.174V11.049H10V13.77a1.377,1.377,0,0,1-.089.512.746.746,0,0,1-.261.334.637.637,0,0,1-.378.121.611.611,0,0,1-.388-.111.663.663,0,0,1-.213-.318A1.553,1.553,0,0,1,8.6,13.8V11.049H6.666V14.2a3.027,3.027,0,0,0,.178,1.049,1.635,1.635,0,0,0,.6.782,1.789,1.789,0,0,0,1.081.3,1.912,1.912,0,0,0,1.166-.391,1.426,1.426,0,0,0,.359-.391h.019v.318q0,.129.01.324h1.882c-.006-.2-.01-.372-.01-.5Z" transform="translate(14.521 24.068)" fill="#0b2e21"/>
        <path id="Trazado_79283" data-name="Trazado 79283" d="M11.106,11.224a1.48,1.48,0,0,0-.54.572h-.029c0-.124,0-.232,0-.321s-.006-.2-.006-.331H8.665c.006.194.013.35.016.477s0,.277,0,.464v4.2h1.939V13.745a1.132,1.132,0,0,1,.133-.547,1.024,1.024,0,0,1,.378-.394,1.056,1.056,0,0,1,.575-.149,2.261,2.261,0,0,1,.477.054l.14-1.656A1.536,1.536,0,0,0,11.9,11a1.468,1.468,0,0,0-.791.219" transform="translate(18.875 23.972)" fill="#0b2e21"/>
        <path id="Trazado_79284" data-name="Trazado 79284" d="M17.623,11.326A1.749,1.749,0,0,0,16.533,11a2.137,2.137,0,0,0-.7.108,1.587,1.587,0,0,0-.55.311,1.993,1.993,0,0,0-.359.423,1.4,1.4,0,0,0-.566-.62A1.889,1.889,0,0,0,13.412,11a1.765,1.765,0,0,0-.626.111,2.071,2.071,0,0,0-.518.283,1.439,1.439,0,0,0-.353.388h-.029v-.318q0-.129-.01-.324H9.995c.006.222.01.4.013.543s.006.324.006.556v4.04H11.95V13.557a1.343,1.343,0,0,1,.1-.537A.7.7,0,0,1,12.3,12.7a.586.586,0,0,1,.343-.108.561.561,0,0,1,.346.1.567.567,0,0,1,.184.305,1.833,1.833,0,0,1,.057.5v2.794h1.936V13.548a1.508,1.508,0,0,1,.079-.5.749.749,0,0,1,.238-.34.6.6,0,0,1,.372-.121.577.577,0,0,1,.356.1.615.615,0,0,1,.191.305,1.947,1.947,0,0,1,.06.524v2.765H18.4V13.138a2.914,2.914,0,0,0-.175-1.011,1.77,1.77,0,0,0-.6-.8" transform="translate(21.772 23.972)" fill="#0b2e21"/>
        <path id="Trazado_79285" data-name="Trazado 79285" d="M17.072,11.34a2.668,2.668,0,0,0-1.389-.35,3.019,3.019,0,0,0-1.424.34,2.527,2.527,0,0,0-1.014.963,2.782,2.782,0,0,0-.372,1.453,2.717,2.717,0,0,0,.394,1.478,2.513,2.513,0,0,0,1.042.954,3.147,3.147,0,0,0,1.424.327,3.261,3.261,0,0,0,1.44-.308,2.389,2.389,0,0,0,.988-.868l-1.379-.744a.92.92,0,0,1-.394.334,1.337,1.337,0,0,1-.61.133,1.305,1.305,0,0,1-.509-.108,1.048,1.048,0,0,1-.4-.3.72.72,0,0,1-.168-.429h3.614a3.23,3.23,0,0,0,.032-.448A3.051,3.051,0,0,0,18,12.322a2.414,2.414,0,0,0-.931-.982m-2.393,1.774a.911.911,0,0,1,.149-.4.952.952,0,0,1,.359-.311,1.1,1.1,0,0,1,.515-.118,1.022,1.022,0,0,1,.5.108.749.749,0,0,1,.311.292.86.86,0,0,1,.108.429Z" transform="translate(28.042 23.94)" fill="#0b2e21"/>
        <path id="Trazado_79286" data-name="Trazado 79286" d="M18.565,13.3V11.9H17.392v-1.24H15.5V11.9h-.782v1.4h.791V15.4a1.719,1.719,0,0,0,.474,1.329,2.055,2.055,0,0,0,1.427.432,4.177,4.177,0,0,0,.6-.041,1.831,1.831,0,0,0,.48-.127l-.01-1.357a1.2,1.2,0,0,1-.21.06,1.355,1.355,0,0,1-.248.022.647.647,0,0,1-.48-.159.785.785,0,0,1-.153-.55V13.3Z" transform="translate(32.063 23.219)" fill="#0b2e21"/>
        <path id="Trazado_79287" data-name="Trazado 79287" d="M32.753,14.706A14.708,14.708,0,1,1,18.046,0,14.706,14.706,0,0,1,32.753,14.706" transform="translate(7.269 0)" fill="#0b2e21"/>
        <path id="Trazado_79288" data-name="Trazado 79288" d="M13.766,9.019v3.124h3.08v2.787a3.889,3.889,0,0,1-.833.3,6.409,6.409,0,0,1-1.656.2,5.118,5.118,0,0,1-2.648-.652,4.221,4.221,0,0,1-1.678-1.805,5.823,5.823,0,0,1-.572-2.628A5.33,5.33,0,0,1,10.083,7.8a4.6,4.6,0,0,1,4.148-2.47,5.151,5.151,0,0,1,2.037.391,4.3,4.3,0,0,1,1.551,1.106L20.2,4.061a7.3,7.3,0,0,0-2.657-1.605,10.186,10.186,0,0,0-3.506-.591A9.179,9.179,0,0,0,9.631,2.93a7.916,7.916,0,0,0-3.124,3,8.537,8.537,0,0,0-1.141,4.421A8.585,8.585,0,0,0,6.5,14.769a7.757,7.757,0,0,0,3.134,3,9.447,9.447,0,0,0,4.516,1.065,14.287,14.287,0,0,0,3.407-.4,11.461,11.461,0,0,0,2.88-1.1V9.019Z" transform="translate(11.689 4.062)" fill="#fff"/>
      </g>
    </g>
  </g>
</svg>
