<svg xmlns="http://www.w3.org/2000/svg" xmlns:xlink="http://www.w3.org/1999/xlink" width="85" height="85" viewBox="0 0 85 85">
  <defs>
    <filter id="Rect치ngulo_17998" x="0" y="0" width="85" height="85" filterUnits="userSpaceOnUse">
      <feOffset dy="3" input="SourceAlpha"/>
      <feGaussianBlur stdDeviation="3" result="blur"/>
      <feFlood flood-opacity="0.161"/>
      <feComposite operator="in" in2="blur"/>
      <feComposite in="SourceGraphic"/>
    </filter>
  </defs>
  <g id="espn3" transform="translate(-607 -1195)">
    <g transform="matrix(1, 0, 0, 1, 607, 1195)" filter="url(#Rect치ngulo_17998)">
      <rect id="Rect치ngulo_17998-2" data-name="Rect치ngulo 17998" width="67" height="67" rx="10" transform="translate(9 6)" fill="#f7fcfe"/>
    </g>
    <g id="_344_ESPN_3_Color" data-name="344 ESPN 3 Color" transform="translate(623 1229)">
      <g id="Grupo_18141" data-name="Grupo 18141" transform="translate(0 0)">
        <path id="Trazado_39899" data-name="Trazado 39899" d="M1.247.007h9.191l-.367,3H.882Z" transform="translate(0.054 0)" fill="#e82726"/>
        <path id="Trazado_39900" data-name="Trazado 39900" d="M41.176,3.01H30.805l.37-3s5.884-.006,7.786,0a2.062,2.062,0,0,1,2.274,2.535Z" transform="translate(1.882 0)" fill="#e82726"/>
        <path id="Trazado_39901" data-name="Trazado 39901" d="M30.716,3.934h3.525l-.792,6.514H29.927Z" transform="translate(1.828 0.24)" fill="#e82726"/>
        <path id="Trazado_39902" data-name="Trazado 39902" d="M37.17,3.934H40.7L39.9,10.448H36.381Z" transform="translate(2.223 0.24)" fill="#e82726"/>
        <path id="Trazado_39903" data-name="Trazado 39903" d="M.792,3.934H9.983l-.3,2.44H4.018L3.857,7.621H9.532l-.344,2.827H0Z" transform="translate(0 0.24)" fill="#e82726"/>
        <path id="Trazado_39904" data-name="Trazado 39904" d="M20.661,3.934l-.8,6.514h3.524l.5-4.074h4.1A2.5,2.5,0,0,0,30.58,3.934Z" transform="translate(1.213 0.24)" fill="#e82726"/>
        <path id="Trazado_39905" data-name="Trazado 39905" d="M29.237,0H13.062A2.831,2.831,0,0,0,10.33,2.438l-.071.585H31.3l.072-.585A2.114,2.114,0,0,0,29.237,0Z" transform="translate(0.627)" fill="#e82726"/>
        <path id="Trazado_39906" data-name="Trazado 39906" d="M17.219,10.448c-.2.007-7.836,0-7.836,0l.343-2.827h6.908l.149-1.246H12.274a.949.949,0,0,1-.128-.006,2.1,2.1,0,0,1-1.993-2.044,3.482,3.482,0,0,1,.013-.392s7.845,0,7.891,0a2.016,2.016,0,0,1,2.193,2.35L20.028,8.07A2.629,2.629,0,0,1,17.219,10.448Z" transform="translate(0.573 0.24)" fill="#e82726"/>
        <g id="Grupo_18140" data-name="Grupo 18140" transform="translate(43.938 0.006)">
          <path id="Trazado_39907" data-name="Trazado 39907" d="M48.708.007c-1.44,0-5.055,0-6,0l-.291,2.385h5.165a.352.352,0,0,1,.374.4s0,.188-.024.439a2.777,2.777,0,0,1-.079.395c-.063.2-.207.351-.6.381-1.5,0-2.842,0-2.842,0l-.3,2.41h2.941c.246,0,.407.209.4.494a2.939,2.939,0,0,1-.005.389,3.123,3.123,0,0,1-.082.48.506.506,0,0,1-.488.446H41.707l-.3,2.461c.864,0,4.3.005,5.961,0a2.708,2.708,0,0,0,2.8-2.033h0a9.927,9.927,0,0,0,.261-1.667c.008-.081.019-.259.019-.259h0a1.546,1.546,0,0,0-.788-1.548,2.126,2.126,0,0,0,1.2-1.629A7.562,7.562,0,0,0,51,2.392h0A2.022,2.022,0,0,0,48.708.007Z" transform="translate(-41.408 -0.006)" fill="#e82726"/>
        </g>
      </g>
    </g>
  </g>
</svg>
