<svg xmlns="http://www.w3.org/2000/svg" xmlns:xlink="http://www.w3.org/1999/xlink" width="86" height="84" viewBox="0 0 86 84">
  <defs>
    <filter id="Rect치ngulo_18263" x="0" y="0" width="86" height="84" filterUnits="userSpaceOnUse">
      <feOffset dy="3" input="SourceAlpha"/>
      <feGaussianBlur stdDeviation="3" result="blur"/>
      <feFlood flood-opacity="0.161"/>
      <feComposite operator="in" in2="blur"/>
      <feComposite in="SourceGraphic"/>
    </filter>
  </defs>
  <g id="FASTbox" transform="translate(-695 -1112)">
    <g transform="matrix(1, 0, 0, 1, 695, 1112)" filter="url(#Rect치ngulo_18263)">
      <rect id="Rect치ngulo_18263-2" data-name="Rect치ngulo 18263" width="68" height="66" rx="10" transform="translate(9 6)" fill="#f7fcfe"/>
    </g>
    <g id="Grupo_19230" data-name="Grupo 19230" transform="translate(714 1139)">
      <path id="Trazado_38557" data-name="Trazado 38557" d="M173.014,889.906l24.242,2.764-2.689-24.317H173.014Z" transform="translate(-149.628 -868.353)" fill="#f3801f"/>
      <path id="Trazado_38558" data-name="Trazado 38558" d="M195.485,882.8l-1.407,2.487h-1.55l2.264-3.568-2.2-3.466h1.55l1.346,2.446,1.366-2.446h1.55l-2.181,3.466,2.243,3.568h-1.55Z" transform="translate(-154.892 -871.023)" fill="#fff" fill-rule="evenodd"/>
      <path id="Trazado_38559" data-name="Trazado 38559" d="M177.538,882.143H177.5v-1.12h.041a.885.885,0,0,0,.857-.815.837.837,0,0,0-.857-.8H177.5v-1.244h.041a2.046,2.046,0,0,1,2.181,2.019,1.537,1.537,0,0,1-.734,1.3,1.647,1.647,0,0,1,1.122,1.651,2.305,2.305,0,0,1-2.549,2.121H177.5v-1.244h.041a1.013,1.013,0,0,0,1.122-.917.993.993,0,0,0-1.122-.959m-.041,0h-1.162v1.877H177.5v1.244h-2.467v-3.12h-.962l0-1.12h.959v-2.855H177.5v1.244h-1.162v1.612H177.5Z" transform="translate(-149.912 -871.001)" fill="#fff" fill-rule="evenodd"/>
      <path id="Trazado_38560" data-name="Trazado 38560" d="M186.719,883.87h0v1.387a3.67,3.67,0,0,0,0-7.34V879.3a2.283,2.283,0,1,1,0,4.566m0,0a2.283,2.283,0,1,1,0-4.566v-1.387h-.041a3.67,3.67,0,0,0,0,7.34h.041Z" transform="translate(-152.324 -870.933)" fill="#fff" fill-rule="evenodd"/>
      <path id="Trazado_38561" data-name="Trazado 38561" d="M142.124,879.314v2.077h2.916v1.024h-2.916v3h-1.136V878.25h4.819v1.064Z" transform="translate(-140.989 -871.023)" fill="#000101"/>
      <path id="Trazado_38562" data-name="Trazado 38562" d="M151.723,883.785h-3.345l-.665,1.627h-1.218l3.029-7.162h1.054l3.029,7.162h-1.218Zm-.409-.992-.921-2.241c-.153-.388-.327-.931-.337-.931h-.01c-.011,0-.185.543-.338.931l-.921,2.241Z" transform="translate(-142.474 -871.023)" fill="#000101"/>
      <path id="Trazado_38563" data-name="Trazado 38563" d="M160.505,880.284a1.566,1.566,0,0,0-1.607-1.248c-.8,0-1.34.389-1.34.962,0,.686.9.911,1.821,1.2,1.023.327,2.3.829,2.3,2.17,0,1.238-1.074,2.138-2.671,2.138a2.742,2.742,0,0,1-2.834-2.128l1.084-.3a1.722,1.722,0,0,0,1.791,1.412c.911,0,1.443-.471,1.443-1.084,0-.89-1.1-1.075-2.118-1.412-.839-.286-1.975-.686-1.975-1.934,0-1.116,1.074-2.006,2.548-2.006a2.586,2.586,0,0,1,2.64,1.934Z" transform="translate(-145.086 -870.97)" fill="#000101"/>
      <path id="Trazado_38564" data-name="Trazado 38564" d="M169.686,878.25v1.064h-2.323v6.1h-1.125v-6.1h-2.313V878.25Z" transform="translate(-147.176 -871.023)" fill="#000101"/>
      <path id="Trazado_38565" data-name="Trazado 38565" d="M147.5,894.24l-.41.41-.732-.725a1.993,1.993,0,0,1-1.593.832,1.658,1.658,0,0,1-1.154-.425,1.429,1.429,0,0,1-.486-1.108,1.9,1.9,0,0,1,.949-1.533,1.782,1.782,0,0,1-.613-1.076,1.06,1.06,0,0,1,.354-.825,1.232,1.232,0,0,1,.86-.311,1.264,1.264,0,0,1,.868.308,1.05,1.05,0,0,1,.368.828q0,.6-.892,1.2l1.26,1.25a2.868,2.868,0,0,0,.219-1.247h.542a3.337,3.337,0,0,1-.357,1.611Zm-1.561-.708-1.451-1.441a1.369,1.369,0,0,0-.754,1.115.913.913,0,0,0,.326.732,1.17,1.17,0,0,0,.779.262,1.349,1.349,0,0,0,1.1-.669m-.64-2.917a.549.549,0,0,0-.179-.434.667.667,0,0,0-.459-.158.523.523,0,0,0-.591.592.744.744,0,0,0,.188.46,3.606,3.606,0,0,0,.361.365,2.384,2.384,0,0,0,.464-.337.682.682,0,0,0,.216-.489" transform="translate(-141.565 -874.052)" fill="#000101"/>
      <path id="Trazado_38566" data-name="Trazado 38566" d="M151,890.41v1.471h2.066v.725H151v2.124h-.8v-5.075h3.415v.754Z" transform="translate(-143.473 -874.1)" fill="#000101"/>
      <path id="Trazado_38567" data-name="Trazado 38567" d="M159.948,889.655v2.922a2.138,2.138,0,1,1-4.27,0v-2.922h.8v2.914c0,1.023.45,1.515,1.327,1.515s1.341-.492,1.341-1.515v-2.914Z" transform="translate(-144.951 -874.1)" fill="#000101"/>
      <path id="Trazado_38568" data-name="Trazado 38568" d="M167.02,889.655v5.074h-.754l-1.849-2.494c-.45-.616-.884-1.246-.892-1.246h-.007c-.007,0,.015.681.015,1.588v2.153h-.8v-5.074h.754l1.864,2.5c.362.493.87,1.2.877,1.2h.007c.007,0-.015-.748-.015-1.545v-2.16Z" transform="translate(-146.853 -874.1)" fill="#000101"/>
      <path id="Trazado_38569" data-name="Trazado 38569" d="M195.648,895.175h-1.16v-1.358H193.5v1.358h-1.159v-3.816H193.5v1.353h.988v-1.353h1.16Z" transform="translate(-154.841 -874.559)" fill="#fff"/>
      <path id="Trazado_38570" data-name="Trazado 38570" d="M199.183,895.176H197.5V891.36h1.688a1.9,1.9,0,0,1,1.968,1.923,1.868,1.868,0,0,1-1.968,1.893m-.529-1.1h.529a.748.748,0,0,0,.774-.789.771.771,0,0,0-.774-.819h-.529Z" transform="translate(-156.232 -874.559)" fill="#fff"/>
    </g>
  </g>
</svg>
