<svg xmlns="http://www.w3.org/2000/svg" xmlns:xlink="http://www.w3.org/1999/xlink" width="86" height="84" viewBox="0 0 86 84">
  <defs>
    <filter id="Rect치ngulo_18263" x="0" y="0" width="86" height="84" filterUnits="userSpaceOnUse">
      <feOffset dy="3" input="SourceAlpha"/>
      <feGaussianBlur stdDeviation="3" result="blur"/>
      <feFlood flood-opacity="0.161"/>
      <feComposite operator="in" in2="blur"/>
      <feComposite in="SourceGraphic"/>
    </filter>
  </defs>
  <g id="FIRTSbOX" transform="translate(-606 -1112)">
    <g transform="matrix(1, 0, 0, 1, 606, 1112)" filter="url(#Rect치ngulo_18263)">
      <rect id="Rect치ngulo_18263-2" data-name="Rect치ngulo 18263" width="68" height="66" rx="10" transform="translate(9 6)" fill="#f7fcfe"/>
    </g>
    <g id="Grupo_19228" data-name="Grupo 19228" transform="translate(623 1142.271)">
      <path id="Trazado_38506" data-name="Trazado 38506" d="M61.812,893.072l23.352,2.662-2.59-23.424H61.812Z" transform="translate(-30.901 -872.31)" fill="#07509e"/>
      <path id="Trazado_38507" data-name="Trazado 38507" d="M85.3,886.877l-1.381,2.442H82.4l2.222-3.5-2.161-3.4h1.521l1.321,2.4,1.341-2.4h1.521l-2.141,3.4,2.2,3.5H86.7Z" transform="translate(-37.43 -875.514)" fill="#fff" fill-rule="evenodd"/>
      <path id="Trazado_38508" data-name="Trazado 38508" d="M66.524,886.272h-.04v-1.1h.04a.868.868,0,0,0,.841-.8.821.821,0,0,0-.841-.781h-.04V882.37h.04a2.008,2.008,0,0,1,2.141,1.982,1.512,1.512,0,0,1-.72,1.282,1.615,1.615,0,0,1,1.1,1.62,2.264,2.264,0,0,1-2.5,2.082h-.06v-1.222h.04a1,1,0,0,0,1.1-.9.974.974,0,0,0-1.1-.942m-.04,0H65.343v1.842h1.141v1.222H64.063v-3.063h-.944l0-1.1h.941v-2.8h2.422v1.222H65.343v1.581h1.141Z" transform="translate(-31.316 -875.5)" fill="#fff" fill-rule="evenodd"/>
      <path id="Trazado_38509" data-name="Trazado 38509" d="M76.15,888.04h0V889.4a3.6,3.6,0,0,0,0-7.205v1.361a2.242,2.242,0,0,1,0,4.484m0,0a2.242,2.242,0,0,1,0-4.484V882.2h-.04a3.6,3.6,0,0,0,0,7.205h.04Z" transform="translate(-34.294 -875.445)" fill="#fff" fill-rule="evenodd"/>
      <path id="Trazado_38510" data-name="Trazado 38510" d="M84.882,899.677H83.759v-1.316H82.8v1.316H81.679v-3.7H82.8v1.31h.957v-1.31h1.123Z" transform="translate(-37.202 -879.817)" fill="#fff"/>
      <path id="Trazado_38511" data-name="Trazado 38511" d="M88.654,899.677H87.019v-3.7h1.635a1.844,1.844,0,0,1,1.907,1.863,1.81,1.81,0,0,1-1.907,1.834m-.512-1.07h.512a.725.725,0,0,0,.75-.764.746.746,0,0,0-.75-.793h-.512Z" transform="translate(-38.896 -879.817)" fill="#fff"/>
      <path id="Trazado_38512" data-name="Trazado 38512" d="M20.93,885.4c0-.057.028-.057.085-.057l-.057-.028a.392.392,0,0,1,.057-.085h-.057a.184.184,0,0,0-.142.057c-.028.028-.056.056-.085.056l-.085-.2H20.56c0,.029,0,.029-.028.029h-.057a.1.1,0,0,1-.085-.029c0-.057.057-.085.142-.114s.114-.028.114-.056c-.029.028-.057.028-.114.028H20.3a.315.315,0,0,1-.142-.028h-.029a1.84,1.84,0,0,0-.311-.058h-.114c-.029,0-.085.029-.113.029-.029.057-.057.085-.085.085a.088.088,0,0,1-.057-.028c-.028,0-.057-.028-.085-.057-.057-.029-.085,0-.142.085-.028-.028-.085-.056-.085-.114a.238.238,0,0,1-.056-.169.217.217,0,0,1,.028-.113v-.142c0-.142-.057-.2-.2-.228a.028.028,0,0,0-.029-.028h.029l.028-.028.029.028c.028.028.056,0,.085,0a.061.061,0,0,1,.057-.056.4.4,0,0,0-.057-.255.283.283,0,0,1,.085-.227c.029-.057.114-.085.227-.085h.255c.029,0,.057-.029.085-.029a.21.21,0,0,0,.142-.029c.057.029.057.057.057.086h.255a.252.252,0,0,0,.142-.029h.284a.616.616,0,0,1,.227.029h.029v-.313a.352.352,0,0,1,.029-.255.237.237,0,0,0-.057-.2h-.028l.028-.029.057-.057v-.113c0-.057,0-.086-.029-.113h-.029c-.085,0-.2-.029-.283-.029-.057,0-.142-.029-.227-.029-.057,0-.085-.028-.142-.028-.17,0-.312-.029-.454-.029a.8.8,0,0,0-.255-.028h-.17a.263.263,0,0,0-.143-.085.689.689,0,0,0-.226-.057c-.057.029-.114.029-.171.057a.028.028,0,0,1-.029-.027c-.057,0-.085,0-.113-.029a.171.171,0,0,1-.113-.028.782.782,0,0,1-.256-.029h-.057c-.141,0-.255-.028-.4-.028H16.643l-.057,1.7.143.142-.057.057.142.058.057.028-.057.028c.029.085.085.142.114.227a.254.254,0,0,0,.227.113l-.085.058c.057.028.085.085.142.17.029.028.029.057.057.057a.173.173,0,0,0,.113.028l-.085.085.085.085v.171c0,.027-.057.057-.113.057h-.028a2.5,2.5,0,0,0-.426-.711l-.171-.169a.53.53,0,0,0-.057.2.883.883,0,0,0,.057.227.7.7,0,0,1,.029.227.361.361,0,0,1-.029.171h.171l.114.027a.537.537,0,0,0,.085.37.6.6,0,0,0-.085.34,2.1,2.1,0,0,0,.056.34c.171,0,.256.029.256.086h.028l.113.028h.341l.284.027a.217.217,0,0,0-.028-.141.454.454,0,0,1-.057-.141.106.106,0,0,1-.085.028.114.114,0,0,1-.113-.056c-.085-.057-.113-.085-.113-.114s.028-.029.113-.029h.029l.029.029v.057a.258.258,0,0,0,.028-.141.9.9,0,0,0-.085-.284.105.105,0,0,1-.028-.085.45.45,0,0,1-.085-.227v-.085a.107.107,0,0,1,.085-.027h.028c.029,0,.057.027.085.085s.057.113.085.113l.057-.057c.029.029,0,.057-.028.086l-.057.056.171.143-.029.057a.366.366,0,0,1-.085-.057l.114.255.141-.057V885.8a.1.1,0,0,0,.029.085.1.1,0,0,0,.028.057.061.061,0,0,1-.057.057l-.057-.029v.227c0,.029,0,.029.057.057.029.027.057.027.057.057s-.028.027-.057.057l.057.055.085.058.085-.143a.4.4,0,0,0,.085.115.146.146,0,0,0,.113.055c.028.029.057.029.113.029.029,0,.057.028.085.028h.34a.853.853,0,0,1,.285.057l-.142-.057a.342.342,0,0,1,.17-.255c.113-.085.17-.143.17-.171.029,0,.057.028.057.114h.483l.142.027h.625l-.114-.056-.113-.085c0-.028.029-.028.057-.028l.012,0L20.7,886h.113l.256-.057a.1.1,0,0,1-.029-.085.307.307,0,0,1,.029-.142V885.6a.191.191,0,0,0-.142-.2m-1.221-2.157.028.029v.085l-.028-.085-.029-.085Zm-2.9,1.788-.085.029.085-.057.057-.028H16.9Zm.88,1.135h.057v.17h-.057Zm-.369-1.419a.106.106,0,0,1-.028-.086c0,.029.028.029.085.058h.057l.028.028a.028.028,0,0,1-.028.029h-.057c0-.029-.028-.029-.057-.029m.085.568v-.085h.113l-.085.057-.029.028v.085l-.029-.057Zm.113.824-.085.057-.029.029.029-.057.085-.113.029.028Zm.085-.227-.057.056a.1.1,0,0,1-.029-.056V885.8H17.41l.029-.057.028-.028.057.057a.028.028,0,0,0,.029.029c.029.029.029.057.057.085Zm0-.909-.057.057.057-.113h.028Zm.653.057h-.029v-.2h.029Zm.227-.226c-.029,0-.057.028-.085.028l.085-.085.027-.029.058.029c0,.028-.029.028-.085.057m.965,1.134c0-.028,0-.028-.028-.028h.085Zm.681-.17h.029v.086h-.029Zm.171.369h-.028c-.029,0-.057,0-.057-.028,0-.057,0-.057-.029-.057h-.029l-.029-.028a.028.028,0,0,1,.029-.028.1.1,0,0,1,.085-.029v.085h.2a.156.156,0,0,1-.142.085m.227-.227h-.085l.028-.142c0,.057.029.085.057.085.057.029.085.029.114.057Zm.425-.255v-.053a.239.239,0,0,0-.028-.032l-.114.056-.169.057a.614.614,0,0,1,.141-.113h.028a1.152,1.152,0,0,0,.142-.057v.09a.037.037,0,0,1,0,.053" transform="translate(-16.558 -875.445)" fill="#000101"/>
      <path id="Trazado_38513" data-name="Trazado 38513" d="M19.726,889.732c.029-.027.057-.027.085-.057-.028-.057-.057-.085-.057-.141a.311.311,0,0,1,.029-.143v-.141a.105.105,0,0,0-.029-.086h-.2a.323.323,0,0,0-.143-.027H19.3c-.057,0-.085.027-.113.027a.38.38,0,0,0-.085.113.142.142,0,0,1-.057-.113H18.79v.057h.141c-.028.029-.057.056-.057.085-.028.029-.056.057-.056.085,0,.058.028.085.056.143,0,.029,0,.029.029.056,0,.029.028.029.028.057v.028c.029.029.057.057.057.085a.028.028,0,0,1-.028.029l.143-.029v.143a.223.223,0,0,1,.027.113c0,.057-.057.086-.113.114l.171.057.028.028a.027.027,0,0,1-.028.028.1.1,0,0,1-.085.029.346.346,0,0,0-.086.057,1.141,1.141,0,0,1,.113.453.38.38,0,0,1-.027.171h.085l.113.029h.029l-.029.027-.028.029H19.3l.113.085.029.029-.029.029-.085.055v.057c0,.056.028.085.085.114h.2a.137.137,0,0,1,.085-.029c.028,0,.057,0,.057.029.029-.029,0-.058-.029-.114l.085-.057h-.2c-.029-.027-.057-.027-.057-.055a.061.061,0,0,1,.057-.058c.028,0,.028-.028.085-.028.085,0,.113,0,.113-.057v-.056c-.085,0-.113,0-.141-.029l.141-.086c0-.057-.028-.085-.057-.085a.028.028,0,0,1-.029.029l-.056.057c-.029,0-.029-.029-.029-.057-.028-.029,0-.085.029-.113.056-.029.085-.085.141-.114l-.141-.142c0-.028.028-.028.056-.028a.126.126,0,0,0,.085.028c-.028,0-.028-.028-.057-.028l-.113-.227h.17l-.141-.142a.075.075,0,0,0,.085-.085c0-.057.029-.115.057-.115l-.141-.057c0-.029,0-.057.056-.057m-.623-.057c-.029,0-.057,0-.086-.057l-.085-.085.256.141Zm.17.285h.057v.283h-.057Zm.028.652-.085.057-.028-.085h.142Zm.113.2c-.029.028-.057.028-.085.057l.085-.085-.085-.085h.113l-.023-.292a.492.492,0,0,1-.006-.077l.006.077a.564.564,0,0,0,.023.093.5.5,0,0,1,.028.17.215.215,0,0,1-.057.142m.2-1.079v.028l-.057.029c0-.029.028-.084.057-.084s.028,0,.057.027Z" transform="translate(-17.257 -877.646)" fill="#000101"/>
      <path id="Trazado_38514" data-name="Trazado 38514" d="M22.824,887.933c.028.028.085.028.113.057a.028.028,0,0,1,.029-.029l-.057-.113c0,.028-.027.028-.057.028l-.028-.028H22.8l-.028.028c-.022,0-.027.017-.029.038a.1.1,0,0,1,.029.02Z" transform="translate(-18.509 -877.238)" fill="#000101"/>
      <path id="Trazado_38515" data-name="Trazado 38515" d="M22.732,887.94l-.016-.005.016.026v-.021" transform="translate(-18.502 -877.265)" fill="#000101"/>
      <path id="Trazado_38516" data-name="Trazado 38516" d="M18.162,890.582a1.363,1.363,0,0,1-.055-.284l-.4.2-.029.029-.085-.085-.085-.085v.055h-.028c-.029.029-.029.029-.057.057H17.4a.089.089,0,0,0-.029-.057.147.147,0,0,0-.113-.055c-.028,0-.028-.029-.057-.029a.543.543,0,0,1-.312-.113l.028-.057H16.8l-.057-.055c0-.03.029-.059.057-.114.029-.029.029-.057.057-.085l.227.141-.171-.141c.029-.115.141-.227.341-.37.028-.029.085-.057.113-.085l.057.114.029.028.057-.028.085-.029.114-.057.029-.029c0,.029,0,.029.028.057l.17-.057a.209.209,0,0,0-.227-.227H17.6a.1.1,0,0,0-.085.029h-.085c0,.028,0,.028-.028.028h-.029a.169.169,0,0,1-.113.029.218.218,0,0,1-.114.028v-.085a1.16,1.16,0,0,0-.283-.029H16.8a.324.324,0,0,0-.227.085.156.156,0,0,1,.085.142.305.305,0,0,1-.029.142.214.214,0,0,0-.029.114c0,.084.057.14.142.2,0,.029-.027.056-.085.056h-.085a.107.107,0,0,0-.028.085.255.255,0,0,0,.085.142c.057.057.086.085.113.114-.027.057-.027.057-.057.057a.087.087,0,0,1-.057-.029.1.1,0,0,1-.057-.028.537.537,0,0,1,.057.2.686.686,0,0,1-.057.228.291.291,0,0,0,.057.255h.029a.214.214,0,0,1,.114.029l.028.028a.087.087,0,0,1,.057.029H16.8l-.227.028c.057.029.085.029.085.056s-.029.029-.029.059a.084.084,0,0,0-.029.055.028.028,0,0,0,.029.029.146.146,0,0,1,.113-.055.105.105,0,0,0,.057.027c.029,0,.057.029.085.057a.261.261,0,0,0,.141.085c.028,0,.057,0,.057-.029l.056-.114a.235.235,0,0,1,.086-.027h.028c.028,0,.028.027.028.055v.114c0,.029,0,.029.029.029l.057-.058.029.058h.028a.1.1,0,0,1,.085.029h.2a.406.406,0,0,0,.369-.143l.083.085v.029a.512.512,0,0,0,.057-.2v-.285a1.33,1.33,0,0,0-.057-.256Zm-.652-1.221v-.029c.029.029.029.057.029.114h-.085Zm-.425,1.476c-.029,0-.029,0-.057-.029H16.97c-.028,0-.057.029-.057.085a.17.17,0,0,1-.113-.029l-.057-.057c0-.028.029-.028.057-.028h.113c.029,0,.057.028.085.028s.056-.028.085-.085a.088.088,0,0,1,.029.057.1.1,0,0,1-.029.057m.539-.057v.057l-.029-.057-.057-.057H17.6c0,.029.029.029.029.057m-.369-.172h-.028v-.169h.056v.169Zm.255-.027-.057.038c0,.018,0,.018-.029.018,0,.028,0,.028-.028.056h.028l.029.029c0,.029,0,.029-.029.029v.028a.061.061,0,0,0-.057.057v-.029l-.028-.028a.059.059,0,0,1-.014-.014l-.014.014-.029-.057s.02.021.043.042l.042-.042.057-.085.029-.018v-.011l.057-.055h.014l.014-.029.057.029h-.071Zm.426.737-.027-.016c-.017,0-.04-.008-.066-.01a.135.135,0,0,1-.134.083h-.029a.1.1,0,0,1-.085-.029c-.028,0-.028,0-.057-.028.029,0,.029-.029.057-.029a.1.1,0,0,1,.085-.029h.029a.211.211,0,0,1,.113.029l.02,0a.1.1,0,0,0,.008-.031l.059.041c.015,0,.027,0,.027-.012Z" transform="translate(-16.545 -877.672)" fill="#000101"/>
      <path id="Trazado_38517" data-name="Trazado 38517" d="M17.667,889.8v.142h.085c.029-.028,0-.057-.029-.085s-.028-.057-.057-.057" transform="translate(-16.901 -877.857)" fill="#000101"/>
      <path id="Trazado_38518" data-name="Trazado 38518" d="M19.277,892.161a.086.086,0,0,1,.028-.056v-.027c0-.029.028-.059.028-.086a.028.028,0,0,1-.028-.029h-.057c.029.029.057.029.057.056s-.028.059-.057.086a.34.34,0,0,0-.085.056c.028.029.028.057.028.114.029.057.029.057.085.057h.056c.058-.029.058-.057.058-.086a.106.106,0,0,1-.086-.028c-.028,0-.028-.029-.028-.057" transform="translate(-17.376 -878.543)" fill="#000101"/>
      <path id="Trazado_38519" data-name="Trazado 38519" d="M18.249,889.721l.2.027-.141-.113v.029a.062.062,0,0,1-.057.057" transform="translate(-17.085 -877.804)" fill="#000101"/>
      <path id="Trazado_38520" data-name="Trazado 38520" d="M17.655,888.6a.028.028,0,0,1,.029-.029H17.57a.087.087,0,0,1-.057-.029h-.028a.1.1,0,0,1-.085-.029h-.141a.213.213,0,0,0-.143.029.61.61,0,0,1-.112.282.579.579,0,0,0,.141-.026.97.97,0,0,1,.255-.029.168.168,0,0,1,.113.029c0-.085,0-.113.028-.142a.028.028,0,0,1,.029.029c.029,0,.029.029.029.056v.085h.085c0-.057.029-.113.057-.113s.028-.029.057-.029.028.029.028.085c0,.029,0,.029.029.057h.029c.029,0,.029-.028.029-.057v-.085c0-.029,0-.029.056-.029h.085a.359.359,0,0,0,.255.113c0,.029.029.029.057.029h.483a.367.367,0,0,1,.171.028.179.179,0,0,0-.171-.141.17.17,0,0,1-.113.029.224.224,0,0,1-.114.027h-.028a.144.144,0,0,1-.142-.114v.114a.1.1,0,0,1-.085.029c-.028,0-.057,0-.057-.029-.028,0-.057-.027-.085-.085a.446.446,0,0,0-.171-.085c-.057,0-.085-.029-.113-.029a.1.1,0,0,0-.085.029c-.029,0-.029.029-.057.029-.029.027-.057.057-.057.057-.028,0-.057.029-.085.029-.029-.029-.029-.029-.057-.029v-.029c.028-.027.028-.027.057-.027" transform="translate(-16.691 -877.448)" fill="#000101"/>
      <path id="Trazado_38521" data-name="Trazado 38521" d="M17,888.969v0h0Z" transform="translate(-16.688 -877.593)" fill="#000101"/>
      <path id="Trazado_38522" data-name="Trazado 38522" d="M16.643,888.763c-.057.056-.057.084-.057.084a.27.27,0,0,0,.2.057h.028l.053,0-.053-.027Z" transform="translate(-16.558 -877.528)" fill="#000101"/>
      <path id="Trazado_38523" data-name="Trazado 38523" d="M21.769,882.336l.227.029.284.029.057.028v-.113c0-.057,0-.086-.029-.114H21.2v.085l.426.057Z" transform="translate(-18.022 -875.445)" fill="#000101"/>
      <path id="Trazado_38524" data-name="Trazado 38524" d="M27.215,885.926l.057-.057a.1.1,0,0,1,.085-.028.994.994,0,0,0,.029-.426c-.029-.227-.057-.369-.057-.369a.516.516,0,0,1,.057-.227.9.9,0,0,0-.171-.057h-.029a.1.1,0,0,0-.085-.029h-.2l-.057.057c-.028,0-.028,0-.028.029a.4.4,0,0,0-.17-.057.1.1,0,0,0-.085-.029.1.1,0,0,1-.057-.028c-.057,0-.142-.029-.2-.029h-.113a.1.1,0,0,0-.086-.029h-.539l-.028-.028a.591.591,0,0,0-.313,0H25.2a.4.4,0,0,1-.312-.057v1.448c.17,0,.255-.029.283-.085a.1.1,0,0,1,.029.057,3.593,3.593,0,0,1,.057.6v.453a3.57,3.57,0,0,0-.029.455H25.2a.286.286,0,0,0-.312.085l-.029.028.029.029c.085,0,.2.028.312.028a.953.953,0,0,0,.283.029h.057a1.862,1.862,0,0,0,.312-.029h.341a.172.172,0,0,0,.113-.028h.057a1.2,1.2,0,0,0,.142.028h.057a.028.028,0,0,0,.028.029h.057a.557.557,0,0,0,.2.028H26.9a.174.174,0,0,0,.171-.085l.028.028c0,.029.057.057.085.057H27.3a.218.218,0,0,1,.085-.028.214.214,0,0,0-.029-.085l-.056-.057a.06.06,0,0,1,.056-.057H27.7a.086.086,0,0,0,.029-.056c0-.029-.029-.058-.029-.115a.1.1,0,0,1-.028-.085c0-.028.028-.057.085-.085a.122.122,0,0,1-.057-.2,1.247,1.247,0,0,1-.141-.028c.029-.029.085-.057.113-.085s.057-.056.085-.056v-.171a.217.217,0,0,1-.057-.143c0-.027.029-.085.057-.2v-.226c-.085,0-.2-.029-.284-.029a.461.461,0,0,1-.255-.085m-1.078,1.5-.029-.029-.085-.086.085.029h.029Zm.255-.4c-.028,0-.057.029-.085.057,0,.029-.029.029-.029.057l-.039-.039-.017.011-.029-.029-.057-.028h.057a.028.028,0,0,0,.029.028l.017.018c.038-.025.043-.049.068-.075a.1.1,0,0,0,.028-.085c.029-.085.057-.142.113-.113a.1.1,0,0,1,.029.085c0,.028-.029.057-.085.113m.171-.88v.029a.1.1,0,0,0-.057.028v.085c-.029-.029-.057-.057-.057-.085a.062.062,0,0,1,.057-.057.1.1,0,0,1,.057-.028h.085a.1.1,0,0,0-.085.028m.17,1.193-.085-.029-.057-.057h.142Zm.171.057-.057.057-.057.056.057-.084.057-.085Zm.056-.341h-.085c0-.056,0-.085.029-.114h.056Zm.143-.681h-.028l-.02-.016-.066.016a.062.062,0,0,0-.056-.057.028.028,0,0,0-.029-.029v-.057l.151.126.048-.011.029-.029Z" transform="translate(-19.181 -876.196)" fill="#000101"/>
      <path id="Trazado_38525" data-name="Trazado 38525" d="M25.2,883.7c.085.029.2.029.341.057a1.326,1.326,0,0,1,.312.027h.341a.174.174,0,0,0,.114.028h.255a.1.1,0,0,1,.085.029H26.9c.057,0,.142.027.2.027h.085a.311.311,0,0,0,.141.028v-1.7H24.887v.737l-.029.71h.029a1.011,1.011,0,0,0,.312.057" transform="translate(-19.181 -875.445)" fill="#000101"/>
      <path id="Trazado_38526" data-name="Trazado 38526" d="M26.575,892.091c-.029,0-.057,0-.057-.029h-.057c-.057-.028-.085-.056-.141-.085a.221.221,0,0,1-.114-.055c-.029-.028-.057-.028-.085-.057h-.085a.147.147,0,0,1-.057-.113c.057-.056.085-.056.085-.056a.607.607,0,0,0-.141-.087h-.113l.028.058-.17.085-.028-.171v.028l-.085.087a.419.419,0,0,1-.171.056.223.223,0,0,1-.113-.056l.057-.029a.1.1,0,0,0,.085-.029c.057-.057.057-.085.057-.113a.028.028,0,0,0-.028-.029l-.227-.056-.312-.057.113.057a.344.344,0,0,0-.113.256.381.381,0,0,0,.028.141v.141a.265.265,0,0,1-.028.143l.142-.143a.328.328,0,0,0,.057.085.281.281,0,0,0,.113.029c.028,0,.028,0,.057.029.085,0,.142.028.2.028a.106.106,0,0,0,.085-.028h.028v.028a.648.648,0,0,1,.284-.028h.057c.085,0,.141-.029.141-.058.029.029.029.029.057.029.029.029.056.029.085.057h.653a.563.563,0,0,1-.2-.028.1.1,0,0,1-.085-.029m-1.362-.143h-.029l.029-.055.028-.058.029.029c.029.029.057.057.085.029l.057-.029.029.029a.909.909,0,0,0-.227.055" transform="translate(-19.195 -878.358)" fill="#000101"/>
      <path id="Trazado_38527" data-name="Trazado 38527" d="M27.372,890.069c0-.113-.057-.171-.171-.141v-.058c0-.028.029-.057.085-.057h.085a2.762,2.762,0,0,1-.029-.425c-.057,0-.113-.029-.171-.029h-.34a.419.419,0,0,1-.2.029H26.52l-.028-.029h-.085a.075.075,0,0,0-.085.085l-.028-.027a.089.089,0,0,1-.029-.057h-.88a.619.619,0,0,1-.2-.029.519.519,0,0,0-.171-.027.21.21,0,0,0-.141.057l-.029.029.029.029c.113.056.17.113.17.2a.457.457,0,0,1-.114.254.22.22,0,0,0-.056.115.207.207,0,0,0-.057.171.217.217,0,0,0,.028.113h.029c.056,0,.085,0,.113.028l-.113.114h-.029c0,.028,0,.028.029.057v.028l.056-.113h.085c.057,0,.085,0,.085.028v-.142l.057.028.029-.056.028-.057a.075.075,0,0,1,.085.085c0,.028-.028.057-.085.142a.1.1,0,0,1-.028.057.1.1,0,0,0-.029.085.345.345,0,0,1-.085-.057.379.379,0,0,0,.113.086c.028,0,.085.029.113.029h.227c0,.027,0,.027.028.027l-.028.029.283.057v.057h.029l.057-.029.113-.029c-.057-.028-.085-.028-.113-.057s-.028-.056-.057-.056v-.029a.482.482,0,0,1-.029-.2H25.9a.252.252,0,0,0,.141-.029c.029-.028.029-.028.057-.028a.1.1,0,0,1,.086-.029h.085a1.2,1.2,0,0,1,.029-.141c.028-.029.028-.057.057-.057a.261.261,0,0,1,.142.085l.028.027h.029l.085.085c.029,0,.057.029.085.029a.1.1,0,0,1,.056-.029c-.056-.028-.056-.056-.056-.085,0-.084.028-.141.113-.141h.028l.029.029.085.085c.057.027.057.057.057.085s-.029.085-.142.114l.2.056.085.029.142.028-.028-.028.057-.057c.029-.028.057-.028.029-.057Zm-2.158-.113h-.057v-.2h.057Zm.4.142-.085-.057-.113-.085.113-.028.085-.029a.061.061,0,0,1-.057.057.09.09,0,0,0-.028.057Zm.283.227h-.057l-.057.028.057-.057.029-.028H25.9l.113.028Zm-.085-.256V889.9h.057v.171h-.057Zm.085-.511h-.028l.028.029a.088.088,0,0,1,.028.056h-.141c0-.027.028-.056.057-.085s.029-.029.057-.029a.412.412,0,0,1,.113-.085Zm.341.4-.057.057h-.086v-.085l.029.028.057-.086.029-.057c.028.029.056.029.056.057s0,.029-.028.086m.085-.2-.028-.057-.029-.113h.057Zm.171-.2.057-.114v.2h-.113Zm.057.311c-.029.029-.029.058-.057.086a.217.217,0,0,1-.142.057c.085-.029.113-.115.142-.2v-.055h.085c0,.055-.029.084-.029.112m.284-.112-.113-.029c0-.028.028-.057.085-.057l.029.029c.028,0,.057,0,.057-.029v.029c0,.028.029.028.057.057h-.113Zm.113.255.028-.115.114.086.085.085-.085-.028Zm.312.34h-.141l.056-.085.085-.085Z" transform="translate(-19.168 -877.699)" fill="#000101"/>
      <path id="Trazado_38528" data-name="Trazado 38528" d="M24.887,889.8h-.029l.029.085Z" transform="translate(-19.181 -877.857)" fill="#000101"/>
      <path id="Trazado_38529" data-name="Trazado 38529" d="M36.083,891.74a.092.092,0,0,0,.028.068.076.076,0,0,0-.028-.068" transform="translate(-22.741 -878.472)" fill="#000101"/>
      <path id="Trazado_38530" data-name="Trazado 38530" d="M32.135,882.77h.113c.057,0,.085,0,.114-.029h.057c.029,0,.057-.029.085-.029h.028c.029,0,.057,0,.057.029v.029H32.7a.108.108,0,0,0,.085.027c.028.029.028.029.057.029.027.028.027.028.057.028v-.114c.028,0,.028,0,.057.029a.511.511,0,0,1,.2.057c.057,0,.113.028.17.028a.359.359,0,0,0,.171.029.3.3,0,0,0,.141.029c.085,0,.142.028.2.028v-.057l.142.029.284.056.057-.2h.028c.057,0,.085.027.085.057a.1.1,0,0,0-.028.085c0,.056.057.085.141.085h.284c.029,0,.057.028.086.056a.027.027,0,0,0,.027-.028h.086c.056,0,.085-.028.141-.085l.085.113h.284c.056.029.142.029.2.057H35.8a.363.363,0,0,0,.17.028.212.212,0,0,0,.114.029h.283c.057,0,.113-.029.171-.029a1.315,1.315,0,0,0-.171-.2.732.732,0,0,1-.17-.143.151.151,0,0,0-.113-.057.425.425,0,0,0-.114-.085l-.17-.085a.028.028,0,0,1-.029-.029,1.844,1.844,0,0,0-.227-.085c-.057-.029-.114-.029-.171-.057-.029,0-.057-.028-.113-.028a.994.994,0,0,0-.313-.057.167.167,0,0,0-.113-.029.356.356,0,0,0-.17-.029,1.083,1.083,0,0,0-.313-.028h-.028c-.057-.029-.113,0-.2.028a.473.473,0,0,1-.142.057c-.028,0-.057-.029-.085-.057h-.568a.356.356,0,0,0-.17.029.477.477,0,0,0-.2.029.174.174,0,0,0-.113.027c-.057,0-.086.029-.143.029a.1.1,0,0,1-.057.028.613.613,0,0,0-.141.085.1.1,0,0,0-.085.029.617.617,0,0,0-.171.114l-.028.028c-.029-.028-.057-.057-.057-.085v.028l-.029.029-.057.028-.029.029c0,.027,0,.027.029.055a.086.086,0,0,1,.057.029m2.186-.341h.085l-.057.029-.028.028Zm-1.362.2h.057a.087.087,0,0,0-.029.057h-.028l-.057-.057Z" transform="translate(-21.462 -875.452)" fill="#000101"/>
      <path id="Trazado_38531" data-name="Trazado 38531" d="M33.868,892.423l-.113-.086c.028.057.057.086.113.086" transform="translate(-22.003 -878.661)" fill="#000101"/>
      <path id="Trazado_38532" data-name="Trazado 38532" d="M31.84,888.829c.029,0,.029,0,.057-.029l-.057-.029-.028-.057.028-.029.143-.113v.2a.027.027,0,0,1,.028-.028c.029-.029.057-.029.085-.057a.665.665,0,0,1,.142-.085.1.1,0,0,0,.057-.029.621.621,0,0,0,.142-.085.214.214,0,0,1,.113-.056,1.253,1.253,0,0,0,.2-.142l.17-.085a.561.561,0,0,1,.171-.113c.057-.057.113-.085.142-.114h.029c0-.029,0-.029-.029-.058a.061.061,0,0,0-.057-.056c-.029-.029-.057-.056-.085-.085v-.085c.028-.028.028-.028.028-.057l.057.057c.057-.028.057-.085.028-.171-.057-.085-.085-.113-.085-.143,0-.055.057-.085.114-.113l-.114-.085.114-.085v-.085a.488.488,0,0,1,.34-.086v-.057c0-.028-.028-.057-.085-.085a.09.09,0,0,1-.085-.085c0-.028.029-.028.113-.028,0-.029-.028-.057-.028-.086,0-.056.028-.113.028-.169a.99.99,0,0,1,.029-.171c0-.113-.057-.171-.2-.171h-.085c0-.057.028-.113.057-.113a.028.028,0,0,1,.028-.029c.029,0,.057.029.085.058s.028.055.057.055c.028-.028.057-.055.057-.085s-.029-.056-.057-.114-.057-.085-.057-.113c0-.057.028-.086.141-.142a.987.987,0,0,1-.34-.057h-.057a1.865,1.865,0,0,1-.029-.6,1.167,1.167,0,0,0-.029-.568.088.088,0,0,0,.057-.029h.057a.112.112,0,0,1-.057-.113.185.185,0,0,1,.057-.143v-.027c.029-.029.057-.057.057-.085s-.028-.057-.057-.086v-.029a.377.377,0,0,1,.17-.141l.17-.085H33.6c.028,0,.142.057.284.085.028,0,.028.028.057.028.057.029.085.057.085.113,0,.029-.029.057-.029.115a4.891,4.891,0,0,0,.085,1.164l.029-.057a.5.5,0,0,0,.141.057.26.26,0,0,0,.142.028h.029c.028,0,.085-.028.113-.028l.255-.086h.057l.029.029-.029.028v.029c.029-.029.057-.029.113-.029h.029a.314.314,0,0,1,.142-.028h.028a.509.509,0,0,1,.2.057h.029a1.013,1.013,0,0,0,.171.028.3.3,0,0,0,.113-.028c.028-.029.028-.029.028-.057.029.028.057.057.085.057.057,0,.085.028.142.028h.029c.056,0,.113-.028.2-.028a.028.028,0,0,1,.028-.029h.029a.6.6,0,0,0,.142-.028h.028a.027.027,0,0,1-.028.028c0,.029-.029.029,0,.057v-.028l.085-.086a.027.027,0,0,1-.028-.028c0-.029.028-.029.028-.085.028-.028.028-.028.028-.057s-.028-.056-.085-.056a.666.666,0,0,0,.057-.227,1.594,1.594,0,0,0-.057-.284.1.1,0,0,0-.028-.085.945.945,0,0,0-.029-.17c0-.029.029-.085.029-.114v-.113a.182.182,0,0,0-.142-.2h-.057a.175.175,0,0,0-.114-.028h-.085c-.029,0-.057.028-.085.028H35.56c-.029-.028-.086-.028-.114-.057v-.029h-.483c-.028-.029-.056-.029-.113-.029a1.44,1.44,0,0,1-.312-.057l-.085.085-.028-.029c-.057,0-.114-.028-.171-.028-.085-.029-.2-.057-.312-.085H33.8a.621.621,0,0,1-.227-.029,1.156,1.156,0,0,1-.34-.029H33.09a.52.52,0,0,1-.171-.027.358.358,0,0,1-.17-.029h-.2a.17.17,0,0,0-.113-.029h-.426a1,1,0,0,0-.171-.028c0-.029-.028-.029-.056-.029h-.029a.028.028,0,0,1-.029-.028h-.113c-.028-.029-.028-.029-.056-.029H31.5a.536.536,0,0,0-.227.057l-.029.029c-.029,0-.029.028-.057.057a.218.218,0,0,0-.113.113c-.029.028-.029.056-.057.085,0,.028-.029.028-.029.057-.029.085-.085.142-.114.227q-.085.682-.085.682a.648.648,0,0,0,.085.369h-.113a1.319,1.319,0,0,0,.057.227.732.732,0,0,1,.057.2.3.3,0,0,1-.113.227c.029.056.057.085.113.085a.21.21,0,0,0,.114-.029h.085a.219.219,0,0,1,.057.113.508.508,0,0,1,.028.142.507.507,0,0,0-.028.313.317.317,0,0,1,0,.283l.057.057v.028c.028.029.028.029,0,.057h-.029a.088.088,0,0,0-.028.056l.057.057v.029c-.057.028-.057.028-.057.055a.217.217,0,0,0,.028.115.028.028,0,0,0,.029.028v.085l-.113.029-.085.028h-.029l.029.027h.2l.085.029.227.029h.085a.1.1,0,0,1-.028.085c-.029,0-.029.028-.057.028a.4.4,0,0,1-.171.057h-.056a.107.107,0,0,1-.085-.027h-.2a.107.107,0,0,0-.085.027c.029.113,0,.171-.085.171h-.057v.141a.225.225,0,0,1,.085-.027c.057,0,.057.027.057.056v.057c0,.028.029.056.085.056l-.227.17H30.9c.029.028.057.057.057.086h-.085a.061.061,0,0,0-.057.057.171.171,0,0,1,.114.029.087.087,0,0,0,.057.029c.029.027.029.027.057.027l-.057.058-.029.028-.085-.086c-.029.086,0,.142.085.2l.029-.028c.057.028.085.057.085.085l-.057.057a.1.1,0,0,1-.029.056v.029h.17c0,.027.029.027.029.056s-.029.029-.057.057l-.057.056h.113c.028,0,.057,0,.057.029,0,0,0,.029-.057.085l.085.057.028.027a.457.457,0,0,0,.2.113c.029,0,.029,0,.057-.028h.056c.029,0,.029,0,.057-.029a.087.087,0,0,0,.056-.028h.029l.085-.084m1.392-2.612.029-.114v.255h-.029Zm0,.2.024.023a.179.179,0,0,1,.175.061v.085a1.869,1.869,0,0,1-.175-.146c-.008,0-.015,0-.024,0Zm2.9-2.527.029.029c.028,0,.057,0,.057.029h.028c.057.029.085.057.085.085s0,.056-.027.056h-.085l.057-.056-.057-.057v-.029h-.085Zm-.17.312h.056v.142l-.056-.056L35.9,884.2Zm-.4-.169h.024c0-.014,0-.014,0,0h0c0,.014-.01.042-.024.084v.029c.028,0,.028.027.056.027h-.085Zm-.2.851h.029v.029H35.36Zm-.425-1.05.028.056v.057h-.028Zm-.568.2h.085l-.028.029-.057.027Zm-3.207.255h-.085l-.085-.029h.17Zm-.17,3.235-.029-.085a.028.028,0,0,1,.029-.029l.057.057-.057.056m.2.937-.057-.057.028-.028h.029c.028,0,.057.028.057.113Zm.88-.057h-.057l-.057-.028h.113Zm.171-.965-.057.141v-.141c0-.029.028-.058.057-.085,0-.028.028-.028.028-.057Zm.341.767h-.085l.057-.113.029-.057Zm.028-1.25H32.55a.028.028,0,0,1-.029-.029.1.1,0,0,1-.057-.028h.2c-.029.057-.029.057-.057.057m-.057-.17h.057l-.028.027a.028.028,0,0,1-.029-.027h-.085v-.058h.085c-.029.03,0,.03,0,.058m.2,1.134c0,.029-.029.029-.057.058.029-.029.029-.058.057-.114a.06.06,0,0,1,.057-.056c0,.027-.029.056-.057.112m0-1.277h.085l-.085.057-.057-.028Zm-.037-2,.037.018.085.085h-.057a.027.027,0,0,1-.028-.028l-.029-.028a.087.087,0,0,0-.008-.047m.207,2.829v-.029l.057-.058.085.143Zm.171-1.561.028-.058a.1.1,0,0,1,.029.058v.056c0,.029,0,.029-.057.029h-.029Zm-.029.653v.027A.178.178,0,0,1,33,886.7c-.028.057-.057.085-.028.113-.029,0-.029,0-.057-.027h-.085c.029-.028.057-.028.085-.058.085-.055.142-.112.142-.169m-.085-.285v.113h-.085l.028-.028.057-.057h-.057l-.028-.029h.085Zm-.369-2.186a.215.215,0,0,1,.142.028c0,.029,0,.029.028.029a.318.318,0,0,0,.08.1l.034.016a.069.069,0,0,1-.034-.016.343.343,0,0,0-.108-.041.5.5,0,0,0-.142.057l.085-.113Zm.057.909a.128.128,0,0,1,.027.085c-.027.028-.085,0-.141-.029Zm-.227-.511.057-.028.057.112v.029c-.029-.057-.085-.113-.113-.113l-.046.034a.112.112,0,0,0-.011.05h-.057l.068-.05a.054.054,0,0,1,.046-.034m-.142-.6c.057-.029.057-.056.057-.056a.228.228,0,0,0,0-.031l-.027-.026c.018,0,.024.012.027.026l.058.059-.113.057-.029.029h-.028a.062.062,0,0,0,.057-.057m-.2,3.208a.211.211,0,0,1,.028-.113c.029-.115.057-.172.114-.172v.086c-.029.028-.029.057-.057.086-.057.055-.085.084-.085.113-.029.028-.029.057-.029.028Zm-.113-1.93.028.027.057.058h-.085Zm-.143,1.788v-.029l.057-.057.085.115Zm-.028-3.605H31.9v.085h-.085Zm.028,1.023.057.056v.029l-.057-.058-.085-.113Zm-.085,1.39.057.057h0a.027.027,0,0,1,.028.028.2.2,0,0,1,.03.035.488.488,0,0,1,.084.164.146.146,0,0,1-.057-.113c-.014-.027-.02-.04-.027-.051a.361.361,0,0,0-.03-.035l-.028-.028c-.028,0-.029.028-.057.028Zm-.142-.623.057-.057v.057a.059.059,0,0,0,.056.055.1.1,0,0,1-.056-.027h-.085Zm-.284,1.163v.085H31.3c.025,0,.027-.024.028-.086,0-.028-.028-.055-.056-.083a.028.028,0,0,0-.029-.029h.029c.028,0,.056.029.056.085v.027h0m-.056-1.05h-.085l.085-.085.028-.028.028.113Zm.2-.312v-.113c0-.029.029,0,.029,0,.029,0,.029.027.057.027l-.057.029Zm.086,2.015-.057-.085h.085v.143Zm.028.34h.057v.171h-.057Zm-.085,1.562-.085-.028.047-.048c0-.006,0-.01.01-.01l-.01.01a.171.171,0,0,0,.038.048.421.421,0,0,1,.034.044Zm.171-.256h-.113l.028-.029h.085l.056.029Zm.056-2.271a.061.061,0,0,1-.056-.057c0-.028.028-.056.056-.085,0-.029,0-.029.029-.029a.1.1,0,0,0-.029.085Z" transform="translate(-21.054 -875.748)" fill="#000101"/>
      <path id="Trazado_38533" data-name="Trazado 38533" d="M33.978,892.491l.028-.028h-.085Z" transform="translate(-22.056 -878.701)" fill="#000101"/>
      <path id="Trazado_38534" data-name="Trazado 38534" d="M36.956,887.57a.195.195,0,0,0-.2.2h-.142a.69.69,0,0,0-.2.113,1.186,1.186,0,0,0-.17.2l-.029-.057-.085.085a.126.126,0,0,0,.085.028l-.085.086-.057.056.057.029-.085.085H36.02l-.113-.113.085-.084h-.256a.156.156,0,0,1,.085-.143c0-.029,0-.029.029-.029a.489.489,0,0,1,.171-.085v-.028c.057,0,.085-.028.113-.028a.388.388,0,0,0,.114-.086.151.151,0,0,0,.085-.113l-.029-.029.057-.085c.028.029.057.029.057.057v.028a.7.7,0,0,1,.2-.113.1.1,0,0,0,.057-.029H36.7a.416.416,0,0,0,.114-.084.507.507,0,0,0,.113-.143c.028.029.057.058.085.029a.142.142,0,0,1,.057-.113.1.1,0,0,1,.028.055.105.105,0,0,0,.085.029.149.149,0,0,0,.057-.113c-.029,0-.057,0-.085-.057,0,0,.028,0,.056-.057.029,0,.029-.029.029-.057l-.341-.029-.057.143h-.085a.1.1,0,0,1-.085-.029c.028,0,.028-.029.057-.057s.029-.028.029-.057H36.02a.361.361,0,0,0-.171.029h-.255c-.057,0-.113.028-.17.028h-.113c-.086.029-.171.029-.227.057v-.029a.166.166,0,0,1,.141-.057.354.354,0,0,0-.17-.029H35a.17.17,0,0,0-.113.029c-.057,0-.085.028-.142.057,0-.029,0-.029-.029-.057a.1.1,0,0,0-.085-.029.378.378,0,0,0-.142.029c-.029.028-.057.028-.085.057h-.029a.1.1,0,0,1,.029.057.218.218,0,0,1,.057.141.735.735,0,0,1-.057.2c-.029.113-.057.171-.029.227H34.4l.085.028a.1.1,0,0,1-.029.085.087.087,0,0,1-.057.029.087.087,0,0,0-.029.057c0,.028.029.028.029.056a.209.209,0,0,0,.114.057.217.217,0,0,0,.113-.028h.085a.406.406,0,0,1,.171.056v.143c-.029.029-.029.057-.057.057a.481.481,0,0,0-.085.113l-.029-.029v-.085h-.141v.425c.057,0,.085-.029.141-.057a.558.558,0,0,0,.171-.114c.029-.027.057-.056.085-.085l.028-.028a1.067,1.067,0,0,1,.313-.2h.113a.208.208,0,0,1,.17.057h.057l-.057.028-.17.113-.113.057-.171.114a.18.18,0,0,1-.142.17c-.028,0-.057.029-.113.029a.36.36,0,0,0-.171.029.255.255,0,0,0-.17.169v.2c0,.087.029.115.085.115a.166.166,0,0,1-.142.057l.057.027a.719.719,0,0,1-.142.171c-.029,0-.057.028-.085.028-.142.085-.227.115-.255.17a.028.028,0,0,0-.029-.028.432.432,0,0,0-.34-.2,1.208,1.208,0,0,1-.142.029.586.586,0,0,0-.17.113c-.057.029-.113.085-.171.114,0,.027,0,.027-.028.027a.723.723,0,0,1-.17.142c-.029.029-.086.057-.113.085-.057.029-.086.058-.143.086a.1.1,0,0,1-.057.028l-.057-.056-.085.085-.085.057-.171.142-.085.085c0,.027.029.027.057.027H32.3a.1.1,0,0,0,.057-.027c.057-.057.086-.057.114-.085l.057.056a.062.062,0,0,0-.057.057v.086c.029,0,.057.027.085.027a.217.217,0,0,0,.142.057.089.089,0,0,0,.057.028.306.306,0,0,0,.143.029h.113a.18.18,0,0,0,.141-.169s-.057-.03-.141-.086c-.029,0-.057-.029-.113-.057s-.086-.056-.143-.085c-.028-.029-.057-.058-.057-.085l.057-.029H32.9l.113-.027h.028l-.028-.029-.086-.085.086-.085c.085-.057.141-.114.2-.143h.085a.155.155,0,0,1,.085.113v.029a.135.135,0,0,0,.17.028,1.055,1.055,0,0,0,.142-.057c.057,0,.085.029.114.085l-.085.058c.028,0,.057-.029.085-.029s.085.029.169.113a.1.1,0,0,1,.057-.029h.086c0-.056,0-.114.028-.114l.085.058v-.086a.062.062,0,0,1,.057-.057.5.5,0,0,1,.113.143l.057.056.171-.114.085.058-.141.085c.085,0,.113,0,.141-.029v.171a.029.029,0,0,0,.029-.029.1.1,0,0,1,.085-.029.2.2,0,0,1,.029.019v-.019a.027.027,0,0,1,.029-.027.145.145,0,0,1,.113-.057h.029a.172.172,0,0,0,.17-.085v.141a.216.216,0,0,0,.057.142v-.142c.028,0,.057,0,.057.027a.158.158,0,0,1,.085.143v.255h.625c.057,0,.085-.029.113-.029.029-.029.057-.029.085-.056,0,.027.029.027.029.056v.029a.362.362,0,0,0,.17.028h.2c.028,0,.057,0,.057-.028a.158.158,0,0,0,.142-.085v.056l.028.057a.113.113,0,0,0,.057-.113v-.171a.26.26,0,0,1,.029-.143l-.113-.027v-.141l.028-.029c.057.029.085.057.085.029a.575.575,0,0,1-.057-.257.217.217,0,0,1,.028-.113v-.113a.478.478,0,0,0-.085-.283v-.029a.484.484,0,0,0,.113-.369v-.483l-.085-.169c.057.028.113,0,.171-.057a.437.437,0,0,1,.17-.086.1.1,0,0,0,.057.029c-.029,0-.029-.029-.029-.057a.742.742,0,0,1,.029-.2,1.411,1.411,0,0,0,.057-.255.215.215,0,0,0-.057-.142.853.853,0,0,0-.284.113m-2.242-.341.085.057v.115l-.085-.115-.057-.113Zm0,.511c-.028,0-.057-.057-.085-.142-.016-.016-.029-.031-.041-.044l-.016.016-.085-.085c.042,0,.068.031.1.07l.069-.07v.057c0,.028,0,.057.057.085s.085.028.114.057a.219.219,0,0,1-.114.057m-1.022,1.9-.045-.012-.012.012-.057-.029.069.018.045-.046.085-.057.113.115Zm.369.339h-.085l.057-.056.086-.029c-.057.029-.057.057-.057.085m.852-.454h-.029l-.142-.028h.113c0-.029,0-.029.029-.029h.029Zm.425.17h-.028v-.17h.028Zm.171-.369-.085-.17-.029-.029h.029l.085.087Zm.113.711h-.029l-.028-.029.028-.029.142-.085Zm.227-.852h-.029v-.058l.029.029Zm.4.455-.017-.083a.028.028,0,0,0-.012,0,.039.039,0,0,1,0-.057l.012.06a.032.032,0,0,1,.017.025.087.087,0,0,0,.056.028Zm.425-.8-.057.085-.057.057.057-.085.057-.085Z" transform="translate(-21.515 -876.96)" fill="#000101"/>
      <path id="Trazado_38535" data-name="Trazado 38535" d="M49.569,891.978H49.6v-.057h-.17c0,.029,0,.057.057.057Z" transform="translate(-26.973 -878.529)" fill="#000101"/>
      <path id="Trazado_38536" data-name="Trazado 38536" d="M49.548,892.3H49.52l-.029.029h-.028v-.085l-.142.114c-.029-.029-.057-.029-.057-.057a.1.1,0,0,0,.029-.057.088.088,0,0,0,.029-.057.173.173,0,0,1-.143-.055l-.085.083.142.057-.057.114h.2a.055.055,0,0,0,.085,0c.057,0,.085,0,.113-.029,0-.029,0-.057-.028-.057" transform="translate(-26.868 -878.596)" fill="#000101"/>
      <path id="Trazado_38537" data-name="Trazado 38537" d="M49.608,891.617l-.057.057h.17l-.085-.085Z" transform="translate(-27.013 -878.424)" fill="#000101"/>
      <path id="Trazado_38538" data-name="Trazado 38538" d="M49.626,890.043a.158.158,0,0,0-.019-.014.106.106,0,0,1,.019.014" transform="translate(-27.031 -877.929)" fill="#000101"/>
      <path id="Trazado_38539" data-name="Trazado 38539" d="M48.958,890.039h.028l.085-.113h-.2c0,.029-.029.029-.029.057l.029.029Z" transform="translate(-26.789 -877.897)" fill="#000101"/>
      <path id="Trazado_38540" data-name="Trazado 38540" d="M46.566,889.582l-.34-.113.283.2c.029.029.029.057.057.085a1.257,1.257,0,0,0,.285.427l.255.339a.776.776,0,0,1,.142.169h.085l-.028-.055a.091.091,0,0,1,.028-.058c0-.029.029-.029.057-.056a.671.671,0,0,0,.255.085l.057-.255c-.028.029-.028.057-.057.113,0,.028-.028.057-.085.057h-.029c-.085-.057-.113-.084-.113-.142,0-.029.057-.057.171-.085.085-.056.141-.084.141-.141.057.029.057.029.057.085v.084H47.9v.029c.028,0,.057-.029.113-.029h.029a.105.105,0,0,1,.085-.028c.029,0,.029,0,.057.028l-.028.029a.285.285,0,0,1,.113.029l.057-.029a.639.639,0,0,0-.2-.141h-.085a.028.028,0,0,1-.029.028.218.218,0,0,1,.029-.085h-.256s0-.029.057-.085a.168.168,0,0,0-.113-.029h-.113c-.057,0-.113-.028-.085-.143l-.085.086c-.028-.029-.028-.086-.057-.114s-.057-.029-.114-.056a.212.212,0,0,1-.113-.029h-.057a1.543,1.543,0,0,1-.255-.029l.057-.057Zm.682.795h.085l-.057.028-.056.03Z" transform="translate(-25.958 -877.752)" fill="#000101"/>
      <path id="Trazado_38541" data-name="Trazado 38541" d="M47.067,883.557a.351.351,0,0,1,.169.029h.143a2.58,2.58,0,0,1,.483.029h.227a1.618,1.618,0,0,1,.426.029H48.6V882.2H46.157l-.056,1.277c.142.028.255.028.425.057.142,0,.341.027.54.027" transform="translate(-25.919 -875.445)" fill="#000101"/>
      <path id="Trazado_38542" data-name="Trazado 38542" d="M49.066,891.639l-.227-.058h-.057V891.3h-.029l-.142.2h-.029l-.085-.056.057-.057a.358.358,0,0,0-.085.057c0,.027.029.056.085.056l.057.057.029.028c.028.029.085.029.113.058.029,0,.057.029.085.029.057,0,.085.027.141.027.029,0,.085-.027.085-.056" transform="translate(-26.67 -878.332)" fill="#000101"/>
      <path id="Trazado_38543" data-name="Trazado 38543" d="M48.595,890.883v.085l.057-.057.028-.028h-.085Z" transform="translate(-26.71 -878.2)" fill="#000101"/>
      <path id="Trazado_38544" data-name="Trazado 38544" d="M49.551,890.009a.061.061,0,0,1,.018,0,.059.059,0,0,0-.018,0" transform="translate(-27.013 -877.923)" fill="#000101"/>
      <path id="Trazado_38545" data-name="Trazado 38545" d="M48.542,889.127h-.028c-.142,0-.285-.029-.426-.029h-.227a3.5,3.5,0,0,0-.511-.028h-.113a.354.354,0,0,1-.169-.029h-.2a1.6,1.6,0,0,0-.341-.057,1.136,1.136,0,0,1-.369-.056c-.027.028-.056.028-.056.056s.029.029.085.057.114.057.114.085l.085-.085.141.114.085.085a.6.6,0,0,0,.227.085.991.991,0,0,1,.17.029l.029-.029c0,.029.029.029.029.057a.447.447,0,0,0,.169.114h.086a.027.027,0,0,1,.027.027.527.527,0,0,1,.313.142c.057-.085.085-.142.142-.169.028,0,.028-.029.057-.029a.149.149,0,0,1,.113-.057c0-.057,0-.113.029-.113h.029l.028.028a.028.028,0,0,0,.028.029.129.129,0,0,1,0,.143l.2-.171.028.029-.113.143c.028.027.028.027.057.027a.027.027,0,0,0,.028-.027c.028-.029.028-.057.085-.057.057.028.085.057.085.085s-.028.057-.057.114a.212.212,0,0,0-.085.084c.029,0,.029,0,.057-.028a.1.1,0,0,1,.085-.028c.029-.028.029-.057.057-.057H48.6a.26.26,0,0,0,.028-.142.557.557,0,0,0-.028-.2,1.161,1.161,0,0,0-.057-.143m0,.227h-.028v-.114h.028Z" transform="translate(-25.919 -877.58)" fill="#000101"/>
      <path id="Trazado_38546" data-name="Trazado 38546" d="M47.947,891.333a.1.1,0,0,0-.085-.029.175.175,0,0,0-.114-.028l-.057.2a.276.276,0,0,1-.141-.2.131.131,0,0,0-.114-.143h-.086v.029c0,.029-.027.029-.056.058-.028,0-.028-.029-.028-.058v-.113h-.029a.618.618,0,0,0-.169-.113c-.029-.029-.057-.057-.085-.057-.085-.085-.142-.113-.2-.113h-.057l.085-.143c-.029-.055-.057-.055-.114-.055a.223.223,0,0,0-.114.027c-.028,0-.057,0-.057.028H46.47v-.055c0-.029,0-.057.057-.057h.029c.057-.029.085-.057.085-.085l-.057-.057-.057.085-.057.029-.057-.029c0-.028.029-.057.057-.085l.057-.056.029-.029-.029-.029-.141-.056.028-.029a.443.443,0,0,0-.312-.284c0,.256.029.427.142.483a.178.178,0,0,0-.142.17.284.284,0,0,1,.029.085.226.226,0,0,1,.027.085c0,.057,0,.086-.056.113l.085.085-.085.086c.085,0,.142,0,.142.027l-.113.085c0,.028-.029.028-.029.057s.056.058.142.058a.129.129,0,0,1,.142.113.447.447,0,0,1-.171.085.1.1,0,0,1-.057-.029v.256l.369-.114.057-.029v.143h.143v.028h.085a.3.3,0,0,0,.17-.057.4.4,0,0,1,.057-.2c0,.028.029.055.029.084a.028.028,0,0,1,.028.029c0,.028.057.028.114.057l-.029.057h.169c.057,0,.115-.029.171-.029.113-.057.2-.057.227-.085l-.057.057.171.029.056.029a.34.34,0,0,0,.029-.143c.027-.056.027-.084.056-.084h.057L48,891.361c0-.027-.029-.027-.056-.027m-1.42-.228-.113.086-.085-.2.057.056c.028.028.085,0,.141-.029v-.027c.057-.057.114-.086.171-.057Zm.54.255c-.057-.027-.057-.057-.057-.057,0-.028,0-.028.029-.028l.029.028.057.085a.087.087,0,0,1-.057-.029" transform="translate(-25.919 -877.884)" fill="#000101"/>
      <path id="Trazado_38547" data-name="Trazado 38547" d="M41.8,883.245a.258.258,0,0,0,.141.028h.2a2.285,2.285,0,0,1,.483.057.551.551,0,0,1,.255.057h.2c.028,0,.17.028.4.057.085,0,.2.029.341.029v-.142a2.021,2.021,0,0,1,.029-.369,2.29,2.29,0,0,0,.029-.4,1.42,1.42,0,0,0-.057-.369H41.4v1.021a.964.964,0,0,0,.169.029Z" transform="translate(-24.429 -875.445)" fill="#000101"/>
      <path id="Trazado_38548" data-name="Trazado 38548" d="M44.185,886.766H43.048a.211.211,0,0,1-.113.029c-.113,0-.227.029-.34.029a5.752,5.752,0,0,0-.682.142.257.257,0,0,0-.141.028h-.057a.1.1,0,0,1,.057.029.1.1,0,0,1,.085.029c-.028.027-.057.056-.085.085a.616.616,0,0,0-.085.481,1.082,1.082,0,0,1-.029.567c-.028-.027-.057-.027-.113-.027-.113,0-.2.027-.227.113l.113.141a.088.088,0,0,1-.057.029l-.057.682.113.141c-.057,0-.057,0-.057.029l.057.057c.028.028,0,.055-.029.085h-.028a1.266,1.266,0,0,0-.057.312c0,.142.057.2.2.17,0,.029-.029.029-.085.029-.085,0-.143.029-.113.085.057,0,.113.029.113.057a.728.728,0,0,0-.057.37.559.559,0,0,0,.028.227.734.734,0,0,0,.142-.171c0-.028.028-.055.028-.083.029.055.057.113.085.169s.057.086.114.086h.141c.057,0,.085-.028.114-.086a1.551,1.551,0,0,0,.2.029.79.79,0,0,0,.227.029H42.6c.113,0,.227.028.34.028h.511a.6.6,0,0,0,.341-.086.1.1,0,0,1-.029-.056c0-.029.029-.057.057-.142a1.267,1.267,0,0,1,.028-.142c0-.056-.057-.114-.142-.142l.142-.085c-.057-.027-.085-.056-.085-.113a.14.14,0,0,1,.029-.085.21.21,0,0,0,.029-.113.087.087,0,0,0-.029-.057.212.212,0,0,1-.142-.029l.057-.056a.218.218,0,0,0,.114.028.027.027,0,0,0,.028-.028c0-.029,0-.029-.028-.057v-.085c0-.029,0-.057.028-.057-.057-.227-.113-.4-.142-.483a.357.357,0,0,0,.085-.057c.057-.056.057-.141.057-.255a.419.419,0,0,0-.085-.284.292.292,0,0,0,.029-.114.061.061,0,0,1,.057-.055c.029,0,.057.028.085.028-.029-.028-.057-.057-.057-.087s.028-.056.057-.113a.14.14,0,0,0,.028-.085c.086.058.113.085.171.085.028,0,.057-.056.113-.17.029-.113.085-.17.142-.17l.085.113a.983.983,0,0,0,.028-.313,2.217,2.217,0,0,0-.085-.624c-.085.086-.142.057-.227-.029m-2.613,3.066-.028-.056-.057-.086.057.057.028.029Zm.227.71h-.057v-.113H41.8Zm-.028-.994h-.029c-.019,0-.039.014-.059.041,0,.021,0,.045,0,.072a.028.028,0,0,0-.029-.029.3.3,0,0,1,.027-.044c0-.042-.008-.069-.027-.069h.227a.168.168,0,0,1-.113.028m1.164,1.022-.085.028.057-.085h.085Zm.113-2.612-.057.029V887.9h.085Zm.4.966.085-.085v.142h-.085l-.085.028ZM43.7,890.4l-.255-.227-.029-.029h.2a.107.107,0,0,0-.029.087s.029.027.057.056c.057.028.057.057.057.113" transform="translate(-24.399 -876.894)" fill="#000101"/>
      <path id="Trazado_38549" data-name="Trazado 38549" d="M47.41,885.927a.146.146,0,0,1,.057-.113.388.388,0,0,1-.085.056c-.056,0-.085-.027-.142-.056-.057-.057-.086-.085-.142-.057l-.029-1.448h-.085a2.479,2.479,0,0,1-.425-.028h-.511a.547.547,0,0,0-.227-.029h-.113a.353.353,0,0,1-.169-.029H45a1.727,1.727,0,0,0-.4.029c0-.029-.028.029-.028.169,0,.086.028.143.085.143a.836.836,0,0,0-.085.311,1.07,1.07,0,0,1-.029.369h-.681a.345.345,0,0,1-.085-.255c0-.142,0-.227-.029-.255a.382.382,0,0,0,.085-.285.731.731,0,0,0-.057-.312.668.668,0,0,1-.341,0,1.9,1.9,0,0,1-.4-.028h-.113c-.114-.028-.227-.028-.34-.057h-.029a2.945,2.945,0,0,0-.653-.085c-.057,0-.085-.028-.142-.028h-.453v.369a.641.641,0,0,0,.085.368,1.669,1.669,0,0,0-.114.511,4.7,4.7,0,0,0,.086.6h.056c0-.057.029-.114.057-.114.057.029.057.057.028.086.029,0,.029,0,.029-.029h.028a.075.075,0,0,1,.085.085c.029.084.029.113.057.141.028,0,.028-.028.057-.028a.249.249,0,0,0,.142-.029,6.007,6.007,0,0,1,.682-.113c.113,0,.226-.028.34-.028a.213.213,0,0,0,.113-.029h.653a4.884,4.884,0,0,1,.936.057v.37a4.148,4.148,0,0,1,.029.679.11.11,0,0,0,.085-.027.087.087,0,0,1,.057-.029c.085.029.142.085.142.142v.141c0,.057,0,.086.029.113H45c.114,0,.284.029.54.058.056,0,.113.028.169.028h.113a.564.564,0,0,0,.227.028c.085.028.2.028.284.057h.227a2.123,2.123,0,0,0,.425.029H47.1l-.029-.113.4-.057V886.1c-.085,0-.141,0-.141-.029a.217.217,0,0,1,.085-.028Zm-1.05.937c0,.028-.029.028-.029.057h-.113l-.029-.029H46.3a.028.028,0,0,1,.029-.028c.057,0,.057-.029.057-.056.029.027,0,.056-.028.056m.028-.2h-.057l-.022-.021a.037.037,0,0,0-.007.021l-.057.057-.028-.029.056-.057a.049.049,0,0,1,.036.008c.009-.011.022-.017.022-.037h.057c.029,0,.029,0,.057.029,0,.029-.028.029-.057.029" transform="translate(-24.389 -875.998)" fill="#000101"/>
      <path id="Trazado_38550" data-name="Trazado 38550" d="M49.608,890.079h.028v-.028h-.028l-.057.028Z" transform="translate(-27.013 -877.936)" fill="#000101"/>
      <path id="Trazado_38551" data-name="Trazado 38551" d="M48.957,889.781l-.028.014a.037.037,0,0,0,.028-.014" transform="translate(-26.816 -877.851)" fill="#000101"/>
      <path id="Trazado_38552" data-name="Trazado 38552" d="M49,889.761a.036.036,0,0,0-.028.014Z" transform="translate(-26.829 -877.844)" fill="#000101"/>
      <path id="Trazado_38553" data-name="Trazado 38553" d="M57.711,883.069a.333.333,0,0,1-.115-.057.223.223,0,0,1,.142-.057l-.027-.624c-.029,0-.057-.028-.085-.028s-.058.028-.086.113a.152.152,0,0,1-.113.085l-.056-.17a.579.579,0,0,0-.257-.057c-.085,0-.17.029-.312.029a1.261,1.261,0,0,1-.255.028h-.113V882.3h-.227a.5.5,0,0,0-.17-.029.219.219,0,0,0-.143.057l-.113-.085h-.795c-.057.029-.115.029-.172.057l-.226-.113c-.029.028-.029.056-.057.056,0,.029-.028.057-.028.114s-.029.085-.085.113a.907.907,0,0,0-.057-.169.062.062,0,0,1,.057-.057,1.258,1.258,0,0,1-.255-.028c-.113,0-.227-.028-.284-.028a.446.446,0,0,0-.227.056v.171c-.057,0-.085-.029-.114-.085-.056-.085-.056-.113-.085-.141h-.908a1.208,1.208,0,0,0-.539.056v1.363l1.5.029a.172.172,0,0,1,.028.113v.227a.265.265,0,0,0,.114.171.32.32,0,0,0-.085.227.68.68,0,0,1,0,.255l.4.057c.056,0,.255.029.567.029h.283c.057,0,.115.029.172.029h.227c.028,0,.085.028.113.028.142.028.255.058.369.085l-.085.085a.1.1,0,0,0-.085-.029.307.307,0,0,0-.142.029c-.028,0-.028.029-.057.029s-.057.027-.085.027a.027.027,0,0,1-.028-.027c-.029,0-.057,0-.057-.029l-.169.029-.455.056-.6.085.029.511a.145.145,0,0,1,.142-.114h.226a.729.729,0,0,0,.2-.056,2.435,2.435,0,0,0,.455-.17h.056a.4.4,0,0,1,.171-.057c.028-.027.085-.027.113-.057a1.4,1.4,0,0,1,.455-.057.63.63,0,0,1,.255-.085c.057,0,.113-.029.17-.029a.814.814,0,0,0,.312-.141H56.4c-.028,0-.057,0-.057-.027l-.113.112a.22.22,0,0,1-.086-.2c-.028-.114-.056-.171-.085-.171a.49.49,0,0,0,.143-.369c0-.027-.028-.17-.057-.4a.387.387,0,0,1,.369-.2,1.356,1.356,0,0,1,.453.029.842.842,0,0,0,.4-.029v.029h.341v-.455h.027a.085.085,0,0,0,.029-.056.062.062,0,0,0-.057-.057m-2.725-.341h.027c.029-.029.057,0,.085.029l.057-.029-.085.085.142.028.113.029c.171,0,.227.029.2.057l-.2-.057h-.113c-.085,0-.171.029-.227.029l-.057.056-.057-.056c0-.057.057-.115.115-.171m1.05.511c-.029.085-.085.142-.143.142l-.2-.142-.028.2c.028,0,.057.029.114.029v.142c0-.114-.086-.171-.256-.171l-.057.029-.029-.029c0-.029.029-.057.057-.086.057-.027.085-.055.085-.085l-.057-.057h0a.382.382,0,0,1-.2.17h-.113c-.085.028-.142.028-.142.057,0-.029.028-.029.028-.057a.717.717,0,0,0-.113-.085.087.087,0,0,1-.057-.029c-.143-.057-.227-.085-.227-.085l-.057-.056.114-.085.027.141.2-.085h.085l-.057-.057c.085.085.142.113.171.085h.029l.028-.029-.028-.028a.089.089,0,0,0-.057-.029h.256a.246.246,0,0,1-.085.17l-.029.029c0,.028.029.028.029.057h.057a.237.237,0,0,0,.141-.085h0l.029-.029a.086.086,0,0,1-.029-.056.061.061,0,0,1,.057-.057c.048-.025.075-.05.083-.093a.034.034,0,0,1,0-.049v.028a.179.179,0,0,1,0,.021.187.187,0,0,0,.031.036.089.089,0,0,0,.057.028h.142c-.084,0-.142.029-.142.057.029.057.058.057.115.057.027,0,.055,0,.113-.057l.057-.057a.027.027,0,0,1,.027-.028.73.73,0,0,1-.027.227" transform="translate(-27.791 -875.439)" fill="#000101"/>
      <path id="Trazado_38554" data-name="Trazado 38554" d="M55.554,886.089H55.44l-.567-.027v.112a4.75,4.75,0,0,0,.567-.057.175.175,0,0,1,.113-.027" transform="translate(-28.701 -876.671)" fill="#000101"/>
      <path id="Trazado_38555" data-name="Trazado 38555" d="M57.414,886.989v-.6c-.113.028-.283.085-.482.142s-.426.113-.71.2c-.029.029-.085.029-.114.057a.68.68,0,0,1-.227.057,3.917,3.917,0,0,1-.455.142,5.544,5.544,0,0,1-.6.171v1.107c.114.027.312.085.6.141a.354.354,0,0,1,.17.029c.113,0,.2.029.285.029.085.029.141.029.227.056a.168.168,0,0,1,.114.029,1.238,1.238,0,0,1,.142.029l.085-.114.141.171h.086a.992.992,0,0,1,.255.028h.028a2.325,2.325,0,0,0,.283.057c.029-.028.029-.057.029-.141.029-.058.057-.085.085-.085s.027,0,.057.027V888.1a.347.347,0,0,1-.029-.17.955.955,0,0,1,.029-.256,2.5,2.5,0,0,0,.056-.284.473.473,0,0,0-.141-.341c.028-.057.055-.057.085-.057" transform="translate(-28.687 -876.776)" fill="#000101"/>
      <path id="Trazado_38556" data-name="Trazado 38556" d="M56.855,889.867c0-.029,0-.056-.028-.056a.1.1,0,0,0-.085-.029.24.24,0,0,1-.17-.057h-.455c-.029,0-.085-.028-.113-.028-.085-.028-.142-.028-.227-.057s-.2-.057-.313-.085a.249.249,0,0,1-.142-.029,4.92,4.92,0,0,0-.539-.056.649.649,0,0,0-.227.027c0,.114.029.2.029.256a.383.383,0,0,0,.171.2l-.029.029c-.085,0-.142,0-.171-.029a.486.486,0,0,1,.029.2c0,.085-.029.227-.029.425a3.333,3.333,0,0,0-.056.454.806.806,0,0,0,.028.257c.057.028.085.028.085.055s-.029.085-.113.143a.1.1,0,0,0,.056-.029l.057-.029c.028,0,.057.057.057.114h1.646a.541.541,0,0,1,.227-.057c.029,0,.115.029.285.057a.379.379,0,0,0,.311-.028,5.461,5.461,0,0,0,.029-.767,7.928,7.928,0,0,0-.029-.88Zm-.085,1.164L56.712,891h.115a.1.1,0,0,0-.057.029" transform="translate(-28.582 -877.752)" fill="#000101"/>
    </g>
  </g>
</svg>
