<svg xmlns="http://www.w3.org/2000/svg" xmlns:xlink="http://www.w3.org/1999/xlink" width="85" height="85" viewBox="0 0 85 85">
  <defs>
    <filter id="Rectángulo_18130" x="0" y="0" width="85" height="85" filterUnits="userSpaceOnUse">
      <feOffset dy="3" input="SourceAlpha"/>
      <feGaussianBlur stdDeviation="3" result="blur"/>
      <feFlood flood-opacity="0.161"/>
      <feComposite operator="in" in2="blur"/>
      <feComposite in="SourceGraphic"/>
    </filter>
  </defs>
  <g id="Grupo_18852" data-name="Grupo 18852" transform="translate(-787 -1662)">
    <g transform="matrix(1, 0, 0, 1, 787, 1662)" filter="url(#Rectángulo_18130)">
      <rect id="Rectángulo_18130-2" data-name="Rectángulo 18130" width="67" height="67" rx="10" transform="translate(9 6)" fill="#fff"/>
    </g>
    <g id="Grupo_18270" data-name="Grupo 18270" transform="translate(804 1692)">
      <rect id="Rectángulo_337" data-name="Rectángulo 337" width="32.35" height="10.851" transform="translate(19.783)" fill="#d10040"/>
      <path id="Trazado_1062" data-name="Trazado 1062" d="M285.317,186.26a3.3,3.3,0,0,1-2.234.734,2.512,2.512,0,0,1-2.661-2.542,2.708,2.708,0,0,1,1.741-2.2,2.112,2.112,0,0,1-.615-1.423,2.178,2.178,0,0,1,2.322-2.027c1.457,0,2.507.636,2.507,2.027a2.453,2.453,0,0,1-1.434,2.014l.6.745a1.417,1.417,0,0,0,.286-.591h1.805a3.623,3.623,0,0,1-.918,1.895l1.6,1.916h-2.563Zm-2.059-2.573c-.318.164-.755.45-.755.843a.75.75,0,0,0,.745.734,1.454,1.454,0,0,0,.92-.469Zm.634-2.091a1,1,0,0,0,.625-.811.519.519,0,0,0-.525-.525.558.558,0,0,0-.58.536C283.412,181.07,283.7,181.365,283.892,181.6Z" transform="translate(-259.06 -177.75)" fill="#191717"/>
      <path id="Trazado_1063" data-name="Trazado 1063" d="M289.818,184.385c0,.305.066.427.294.427a1.783,1.783,0,0,0,.307-.021v.864a3.111,3.111,0,0,1-.79.143c-.5,0-.864-.175-.962-.691a2.905,2.905,0,0,1-1.961.691,1.722,1.722,0,0,1-1.938-1.654c0-1.413,1.127-1.643,2.179-1.765.9-.162,1.7-.064,1.7-.8,0-.647-.668-.766-1.174-.766-.7,0-1.193.284-1.246.9h-1.25c.087-1.455,1.325-1.882,2.576-1.882,1.105,0,2.266.448,2.266,1.643Zm-1.248-1.579a4.5,4.5,0,0,1-1.534.341c-.536.087-1.018.284-1.018.941,0,.559.711.723,1.15.723.546,0,1.4-.286,1.4-1.073Z" transform="translate(-254.131 -176.585)" fill="#191717"/>
      <path id="Trazado_1064" data-name="Trazado 1064" d="M287.715,179.981h1.172v1.1h.021a1.83,1.83,0,0,1,1.654-1.248,3.072,3.072,0,0,1,.472.032v1.206a4.143,4.143,0,0,0-.536-.055c-.856,0-1.534.689-1.534,1.938v2.7h-1.248Z" transform="translate(-250.79 -176.585)" fill="#191717"/>
      <path id="Trazado_1065" data-name="Trazado 1065" d="M289.511,180.8h.943v-1.7H291.7v1.7h1.127v.933H291.7v3.022c0,.514.043.779.6.779a2.08,2.08,0,0,0,.525-.045v.965c-.273.021-.536.066-.809.066-1.3,0-1.545-.506-1.566-1.447v-3.339h-.943Z" transform="translate(-248.754 -177.406)" fill="#191717"/>
      <path id="Trazado_1066" data-name="Trazado 1066" d="M292.643,183.826c.066.723.615.986,1.282.986.47,0,1.291-.1,1.259-.745s-.943-.734-1.852-.941-1.818-.527-1.818-1.677c0-1.238,1.336-1.62,2.367-1.62,1.161,0,2.213.48,2.364,1.741h-1.3c-.111-.591-.6-.755-1.15-.755-.363,0-1.031.087-1.031.58,0,.612.922.7,1.841.907s1.829.538,1.829,1.654c0,1.349-1.359,1.842-2.531,1.842-1.423,0-2.486-.636-2.507-1.972Z" transform="translate(-246.617 -176.585)" fill="#191717"/>
      <path id="Trazado_1067" data-name="Trazado 1067" d="M270.411,182.142v-1.08h.965v-.455a1.766,1.766,0,0,1,.489-1.285,1.987,1.987,0,0,1,1.479-.5c.143,0,.288.006.431.019s.284.019.42.028v1.2a5.232,5.232,0,0,0-.591-.034.629.629,0,0,0-.472.154.761.761,0,0,0-.141.519v.352H274.1v1.08h-1.114v4.8h-1.615v-4.8Z" transform="translate(-270.411 -177.727)" fill="#1a1718"/>
      <path id="Trazado_1068" data-name="Trazado 1068" d="M272.493,180.154v-1.332h1.615v1.332Zm1.615.909v5.877h-1.615v-5.877Z" transform="translate(-268.05 -177.727)" fill="#1a1718"/>
      <path id="Trazado_1069" data-name="Trazado 1069" d="M275.269,178.822v8.117h-1.615v-8.117Z" transform="translate(-266.734 -177.727)" fill="#1a1718"/>
      <path id="Trazado_1070" data-name="Trazado 1070" d="M276.337,179.957v.8h.024a2.289,2.289,0,0,1,.766-.7,2.064,2.064,0,0,1,1.029-.252,2.384,2.384,0,0,1,1.018.216,1.441,1.441,0,0,1,.7.762,2.47,2.47,0,0,1,.711-.681,1.875,1.875,0,0,1,1.063-.3,3.166,3.166,0,0,1,.862.113,1.754,1.754,0,0,1,.683.365,1.666,1.666,0,0,1,.444.653,2.643,2.643,0,0,1,.158.973v3.933H282.18V182.5c0-.2-.009-.382-.023-.557a1.168,1.168,0,0,0-.124-.454.758.758,0,0,0-.3-.307,1.11,1.11,0,0,0-.54-.113,1.034,1.034,0,0,0-.553.13.951.951,0,0,0-.329.341,1.408,1.408,0,0,0-.16.476,3.813,3.813,0,0,0-.038.542v3.273H278.5v-3.3c0-.175,0-.346-.011-.519a1.5,1.5,0,0,0-.1-.469.735.735,0,0,0-.286-.348,1.064,1.064,0,0,0-.585-.13,1.219,1.219,0,0,0-.3.051,1,1,0,0,0-.363.192,1.129,1.129,0,0,0-.3.41,1.672,1.672,0,0,0-.124.7v3.41h-1.613v-5.877Z" transform="translate(-265.416 -176.622)" fill="#1a1718"/>
      <path id="Trazado_1071" data-name="Trazado 1071" d="M279.88,184.245h1.586v.429h-1.038v.569h.831v.4h-.831v.606h1.093v.429H279.88Z" transform="translate(-259.675 -171.578)" fill="#1a1718"/>
      <path id="Trazado_1072" data-name="Trazado 1072" d="M280.829,184.245h.552v2h.991v.433h-1.542Z" transform="translate(-258.598 -171.578)" fill="#1a1718"/>
      <path id="Trazado_1073" data-name="Trazado 1073" d="M282.788,184.245h.717l.79,2.435h-.574l-.166-.54h-.883l-.166.54h-.516Zm0,1.5h.644l-.32-1.052Z" transform="translate(-257.284 -171.578)" fill="#1a1718"/>
      <path id="Trazado_1074" data-name="Trazado 1074" d="M283.226,184.245h.871c.576,0,.941.237.941.74V185a.634.634,0,0,1-.5.647l.645,1.035h-.587l-.583-.939h-.237v.939h-.548Zm.858,1.12c.275,0,.416-.115.416-.35V185c0-.25-.151-.335-.416-.335h-.309v.7Z" transform="translate(-255.88 -171.578)" fill="#1a1718"/>
      <path id="Trazado_1075" data-name="Trazado 1075" d="M284.847,184.674h-.657v-.429h1.869v.429H285.4v2.005h-.555Z" transform="translate(-254.787 -171.578)" fill="#1a1718"/>
      <path id="Trazado_1076" data-name="Trazado 1076" d="M285.227,184.245h1.586v.429h-1.038v.569h.83v.4h-.83v.606h1.092v.429h-1.641Z" transform="translate(-253.611 -171.578)" fill="#1a1718"/>
      <path id="Trazado_1077" data-name="Trazado 1077" d="M286.531,184.245h.8a1.121,1.121,0,0,1,1.278,1.193v.028a1.138,1.138,0,0,1-1.28,1.214h-.794Zm.777,2.006c.489,0,.721-.275.721-.779v-.028c0-.5-.216-.77-.728-.77h-.22v1.577Z" transform="translate(-252.133 -171.578)" fill="#1a1718"/>
      <path id="Trazado_1078" data-name="Trazado 1078" d="M287.69,184.245h1.586v.429h-1.038v.569h.831v.4h-.831v.606h1.092v.429h-1.64Z" transform="translate(-250.819 -171.578)" fill="#1a1718"/>
      <path id="Trazado_1079" data-name="Trazado 1079" d="M288.639,184.245h.552v2h.99v.433h-1.542Z" transform="translate(-249.742 -171.578)" fill="#1a1718"/>
      <path id="Trazado_1080" data-name="Trazado 1080" d="M279.88,185.685h1.586v.429h-1.038v.569h.831v.4h-.831v.606h1.093v.429H279.88Z" transform="translate(-259.675 -169.946)" fill="#1a1718"/>
      <path id="Trazado_1081" data-name="Trazado 1081" d="M280.829,185.685h.64l.926,1.6v-1.6h.49v2.434h-.551l-1.014-1.733v1.733h-.491Z" transform="translate(-258.598 -169.946)" fill="#1a1718"/>
      <path id="Trazado_1082" data-name="Trazado 1082" d="M282.611,186.114h-.657v-.429h1.869v.429h-.657v2.005h-.555Z" transform="translate(-257.322 -169.946)" fill="#1a1718"/>
      <path id="Trazado_1083" data-name="Trazado 1083" d="M282.991,185.684h.873c.574,0,.939.237.939.74v.013a.629.629,0,0,1-.5.647l.642,1.035h-.585l-.583-.939h-.239v.939h-.548Zm.858,1.122q.416,0,.416-.352v-.013c0-.25-.149-.335-.416-.335h-.309v.7Z" transform="translate(-256.147 -169.946)" fill="#1a1718"/>
      <path id="Trazado_1084" data-name="Trazado 1084" d="M284.064,185.685h1.586v.429h-1.039v.569h.832v.4h-.832v.606H285.7v.429h-1.641Z" transform="translate(-254.93 -169.946)" fill="#1a1718"/>
      <path id="Trazado_1085" data-name="Trazado 1085" d="M285.586,186.114h-.657v-.429H286.8v.429h-.658v2.005h-.555Z" transform="translate(-253.949 -169.946)" fill="#1a1718"/>
      <path id="Trazado_1086" data-name="Trazado 1086" d="M285.966,185.685h1.586v.429h-1.038v.569h.831v.4h-.831v.606h1.093v.429h-1.641Z" transform="translate(-252.773 -169.946)" fill="#1a1718"/>
      <path id="Trazado_1087" data-name="Trazado 1087" d="M286.916,185.685h.64l.926,1.6v-1.6h.49v2.434h-.551l-1.015-1.733v1.733h-.49Z" transform="translate(-251.696 -169.946)" fill="#1a1718"/>
      <rect id="Rectángulo_338" data-name="Rectángulo 338" width="0.554" height="2.434" transform="translate(37.815 15.739)" fill="#1a1718"/>
      <path id="Trazado_1088" data-name="Trazado 1088" d="M288.644,185.685h.728l.569,1.515.561-1.515h.715v2.434h-.549V186.41L290,188.119h-.18l-.677-1.709v1.709h-.493Z" transform="translate(-249.737 -169.946)" fill="#1a1718"/>
      <rect id="Rectángulo_339" data-name="Rectángulo 339" width="0.555" height="2.434" transform="translate(42.024 15.739)" fill="#1a1718"/>
      <path id="Trazado_1089" data-name="Trazado 1089" d="M290.617,185.685H292.2v.429h-1.038v.569H292v.4h-.831v.606h1.093v.429h-1.64Z" transform="translate(-247.5 -169.946)" fill="#1a1718"/>
      <path id="Trazado_1090" data-name="Trazado 1090" d="M291.566,185.685h.639l.926,1.6v-1.6h.49v2.434h-.552l-1.014-1.733v1.733h-.49Z" transform="translate(-246.423 -169.946)" fill="#1a1718"/>
      <path id="Trazado_1091" data-name="Trazado 1091" d="M293.348,186.114h-.657v-.429h1.869v.429H293.9v2.005h-.555Z" transform="translate(-245.148 -169.946)" fill="#1a1718"/>
      <path id="Trazado_1092" data-name="Trazado 1092" d="M293.622,186.934v-.026a1.2,1.2,0,0,1,1.25-1.24,1.183,1.183,0,0,1,1.253,1.225v.028a1.252,1.252,0,0,1-2.5.013m1.929-.006V186.9c0-.474-.252-.8-.679-.8s-.676.309-.676.8v.028a.708.708,0,0,0,.685.8c.412,0,.67-.316.67-.807" transform="translate(-244.092 -169.963)" fill="#1a1718"/>
    </g>
  </g>
</svg>
