<svg xmlns="http://www.w3.org/2000/svg" xmlns:xlink="http://www.w3.org/1999/xlink" width="86" height="84" viewBox="0 0 86 84">
  <defs>
    <filter id="Rectángulo_18268" x="0" y="0" width="86" height="84" filterUnits="userSpaceOnUse">
      <feOffset dy="3" input="SourceAlpha"/>
      <feGaussianBlur stdDeviation="3" result="blur"/>
      <feFlood flood-opacity="0.161"/>
      <feComposite operator="in" in2="blur"/>
      <feComposite in="SourceGraphic"/>
    </filter>
  </defs>
  <g id="Ginx" transform="translate(-1138 -1112)">
    <g transform="matrix(1, 0, 0, 1, 1138, 1112)" filter="url(#Rectángulo_18268)">
      <rect id="Rectángulo_18268-2" data-name="Rectángulo 18268" width="68" height="66" rx="10" transform="translate(9 6)" fill="#f7fcfe"/>
    </g>
    <g id="Grupo_19236" data-name="Grupo 19236" transform="translate(1155 1140)">
      <path id="Trazado_38805" data-name="Trazado 38805" d="M299.463,1144.276H284.7v-14.765h14.765v4.519h-9.857a.39.39,0,0,0-.39.39v4.948a.389.389,0,0,0,.39.39h4.944a.389.389,0,0,0,.39-.39.377.377,0,0,0-.377-.377H290.1a.111.111,0,0,1-.111-.111v-3.971a.111.111,0,0,1,.111-.111h9.368Z" transform="translate(-284.698 -1129.509)" fill="#000101"/>
      <rect id="Rectángulo_17981" data-name="Rectángulo 17981" width="4.934" height="9.48" transform="translate(15.532 5.288)" fill="#000101"/>
      <rect id="Rectángulo_17982" data-name="Rectángulo 17982" width="4.934" height="4.519" transform="translate(15.532 0.002)" fill="#c2d848"/>
      <path id="Trazado_38806" data-name="Trazado 38806" d="M325.4,1144.276h-4.952v-9.863h-4.862v9.863h-4.952V1129.51H325.4Z" transform="translate(-289.403 -1129.508)" fill="#000101"/>
      <path id="Trazado_38807" data-name="Trazado 38807" d="M344.374,1140.652l-3.761-3.761,3.761-3.761v-3.622h-3.622l-3.761,3.761-3.762-3.761h-3.622v3.622l3.761,3.761-3.761,3.761v3.622h3.622l3.762-3.761,3.761,3.761h3.622Z" transform="translate(-292.844 -1129.508)" fill="#000101"/>
      <path id="Trazado_38808" data-name="Trazado 38808" d="M284.723,1154.913v-3.891a.413.413,0,0,1,.419-.419h2.749a.375.375,0,0,1,.372.372.37.37,0,0,1-.372.372h-2.337v1.23h2.033a.376.376,0,0,1,.372.378.369.369,0,0,1-.372.364h-2.033v1.27h2.372a.375.375,0,0,1,.371.372.37.37,0,0,1-.371.372h-2.783a.413.413,0,0,1-.419-.419" transform="translate(-284.703 -1133.334)" fill="#c2d848"/>
      <path id="Trazado_38809" data-name="Trazado 38809" d="M291.685,1154.79a.394.394,0,0,1,.473-.629,2.047,2.047,0,0,0,1.324.487c.513,0,.837-.243.837-.6v-.013c0-.338-.189-.521-1.067-.723-1.007-.243-1.574-.54-1.574-1.412v-.013a1.446,1.446,0,0,1,1.614-1.372,2.6,2.6,0,0,1,1.5.44.374.374,0,0,1,.183.331.387.387,0,0,1-.392.385.4.4,0,0,1-.216-.061,1.969,1.969,0,0,0-1.087-.358c-.487,0-.77.25-.77.561v.013c0,.365.216.527,1.128.743,1,.243,1.513.6,1.513,1.385v.013c0,.886-.7,1.412-1.689,1.412a2.941,2.941,0,0,1-1.776-.594" transform="translate(-285.936 -1133.319)" fill="#000101"/>
      <path id="Trazado_38810" data-name="Trazado 38810" d="M298.769,1151.022a.413.413,0,0,1,.419-.419h1.446a1.588,1.588,0,0,1,1.8,1.581v.014c0,1.06-.851,1.614-1.892,1.614H299.6v1.142a.415.415,0,0,1-.831,0Zm1.8,2.04c.628,0,1.02-.351,1.02-.844v-.014c0-.554-.4-.845-1.02-.845H299.6v1.7Z" transform="translate(-287.25 -1133.334)" fill="#000101"/>
      <path id="Trazado_38811" data-name="Trazado 38811" d="M305.643,1152.963v-.013a2.473,2.473,0,0,1,4.945-.014v.014a2.473,2.473,0,0,1-4.945.013m4.073,0v-.013a1.62,1.62,0,0,0-1.608-1.682,1.6,1.6,0,0,0-1.595,1.668v.014a1.614,1.614,0,0,0,1.608,1.675,1.592,1.592,0,0,0,1.595-1.662" transform="translate(-288.497 -1133.316)" fill="#000101"/>
      <path id="Trazado_38812" data-name="Trazado 38812" d="M314.532,1151.021a.412.412,0,0,1,.418-.419h1.689a1.905,1.905,0,0,1,1.365.473,1.428,1.428,0,0,1,.392,1.02v.014a1.4,1.4,0,0,1-1.074,1.411l.905,1.142a.482.482,0,0,1,.135.318.392.392,0,0,1-.4.385.474.474,0,0,1-.405-.216l-1.149-1.466h-1.047v1.271a.415.415,0,0,1-.831,0Zm2.047,1.925c.594,0,.972-.311.972-.791v-.013c0-.507-.364-.784-.979-.784h-1.209v1.587Z" transform="translate(-290.109 -1133.334)" fill="#000101"/>
      <path id="Trazado_38813" data-name="Trazado 38813" d="M323.17,1151.372h-1.149a.385.385,0,1,1,0-.769h3.141a.385.385,0,0,1,0,.769h-1.155v3.581a.419.419,0,0,1-.837,0Z" transform="translate(-291.398 -1133.334)" fill="#000101"/>
      <path id="Trazado_38814" data-name="Trazado 38814" d="M328.747,1154.79a.394.394,0,0,1,.473-.629,2.047,2.047,0,0,0,1.324.487c.513,0,.837-.243.837-.6v-.013c0-.338-.189-.521-1.067-.723-1.007-.243-1.574-.54-1.574-1.412v-.013a1.446,1.446,0,0,1,1.614-1.372,2.6,2.6,0,0,1,1.5.44.374.374,0,0,1,.183.331.387.387,0,0,1-.392.385.4.4,0,0,1-.216-.061,1.969,1.969,0,0,0-1.087-.358c-.487,0-.77.25-.77.561v.013c0,.365.216.527,1.128.743,1,.243,1.513.6,1.513,1.385v.013c0,.886-.7,1.412-1.689,1.412a2.941,2.941,0,0,1-1.776-.594" transform="translate(-292.658 -1133.319)" fill="#000101"/>
      <path id="Trazado_38815" data-name="Trazado 38815" d="M336.786,1151.372h-1.148a.385.385,0,1,1,0-.769h3.141a.385.385,0,0,1,0,.769h-1.155v3.581a.419.419,0,0,1-.837,0Z" transform="translate(-293.868 -1133.334)" fill="#c2d848"/>
      <path id="Trazado_38816" data-name="Trazado 38816" d="M343.97,1155.054l-1.655-3.891a.469.469,0,0,1-.047-.2.41.41,0,0,1,.419-.405.436.436,0,0,1,.426.3l1.365,3.412,1.385-3.439a.428.428,0,0,1,.4-.27.4.4,0,0,1,.412.4.479.479,0,0,1-.041.176l-1.662,3.918a.5.5,0,0,1-.48.338h-.047a.492.492,0,0,1-.473-.338" transform="translate(-295.14 -1133.327)" fill="#c2d848"/>
    </g>
  </g>
</svg>
