<svg xmlns="http://www.w3.org/2000/svg" xmlns:xlink="http://www.w3.org/1999/xlink" width="85" height="85" viewBox="0 0 85 85">
  <defs>
    <filter id="Rectángulo_18090" x="0" y="0" width="85" height="85" filterUnits="userSpaceOnUse">
      <feOffset dy="3" input="SourceAlpha"/>
      <feGaussianBlur stdDeviation="3" result="blur"/>
      <feFlood flood-opacity="0.161"/>
      <feComposite operator="in" in2="blur"/>
      <feComposite in="SourceGraphic"/>
    </filter>
    <clipPath id="clip-path">
      <rect id="Rectángulo_27217" data-name="Rectángulo 27217" width="54.962" height="16.71" fill="none"/>
    </clipPath>
  </defs>
  <g id="Grupo_40747" data-name="Grupo 40747" transform="translate(8049 -3055)">
    <g transform="matrix(1, 0, 0, 1, -8049, 3055)" filter="url(#Rectángulo_18090)">
      <rect id="Rectángulo_18090-2" data-name="Rectángulo 18090" width="67" height="67" rx="10" transform="translate(9 6)" fill="#fff"/>
    </g>
    <g id="Grupo_40746" data-name="Grupo 40746" transform="translate(-8034 3086)">
      <g id="Grupo_40745" data-name="Grupo 40745" transform="translate(0 0)" clip-path="url(#clip-path)">
        <path id="Trazado_83681" data-name="Trazado 83681" d="M18.086,10.367a2.38,2.38,0,0,0-.5-3.331,2.242,2.242,0,0,0-1.2-.423,2.371,2.371,0,0,0,.851-1.619,2.378,2.378,0,0,0-3.551-2.25A2.388,2.388,0,0,0,13,.663,2.291,2.291,0,0,0,11.362,0,2.368,2.368,0,0,0,9.279,1.266,2.363,2.363,0,0,0,7.2,0,2.291,2.291,0,0,0,5.562.663a2.382,2.382,0,0,0-.688,2.081,2.426,2.426,0,0,0-2.777.3,2.4,2.4,0,0,0-.773,1.947,2.369,2.369,0,0,0,.849,1.619,2.236,2.236,0,0,0-1.2.423A2.478,2.478,0,0,0,.106,8.21,2.4,2.4,0,0,0,.483,10.38a2.384,2.384,0,0,0,1.911.929H16.166a2.38,2.38,0,0,0,1.911-.931Z" transform="translate(0 0.001)" fill="#fff"/>
        <path id="Trazado_83682" data-name="Trazado 83682" d="M2.849,1.561a1.985,1.985,0,0,0-1.276.483,1.887,1.887,0,0,0-.6,1.515A1.86,1.86,0,0,0,1.9,5.005L7.115,8.6,4.586,2.829A1.861,1.861,0,0,0,2.849,1.561" transform="translate(0.87 1.399)" fill="#e95b24"/>
        <path id="Trazado_83683" data-name="Trazado 83683" d="M6.238,1.178a1.9,1.9,0,0,1,.231,1.19S5.457,8.448,5.45,8.45L2.917,2.668A1.842,1.842,0,0,1,3.4.786,1.815,1.815,0,0,1,5.363.416a1.955,1.955,0,0,1,.876.762" transform="translate(2.535 0.248)" fill="#bb002a"/>
        <path id="Trazado_83684" data-name="Trazado 83684" d="M9.844,1.561a1.985,1.985,0,0,1,1.276.483,1.887,1.887,0,0,1,.6,1.515A1.86,1.86,0,0,1,10.8,5.005L5.579,8.6,8.108,2.829A1.861,1.861,0,0,1,9.844,1.561" transform="translate(4.997 1.399)" fill="#0088d1"/>
        <path id="Trazado_83685" data-name="Trazado 83685" d="M5.81,2.135c.061,0,.154.047.165.1-.32.2-.853.428-.787.9l.074.512c.3,1.784.8,4.8.808,4.8L8.6,2.67A1.836,1.836,0,0,0,8.121.787,1.811,1.811,0,0,0,6.157.418a1.955,1.955,0,0,0-.876.762,1.945,1.945,0,0,0-.25.955Z" transform="translate(4.506 0.248)" fill="#6964a8"/>
        <path id="Trazado_83686" data-name="Trazado 83686" d="M11.375,3.764a1.811,1.811,0,0,1,1.683,1.219,1.894,1.894,0,0,1-.288,1.708,1.864,1.864,0,0,1-1.5.724H5.461l4.794-3.306a2.1,2.1,0,0,1,1.12-.345" transform="translate(4.891 3.372)" fill="#64a51c"/>
        <path id="Trazado_83687" data-name="Trazado 83687" d="M2.046,3.764A1.811,1.811,0,0,0,.363,4.983,1.894,1.894,0,0,0,.651,6.691a1.864,1.864,0,0,0,1.5.724H7.96L3.166,4.109a2.1,2.1,0,0,0-1.12-.345" transform="translate(0.248 3.372)" fill="#ffb000"/>
        <path id="Trazado_83688" data-name="Trazado 83688" d="M40.34,2.222h3.812a.551.551,0,0,0,.483-.3l.787-1.8H39.36a1.3,1.3,0,0,0-1.295,1.293v9.34l-.6-1.374A.512.512,0,0,0,37,9.092H33.023V.844A.719.719,0,0,0,32.3.125H30.748V1.862a6.23,6.23,0,0,1,.614,2.286,5.662,5.662,0,0,0-11.057.692H17.261a.484.484,0,0,0-.447.277l-.726,1.661H19.5a3.372,3.372,0,0,1-3.251,2.455,3.454,3.454,0,0,1-3.4-3.575,3.469,3.469,0,0,1,3.433-3.575,4.424,4.424,0,0,1,2.47.895.457.457,0,0,0,.629-.133l.792-1.382A5.94,5.94,0,0,0,16.328,0a5.655,5.655,0,1,0-.112,11.309,5.711,5.711,0,0,0,5.53-4.47,5.335,5.335,0,0,1-.373,2.2,5.67,5.67,0,0,0,9.376-.449V9.886a1.3,1.3,0,0,0,1.295,1.3H39.62a.718.718,0,0,0,.72-.717V6.779h3.242a.555.555,0,0,0,.485-.3l.72-1.642H40.34ZM25.907,9.232a3.482,3.482,0,0,1-3.37-3.575,3.376,3.376,0,1,1,6.741,0,3.482,3.482,0,0,1-3.37,3.575" transform="translate(9.454 0.002)" fill="#171716"/>
        <path id="Trazado_83689" data-name="Trazado 83689" d="M10.927,10.343a.378.378,0,0,1-.383-.383V7.067h.463a.2.2,0,0,1,.21.21V9.725h1.067a.171.171,0,0,1,.15.089l.248.529Z" transform="translate(9.444 6.33)" fill="#171716"/>
        <path id="Trazado_83690" data-name="Trazado 83690" d="M14.332,10.343a.322.322,0,0,1-.29-.21l-.169-.468H12.7l-.243.679h-.478c-.159,0-.188-.095-.131-.245l1.128-3.031h.36a.392.392,0,0,1,.37.252l1.122,3.024ZM13.293,8.017l-.392,1.1h.781Z" transform="translate(10.592 6.33)" fill="#171716"/>
        <path id="Trazado_83691" data-name="Trazado 83691" d="M14.395,10.343a.2.2,0,0,1-.21-.21V7.685h-.815V7.277a.2.2,0,0,1,.21-.21h2.093V7.4c0,.216-.169.286-.385.286h-.43v2.658Z" transform="translate(11.974 6.33)" fill="#171716"/>
        <path id="Trazado_83692" data-name="Trazado 83692" d="M15.223,10.343a.378.378,0,0,1-.383-.383V7.067H15.3a.2.2,0,0,1,.21.21v3.065Z" transform="translate(13.291 6.33)" fill="#171716"/>
        <path id="Trazado_83693" data-name="Trazado 83693" d="M17.786,10.343a.457.457,0,0,1-.408-.233L16.3,8.261v2.081h-.463a.2.2,0,0,1-.21-.21V7.067h.4a.459.459,0,0,1,.408.235l1.113,1.884V7.067h.463a.2.2,0,0,1,.212.21v3.065Z" transform="translate(13.998 6.33)" fill="#171716"/>
        <path id="Trazado_83694" data-name="Trazado 83694" d="M20.415,10.343a.322.322,0,0,1-.29-.21l-.169-.468h-1.17l-.243.679h-.478c-.159,0-.188-.095-.131-.245l1.128-3.031h.36a.392.392,0,0,1,.37.252l1.122,3.024ZM19.376,8.017l-.392,1.1h.781Z" transform="translate(16.04 6.33)" fill="#171716"/>
        <path id="Trazado_83695" data-name="Trazado 83695" d="M22.5,10.343V8.195l-.7,2.148h-.37a.39.39,0,0,1-.4-.3L20.411,8.2v2.138h-.673V7.067h.669a.429.429,0,0,1,.4.318l.656,1.992.749-2.311h.571a.361.361,0,0,1,.392.328v2.948Z" transform="translate(17.678 6.33)" fill="#171716"/>
        <path id="Trazado_83696" data-name="Trazado 83696" d="M22.372,10.343a.384.384,0,0,1-.383-.383V7.067h2.189L23.93,7.6a.172.172,0,0,1-.15.089H22.656v.758h1.331l-.216.481a.172.172,0,0,1-.15.089h-.965v.711h1.513l-.248.529a.171.171,0,0,1-.15.089Z" transform="translate(19.694 6.33)" fill="#171716"/>
        <path id="Trazado_83697" data-name="Trazado 83697" d="M25.325,10.343a.432.432,0,0,1-.341-.21l-.548-.94h-.315v1.151h-.463a.2.2,0,0,1-.21-.21V7.067h1.183A1.074,1.074,0,0,1,25.7,8.138a1.047,1.047,0,0,1-.6.946l.772,1.259Zm-.768-1.727a.463.463,0,0,0,.453-.478.455.455,0,0,0-.453-.453h-.436v.931Z" transform="translate(21.001 6.33)" fill="#171716"/>
        <path id="Trazado_83698" data-name="Trazado 83698" d="M25.4,10.343a.378.378,0,0,1-.383-.383V7.067h.463a.2.2,0,0,1,.21.21v3.065Z" transform="translate(22.403 6.33)" fill="#171716"/>
        <path id="Trazado_83699" data-name="Trazado 83699" d="M28.548,9.995a1.742,1.742,0,0,1-1.147.4,1.675,1.675,0,1,1,.006-3.35,1.741,1.741,0,0,1,1.145.4l-.237.4a.153.153,0,0,1-.212.047,1.239,1.239,0,0,0-.686-.235A1.018,1.018,0,0,0,26.4,8.723a1.017,1.017,0,0,0,1.016,1.062,1.208,1.208,0,0,0,.682-.235.153.153,0,0,1,.21.047Z" transform="translate(23.025 6.312)" fill="#171716"/>
        <path id="Trazado_83700" data-name="Trazado 83700" d="M29.914,10.343a.322.322,0,0,1-.29-.21l-.169-.468h-1.17l-.243.679h-.478c-.159,0-.188-.095-.131-.245l1.128-3.031h.36a.392.392,0,0,1,.37.252l1.122,3.024ZM28.875,8.017l-.392,1.1h.781Z" transform="translate(24.547 6.33)" fill="#171716"/>
      </g>
    </g>
  </g>
</svg>
