<svg xmlns="http://www.w3.org/2000/svg" xmlns:xlink="http://www.w3.org/1999/xlink" width="85" height="85" viewBox="0 0 85 85">
  <defs>
    <filter id="Rectángulo_18110" x="0" y="0" width="85" height="85" filterUnits="userSpaceOnUse">
      <feOffset dy="3" input="SourceAlpha"/>
      <feGaussianBlur stdDeviation="3" result="blur"/>
      <feFlood flood-opacity="0.161"/>
      <feComposite operator="in" in2="blur"/>
      <feComposite in="SourceGraphic"/>
    </filter>
  </defs>
  <g id="Grupo_18844" data-name="Grupo 18844" transform="translate(-876 -1582)">
    <g transform="matrix(1, 0, 0, 1, 876, 1582)" filter="url(#Rectángulo_18110)">
      <rect id="Rectángulo_18110-2" data-name="Rectángulo 18110" width="67" height="67" rx="10" transform="translate(9 6)" fill="#fff"/>
    </g>
    <g id="_354_Grupo_Fórmula_Color" data-name="354 Grupo Fórmula Color" transform="translate(893 1606)">
      <g id="Grupo_18261" data-name="Grupo 18261" transform="translate(0 0)">
        <g id="Grupo_18260" data-name="Grupo 18260" transform="translate(0 22.636)">
          <g id="Grupo_18258" data-name="Grupo 18258" transform="translate(0 0.128)">
            <path id="Trazado_40277" data-name="Trazado 40277" d="M4.835,87.608a4.413,4.413,0,0,0-1.652-.343A2.53,2.53,0,0,0,.623,90.072a2.453,2.453,0,0,0,2.514,2.769,4.044,4.044,0,0,0,1.313-.21V90.063h.586V93a5.834,5.834,0,0,1-1.991.354A2.894,2.894,0,0,1,0,90.178a3.171,3.171,0,0,1,3.257-3.42,5.266,5.266,0,0,1,1.67.269Z" transform="translate(0 -86.745)" fill="#9c9691"/>
            <path id="Trazado_40278" data-name="Trazado 40278" d="M24.306,93.778c-1.038-.171-1.533.7-1.533,2.35v1.89h-.578V93.273h.588a6.9,6.9,0,0,1-.121,1.242l.019.01A1.5,1.5,0,0,1,24.333,93.2Z" transform="translate(-16.367 -91.483)" fill="#9c9691"/>
            <path id="Trazado_40279" data-name="Trazado 40279" d="M35.44,98.271a7.126,7.126,0,0,1,.083-1.1l-.019-.009a1.692,1.692,0,0,1-1.652,1.194c-1.055,0-1.376-.679-1.376-1.527v-3.3h.578v3.085c0,.793.2,1.26.927,1.26.862,0,1.468-.879,1.468-2.072V93.524h.578v4.747Z" transform="translate(-23.949 -91.734)" fill="#9c9691"/>
            <path id="Trazado_40280" data-name="Trazado 40280" d="M51.741,95.527c0,1.49-.66,2.111-1.66,2.111a2.687,2.687,0,0,1-.955-.144V95.766c0-.85.459-2.044,1.441-2.044.807,0,1.174.679,1.174,1.805m.606-.057c0-1.48-.615-2.234-1.689-2.234a1.675,1.675,0,0,0-1.588,1.174l-.018-.009a6.031,6.031,0,0,0,.082-1.089h-.588v6.7h.579V98.049a5.793,5.793,0,0,0,.908.057c1.395,0,2.313-.917,2.313-2.636" transform="translate(-35.802 -91.521)" fill="#9c9691"/>
            <path id="Trazado_40281" data-name="Trazado 40281" d="M68.039,95.641c0,1.395-.7,2-1.45,2-.945,0-1.478-.725-1.478-1.986,0-1.328.716-1.93,1.469-1.93.964,0,1.459.726,1.459,1.92m.6-.028c0-1.767-.927-2.378-1.993-2.378A2.22,2.22,0,0,0,64.506,95.7c0,1.663.771,2.436,1.982,2.436a2.264,2.264,0,0,0,2.149-2.521" transform="translate(-47.571 -91.521)" fill="#9c9691"/>
            <path id="Trazado_40282" data-name="Trazado 40282" d="M83.41,87.773v1.562h1.4v1.158h-1.4v2.749H82.2V86.708h3.716v1.066Z" transform="translate(-60.62 -86.708)" fill="#9c9691"/>
            <path id="Trazado_40283" data-name="Trazado 40283" d="M96.949,95.383c0,.978-.446,1.472-1.032,1.472-.689,0-1.033-.5-1.033-1.491s.521-1.414,1.052-1.414c.7,0,1.014.5,1.014,1.432m1.228-.067c0-1.655-.846-2.41-2.158-2.41a2.378,2.378,0,0,0-2.365,2.584c0,1.713.847,2.42,2.159,2.42a2.391,2.391,0,0,0,2.363-2.594" transform="translate(-69.067 -91.279)" fill="#9c9691"/>
            <path id="Trazado_40284" data-name="Trazado 40284" d="M115.248,94.07c-.855-.185-1.283.4-1.283,1.732v1.965h-1.191V92.956H113.9a6.629,6.629,0,0,1-.084.969h.018a1.411,1.411,0,0,1,1.47-1.074Z" transform="translate(-83.167 -91.233)" fill="#9c9691"/>
            <path id="Trazado_40285" data-name="Trazado 40285" d="M130.251,97.784V94.735c0-.513-.111-.833-.548-.833-.52,0-1.061.639-1.061,1.578v2.3H127.47V94.735c0-.473-.093-.833-.549-.833-.549,0-1.06.678-1.06,1.578v2.3h-1.192V92.973H125.8a5.723,5.723,0,0,1-.066.862h.019a1.65,1.65,0,0,1,1.525-.968,1.206,1.206,0,0,1,1.275.968,1.635,1.635,0,0,1,1.508-.968c.892,0,1.385.514,1.385,1.606v3.311Z" transform="translate(-91.939 -91.25)" fill="#9c9691"/>
            <path id="Trazado_40286" data-name="Trazado 40286" d="M156.109,98.081a5.364,5.364,0,0,1,.056-.851l-.01-.01a1.671,1.671,0,0,1-1.571.968c-1.043,0-1.378-.7-1.378-1.538v-3.38h1.181v3.079c0,.5.131.8.577.8.6,0,1.07-.715,1.07-1.556V93.269h1.191v4.812Z" transform="translate(-112.984 -91.546)" fill="#9c9691"/>
            <rect id="Rectángulo_18122" data-name="Rectángulo 18122" width="1.191" height="6.523" transform="translate(45.153 0.012)" fill="#9c9691"/>
            <path id="Trazado_40287" data-name="Trazado 40287" d="M181.224,95.77a1.094,1.094,0,0,1-.985,1.163.5.5,0,0,1-.549-.514c0-.386.278-.764,1.535-.764Zm1.22,2.014c-.018-.4-.028-.851-.028-1.239v-2c0-1.045-.419-1.674-1.908-1.674a4.9,4.9,0,0,0-1.656.3l.1,1.037a2.929,2.929,0,0,1,1.367-.378c.67,0,.9.261.9.765v.261c-1.572,0-2.67.61-2.67,1.761a1.2,1.2,0,0,0,1.322,1.269,1.563,1.563,0,0,0,1.479-.919l.009.009a5.845,5.845,0,0,0-.046.813Z" transform="translate(-131.677 -91.25)" fill="#9c9691"/>
            <path id="Trazado_40288" data-name="Trazado 40288" d="M104.389,87.347l-1.564.74-.257-.343,1.347-1.028Z" transform="translate(-75.64 -86.714)" fill="#9c9691"/>
          </g>
          <g id="Grupo_18259" data-name="Grupo 18259" transform="translate(49.462)">
            <path id="Trazado_40289" data-name="Trazado 40289" d="M189.491,87.74l-.091.247c-.014.04-.025.074-.034.1-.008-.03-.019-.064-.032-.1l-.087-.247h-.11l-.036.523h.1l.014-.226c0-.033,0-.066,0-.1.007.024.015.05.026.079l.082.243h.073l.089-.247c.011-.03.021-.058.03-.085,0,.036,0,.072.005.1l.013.231h.1l-.032-.523Z" transform="translate(-188.916 -87.341)" fill="#9d9490"/>
            <path id="Trazado_40290" data-name="Trazado 40290" d="M191.587,87.884c0,.046-.034.074-.091.074h-.045v-.143a.282.282,0,0,1,.043,0c.061,0,.092.025.092.072m-.22-.147-.015,0v.513h.1v-.21h.039c.042,0,.065.014.08.08a.552.552,0,0,0,.034.121l0,.009h.106l-.014-.027a.83.83,0,0,1-.036-.128.163.163,0,0,0-.05-.094.143.143,0,0,0,.071-.126.141.141,0,0,0-.044-.106.213.213,0,0,0-.153-.044.681.681,0,0,0-.123.01" transform="translate(-190.576 -87.331)" fill="#9d9490"/>
            <path id="Trazado_40291" data-name="Trazado 40291" d="M189.614,86.878a.559.559,0,1,1-.559-.562.561.561,0,0,1,.559.562m-.559-.659a.659.659,0,1,0,.656.659.659.659,0,0,0-.656-.659" transform="translate(-188.398 -86.219)" fill="#9d9490"/>
          </g>
        </g>
        <path id="Trazado_40292" data-name="Trazado 40292" d="M64.453,19.23A6.274,6.274,0,0,1,61.812,14.1c0-5.269,5.1-6.011,5.412-6.575h.227v4.7a4.016,4.016,0,0,0-3.414,3.988A3.926,3.926,0,0,0,67.2,20.091c.192.035.256.1.256.258v.6c0,.18-.121.234-.391.208A10.275,10.275,0,0,1,57.819,10.9c0-8.745,8.59-9.546,9.4-10.9h.234V3.649c0,1.091-.4,1.259-1.272,1.612-2.552,1.034-5.631,2.994-5.631,7.343a7.547,7.547,0,0,0,3.9,6.626m7.14,0A6.278,6.278,0,0,0,74.237,14.1c0-5.269-5.1-6.011-5.413-6.575H68.6v4.7a4.016,4.016,0,0,1,3.414,3.988,3.928,3.928,0,0,1-3.158,3.874c-.2.035-.257.1-.257.258v.6c0,.18.121.234.391.208A10.275,10.275,0,0,0,78.228,10.9c0-8.745-8.589-9.546-9.4-10.9H68.6V3.649c0,1.091.4,1.259,1.271,1.612C72.42,6.295,75.5,8.255,75.5,12.6a7.549,7.549,0,0,1-3.906,6.626" transform="translate(-42.639)" fill="#1f3e98"/>
      </g>
    </g>
  </g>
</svg>
