<svg xmlns="http://www.w3.org/2000/svg" xmlns:xlink="http://www.w3.org/1999/xlink" width="85" height="85" viewBox="0 0 85 85">
  <defs>
    <filter id="Rectángulo_18106" x="0" y="0" width="85" height="85" filterUnits="userSpaceOnUse">
      <feOffset dy="3" input="SourceAlpha"/>
      <feGaussianBlur stdDeviation="3" result="blur"/>
      <feFlood flood-opacity="0.161"/>
      <feComposite operator="in" in2="blur"/>
      <feComposite in="SourceGraphic"/>
    </filter>
  </defs>
  <g id="Grupo_18839" data-name="Grupo 18839" transform="translate(-523 -1582)">
    <g transform="matrix(1, 0, 0, 1, 523, 1582)" filter="url(#Rectángulo_18106)">
      <rect id="Rectángulo_18106-2" data-name="Rectángulo 18106" width="67" height="67" rx="10" transform="translate(9 6)" fill="#fff"/>
    </g>
    <g id="_320_History_2_Color" data-name="320 History 2 Color" transform="translate(551 1607)">
      <g id="Grupo_18255" data-name="Grupo 18255" transform="translate(0 0)">
        <rect id="Rectángulo_18119" data-name="Rectángulo 18119" width="28.77" height="0.443" transform="translate(0 22.571)" fill="#e6061a"/>
        <path id="Trazado_40243" data-name="Trazado 40243" d="M.327,48.655H1.383v1.9H3.341v-1.9H4.4v4.9H3.341V51.557H1.383V53.55H.327Z" transform="translate(-0.161 -23.945)" fill="#040505"/>
        <rect id="Rectángulo_18120" data-name="Rectángulo 18120" width="1.056" height="4.895" transform="translate(5.162 24.71)" fill="#040505"/>
        <path id="Trazado_40244" data-name="Trazado 40244" d="M14.564,51.868a1.028,1.028,0,0,0,.944.7c.343,0,.629-.175.629-.49,0-.238-.16-.4-.51-.525l-.588-.21a1.451,1.451,0,0,1,.434-2.867,1.8,1.8,0,0,1,1.664,1.056l-.874.5a.868.868,0,0,0-.769-.587c-.321,0-.545.175-.545.434,0,.231.175.37.476.482l.636.245c.783.294,1.161.741,1.161,1.4a1.592,1.592,0,0,1-1.728,1.546,1.9,1.9,0,0,1-1.832-1.2Z" transform="translate(-6.724 -23.857)" fill="#040505"/>
        <path id="Trazado_40245" data-name="Trazado 40245" d="M21.492,48.655h3.636v.979H23.842V53.55H22.786V49.634H21.492Z" transform="translate(-10.577 -23.945)" fill="#040505"/>
        <path id="Trazado_40246" data-name="Trazado 40246" d="M31.689,53.553a2.539,2.539,0,1,1,2.56-2.539,2.538,2.538,0,0,1-2.56,2.539m0-4.056a1.518,1.518,0,1,0,1.483,1.518A1.487,1.487,0,0,0,31.689,49.5" transform="translate(-14.336 -23.857)" fill="#040505"/>
        <path id="Trazado_40247" data-name="Trazado 40247" d="M41.62,53.55H40.578v-4.9h1.63c1.056,0,1.79.566,1.79,1.566a1.472,1.472,0,0,1-1.007,1.413L44.34,53.55H43.1l-1.2-1.79h-.28Zm0-2.658h.594a.654.654,0,0,0,.727-.65.645.645,0,0,0-.727-.643H41.62Z" transform="translate(-19.97 -23.945)" fill="#040505"/>
        <path id="Trazado_40248" data-name="Trazado 40248" d="M50.488,53.55H49.432V51.424l-1.748-2.769h1.2l1.084,1.79,1.084-1.79h1.182l-1.748,2.769Z" transform="translate(-23.467 -23.945)" fill="#040505"/>
        <path id="Trazado_40249" data-name="Trazado 40249" d="M54.17,57.058h.449v.121H54.46v.483h-.13v-.483h-.16Z" transform="translate(-26.659 -28.08)" fill="#040505"/>
        <path id="Trazado_40250" data-name="Trazado 40250" d="M55.9,57.058v.6h-.126v-.389l-.178.389h-.085l-.177-.387v.387H55.21v-.6h.158l.19.42.19-.42Z" transform="translate(-27.171 -28.08)" fill="#040505"/>
        <path id="Trazado_40251" data-name="Trazado 40251" d="M18.312,20.567h-.357V12.085H7.1v8.482H6.745V4.384H7.1v7.345H17.956V4.384h.357Zm.909,1.748h2.686V22l-.179,0a1.517,1.517,0,0,1-.819-.256,1.323,1.323,0,0,1-.557-1.12V4.56A1.276,1.276,0,0,1,20.909,3.5a1.517,1.517,0,0,1,.819-.256l.179,0V2.925H14.371v.317l.179,0a1.517,1.517,0,0,1,.819.256,1.277,1.277,0,0,1,.557,1.061V4.9h0v.164l-.007,4.754H9.151L9.144,5.066V4.9h0V4.564A1.276,1.276,0,0,1,9.7,3.5a1.517,1.517,0,0,1,.819-.256l.179,0V2.925H3.163v.317l.179,0a1.518,1.518,0,0,1,.819.256A1.275,1.275,0,0,1,4.717,4.56V20.618a1.323,1.323,0,0,1-.557,1.12,1.518,1.518,0,0,1-.819.256l-.179,0v.319H10.7V22l-.179,0a1.517,1.517,0,0,1-.819-.256,1.251,1.251,0,0,1-.554-1.014l0-6.723h6.781l0,6.723a1.253,1.253,0,0,1-.554,1.014A1.531,1.531,0,0,1,14.55,22h-.179v.319Z" transform="translate(-1.557 -1.439)" fill="#ffb514"/>
        <path id="Trazado_40252" data-name="Trazado 40252" d="M39.581,15.685c-.5,1.818-.86,3.8-1.223,5.191H25.231v-.628a76.651,76.651,0,0,0,5.29-5.555c2.281-2.744,3.637-5.323,3.637-7.9,0-2.314-1.157-4.067-3.538-4.067-2.116,0-3.472,1.422-4.431,2.844L25.5,5.039A19.47,19.47,0,0,1,27.677,2.06,6.4,6.4,0,0,1,32.36,0c3.24,0,5.931,2.1,5.931,5.667,0,2.711-1.422,4.728-4.629,7.77l-4.2,4.034H35.25c2.017,0,2.381-.066,3.637-2.05Z" transform="translate(-12.417)" fill="#e6061a"/>
        <path id="Trazado_40253" data-name="Trazado 40253" d="M29.173,31.776h-.357V25.7H26.785l0,6.231a1.254,1.254,0,0,1-.554,1.014,1.531,1.531,0,0,1-.819.259h-.179v.319h7.536v-.319l-.179,0a1.517,1.517,0,0,1-.819-.256,1.323,1.323,0,0,1-.557-1.12V25.7H29.173Z" transform="translate(-12.417 -12.649)" fill="#ffb514"/>
        <path id="Trazado_40254" data-name="Trazado 40254" d="M38.887,30.364c-1.256,1.984-1.621,2.05-3.637,2.05H28.01c-.928.961-1.875,1.891-2.779,2.778v.628H38.358c.364-1.389.727-3.373,1.223-5.191Z" transform="translate(-12.417 -14.943)" fill="#e6061a"/>
      </g>
    </g>
  </g>
</svg>
