<svg xmlns="http://www.w3.org/2000/svg" xmlns:xlink="http://www.w3.org/1999/xlink" width="84" height="85" viewBox="0 0 84 85">
  <defs>
    <filter id="Rect치ngulo_18105" x="0" y="0" width="84" height="85" filterUnits="userSpaceOnUse">
      <feOffset dy="3" input="SourceAlpha"/>
      <feGaussianBlur stdDeviation="3" result="blur"/>
      <feFlood flood-opacity="0.161"/>
      <feComposite operator="in" in2="blur"/>
      <feComposite in="SourceGraphic"/>
    </filter>
  </defs>
  <g id="Grupo_18838" data-name="Grupo 18838" transform="translate(-435 -1582)">
    <g transform="matrix(1, 0, 0, 1, 435, 1582)" filter="url(#Rect치ngulo_18105)">
      <rect id="Rect치ngulo_18105-2" data-name="Rect치ngulo 18105" width="66" height="67" rx="10" transform="translate(9 6)" fill="#fff"/>
    </g>
    <g id="Grupo_18254" data-name="Grupo 18254" transform="translate(464 1605)">
      <g id="_274_HTV_Color" data-name="274 HTV Color" transform="translate(0 0)">
        <g id="Grupo_18253" data-name="Grupo 18253" transform="translate(0 0)">
          <path id="Trazado_40239" data-name="Trazado 40239" d="M4.145,22.749,13.4,32l9.625-9.623-.007-.013A13.075,13.075,0,1,0,4.14,22.7Z" transform="translate(0.021 0.026)" fill="#fff"/>
          <g id="Grupo_18252" data-name="Grupo 18252">
            <g id="Grupo_18251" data-name="Grupo 18251">
              <g id="Grupo_18250" data-name="Grupo 18250" transform="translate(18.221 30.244)">
                <g id="Grupo_18249" data-name="Grupo 18249">
                  <path id="Trazado_40240" data-name="Trazado 40240" d="M17.529,28.686h-.357V28.5h.915v.184h-.358v.942h-.2Z" transform="translate(-17.172 -28.502)" fill="#e30058"/>
                  <path id="Trazado_40241" data-name="Trazado 40241" d="M18.231,28.5h.21l.342.532.345-.532h.209v1.126h-.2v-.809l-.358.531h-.005l-.351-.525v.8h-.2Z" transform="translate(-17.107 -28.502)" fill="#e30058"/>
                </g>
              </g>
              <path id="Trazado_40242" data-name="Trazado 40242" d="M3.907,22.957l9.515,9.515,9.893-9.893-.006-.013A13.441,13.441,0,1,0,3.9,22.91Zm8.9,1.9c1.012-.993.906-2.5.922-3.829a2.991,2.991,0,0,1,.45-1.739A2.467,2.467,0,0,1,15.73,18.4c.725-.086.8.572.818,1.05.021.708-.005,1.135,0,1.842,0,.417-.041,1.153.467,1.373.536.231,1.089-.509,1.3-.848a6.63,6.63,0,0,0,.679-2.048c-.072-.019-.19-.044-.218-.051a1.06,1.06,0,0,1-.454-.3,1.785,1.785,0,0,1-.27-1.932.879.879,0,0,1,.95-.34.9.9,0,0,1,.444.74,3.658,3.658,0,0,1,.033.882c0,.091-.007.184-.014.277,0,.031-.032.152.007.152,1.149-.017,2.337-5.178.294-3.679-.985.725-2.43,1.939-3.786,1.881a1.189,1.189,0,0,1-1.1-.932,22.405,22.405,0,0,1-.19-3.418c-.033-.49.085-1.134-.442-1.134-.678,0-1.339.936-1.406,1.629-.059.571-.027,1.737-.036,2.556a8.045,8.045,0,0,1-.083,1.637c-.253,1.357-.541,1.524-2.79,2.969,0,0-1.312.7-1.4,1.009V5.107a.614.614,0,0,1,.214-.571c.6-.377,2.144-1.471,3.055-1.975.72-.187,1.118.047,1.069,1.272-.049,1.315-.087,4.928-.133,6.243-.008.19.051.5.327.141a4.758,4.758,0,0,1,3.021-2.167,1.938,1.938,0,0,1,2.341,1.682c.025.666-.033,1.356-.059,2.02-.022.6-.161,2.6.365,3.062.367.325,1,.138,1.427.008,2.043-.612.671,4.36-.7,4.875-.007.006-.106.039-.109.047-.046.2-.093.452-.155.662a6.176,6.176,0,0,1-1.577,3.1c-.822.687-2.23.782-2.607-.381a6.353,6.353,0,0,1-.128-1.429c-.013-.583-.007-.643-.013-1.228,0-.188.055-1.045-.354-.925-.463.134-.435.973-.435,1.318,0,.105-.037,1.773-.04,2.134a3.626,3.626,0,0,1-1.677,3.28c-1.006.56-2.188.347-2.389-.844a5.357,5.357,0,0,1-.067-.9c0-.308.016-.615.022-.923,0-.1.005-.194,0-.29s.016-.159-.1-.117a3.226,3.226,0,0,0-.4.2,1.657,1.657,0,0,0-.762.607,3.027,3.027,0,0,1-.149.285c-.077.112-.183.018-.2-.033a1.172,1.172,0,0,1-.034-.3,2.2,2.2,0,0,1,.283-1.186,1.857,1.857,0,0,1,.183-.267,1.7,1.7,0,0,1,.23-.232,4,4,0,0,1,.472-.335c1.574-.973,3.276-1.825,3.721-3.365a5.507,5.507,0,0,1-.575,3.051,2.885,2.885,0,0,1-.832.643c-.014.469-.076.938-.076,1.407C11.7,24.38,11.842,25.8,12.806,24.852Z" transform="translate(0 0)" fill="#e30058"/>
            </g>
          </g>
        </g>
      </g>
    </g>
  </g>
</svg>
