<svg xmlns="http://www.w3.org/2000/svg" width="59" height="58" viewBox="0 0 59 58">
  <g id="Grupo_18619" data-name="Grupo 18619" transform="translate(0.361)">
    <rect id="Rectángulo_18109" data-name="Rectángulo 18109" width="59" height="58" transform="translate(-0.361)" fill="none"/>
    <g id="_103_Imagen_Televisión_Color" data-name="103 Imagen Televisión Color" transform="translate(29.254 29.25)">
      <g id="Grupo_18523" data-name="Grupo 18523" transform="translate(-15.341 -17.077)">
        <g id="Grupo_18518" data-name="Grupo 18518" transform="translate(0 29.53)">
          <g id="Grupo_18517" data-name="Grupo 18517">
            <path id="Trazado_40596" data-name="Trazado 40596" d="M1.11,35.721H0v-.57H2.84v.57H1.729v2.93H1.11Z" transform="translate(0 -34.087)" fill="#231f20"/>
            <path id="Trazado_40597" data-name="Trazado 40597" d="M3.981,35.151H6.576v.55H4.6v.91H6.351v.55H4.6v.94h2v.55H3.981Z" transform="translate(-0.516 -34.087)" fill="#231f20"/>
            <path id="Trazado_40598" data-name="Trazado 40598" d="M7.927,35.151h.615v2.94h1.84v.56H7.927Z" transform="translate(-1.028 -34.087)" fill="#231f20"/>
            <path id="Trazado_40599" data-name="Trazado 40599" d="M11.512,35.151h2.595v.55h-1.98v.91h1.755v.55H12.126v.94h2.005v.55h-2.62Z" transform="translate(-1.492 -34.087)" fill="#231f20"/>
            <path id="Trazado_40600" data-name="Trazado 40600" d="M15.091,35.151h.68l1.055,2.689,1.05-2.689h.665l-1.455,3.524h-.54Z" transform="translate(-1.956 -34.087)" fill="#231f20"/>
            <path id="Trazado_40601" data-name="Trazado 40601" d="M19.721,35.151h.615v3.5h-.615Z" transform="translate(-2.557 -34.087)" fill="#231f20"/>
            <path id="Trazado_40602" data-name="Trazado 40602" d="M21.312,38.133l.37-.44a1.612,1.612,0,0,0,1.1.454c.38,0,.62-.175.62-.44V37.7c0-.25-.139-.385-.789-.534-.744-.18-1.165-.4-1.165-1.045v-.01a1.07,1.07,0,0,1,1.2-1.014,1.939,1.939,0,0,1,1.269.44l-.33.465a1.585,1.585,0,0,0-.95-.359c-.36,0-.57.185-.57.414v.01c0,.27.16.39.829.55.741.18,1.125.445,1.125,1.024v.01c0,.655-.515,1.045-1.25,1.045A2.155,2.155,0,0,1,21.312,38.133Z" transform="translate(-2.763 -34.079)" fill="#231f20"/>
            <path id="Trazado_40603" data-name="Trazado 40603" d="M25.31,35.151h.615v3.5H25.31Z" transform="translate(-3.281 -34.087)" fill="#231f20"/>
            <path id="Trazado_40604" data-name="Trazado 40604" d="M26.8,36.752v-.01a1.83,1.83,0,0,1,3.659-.01v.01a1.83,1.83,0,0,1-3.659.01Zm3.015,0v-.01A1.2,1.2,0,0,0,28.622,35.5a1.182,1.182,0,0,0-1.179,1.235v.01a1.2,1.2,0,0,0,1.19,1.245A1.183,1.183,0,0,0,29.813,36.752Zm-.876-2.824h.742l-.487.644h-.734Z" transform="translate(-3.474 -33.928)" fill="#231f20"/>
            <path id="Trazado_40605" data-name="Trazado 40605" d="M31.744,35.151h.57l1.875,2.42v-2.42h.6v3.5h-.515l-1.93-2.49v2.49h-.6Z" transform="translate(-4.115 -34.087)" fill="#231f20"/>
          </g>
        </g>
        <g id="Grupo_18522" data-name="Grupo 18522" transform="translate(0.559)">
          <g id="Grupo_18520" data-name="Grupo 18520" transform="translate(0 23.515)">
            <g id="Grupo_18519" data-name="Grupo 18519">
              <path id="Trazado_40606" data-name="Trazado 40606" d="M.642,27.136H2.068v5.115H.642Z" transform="translate(-0.642 -27.033)" fill="#231f20"/>
              <path id="Trazado_40607" data-name="Trazado 40607" d="M3.606,27.136H5.1l1.221,1.98,1.22-1.98h1.5v5.115H7.633V29.313l-1.308,2H6.3L5,29.328v2.923H3.606Z" transform="translate(-1.026 -27.033)" fill="#231f20"/>
              <path id="Trazado_40608" data-name="Trazado 40608" d="M12.594,27.093H13.96l2.179,5.153H14.618l-.373-.914H12.272l-.366.914H10.416Zm1.242,3.135-.569-1.453-.578,1.453Z" transform="translate(-1.909 -27.028)" fill="#231f20"/>
              <path id="Trazado_40609" data-name="Trazado 40609" d="M17.066,29.693v-.015a2.656,2.656,0,0,1,2.755-2.66,2.982,2.982,0,0,1,2.076.746l-.833,1a1.8,1.8,0,0,0-1.235-.482,1.343,1.343,0,0,0-1.308,1.4V29.7a1.351,1.351,0,0,0,1.388,1.418,1.451,1.451,0,0,0,.819-.211v-.621H19.719V29.247h2.353v2.3a3.454,3.454,0,0,1-2.221.79A2.631,2.631,0,0,1,17.066,29.693Z" transform="translate(-2.771 -27.018)" fill="#231f20"/>
              <path id="Trazado_40610" data-name="Trazado 40610" d="M29.7,27.136h1.322l2.105,2.7v-2.7h1.4v5.115H33.291l-2.185-2.806v2.806H29.7Z" transform="translate(-4.409 -27.033)" fill="#231f20"/>
            </g>
            <path id="Trazado_40611" data-name="Trazado 40611" d="M23.9,27.135h4.114v1.206H25.3v.775H27.57v1.118H25.3v.811h2.748v1.206H23.9Z" transform="translate(-3.657 -27.033)" fill="#231f20"/>
          </g>
          <g id="Grupo_18521" data-name="Grupo 18521" transform="translate(9.919)">
            <rect id="Rectángulo_18188" data-name="Rectángulo 18188" width="9.301" height="9.3" transform="translate(0.492 11.214)" fill="#eb1f3c"/>
            <path id="Trazado_40612" data-name="Trazado 40612" d="M22.325,5.143A5.143,5.143,0,1,1,17.182,0,5.143,5.143,0,0,1,22.325,5.143Z" transform="translate(-12.039 0)" fill="#178acb"/>
          </g>
        </g>
      </g>
    </g>
  </g>
</svg>
