<svg xmlns="http://www.w3.org/2000/svg" width="58" height="58" viewBox="0 0 58 58">
  <g id="Grupo_18627" data-name="Grupo 18627" transform="translate(-0.035)">
    <rect id="Rect치ngulo_18110" data-name="Rect치ngulo 18110" width="58" height="58" transform="translate(0.035)" fill="none"/>
    <g id="_306_Ingenio_TV_Color" data-name="306 Ingenio TV Color" transform="translate(29.106 29.16)">
      <g id="Grupo_18536" data-name="Grupo 18536" transform="translate(-25.629 -9.162)">
        <g id="Grupo_18524" data-name="Grupo 18524" transform="translate(16.682 8.144)">
          <path id="Trazado_40613" data-name="Trazado 40613" d="M25.158,12.317h.856v5.338h-.856Z" transform="translate(-25.111 -12.271)" fill="#7a2a8f"/>
          <path id="Trazado_40614" data-name="Trazado 40614" d="M25.99,17.678h-.856a.045.045,0,0,1-.047-.046V12.294a.045.045,0,0,1,.047-.046h.856a.044.044,0,0,1,.045.046v5.338A.044.044,0,0,1,25.99,17.678Zm-.809-.091h.762V12.34h-.762Z" transform="translate(-25.088 -12.248)" fill="#7a2a8f"/>
        </g>
        <g id="Grupo_18525" data-name="Grupo 18525" transform="translate(18.664 9.472)">
          <path id="Trazado_40615" data-name="Trazado 40615" d="M29,14.391v.5a1.748,1.748,0,0,1,1.283-.577,1.489,1.489,0,0,1,.739.191,1.273,1.273,0,0,1,.52.521,2.314,2.314,0,0,1,.18,1.05v2.248H30.88v-2.24a1.447,1.447,0,0,0-.2-.861.793.793,0,0,0-.668-.259A1.234,1.234,0,0,0,29,15.516v2.809h-.86V14.391Z" transform="translate(-28.094 -14.269)" fill="#7a2a8f"/>
          <path id="Trazado_40616" data-name="Trazado 40616" d="M31.7,18.347h-.843a.045.045,0,0,1-.046-.046v-2.24a1.42,1.42,0,0,0-.189-.834.758.758,0,0,0-.632-.239,1.185,1.185,0,0,0-.965.522V18.3a.046.046,0,0,1-.047.046h-.86a.045.045,0,0,1-.047-.046V14.368a.045.045,0,0,1,.047-.045h.86a.046.046,0,0,1,.047.045v.392a1.767,1.767,0,0,1,1.236-.513,1.572,1.572,0,0,1,.762.194,1.333,1.333,0,0,1,.539.542,2.376,2.376,0,0,1,.184,1.071V18.3A.046.046,0,0,1,31.7,18.347Zm-.8-.091h.749v-2.2a2.3,2.3,0,0,0-.172-1.028,1.249,1.249,0,0,0-.5-.5,1.453,1.453,0,0,0-.717-.185,1.717,1.717,0,0,0-1.251.563.047.047,0,0,1-.05.011.05.05,0,0,1-.028-.043v-.453h-.769v3.841h.769V15.493a.051.051,0,0,1,.009-.028,1.285,1.285,0,0,1,1.05-.57.836.836,0,0,1,.7.277,1.473,1.473,0,0,1,.209.889Z" transform="translate(-28.07 -14.246)" fill="#7a2a8f"/>
        </g>
        <g id="Grupo_18526" data-name="Grupo 18526" transform="translate(31.258 9.472)">
          <path id="Trazado_40617" data-name="Trazado 40617" d="M47.938,14.391v.5a1.753,1.753,0,0,1,1.283-.577,1.492,1.492,0,0,1,.74.191,1.271,1.271,0,0,1,.521.521,2.316,2.316,0,0,1,.179,1.05v2.248h-.843v-2.24a1.443,1.443,0,0,0-.2-.861.794.794,0,0,0-.666-.259,1.24,1.24,0,0,0-1.015.551v2.809h-.86V14.391Z" transform="translate(-47.033 -14.269)" fill="#7a2a8f"/>
          <path id="Trazado_40618" data-name="Trazado 40618" d="M50.638,18.347h-.843a.045.045,0,0,1-.045-.046v-2.24a1.4,1.4,0,0,0-.19-.834.753.753,0,0,0-.629-.239,1.191,1.191,0,0,0-.968.522V18.3a.045.045,0,0,1-.047.046h-.86a.045.045,0,0,1-.045-.046V14.368a.045.045,0,0,1,.045-.045h.86a.046.046,0,0,1,.047.045v.392a1.773,1.773,0,0,1,1.236-.513,1.567,1.567,0,0,1,.763.194,1.335,1.335,0,0,1,.539.542,2.365,2.365,0,0,1,.184,1.071V18.3A.046.046,0,0,1,50.638,18.347Zm-.8-.091h.749v-2.2a2.306,2.306,0,0,0-.173-1.028,1.247,1.247,0,0,0-.5-.5,1.452,1.452,0,0,0-.718-.185,1.71,1.71,0,0,0-1.249.563.05.05,0,0,1-.051.011.047.047,0,0,1-.029-.043v-.453H47.1v3.841h.767V15.493a.052.052,0,0,1,.009-.028,1.288,1.288,0,0,1,1.051-.57.842.842,0,0,1,.7.276,1.49,1.49,0,0,1,.209.89Z" transform="translate(-47.01 -14.246)" fill="#7a2a8f"/>
        </g>
        <g id="Grupo_18527" data-name="Grupo 18527" transform="translate(22.832 9.549)">
          <path id="Trazado_40619" data-name="Trazado 40619" d="M34.773,15.789a1.2,1.2,0,0,1,.459-.994,1.959,1.959,0,0,1,1.255-.366h1.62v.608h-.795a1.644,1.644,0,0,1,.32.427,1.026,1.026,0,0,1,.09.441,1.17,1.17,0,0,1-.176.606,1.233,1.233,0,0,1-.45.455,2.737,2.737,0,0,1-.9.25c-.295.044-.354.116-.376.184-.029.088-.043.182.062.248s.442-.088.737-.092a2.018,2.018,0,0,1,.7.1,1.154,1.154,0,0,1,.4.217.949.949,0,0,1,.356.675,1.024,1.024,0,0,1-.4.94,2.342,2.342,0,0,1-1.289.472,2.384,2.384,0,0,1-1.372-.192,1.037,1.037,0,0,1-.594-.842c-.056-.529.24-.89.874-1.127-.1.038-.184-.136-.17-.3.012-.125-.045-.138.067-.242a1.068,1.068,0,0,1,.456-.225A1.3,1.3,0,0,1,34.773,15.789Zm1.2,2.386a1.134,1.134,0,0,0-.623.232.5.5,0,0,0-.2.452q.064.6,1.153.489a1.744,1.744,0,0,0,.781-.235.468.468,0,0,0,.236-.457c-.019-.181-.154-.317-.4-.406A2.137,2.137,0,0,0,35.972,18.175Zm.263-3.07a.742.742,0,0,0-.539.214.686.686,0,0,0-.221.513.65.65,0,0,0,.217.5.787.787,0,0,0,.551.2.777.777,0,0,0,.549-.2.656.656,0,0,0,.221-.507.671.671,0,0,0-.222-.513A.787.787,0,0,0,36.235,15.105Z" transform="translate(-34.361 -14.384)" fill="#7a2a8f"/>
          <path id="Trazado_40620" data-name="Trazado 40620" d="M35.725,20a2.006,2.006,0,0,1-.763-.208,1.084,1.084,0,0,1-.617-.88,1.059,1.059,0,0,1,.786-1.128.428.428,0,0,1-.082-.307.418.418,0,0,1,.157-.291A.592.592,0,0,1,35.489,17a1.314,1.314,0,0,1-.785-1.235,1.251,1.251,0,0,1,.477-1.03,2.012,2.012,0,0,1,1.283-.376h1.62a.045.045,0,0,1,.046.045v.608a.045.045,0,0,1-.046.046H37.4a1.5,1.5,0,0,1,.254.362,1.057,1.057,0,0,1,.094.459,1.24,1.24,0,0,1-.181.63,1.3,1.3,0,0,1-.467.471,2.755,2.755,0,0,1-.921.257c-.295.043-.326.116-.338.152-.033.1-.021.153.044.195a.1.1,0,0,0,.034.009,1.069,1.069,0,0,0,.261-.043,2.076,2.076,0,0,1,.416-.067c.084,0,.166,0,.245.009a2.083,2.083,0,0,1,.471.1,1.256,1.256,0,0,1,.414.224,1.017,1.017,0,0,1,.372.708,1.073,1.073,0,0,1-.418.98,2.4,2.4,0,0,1-1.314.483A3.28,3.28,0,0,1,35.725,20Zm-.444-2.176c-.628.235-.9.579-.844,1.081a.978.978,0,0,0,.57.8,2.8,2.8,0,0,0,2.61-.273.982.982,0,0,0,.385-.9.921.921,0,0,0-.338-.644,1.12,1.12,0,0,0-.384-.207,1.824,1.824,0,0,0-1.083-.038c-.166.039-.3.066-.365.021a.235.235,0,0,1-.082-.3c.035-.108.132-.175.412-.215a2.671,2.671,0,0,0,.888-.246,1.2,1.2,0,0,0,.435-.438,1.137,1.137,0,0,0,.17-.582.994.994,0,0,0-.086-.42,1.591,1.591,0,0,0-.313-.416A.046.046,0,0,1,37.246,15a.049.049,0,0,1,.043-.028h.749v-.513H36.464a1.912,1.912,0,0,0-1.225.356,1.16,1.16,0,0,0-.442.956,1.238,1.238,0,0,0,.84,1.2.043.043,0,0,1,.027.047.045.045,0,0,1-.034.042,1,1,0,0,0-.436.215c-.1.094-.043.1-.052.21-.012.13.041.251.09.255h.016a.045.045,0,0,1,.06.025.047.047,0,0,1-.027.061Zm.5,1.563h0c-.43-.039-.666-.219-.7-.543a.542.542,0,0,1,.219-.491,1.2,1.2,0,0,1,.648-.243,2.2,2.2,0,0,1,.96.077c.267.1.414.246.435.444a.516.516,0,0,1-.257.5,1.8,1.8,0,0,1-.8.243A2.794,2.794,0,0,1,35.777,19.384Zm.7-1.2a2.613,2.613,0,0,0-.521.01,1.09,1.09,0,0,0-.6.223.45.45,0,0,0-.188.412c.04.374.4.521,1.1.446a1.684,1.684,0,0,0,.761-.227.425.425,0,0,0,.217-.414c-.017-.162-.14-.283-.373-.368A1.6,1.6,0,0,0,36.475,18.188Zm-.255-1.632a.838.838,0,0,1-.582-.21.7.7,0,0,1-.233-.537.736.736,0,0,1,.237-.547.8.8,0,0,1,.57-.227.836.836,0,0,1,.587.217.715.715,0,0,1,.237.547.706.706,0,0,1-.234.54A.825.825,0,0,1,36.22,16.557Zm-.008-1.428a.7.7,0,0,0-.507.2.637.637,0,0,0-.208.48.6.6,0,0,0,.2.467.741.741,0,0,0,.519.188.73.73,0,0,0,.519-.191.613.613,0,0,0,.2-.473.621.621,0,0,0-.208-.479A.738.738,0,0,0,36.212,15.128Z" transform="translate(-34.338 -14.361)" fill="#7a2a8f"/>
        </g>
        <g id="Grupo_18528" data-name="Grupo 18528" transform="translate(26.957 9.472)">
          <path id="Trazado_40621" data-name="Trazado 40621" d="M43.376,18.281a3.031,3.031,0,0,1-.828.105,1.876,1.876,0,0,1-1.052-.27,1.973,1.973,0,0,1-.643-.725,2.222,2.222,0,0,1-.241-1.054,2.09,2.09,0,0,1,.509-1.46,1.7,1.7,0,0,1,1.321-.562,1.556,1.556,0,0,1,1.249.547,2.19,2.19,0,0,1,.465,1.465v.1H41.388a1.29,1.29,0,0,0,.38.9,1.246,1.246,0,0,0,.9.333s1.222-.076,1.346-.261v.616A4.6,4.6,0,0,1,43.376,18.281Zm-1.969-2.319h1.979a1.089,1.089,0,0,0-.279-.718.889.889,0,0,0-.668-.253.952.952,0,0,0-.685.253A1.24,1.24,0,0,0,41.407,15.961Z" transform="translate(-40.564 -14.269)" fill="#7a2a8f"/>
          <path id="Trazado_40622" data-name="Trazado 40622" d="M42.524,18.407a1.891,1.891,0,0,1-1.077-.278,2.016,2.016,0,0,1-.658-.741,2.278,2.278,0,0,1-.247-1.075,2.155,2.155,0,0,1,.521-1.491,1.75,1.75,0,0,1,1.355-.576,1.609,1.609,0,0,1,1.285.563,2.235,2.235,0,0,1,.477,1.5v.1a.048.048,0,0,1-.047.047H41.415a1.219,1.219,0,0,0,.361.817,1.2,1.2,0,0,0,.868.322,3.534,3.534,0,0,0,1.309-.241A.046.046,0,0,1,44,17.331a.046.046,0,0,1,.033.043v.616a.045.045,0,0,1-.026.042,4.565,4.565,0,0,1-.648.271A3.093,3.093,0,0,1,42.524,18.407Zm-.107-4.069a1.655,1.655,0,0,0-1.285.547,2.054,2.054,0,0,0-.5,1.428,2.181,2.181,0,0,0,.236,1.033,1.937,1.937,0,0,0,.628.708,1.835,1.835,0,0,0,1.026.261,3.094,3.094,0,0,0,.815-.1,4.38,4.38,0,0,0,.605-.252v-.5a4.925,4.925,0,0,1-1.3.214h0a1.312,1.312,0,0,1-.936-.344,1.332,1.332,0,0,1-.391-.93.049.049,0,0,1,.045-.049h2.72V16.3a2.156,2.156,0,0,0-.454-1.436A1.518,1.518,0,0,0,42.417,14.338Zm.946,1.644H41.383a.045.045,0,0,1-.035-.015.044.044,0,0,1-.011-.039,1.3,1.3,0,0,1,.362-.743,1.012,1.012,0,0,1,.717-.265.94.94,0,0,1,.7.267,1.142,1.142,0,0,1,.292.747.053.053,0,0,1-.013.036A.047.047,0,0,1,43.363,15.983Zm-1.924-.09h1.874a1.02,1.02,0,0,0-.261-.64.847.847,0,0,0-.634-.237.913.913,0,0,0-.654.237A1.178,1.178,0,0,0,41.439,15.892Z" transform="translate(-40.541 -14.246)" fill="#7a2a8f"/>
        </g>
        <g id="Grupo_18529" data-name="Grupo 18529" transform="translate(35.766 9.549)">
          <path id="Trazado_40623" data-name="Trazado 40623" d="M53.861,14.429h.779v3.934h-.779Z" transform="translate(-53.814 -14.384)" fill="#7a2a8f"/>
          <path id="Trazado_40624" data-name="Trazado 40624" d="M54.616,18.386h-.779a.046.046,0,0,1-.047-.046V14.406a.046.046,0,0,1,.047-.045h.779a.046.046,0,0,1,.045.045V18.34A.045.045,0,0,1,54.616,18.386Zm-.732-.091h.684V14.454h-.684Z" transform="translate(-53.79 -14.361)" fill="#7a2a8f"/>
        </g>
        <g id="Grupo_18530" data-name="Grupo 18530" transform="translate(37.258 9.541)">
          <path id="Trazado_40625" data-name="Trazado 40625" d="M57.935,14.418a1.665,1.665,0,0,1,1.3.58,2.1,2.1,0,0,1,.517,1.456,1.994,1.994,0,0,1-.524,1.413,1.73,1.73,0,0,1-1.319.561,1.663,1.663,0,0,1-1.287-.571,2.229,2.229,0,0,1,.005-2.864A1.7,1.7,0,0,1,57.935,14.418Zm-.038.7a1,1,0,0,0-.8.368,1.391,1.391,0,0,0-.313.935,1.332,1.332,0,0,0,.318.922,1.057,1.057,0,0,0,.823.357,1.04,1.04,0,0,0,.817-.361,1.351,1.351,0,0,0,.317-.927,1.337,1.337,0,0,0-.33-.926A1.074,1.074,0,0,0,57.9,15.118Z" transform="translate(-56.056 -14.372)" fill="#7a2a8f"/>
          <path id="Trazado_40626" data-name="Trazado 40626" d="M57.883,18.45a1.707,1.707,0,0,1-1.321-.586,2.091,2.091,0,0,1-.529-1.454,2.114,2.114,0,0,1,.534-1.471,1.748,1.748,0,0,1,1.345-.589,1.716,1.716,0,0,1,1.333.6,2.158,2.158,0,0,1,.529,1.486,2.046,2.046,0,0,1-.537,1.444A1.775,1.775,0,0,1,57.883,18.45Zm.029-4.009A1.66,1.66,0,0,0,56.635,15a2.025,2.025,0,0,0-.509,1.41,1.994,1.994,0,0,0,.5,1.391,1.617,1.617,0,0,0,1.253.556,1.685,1.685,0,0,0,1.284-.547,1.943,1.943,0,0,0,.513-1.379,2.076,2.076,0,0,0-.5-1.426A1.628,1.628,0,0,0,57.912,14.441ZM57.9,17.724a1.1,1.1,0,0,1-.856-.374,1.375,1.375,0,0,1-.332-.952,1.452,1.452,0,0,1,.323-.966,1.056,1.056,0,0,1,.834-.383,1.124,1.124,0,0,1,.868.383,1.384,1.384,0,0,1,.342.957,1.4,1.4,0,0,1-.328.957A1.091,1.091,0,0,1,57.9,17.724Zm-.03-2.581a.962.962,0,0,0-.763.35,1.359,1.359,0,0,0-.3.906,1.292,1.292,0,0,0,.308.892,1.01,1.01,0,0,0,.787.342,1,1,0,0,0,.782-.346,1.312,1.312,0,0,0,.307-.9,1.3,1.3,0,0,0-.319-.9A1.031,1.031,0,0,0,57.874,15.143Z" transform="translate(-56.033 -14.349)" fill="#7a2a8f"/>
        </g>
        <g id="Grupo_18531" data-name="Grupo 18531" transform="translate(42.416 8.144)">
          <path id="Trazado_40627" data-name="Trazado 40627" d="M63.861,12.317H68.48V13h-1.9v4.659h-.86V13H63.861Z" transform="translate(-63.814 -12.271)" fill="#7a2a8f"/>
          <path id="Trazado_40628" data-name="Trazado 40628" d="M66.559,17.678H65.7a.046.046,0,0,1-.046-.046V13.021H63.838a.047.047,0,0,1-.047-.048v-.679a.046.046,0,0,1,.047-.046h4.619a.044.044,0,0,1,.045.046v.679a.046.046,0,0,1-.045.048h-1.85v4.611A.046.046,0,0,1,66.559,17.678Zm-.813-.091h.766V12.973a.047.047,0,0,1,.047-.045H68.41V12.34H63.883v.588H65.7a.046.046,0,0,1,.047.045Z" transform="translate(-63.791 -12.248)" fill="#7a2a8f"/>
        </g>
        <g id="Grupo_18532" data-name="Grupo 18532" transform="translate(16.982 15.246)">
          <path id="Trazado_40629" data-name="Trazado 40629" d="M25.54,22.983h.326v2.275H25.54Z" transform="translate(-25.54 -22.948)" fill="#7a2a8f"/>
          <path id="Trazado_40630" data-name="Trazado 40630" d="M27.022,24.137v.193a.591.591,0,0,1,.451-.221.488.488,0,0,1,.444.27.953.953,0,0,1,.063.4v.856h-.3v-.852a.584.584,0,0,0-.07-.328.27.27,0,0,0-.235-.1.424.424,0,0,0-.356.211v1.069h-.3v-1.5Z" transform="translate(-25.935 -23.325)" fill="#7a2a8f"/>
          <path id="Trazado_40631" data-name="Trazado 40631" d="M29.128,25.529v-.318a1.551,1.551,0,0,0,.256.142.623.623,0,0,0,.221.055.28.28,0,0,0,.16-.047.129.129,0,0,0,.066-.108.14.14,0,0,0-.044-.108.889.889,0,0,0-.186-.125,1.338,1.338,0,0,1-.376-.274.388.388,0,0,1-.09-.247.346.346,0,0,1,.135-.283.538.538,0,0,1,.347-.108.942.942,0,0,1,.451.124v.291a.92.92,0,0,0-.433-.16.232.232,0,0,0-.138.038.109.109,0,0,0-.053.1.136.136,0,0,0,.048.1.845.845,0,0,0,.169.114l.106.061c.25.141.374.3.374.467a.373.373,0,0,1-.144.3.569.569,0,0,1-.371.118.856.856,0,0,1-.237-.03A1.452,1.452,0,0,1,29.128,25.529Z" transform="translate(-26.742 -23.325)" fill="#7a2a8f"/>
          <path id="Trazado_40632" data-name="Trazado 40632" d="M31.138,26.416V24.151h.52a.9.9,0,0,1,.62.2.706.706,0,0,1,.222.556.757.757,0,0,1-.209.553.706.706,0,0,1-.534.217.912.912,0,0,1-.316-.064v.8Zm.513-1.987h-.209v.922a.617.617,0,0,0,.286.071.44.44,0,0,0,.34-.146.585.585,0,0,0,.07-.632.369.369,0,0,0-.171-.162A.722.722,0,0,0,31.651,24.428Z" transform="translate(-27.416 -23.339)" fill="#7a2a8f"/>
          <path id="Trazado_40633" data-name="Trazado 40633" d="M33.821,23.2a.171.171,0,0,1,.125.052.17.17,0,0,1,0,.247.172.172,0,0,1-.125.053.165.165,0,0,1-.12-.053.17.17,0,0,1,0-.245A.165.165,0,0,1,33.821,23.2Zm-.147.63h.3v1.5h-.3Z" transform="translate(-28.257 -23.021)" fill="#7a2a8f"/>
          <path id="Trazado_40634" data-name="Trazado 40634" d="M35.1,24.137v.344l.016-.025c.144-.233.287-.347.43-.347a.528.528,0,0,1,.35.169l-.157.261a.432.432,0,0,0-.285-.146.3.3,0,0,0-.249.136.519.519,0,0,0-.105.325v.782h-.3v-1.5Z" transform="translate(-28.645 -23.325)" fill="#7a2a8f"/>
          <path id="Trazado_40635" data-name="Trazado 40635" d="M37.645,24.736v.637c0,.051.019.077.053.077a.371.371,0,0,0,.168-.082v.182a.9.9,0,0,1-.163.088.363.363,0,0,1-.128.024c-.125,0-.2-.051-.223-.15a.645.645,0,0,1-.4.147.363.363,0,0,1-.262-.1.355.355,0,0,1-.1-.261.365.365,0,0,1,.1-.252.667.667,0,0,1,.29-.178l.379-.13v-.08a.24.24,0,0,0-.271-.272.65.65,0,0,0-.471.252v-.324a.613.613,0,0,1,.5-.2.578.578,0,0,1,.39.126.407.407,0,0,1,.088.109.386.386,0,0,1,.05.134A2.15,2.15,0,0,1,37.645,24.736Zm-.291.6V24.9l-.2.077a.663.663,0,0,0-.214.122.2.2,0,0,0-.062.151.2.2,0,0,0,.06.153.214.214,0,0,0,.153.057A.367.367,0,0,0,37.353,25.339Z" transform="translate(-29.24 -23.325)" fill="#7a2a8f"/>
          <path id="Trazado_40636" data-name="Trazado 40636" d="M39.988,25.287v.293a1.266,1.266,0,0,1-.438.083.719.719,0,0,1-.77-.767.8.8,0,0,1,.2-.57.7.7,0,0,1,.537-.217.864.864,0,0,1,.207.021,1.562,1.562,0,0,1,.227.081v.318a.794.794,0,0,0-.417-.144.427.427,0,0,0-.33.142.506.506,0,0,0-.128.358.481.481,0,0,0,.138.365.515.515,0,0,0,.376.136A.986.986,0,0,0,39.988,25.287Z" transform="translate(-29.977 -23.325)" fill="#7a2a8f"/>
          <path id="Trazado_40637" data-name="Trazado 40637" d="M41.248,23.2a.168.168,0,0,1,.124.052.17.17,0,0,1,0,.247.169.169,0,0,1-.246,0,.171.171,0,0,1,0-.245A.17.17,0,0,1,41.248,23.2Zm-.148.63h.3v1.5h-.3Z" transform="translate(-30.745 -23.021)" fill="#7a2a8f"/>
          <path id="Trazado_40638" data-name="Trazado 40638" d="M42.877,23.741a.782.782,0,0,1,.569.219.739.739,0,0,1,.227.555.706.706,0,0,1-.229.539.819.819,0,0,1-.58.215.78.78,0,0,1-.564-.217.727.727,0,0,1-.225-.543.735.735,0,0,1,.228-.55A.8.8,0,0,1,42.877,23.741Zm-.016.267a.464.464,0,0,0-.35.14.483.483,0,0,0-.136.356.464.464,0,0,0,.14.351.537.537,0,0,0,.717,0,.473.473,0,0,0,.14-.352.468.468,0,0,0-.144-.353A.508.508,0,0,0,42.861,24.008Zm.347-1.078-.368.489h-.182l.219-.489Z" transform="translate(-31.08 -22.93)" fill="#7a2a8f"/>
          <path id="Trazado_40639" data-name="Trazado 40639" d="M45.266,24.137v.193a.594.594,0,0,1,.452-.221.49.49,0,0,1,.444.27.944.944,0,0,1,.062.4v.856h-.3v-.852a.586.586,0,0,0-.069-.328.27.27,0,0,0-.235-.1.428.428,0,0,0-.357.211v1.069h-.3v-1.5Z" transform="translate(-32.048 -23.325)" fill="#7a2a8f"/>
          <path id="Trazado_40640" data-name="Trazado 40640" d="M48.846,26.416V24.151h.52a.9.9,0,0,1,.621.2.709.709,0,0,1,.221.556A.762.762,0,0,1,50,25.46a.708.708,0,0,1-.533.217.926.926,0,0,1-.318-.064v.8Zm.513-1.987h-.211v.922a.627.627,0,0,0,.288.071.435.435,0,0,0,.339-.146.528.528,0,0,0,.133-.374.512.512,0,0,0-.063-.259.355.355,0,0,0-.17-.162A.721.721,0,0,0,49.359,24.428Z" transform="translate(-33.349 -23.339)" fill="#7a2a8f"/>
          <path id="Trazado_40641" data-name="Trazado 40641" d="M52.265,24.736v.637c0,.051.019.077.053.077a.367.367,0,0,0,.168-.082v.182a.97.97,0,0,1-.161.088.367.367,0,0,1-.129.024c-.127,0-.2-.051-.225-.15a.639.639,0,0,1-.4.147.364.364,0,0,1-.262-.1.354.354,0,0,1-.1-.261.364.364,0,0,1,.1-.252.661.661,0,0,1,.289-.178l.379-.13v-.08a.24.24,0,0,0-.27-.272.652.652,0,0,0-.473.252v-.324a.616.616,0,0,1,.5-.2.577.577,0,0,1,.389.126.407.407,0,0,1,.088.109.4.4,0,0,1,.049.134A1.858,1.858,0,0,1,52.265,24.736Zm-.291.6V24.9l-.2.077a.655.655,0,0,0-.214.122.2.2,0,0,0-.064.151.2.2,0,0,0,.061.153.217.217,0,0,0,.155.057A.365.365,0,0,0,51.974,25.339Z" transform="translate(-34.139 -23.325)" fill="#7a2a8f"/>
          <path id="Trazado_40642" data-name="Trazado 40642" d="M53.854,24.137v.344l.016-.025c.144-.233.287-.347.43-.347a.528.528,0,0,1,.35.169l-.157.261a.433.433,0,0,0-.287-.146.3.3,0,0,0-.248.136.519.519,0,0,0-.105.325v.782h-.3v-1.5Z" transform="translate(-34.928 -23.325)" fill="#7a2a8f"/>
          <path id="Trazado_40643" data-name="Trazado 40643" d="M56.394,24.736v.637c0,.051.019.077.053.077a.371.371,0,0,0,.168-.082v.182a.9.9,0,0,1-.163.088.363.363,0,0,1-.128.024c-.126,0-.2-.051-.224-.15a.643.643,0,0,1-.4.147.362.362,0,0,1-.26-.1.355.355,0,0,1-.1-.261.364.364,0,0,1,.1-.252.656.656,0,0,1,.29-.178l.38-.13v-.08a.241.241,0,0,0-.271-.272.65.65,0,0,0-.471.252v-.324a.611.611,0,0,1,.5-.2.578.578,0,0,1,.39.126.422.422,0,0,1,.088.109.385.385,0,0,1,.049.134A2.149,2.149,0,0,1,56.394,24.736Zm-.291.6V24.9l-.2.077a.675.675,0,0,0-.215.122.2.2,0,0,0-.062.151.209.209,0,0,0,.059.153.22.22,0,0,0,.154.057A.369.369,0,0,0,56.1,25.339Z" transform="translate(-35.523 -23.325)" fill="#7a2a8f"/>
          <path id="Trazado_40644" data-name="Trazado 40644" d="M59.929,24.736v.637c0,.051.017.077.054.077a.369.369,0,0,0,.167-.082v.182a.922.922,0,0,1-.162.088.362.362,0,0,1-.128.024c-.128,0-.2-.051-.224-.15a.645.645,0,0,1-.4.147.363.363,0,0,1-.261-.1.355.355,0,0,1-.1-.261.37.37,0,0,1,.1-.252.659.659,0,0,1,.29-.178l.38-.13v-.08a.24.24,0,0,0-.27-.272.655.655,0,0,0-.474.252v-.324a.618.618,0,0,1,.5-.2.574.574,0,0,1,.388.126.4.4,0,0,1,.089.109.382.382,0,0,1,.049.134A1.975,1.975,0,0,1,59.929,24.736Zm-.291.6V24.9l-.2.077a.641.641,0,0,0-.214.122.2.2,0,0,0-.063.151.2.2,0,0,0,.06.153.216.216,0,0,0,.154.057A.37.37,0,0,0,59.639,25.339Z" transform="translate(-36.707 -23.325)" fill="#7a2a8f"/>
          <path id="Trazado_40645" data-name="Trazado 40645" d="M61.113,26.416V24.151h.519a.894.894,0,0,1,.62.2.708.708,0,0,1,.222.556.759.759,0,0,1-.208.553.709.709,0,0,1-.533.217.922.922,0,0,1-.318-.064v.8Zm.513-1.987h-.211v.922a.626.626,0,0,0,.287.071.439.439,0,0,0,.34-.146.53.53,0,0,0,.132-.374.518.518,0,0,0-.061-.259.363.363,0,0,0-.171-.162A.725.725,0,0,0,61.626,24.428Z" transform="translate(-37.46 -23.339)" fill="#7a2a8f"/>
          <path id="Trazado_40646" data-name="Trazado 40646" d="M63.978,24.137v.344l.017-.025c.144-.233.287-.347.43-.347a.528.528,0,0,1,.35.169l-.156.261a.437.437,0,0,0-.286-.146.3.3,0,0,0-.249.136.519.519,0,0,0-.105.325v.782h-.3v-1.5Z" transform="translate(-38.32 -23.325)" fill="#7a2a8f"/>
          <path id="Trazado_40647" data-name="Trazado 40647" d="M66.777,24.914H65.724a.489.489,0,0,0,.144.342.479.479,0,0,0,.343.128.882.882,0,0,0,.541-.184v.291a1.028,1.028,0,0,1-.271.13,1.164,1.164,0,0,1-.315.039.715.715,0,0,1-.4-.1.757.757,0,0,1-.244-.276.846.846,0,0,1-.092-.4.8.8,0,0,1,.193-.557.643.643,0,0,1,.5-.214.594.594,0,0,1,.475.208.83.83,0,0,1,.178.559Zm-1.048-.178h.755a.413.413,0,0,0-.106-.275.346.346,0,0,0-.254-.1.375.375,0,0,0-.262.1A.487.487,0,0,0,65.73,24.736Z" transform="translate(-38.905 -23.325)" fill="#7a2a8f"/>
          <path id="Trazado_40648" data-name="Trazado 40648" d="M68.234,24.137v.193a.589.589,0,0,1,.45-.221.488.488,0,0,1,.445.27.964.964,0,0,1,.063.4v.856h-.3v-.852a.578.578,0,0,0-.071-.328.266.266,0,0,0-.234-.1.423.423,0,0,0-.356.211v1.069h-.3v-1.5Z" transform="translate(-39.744 -23.325)" fill="#7a2a8f"/>
          <path id="Trazado_40649" data-name="Trazado 40649" d="M71.419,22.983h.3v2.275h-.634a.694.694,0,0,1-.531-.208.79.79,0,0,1-.2-.565.746.746,0,0,1,.207-.544.706.706,0,0,1,.531-.215.972.972,0,0,1,.326.063Zm0,2.023v-.951a.627.627,0,0,0-.281-.07.452.452,0,0,0-.352.146.56.56,0,0,0-.132.39.524.524,0,0,0,.113.357.357.357,0,0,0,.147.1.91.91,0,0,0,.274.027Z" transform="translate(-40.556 -22.948)" fill="#7a2a8f"/>
          <path id="Trazado_40650" data-name="Trazado 40650" d="M74.248,24.914H73.194a.487.487,0,0,0,.145.342.476.476,0,0,0,.342.128.887.887,0,0,0,.542-.184v.291a1.032,1.032,0,0,1-.272.13,1.161,1.161,0,0,1-.315.039.711.711,0,0,1-.4-.1.739.739,0,0,1-.244-.276.846.846,0,0,1-.092-.4.79.79,0,0,1,.193-.557.644.644,0,0,1,.5-.214.594.594,0,0,1,.476.208.827.827,0,0,1,.178.559ZM73.2,24.736h.755a.424.424,0,0,0-.106-.275.347.347,0,0,0-.254-.1.372.372,0,0,0-.261.1A.491.491,0,0,0,73.2,24.736Z" transform="translate(-41.409 -23.325)" fill="#7a2a8f"/>
          <path id="Trazado_40651" data-name="Trazado 40651" d="M75.739,24.137v.344l.016-.025c.142-.233.286-.347.43-.347a.531.531,0,0,1,.35.169l-.157.261a.437.437,0,0,0-.287-.146.3.3,0,0,0-.248.136.515.515,0,0,0-.105.325v.782h-.3v-1.5Z" transform="translate(-42.26 -23.325)" fill="#7a2a8f"/>
        </g>
        <g id="Grupo_18534" data-name="Grupo 18534" transform="translate(46.604 9.496)">
          <g id="Grupo_18533" data-name="Grupo 18533">
            <path id="Trazado_40652" data-name="Trazado 40652" d="M72.037,18.446l-1.786-4.059h.779l1.411,3.186,1.07-3.186h.723l-1.467,4.059Z" transform="translate(-70.144 -14.317)" fill="#7a2a8f"/>
            <path id="Trazado_40653" data-name="Trazado 40653" d="M72.761,18.481h-.824l-.017-.042-1.83-4.158h.932l1.356,3.065,1.031-3.065h.871Zm-.733-.138h.637l1.416-3.921h-.573L72.4,17.728,70.93,14.421H70.3Z" transform="translate(-70.09 -14.281)" fill="#7a2a8f"/>
          </g>
        </g>
        <path id="Trazado_40654" data-name="Trazado 40654" d="M7.186,14.926a.822.822,0,0,1-.156.013,1.012,1.012,0,0,1-.769-.352L3.3,11.164a1.017,1.017,0,0,1,1.539-1.33l1.92,2.218A54.563,54.563,0,0,1,9.743,6.511a7.045,7.045,0,1,0,1.739,1.047,57.668,57.668,0,0,0-3.517,6.765A1.015,1.015,0,0,1,7.186,14.926Z" transform="translate(0 -1.999)" fill="#7a2a8f"/>
        <path id="Trazado_40655" data-name="Trazado 40655" d="M19.448,1.795A1.018,1.018,0,0,0,18.133.241a20.485,20.485,0,0,0-3.48,4.271,6.974,6.974,0,0,1,1.739,1.047A18.215,18.215,0,0,1,19.448,1.795Z" transform="translate(-4.91 0)" fill="#7a2a8f"/>
        <g id="Grupo_18535" data-name="Grupo 18535" transform="translate(35.766 7.954)">
          <rect id="Rect치ngulo_18189" data-name="Rect치ngulo 18189" width="0.778" height="0.862" transform="translate(0.047 0.046)" fill="#7a2a8f"/>
          <path id="Trazado_40656" data-name="Trazado 40656" d="M54.616,12.916h-.779a.047.047,0,0,1-.047-.046v-.862a.046.046,0,0,1,.047-.046h.779a.045.045,0,0,1,.045.046v.862A.046.046,0,0,1,54.616,12.916Zm-.732-.092h.684v-.771h-.684Z" transform="translate(-53.79 -11.962)" fill="#7a2a8f"/>
        </g>
      </g>
    </g>
  </g>
</svg>
