<svg xmlns="http://www.w3.org/2000/svg" xmlns:xlink="http://www.w3.org/1999/xlink" width="84" height="85" viewBox="0 0 84 85">
  <defs>
    <filter id="Rectángulo_18126" x="0" y="0" width="84" height="85" filterUnits="userSpaceOnUse">
      <feOffset dy="3" input="SourceAlpha"/>
      <feGaussianBlur stdDeviation="3" result="blur"/>
      <feFlood flood-opacity="0.161"/>
      <feComposite operator="in" in2="blur"/>
      <feComposite in="SourceGraphic"/>
    </filter>
  </defs>
  <g id="Grupo_18856" data-name="Grupo 18856" transform="translate(-435 -1662)">
    <g transform="matrix(1, 0, 0, 1, 435, 1662)" filter="url(#Rectángulo_18126)">
      <rect id="Rectángulo_18126-2" data-name="Rectángulo 18126" width="66" height="67" rx="10" transform="translate(9 6)" fill="#fff"/>
    </g>
    <g id="_232_I.Sat_Color" data-name="232 I.Sat Color" transform="translate(453 1693)">
      <g id="Grupo_18280" data-name="Grupo 18280" transform="translate(0 0)">
        <path id="Trazado_40346" data-name="Trazado 40346" d="M12.761,11.317a5.209,5.209,0,1,1-4.33-8.1,5.16,5.16,0,0,1,4.33,2.325,3.683,3.683,0,0,1,2.353-.84,3.56,3.56,0,0,1,.928.109,8.423,8.423,0,1,0,0,7.235,4.081,4.081,0,0,1-.91.108,3.776,3.776,0,0,1-2.371-.836" fill="#009c9d"/>
        <path id="Trazado_40347" data-name="Trazado 40347" d="M15.753,6.723l-.327.027a1.724,1.724,0,0,1,.9,2.905,1.7,1.7,0,0,1-.892.476l.321.033a1.72,1.72,0,0,0,0-3.441" transform="translate(-0.036 -0.016)" fill="#e50019"/>
        <path id="Trazado_40348" data-name="Trazado 40348" d="M14.031,8.451a1.726,1.726,0,0,1,1.4-1.7l-.329-.027a1.72,1.72,0,0,0,0,3.441h0l.327-.033a1.727,1.727,0,0,1-1.407-1.68" transform="translate(-0.031 -0.016)" fill="#009c9d"/>
        <path id="Trazado_40349" data-name="Trazado 40349" d="M15.433,6.754a1.718,1.718,0,0,0-.026,3.371l.033,0,.022,0a1.719,1.719,0,0,0,1.358-1.686,1.735,1.735,0,0,0-1.387-1.685" transform="translate(-0.033 -0.016)" fill="#042121"/>
        <rect id="Rectángulo_18141" data-name="Rectángulo 18141" width="2.206" height="5.98" transform="translate(7.387 5.436)" fill="#e50019"/>
        <path id="Trazado_40350" data-name="Trazado 40350" d="M43.111,16.667H42.1V2.095H37.324V1.077h10.5V2.095h-4.71V16.667M33.98,2.733l-3,7.74h5.99L33.98,2.733m6.464,13.938H39.352l-1.993-5.185H30.58l-2.014,5.185H27.474l.109-.286.061-.152,5.9-15.191h.873l6.025,15.629m-17.449.378h-.349a5.083,5.083,0,0,1-4.524-2.7,6.018,6.018,0,0,1-.674-2.459l-.008-.327,1.012-.006.006.2v.106a5.16,5.16,0,0,0,.558,2.016,4.13,4.13,0,0,0,3.69,2.151l.235.006h.029a4.244,4.244,0,0,0,3.283-1.409,3.551,3.551,0,0,0,.63-1.987v-.037a2.867,2.867,0,0,0-.342-1.351c-.69-1.245-1.949-1.654-3.489-2.032l-.344-.082a6.911,6.911,0,0,1-4.024-2,3.725,3.725,0,0,1-.834-2.365V4.741a3.559,3.559,0,0,1,.627-2.057A4.762,4.762,0,0,1,22.427.723h.045A5.6,5.6,0,0,1,25.9,1.872a4.259,4.259,0,0,1,1.658,3.347l.006.324-1.014.023V5.239a3.2,3.2,0,0,0-1.276-2.572,4.563,4.563,0,0,0-2.8-.932h-.025A3.794,3.794,0,0,0,19.3,3.264a2.567,2.567,0,0,0-.439,1.477v.035a2.838,2.838,0,0,0,.595,1.731c.818.994,2.132,1.331,3.588,1.685l.247.053c1.613.4,3.216.906,4.13,2.525a3.83,3.83,0,0,1,.464,1.836l-.213,0h.213v.019a4.52,4.52,0,0,1-.807,2.592,5.21,5.21,0,0,1-4.085,1.83" transform="translate(-0.041 -0.002)" fill="#e50019"/>
      </g>
    </g>
  </g>
</svg>
