<svg xmlns="http://www.w3.org/2000/svg" xmlns:xlink="http://www.w3.org/1999/xlink" width="86" height="85" viewBox="0 0 86 85">
  <defs>
    <filter id="Rect치ngulo_18095" x="0" y="0" width="86" height="85" filterUnits="userSpaceOnUse">
      <feOffset dy="3" input="SourceAlpha"/>
      <feGaussianBlur stdDeviation="3" result="blur"/>
      <feFlood flood-opacity="0.161"/>
      <feComposite operator="in" in2="blur"/>
      <feComposite in="SourceGraphic"/>
    </filter>
  </defs>
  <g id="Grupo_18822" data-name="Grupo 18822" transform="translate(-1227 -1494)">
    <g transform="matrix(1, 0, 0, 1, 1227, 1494)" filter="url(#Rect치ngulo_18095)">
      <rect id="Rect치ngulo_18095-2" data-name="Rect치ngulo 18095" width="68" height="67" rx="10" transform="translate(9 6)" fill="#fff"/>
    </g>
    <g id="Grupo_18241" data-name="Grupo 18241" transform="translate(1242 1527)">
      <path id="Trazado_929" data-name="Trazado 929" d="M454,144.358h2.466a2.329,2.329,0,0,0,2.216-1.856,4.654,4.654,0,0,0,.138-1.08v-5.516l.415-.417v6.059a2.945,2.945,0,0,1-2.769,3.225H453.58Zm6.906-7.005V142.1a2.481,2.481,0,0,0,4.958,0v-4.334l.415-.415V142.1a2.9,2.9,0,0,1-5.789,0v-4.334Zm6.633,4.116V139.5c0-1.19,1.113-2.147,3.009-2.147h2.549l-.413.415h-2.136c-1.648,0-2.594.761-2.594,1.732v1.463h5.158v1.668c0,1.19-1.219,2.147-3.115,2.147h-2.46l.417-.415h2.043c1.648,0,2.7-.763,2.7-1.732v-1.158Zm6.822-4.116v-1.447l.415-.417v1.864h2.6l-.419.415h-2.181v4.4a1.986,1.986,0,0,0,2.118,2.2h.482l-.419.415h-.063a2.377,2.377,0,0,1-2.533-2.617v-4.818Zm4.678,0v7.005l-.417.417v-7.007Zm-.417-.112.417-.415v-.564l-.417.415Zm6.771,7.63c-3.129,0-4.694-1.9-4.694-3.807s1.565-3.823,4.694-3.823l.4,0-.4.411c-2.853,0-4.279,1.717-4.279,3.408s1.426,3.392,4.279,3.392h.419Zm1.664-7.1v7.007l.415-.417v-7.005Zm0-.527.415-.415v-.564l-.415.415Zm7.663,7.467v-6.954h-1.284c-2.852,0-4.279,1.672-4.279,3.316s1.426,3.3,4.279,3.3h.433l.421.4h-.855c-3.129,0-4.694-1.845-4.694-3.705s1.565-3.719,4.694-3.719h1.705v7.766Zm2.686-2.537v-5.9h2.075l.779-.777H495.9l-.779.777h1.5v5.9a2.557,2.557,0,0,0,2.712,2.8h.138l.781-.775h-.92A1.809,1.809,0,0,1,497.4,142.171Zm12-6.674-7.7,7.7v-7.707l-.775.777v8.8l9.575-9.571Zm-48.332,12.816a.737.737,0,0,1-.128.012.459.459,0,0,1-.3-.079.411.411,0,0,1-.126-.262,3.458,3.458,0,0,1-.033-.564,3.736,3.736,0,0,1,.033-.564.432.432,0,0,1,.128-.265.457.457,0,0,1,.3-.079.754.754,0,0,1,.136.012.367.367,0,0,1,.1.026v.26a1,1,0,0,0-.177-.018.2.2,0,0,0-.14.039.258.258,0,0,0-.051.157c-.008.081-.012.224-.012.431s0,.348.012.429a.258.258,0,0,0,.051.157.2.2,0,0,0,.14.039.873.873,0,0,0,.183-.018v.256A.584.584,0,0,1,461.065,148.313Zm1.076-.008-.059-.389h-.3l-.059.389h-.307l.291-1.77h.458l.293,1.77Zm-.2-1.453h-.014l-.114.792h.242Zm1.441,1.453-.326-1h-.01v1h-.3v-1.77h.293l.307.928h.014v-.928h.293v1.77Zm1.3,0-.059-.389h-.3l-.059.389h-.305l.291-1.77h.458l.293,1.77Zm-.2-1.453h-.016l-.114.792h.242Zm.808,1.453v-1.77h.311v1.483h.354v.287Zm1.5-1.77h.415a.52.52,0,0,1,.319.075.368.368,0,0,1,.12.244,6.541,6.541,0,0,1,0,1.129.368.368,0,0,1-.12.244.519.519,0,0,1-.319.077h-.415Zm.415,1.489a.145.145,0,0,0,.108-.03.272.272,0,0,0,.039-.149c.006-.077.01-.22.01-.425s0-.35-.01-.427a.279.279,0,0,0-.039-.149.145.145,0,0,0-.108-.031h-.108v1.211Zm.816.281v-1.77h.7v.279h-.393v.456h.344v.281h-.344v.474h.393v.281Zm1.046,0v-1.77h.311v1.483h.356v.287Zm1.506-1.77h.476a.443.443,0,0,1,.26.065.339.339,0,0,1,.116.193,1.623,1.623,0,0,1,.028.336,1.578,1.578,0,0,1-.028.328.339.339,0,0,1-.114.2.417.417,0,0,1-.262.071h-.165v.58h-.311Zm.425.909a.15.15,0,0,0,.1-.024.129.129,0,0,0,.039-.085,1.54,1.54,0,0,0,.01-.205,1.519,1.519,0,0,0-.01-.206.12.12,0,0,0-.039-.085.15.15,0,0,0-.1-.024h-.114v.631Zm.881.8a.384.384,0,0,1-.118-.252,6.835,6.835,0,0,1,0-1.154.384.384,0,0,1,.118-.252.511.511,0,0,1,.317-.077.518.518,0,0,1,.319.077.384.384,0,0,1,.12.252,6.835,6.835,0,0,1,0,1.154.384.384,0,0,1-.12.252.518.518,0,0,1-.319.077A.511.511,0,0,1,471.874,148.248Zm.423-.234a.3.3,0,0,0,.037-.153c.006-.081.01-.228.01-.442s0-.362-.01-.444a.3.3,0,0,0-.037-.153.143.143,0,0,0-.106-.031.137.137,0,0,0-.1.031.333.333,0,0,0-.039.155c-.006.081-.01.228-.01.442s0,.358.01.44a.317.317,0,0,0,.039.155.137.137,0,0,0,.1.031A.143.143,0,0,0,472.3,148.014Zm.71-1.479h.413a.515.515,0,0,1,.319.075.368.368,0,0,1,.12.244,6.533,6.533,0,0,1,0,1.129.368.368,0,0,1-.12.244.514.514,0,0,1-.319.077h-.413Zm.413,1.489a.151.151,0,0,0,.11-.03.277.277,0,0,0,.037-.149c.008-.077.012-.22.012-.425s0-.35-.012-.427a.284.284,0,0,0-.037-.149.151.151,0,0,0-.11-.031h-.108v1.211Zm.816.281v-1.77h.706v.279h-.395v.456h.346v.281h-.346v.474h.395v.281Zm1.654,0-.149-.631H475.6v.631h-.311v-1.77h.486a.432.432,0,0,1,.258.063.307.307,0,0,1,.114.183,1.821,1.821,0,0,1,0,.641.291.291,0,0,1-.12.183l.187.7Zm-.075-.926a.114.114,0,0,0,.039-.081,1.4,1.4,0,0,0,.008-.189,1.431,1.431,0,0,0-.008-.191.118.118,0,0,0-.039-.081.17.17,0,0,0-.1-.022H475.6v.588h.124A.17.17,0,0,0,475.815,147.38Zm1.3.639a.1.1,0,0,0,.051-.081,1.63,1.63,0,0,0,.01-.24v-1.162h.309v1a3.134,3.134,0,0,1-.029.537.226.226,0,0,1-.124.185,1.063,1.063,0,0,1-.362.045v-.267A.373.373,0,0,0,477.115,148.018Zm1.626-1.483v.989a4.118,4.118,0,0,1-.022.507.336.336,0,0,1-.116.224.707.707,0,0,1-.618,0,.326.326,0,0,1-.114-.224,3.63,3.63,0,0,1-.024-.507v-.989h.309v1.111c0,.132,0,.224.008.275a.154.154,0,0,0,.035.1.142.142,0,0,0,.1.024.148.148,0,0,0,.1-.024.172.172,0,0,0,.035-.1c0-.049.008-.14.008-.275v-1.111Zm.37,0h.415a.523.523,0,0,1,.319.075.377.377,0,0,1,.12.244,6.549,6.549,0,0,1,0,1.129.377.377,0,0,1-.12.244.522.522,0,0,1-.319.077h-.415Zm.415,1.489a.145.145,0,0,0,.108-.03.273.273,0,0,0,.039-.149c.006-.077.01-.22.01-.425s0-.35-.01-.427a.279.279,0,0,0-.039-.149.145.145,0,0,0-.108-.031h-.108v1.211Zm.82.281v-1.77h.309v1.77Zm1.249.008a.717.717,0,0,1-.126.012.461.461,0,0,1-.3-.079.421.421,0,0,1-.126-.262,3.775,3.775,0,0,1-.031-.564,3.49,3.49,0,0,1,.033-.564.421.421,0,0,1,.126-.265.459.459,0,0,1,.3-.079.747.747,0,0,1,.134.012.385.385,0,0,1,.1.026v.26a1.01,1.01,0,0,0-.179-.018.2.2,0,0,0-.14.039.258.258,0,0,0-.051.157c-.008.081-.012.224-.012.431s0,.348.012.429a.258.258,0,0,0,.051.157.2.2,0,0,0,.14.039.872.872,0,0,0,.183-.018v.256A.507.507,0,0,1,481.6,148.313Zm.441-.008v-1.77h.309v1.77Zm1.335,0-.059-.389h-.3l-.059.389h-.307l.291-1.77h.458l.3,1.77Zm-.2-1.453h-.014l-.114.792h.242Zm.808,1.453v-1.77h.311v1.483h.356v.287Zm1.506-1.77h.415a.523.523,0,0,1,.319.075.367.367,0,0,1,.118.244,6.541,6.541,0,0,1,0,1.129.367.367,0,0,1-.118.244.522.522,0,0,1-.319.077h-.415Zm.415,1.489a.145.145,0,0,0,.108-.03.293.293,0,0,0,.039-.149c.006-.077.01-.22.01-.425s0-.35-.01-.427a.3.3,0,0,0-.039-.149.145.145,0,0,0-.108-.031h-.108v1.211Zm.816.281v-1.77h.7v.279h-.393v.456h.344v.281h-.344v.474h.393v.281Zm1.591,0v-1.77h.311v1.483h.356v.287Zm1.6,0-.059-.389h-.305l-.059.389h-.305l.291-1.77h.458l.293,1.77Zm-.2-1.453h-.016l-.112.792h.24Zm1.353,1.453v-1.77h.671v.279h-.36v.492h.319v.281h-.319v.718Zm.985,0v-1.77h.706v.279h-.395v.456h.346v.281h-.346v.474h.395v.281Zm1.048-1.77h.413a.515.515,0,0,1,.319.075.367.367,0,0,1,.12.244,6.517,6.517,0,0,1,0,1.129.367.367,0,0,1-.12.244.514.514,0,0,1-.319.077h-.413Zm.413,1.489a.151.151,0,0,0,.11-.03.293.293,0,0,0,.039-.149c.006-.077.01-.22.01-.425s0-.35-.01-.427a.3.3,0,0,0-.039-.149.151.151,0,0,0-.11-.031h-.108v1.211Zm.816.281v-1.77h.706v.279h-.395v.456h.346v.281h-.346v.474h.395v.281Zm1.654,0-.149-.631h-.147v.631h-.311v-1.77h.486a.432.432,0,0,1,.258.063.306.306,0,0,1,.114.183,1.816,1.816,0,0,1,0,.641.291.291,0,0,1-.12.183l.187.7Zm-.075-.926a.115.115,0,0,0,.039-.081,1.426,1.426,0,0,0,.008-.189,1.462,1.462,0,0,0-.008-.191.119.119,0,0,0-.039-.081.166.166,0,0,0-.1-.022h-.124v.588h.124A.166.166,0,0,0,495.9,147.38Zm1.347.926-.059-.389h-.3l-.059.389h-.307l.291-1.77h.458l.293,1.77Zm-.2-1.453h-.016l-.112.792h.242Zm1.363,1.461a.756.756,0,0,1-.128.012.465.465,0,0,1-.3-.079.422.422,0,0,1-.126-.262,3.78,3.78,0,0,1-.031-.564,3.486,3.486,0,0,1,.033-.564.422.422,0,0,1,.128-.265.452.452,0,0,1,.295-.079.715.715,0,0,1,.134.012.362.362,0,0,1,.1.026v.26a1,1,0,0,0-.177-.018.2.2,0,0,0-.14.039.245.245,0,0,0-.051.157c-.008.081-.012.224-.012.431s0,.348.012.429a.246.246,0,0,0,.051.157.2.2,0,0,0,.14.039.874.874,0,0,0,.183-.018v.256A.581.581,0,0,1,498.4,148.313Zm.44-.008v-1.77h.309v1.77Zm.81-.057a.383.383,0,0,1-.118-.252,6.809,6.809,0,0,1,0-1.154.383.383,0,0,1,.118-.252.695.695,0,0,1,.637,0,.385.385,0,0,1,.12.252,6.835,6.835,0,0,1,0,1.154.385.385,0,0,1-.12.252.694.694,0,0,1-.637,0Zm.423-.234a.277.277,0,0,0,.037-.153c.006-.081.01-.228.01-.442s0-.362-.01-.444a.283.283,0,0,0-.037-.153.14.14,0,0,0-.106-.031.137.137,0,0,0-.1.031.315.315,0,0,0-.037.155c-.008.081-.01.228-.01.442s0,.358.01.44a.3.3,0,0,0,.037.155.137.137,0,0,0,.1.031A.14.14,0,0,0,500.074,148.014Zm-.236-1.64v-.012l.092-.36h.287v.012l-.142.36Zm1.579,1.931-.326-1h-.01v1h-.3v-1.77h.293l.307.928h.014v-.928h.293v1.77Z" transform="translate(-453.58 -135.489)" fill="#17005d"/>
    </g>
  </g>
</svg>
