<svg xmlns="http://www.w3.org/2000/svg" xmlns:xlink="http://www.w3.org/1999/xlink" width="85" height="84" viewBox="0 0 85 84">
  <defs>
    <filter id="Rect치ngulo_18068" x="0" y="0" width="85" height="84" filterUnits="userSpaceOnUse">
      <feOffset dy="3" input="SourceAlpha"/>
      <feGaussianBlur stdDeviation="3" result="blur"/>
      <feFlood flood-opacity="0.161"/>
      <feComposite operator="in" in2="blur"/>
      <feComposite in="SourceGraphic"/>
    </filter>
    <linearGradient id="linear-gradient" x1="0.203" y1="0.57" x2="0.735" y2="0.146" gradientUnits="objectBoundingBox">
      <stop offset="0" stop-color="#293819"/>
      <stop offset="0.471" stop-color="#316533"/>
      <stop offset="1" stop-color="#789a2e"/>
    </linearGradient>
    <linearGradient id="linear-gradient-2" x1="0.14" y1="0.64" x2="0.898" y2="0.081" xlink:href="#linear-gradient"/>
    <linearGradient id="linear-gradient-3" x1="0.147" y1="0.648" x2="0.903" y2="0.079" gradientUnits="objectBoundingBox">
      <stop offset="0" stop-color="#293819"/>
      <stop offset="0.352" stop-color="#316533"/>
      <stop offset="1" stop-color="#789a2e"/>
    </linearGradient>
  </defs>
  <g id="Grupo_18813" data-name="Grupo 18813" transform="translate(-523 -1410)">
    <g transform="matrix(1, 0, 0, 1, 523, 1410)" filter="url(#Rect치ngulo_18068)">
      <rect id="Rect치ngulo_18068-2" data-name="Rect치ngulo 18068" width="67" height="66" rx="10" transform="translate(9 6)" fill="#fff"/>
    </g>
    <g id="Grupo_18220" data-name="Grupo 18220" transform="translate(539 1434)">
      <path id="Trazado_338" data-name="Trazado 338" d="M218.837,129.69l-.2.219-3.62.691-1.925.451-.116.044h-.01l.784-1.187-1.8,1.027-.681.622-3.62.877.346-1.189-.841.844-.7.622c-1.672.4-3.112.725-3.354.748a1.1,1.1,0,0,1-.968-.611s-.106.462-.415,1.373h-.013l-3.468,3.424-.934.864-10.259,4.448,1.579-5.013,1.084-.841L192.615,128l1.174-.957-.183-.057-.808.09.379-3.225.036-.359.379-1.21.392-.07,1.569-5.349-.462-.655.854-.854,2.766.681-.323,4.415,1.453-1.429,4.229.08-.795,4.99-1.084,1.107h4.079l3.966-1.44.266-.323,6.386.622-.359,1.393a1.988,1.988,0,0,1-.482.681c-.036.023-.083.057-.129.093l-1.037.15s-.09.206-.206.5a4.175,4.175,0,0,1-.831.126c-1.3.07-1.257,1.718-1.257,1.718s1.28.16,1.3,0c.013-.116.485-1.187.784-1.845a3.186,3.186,0,0,0,1.244-.645l1.569-.219Z" transform="translate(-169.358 -112.923)" fill="#004391"/>
      <path id="Trazado_339" data-name="Trazado 339" d="M202.267,122.741l.183.057-1.174.957-2.905,9.105-1.084.841-.877.183.186-.16,1.22-1.107-1.393-5.924-1.9.426L193,131.35v.805l-2.477,2.941-.555-.947.911-1.084s.472-3.1.6-3.2a42.454,42.454,0,0,0-2.8-3.873l-1.8,6.259.831,1.476-.6,2.237-2.985,1.14,1.638-1.625L188.2,124.3l-4.082-1.765-1,.831-1.556-1.625,9.069-1.533,1.592,4.495,4.368-5.625,5.658-1.037-.379,1.21-.036.359-.379,3.225Z" transform="translate(-178.019 -108.681)" fill="#0055a4"/>
      <path id="Trazado_340" data-name="Trazado 340" d="M191.96,120.019l-.542-.75L190,120.456Z" transform="translate(-164.7 -106.733)" fill="#0053a2"/>
      <path id="Trazado_341" data-name="Trazado 341" d="M181.068,135.915l-.876-1.777,4.995-14.082,1.237,1.293Z" transform="translate(-180.191 -105.491)" fill="#0d244d"/>
      <path id="Trazado_342" data-name="Trazado 342" d="M189.842,121.543l-2.444,11.18-1.637,1.625h-.012l-5.221,2.006,5.36-14.569-1.13-1.176,1-.83Z" transform="translate(-179.658 -105.928)" fill="#003d85"/>
      <path id="Trazado_343" data-name="Trazado 343" d="M188.223,124.992c-.126.106-.6,3.2-.6,3.2l-.911,1.084-1.613-2.8-.645,2.374-.831-1.476,1.8-6.259A42.455,42.455,0,0,1,188.223,124.992Z" transform="translate(-174.766 -103.811)" fill="#004391"/>
      <path id="Trazado_344" data-name="Trazado 344" d="M190.949,127.316l-1.222,1.107-.184.161-3.631.749.761-3.124-.542.645v-.807l1.521-4.23,1.9-.426Z" transform="translate(-171.152 -103.379)" fill="#004391"/>
      <path id="Trazado_345" data-name="Trazado 345" d="M188,129.122l-1.552-1.579.776-2.947,2.355-.488Z" transform="translate(-170.309 -99.088)" fill="#0d244d"/>
      <path id="Trazado_346" data-name="Trazado 346" d="M217.727,125.886l-.2.968-1.958,2.962-.921,1.024-1.349-3.687-1.569.219c.046-.036.093-.07.129-.093a1.988,1.988,0,0,0,.482-.681l.359-1.393-6.386-.622-.266.323-3.966,1.44h-4.079l1.084-1.107.795-4.99-4.229-.08L194.2,121.6l.323-4.415-2.766-.681-.854.854-1.21-1.742,7.124-.991-.854,2.975-.379,1.324a4.614,4.614,0,0,1,1.994-.6l4.678-.725-1.151,3.86,1.151-.139-1.174,3.321,12.011-2.4,1.44,1.935-.323.658-.6,1.05.034.908Z" transform="translate(-165.173 -114.074)" fill="#00519d"/>
      <path id="Trazado_347" data-name="Trazado 347" d="M194.614,118.944l9.275-1.616,2.231.641-12.01,2.4Z" transform="translate(-158.198 -109.8)" fill="#004391"/>
      <path id="Trazado_348" data-name="Trazado 348" d="M191.957,126.089l3.468-3.424c-.126.379-.3.854-.519,1.4a3.55,3.55,0,0,1-2.258,2.188l-1.626.7Z" transform="translate(-163.076 -101.368)" fill="#052443"/>
      <path id="Trazado_349" data-name="Trazado 349" d="M195.272,122.356l.841-.844-.346,1.189c-.4.09-.8.183-1.2.276Z" transform="translate(-157.471 -103.19)" fill="#00519d"/>
      <path id="Trazado_350" data-name="Trazado 350" d="M197.118,122.021l1.8-1.027-.784,1.187-.323.129s-.542.126-1.373.333Z" transform="translate(-154.521 -104.008)" fill="#00519d"/>
      <path id="Trazado_351" data-name="Trazado 351" d="M198.2,119.941a4.176,4.176,0,0,0,.831-.126c-.3.658-.771,1.729-.784,1.845-.023.16-1.3,0-1.3,0S196.9,120.011,198.2,119.941Z" transform="translate(-153.717 -105.871)" fill="#00519d"/>
      <path id="Trazado_352" data-name="Trazado 352" d="M197.961,119.715l1.037-.15a3.186,3.186,0,0,1-1.244.645C197.871,119.921,197.961,119.715,197.961,119.715Z" transform="translate(-152.438 -106.266)" fill="#052443"/>
      <path id="Trazado_353" data-name="Trazado 353" d="M184.629,121.927l1.585,1.609-4.827,13.351,5.355-2.041,1.9-7.084,2.81,4.947,5.115-6.243-1.633,6.387,3.722-.864,4.274-13.4-4.995.912-5.475,7.036-1.921-5.619Z" transform="translate(-178.302 -107.808)" fill="#fec500"/>
      <path id="Trazado_354" data-name="Trazado 354" d="M193.718,123.351l-.126.575-.01.034c-.691,1.994-3.586,1.925-3.586,1.925l2.64-8.932-.911-1.267,3.793-.485-2.663,8.194a2.4,2.4,0,0,1,.645-.24A.222.222,0,0,1,193.718,123.351Z" transform="translate(-164.7 -113.163)" fill="#fec500"/>
      <path id="Trazado_355" data-name="Trazado 355" d="M198.485,116.351s-2.882.578-3.86.668c-.993.093-1.638.658-2.087,2.111-.173.542-.356,1.13-.519,1.649l-.01.01a.042.042,0,0,1-.013.036,7.828,7.828,0,0,0-.426,1.625l.7.715,4.3-.715s1.36-.046,1.819-1.971c0,0,.2-.359-.286-.289s-.841.139-.841.139l1.22-3.723S198.612,116.3,198.485,116.351ZM195,121.39l-1.14.206,1.094-3.274,1.177-.183Z" transform="translate(-162.217 -111.352)" fill="#fec500"/>
      <path id="Trazado_356" data-name="Trazado 356" d="M196.678,123.975l1.073-3.135-1.117-1.36-4.208.864s-1.406.034-1.948,1.9-1.729,5.591-1.729,5.591l1.014,1.037,4.461-1.037s1.7-.232,2.237-3.045l-2.6.519-.286,1.014-1.615.209.5-1.625Zm-1.948-1.187-1.716.289.4-1.28,1.649-.359Z" transform="translate(-166.669 -106.4)" fill="#fec500"/>
      <path id="Trazado_357" data-name="Trazado 357" d="M198.549,119.725l1.37,1.466-2.5,7.828-8.112,1.922-1.44,4.706,10.4-4.492s.9-.263,1.445-1.847,3.478-10.207,3.478-10.207Z" transform="translate(-168.066 -106.999)" fill="#fec500"/>
      <path id="Trazado_358" data-name="Trazado 358" d="M200.682,118.636s-1.107.173-3.125.575a3.122,3.122,0,0,0-2.477,1.729l-1.891,5.625.957.98s1.615-.289,3.411-.668a3.509,3.509,0,0,0,2.423-1.925l1.729-5.119Zm-3.078,6.489-1.463.286,1.533-4.611,1.5-.286Z" transform="translate(-159.653 -107.734)" fill="#fec500"/>
      <path id="Trazado_359" data-name="Trazado 359" d="M204.351,119.429l-.565,1.5-2.283.459s.325-.782.462-1.117-.243-.206-.243-.206l-.449.09-.691.15-1,3.1-.173.542a3.935,3.935,0,0,0,.751-.2.36.36,0,0,1,.15-.046c.16-.01.126.126.126.126l-.2.635a2.672,2.672,0,0,1-2.041,2.157l-2.258.482,2.211-6.419-1.06-1.257s3.181-.588,4.394-.841a6.27,6.27,0,0,0,1.579-.542.448.448,0,0,1,.16.023,2.5,2.5,0,0,1,.7.612C204.524,119.3,204.351,119.429,204.351,119.429Z" transform="translate(-155.311 -108.666)" fill="#fec500"/>
      <path id="Trazado_360" data-name="Trazado 360" d="M201.357,119.685l-.093.369a2.008,2.008,0,0,1-.046.209l-.034.137c-.126.532-.392.668-.588.691a.459.459,0,0,1-.219-.01l.186-.565-.462.07-.588,2.154.276-.023-.243.7-1.44.276s.034-.552.173-.668a1.146,1.146,0,0,1,.369-.126c.1-.15.645-2.134.645-2.134l-.482.116-.186.611-.462.08-.206.034.529-1.313,2.34-.5Z" transform="translate(-152.121 -106.077)" fill="#fec500"/>
      <path id="Trazado_361" data-name="Trazado 361" d="M202.208,119.426c0,.15-1.442,3.194-1.442,3.194a1.221,1.221,0,0,1-.805.691c-.323.08-.668.16-.668.16l.2-2.753-.186.01.046-.266.07-.4.346-.08.253-.059.462-.114-.312,2.431s.093.126.186-.1.691-1.739.691-1.739l-.255.057s.163-.645.2-.681l.059-.023a9.02,9.02,0,0,1,1.14-.323Z" transform="translate(-150.009 -106.486)" fill="#fec500"/>
      <path id="Trazado_362" data-name="Trazado 362" d="M182.306,121.045l-1.207-1.239,9.041-1.333,1.237,1.045Z" transform="translate(-178.757 -107.992)" fill="#004391"/>
      <path id="Trazado_363" data-name="Trazado 363" d="M190.845,115.947l-1.873-.564,6.88-.973,2.107.552Z" transform="translate(-166.316 -114.411)" fill="#004391"/>
      <path id="Trazado_364" data-name="Trazado 364" d="M198.651,116.151l-4.678.725a4.614,4.614,0,0,0-1.994.6l.379-1.324,4.322-.611Z" transform="translate(-161.565 -112.626)" fill="#004391"/>
      <path id="Trazado_365" data-name="Trazado 365" d="M195.271,117.462l-.993-.4-.159.534Z" transform="translate(-158.184 -110.215)" fill="#004391"/>
      <path id="Trazado_366" data-name="Trazado 366" d="M203.061,119.483l-2.65-.808-1.112.191-.32,1.064,0,.463Z" transform="translate(-150.506 -107.672)" fill="#004391"/>
      <path id="Trazado_367" data-name="Trazado 367" d="M187.283,123.259l-.761,3.124-1-1.039Z" transform="translate(-171.761 -100.429)" fill="#0b1a3c"/>
      <path id="Trazado_368" data-name="Trazado 368" d="M186.453,126.943l-2.313-3.2.146-.542Z" transform="translate(-173.952 -100.528)" fill="#0a1a3b"/>
      <path id="Trazado_369" data-name="Trazado 369" d="M181.545,134.073l-.258-.606,4.739-13.1.346.351Z" transform="translate(-178.46 -104.993)" fill="#2d4523"/>
      <path id="Trazado_370" data-name="Trazado 370" d="M185.8,126.148l5.475-7.036-.363-.276-5.315,6.719Z" transform="translate(-171.646 -107.418)" fill="#214726"/>
      <path id="Trazado_371" data-name="Trazado 371" d="M188.687,119.727l-.528-.384-5.6,1.122.222.27Z" transform="translate(-176.452 -106.616)" fill="#528439"/>
      <path id="Trazado_372" data-name="Trazado 372" d="M188.022,119.631l-.363-.276,4.847-.846.51.21Z" transform="translate(-168.391 -107.936)" fill="#5e7b2e"/>
      <path id="Trazado_373" data-name="Trazado 373" d="M190.323,124.865l-.534-.408,2.7-8.609.48.084Z" transform="translate(-165.026 -112.139)" fill="#2d4523"/>
      <path id="Trazado_374" data-name="Trazado 374" d="M191.851,116.716l-.913-1.273-.444-.09.877,1.279Z" transform="translate(-163.912 -112.922)" fill="#4d6225"/>
      <path id="Trazado_375" data-name="Trazado 375" d="M190.938,115.763l-.444-.09,3.656-.522.582.132Z" transform="translate(-163.912 -113.242)" fill="#5e7a2a"/>
      <path id="Trazado_376" data-name="Trazado 376" d="M198.772,116.384s-2.882.578-3.86.668c-.993.093-1.638.658-2.087,2.111-.173.542-.356,1.13-.519,1.649l-.01.01-.013.023v.013a7.83,7.83,0,0,0-.426,1.625l.7.715-1.174-1.017.01-.034a2.9,2.9,0,0,0,.126-.575s.519-2.167.968-3.331a2.38,2.38,0,0,1,1.662-1.4s2.513-.346,3.55-.472S198.772,116.384,198.772,116.384Z" transform="translate(-162.504 -111.386)" fill="url(#linear-gradient)"/>
      <path id="Trazado_377" data-name="Trazado 377" d="M194.164,117.106l-.973,2.964-.61.055-.125.374,1.141-.208,1.13-3.25Z" transform="translate(-160.81 -110.255)" fill="#33411b"/>
      <path id="Trazado_378" data-name="Trazado 378" d="M190.523,119.058l-1.647-1.012-3.467,4.53.745,2.106Z" transform="translate(-171.947 -108.665)" fill="#0d244d"/>
      <path id="Trazado_379" data-name="Trazado 379" d="M186.753,118.647l5.943-.979,1.755.884-6.051,1.106Z" transform="translate(-169.824 -109.265)" fill="#004390"/>
      <path id="Trazado_380" data-name="Trazado 380" d="M190.811,121.69l1.568-5.348-1.882-.661-1.441,5.125Z" transform="translate(-166.184 -112.403)" fill="#0b2957"/>
      <path id="Trazado_381" data-name="Trazado 381" d="M192.511,117.754l-1.666-2.4-1.873-.564,1.657,2.305Z" transform="translate(-166.316 -113.815)" fill="#0d2653"/>
      <path id="Trazado_382" data-name="Trazado 382" d="M186.888,128.029l-.411-.42,1.356-5.129.687-.839Z" transform="translate(-170.259 -102.984)" fill="#33411b"/>
      <path id="Trazado_383" data-name="Trazado 383" d="M188.14,128.626l-.449-.473,1.482-4.609.408.376Z" transform="translate(-168.341 -99.979)" fill="#32401a"/>
      <path id="Trazado_384" data-name="Trazado 384" d="M188.673,125.094l-.408-.376,7.977-1.918.542.373Z" transform="translate(-167.433 -101.154)" fill="#5e7a2a"/>
      <path id="Trazado_385" data-name="Trazado 385" d="M191.9,128.714l2.5-7.828-1.369-1.465-.383-.127,1.268,1.529-2.561,7.519Z" transform="translate(-162.548 -106.694)" fill="#33411b"/>
      <path id="Trazado_386" data-name="Trazado 386" d="M196.875,119.28l-.644-.291-4.373.788.383.127Z" transform="translate(-161.757 -107.177)" fill="#5e7a2a"/>
      <path id="Trazado_387" data-name="Trazado 387" d="M196.888,119.657l-4.208.864s-1.406.034-1.948,1.9S189,128.014,189,128.014l1.014,1.037-1.429-1.442s1.36-4.655,1.845-5.994a2.589,2.589,0,0,1,2.041-1.52l3.917-.728Z" transform="translate(-166.923 -106.577)" fill="url(#linear-gradient-2)"/>
      <path id="Trazado_388" data-name="Trazado 388" d="M191.9,120.359l-.384.906-.99.217-.124.394,1.717-.288.334-1.349Z" transform="translate(-164.057 -105.201)" fill="#33411b"/>
      <path id="Trazado_389" data-name="Trazado 389" d="M194.491,121.769l-.61-.376-2.549.561-.235.85-.924.126-.177.58,1.614-.207.288-1.014Z" transform="translate(-164.7 -103.377)" fill="#33411b"/>
      <path id="Trazado_390" data-name="Trazado 390" d="M200.977,118.807s-1.107.173-3.125.575a3.122,3.122,0,0,0-2.477,1.729l-1.891,5.625.957.98L193,126.343s1.313-3.826,1.8-5.359a2.388,2.388,0,0,1,1.855-1.7l3.687-.761Z" transform="translate(-159.949 -107.905)" fill="url(#linear-gradient-3)"/>
      <path id="Trazado_391" data-name="Trazado 391" d="M196.663,119.5l-1.415,4.194-.793.2-.123.369,1.464-.288,1.568-4.61Z" transform="translate(-157.845 -106.584)" fill="#32401a"/>
      <path id="Trazado_392" data-name="Trazado 392" d="M202.916,118.068l-.013.023a.447.447,0,0,0-.16-.023,6.269,6.269,0,0,1-1.579.542c-1.213.253-4.394.841-4.394.841l-.632-.253,6.154-1.13S202.81,117.988,202.916,118.068Z" transform="translate(-154.993 -108.688)" fill="#6f8a2b"/>
      <path id="Trazado_393" data-name="Trazado 393" d="M198.182,120.422a.36.36,0,0,0-.15.046,3.934,3.934,0,0,1-.751.2l.173-.542Z" transform="translate(-153.187 -105.384)" fill="#33411b"/>
      <path id="Trazado_394" data-name="Trazado 394" d="M199.71,120.1s-.542,1.984-.645,2.134a1.146,1.146,0,0,0-.369.126c-.139.116-.173.668-.173.668a7.773,7.773,0,0,1-.831-.312c.013-.034.023-.679.578-.759l.31-1.05.462-.08.186-.611Z" transform="translate(-152.538 -105.413)" fill="#33411b"/>
      <path id="Trazado_395" data-name="Trazado 395" d="M198.372,121.452l-.68-.41.515-1.257.7.353Z" transform="translate(-152.537 -105.918)" fill="#2b5d2f"/>
      <path id="Trazado_396" data-name="Trazado 396" d="M201.455,119.869l-.53.115-2.34.5-.692-.357,2.709-.553.242.081Z" transform="translate(-152.219 -106.259)" fill="#5e8a38"/>
      <path id="Trazado_397" data-name="Trazado 397" d="M201.691,119.56a9.019,9.019,0,0,0-1.14.323l-.059.023-.888-.31,1.383-.255Z" transform="translate(-149.516 -106.62)" fill="#5e8a38"/>
      <path id="Trazado_398" data-name="Trazado 398" d="M200.9,119.743l-.461.115-.254.058-.346.081-.807-.288,1.037-.242.38.127Z" transform="translate(-150.426 -106.422)" fill="#5e8a38"/>
      <path id="Trazado_399" data-name="Trazado 399" d="M199.836,119.849l-.07.4-.046.266-.2-.057a2.013,2.013,0,0,0,.046-.209l.093-.369-.611-.217-.023-.106Z" transform="translate(-150.427 -106.274)" fill="#323a17"/>
      <path id="Trazado_400" data-name="Trazado 400" d="M199.983,119.955l-.2,2.753-.808-.333v-1.638c.2-.023.462-.16.588-.691l.034-.137.2.057Z" transform="translate(-150.504 -105.723)" fill="#33411b"/>
      <path id="Trazado_401" data-name="Trazado 401" d="M200.592,120.374s-.6,1.509-.691,1.739-.186.1-.186.1l.312-2.43-.449-.15.067-.2.888.31c-.034.036-.2.681-.2.681Z" transform="translate(-149.558 -106.464)" fill="#33411b"/>
      <path id="Trazado_402" data-name="Trazado 402" d="M196.309,125.616l-.608-.422.791-2.229,1.346-3.977.684.207Z" transform="translate(-155.684 -107.177)" fill="#33411b"/>
      <path id="Trazado_403" data-name="Trazado 403" d="M197.148,119.786l-1.01-1.3.634.254,1.06,1.256Z" transform="translate(-154.994 -107.975)" fill="#323a17"/>
      <path id="Trazado_404" data-name="Trazado 404" d="M198.965,119.049c-.137.335-.462,1.117-.462,1.117l-.668-.206.439-1.027.449-.09S199.115,118.716,198.965,119.049Z" transform="translate(-152.312 -107.445)" fill="#323a17"/>
      <path id="Trazado_405" data-name="Trazado 405" d="M199,119.565a3.186,3.186,0,0,1-1.244.645c.116-.289.206-.5.206-.5Z" transform="translate(-152.438 -106.266)" fill="#003575"/>
      <path id="Trazado_406" data-name="Trazado 406" d="M202.758,120.994l-5.659,1.187.115-.046,1.925-.45Z" transform="translate(-153.476 -104.008)" fill="#0d244d"/>
      <path id="Trazado_407" data-name="Trazado 407" d="M191.029,118.836l-2.194,1.892-3.308,4.368.188.459Z" transform="translate(-171.761 -107.418)" fill="#004391"/>
    </g>
  </g>
</svg>
