<svg xmlns="http://www.w3.org/2000/svg" xmlns:xlink="http://www.w3.org/1999/xlink" width="85" height="85" viewBox="0 0 85 85">
  <defs>
    <filter id="Rect치ngulo_18091" x="0" y="0" width="85" height="85" filterUnits="userSpaceOnUse">
      <feOffset dy="3" input="SourceAlpha"/>
      <feGaussianBlur stdDeviation="3" result="blur"/>
      <feFlood flood-opacity="0.161"/>
      <feComposite operator="in" in2="blur"/>
      <feComposite in="SourceGraphic"/>
    </filter>
  </defs>
  <g id="Grupo_18826" data-name="Grupo 18826" transform="translate(-876 -1494)">
    <g transform="matrix(1, 0, 0, 1, 876, 1494)" filter="url(#Rect치ngulo_18091)">
      <rect id="Rect치ngulo_18091-2" data-name="Rect치ngulo 18091" width="67" height="67" rx="10" transform="translate(9 6)" fill="#fff"/>
    </g>
    <g id="Lifetime_Color_Azul" data-name="Lifetime Color Azul" transform="translate(918.442 1533.702)">
      <g id="Grupo_18244" data-name="Grupo 18244" transform="translate(-25.442 -7.702)">
        <g id="Grupo_18242" data-name="Grupo 18242">
          <path id="Trazado_40199" data-name="Trazado 40199" d="M255.686,15.4a2.543,2.543,0,0,0,.937-1.374c.329-1.089.643-2.185.913-3.291.489-1.994.942-4,1.409-6,.017-.074.026-.15.044-.25h-.682l-.029-.051a.828.828,0,0,1,.139-.14.733.733,0,0,1,.232-.1c.409-.085.556-.372.651-.747a4.736,4.736,0,0,1,1.282-2.271A3.893,3.893,0,0,1,262.931.044,1.041,1.041,0,0,0,263.092,0h.508c.183.044.37.079.549.134a1.238,1.238,0,0,1,.939,1.636,1.425,1.425,0,0,1-1.76.919.827.827,0,0,1-.581-.518l.209-.083a1.357,1.357,0,0,0,.763-1.5.432.432,0,0,0-.659-.3,1.316,1.316,0,0,0-.5.485,4.284,4.284,0,0,0-.407,1.035c-.182.751-.317,1.512-.477,2.3h1.169c-.078.355-.1.374-.425.374-.2,0-.41.011-.613,0-.154-.01-.208.057-.242.194-.336,1.366-.673,2.732-1.019,4.1-.317,1.248-.629,2.5-.975,3.736a4.305,4.305,0,0,1-1.031,1.847,3.474,3.474,0,0,1-2.267,1.006c-.1.01-.192.033-.288.049Z" transform="translate(-244.865)" fill="#011640"/>
          <path id="Trazado_40200" data-name="Trazado 40200" d="M1045.3,94.9c-.023.088-.046.175-.068.263a2.053,2.053,0,0,1-.787,1.168,4.574,4.574,0,0,1-2.066.8c-.361.06-.728.081-1.09.133a.23.23,0,0,0-.163.135,3.647,3.647,0,0,0,.038,1.593,1.426,1.426,0,0,0,2.152.878,5.249,5.249,0,0,0,.859-.737,1.263,1.263,0,0,1,.2-.187c-.021.055-.037.112-.063.165a3.394,3.394,0,0,1-2.468,2.02,3.133,3.133,0,0,1-1.566-.086,2.347,2.347,0,0,1-1.654-1.983,5.405,5.405,0,0,1,3.478-5.772,3.483,3.483,0,0,1,1.978-.113,1.435,1.435,0,0,1,1.174,1.185.249.249,0,0,0,.04.071Zm-4.12,2.17c.138-.051.231-.077.318-.118a3.593,3.593,0,0,0,1.82-1.97,2.488,2.488,0,0,0,.22-1.255c-.043-.368-.291-.492-.6-.283a2.028,2.028,0,0,0-.493.484A8.328,8.328,0,0,0,1041.178,97.07Z" transform="translate(-994.612 -89.145)" fill="#011640"/>
          <path id="Trazado_40201" data-name="Trazado 40201" d="M752.37,101.54c.1-.414.2-.8.3-1.189q.675-2.724,1.351-5.448a1,1,0,0,0-.26-1.108h3.1l-.417,1.665.043.017c.049-.09.1-.18.147-.269a3.414,3.414,0,0,1,1.058-1.244,2.049,2.049,0,0,1,1.539-.3,1.291,1.291,0,0,1,1.062,1.141c.033.225.035.455.052.706.039-.069.073-.127.105-.186a4.108,4.108,0,0,1,.892-1.171,2.13,2.13,0,0,1,1.813-.494,1.229,1.229,0,0,1,1.067,1.192,4.94,4.94,0,0,1-.107,1.295c-.31,1.343-.662,2.676-1,4.013a1.118,1.118,0,0,0-.034.186c-.033.447.193.627.626.5l.083-.021a1.76,1.76,0,0,1-1.225.832,2.984,2.984,0,0,1-.962-.013,1.289,1.289,0,0,1-.973-1.607c.2-.949.448-1.888.676-2.831.123-.506.25-1.011.371-1.517a1.147,1.147,0,0,0,.027-.251c.006-.39-.236-.556-.6-.4a1.346,1.346,0,0,0-.606.6,5.611,5.611,0,0,0-.587,1.577q-.515,2.068-1.027,4.138c-.015.061-.037.12-.058.187h-2.517c.1-.393.186-.768.28-1.141q.572-2.271,1.144-4.542a2.043,2.043,0,0,0,.061-.374c.023-.393-.268-.619-.614-.437a1.3,1.3,0,0,0-.541.507,7.644,7.644,0,0,0-.578,1.442c-.391,1.446-.742,2.9-1.1,4.356-.036.147-.085.208-.247.206-.712-.009-1.424,0-2.137,0C752.523,101.552,752.468,101.546,752.37,101.54Z" transform="translate(-720.529 -89.666)" fill="#011640"/>
          <path id="Trazado_40202" data-name="Trazado 40202" d="M404.827,99.107a2.966,2.966,0,0,1-.641,1.127,3.142,3.142,0,0,1-3.386,1,2.332,2.332,0,0,1-1.72-2.113,5.463,5.463,0,0,1,3.216-5.551,3.94,3.94,0,0,1,2.05-.261,1.621,1.621,0,0,1,1.161,2.534,2.842,2.842,0,0,1-1.646,1.215,7.212,7.212,0,0,1-2.007.372c-.2.011-.278.07-.275.264a8.967,8.967,0,0,0,.019,1.261,1.465,1.465,0,0,0,2.419.966,6.253,6.253,0,0,0,.637-.614C404.718,99.247,404.77,99.174,404.827,99.107Zm-3.174-1.88a.949.949,0,0,0,.126-.018c.06-.02.12-.041.177-.067a3.4,3.4,0,0,0,1.45-1.256,3.153,3.153,0,0,0,.608-1.9.53.53,0,0,0-.193-.4.572.572,0,0,0-.461.077,1.771,1.771,0,0,0-.443.446,7.065,7.065,0,0,0-1.028,2.209C401.8,96.608,401.736,96.907,401.654,97.226Z" transform="translate(-382.149 -89.325)" fill="#011640"/>
          <path id="Trazado_40203" data-name="Trazado 40203" d="M556.9,35.259h-.528l-.035-.053c.054-.052.1-.135.163-.152a5.988,5.988,0,0,0,3.478-2.692c.052-.078.112-.151.169-.226l.076.029-.672,2.719h1.454c-.082.366-.086.369-.4.369-.3,0-.607.013-.909,0-.191-.011-.269.051-.315.238-.421,1.714-.853,3.425-1.276,5.138a2.268,2.268,0,0,0-.081.581.649.649,0,0,0,.795.632,4.678,4.678,0,0,0,.684-.264,2.613,2.613,0,0,1-2.872,1.166,1.466,1.466,0,0,1-1.1-1.66,12.062,12.062,0,0,1,.325-1.609c.325-1.332.667-2.661,1-3.991C556.875,35.415,556.885,35.348,556.9,35.259Z" transform="translate(-532.012 -30.776)" fill="#011640"/>
          <path id="Trazado_40204" data-name="Trazado 40204" d="M668.82,97.426h3.125c-.134.535-.264,1.058-.395,1.581q-.588,2.343-1.176,4.687a1.94,1.94,0,0,0-.056.354.412.412,0,0,0,.549.467c.054-.012.107-.028.2-.054a2.072,2.072,0,0,1-1.636.888,2.275,2.275,0,0,1-.587-.053,1.263,1.263,0,0,1-.986-1.285,5.594,5.594,0,0,1,.276-1.553c.319-1.312.645-2.623.97-3.935A.956.956,0,0,0,668.82,97.426Z" transform="translate(-639.596 -93.303)" fill="#011640"/>
          <path id="Trazado_40205" data-name="Trazado 40205" d="M714.823,9.507a1.493,1.493,0,0,1-1.521,1.485,1.319,1.319,0,0,1-1.35-1.353,1.48,1.48,0,0,1,1.493-1.465A1.3,1.3,0,0,1,714.823,9.507Z" transform="translate(-681.823 -7.827)" fill="#011640"/>
          <path id="Trazado_40206" data-name="Trazado 40206" d="M3.524,32.169a4.693,4.693,0,0,0,1.726-.21,4.551,4.551,0,0,0,1.892-1.346c.415-.47.789-.975,1.18-1.465a.66.66,0,0,1,.167-.169q-.188.578-.375,1.157c-.238.736-.477,1.472-.71,2.21-.037.117-.08.172-.215.172q-3.555-.007-7.109,0A.694.694,0,0,1,0,32.5c.006-.022,0-.042.012-.046A2.161,2.161,0,0,0,1,30.948q.989-3.941,1.976-7.881a4.583,4.583,0,0,0,.1-.56A.968.968,0,0,0,2.7,21.54H6.871a2.327,2.327,0,0,0-1.139,1.785c-.116.478-.241.955-.361,1.432q-.905,3.6-1.809,7.2C3.548,32.02,3.54,32.081,3.524,32.169Z" transform="translate(0 -20.628)" fill="#011640"/>
          <path id="Trazado_40207" data-name="Trazado 40207" d="M209.023,97.439h3.118c-.038.158-.071.3-.108.45q-.733,2.914-1.466,5.829a1.436,1.436,0,0,0-.041.291c-.018.458.189.617.634.489.026-.007.053-.012.084-.02a2.088,2.088,0,0,1-1.955.879,1.316,1.316,0,0,1-1.207-1.653c.121-.8.349-1.591.538-2.384.231-.971.471-1.94.707-2.91A.877.877,0,0,0,209.023,97.439Z" transform="translate(-199.254 -93.315)" fill="#011640"/>
          <path id="Trazado_40208" data-name="Trazado 40208" d="M254.915,9.553a1.487,1.487,0,0,1-1.571,1.47,1.31,1.31,0,0,1-1.3-1.351,1.489,1.489,0,0,1,1.576-1.466A1.292,1.292,0,0,1,254.915,9.553Z" transform="translate(-241.376 -7.857)" fill="#011640"/>
        </g>
        <g id="Grupo_18243" data-name="Grupo 18243" transform="translate(49.792 11.023)">
          <path id="Trazado_40209" data-name="Trazado 40209" d="M1176.6,260.811a.549.549,0,0,1,.29-.29.55.55,0,0,1,.427,0,.549.549,0,0,1,.29.29.549.549,0,0,1,0,.426.554.554,0,0,1-.117.173.543.543,0,0,1-.173.116.548.548,0,0,1-.6-.116.552.552,0,0,1-.117-.173.549.549,0,0,1,0-.426Zm.026.415a.512.512,0,0,0,.275.275.525.525,0,0,0,.4,0,.516.516,0,0,0,.164-.11.528.528,0,0,0,.111-.164.518.518,0,0,0,0-.4.522.522,0,0,0-.275-.275.517.517,0,0,0-.4,0,.526.526,0,0,0-.164.111.517.517,0,0,0-.11.164.527.527,0,0,0,0,.4Zm.5-.506a.232.232,0,0,1,.157.045.158.158,0,0,1,.05.125.171.171,0,0,1-.013.069.14.14,0,0,1-.036.05.168.168,0,0,1-.052.031.236.236,0,0,1-.063.014l.193.295h-.036l-.188-.292h-.189v.291h-.029v-.628Zm.043.3a.217.217,0,0,0,.066-.018.123.123,0,0,0,.05-.042.127.127,0,0,0,.02-.074.145.145,0,0,0-.015-.071.118.118,0,0,0-.04-.042.163.163,0,0,0-.058-.021.39.39,0,0,0-.068-.006h-.174v.279h.152A.55.55,0,0,0,1177.167,261.024Z" transform="translate(-1176.556 -260.478)" fill="#011640"/>
        </g>
      </g>
    </g>
  </g>
</svg>
