<svg xmlns="http://www.w3.org/2000/svg" xmlns:xlink="http://www.w3.org/1999/xlink" width="85" height="85" viewBox="0 0 85 85">
  <defs>
    <filter id="Rectángulo_18128" x="0" y="0" width="85" height="85" filterUnits="userSpaceOnUse">
      <feOffset dy="3" input="SourceAlpha"/>
      <feGaussianBlur stdDeviation="3" result="blur"/>
      <feFlood flood-opacity="0.161"/>
      <feComposite operator="in" in2="blur"/>
      <feComposite in="SourceGraphic"/>
    </filter>
  </defs>
  <g id="Grupo_18854" data-name="Grupo 18854" transform="translate(-611 -1662)">
    <g transform="matrix(1, 0, 0, 1, 611, 1662)" filter="url(#Rectángulo_18128)">
      <rect id="Rectángulo_18128-2" data-name="Rectángulo 18128" width="67" height="67" rx="10" transform="translate(9 6)" fill="#fff"/>
    </g>
    <g id="Grupo_18271" data-name="Grupo 18271" transform="translate(636 1685)">
      <rect id="Rectángulo_340" data-name="Rectángulo 340" width="26.888" height="26.888" transform="translate(4.535 0)" fill="#6dc4cc"/>
      <path id="Trazado_1093" data-name="Trazado 1093" d="M218.047,177.193H220.4l1.915,3.112,1.917-3.112h2.353v8.034H224.37v-4.614l-2.055,3.144h-.045l-2.044-3.121v4.59h-2.179Z" transform="translate(-211.602 -172.145)" fill="#5b4692"/>
      <path id="Trazado_1094" data-name="Trazado 1094" d="M225.73,184.108l1.24-1.482a4.126,4.126,0,0,0,2.6.963c.6,0,.918-.206.918-.549v-.024c0-.332-.264-.517-1.353-.77-1.709-.39-3.031-.871-3.031-2.524V179.7c0-1.493,1.182-2.572,3.11-2.572a5.057,5.057,0,0,1,3.305,1.068l-1.113,1.572a4.022,4.022,0,0,0-2.248-.791c-.54,0-.8.23-.8.515v.024c0,.369.274.528,1.388.781,1.849.4,3,1,3,2.5v.024c0,1.641-1.3,2.617-3.247,2.617A5.618,5.618,0,0,1,225.73,184.108Z" transform="translate(-202.806 -172.218)" fill="#5b4692"/>
      <path id="Trazado_1095" data-name="Trazado 1095" d="M227.466,177.216h-2.554l.616,1.561A3.543,3.543,0,0,1,227.466,177.216Z" transform="translate(-203.743 -172.119)" fill="#5b4692"/>
      <path id="Trazado_1096" data-name="Trazado 1096" d="M225.366,177.167h2.145l3.421,8.09h-2.387l-.586-1.435h-3.1l-.573,1.435h-2.342Zm1.952,4.924-.9-2.286-.905,2.286Z" transform="translate(-207.139 -172.175)" fill="#5b4692"/>
      <path id="Trazado_1097" data-name="Trazado 1097" d="M225.585,185.422V185.4a4.125,4.125,0,0,1,4.234-4.178,3.934,3.934,0,0,1,3.408,1.675l-1.675,1.3a2.154,2.154,0,0,0-1.757-.942,1.986,1.986,0,0,0-1.915,2.123v.024a1.985,1.985,0,0,0,1.915,2.145,2.194,2.194,0,0,0,1.814-.974l1.675,1.193a4.228,4.228,0,0,1-7.7-2.34Z" transform="translate(-202.972 -167.535)" fill="#5b4692"/>
      <path id="Trazado_1098" data-name="Trazado 1098" d="M217.958,185.347v-.024a4.125,4.125,0,0,1,4.234-4.176,3.932,3.932,0,0,1,3.408,1.675l-1.675,1.3a2.152,2.152,0,0,0-1.757-.939,1.985,1.985,0,0,0-1.915,2.121v.024a1.987,1.987,0,0,0,1.915,2.147,2.2,2.2,0,0,0,1.814-.976l1.675,1.193a4.228,4.228,0,0,1-7.7-2.34Z" transform="translate(-211.704 -167.618)" fill="#5b4692"/>
      <path id="Trazado_1099" data-name="Trazado 1099" d="M221.323,181.221h2.226v3.007h1.988v-3.007h2.226v8.035h-2.226V186.2h-1.988v3.052h-2.226Z" transform="translate(-207.851 -167.534)" fill="#5b4692"/>
      <path id="Trazado_1100" data-name="Trazado 1100" d="M224.46,182.6h2.226v5.083H224.46Z" transform="translate(-204.26 -165.958)" fill="#5b4692"/>
      <path id="Trazado_1101" data-name="Trazado 1101" d="M227.144,182.416a1.357,1.357,0,1,1-1.356-1.36A1.355,1.355,0,0,1,227.144,182.416Z" transform="translate(-204.293 -167.723)" fill="#eb4544"/>
      <path id="Trazado_1102" data-name="Trazado 1102" d="M215.752,189.278h-.71v-.433h1.913v.433h-.71v2.655h-.493Z" transform="translate(-215.042 -158.806)" fill="#5b4692"/>
      <path id="Trazado_1103" data-name="Trazado 1103" d="M216.579,188.845v1.928a.925.925,0,0,0,.112.538.552.552,0,0,0,.476.247.53.53,0,0,0,.468-.238.89.89,0,0,0,.118-.547v-1.928h.487v1.928a1.107,1.107,0,0,1-.332.948,1.066,1.066,0,0,1-.736.27,1.053,1.053,0,0,1-1.085-1.218v-1.928Z" transform="translate(-213.847 -158.806)" fill="#5b4692"/>
      <path id="Trazado_1104" data-name="Trazado 1104" d="M217.939,188.845h1.729v.433h-1.235v.877h1.22v.429h-1.22v.916h1.235v.433h-1.729Z" transform="translate(-211.725 -158.806)" fill="#5b4692"/>
      <path id="Trazado_1105" data-name="Trazado 1105" d="M219.4,191.052a.527.527,0,0,0,.521.556.508.508,0,0,0,.515-.493c0-.343-.294-.423-.691-.568-.242-.079-.781-.257-.781-.839a.909.909,0,0,1,.974-.89.877.877,0,0,1,.931.851h-.485a.45.45,0,0,0-.463-.433.442.442,0,0,0-.468.433c0,.3.23.377.727.56.384.163.742.36.742.86a.912.912,0,0,1-1,.935.934.934,0,0,1-1.015-.972Z" transform="translate(-210.61 -158.838)" fill="#5b4692"/>
      <path id="Trazado_1106" data-name="Trazado 1106" d="M220.639,189.278h-.71v-.433h1.913v.433h-.71v2.655h-.493Z" transform="translate(-209.447 -158.806)" fill="#5b4692"/>
      <path id="Trazado_1107" data-name="Trazado 1107" d="M220.975,188.845h.493v3.089h-.493Z" transform="translate(-208.25 -158.806)" fill="#5b4692"/>
      <path id="Trazado_1108" data-name="Trazado 1108" d="M221.489,188.845h.493V191.5h1.09v.433h-1.583Z" transform="translate(-207.661 -158.806)" fill="#5b4692"/>
      <path id="Trazado_1109" data-name="Trazado 1109" d="M222.215,190.438a1.618,1.618,0,1,1,1.613,1.585,1.586,1.586,0,0,1-1.613-1.585Zm.489-.017a1.128,1.128,0,1,0,1.132-1.169,1.133,1.133,0,0,0-1.132,1.169Z" transform="translate(-206.83 -158.838)" fill="#5b4692"/>
      <path id="Trazado_1110" data-name="Trazado 1110" d="M224.511,188.845h.957a1.507,1.507,0,0,1,1.268.5,1.577,1.577,0,0,1,.339,1.04,1.42,1.42,0,0,1-1.574,1.549h-.989ZM225,191.5h.523a.988.988,0,0,0,1.06-1.107,1.237,1.237,0,0,0-.251-.789.988.988,0,0,0-.8-.326H225Z" transform="translate(-204.202 -158.806)" fill="#5b4692"/>
      <path id="Trazado_1111" data-name="Trazado 1111" d="M225.92,188.845h1.729v.433h-1.235v.877h1.22v.429h-1.22v.916h1.235v.433H225.92Z" transform="translate(-202.589 -158.806)" fill="#5b4692"/>
      <path id="Trazado_1112" data-name="Trazado 1112" d="M227.262,188.845h.508l.894,2.488.9-2.488h.508l-1.165,3.089h-.489Z" transform="translate(-201.052 -158.806)" fill="#5b4692"/>
      <path id="Trazado_1113" data-name="Trazado 1113" d="M228.734,188.845h.493v3.089h-.493Z" transform="translate(-199.367 -158.806)" fill="#5b4692"/>
      <path id="Trazado_1114" data-name="Trazado 1114" d="M229.242,188.845h.957a1.511,1.511,0,0,1,1.27.5,1.576,1.576,0,0,1,.337,1.04,1.419,1.419,0,0,1-1.574,1.549h-.989Zm.493,2.655h.521a.99.99,0,0,0,1.062-1.107,1.237,1.237,0,0,0-.251-.789,1,1,0,0,0-.806-.326h-.525Z" transform="translate(-198.786 -158.806)" fill="#5b4692"/>
      <path id="Trazado_1115" data-name="Trazado 1115" d="M230.974,191.934h-.534l1.268-3.089h.448l1.248,3.089h-.534l-.294-.731h-1.319Zm.939-2.518-.523,1.39h1.053Z" transform="translate(-197.414 -158.806)" fill="#5b4692"/>
    </g>
  </g>
</svg>
