<svg xmlns="http://www.w3.org/2000/svg" xmlns:xlink="http://www.w3.org/1999/xlink" width="85" height="85" viewBox="0 0 85 85">
  <defs>
    <filter id="Rect치ngulo_17998" x="0" y="0" width="85" height="85" filterUnits="userSpaceOnUse">
      <feOffset dy="3" input="SourceAlpha"/>
      <feGaussianBlur stdDeviation="3" result="blur"/>
      <feFlood flood-opacity="0.161"/>
      <feComposite operator="in" in2="blur"/>
      <feComposite in="SourceGraphic"/>
    </filter>
  </defs>
  <g id="Grupo_18781" data-name="Grupo 18781" transform="translate(-345 -1246)">
    <g transform="matrix(1, 0, 0, 1, 345, 1246)" filter="url(#Rect치ngulo_17998)">
      <rect id="Rect치ngulo_17998-2" data-name="Rect치ngulo 17998" width="67" height="67" rx="10" transform="translate(9 6)" fill="#fff"/>
    </g>
    <g id="Negro" transform="translate(367 1275)">
      <g id="Grupo_18041" data-name="Grupo 18041" transform="translate(0 0)">
        <path id="Trazado_38894" data-name="Trazado 38894" d="M20.756,12.846a11.64,11.64,0,0,1,.753-4.028A11.275,11.275,0,0,1,23.8,5.079,11.028,11.028,0,0,1,25.87,3.311L26.741.067H19.7l-5.918,6.74-2.3-6.74H5.151L0,19.246H6.275L8.822,9.739,11.4,16.561h.111l6.246-6.822-2.548,9.507H21.59l.465-1.729a8.077,8.077,0,0,1-.629-1.177A8.683,8.683,0,0,1,20.756,12.846Z" transform="translate(0 0.035)" fill="#0f1010"/>
        <g id="Grupo_18040" data-name="Grupo 18040" transform="translate(21.334)">
          <path id="Trazado_38895" data-name="Trazado 38895" d="M23.178,20a11.067,11.067,0,0,1-3.7-.589,8.2,8.2,0,0,1-2.863-1.685,7.732,7.732,0,0,1-1.863-2.644,8.708,8.708,0,0,1-.671-3.494,11.667,11.667,0,0,1,.753-4.027,11.271,11.271,0,0,1,2.289-3.741,11.831,11.831,0,0,1,3.85-2.754A12.8,12.8,0,0,1,26.384,0a9.814,9.814,0,0,1,2.863.4,7.887,7.887,0,0,1,2.315,1.124,6.664,6.664,0,0,1,1.7,1.767,7.244,7.244,0,0,1,.986,2.3L28.522,8.083a2.987,2.987,0,0,0-1.1-1.753,3.131,3.131,0,0,0-1.891-.576,4.177,4.177,0,0,0-1.945.451A4.749,4.749,0,0,0,22.1,7.4a5.729,5.729,0,0,0-1.3,3.616,3.269,3.269,0,0,0,.864,2.439,2.939,2.939,0,0,0,2.15.848,3.992,3.992,0,0,0,2.029-.52,6.345,6.345,0,0,0,1.7-1.48l4.439,3.507a11.131,11.131,0,0,1-3.589,3.042A10.866,10.866,0,0,1,23.178,20Z" transform="translate(-14.082 0)" fill="#0f1010"/>
        </g>
      </g>
    </g>
  </g>
</svg>
