<svg xmlns="http://www.w3.org/2000/svg" xmlns:xlink="http://www.w3.org/1999/xlink" width="85" height="85" viewBox="0 0 85 85">
  <defs>
    <filter id="Rectángulo_18090" x="0" y="0" width="85" height="85" filterUnits="userSpaceOnUse">
      <feOffset dy="3" input="SourceAlpha"/>
      <feGaussianBlur stdDeviation="3" result="blur"/>
      <feFlood flood-opacity="0.161"/>
      <feComposite operator="in" in2="blur"/>
      <feComposite in="SourceGraphic"/>
    </filter>
    <clipPath id="clip-path">
      <rect id="Rectángulo_26576" data-name="Rectángulo 26576" width="29.87" height="43.766" fill="none"/>
    </clipPath>
  </defs>
  <g id="Grupo_40768" data-name="Grupo 40768" transform="translate(9045 -2688)">
    <g transform="matrix(1, 0, 0, 1, -9045, 2688)" filter="url(#Rectángulo_18090)">
      <rect id="Rectángulo_18090-2" data-name="Rectángulo 18090" width="67" height="67" rx="10" transform="translate(9 6)" fill="#fff"/>
    </g>
    <g id="Grupo_40767" data-name="Grupo 40767" transform="translate(-9017 2706)">
      <rect id="Rectángulo_26573" data-name="Rectángulo 26573" width="29.63" height="29.627" transform="translate(0.17 0.003)" fill="#be0010"/>
      <g id="Grupo_39147" data-name="Grupo 39147" transform="translate(0 0)">
        <g id="Grupo_39146" data-name="Grupo 39146" clip-path="url(#clip-path)">
          <path id="Trazado_80130" data-name="Trazado 80130" d="M24.632,19.952c-.442,0-2.372-.038-3.71-.09-.546.01-2.114.083-2.827.083-.236,0-.424-.049-.424-.261,0-.115.143-.163.376-.163a2.917,2.917,0,0,0,.709-.073c.661-.139.782-.807.709-1.753v0L18.129,7.913h-.094L12.9,18.606c-.536,1.109-.657,1.325-.869,1.325s-.449-.476-.824-1.182c-.567-1.081-2.427-4.687-2.712-5.348-.209-.494-1.617-3.463-2.448-5.226H5.948L4.724,17.546a9.833,9.833,0,0,0-.07,1.109c0,.449.3.661.709.755a4.561,4.561,0,0,0,.988.118c.184,0,.351.045.351.163,0,.216-.212.261-.563.261-.995,0-2.052-.07-2.476-.07-.445,0-1.572.07-2.333.07-.236,0-.424-.045-.424-.261,0-.118.143-.163.379-.163a2.976,2.976,0,0,0,.709-.073c.657-.139.845-1.061.967-1.86L5.294,2.235c.07-.4.205-.612.4-.612s.327.115.633.73l6.43,13.283,6.412-13.45c.184-.376.306-.563.518-.563s.355.236.424.73l2.142,14.56c.216,1.481.452,2.17,1.154,2.378a4.724,4.724,0,0,0,1.46.236c.212,0,.379.024.379.163,0,.191-.285.261-.612.261" transform="translate(2.244 4.021)" fill="#fff"/>
          <path id="Trazado_80131" data-name="Trazado 80131" d="M1.549,15.026V11.959H.457v-.383H3.075v.383h-1.1v3.067Z" transform="translate(1.132 28.678)" fill="#040506"/>
          <path id="Trazado_80132" data-name="Trazado 80132" d="M1.354,15.026v-3.45h2.26v.383H1.785v1.113H3.58v.383H1.785v1.189H3.614v.383Z" transform="translate(3.355 28.678)" fill="#040506"/>
          <path id="Trazado_80133" data-name="Trazado 80133" d="M2.181,15.026v-3.45h.431v3.067h1.6v.383Z" transform="translate(5.404 28.678)" fill="#040506"/>
          <path id="Trazado_80134" data-name="Trazado 80134" d="M2.921,15.026v-3.45h2.26v.383H3.352v1.113H5.146v.383H3.352v1.189H5.181v.383Z" transform="translate(7.236 28.678)" fill="#040506"/>
          <path id="Trazado_80135" data-name="Trazado 80135" d="M5.033,15.026l-1.387-3.45h.494L5.3,14.556l1.165-2.98h.494l-1.394,3.45Z" transform="translate(9.03 28.678)" fill="#040506"/>
          <rect id="Rectángulo_26574" data-name="Rectángulo 26574" width="0.431" height="3.45" transform="translate(16.371 40.254)" fill="#040506"/>
          <path id="Trazado_80136" data-name="Trazado 80136" d="M4.984,14.578l.254-.327a1.458,1.458,0,0,0,1.085.494c.615,0,.814-.334.814-.6,0-.887-2.045-.4-2.045-1.627,0-.57.508-.96,1.186-.96a1.626,1.626,0,0,1,1.227.483l-.261.316a1.313,1.313,0,0,0-1-.414c-.414,0-.709.223-.709.546,0,.779,2.045.334,2.045,1.62,0,.5-.341,1.015-1.273,1.015a1.712,1.712,0,0,1-1.325-.549" transform="translate(12.347 28.638)" fill="#040506"/>
          <rect id="Rectángulo_26575" data-name="Rectángulo 26575" width="0.431" height="3.45" transform="translate(20.502 40.254)" fill="#040506"/>
          <path id="Trazado_80137" data-name="Trazado 80137" d="M6.192,14.039a1.714,1.714,0,1,1,3.425,0,1.714,1.714,0,1,1-3.425,0m2.98,0a1.274,1.274,0,1,0-2.535,0,1.274,1.274,0,1,0,2.535,0M7.91,12.022h-.3l.765-.744h.4Z" transform="translate(15.34 27.94)" fill="#040506"/>
          <path id="Trazado_80138" data-name="Trazado 80138" d="M9.793,15.026,7.779,12.272v2.754H7.352v-3.45H7.79l1.989,2.695V11.576h.428v3.45Z" transform="translate(18.212 28.678)" fill="#040506"/>
          <path id="Trazado_80139" data-name="Trazado 80139" d="M1.269,9.571c.021-.115.063-.177.115-.177s.1.035.184.212l1.867,3.853,1.857-3.9c.052-.108.087-.163.15-.163s.1.07.122.212l.622,4.218c.063.431.129.629.334.692a1.453,1.453,0,0,0,.424.07c.063,0,.108,0,.108.045s-.08.077-.177.077c-.17,0-1.113-.021-1.384-.042-.156-.014-.2-.035-.2-.077s.028-.052.073-.073.063-.1.035-.3l-.41-3H4.962l-1.488,3.1c-.156.32-.191.383-.25.383s-.132-.136-.24-.341c-.163-.316-.7-1.36-.786-1.551-.063-.143-.469-1-.709-1.516H1.46l-.355,2.719a2.6,2.6,0,0,0-.021.32c0,.129.09.191.205.219a1.545,1.545,0,0,0,.285.035c.056,0,.1.01.1.045,0,.063-.063.077-.163.077-.289,0-.595-.021-.72-.021s-.456.021-.675.021c-.07,0-.122-.014-.122-.077,0-.035.038-.045.108-.045a.868.868,0,0,0,.205-.021c.191-.042.247-.309.278-.539Z" transform="translate(0 23.272)" fill="#be0010"/>
          <path id="Trazado_80140" data-name="Trazado 80140" d="M2.655,11.418c0-1.036,0-1.227-.014-1.447s-.083-.348-.233-.383a.951.951,0,0,0-.243-.028c-.07,0-.111-.014-.111-.07s.056-.056.163-.056c.261,0,.692.021.89.021.17,0,.574-.021.831-.021.09,0,.143.014.143.056s-.038.07-.108.07a1.139,1.139,0,0,0-.205.021c-.184.035-.24.15-.254.389-.014.219-.014.41-.014,1.447v1.2c0,.661,0,1.2.028,1.5.021.184.07.306.275.334a2.762,2.762,0,0,0,.348.028c.077,0,.108.021.108.056s-.052.066-.129.066c-.449,0-.88-.021-1.064-.021-.156,0-.588.021-.862.021-.087,0-.136-.021-.136-.066s.028-.056.108-.056a1.075,1.075,0,0,0,.247-.028c.136-.028.177-.143.2-.341.035-.289.035-.828.035-1.488Z" transform="translate(5.086 23.376)" fill="#be0010"/>
          <path id="Trazado_80141" data-name="Trazado 80141" d="M4.2,12.619c0,.873,0,1.346.143,1.467.118.1.3.15.828.15.362,0,.629-.007.8-.191a.864.864,0,0,0,.177-.407c.007-.063.021-.1.073-.1s.056.035.056.118a5.3,5.3,0,0,1-.1.782c-.038.153-.073.188-.428.188-.494,0-.848-.017-1.154-.021s-.553-.021-.835-.021c-.073,0-.226,0-.389.007s-.334.014-.469.014c-.09,0-.136-.021-.136-.07s.024-.056.108-.056a1.126,1.126,0,0,0,.247-.028c.136-.024.17-.177.2-.376.031-.285.031-.824.031-1.454v-1.2c0-1.036,0-1.227-.01-1.447s-.07-.341-.3-.389a1,1,0,0,0-.226-.021c-.073,0-.115-.014-.115-.059s.049-.063.15-.063c.32,0,.751.021.935.021.163,0,.664-.021.928-.021.1,0,.143.014.143.063s-.038.059-.122.059a1.761,1.761,0,0,0-.264.021c-.184.035-.24.15-.254.389-.014.219-.014.41-.014,1.447Z" transform="translate(6.681 23.379)" fill="#be0010"/>
          <path id="Trazado_80142" data-name="Trazado 80142" d="M4.378,11.455c0-1.036,0-1.227-.014-1.447s-.07-.341-.3-.389A1.327,1.327,0,0,0,3.8,9.6c-.077,0-.115-.014-.115-.063s.045-.063.15-.063c.184,0,.383.007.553.007s.334.014.431.014c.219,0,1.579,0,1.707-.007s.236-.024.292-.038a.651.651,0,0,1,.111-.028c.031,0,.038.028.038.059,0,.049-.031.132-.052.445-.007.07-.021.369-.035.452-.007.035-.021.073-.07.073s-.063-.031-.063-.094a.712.712,0,0,0-.038-.247c-.049-.122-.118-.205-.459-.247-.115-.01-.831-.024-.97-.024-.035,0-.045.021-.045.066v1.728c0,.049,0,.077.045.077.153,0,.935,0,1.092-.014s.268-.035.33-.1c.045-.052.073-.087.108-.087s.049.014.049.056-.028.15-.056.5c-.007.136-.028.41-.028.459s0,.129-.059.129a.055.055,0,0,1-.063-.063,1.741,1.741,0,0,0-.028-.243c-.035-.139-.129-.24-.383-.268-.129-.014-.807-.021-.97-.021-.035,0-.038.028-.038.07v.539c0,.23-.007.859,0,1.057.01.473.122.574.817.574a1.78,1.78,0,0,0,.643-.08c.177-.083.257-.226.306-.508.014-.073.028-.1.077-.1s.056.056.056.122a5.256,5.256,0,0,1-.09.758c-.049.177-.108.177-.369.177-.511,0-.887-.014-1.182-.021s-.5-.021-.709-.021c-.077,0-.226,0-.389.007s-.334.014-.473.014c-.087,0-.136-.021-.136-.066s.028-.056.111-.056a1.066,1.066,0,0,0,.243-.028c.139-.028.17-.177.2-.376.035-.285.035-.828.035-1.454Z" transform="translate(9.139 23.339)" fill="#be0010"/>
          <path id="Trazado_80143" data-name="Trazado 80143" d="M5.858,13.754c.014.532.1.709.24.758a1.053,1.053,0,0,0,.355.049c.073,0,.115.014.115.052,0,.056-.059.07-.156.07-.445,0-.716-.021-.848-.021-.059,0-.383.021-.737.021-.087,0-.15-.007-.15-.07,0-.038.042-.052.108-.052a1.207,1.207,0,0,0,.309-.035c.177-.056.205-.254.212-.848l.059-4.041c0-.139.021-.233.09-.233s.136.087.254.212c.08.087,1.12,1.2,2.114,2.191.466.466,1.387,1.45,1.506,1.558h.035L9.294,10.3c-.007-.417-.07-.546-.233-.615A1.2,1.2,0,0,0,8.7,9.644c-.083,0-.108-.021-.108-.063s.073-.063.177-.063c.355,0,.682.021.824.021.077,0,.334-.021.671-.021.087,0,.156.007.156.063s-.042.063-.125.063a.71.71,0,0,0-.2.021c-.191.052-.247.195-.254.577l-.077,4.312c0,.15-.028.212-.087.212-.077,0-.16-.076-.233-.153-.431-.41-1.3-1.3-2.013-2.006-.744-.737-1.506-1.593-1.627-1.721H5.782Z" transform="translate(11.584 23.297)" fill="#be0010"/>
          <path id="Trazado_80144" data-name="Trazado 80144" d="M6.957,11.418c0-1.036,0-1.227-.014-1.447s-.08-.348-.233-.383a.934.934,0,0,0-.243-.028c-.07,0-.111-.014-.111-.07s.056-.056.167-.056c.257,0,.689.021.887.021.17,0,.574-.021.831-.021.09,0,.143.014.143.056s-.038.07-.108.07a1.139,1.139,0,0,0-.205.021c-.184.035-.236.15-.25.389-.014.219-.014.41-.014,1.447v1.2c0,.661,0,1.2.028,1.5.017.184.066.306.271.334a2.871,2.871,0,0,0,.348.028c.076,0,.111.021.111.056s-.056.066-.132.066c-.449,0-.88-.021-1.064-.021-.156,0-.588.021-.859.021-.09,0-.139-.021-.139-.066s.028-.056.111-.056a1.066,1.066,0,0,0,.243-.028c.139-.028.177-.143.2-.341.035-.289.035-.828.035-1.488Z" transform="translate(15.743 23.376)" fill="#be0010"/>
          <path id="Trazado_80145" data-name="Trazado 80145" d="M11.611,12.209c0-1.53-.883-2.479-2-2.479-.786,0-1.68.438-1.68,2.139,0,1.419.786,2.549,2.1,2.549.48,0,1.586-.233,1.586-2.208m-4.625-.129A2.63,2.63,0,0,1,9.806,9.4a2.479,2.479,0,0,1,2.761,2.556,2.7,2.7,0,0,1-2.827,2.8,2.6,2.6,0,0,1-2.754-2.678" transform="translate(17.307 23.295)" fill="#be0010"/>
        </g>
      </g>
    </g>
  </g>
</svg>
