<svg xmlns="http://www.w3.org/2000/svg" xmlns:xlink="http://www.w3.org/1999/xlink" width="84" height="85" viewBox="0 0 84 85">
  <defs>
    <filter id="Rect치ngulo_18043" x="0" y="0" width="84" height="85" filterUnits="userSpaceOnUse">
      <feOffset dy="3" input="SourceAlpha"/>
      <feGaussianBlur stdDeviation="3" result="blur"/>
      <feFlood flood-opacity="0.161"/>
      <feComposite operator="in" in2="blur"/>
      <feComposite in="SourceGraphic"/>
    </filter>
  </defs>
  <g id="Grupo_18800" data-name="Grupo 18800" transform="translate(-435 -1325)">
    <g transform="matrix(1, 0, 0, 1, 435, 1325)" filter="url(#Rect치ngulo_18043)">
      <rect id="Rect치ngulo_18043-2" data-name="Rect치ngulo 18043" width="66" height="67" rx="10" transform="translate(9 6)" fill="#fff"/>
    </g>
    <g id="Grupo_18211" data-name="Grupo 18211" transform="translate(460 1352)">
      <path id="Trazado_1043" data-name="Trazado 1043" d="M169.094,94.563H163.3l1.03,2.79,4.846.711L165.9,101.6l1.794,4.864-3.714-2.793-5.183,5.594-.246,1.4h4.2l.62-3.5h3.5a7.844,7.844,0,0,0,7.414-6.3A5.143,5.143,0,0,0,169.094,94.563Z" transform="translate(-140.225 -91.061)" fill="#1a1818"/>
      <path id="Trazado_1044" data-name="Trazado 1044" d="M170.465,109.33l1.106-6.275-6.837-5.137,7.547,1.107,1.023-5.8h-6.293l-4.415,9.1-2.582-9.1H154.4l-2.84,16.106h4.9l1.358-7.7,2.143,7.7h2.8l4.859-7.7-1.358,7.7Z" transform="translate(-151.521 -93.224)" fill="#1a1818"/>
      <path id="Trazado_1045" data-name="Trazado 1045" d="M154.75,101.533c.126,0,.173.044.173.17v3.23c0,.126-.047.17-.173.17h-.256c-.126,0-.17-.044-.17-.17V103.4a4.644,4.644,0,0,1,.12-1h-.034a5.755,5.755,0,0,1-.413.918l-.492.871a.228.228,0,0,1-.2.12h-.162a.18.18,0,0,1-.2-.12l-.5-.873a4.082,4.082,0,0,1-.387-.915h-.037a4.95,4.95,0,0,1,.107,1v1.53c0,.126-.047.17-.173.17h-.241c-.125,0-.175-.044-.175-.17V101.7c0-.126.05-.17.175-.17h.222c.141,0,.186.026.241.131l1.046,1.87,1.046-1.865c.06-.115.094-.136.23-.136Z" transform="translate(-151.544 -79.804)" fill="#1a1818"/>
      <path id="Trazado_1046" data-name="Trazado 1046" d="M153.729,103.881c0,.458.264.709.774.709s.774-.251.774-.709V101.7c0-.126.044-.17.17-.17h.288c.126,0,.17.044.17.17v2.173a1.41,1.41,0,0,1-2.811,0V101.7c0-.126.047-.17.173-.17h.29c.125,0,.173.044.173.17Z" transform="translate(-149.042 -79.804)" fill="#1a1818"/>
      <path id="Trazado_1047" data-name="Trazado 1047" d="M154.889,101.533c.126,0,.17.044.17.17v2.811H156.5c.126,0,.17.044.17.17v.248c0,.126-.044.17-.17.17h-1.9c-.125,0-.175-.044-.175-.17V101.7c0-.126.05-.17.175-.17Z" transform="translate(-146.889 -79.804)" fill="#1a1818"/>
      <path id="Trazado_1048" data-name="Trazado 1048" d="M157.654,101.533c.125,0,.17.044.17.17v.248c0,.126-.045.17-.17.17h-.866v2.811c0,.126-.044.17-.17.17h-.293c-.126,0-.17-.044-.17-.17v-2.811h-.866c-.126,0-.17-.044-.17-.17V101.7c0-.126.044-.17.17-.17Z" transform="translate(-145.768 -79.804)" fill="#1a1818"/>
      <path id="Trazado_1049" data-name="Trazado 1049" d="M156.314,101.7c0-.126.05-.17.175-.17h.288c.126,0,.17.044.17.17v3.23c0,.126-.044.17-.17.17h-.288c-.126,0-.175-.044-.175-.17Z" transform="translate(-143.84 -79.804)" fill="#1a1818"/>
      <path id="Trazado_1050" data-name="Trazado 1050" d="M158.33,101.533a1.164,1.164,0,1,1,0,2.327h-.876v1.072c0,.126-.044.17-.17.17H157c-.126,0-.175-.044-.175-.17V101.7c0-.126.05-.17.175-.17Zm-.06,1.739a.575.575,0,1,0,0-1.151h-.816v1.151Z" transform="translate(-143.021 -79.804)" fill="#1a1818"/>
      <path id="Trazado_1051" data-name="Trazado 1051" d="M159.6,101.533a1.034,1.034,0,0,1,1.132,1.106.981.981,0,0,1-.664,1.015.625.625,0,0,1,.16.217l.554,1.062c.06.115.029.17-.086.17h-.29c-.222,0-.282-.026-.343-.152l-.424-.855c-.133-.28-.256-.35-.6-.35h-.374v1.187c0,.126-.044.17-.17.17h-.285c-.128,0-.178-.044-.178-.17V101.7c0-.126.05-.17.178-.17Zm.468,1.106a.526.526,0,0,0-.136-.387.551.551,0,0,0-.392-.131h-.871v1.036h.871a.547.547,0,0,0,.392-.136A.5.5,0,0,0,160.068,102.639Z" transform="translate(-141.059 -79.804)" fill="#1a1818"/>
      <path id="Trazado_1052" data-name="Trazado 1052" d="M161.459,101.533c.126,0,.178.044.178.17v.248c0,.126-.052.17-.178.17h-1.538V103h1.3c.126,0,.17.047.17.173v.246c0,.126-.044.17-.17.17h-1.3v.926h1.593c.128,0,.173.044.173.17v.248c0,.126-.044.17-.173.17h-2.05c-.126,0-.175-.044-.175-.17V101.7c0-.126.05-.17.175-.17Z" transform="translate(-139.037 -79.804)" fill="#1a1818"/>
      <path id="Trazado_1053" data-name="Trazado 1053" d="M163.607,101.533c.128,0,.173.044.173.17v3.23c0,.126-.044.17-.173.17h-.256c-.126,0-.17-.044-.17-.17V103.4a4.644,4.644,0,0,1,.12-1h-.034a5.754,5.754,0,0,1-.413.918l-.492.871a.222.222,0,0,1-.2.12H162a.18.18,0,0,1-.2-.12l-.5-.873a4.085,4.085,0,0,1-.387-.915h-.034a5.138,5.138,0,0,1,.1,1v1.53c0,.126-.045.17-.17.17h-.243c-.126,0-.175-.044-.175-.17V101.7c0-.126.05-.17.175-.17h.222c.141,0,.186.026.241.131l1.046,1.87,1.046-1.865c.06-.115.094-.136.23-.136Z" transform="translate(-137.239 -79.804)" fill="#1a1818"/>
      <path id="Trazado_1054" data-name="Trazado 1054" d="M161.96,101.7c0-.126.05-.17.175-.17h.288c.126,0,.17.044.17.17v3.23c0,.126-.044.17-.17.17h-.288c-.126,0-.175-.044-.175-.17Z" transform="translate(-134.721 -79.804)" fill="#1a1818"/>
      <path id="Trazado_1055" data-name="Trazado 1055" d="M164.639,101.533c.125,0,.175.044.175.17v.248c0,.126-.05.17-.175.17H163.1V103h1.3c.126,0,.17.047.17.173v.246c0,.126-.044.17-.17.17h-1.3v.926h1.593c.126,0,.173.044.173.17v.248c0,.126-.047.17-.173.17h-2.05c-.126,0-.175-.044-.175-.17V101.7c0-.126.05-.17.175-.17Z" transform="translate(-133.9 -79.804)" fill="#1a1818"/>
      <path id="Trazado_1056" data-name="Trazado 1056" d="M165.145,101.533a1.032,1.032,0,0,1,1.13,1.106.979.979,0,0,1-.662,1.015.624.624,0,0,1,.16.217l.554,1.062c.06.115.029.17-.086.17h-.293c-.22,0-.28-.026-.34-.152l-.424-.855c-.136-.28-.256-.35-.6-.35h-.371v1.187c0,.126-.044.17-.17.17h-.288c-.125,0-.175-.044-.175-.17V101.7c0-.126.05-.17.175-.17Zm.468,1.106a.536.536,0,0,0-.136-.387.551.551,0,0,0-.392-.131h-.871v1.036h.871a.547.547,0,0,0,.392-.136A.515.515,0,0,0,165.613,102.639Z" transform="translate(-132.103 -79.804)" fill="#1a1818"/>
    </g>
  </g>
</svg>
