<svg xmlns="http://www.w3.org/2000/svg" xmlns:xlink="http://www.w3.org/1999/xlink" width="84" height="85" viewBox="0 0 84 85">
  <defs>
    <filter id="Rect치ngulo_18046" x="0" y="0" width="84" height="85" filterUnits="userSpaceOnUse">
      <feOffset dy="3" input="SourceAlpha"/>
      <feGaussianBlur stdDeviation="3" result="blur"/>
      <feFlood flood-opacity="0.161"/>
      <feComposite operator="in" in2="blur"/>
      <feComposite in="SourceGraphic"/>
    </filter>
  </defs>
  <g id="Grupo_18797" data-name="Grupo 18797" transform="translate(-700 -1325)">
    <g transform="matrix(1, 0, 0, 1, 700, 1325)" filter="url(#Rect치ngulo_18046)">
      <rect id="Rect치ngulo_18046-2" data-name="Rect치ngulo 18046" width="66" height="67" rx="10" transform="translate(9 6)" fill="#fff"/>
    </g>
    <g id="Grupo_18212" data-name="Grupo 18212" transform="translate(726 1347)">
      <path id="Trazado_1116" data-name="Trazado 1116" d="M273.93,106.087a4.507,4.507,0,0,1-4.5,4.507H250.881a4.5,4.5,0,1,1,0-9.01h18.544A4.507,4.507,0,0,1,273.93,106.087Z" transform="translate(-246.374 -75.664)" fill="#cf92c0"/>
      <path id="Trazado_1117" data-name="Trazado 1117" d="M272.606,102.9a4.487,4.487,0,0,0-3.186-1.319H250.878a4.5,4.5,0,0,0,0,9.01H269.42a4.5,4.5,0,0,0,3.186-7.691Zm-3.186,6.956H250.878a3.771,3.771,0,0,1,0-7.541H269.42a3.771,3.771,0,0,1,0,7.541Z" transform="translate(-246.371 -75.664)" fill="#fff"/>
      <path id="Trazado_1118" data-name="Trazado 1118" d="M253.454,102.552h-3.93a1.088,1.088,0,0,0-1.085,1.085v2.223a1.084,1.084,0,0,0,1.085,1.083h3.93a1.083,1.083,0,0,0,1.083-1.083v-2.223A1.087,1.087,0,0,0,253.454,102.552Zm-.04,3.29h-3.853v-2.188h3.853Z" transform="translate(-243.299 -74.224)" fill="#fff"/>
      <path id="Trazado_1119" data-name="Trazado 1119" d="M256.1,102.552h-3.93a1.088,1.088,0,0,0-1.085,1.085v2.223a1.084,1.084,0,0,0,1.085,1.083h3.93a1.083,1.083,0,0,0,1.083-1.083v-2.223A1.087,1.087,0,0,0,256.1,102.552Zm-.04,3.29h-3.853v-2.188h3.853Z" transform="translate(-239.36 -74.224)" fill="#fff"/>
      <path id="Trazado_1120" data-name="Trazado 1120" d="M254.458,103.958v.209h2.792a.7.7,0,0,1,.515.214l.005,0a1.2,1.2,0,0,1,.326.759,1.146,1.146,0,0,1-.528.9.7.7,0,0,1-.383.107H253.9v-.884h3.31v-.217l-2.531,0a.846.846,0,0,1-.54-.179l0,0a1.174,1.174,0,0,1-.451-.794.992.992,0,0,1,.227-.672.878.878,0,0,1,.689-.324h3.352v.876Z" transform="translate(-235.495 -73.435)" fill="#fff"/>
      <path id="Trazado_1121" data-name="Trazado 1121" d="M269.42,102.135a3.954,3.954,0,0,1,0,7.907H250.878a3.954,3.954,0,0,1,0-7.907H269.42m0-.55H250.878a4.5,4.5,0,0,0,0,9.01H269.42a4.5,4.5,0,0,0,0-9.01Z" transform="translate(-246.371 -75.664)" fill="#cf92c0"/>
      <path id="path19321" d="M250.524,96.462v8.606l1.453-1.1V97.928Z" transform="translate(-240.196 -83.291)" fill="#cf92c0"/>
      <path id="path19325" d="M251.777,98.579l1.892-.431.762-.627V96.389Z" transform="translate(-238.33 -83.4)" fill="#cf92c0"/>
      <path id="path19329" d="M253.28,92.505l-2.671-1.229,2.414,2.7.913-.9Z" transform="translate(-240.069 -91.013)" fill="#cf92c0"/>
      <path id="path19333" d="M246.375,100.174h.839l.274,1.369h0l.274-1.369h.839V102.5h-.557v-1.493h0l-.331,1.493h-.44l-.331-1.493h0V102.5h-.557Z" transform="translate(-246.372 -77.764)" fill="#cf92c0"/>
      <path id="path19339" d="M249.1,101.6c0,.647-.286.956-.871.956s-.871-.309-.871-.956v-1.426h.587v1.269c0,.236,0,.533.286.533s.281-.3.281-.533v-1.269h.587Z" transform="translate(-244.915 -77.764)" fill="#cf92c0"/>
      <path id="path19343" d="M248.711,101.753a.536.536,0,0,0,.022.152.259.259,0,0,0,.281.169.212.212,0,0,0,.241-.184l0-.027c0-.119-.082-.152-.413-.266-.3-.1-.65-.207-.65-.675a.724.724,0,0,1,.674-.769.665.665,0,0,1,.1,0,.715.715,0,0,1,.8.759h-.555a.2.2,0,0,0-.07-.187.276.276,0,0,0-.174-.057c-.082,0-.214.025-.214.157.012.164.286.2.555.294a.661.661,0,0,1,.54.669.781.781,0,0,1-.883.8.794.794,0,0,1-.841-.747.539.539,0,0,1,0-.09Z" transform="translate(-243.771 -77.798)" fill="#cf92c0"/>
      <path id="path19345" d="M248.892,100.174h.587V102.5h-.587Z" transform="translate(-242.625 -77.764)" fill="#cf92c0"/>
      <path id="path19349" d="M250.483,101.073c-.012-.085-.065-.341-.311-.341-.274,0-.363.326-.363.64s.09.637.363.637c.2,0,.279-.169.314-.388h.577a.912.912,0,0,1-.874.968c-.617,0-.971-.53-.971-1.217,0-.734.383-1.22.971-1.22.525,0,.814.338.866.921Z" transform="translate(-242.138 -77.797)" fill="#cf92c0"/>
      <path id="path19353" d="M250.894,100.771h-.535v-.6h1.66v.6h-.535v1.73h-.59Z" transform="translate(-240.441 -77.764)" fill="#cf92c0"/>
      <path id="path19357" d="M251.1,100.174h1.58v.6h-.993v.291h.9v.553h-.9v.291h1.025v.595H251.1Z" transform="translate(-239.345 -77.764)" fill="#cf92c0"/>
      <path id="path19361" d="M251.815,100.174h.587v1.732h.849v.595h-1.436Z" transform="translate(-238.273 -77.764)" fill="#cf92c0"/>
      <path id="path19365" d="M252.45,100.174h1.583v.6h-.993v.291h.9v.553h-.9v.291h1.023v.595H252.45Z" transform="translate(-237.328 -77.764)" fill="#cf92c0"/>
      <path id="path19369" d="M254.391,102.5h-.66l-.57-2.327h.595l.314,1.411h0l.309-1.411h.6Z" transform="translate(-236.269 -77.764)" fill="#cf92c0"/>
      <path id="path19371" d="M253.984,100.174h.59V102.5h-.59Z" transform="translate(-235.044 -77.764)" fill="#cf92c0"/>
      <path id="path19375" d="M254.9,101.753a.456.456,0,0,0,.02.152.259.259,0,0,0,.281.169.211.211,0,0,0,.241-.184l0-.027c0-.119-.085-.152-.413-.266-.3-.1-.647-.207-.647-.675a.722.722,0,0,1,.672-.769.664.664,0,0,1,.1,0,.714.714,0,0,1,.8.759H255.4a.2.2,0,0,0-.07-.187.276.276,0,0,0-.174-.057c-.08,0-.212.025-.212.157.01.164.284.2.555.294a.659.659,0,0,1,.538.669.781.781,0,0,1-.884.8.8.8,0,0,1-.841-.747.529.529,0,0,1,0-.09Z" transform="translate(-234.555 -77.798)" fill="#cf92c0"/>
      <path id="path19377" d="M255.082,100.174h.59V102.5h-.59Z" transform="translate(-233.409 -77.764)" fill="#cf92c0"/>
      <path id="path19381" d="M256.37,100.152c.582,0,.968.51.968,1.22s-.386,1.217-.968,1.217-.971-.508-.971-1.217.391-1.22.971-1.22m0,1.857c.149,0,.381-.119.381-.637s-.231-.64-.381-.64-.381.122-.381.64.231.637.381.637" transform="translate(-232.938 -77.797)" fill="#cf92c0"/>
      <path id="path19385" d="M256.266,100.174h.6l.555,1.244h.007v-1.244h.555V102.5h-.572l-.587-1.269h0V102.5h-.557Z" transform="translate(-231.646 -77.764)" fill="#cf92c0"/>
      <path id="path19389" d="M257.584,101.006h-.127v-.592h.221c.152,0,.241.042.241.179a.134.134,0,0,1-.122.152l-.02,0,.152.259h-.149l-.137-.249h-.06v.249m.112-.351c.055,0,.089-.01.089-.077s-.065-.065-.114-.065h-.087v.142h.112m-.022.6a.55.55,0,1,1,.552-.55.531.531,0,0,1-.513.55h-.04m0-.971a.423.423,0,0,0,0,.844h0a.423.423,0,0,0,0-.844" transform="translate(-230.366 -77.786)" fill="#cf92c0" fill-rule="evenodd"/>
      <path id="path19393" d="M278.032,94.052a1.861,1.861,0,0,0-1.113-.212,1.582,1.582,0,0,0-.908.423l-.585.58-.159.251-.523.655-.007.007V92.133l-1.6-.963v6.58l-.02.032-.383.45V91.17h-9.915l-3.527,3.509-3.131-3.509h-9.779v21.752h9.943V103.34l2.929,3.019,3.594-3.064v9.627h9.886v-9.179c.077-.132.139-.236.139-.236l.085-.124.182-.286v9.826l1.6-1.105V100.227l.177-.261c.015-.025.246-.371.246-.371l.368-.543.139-.182.341-.48a.733.733,0,0,1,.334-.3l.035-.017.045-.035.177-.179.309-.261.52-.241.488-.269.445-.548.236-.734.07-.712a1.487,1.487,0,0,0-.635-1.043m-11.914,5.916c.012.07.05.714.047.819,0,.319.02.672.01.814-.007.107.007.478.007.478.025.3.09.617.095.674.012.149-.042.722-.027.851a2.024,2.024,0,0,1,.04.321,2.338,2.338,0,0,0,.012.4c-.008.117-.012.251-.017.4-.007.214-.015.433-.035.625-.005.05,0,.383,0,.383a3.623,3.623,0,0,0-.022,1.038c.01.07,0,.3,0,.341s.082.324.095.383a4.448,4.448,0,0,0,.092.6c.045.095.222.515.239.567a1.489,1.489,0,0,1,.06.739,7.448,7.448,0,0,1-.244.734c-.062.1-.157.154-.2.221a.423.423,0,0,1-.2.152,1.532,1.532,0,0,1-.938.042,1.647,1.647,0,0,1-.572-.167.889.889,0,0,1-.279-.592c-.012-.08.01-.289,0-.321s-.077-.356-.077-.455a2.338,2.338,0,0,0-.005-.4c-.03-.177-.115-.465-.115-.465-.025-.117-.087-.373-.092-.381a2.486,2.486,0,0,1-.12-.535,1.708,1.708,0,0,1,.1-.749,2.173,2.173,0,0,0,.085-.356c.01-.085-.055-.483-.042-.617.005-.055.05-.226.052-.249.015-.114.02-.416.02-.46a5.616,5.616,0,0,0,.037-.577,2.256,2.256,0,0,1,0-.319,2.812,2.812,0,0,0,0-.543,1.961,1.961,0,0,1-.02-.4,4.551,4.551,0,0,1-.015-.64c0-.03-.037-.358-.037-.46,0-.065,0-.468-.01-.515-.087-1-.221-1.195-.276-1.232a.38.38,0,0,0-.286.007c-.065.03-.231.174-.373.251a5.27,5.27,0,0,0-.485.261,4.037,4.037,0,0,1-.595.383,1.223,1.223,0,0,0-.219.189,2.793,2.793,0,0,1-.637.465,1.586,1.586,0,0,0-.416.286c-.05.047-.224.338-.336.45a.955.955,0,0,0-.2.3.863.863,0,0,1-.241.351,1.006,1.006,0,0,1-.841.062,1.094,1.094,0,0,1-.358-1.775,1.468,1.468,0,0,1,.729-.356,2.263,2.263,0,0,0,.45-.162c.06-.035.254-.179.294-.2.06-.042.279-.147.324-.174a4.342,4.342,0,0,1,.423-.316c.256-.142.458-.256.577-.333a3.507,3.507,0,0,0,.58-.413c.052-.05.271-.129.51-.266.06-.035.311-.119.373-.147.045-.02.219-.147.271-.174a.476.476,0,0,0,.274-.6,1.359,1.359,0,0,1-.047-.388,1.537,1.537,0,0,1,.139-.406c.04-.077.107-.075.142-.147a.449.449,0,0,1,.251-.157.686.686,0,0,1,.326-.142,1.689,1.689,0,0,1,.779.189,1.025,1.025,0,0,0,.4-.02c.017,0,.147-.09.194-.107.065-.022.266-.08.309-.095.062-.02.351-.172.426-.2a3.158,3.158,0,0,1,.336-.082c.137-.1.4-.182.493-.266a2.677,2.677,0,0,0,.3-.373,2.955,2.955,0,0,1,.383-.3,1.781,1.781,0,0,1,.45-.264,2.991,2.991,0,0,1,.4.02.508.508,0,0,1,.48.231,1.126,1.126,0,0,1,.227.378,1.2,1.2,0,0,1-.538,1.132c-.027.015-.159.055-.241.082-.114.037-.229.119-.306.139a.968.968,0,0,0-.294.182c-.062.032-.274.164-.341.2a1.013,1.013,0,0,1-.294.2,1.291,1.291,0,0,0-.5.246,1.671,1.671,0,0,1-.451.144c-.03.007-.406.164-.443.386s-.007.291-.05.622a2.462,2.462,0,0,0,0,.575m12.225-4.214a2.967,2.967,0,0,1-.212.662,1.4,1.4,0,0,1-.791.694c-.077.027-.455.2-.557.259a1.271,1.271,0,0,0-.376.316q-.075.082-.157.157a1.062,1.062,0,0,0-.48.443,7.637,7.637,0,0,1-.465.632,2.5,2.5,0,0,1-.329.493.855.855,0,0,0-.117.152c-.04.057-.08.122-.122.192l-.032.055a2.667,2.667,0,0,1-.222.334,1.56,1.56,0,0,0-.261.46,5.918,5.918,0,0,0-.314.565c-.035.095-.217.4-.236.446a3.283,3.283,0,0,1-.3.371,2.015,2.015,0,0,0-.095.259c-.027.087-.1.261-.124.329l-.112.184,0,.007-.094.152c-.075.119-.147.236-.2.311-.032.042-.065.09-.095.134-.045.067-.386.65-.465.786-.035.065-.077.127-.119.194a1.728,1.728,0,0,0-.264.513,3.363,3.363,0,0,1-.132.343,3.367,3.367,0,0,0-.2.781,2.9,2.9,0,0,0-.01.488,2.166,2.166,0,0,1-.015.475,2.074,2.074,0,0,1-.294.739,2.315,2.315,0,0,1-.319.378,1.132,1.132,0,0,1-1.521-.373,3.523,3.523,0,0,1-.212-.408,4.636,4.636,0,0,1-.306-.8c-.027-.095-.065-.2-.1-.3s-.124-.416-.132-.465-.115-.408-.122-.443a6.109,6.109,0,0,0-.154-.62,5.853,5.853,0,0,1-.147-.59,5.729,5.729,0,0,0-.207-.717s-.142-.45-.189-.612c-.062-.219-.266-.824-.266-.824-.075-.207-.256-.689-.269-.767a2.669,2.669,0,0,1,.007-1.354.938.938,0,0,1,.363-.274,3.267,3.267,0,0,1,.326-.189,1.908,1.908,0,0,1,.582-.03.95.95,0,0,1,.361.07c.331.231.356.528.4,1.07,0,0,.057.582.085.8.02.162.04.329.057.493.012.114.017.239.022.358.01.217.082.632.082.632a.8.8,0,0,0,.438.607.294.294,0,0,0,.254-.02,1.189,1.189,0,0,0,.45-.8.345.345,0,0,1,.062-.1,1.162,1.162,0,0,0,.212-.448,2.472,2.472,0,0,1,.227-.348,3.457,3.457,0,0,0,.2-.3c.015-.027.346-.543.346-.543s.127-.284.182-.391a1.924,1.924,0,0,0,.107-.256,1.243,1.243,0,0,1,.189-.473,2.739,2.739,0,0,0,.319-.587c.035-.067.132-.234.224-.381l.02-.027h0l0-.007c.04-.055.092-.122.132-.169l.284-.338a2.1,2.1,0,0,0,.169-.2c.057-.075.174-.249.279-.4a4.659,4.659,0,0,1,.3-.4c.055-.057.47-.615.535-.7.025-.032.2-.207.3-.311l0,0c.142-.142.194-.194.214-.219.082-.112.172-.221.259-.329s.177-.214.261-.326c.037-.047.134-.221.159-.254.09-.119.53-.525.545-.538a1.357,1.357,0,0,1,.764-.363,1.631,1.631,0,0,1,.943.169,1.236,1.236,0,0,1,.52.836,2.187,2.187,0,0,1-.062.65" transform="translate(-246.366 -91.17)" fill="#cf92c0"/>
    </g>
  </g>
</svg>
