<svg xmlns="http://www.w3.org/2000/svg" xmlns:xlink="http://www.w3.org/1999/xlink" width="85" height="85" viewBox="0 0 85 85">
  <defs>
    <filter id="Rectángulo_18090" x="0" y="0" width="85" height="85" filterUnits="userSpaceOnUse">
      <feOffset dy="3" input="SourceAlpha"/>
      <feGaussianBlur stdDeviation="3" result="blur"/>
      <feFlood flood-opacity="0.161"/>
      <feComposite operator="in" in2="blur"/>
      <feComposite in="SourceGraphic"/>
    </filter>
    <clipPath id="clip-path">
      <rect id="Rectángulo_27224" data-name="Rectángulo 27224" width="56.49" height="13.729" fill="none"/>
    </clipPath>
  </defs>
  <g id="Grupo_40775" data-name="Grupo 40775" transform="translate(8897 -2688)">
    <g transform="matrix(1, 0, 0, 1, -8897, 2688)" filter="url(#Rectángulo_18090)">
      <rect id="Rectángulo_18090-2" data-name="Rectángulo 18090" width="67" height="67" rx="10" transform="translate(9 6)" fill="#fff"/>
    </g>
    <g id="Grupo_40774" data-name="Grupo 40774" transform="translate(-8883 2721)">
      <g id="Grupo_40773" data-name="Grupo 40773" transform="translate(0 0)" clip-path="url(#clip-path)">
        <path id="Trazado_83736" data-name="Trazado 83736" d="M37.262,6.731a4.614,4.614,0,0,0-1.113-.807,9.736,9.736,0,0,0-1.5-.623,5.414,5.414,0,0,1-1.023-.422.626.626,0,0,1-.347-.568.721.721,0,0,1,.412-.679,1.959,1.959,0,0,1,.927-.221h.01a4.149,4.149,0,0,1,1.7.4,4.231,4.231,0,0,1,1.244.872L39.3,1.614a3.77,3.77,0,0,0-.865-.661,6.861,6.861,0,0,0-1.116-.5A8.069,8.069,0,0,0,36.031.121,7.861,7.861,0,0,0,34.653,0a7.255,7.255,0,0,0-2.32.357,6.182,6.182,0,0,0-1.144.52l.292-.51H26.545L22.606,8.578h-.075L21.94.367H12.409l-3.4,7.176H8.913L7.767.367H2.312L0,13.46H3.994L5.122,5.879h.093L6.379,13.46H9.393l3.866-7.581h.111l-1.46,7.581h4.16l1.737-9.833,1.418,9.833h4.771l4.941-8.639a3.327,3.327,0,0,0,.254,1.3,2.982,2.982,0,0,0,.706.99,4.327,4.327,0,0,0,1.063.706,10.247,10.247,0,0,0,1.312.513,4.011,4.011,0,0,1,1.2.53.746.746,0,0,1,.319.588.663.663,0,0,1-.385.613,2.132,2.132,0,0,1-1.025.211,2.807,2.807,0,0,1-.643-.083c-.138-.033-.279-.073-.415-.118h0a4.332,4.332,0,0,1-1.048-.54,4.028,4.028,0,0,1-1.237-1.357l-1.95,3.494a6.862,6.862,0,0,0,4.906,2.046h.025c.128.005.254.008.382.008a8.2,8.2,0,0,0,2-.256,6.179,6.179,0,0,0,1.873-.807,4.548,4.548,0,0,0,1.4-1.43A3.962,3.962,0,0,0,38.212,9.1a3.4,3.4,0,0,0-.246-1.32,3.291,3.291,0,0,0-.7-1.046" transform="translate(0 0)" fill="#002e57"/>
        <path id="Trazado_83737" data-name="Trazado 83737" d="M28.773,2.451,26.417,8.005h-.07l-.354-5.555H21l.3-1.81H17.935L15.411,5.11h1.382l-.686,4.1q-.034.23-.06.5c-.018.178-.028.337-.028.475a2.616,2.616,0,0,0,.276,1.279,2.092,2.092,0,0,0,.716.782,2.86,2.86,0,0,0,1.01.4,5.863,5.863,0,0,0,1.151.116,7.162,7.162,0,0,0,1.134-.1,2.289,2.289,0,0,0,.814-.249L21.6,9.473a3.58,3.58,0,0,1-.354.078,2.426,2.426,0,0,1-.425.038.989.989,0,0,1-.576-.143.673.673,0,0,1-.2-.581q0-.1.008-.249c.008-.1.015-.191.028-.269l.543-3.237H22.23l1.159,7.38h4.321L33.166,2.451Z" transform="translate(23.324 0.97)" fill="#42afaa"/>
      </g>
    </g>
  </g>
</svg>
