<svg xmlns="http://www.w3.org/2000/svg" xmlns:xlink="http://www.w3.org/1999/xlink" width="85" height="85" viewBox="0 0 85 85">
  <defs>
    <filter id="Rectángulo_17998" x="0" y="0" width="85" height="85" filterUnits="userSpaceOnUse">
      <feOffset dy="3" input="SourceAlpha"/>
      <feGaussianBlur stdDeviation="3" result="blur"/>
      <feFlood flood-opacity="0.161"/>
      <feComposite operator="in" in2="blur"/>
      <feComposite in="SourceGraphic"/>
    </filter>
  </defs>
  <g id="Grupo_18786" data-name="Grupo 18786" transform="translate(-876 -1246)">
    <g transform="matrix(1, 0, 0, 1, 876, 1246)" filter="url(#Rectángulo_17998)">
      <rect id="Rectángulo_17998-2" data-name="Rectángulo 17998" width="67" height="67" rx="10" transform="translate(9 6)" fill="#fff"/>
    </g>
    <g id="_312_National_Geographic_Color" data-name="312 National Geographic Color" transform="translate(895 1278)">
      <g id="Grupo_18137" data-name="Grupo 18137" transform="translate(0 0)">
        <path id="Trazado_39874" data-name="Trazado 39874" d="M0,0H9.25V14.29H0ZM7.912,1.439H1.333V12.851H7.912Z" fill="#fc0"/>
        <path id="Trazado_39875" data-name="Trazado 39875" d="M14.781,6.2h-.6c-.78-1.186-1.552-2.365-2.325-3.7h-.006V6.2H11.2V1.035h.6c.779,1.18,1.551,2.351,2.318,3.678h.013V1.035h.657Z" transform="translate(0.684 0.063)" fill="#1a1818"/>
        <path id="Trazado_39876" data-name="Trazado 39876" d="M16.121,4.155c.191-.679.382-1.306.553-2.1h.014c.192.8.363,1.424.54,2.1Zm.314-3.12L14.78,6.2h.711l.418-1.407h1.443L17.728,6.2h.916l-1.525-5.16Z" transform="translate(0.903 0.063)" fill="#1a1818"/>
        <path id="Trazado_39877" data-name="Trazado 39877" d="M19.222,6.2V1.727H17.964V1.035H21.3v.692H20.042V6.2Z" transform="translate(1.098 0.063)" fill="#1a1818"/>
        <rect id="Rectángulo_18025" data-name="Rectángulo 18025" width="0.814" height="5.161" transform="translate(22.664 1.098)" fill="#1a1818"/>
        <path id="Trazado_39878" data-name="Trazado 39878" d="M24.627,5.552c-.854,0-1.156-1.018-1.156-2,0-.952.343-1.859,1.156-1.859s1.156.907,1.156,1.859c0,.987-.3,2-1.156,2m0,.736c1.252,0,2.032-1.2,2.032-2.741,0-1.445-.863-2.6-2.032-2.6S22.6,2.1,22.6,3.547c0,1.541.78,2.741,2.031,2.741" transform="translate(1.381 0.058)" fill="#1a1818"/>
        <path id="Trazado_39879" data-name="Trazado 39879" d="M30.477,6.2h-.6C29.1,5.009,28.331,3.83,27.557,2.5h-.006V6.2h-.657V1.035h.6c.78,1.18,1.553,2.351,2.317,3.678h.015V1.035h.656Z" transform="translate(1.643 0.063)" fill="#1a1818"/>
        <path id="Trazado_39880" data-name="Trazado 39880" d="M31.818,4.155c.191-.679.382-1.306.553-2.1h.014c.191.8.363,1.424.54,2.1Zm.314-3.12L30.477,6.2h.711l.418-1.407h1.442L33.424,6.2h.917l-1.525-5.16Z" transform="translate(1.862 0.063)" fill="#1a1818"/>
        <path id="Trazado_39881" data-name="Trazado 39881" d="M34.343,1.035h.814V5.5h1.62V6.2H34.343Z" transform="translate(2.098 0.063)" fill="#1a1818"/>
        <path id="Trazado_39882" data-name="Trazado 39882" d="M14.31,10.133v2.131a3.534,3.534,0,0,1-1.361.316,2.416,2.416,0,0,1-2.3-2.7,2.428,2.428,0,0,1,2.325-2.639,1.944,1.944,0,0,1,1.161.4l-.266.612A1.682,1.682,0,0,0,13,7.98c-.876,0-1.471.745-1.471,1.917,0,1.223.683,1.947,1.389,1.947a1.135,1.135,0,0,0,.573-.126V10.133Z" transform="translate(0.651 0.443)" fill="#1a1818"/>
        <path id="Trazado_39883" data-name="Trazado 39883" d="M16.989,8.02H15.621V9.436h1.341v.692H15.621v1.666h1.614v.693H14.8V7.327h2.189Z" transform="translate(0.904 0.448)" fill="#1a1818"/>
        <path id="Trazado_39884" data-name="Trazado 39884" d="M19.364,11.844c-.854,0-1.156-1.018-1.156-2.005,0-.951.342-1.857,1.156-1.857s1.156.906,1.156,1.857c0,.988-.3,2.005-1.156,2.005m0,.737c1.251,0,2.031-1.2,2.031-2.743,0-1.444-.863-2.594-2.031-2.594s-2.031,1.15-2.031,2.594c0,1.542.78,2.743,2.031,2.743" transform="translate(1.059 0.443)" fill="#1a1818"/>
        <path id="Trazado_39885" data-name="Trazado 39885" d="M25.083,10.133v2.131a3.524,3.524,0,0,1-1.36.316,2.416,2.416,0,0,1-2.3-2.7A2.428,2.428,0,0,1,23.75,7.244a1.95,1.95,0,0,1,1.162.4l-.265.612a1.693,1.693,0,0,0-.876-.274c-.875,0-1.471.745-1.471,1.917,0,1.223.684,1.947,1.388,1.947a1.137,1.137,0,0,0,.574-.126V10.133Z" transform="translate(1.309 0.443)" fill="#1a1818"/>
        <path id="Trazado_39886" data-name="Trazado 39886" d="M26.4,8.021h.363c.486,0,.759.3.759.833,0,.692-.389,1-.779,1.024-.083.007-.275.015-.343.022Zm2.079,4.466-.963-2.138a1.76,1.76,0,0,0,.828-1.532,1.34,1.34,0,0,0-1.484-1.49H25.582v5.16H26.4V10.542h.369l.772,1.945Z" transform="translate(1.563 0.448)" fill="#1a1818"/>
        <path id="Trazado_39887" data-name="Trazado 39887" d="M29.666,10.446c.192-.678.383-1.305.554-2.1h.014c.191.8.362,1.423.539,2.1Zm.315-3.118-1.655,5.159h.711l.417-1.408H30.9l.376,1.408h.917L30.664,7.328Z" transform="translate(1.731 0.448)" fill="#1a1818"/>
        <path id="Trazado_39888" data-name="Trazado 39888" d="M33.032,12.487h-.82V7.327h1.279a1.34,1.34,0,0,1,1.483,1.49A1.634,1.634,0,0,1,33.4,10.542h-.383V9.9c.04-.007.266-.015.355-.022.389-.022.779-.332.779-1.024,0-.532-.273-.833-.751-.833h-.369Z" transform="translate(1.968 0.448)" fill="#1a1818"/>
        <path id="Trazado_39889" data-name="Trazado 39889" d="M38.589,12.487h-.821V10h-1.7v2.483h-.813V7.327h.813V9.31h1.7V7.342h.821Z" transform="translate(2.154 0.448)" fill="#1a1818"/>
        <rect id="Rectángulo_18026" data-name="Rectángulo 18026" width="0.814" height="5.16" transform="translate(41.53 7.775)" fill="#1a1818"/>
        <path id="Trazado_39890" data-name="Trazado 39890" d="M43.567,8.268a1.653,1.653,0,0,0-.841-.288c-.834,0-1.443.745-1.443,1.916,0,1.225.672,1.947,1.463,1.947a1.469,1.469,0,0,0,.821-.258l.226.641a1.979,1.979,0,0,1-1.081.353,2.417,2.417,0,0,1-2.3-2.7,2.423,2.423,0,0,1,2.311-2.639,1.929,1.929,0,0,1,1.1.4Z" transform="translate(2.469 0.443)" fill="#1a1818"/>
      </g>
    </g>
  </g>
</svg>
