<svg xmlns="http://www.w3.org/2000/svg" xmlns:xlink="http://www.w3.org/1999/xlink" width="86" height="84" viewBox="0 0 86 84">
  <defs>
    <filter id="Rect치ngulo_18263" x="0" y="0" width="86" height="84" filterUnits="userSpaceOnUse">
      <feOffset dy="3" input="SourceAlpha"/>
      <feGaussianBlur stdDeviation="3" result="blur"/>
      <feFlood flood-opacity="0.161"/>
      <feComposite operator="in" in2="blur"/>
      <feComposite in="SourceGraphic"/>
    </filter>
  </defs>
  <g id="NBA" transform="translate(-252 -1112)">
    <g transform="matrix(1, 0, 0, 1, 252, 1112)" filter="url(#Rect치ngulo_18263)">
      <rect id="Rect치ngulo_18263-2" data-name="Rect치ngulo 18263" width="68" height="66" rx="10" transform="translate(9 6)" fill="#f7fcfe"/>
    </g>
    <g id="Grupo_19219" data-name="Grupo 19219" transform="translate(281.711 1135)">
      <path id="Trazado_38493" data-name="Trazado 38493" d="M176.989,627.7H151.157a3.376,3.376,0,0,0-3.373,3.372v25.833a3.378,3.378,0,0,0,3.373,3.377h25.827a3.384,3.384,0,0,0,3.38-3.377V631.072a3.379,3.379,0,0,0-3.374-3.372" transform="translate(-147.784 -627.7)" fill="#fff"/>
      <path id="Trazado_38494" data-name="Trazado 38494" d="M158.833,656.8c-.414-.37-.138-.526-.154-.672-.274-1.128-1.17-1.811-.706-2.183-.114-.373-.347-.841-.339-.84a14,14,0,0,1-2.787-2.3c-.246-.266-.663-.534-.742-.75a21.969,21.969,0,0,1-2.365-3.5l-.669-.094c-.3-1.242-1.318-2.283-1.344-3.528a6.942,6.942,0,0,1,.3-1.68,2.237,2.237,0,0,1,.47-.539v-.333c-1.457.041-1.038-.108-1.29-.675-.177-.393-.05-.478.014-.751a16.6,16.6,0,0,1,1.114-2.605c.083-.284.363-.969.363-.969,1.088-2.213,1.493-2.049,2.783-2.175l.063-.092c1.293-.056,1.081-.153,1.264-1.4-.187.081-.245-.39-.245-.39-.1-.709.2-.575.338-.589.031-1.165.149-1.532.99-1.853h-4.355a2.579,2.579,0,0,0-2.579,2.579v25.832a2.58,2.58,0,0,0,2.579,2.58h7.628c-.874-.471-.358-1.37-.327-3.075" transform="translate(-148.159 -628.08)" fill="#00428b"/>
      <path id="Trazado_38495" data-name="Trazado 38495" d="M180.534,628.884H159.871a1.181,1.181,0,0,1,.749.571c.319.027.7.74.107,1.795.261.173.058.433-.13.735-.055.1-.115.268-.289.257-.224.471-.495.927-.7.956a.329.329,0,0,0-.014.374,3.494,3.494,0,0,1,.846.491l.008.11c.232.135.351.246.585.4.622.391,1.389,1.088,1.292,3.486.174.523.251,1.551.412,1.881a5.271,5.271,0,0,1,.635,1.667,3.831,3.831,0,0,0,.2,1c.022.009.045.016.067.025.522.124.431.187.478.277.046.035.09.069.133.107.147.069.357.13.357.391,0,0,.005.009.009.014.041.058.079.118.115.179a2.371,2.371,0,0,1,.173.345v.024a2.311,2.311,0,0,1,0,1.61v.057a2.292,2.292,0,0,1-1.036,1.167l-.05.026-.079.039a2.255,2.255,0,0,1-.984.227,2.323,2.323,0,0,1-.545-4.574c-.27-.665-.815-1.713-.978-2.061s-.537-2.536-.618-2.968c-.019-.094-.992.565-.994.605-.056.056-.73,1.813-.758,1.908a2.69,2.69,0,0,0-.015.295s.331.041.521.618.764,2.683.764,2.683a1.356,1.356,0,0,1-.162.151c.726,2.431.473,3.477.8,4.189.41,1,.52.873.872,1.717.252.615.533,3.035.627,3.143a2.257,2.257,0,0,1,.6,1.166,5.943,5.943,0,0,0-.211,1.6c.074.286.112.926.245,1.047,0,0,.122.24.062.347-.017.037-.052.092-.036.137.215.76.907,2.054-.2,2.738l-.068.04h17.891a2.56,2.56,0,0,0,2.56-2.56v-25.85a2.579,2.579,0,0,0-2.579-2.58" transform="translate(-151.333 -628.08)" fill="#d91931"/>
      <path id="Trazado_38496" data-name="Trazado 38496" d="M183.29,637.914H180.7l-.576,9.407-.393,6.211-.393-6.132-.6-9.485h-2.7L178,656.623h3.276Zm-14.306,2.345h1.939V656.61h2.516V640.259H175.4V637.9h-6.42Z" transform="translate(-154.582 -630.971)" fill="#fff"/>
      <path id="Trazado_38497" data-name="Trazado 38497" d="M153.745,669.91v-4.681h.908c.525,0,.85.282.85.938v.695c0,.425-.13.642-.312.747a.768.768,0,0,1,.312.688v.682c0,.643-.344.931-.85.931Zm.623-2.033v1.442h.24c.214,0,.272-.111.272-.334v-.793c0-.23-.071-.315-.279-.315Zm0-2.058v1.547h.234c.22,0,.279-.079.279-.334v-.9c0-.217-.065-.315-.272-.315Zm2.6,3.14h-.565l-.079.951H155.7l.565-4.681h.9l.545,4.681h-.655Zm-.28-3.206h-.032c-.039.564-.117,1.554-.143,1.869l-.071.806h.486l-.071-.806c-.027-.321-.117-1.3-.169-1.869m-4.8,4.157h-.545v-4.681h.863l.694,3.836c-.058-.918-.137-2.026-.137-2.97v-.865h.546v4.681h-.792l-.694-3.75c.046.865.065,1.554.065,2.276Z" transform="translate(-148.926 -639.734)" fill="#fff"/>
    </g>
  </g>
</svg>
