<svg xmlns="http://www.w3.org/2000/svg" xmlns:xlink="http://www.w3.org/1999/xlink" width="86" height="85" viewBox="0 0 86 85">
  <defs>
    <filter id="Rect치ngulo_17998" x="0" y="0" width="86" height="85" filterUnits="userSpaceOnUse">
      <feOffset dy="3" input="SourceAlpha"/>
      <feGaussianBlur stdDeviation="3" result="blur"/>
      <feFlood flood-opacity="0.161"/>
      <feComposite operator="in" in2="blur"/>
      <feComposite in="SourceGraphic"/>
    </filter>
  </defs>
  <g id="Grupo_18790" data-name="Grupo 18790" transform="translate(-1227 -1246)">
    <g transform="matrix(1, 0, 0, 1, 1227, 1246)" filter="url(#Rect치ngulo_17998)">
      <rect id="Rect치ngulo_17998-2" data-name="Rect치ngulo 17998" width="68" height="67" rx="10" transform="translate(9 6)" fill="#fff"/>
    </g>
    <g id="Grupo_794" data-name="Grupo 794" transform="translate(1241 1281)">
      <path id="C" d="M459.3,81.27a.576.576,0,0,1-1.115,0,2.458,2.458,0,0,1,0-2.081.576.576,0,0,1,1.115,0,2.073,2.073,0,0,1,.214.733H462a3.272,3.272,0,1,0-5.571,2.621v0a3.269,3.269,0,0,0,4.627,0v0A3.265,3.265,0,0,0,462,80.537h-2.487a2.063,2.063,0,0,1-.214.733" transform="translate(-445.636 -73.793)" fill="#ef581c"/>
      <path id="I" d="M455.963,77.331a1.381,1.381,0,1,0-1.953,0l.306.306c.508.51.545.644.06,1.128l-.277.277a1.251,1.251,0,0,0-.368.887v4.485h2.511V79.93a1.251,1.251,0,0,0-.368-.887l-.277-.277c-.484-.483-.448-.618.061-1.128l.306-.306Z" transform="translate(-446.745 -74.969)" fill="#ef581c"/>
      <path id="K" d="M465.533,78.807a1.242,1.242,0,0,0-2.14-1.262l-1.125,2.011v-1.34a1.242,1.242,0,0,0-2.484,0v5.036h2.484V81.27l1.316,2.023h2.052c.363,0,.53-.365.234-.813l-1.279-1.963.942-1.71Z" transform="translate(-443.079 -73.806)" fill="#ef581c"/>
      <path id="N" d="M452.571,76.959a3.272,3.272,0,0,0-3.272,3.272v3.006h2.484V80.282a1.734,1.734,0,0,1,.231-.9.6.6,0,0,1,1.115,0,1.749,1.749,0,0,1,.231.9v2.955h2.482V80.231a3.272,3.272,0,0,0-3.271-3.272" transform="translate(-449.299 -73.792)" fill="#ef581c"/>
      <path id="C-2" data-name="C" d="M484.349,81.274a.575.575,0,0,1-1.114,0,2.462,2.462,0,0,1,0-2.082.575.575,0,0,1,1.114,0,2.064,2.064,0,0,1,.215.733h2.487a3.272,3.272,0,1,0,0,.617h-2.487a2.085,2.085,0,0,1-.215.733" transform="translate(-430.78 -73.792)" fill="#4a328a"/>
      <path id="I-2" data-name="I" d="M481,77.327a1.382,1.382,0,1,0-1.952,0l.3.306c.51.508.546.644.062,1.128l-.279.277a1.254,1.254,0,0,0-.366.887v4.485h2.511V79.926a1.255,1.255,0,0,0-.368-.887l-.279-.277c-.483-.483-.448-.62.062-1.128l.3-.306Z" transform="translate(-431.89 -74.971)" fill="#4a328a"/>
      <path id="S" d="M478.665,79.712c-.937-.416-1.431-.572-1.447-.911-.014-.3.312-.357.427-.357.661,0,.711.669.711.824h2.015a2.547,2.547,0,0,0-2.8-2.326,2.345,2.345,0,0,0-2.543,2.012c0,.37.167,1.11,1.807,1.839.937.416,1.431.57,1.447.91.014.3-.311.389-.425.389-.661,0-.712-.7-.712-.854h-2.014a2.519,2.519,0,0,0,2.8,2.286,2.32,2.32,0,0,0,2.544-1.972c0-.371-.167-1.11-1.808-1.839" transform="translate(-434.035 -73.802)" fill="#4a328a"/>
      <path id="U" d="M473.933,83.427a3.187,3.187,0,0,0,2.315-.841,3.017,3.017,0,0,0,.9-2.227V77.105l-2.425,0v2.973a2.229,2.229,0,0,1-.231,1.018.6.6,0,0,1-1.115,0,2.209,2.209,0,0,1-.231-1.018V77.1h-2.426v3.256a3.013,3.013,0,0,0,.9,2.227,3.182,3.182,0,0,0,2.315.841" transform="translate(-436.594 -73.707)" fill="#4a328a"/>
      <path id="Trazado_645" data-name="Trazado 645" d="M473.291,77.92a3.264,3.264,0,0,0-2.305-.98,2.74,2.74,0,0,1-3.7,0,3.377,3.377,0,0,0-2.364.965,3.287,3.287,0,0,0-.958,2.328v3.041h2.434V80.29a1.739,1.739,0,0,1,.225-.908.864.864,0,0,1,.671-.376.787.787,0,0,1,.626.376,1.731,1.731,0,0,1,.164.908v2.989h1.966v-2.99a1.734,1.734,0,0,1,.255-.9.89.89,0,0,1,.687-.374.812.812,0,0,1,.641.374,1.728,1.728,0,0,1,.2.9v2.99h2.34V80.238A3.2,3.2,0,0,0,473.291,77.92Z" transform="translate(-440.602 -73.803)" fill="#4a328a"/>
      <path id="Trazado_646" data-name="Trazado 646" d="M485.025,80.644h-.252v-.129h.655v.129h-.252v.7h-.151Zm.583-.143h.024l.4.452.4-.452h.026v.848h-.151v-.524l-.26.311h-.029l-.263-.311v.524h-.151Z" transform="translate(-428.256 -71.691)" fill="#4a328a"/>
    </g>
  </g>
</svg>
