<svg xmlns="http://www.w3.org/2000/svg" xmlns:xlink="http://www.w3.org/1999/xlink" width="85" height="85" viewBox="0 0 85 85">
  <defs>
    <filter id="Rectángulo_18090" x="0" y="0" width="85" height="85" filterUnits="userSpaceOnUse">
      <feOffset dy="3" input="SourceAlpha"/>
      <feGaussianBlur stdDeviation="3" result="blur"/>
      <feFlood flood-opacity="0.161"/>
      <feComposite operator="in" in2="blur"/>
      <feComposite in="SourceGraphic"/>
    </filter>
    <clipPath id="clip-path">
      <rect id="Rectángulo_23015" data-name="Rectángulo 23015" width="42.137" height="32.372" fill="none"/>
    </clipPath>
  </defs>
  <g id="nickelodeon" transform="translate(-360 -102)">
    <g transform="matrix(1, 0, 0, 1, 360, 102)" filter="url(#Rectángulo_18090)">
      <rect id="Rectángulo_18090-2" data-name="Rectángulo 18090" width="67" height="67" rx="10" transform="translate(9 6)" fill="#fff"/>
    </g>
    <g id="Grupo_35441" data-name="Grupo 35441" transform="translate(381 125)">
      <g id="Grupo_35435" data-name="Grupo 35435" transform="translate(0 0)" clip-path="url(#clip-path)">
        <path id="Trazado_89894" data-name="Trazado 89894" d="M4.652,3.171A2.756,2.756,0,1,0,7.409,5.926,2.759,2.759,0,0,0,4.652,3.171m0,.758a2,2,0,1,1-2,2,2,2,0,0,1,2-2" transform="translate(1.782 2.98)" fill="#ff3600"/>
        <path id="Trazado_89895" data-name="Trazado 89895" d="M6.952,15.117a.371.371,0,0,1-.1-.014.38.38,0,0,1-.266-.466,4.5,4.5,0,0,0-.442-3.486A4.858,4.858,0,0,1,5.4,8.535,4.28,4.28,0,0,1,9.166,4.456C10.772,4.208,11.723,3,12.638,1.824a4.292,4.292,0,0,1,7.8,2.665,4.579,4.579,0,0,1-.976,2.545A3.446,3.446,0,0,0,18.667,9.1a3.574,3.574,0,0,0,3.166,3.141,4.81,4.81,0,0,0,3.286-.824,4.31,4.31,0,0,1,3.379-1.3,3.66,3.66,0,0,1,2.646,1.214,4.268,4.268,0,0,1,1.08,3.123c-.006.1-.017.213-.035.334a.379.379,0,1,1-.751-.1c.014-.1.023-.192.027-.275a3.543,3.543,0,0,0-.883-2.564,2.919,2.919,0,0,0-2.109-.968A3.6,3.6,0,0,0,25.6,12,5.535,5.535,0,0,1,21.751,13,4.321,4.321,0,0,1,17.907,9.1a4.173,4.173,0,0,1,.945-2.524,3.834,3.834,0,0,0,.826-2.124,3.533,3.533,0,0,0-6.425-2.188l-.012.016c-.962,1.232-2.052,2.628-3.971,2.925a3.525,3.525,0,0,0-3.115,3.36A4.036,4.036,0,0,0,6.8,10.774a5.237,5.237,0,0,1,.518,4.064.381.381,0,0,1-.367.279" transform="translate(5.069 -0.001)" fill="#ff3600"/>
        <path id="Trazado_89896" data-name="Trazado 89896" d="M24.7,22.859c-.064,0-.13,0-.194,0a4.288,4.288,0,0,1-4.107-4.046,5.047,5.047,0,0,0-3.631-4.14c-2.648-.927-5.783-.394-7.459,1.273a4.292,4.292,0,0,1-7.453-3.1,3.726,3.726,0,0,1,1.276-2.63.38.38,0,0,1,.5.572,2.969,2.969,0,0,0-1.018,2.091,3.543,3.543,0,0,0,3.375,3.693,3.5,3.5,0,0,0,2.762-1.148l.014-.014c1.87-1.866,5.34-2.479,8.254-1.457a5.77,5.77,0,0,1,4.134,4.78l0,.021a3.545,3.545,0,0,0,7.08-.043,4.169,4.169,0,0,0-1.2-2.821c-1.818-1.833-1.887-3.893-.192-5.655a.38.38,0,1,1,.547.528c-.982,1.018-1.748,2.644.184,4.592a4.912,4.912,0,0,1,1.42,3.389A4.306,4.306,0,0,1,24.7,22.859" transform="translate(1.737 9.512)" fill="#ff3600"/>
        <path id="Trazado_89897" data-name="Trazado 89897" d="M21.28,7.9a2.053,2.053,0,0,0-2.052,2.052v1.876h1.558V9.988a1.08,1.08,0,0,1,.145-.566.378.378,0,0,1,.7,0,1.08,1.08,0,0,1,.145.566v1.843h1.558V9.955A2.053,2.053,0,0,0,21.28,7.9" transform="translate(18.071 7.427)" fill="#ff3600"/>
        <path id="Trazado_89898" data-name="Trazado 89898" d="M19.065,10.881c-.274,0-.495-.415-.495-.925s.221-.923.495-.923.495.413.495.923-.221.925-.495.925m0-2.978a2.052,2.052,0,1,0,2.052,2.052A2.053,2.053,0,0,0,19.065,7.9" transform="translate(15.989 7.427)" fill="#ff3600"/>
        <path id="Trazado_89899" data-name="Trazado 89899" d="M16.436,9.588a1.37,1.37,0,0,1,.1-.3.438.438,0,0,1,.349-.272c.138,0,.252.1.353.277a1.165,1.165,0,0,1,.1.295ZM16.888,7.9a2.052,2.052,0,1,0,1.465,3.492,1.792,1.792,0,0,0,.446-1.018H17.41s-.19.485-.522.485a.422.422,0,0,1-.349-.27,1.262,1.262,0,0,1-.128-.421h2.417a2.071,2.071,0,0,0-.495-1.655A1.991,1.991,0,0,0,16.888,7.9" transform="translate(13.943 7.426)" fill="#ff3600"/>
        <path id="Trazado_89900" data-name="Trazado 89900" d="M14.669,11.843c-.274,0-.495-.413-.495-.923s.221-.925.495-.925.495.415.495.925-.221.923-.495.923m2.052-.923,0,0V7.655a.78.78,0,0,0-1.56,0V8.929a2.081,2.081,0,0,0-.495-.06,2.052,2.052,0,0,0-1.451,3.5,2.051,2.051,0,0,0,2.9,0,2.048,2.048,0,0,0,.6-1.451v0" transform="translate(11.858 6.463)" fill="#ff3600"/>
        <path id="Trazado_89901" data-name="Trazado 89901" d="M12.457,10.881c-.274,0-.495-.415-.495-.925s.221-.923.495-.923.495.413.495.923-.221.925-.495.925m0-2.978A2.052,2.052,0,1,0,14.51,9.955,2.053,2.053,0,0,0,12.457,7.9" transform="translate(9.779 7.427)" fill="#ff3600"/>
        <path id="Trazado_89902" data-name="Trazado 89902" d="M10.268,6.877a.777.777,0,0,0-.778.78l0,5.139,1.558,0,0-5.139a.779.779,0,0,0-.78-.778" transform="translate(8.919 6.463)" fill="#ff3600"/>
        <path id="Trazado_89903" data-name="Trazado 89903" d="M8.917,9.588a1.487,1.487,0,0,1,.1-.3.444.444,0,0,1,.351-.272c.138,0,.252.1.353.277a1.348,1.348,0,0,1,.1.295ZM9.369,7.9a2.052,2.052,0,1,0,1.465,3.492,1.8,1.8,0,0,0,.448-1.018H9.893s-.194.485-.524.485a.426.426,0,0,1-.351-.27,1.359,1.359,0,0,1-.128-.421h2.419a2.063,2.063,0,0,0-.495-1.655A2,2,0,0,0,9.369,7.9" transform="translate(6.877 7.426)" fill="#ff3600"/>
        <path id="Trazado_89904" data-name="Trazado 89904" d="M9.328,11.57a.269.269,0,0,0-.041-.142l-.854-1.29.59-1.073a.778.778,0,1,0-1.34-.791L6.977,9.535V8.693a.78.78,0,0,0-1.56,0v3.148h1.56V10.609L7.8,11.841H9.056a.272.272,0,0,0,.272-.272" transform="translate(5.091 7.415)" fill="#ff3600"/>
        <path id="Trazado_89905" data-name="Trazado 89905" d="M5.584,10.61a.429.429,0,0,1-.349.27.424.424,0,0,1-.349-.27,1.537,1.537,0,0,1,0-1.306.424.424,0,0,1,.349-.27.429.429,0,0,1,.349.27,1.268,1.268,0,0,1,.134.46h1.56a2.053,2.053,0,1,0-.712,1.756,2.034,2.034,0,0,0,.712-1.37H5.717a1.279,1.279,0,0,1-.134.46" transform="translate(2.991 7.428)" fill="#ff3600"/>
        <path id="Trazado_89906" data-name="Trazado 89906" d="M3.7,8.359a.866.866,0,1,0-1.224,0l.19.192c.32.318.341.4.039.706l-.175.175a.791.791,0,0,0-.231.557v2.8H3.872v-2.8a.783.783,0,0,0-.231-.557l-.173-.175c-.3-.3-.281-.388.037-.706Z" transform="translate(2.085 6.467)" fill="#ff3600"/>
        <path id="Trazado_89907" data-name="Trazado 89907" d="M2.052,7.9A2.053,2.053,0,0,0,0,9.955v1.876H1.558V9.988A1.08,1.08,0,0,1,1.7,9.422a.423.423,0,0,1,.349-.233.423.423,0,0,1,.349.233,1.08,1.08,0,0,1,.145.566v1.843H4.1V9.955A2.053,2.053,0,0,0,2.052,7.9" transform="translate(0 7.427)" fill="#ff3600"/>
        <path id="Trazado_89908" data-name="Trazado 89908" d="M21.533,9.836h-.078V9.8h.2v.037H21.58v.213h-.047Z" transform="translate(20.165 9.209)" fill="#ff3600"/>
        <path id="Trazado_89909" data-name="Trazado 89909" d="M21.578,9.8h.074l.066.188h0l.066-.188h.072v.25h-.047l0-.215-.078.215H21.7l-.078-.215v.215h-.043Z" transform="translate(20.28 9.208)" fill="#ff3600"/>
      </g>
    </g>
  </g>
</svg>
