<svg xmlns="http://www.w3.org/2000/svg" xmlns:xlink="http://www.w3.org/1999/xlink" width="58" height="58" viewBox="0 0 58 58">
  <defs>
    <linearGradient id="linear-gradient" x1="0.347" y1="1.642" x2="0.561" y2="0.167" gradientUnits="objectBoundingBox">
      <stop offset="0.005" stop-color="#db3436"/>
      <stop offset="1" stop-color="#f5930a"/>
    </linearGradient>
    <linearGradient id="linear-gradient-2" x1="-140.31" y1="-166.94" x2="-139.598" y2="-167.65" gradientUnits="objectBoundingBox">
      <stop offset="0" stop-color="#eb6c14"/>
      <stop offset="0.055" stop-color="#ee7910"/>
      <stop offset="0.142" stop-color="#f2880c"/>
      <stop offset="0.247" stop-color="#f4900a"/>
      <stop offset="0.419" stop-color="#f5930a"/>
      <stop offset="0.622" stop-color="#f59708"/>
      <stop offset="0.86" stop-color="#f8a603"/>
      <stop offset="1" stop-color="#fbb200"/>
    </linearGradient>
  </defs>
  <g id="Grupo_18591" data-name="Grupo 18591" transform="translate(-0.452)">
    <rect id="Rect치ngulo_18106" data-name="Rect치ngulo 18106" width="58" height="58" transform="translate(0.452)" fill="none"/>
    <g id="_280_Once_Ni침os_Color" data-name="280 Once Ni침os Color" transform="translate(29.325 28.911)">
      <g id="Layer_1" data-name="Layer 1" transform="translate(-18.022 -14.129)">
        <g id="Grupo_18480" data-name="Grupo 18480">
          <g id="Grupo_18477" data-name="Grupo 18477">
            <path id="Trazado_40510" data-name="Trazado 40510" d="M36.176,18.9a1.752,1.752,0,0,0-.784-.911,1.145,1.145,0,0,0-.877-1.419,1.148,1.148,0,0,0-.635.049l-1.12.421-.043.018a3.883,3.883,0,0,0-.036-2.728l-1.758-5.5A7.469,7.469,0,0,0,27.3,4.152a6.571,6.571,0,0,0-2.987-.686,8.068,8.068,0,0,0-.971.06,1.147,1.147,0,0,0-.025-.377c-.008-.033-.018-.066-.029-.1A1.155,1.155,0,0,0,23.818,1.8a2.343,2.343,0,0,0-4.243-.735,1.158,1.158,0,0,0-.228-.134,2.345,2.345,0,0,0-3.085,1.216,2.408,2.408,0,0,0-.1.281A2.359,2.359,0,0,0,14.881,2a2.316,2.316,0,0,0-1.01.2,2.287,2.287,0,0,0-.546.337l-.053,0a1.2,1.2,0,0,0-1.23,1.078,2.254,2.254,0,0,0-.482-.066A2.345,2.345,0,0,0,9.994,7.694c-.1.029-.206.059-.309.093a8.488,8.488,0,0,0-4.97,4.185,8.372,8.372,0,0,0-.567,6.467,8.668,8.668,0,0,0,8.185,5.966,8.314,8.314,0,0,0,2.535-.395q.362-.116.711-.267a1.05,1.05,0,0,0-.014.745,1.734,1.734,0,0,0,.448.64l.88.9-.049.244a1.7,1.7,0,0,0-.007.812,1.073,1.073,0,0,0,1.056.785h.033a1.2,1.2,0,0,0,.3-.048,1.181,1.181,0,0,0,.871-1L19.551,24a1.729,1.729,0,0,0,0-.78,1.073,1.073,0,0,0-1.088-.784,1.212,1.212,0,0,0-.306.048,1.158,1.158,0,0,0-.8.727,1.146,1.146,0,0,0-.457-.193,8.684,8.684,0,0,0,2.27-2.265,2.719,2.719,0,0,0,.881.683,2.8,2.8,0,0,0,.409.155l-.032.01a1.2,1.2,0,0,0-.725,1.531,1.205,1.205,0,0,0,.319.482,2.316,2.316,0,0,0,.131.628l.4,1.127a1.146,1.146,0,0,0,1.035.761h.049A1.149,1.149,0,0,0,22.713,24.6l-.4-1.127a.046.046,0,0,1,.029-.063.046.046,0,0,1,.022,0,.046.046,0,0,1,.042.033l.4,1.127a1.147,1.147,0,0,0,2.118.1l0-.006a1.163,1.163,0,0,0,.348.065h.036a1.142,1.142,0,0,0,.984-.562,1.16,1.16,0,0,0,.28.049h.05a1.149,1.149,0,0,0,1.087-1.511l-.378-1.135a.049.049,0,0,1,0-.038.046.046,0,0,1,.029-.023.052.052,0,0,1,.02,0,.046.046,0,0,1,.042.035l.379,1.135a1.155,1.155,0,0,0,1.041.784,1.142,1.142,0,0,0,1.073-.633,1.156,1.156,0,0,0,.1-.274,2.339,2.339,0,0,0,.853.176H30.9a2.338,2.338,0,0,0,2.01-1.144,1.157,1.157,0,0,0,.3.107h0a1.151,1.151,0,0,0,.233.024,1.136,1.136,0,0,0,.4-.073l1.307-.491a1.751,1.751,0,0,0,1.021-2.25ZM12.14,20.043a4.074,4.074,0,0,1-2.375-.756,4.142,4.142,0,0,1-.852-.811,4.062,4.062,0,0,1-.881-2.541,4.107,4.107,0,1,1,4.108,4.108Zm10.976,1.195.023-.014.01.025Zm4.25-3.126a1.034,1.034,0,0,0-.381.053,1.062,1.062,0,0,0-.408.252l-.076-.006a1.2,1.2,0,0,0-.427.057,1.6,1.6,0,0,0-.957.853,1.051,1.051,0,0,0-.109.525,1.184,1.184,0,0,0-.482-.238,3.9,3.9,0,0,0-.036-2.66L22.72,11.4a.923.923,0,0,1,.117-.686.937.937,0,0,1,.563-.461,1.054,1.054,0,0,1,.325-.054.991.991,0,0,1,.925.7l1.739,5.443a4.482,4.482,0,0,0,.98,1.768Z" transform="translate(-0.244 0)" fill="#761852"/>
            <path id="Trazado_40511" data-name="Trazado 40511" d="M31.923,14.893l-1.758-5.5A6.614,6.614,0,0,0,26.976,5.22a6.8,6.8,0,0,0-5.267-.14,7.191,7.191,0,0,0-1.273.549,4.881,4.881,0,0,0-1.115.843,2.171,2.171,0,0,0-1.666-.1,2.55,2.55,0,0,0-1.489,1.151,2.5,2.5,0,0,0-.122,1.95A7.538,7.538,0,0,0,10.006,8.9a7.649,7.649,0,0,0-4.979,9.573,7.742,7.742,0,0,0,9.641,5.016,7.675,7.675,0,0,0,4.542-4.134,2.855,2.855,0,0,0,1.264,1.6,2.436,2.436,0,0,0,1.847.014,2.3,2.3,0,0,0,1.38-1.194,2.916,2.916,0,0,0,.031-2.271l-1.783-5.584a1.857,1.857,0,0,1,3.578-.986l1.738,5.443a2.851,2.851,0,0,0,1.346,1.848,2.493,2.493,0,0,0,1.891.1,2.365,2.365,0,0,0,1.409-1.157A2.892,2.892,0,0,0,31.923,14.893ZM17.073,16.28a4.873,4.873,0,0,1-3.379,4.652,4.8,4.8,0,0,1-2.611.093l-.01,0A4.9,4.9,0,0,1,9.2,12.371l.051-.04a4.845,4.845,0,0,1,5.871.009c.027.021.054.041.08.063s.061.048.09.072l.113.1c.048.042.094.086.14.13l.094.092,0,0c.034.034.066.067.1.1s.065.069.1.106a4.857,4.857,0,0,1,1.22,2.839v0c0,.05.008.1.011.15s.006.126.007.19c0,.023,0,.047,0,.069Z" transform="translate(-0.304 -0.3)" fill="url(#linear-gradient)"/>
            <path id="Trazado_40512" data-name="Trazado 40512" d="M14.693,26.558a1.144,1.144,0,0,0-.831-1.862l-1.2-.065a1.647,1.647,0,0,0-.166,0,1.714,1.714,0,0,0-.788.229,1.228,1.228,0,0,0-.829-.406,2.329,2.329,0,0,0-1.792-.727c-.031,0-.064,0-.1.007a1.048,1.048,0,0,0-.5-1.706,1.2,1.2,0,0,0-.294-.412,1.6,1.6,0,0,0-1.217-.41H6.955a1.14,1.14,0,0,0-.2.035,1.194,1.194,0,0,0-1.634-1.257,2.323,2.323,0,0,0-.731-1.914,1.2,1.2,0,0,0-2.224-.552,2.3,2.3,0,0,0-.59.253l-1.025.618a1.148,1.148,0,0,0,1.187,1.965l1.025-.618a.057.057,0,0,1,.024-.008.046.046,0,0,1,.042.025.046.046,0,0,1,.007.037.052.052,0,0,1-.023.03l-1.025.618a1.146,1.146,0,0,0,.266,2.081,1.053,1.053,0,0,0-.041.177,1.144,1.144,0,0,0,1.134,1.32H3.2a1.159,1.159,0,0,0,.181-.022,1.165,1.165,0,0,0-.06.434,1.137,1.137,0,0,0,.379.793,1.15,1.15,0,0,0,1.621-.087l.8-.89a.045.045,0,0,1,.033-.017.047.047,0,0,1,.036.013.049.049,0,0,1,.017.034.047.047,0,0,1-.013.036l-.8.89a1.151,1.151,0,0,0,.086,1.621,1.153,1.153,0,0,0,.768.293l.09,0h0a1.15,1.15,0,0,0,.64-.257,2.36,2.36,0,0,0,1.846,1.533,1.24,1.24,0,0,0,1.082.639l.05,0h0a1.236,1.236,0,0,0,.872-.418,1.148,1.148,0,0,0,.984.675l1.4.077.094,0h.072a1.746,1.746,0,0,0,1.318-2.8Z" transform="translate(0 -1.1)" fill="#761852"/>
            <g id="Grupo_18473" data-name="Grupo 18473" transform="translate(9.087 13.268)">
              <g id="Grupo_18471" data-name="Grupo 18471">
                <g id="Grupo_18470" data-name="Grupo 18470">
                  <path id="Trazado_40513" data-name="Trazado 40513" d="M15.679,15.945a1.432,1.432,0,0,1-.191,1.229,12.049,12.049,0,0,1-2.508,2.677,1.42,1.42,0,0,1-.467.244l0,0a1.44,1.44,0,0,1-1.713-.756A12.087,12.087,0,0,1,9.733,15.83a1.437,1.437,0,0,1,1-1.577h0l.026-.008a1.432,1.432,0,0,1,.5-.05,11.972,11.972,0,0,1,3.575.835A1.431,1.431,0,0,1,15.679,15.945Z" transform="translate(-9.718 -14.189)" fill="#761852"/>
                </g>
              </g>
              <g id="Grupo_18472" data-name="Grupo 18472" transform="translate(0.547 0.53)">
                <path id="Trazado_40514" data-name="Trazado 40514" d="M15.22,16.133a.9.9,0,0,1-.12.772,11.517,11.517,0,0,1-2.4,2.558.9.9,0,0,1-1.374-.321,11.484,11.484,0,0,1-1.016-3.355.9.9,0,0,1,.628-.993h0a.916.916,0,0,1,.331-.036,11.426,11.426,0,0,1,3.416.8A.9.9,0,0,1,15.22,16.133Z" transform="translate(-10.304 -14.756)" fill="url(#linear-gradient-2)"/>
              </g>
            </g>
            <g id="Grupo_18474" data-name="Grupo 18474" transform="translate(9.645 0.749)">
              <path id="Trazado_40515" data-name="Trazado 40515" d="M12.524,4.708a1.6,1.6,0,1,1-2.086.861A1.6,1.6,0,0,1,12.524,4.708ZM11.6,6.918a.8.8,0,1,0-.43-1.043A.8.8,0,0,0,11.6,6.918Z" transform="translate(-10.316 -1.047)" fill="#ffe500"/>
              <path id="Trazado_40516" data-name="Trazado 40516" d="M19.9,4.67a1.6,1.6,0,1,1,.052-2.949.413.413,0,0,1,.212.218.406.406,0,0,1-.224.518.377.377,0,0,1-.3-.007.771.771,0,0,0-.612-.007.8.8,0,0,0,.585,1.485.809.809,0,0,0,.443-.423.4.4,0,0,1,.218-.213.41.41,0,0,1,.517.225.4.4,0,0,1-.007.3A1.6,1.6,0,0,1,19.9,4.67Z" transform="translate(-10.797 -0.852)" fill="#ffe500"/>
              <path id="Trazado_40517" data-name="Trazado 40517" d="M13.682,3.506a.438.438,0,0,1,.476.078,1.634,1.634,0,0,1,.641-.512,1.6,1.6,0,0,1,2.1.822l.481,1.1a.4.4,0,0,1-.731.321l-.481-1.1a.8.8,0,1,0-1.461.641l.481,1.1a.4.4,0,1,1-.731.321l-.48-1.1a1.512,1.512,0,0,1-.122-.8.457.457,0,0,1-.4-.272A.447.447,0,0,1,13.682,3.506Z" transform="translate(-10.517 -0.94)" fill="#ffe500"/>
              <path id="Trazado_40518" data-name="Trazado 40518" d="M23.033,3.949a1.6,1.6,0,1,1,1.181-1.923.4.4,0,0,1-.3.481l-1.837.439a.787.787,0,0,0,.766.227l.388-.093a.4.4,0,1,1,.185.776ZM21.9,2.17l1.346-.322a.805.805,0,0,0-.766-.227A.8.8,0,0,0,21.9,2.17Z" transform="translate(-11.014 -0.801)" fill="#ffe500"/>
            </g>
            <g id="Grupo_18475" data-name="Grupo 18475" transform="translate(0.749 16.586)">
              <path id="Trazado_40519" data-name="Trazado 40519" d="M11.509,25.761a.481.481,0,0,0-.423.022,1.6,1.6,0,1,0-1.2,2.4l.085-.012a.485.485,0,0,0,.91.335l.889-2.107A.485.485,0,0,0,11.509,25.761ZM9.8,27.386a.8.8,0,1,1,.707-.879A.795.795,0,0,1,9.8,27.386Z" transform="translate(-1.277 -18.209)" fill="#ffe500"/>
              <path id="Trazado_40520" data-name="Trazado 40520" d="M6.124,21.086a.448.448,0,1,1-.627-.1A.446.446,0,0,1,6.124,21.086ZM3.578,23.449a.4.4,0,1,1-.473-.643l1.578-1.154a.4.4,0,0,1,.473.642Z" transform="translate(-0.94 -17.943)" fill="#ffe500"/>
              <path id="Trazado_40521" data-name="Trazado 40521" d="M6.648,22.6a.44.44,0,0,1,.126.466,1.648,1.648,0,0,1,.731.372,1.6,1.6,0,0,1,.121,2.253l-.8.89a.4.4,0,0,1-.594-.533l.8-.89a.8.8,0,1,0-1.187-1.067l-.8.89a.4.4,0,0,1-.594-.533l.8-.89a1.526,1.526,0,0,1,.683-.443.457.457,0,0,1,.08-.482A.448.448,0,0,1,6.648,22.6Zm.687.3a.307.307,0,0,1-.216-.078A.3.3,0,0,1,7.1,22.4a.3.3,0,0,1,.207-.1.871.871,0,0,1,.674.22c.163.146.159.411.256.5a.274.274,0,0,0,.242.066.3.3,0,0,1,.216.077.3.3,0,0,1,.022.423.3.3,0,0,1-.207.1.866.866,0,0,1-.674-.221c-.162-.145-.159-.41-.256-.5A.27.27,0,0,0,7.336,22.9Z" transform="translate(-1.032 -18.034)" fill="#ffe500"/>
              <path id="Trazado_40522" data-name="Trazado 40522" d="M14.09,28.4a.2.2,0,0,0,.022-.4l-.8-.043a1,1,0,0,1,.108-1.992l1.195.065a.4.4,0,0,1-.043.8l-1.2-.065a.2.2,0,0,0-.022.4l.8.043a1,1,0,0,1-.108,1.993l-1.394-.077a.4.4,0,0,1,.043-.8Z" transform="translate(-1.547 -18.272)" fill="#ffe500"/>
              <path id="Trazado_40523" data-name="Trazado 40523" d="M3.634,17.955a.442.442,0,0,1-.015.482,1.641,1.641,0,0,1,.59.569A1.6,1.6,0,0,1,3.667,21.2l-1.024.618a.4.4,0,1,1-.412-.683l1.025-.619a.8.8,0,0,0-.825-1.366l-1.025.618a.4.4,0,1,1-.412-.683l1.025-.619A1.529,1.529,0,0,1,2.8,18.24a.458.458,0,0,1,.218-.438A.448.448,0,0,1,3.634,17.955Z" transform="translate(-0.801 -17.738)" fill="#ffe500"/>
            </g>
            <g id="Grupo_18476" data-name="Grupo 18476" transform="translate(20.135 17.203)">
              <path id="Trazado_40524" data-name="Trazado 40524" d="M25.483,21.766a.448.448,0,1,1-.261.579A.446.446,0,0,1,25.483,21.766Zm1.591,3.087a.4.4,0,1,1-.746.283l-.687-1.831a.4.4,0,1,1,.745-.283Z" transform="translate(-21.772 -18.615)" fill="#ffe500"/>
              <path id="Trazado_40525" data-name="Trazado 40525" d="M36.572,20.8a.2.2,0,0,0-.146-.372l-.742.292a1,1,0,0,1-.729-1.857l1.115-.438a.4.4,0,0,1,.292.743l-1.115.438a.2.2,0,0,0,.146.371l.742-.292a1,1,0,1,1,.729,1.857l-1.3.511a.4.4,0,0,1-.292-.743Z" transform="translate(-22.365 -18.398)" fill="#ffe500"/>
              <path id="Trazado_40526" data-name="Trazado 40526" d="M21.832,23.827a.441.441,0,0,1,.469.11,1.635,1.635,0,0,1,.674-.466,1.6,1.6,0,0,1,2.04.967l.4,1.127a.4.4,0,0,1-.752.268l-.4-1.127a.8.8,0,1,0-1.5.537l.4,1.127a.4.4,0,0,1-.752.268l-.4-1.127a1.533,1.533,0,0,1-.065-.812.456.456,0,0,1-.385-.3A.448.448,0,0,1,21.832,23.827Z" transform="translate(-21.534 -18.722)" fill="#ffe500"/>
              <path id="Trazado_40527" data-name="Trazado 40527" d="M27.229,21.684a.439.439,0,0,1,.468.121,1.639,1.639,0,0,1,.684-.452,1.6,1.6,0,0,1,2.019,1.01l.378,1.135a.4.4,0,1,1-.756.252l-.379-1.135a.8.8,0,1,0-1.514.5l.378,1.135a.4.4,0,1,1-.756.252l-.379-1.135a1.52,1.52,0,0,1-.047-.813.455.455,0,0,1-.379-.308A.447.447,0,0,1,27.229,21.684Zm.6-.45a.307.307,0,0,1-.174.15.3.3,0,0,1-.379-.189.3.3,0,0,1,.016-.229.871.871,0,0,1,.525-.477c.207-.069.436.065.56.024.1-.034.13-.083.178-.178a.305.305,0,0,1,.173-.15.3.3,0,0,1,.379.189.3.3,0,0,1-.016.229.869.869,0,0,1-.525.477c-.207.068-.436-.065-.56-.023C27.906,21.09,27.876,21.14,27.829,21.234Z" transform="translate(-21.884 -18.513)" fill="#ffe500"/>
              <path id="Trazado_40528" data-name="Trazado 40528" d="M32.128,20.191a1.6,1.6,0,1,1-.951,2.047A1.6,1.6,0,0,1,32.128,20.191Zm.822,2.248a.8.8,0,1,0-1.023-.475A.8.8,0,0,0,32.95,22.439Z" transform="translate(-22.154 -18.508)" fill="#ffe500"/>
            </g>
          </g>
          <g id="Grupo_18479" data-name="Grupo 18479" transform="translate(16.01 23.187)">
            <g id="Grupo_18478" data-name="Grupo 18478">
              <path id="Trazado_40529" data-name="Trazado 40529" d="M18.573,27.394l-1.156-1.179a1.135,1.135,0,0,1-.276-.362.366.366,0,0,1,.268-.457.411.411,0,0,1,.492.138l.83.915.16-1.231a.426.426,0,0,1,.332-.4.355.355,0,0,1,.473.223,1.139,1.139,0,0,1-.017.454l-.449,2.812a.436.436,0,0,1-.332.4.355.355,0,0,1-.473-.223,1.047,1.047,0,0,1,.022-.456Z" transform="translate(-17.122 -24.797)" fill="#ffe500"/>
            </g>
          </g>
        </g>
      </g>
    </g>
  </g>
</svg>
