<svg xmlns="http://www.w3.org/2000/svg" xmlns:xlink="http://www.w3.org/1999/xlink" width="86" height="84" viewBox="0 0 86 84">
  <defs>
    <filter id="Rect치ngulo_18264" x="0" y="0" width="86" height="84" filterUnits="userSpaceOnUse">
      <feOffset dy="3" input="SourceAlpha"/>
      <feGaussianBlur stdDeviation="3" result="blur"/>
      <feFlood flood-opacity="0.161"/>
      <feComposite operator="in" in2="blur"/>
      <feComposite in="SourceGraphic"/>
    </filter>
  </defs>
  <g id="outdoors" transform="translate(-784 -1112)">
    <g transform="matrix(1, 0, 0, 1, 784, 1112)" filter="url(#Rect치ngulo_18264)">
      <rect id="Rect치ngulo_18264-2" data-name="Rect치ngulo 18264" width="68" height="66" rx="10" transform="translate(9 6)" fill="#f7fcfe"/>
    </g>
    <g id="Grupo_19231" data-name="Grupo 19231" transform="translate(801 1138)">
      <path id="Trazado_38571" data-name="Trazado 38571" d="M253.484,880.56a4.866,4.866,0,0,1,4.323,2.319,4.593,4.593,0,0,1-2.473,6.731,5.065,5.065,0,0,1-5.447-1.045,4.6,4.6,0,0,1,1.585-7.627,5.433,5.433,0,0,1,2.011-.378m-2.247,4.755a4.2,4.2,0,0,0,.087.572,2.164,2.164,0,0,0,1.643,1.667,2.064,2.064,0,0,0,2.184-.693,2.461,2.461,0,0,0,.508-2.039,2.238,2.238,0,0,0-3.238-1.686,2.3,2.3,0,0,0-1.184,2.179" transform="translate(-248.464 -869.33)" fill="#221e1f"/>
      <path id="Trazado_38572" data-name="Trazado 38572" d="M289.619,889.641v-.484a.985.985,0,0,0-.132.06,3.254,3.254,0,0,1-5.081-1.989,4.109,4.109,0,0,1,.327-3,3.233,3.233,0,0,1,4.654-1.189l.209.137v-.991h-.428v-1.951h2.924V887.7l.454.022v1.924Zm-2.862-3.462c.005.06.008.174.024.287a1.456,1.456,0,0,0,1.317,1.276,1.392,1.392,0,0,0,1.435-1.034,1.81,1.81,0,0,0-.062-1.272,1.38,1.38,0,0,0-2.113-.583,1.575,1.575,0,0,0-.6,1.326" transform="translate(-261.803 -869.211)" fill="#221e1f"/>
      <path id="Trazado_38573" data-name="Trazado 38573" d="M269.6,886.059h-.442v-1.941h2.926v5.022l.442.022v1.925h-2.914v-.513c-.1.063-.168.105-.234.149a3.274,3.274,0,0,1-2.468.49,2.2,2.2,0,0,1-1.776-2.177c-.04-.89-.016-1.782-.019-2.673,0-.09,0-.179,0-.29h-.439v-1.954h2.921c0,.1,0,.177,0,.26,0,1.181,0,2.362,0,3.542a1.059,1.059,0,0,0,.814,1.119.986.986,0,0,0,1.183-.937c.031-.668.007-1.338.007-2.044" transform="translate(-254.504 -870.656)" fill="#221e1f"/>
      <path id="Trazado_38574" data-name="Trazado 38574" d="M301.14,883.823a3.877,3.877,0,0,1,3.737,2.171,3.605,3.605,0,0,1-2.458,5.021,3.971,3.971,0,0,1-3.874-.9,3.588,3.588,0,0,1,1.381-6.033,9,9,0,0,1,1.214-.258m.154,2.117a1.45,1.45,0,0,0-1.454,1.543,1.505,1.505,0,0,0,1.481,1.584,1.455,1.455,0,0,0,1.465-1.557,1.5,1.5,0,0,0-1.493-1.57" transform="translate(-266.702 -870.546)" fill="#221e1f"/>
      <path id="Trazado_38575" data-name="Trazado 38575" d="M318.053,887.5a3.686,3.686,0,0,1-3.245,3.629,4.022,4.022,0,0,1-3.376-.962,3.565,3.565,0,0,1,.073-5.349,4.124,4.124,0,0,1,5.834.534,3.49,3.49,0,0,1,.713,2.148m-5.366-.013a1.51,1.51,0,0,0,1.471,1.595,1.456,1.456,0,0,0,1.477-1.547,1.505,1.505,0,0,0-1.483-1.582,1.45,1.45,0,0,0-1.465,1.533" transform="translate(-271.489 -870.556)" fill="#221e1f"/>
      <path id="Trazado_38576" data-name="Trazado 38576" d="M280.437,881.311v1.739h1.018v2h-1c-.006.083-.015.147-.015.213q0,1.13,0,2.262c0,.367.162.528.527.533.159,0,.317,0,.491,0v1.959a12.233,12.233,0,0,1-1.872-.018,2.056,2.056,0,0,1-1.631-2.018q0-1.325,0-2.65v-.271h-.892V883.07h.885v-1.759Z" transform="translate(-259.12 -869.61)" fill="#221e1f"/>
      <path id="Trazado_38577" data-name="Trazado 38577" d="M327.986,883.946v2.571a2.326,2.326,0,0,0-1.882.823,2.571,2.571,0,0,0-.317,1.734l.441.028v1.924H322.85V889.1h.42v-3.087l-.427-.025v-1.919h2.934v.669c.354-.2.683-.411,1.036-.575a2.543,2.543,0,0,1,1.174-.213" transform="translate(-276.177 -870.591)" fill="#221e1f"/>
      <path id="Trazado_38578" data-name="Trazado 38578" d="M311.489,901.333h-.373v-3.185a.437.437,0,0,1,.518.177c.553.718,1.126,1.419,1.691,2.126.046.057.094.111.177.209v-2.518h.362v3.171a.338.338,0,0,1-.435-.14c-.629-.8-1.268-1.593-1.939-2.433Z" transform="translate(-271.808 -875.875)" fill="#221e1f"/>
      <path id="Trazado_38579" data-name="Trazado 38579" d="M319.28,900.65v-2.511h.364v3.178a.349.349,0,0,1-.431-.144c-.59-.756-1.2-1.5-1.8-2.249-.036-.045-.075-.087-.144-.166v2.564h-.362v-3.173a.4.4,0,0,1,.485.152c.575.74,1.164,1.467,1.749,2.2.031.039.066.075.134.151" transform="translate(-273.968 -875.874)" fill="#221e1f"/>
      <path id="Trazado_38580" data-name="Trazado 38580" d="M322.682,898.146h2.345v.327h-1.966v1.071H324.8v.352h-1.74v1.11h1.976v.327h-2.357Z" transform="translate(-276.117 -875.883)" fill="#221e1f"/>
      <path id="Trazado_38581" data-name="Trazado 38581" d="M300.162,899.546h1.867v-1.4h.37v3.188h-.366v-1.41h-1.865v1.41H299.8V898.15h.36Z" transform="translate(-267.593 -875.883)" fill="#221e1f"/>
      <path id="Trazado_38582" data-name="Trazado 38582" d="M296.8,898.782c-.833-.526-1.5-.513-1.957.063a1.4,1.4,0,0,0,.093,1.818,1.349,1.349,0,0,0,1.925-.1l.234.224a1.675,1.675,0,1,1-2.508-2.219,1.761,1.761,0,0,1,2.5,0l-.29.216" transform="translate(-265.49 -875.844)" fill="#221e1f"/>
      <path id="Trazado_38583" data-name="Trazado 38583" d="M327.566,898.142h.356v2.845h1.828v.349h-2.183Z" transform="translate(-277.937 -875.881)" fill="#221e1f"/>
      <path id="Trazado_38584" data-name="Trazado 38584" d="M264.924,877.322l6.155-6.14,0,0-6.144,6.152Z" transform="translate(-254.597 -865.836)" fill="#221e1f"/>
      <path id="Trazado_38585" data-name="Trazado 38585" d="M275.633,869.9l-.5.539.528-.52Z" transform="translate(-258.4 -865.358)" fill="#221e1f"/>
      <path id="Trazado_38586" data-name="Trazado 38586" d="M264.3,874.317l11.7-7.267,8.639,4.251-8.593-8.639Z" transform="translate(-254.366 -862.661)" fill="#7cb142"/>
      <path id="Trazado_38587" data-name="Trazado 38587" d="M307.823,901.314l.385.005-.026-.058a.082.082,0,0,0-.005-.017c-.462-1.01-.923-2.02-1.4-3.024a.317.317,0,0,0-.248-.12.289.289,0,0,0-.217.135c-.217.454-.427.911-.636,1.369l-.279.609-.5,1.093h0l-.006.014.385-.005.372-.812h.655c.1,0,.193,0,.289,0h.858Zm-1.277-2.771.718,1.586h-1.437l.719-1.586" transform="translate(-269.49 -875.866)" fill="#221e1f"/>
    </g>
  </g>
</svg>
