<svg xmlns="http://www.w3.org/2000/svg" xmlns:xlink="http://www.w3.org/1999/xlink" width="85" height="84" viewBox="0 0 85 84">
  <defs>
    <filter id="Rectángulo_18073" x="0" y="0" width="85" height="84" filterUnits="userSpaceOnUse">
      <feOffset dy="3" input="SourceAlpha"/>
      <feGaussianBlur stdDeviation="3" result="blur"/>
      <feFlood flood-opacity="0.161"/>
      <feComposite operator="in" in2="blur"/>
      <feComposite in="SourceGraphic"/>
    </filter>
  </defs>
  <g id="Grupo_18818" data-name="Grupo 18818" transform="translate(-961 -1410)">
    <g transform="matrix(1, 0, 0, 1, 961, 1410)" filter="url(#Rectángulo_18073)">
      <rect id="Rectángulo_18073-2" data-name="Rectángulo 18073" width="67" height="66" rx="10" transform="translate(9 6)" fill="#fff"/>
    </g>
    <g id="Grupo_18223" data-name="Grupo 18223" transform="translate(984 1429)">
      <path id="Trazado_432" data-name="Trazado 432" d="M354.974,112.137l-.413.987-1.058-.114.8.7-.429.968.909-.545.794.7-.243-1.03.92-.541-1.06-.083Z" transform="translate(-333.184 -112.137)" fill="#0d0e0e"/>
      <path id="Trazado_433" data-name="Trazado 433" d="M356.5,113.474l-.027-1.07-.588.894-1.019-.307.662.838-.6.872.994-.369.65.837-.05-1.057,1-.363Z" transform="translate(-331.032 -111.715)" fill="#0d0e0e"/>
      <path id="Trazado_434" data-name="Trazado 434" d="M357.119,114.72l.482.945.15-1.048,1.055-.168-.957-.465.174-1.056-.745.768-.943-.493.493.948-.753.743Z" transform="translate(-329.123 -110.887)" fill="#0d0e0e"/>
      <path id="Trazado_435" data-name="Trazado 435" d="M358.568,114.337l-.836-.659.31,1.022-.877.593,1.06.02.3,1.017.339-1,1.068.029-.856-.633.365-1.006Z" transform="translate(-327.398 -109.702)" fill="#0d0e0e"/>
      <path id="Trazado_436" data-name="Trazado 436" d="M359.162,116.227l.1,1.055.521-.92,1.043.229-.722-.782.548-.92-.974.443-.7-.8.112,1.062-.972.418Z" transform="translate(-325.881 -108.358)" fill="#0d0e0e"/>
      <path id="Trazado_437" data-name="Trazado 437" d="M359.949,116.634l-1.033.232.979.406-.091,1.056.681-.809.983.417-.565-.9.707-.8-1.039.257-.538-.918Z" transform="translate(-324.629 -106.714)" fill="#0d0e0e"/>
      <path id="Trazado_438" data-name="Trazado 438" d="M360.935,118.756l.887.594-.386-.992.846-.656-1.069.056-.356-1-.283,1.03-1.057.033.886.583-.289,1.021Z" transform="translate(-323.682 -104.84)" fill="#0d0e0e"/>
      <path id="Trazado_439" data-name="Trazado 439" d="M361.579,119.1l-.166-1.052-.467.961-1.046-.162.763.736-.471.95.93-.5.763.747-.2-1.046.951-.489Z" transform="translate(-323.076 -102.794)" fill="#0d0e0e"/>
      <path id="Trazado_440" data-name="Trazado 440" d="M361.078,120.259l-1-.353.613.865-.639.846,1.007-.323.612.876v-1.065l1.025-.3-1.016-.336.032-1.064Z" transform="translate(-322.831 -100.657)" fill="#0d0e0e"/>
      <path id="Trazado_441" data-name="Trazado 441" d="M361.67,121.813l.227-1.04-.783.725-.916-.53.445.963-.783.714,1.05-.132.439.973.2-1.046,1.064-.111Z" transform="translate(-323.141 -98.492)" fill="#0d0e0e"/>
      <path id="Trazado_442" data-name="Trazado 442" d="M360.885,122.753l-.8-.693.256,1.029-.9.554,1.056.067.249,1.039.389-.991,1.066.091-.823-.683.418-.979Z" transform="translate(-323.808 -96.457)" fill="#0d0e0e"/>
      <path id="Trazado_443" data-name="Trazado 443" d="M353.421,112.137l-.224,1.047-1.06.083.92.541-.243,1.03.793-.7.91.545-.429-.968.8-.7-1.058.114Z" transform="translate(-335.343 -112.137)" fill="#0d0e0e"/>
      <path id="Trazado_444" data-name="Trazado 444" d="M351.816,114.114l-.05,1.057.65-.837.994.369-.6-.872.662-.838-1.018.307-.588-.894-.028,1.07-1.027.277Z" transform="translate(-337.437 -111.715)" fill="#0d0e0e"/>
      <path id="Trazado_445" data-name="Trazado 445" d="M350.631,114.617l.15,1.048.482-.945,1.046.175-.753-.744.493-.947-.943.493-.745-.768.174,1.056-.957.465Z" transform="translate(-339.389 -110.887)" fill="#0d0e0e"/>
      <path id="Trazado_446" data-name="Trazado 446" d="M349.538,115.328l.339,1,.3-1.017,1.06-.02-.877-.592.311-1.022-.836.658-.874-.618.365,1.006-.855.632Z" transform="translate(-341.136 -109.702)" fill="#0d0e0e"/>
      <path id="Trazado_447" data-name="Trazado 447" d="M348.578,116.362l.521.92.1-1.055,1.037-.219-.972-.418.113-1.062-.7.8-.974-.443.547.92-.721.782Z" transform="translate(-342.614 -108.358)" fill="#0d0e0e"/>
      <path id="Trazado_448" data-name="Trazado 448" d="M348.324,115.57l-.538.918-1.039-.257.707.8-.565.9.983-.417.682.809-.092-1.056.979-.406-1.032-.232Z" transform="translate(-343.86 -106.713)" fill="#0d0e0e"/>
      <path id="Trazado_449" data-name="Trazado 449" d="M347.466,118.756l.821.667L348,118.4l.886-.583-1.058-.033-.283-1.03-.356,1-1.069-.056.846.656-.386.992Z" transform="translate(-344.851 -104.84)" fill="#0d0e0e"/>
      <path id="Trazado_450" data-name="Trazado 450" d="M346.806,119.1l-1.06.141.951.49-.2,1.046.762-.748.93.5-.471-.95.763-.736-1.046.161-.467-.961Z" transform="translate(-345.441 -102.793)" fill="#0d0e0e"/>
      <path id="Trazado_451" data-name="Trazado 451" d="M346.644,120.466l-1.016.336,1.026.3v1.065l.611-.876,1.007.323-.639-.846.614-.865-1,.353-.637-.857Z" transform="translate(-345.628 -100.657)" fill="#0d0e0e"/>
      <path id="Trazado_452" data-name="Trazado 452" d="M346.721,121.813l-.937.516,1.064.111.2,1.046.439-.973,1.049.132-.783-.714.444-.963-.916.531-.783-.726Z" transform="translate(-345.381 -98.492)" fill="#0d0e0e"/>
      <path id="Trazado_453" data-name="Trazado 453" d="M347.268,123.759l.389.991.249-1.039,1.056-.067-.9-.554.256-1.03-.8.693-.906-.565.418.979-.824.683Z" transform="translate(-344.721 -96.458)" fill="#0d0e0e"/>
      <path id="Trazado_454" data-name="Trazado 454" d="M364.936,128.215c-.2.284-.372.364-.521.364-.2,0-.266-.17-.24-.423a5.619,5.619,0,0,1,.913-2.162c.23-.323.39-.454.56-.454s.23.147.224.33a5.806,5.806,0,0,1-.937,2.345m-8.909.108c-.129,0-.214-.041-.219-.209a4.035,4.035,0,0,1,.826-1.84,1.588,1.588,0,0,1,1.179-.748l-.565,1.264h0c-.426.968-.867,1.533-1.22,1.533m-5.54,0c-.129,0-.214-.041-.219-.209a4.016,4.016,0,0,1,.828-1.84,1.58,1.58,0,0,1,1.177-.748l-.565,1.264c-.421.955-.882,1.533-1.22,1.533m24.191-1.793c.2-.444.387-.875.423-.96h.583l.119-.268h-.581l.55-1.251h-.888l-.206.464-.346.787h-.415l-.124.268h.426l-.513,1.148c-.369.808-.952,1.6-1.285,1.6-.072,0-.116-.034-.116-.108a.939.939,0,0,1,.106-.346c.106-.248.276-.6.4-.857a4.284,4.284,0,0,0,.48-1.257.5.5,0,0,0-.55-.521,1.621,1.621,0,0,0-1.117.6l.222-.537h-.841l-.684,1.553c-.271.552-.831,1.466-1.177,1.466-.072,0-.1-.044-.1-.116a.562.562,0,0,1,.049-.188l.441-1.022.738-1.7h-.9l-.717,1.654c-.227.511-.79,1.375-1.148,1.375a.112.112,0,0,1-.121-.129,1.289,1.289,0,0,1,.119-.374l.377-.828h0l.779-1.7h-.9l-.175.384h0a.872.872,0,0,1-.71.562.312.312,0,0,1-.292-.134.881.881,0,0,0-.947-.877,1.929,1.929,0,0,0-1.62.973,4.631,4.631,0,0,0-.529,1.184c-.32.521-.655.931-.916.931-.067,0-.108-.039-.108-.126a1.231,1.231,0,0,1,.119-.364l.583-1.246a2.467,2.467,0,0,0,.276-.888.451.451,0,0,0-.49-.462,1.76,1.76,0,0,0-1.246.648.9.9,0,0,0,.018-.2.4.4,0,0,0-.457-.451,1.593,1.593,0,0,0-1.146.65l.24-.583h-.821l-.689,1.553c-.328.733-.851,1.466-1.151,1.466-.07,0-.108-.036-.108-.124a2.493,2.493,0,0,1,.214-.63l.911-2.072c.067-.155-.369-.253-.926-.253a2.627,2.627,0,0,0-1.587.642,1.413,1.413,0,0,1-.64.377c-.057,0-.083-.031-.083-.067,0-.126.3-.482.3-.753,0-.124-.067-.206-.235-.206a1.616,1.616,0,0,0-1,.64l.24-.573H354l-.686,1.553c-.328.733-.867,1.5-1.166,1.5-.07,0-.108-.036-.108-.126a2.531,2.531,0,0,1,.23-.66l.911-2.072c.067-.155-.369-.253-.926-.253a2.78,2.78,0,0,0-2.049,1.125,3.4,3.4,0,0,0-.792,1.8.611.611,0,0,0,.661.7,1.58,1.58,0,0,0,1.133-.691,1.222,1.222,0,0,0-.028.178c0,.3.119.513.477.513a1.638,1.638,0,0,0,1.089-.694l-.279.632h.869l.852-1.935c.279-.63.6-.957.689-.957.028,0,.039.013.039.036,0,.067-.129.243-.129.41s.09.284.325.284a1.158,1.158,0,0,0,.578-.206,3.293,3.293,0,0,0-.735,1.731.611.611,0,0,0,.661.7,1.712,1.712,0,0,0,1.14-.738,1.628,1.628,0,0,0-.018.2.485.485,0,0,0,.5.534c.366,0,.671-.232,1.04-.684l-.273.622h.89l.813-1.85c.354-.805.836-1.231,1.073-1.231a.108.108,0,0,1,.119.121.765.765,0,0,1-.072.261l-1.192,2.7.913,0,.831-1.884c.356-.8.753-1.2,1.048-1.2.088,0,.126.044.126.142a.772.772,0,0,1-.085.294l-.8,1.705a1.4,1.4,0,0,0-.132.519c0,.258.142.49.542.49.516,0,.913-.392,1.357-.983v.126a.879.879,0,0,0,.986.875,2.137,2.137,0,0,0,1.876-1.463,3.2,3.2,0,0,0,.289-1,.641.641,0,0,0,.292.064.825.825,0,0,0,.384-.1l-.142.31c-.163.341-.346.722-.48,1.037a1.711,1.711,0,0,0-.16.6.5.5,0,0,0,.539.544,1.813,1.813,0,0,0,1.213-.82h.013a1.789,1.789,0,0,0-.041.3c0,.266.08.519.452.519a1.519,1.519,0,0,0,1.089-.7l-.273.627h.9l.72-1.631c.405-.921.815-1.473,1.195-1.473a.119.119,0,0,1,.124.134,4.581,4.581,0,0,1-.426,1c-.188.384-.325.681-.423.911a1.888,1.888,0,0,0-.157.617.46.46,0,0,0,.5.5,1.945,1.945,0,0,0,1.326-.888,1.856,1.856,0,0,0-.1.565.7.7,0,0,0,.751.779,1.389,1.389,0,0,0,.805-.268,3.693,3.693,0,0,0,.846-.924l-.152-.147a3.48,3.48,0,0,1-.694.774.777.777,0,0,1-.459.183c-.183,0-.3-.1-.3-.338a3.027,3.027,0,0,1,.279-.986c.01-.021.25-.565.483-1.091" transform="translate(-339.653 -93.312)" fill="#0d0e0e"/>
      <path id="Trazado_455" data-name="Trazado 455" d="M348.044,132.215q.174.015.364.015c2.529,0,4.082-1.912,4.737-4.234a6.348,6.348,0,0,0,.988-.2c1.169-.328,2.495-1.112,2.495-2.505,0-1.6-1.7-2.376-3.718-2.376-2.155,0-4.133.96-4.866,2.441a2.83,2.83,0,0,0-.3,1.277,1.758,1.758,0,0,0,1.987,1.84,1.587,1.587,0,0,0,1.793-1.509.261.261,0,0,0-.3-.268c-.253,0-.32.175-.312.268a1.181,1.181,0,0,1-1.2,1.349c-.885,0-1.256-.756-1.256-1.566A3.535,3.535,0,0,1,351,123.517a5.1,5.1,0,0,1,1.9-.33c1.466,0,2.665.565,2.665,2.074a2.508,2.508,0,0,1-2.33,2.43l.052-.173a9.32,9.32,0,0,1,1.094-2.694c.031-.049.085-.119.145-.193l-.072-.09c-.093.054-.258.175-.325.227-2.433,1.9-2.505,7.237-5.746,7.237a2.188,2.188,0,0,1-.33-.023,1.135,1.135,0,0,1-1.029-1.2c0-.124.044-.294.044-.392a.328.328,0,0,0-.353-.335c-.289,0-.408.227-.415.56-.013.949.681,1.5,1.754,1.6" transform="translate(-344.583 -95.113)" fill="#0d0e0e"/>
      <path id="Trazado_456" data-name="Trazado 456" d="M350.1,126.639V128l-.963-1.361h-.384v2.193h.454v-1.358l.961,1.358h.383v-2.193Z" transform="translate(-340.693 -89.222)" fill="#0d0e0e"/>
      <path id="Trazado_457" data-name="Trazado 457" d="M350.159,126.639v2.193h1.409v-.4h-.955V127.9h.826v-.389h-.826v-.475h.952v-.4Z" transform="translate(-338.468 -89.222)" fill="#0d0e0e"/>
      <path id="Trazado_458" data-name="Trazado 458" d="M351.347,126.639v.4h.736v1.794h.451v-1.794h.733v-.4Z" transform="translate(-336.592 -89.222)" fill="#0d0e0e"/>
      <path id="Trazado_459" data-name="Trazado 459" d="M355.375,126.639l-.466,1.424-.469-1.424h-.372l-.465,1.424-.469-1.424h-.493l.765,2.193h.384l.466-1.39.465,1.39h.381l.765-2.193Z" transform="translate(-334.547 -89.222)" fill="#0d0e0e"/>
      <path id="Trazado_460" data-name="Trazado 460" d="M355.037,127.223a.649.649,0,0,1,.493-.2.628.628,0,0,1,.485.2.844.844,0,0,1,0,1.063.628.628,0,0,1-.485.2.649.649,0,0,1-.493-.2.844.844,0,0,1,0-1.063m.493,1.662a1.132,1.132,0,0,0,.818-.31,1.216,1.216,0,0,0,0-1.638,1.239,1.239,0,0,0-1.638,0,1.209,1.209,0,0,0,0,1.638,1.13,1.13,0,0,0,.821.31" transform="translate(-331.784 -89.241)" fill="#0d0e0e"/>
      <path id="Trazado_461" data-name="Trazado 461" d="M356.362,127.039h.431a.3.3,0,0,1,0,.6h-.431Zm0,1h.366l.428.79h.511l-.467-.862a.649.649,0,0,0,.351-.627.658.658,0,0,0-.7-.7h-.939v2.193h.454Z" transform="translate(-329.381 -89.222)" fill="#0d0e0e"/>
      <path id="Trazado_462" data-name="Trazado 462" d="M358.442,126.639l-.745.906v-.906h-.454v2.193h.454v-.607l.269-.326.61.933h.533l-.84-1.3.753-.9Z" transform="translate(-327.275 -89.222)" fill="#0d0e0e"/>
      <path id="Trazado_463" data-name="Trazado 463" d="M347.277,129.394a15.616,15.616,0,0,0,1.491,6.685l5.921-6.84.6-.274,2.255-3.161,1.094-1,1.525-2.371.712-.588,1.543-2.191.993-.738,1.693,1.21.828,1.592s.7,2.051,1.161,3.419c.152.253,1.21,2.072,1.21,2.072l2.6,1.161,2.42,4.91.63,1.925.9.764L376,138.094a15.679,15.679,0,1,0-28.72-8.7" transform="translate(-343.022 -109.649)" fill="#0d0e0e"/>
      <path id="Trazado_464" data-name="Trazado 464" d="M351.367,121.385l-2.462,3.989.195-.045,1.863-2.682.5-.313L352.717,120l-.149,0Z" transform="translate(-340.451 -99.712)" fill="#0d0e0e"/>
      <path id="Trazado_465" data-name="Trazado 465" d="M350.321,127.028l1.07-1.29.976-1.612.488-.251,1.1-2.1.127-1.305L354.7,119l-.142,0-.763,1.029-.409.3L351.8,122.8l.158.3-1.763,3.932Z" transform="translate(-338.416 -101.294)" fill="#0d0e0e"/>
      <path id="Trazado_466" data-name="Trazado 466" d="M351.251,124.534l-.229.842.228.1,1.023-1.172.36-1.667.462-1.235-.178-.181L351.383,124Z" transform="translate(-337.104 -97.782)" fill="#0d0e0e"/>
      <path id="Trazado_467" data-name="Trazado 467" d="M354.148,134.851h2.206l-.323-1.011,3.519,1.3h3.793l-.95-1.724-.493-1.773,2.059,2.637h2.521l-.756-1.569-1.091-1.066-2.807-6.272-1.326-.426-.333.431-.24.023-.459-1.342-1.674-2.784-1.236-3.733-1.285-1.3s.041,3.682.041,3.782c0,.08-.993,2.947-.993,2.947l1.344.88-2.327,6.259.454.292-1.207,2.766Z" transform="translate(-334.636 -105.641)" fill="#0d0e0e"/>
      <rect id="Rectángulo_10" data-name="Rectángulo 10" width="39.869" height="39.642" transform="translate(0 0)" fill="none"/>
    </g>
  </g>
</svg>
