<svg xmlns="http://www.w3.org/2000/svg" xmlns:xlink="http://www.w3.org/1999/xlink" width="85" height="85" viewBox="0 0 85 85">
  <defs>
    <filter id="Rectángulo_18090" x="0" y="0" width="85" height="85" filterUnits="userSpaceOnUse">
      <feOffset dy="3" input="SourceAlpha"/>
      <feGaussianBlur stdDeviation="3" result="blur"/>
      <feFlood flood-opacity="0.161"/>
      <feComposite operator="in" in2="blur"/>
      <feComposite in="SourceGraphic"/>
    </filter>
    <clipPath id="clip-path">
      <rect id="Rectángulo_23340" data-name="Rectángulo 23340" width="52.71" height="31.796" fill="none"/>
    </clipPath>
  </defs>
  <g id="pasiones" transform="translate(-319 -13)">
    <g transform="matrix(1, 0, 0, 1, 319, 13)" filter="url(#Rectángulo_18090)">
      <rect id="Rectángulo_18090-2" data-name="Rectángulo 18090" width="67" height="67" rx="10" transform="translate(9 6)" fill="#fff"/>
    </g>
    <g id="Grupo_31985" data-name="Grupo 31985" transform="translate(335 37)">
      <g id="Grupo_31978" data-name="Grupo 31978" transform="translate(0 0)" clip-path="url(#clip-path)">
        <path id="Trazado_67158" data-name="Trazado 67158" d="M27.306,15.311l-2.255,1.333-.024-.008v-.008a9.582,9.582,0,0,1,.374-2.182q1.67-2.7,3.161-5.477a16.311,16.311,0,0,0,.914-2.036c.451-1.211,2.044-5.847.037-6.4-1.321-.362-2.8.565-3.767,1.382a20.716,20.716,0,0,0-4.571,5.689,10.027,10.027,0,0,0-.65,1.349.084.084,0,0,0,0,.045c.061.252.158.5.191.744a9.569,9.569,0,0,1,.061,1.5,1.281,1.281,0,0,1-.122.528c-.089.179-.252.28-.427.13a.042.042,0,0,0-.065,0l-.012.016-.033.106a.026.026,0,0,1-.033.016l-.012-.008L19.98,11.9c-.012-.016-.024-.016-.033,0a.2.2,0,0,0-.033.126.036.036,0,0,1-.028.041.036.036,0,0,1-.037-.024c-.041-.093-.1-.293-.232-.24a.083.083,0,0,0-.053.077l.016.2a.032.032,0,0,1-.033.033l-.028-.012-.077-.106-.037-.012c-.191.065-.24-.2-.362-.288a2.242,2.242,0,0,1-.463-.89,1.69,1.69,0,0,0-.211-.524c-.146-.187-.065-.748-.016-.971l.024-.037c.065-.057.219-.15.2-.248a11.271,11.271,0,0,0-2.1-4.592,3.718,3.718,0,0,0-2.458-1.642,3.429,3.429,0,0,0-2.934,1.239A6.759,6.759,0,0,0,9.769,7.411a16.617,16.617,0,0,0-.049,4.535,16.584,16.584,0,0,0,.382,1.873c-.232-.041-.463-.081-.691-.118a1.267,1.267,0,0,0-.979.26c-.374.244-.735.5-1.089.764l-.02.008L7.3,14.721A21.115,21.115,0,0,1,6.847,10.5C6.827,7.541,8.253,3.7,11.11,2.316a5.558,5.558,0,0,1,3.356-.5c2.824.443,4.852,3.62,5.77,6.071l.033.012.012-.008A52.4,52.4,0,0,1,23.592,3.75a21.182,21.182,0,0,1,2.462-2.405c.991-.8,2.661-1.67,3.974-1.223a2.47,2.47,0,0,1,1.556,1.816,9.957,9.957,0,0,1-.215,4.275,30.971,30.971,0,0,1-4.063,9.1" transform="translate(20.975 -0.001)" fill="#d718ff"/>
        <path id="Trazado_67159" data-name="Trazado 67159" d="M7.538,14.17a.037.037,0,0,0,0-.049l-.024-.008H7.424L7.4,14.089l.012-.024c.943-.512,1.869-1.056,2.779-1.625L10.2,12.4v-.012h-.008l-.134.049c-.1.028-.11.012-.028-.053a14.128,14.128,0,0,0,1.15-.963c1.658-1.65,3.446-3.929,3.738-6.327a2.588,2.588,0,0,0-.085-1.26,2.555,2.555,0,0,0-2.08-1.475,8.773,8.773,0,0,0-4.258.419A18.742,18.742,0,0,0,1.219,7.868l-.037.016a.551.551,0,0,0-.276.073.056.056,0,0,1-.045.008l-.089-.02a.046.046,0,0,0-.045.008l-.154.1-.028.012c-.114,0-.215-.045-.321-.049H.045A.03.03,0,0,1,.012,8c-.089-.15.333-.549.443-.67,2.438-2.735,5.5-5.1,9.216-5.859,1.877-.386,4.2-.341,5.331,1.5a4.413,4.413,0,0,1,.378.813,6.5,6.5,0,0,1,.5,2.41,3.278,3.278,0,0,1-.15.76,13.166,13.166,0,0,1-2.1,3.994,8.373,8.373,0,0,1-2.678,2.385,26,26,0,0,1-4.535,2.015c-.118.037-.244.057-.362.081a.047.047,0,0,0-.045.041c-.471,2.71-.813,5.457-1.178,8.184-.041.313-.106.614-.455.695a1.761,1.761,0,0,1-.8.11c-.118-.02-.646.037-.622-.175.414-3.482.829-6.863,1.528-10.252.183-.886.406-1.759.662-2.629q.823-2.755,1.666-5.5A2.963,2.963,0,0,0,6.9,5.316c.016-.215.081-.39.333-.325a.058.058,0,0,0,.045,0c.073-.041.24-.191.3-.085a.039.039,0,0,0,.049.012L7.643,4.9l.033-.057a.024.024,0,0,1,.037-.012,2.109,2.109,0,0,1,.4.248c.28.215.443.3.374.654s-.13.638-.187.837c-.8,2.722-1.5,5.469-2.182,8.224l.016.02h.012l.605-.349.045-.008a.332.332,0,0,0,.337-.1.056.056,0,0,1,.041-.02.682.682,0,0,0,.366-.163" transform="translate(0 3.902)"/>
        <path id="Trazado_67160" data-name="Trazado 67160" d="M40.012,5.241a10.128,10.128,0,0,0-.374,2.186l.016.016.008,0,2.255-1.333c.679-.362,1.341-.731,2-1.1.341-.2.488-.553.959-.406.3.093.679.15.707.455l-.016.037a2.667,2.667,0,0,1-.89.484,3.886,3.886,0,0,0-.439.2c-1.056.581-2.109,1.186-3.19,1.723a13.719,13.719,0,0,0-1.349.735.116.116,0,0,0-.053.089,8.6,8.6,0,0,1-.138,1.2l-.012.033-.033,0,0-.016c.024-.219.041-.439.045-.662a.132.132,0,0,0-.024-.1.044.044,0,0,0-.061-.008l-.02.028c-.041.272-.1.516-.146.817a3.079,3.079,0,0,1-1.065,1.808l-.024.041.016.024.016,0a.948.948,0,0,0,.232-.171,4.138,4.138,0,0,0,.955-1.451l.028-.008c.02.016.024.037.008.069a.273.273,0,0,0-.033.15,5.149,5.149,0,0,1-.833,1.243l-.016,0a2.577,2.577,0,0,1-.565.419,3.041,3.041,0,0,1-.3.183,3.566,3.566,0,0,1-1.154.455.049.049,0,0,0-.041.012,1.45,1.45,0,0,1-1.28.073c-.744-.439-.187-1.573.2-2.04a10.057,10.057,0,0,1,2.751-2.227l.337-.175a.04.04,0,0,0,.028-.028.96.96,0,0,0,.016-.374l.13-1.353a.034.034,0,0,0-.028-.033l-.02.008L37.119,7.379l-.041,0c-.028-.02-.024-.049.016-.081.264-.228.528-.463.788-.707l.012-.024c0-.057-.024-.065-.069-.033-.215.167-.431.341-.638.52-.284.24-.622.414-.9.646-.313.256-.618.52-.918.792a.062.062,0,0,0-.024.045l.016.016.008,0,.683-.479a.036.036,0,0,1,.053.012.038.038,0,0,1,0,.049,1.6,1.6,0,0,1-.175.163c-1.032.784-4.689,3.373-5.9,2.231h-.037a7.674,7.674,0,0,1-2.015,1.377c-.715.211-1.117-.163-1.321-.8a2.047,2.047,0,0,1-.1-.7c.016-.3.028-.6.041-.878.106-.971.26-1.8.459-2.9A2.411,2.411,0,0,0,27.09,6.2c0-.077-.02-.085-.069-.024q-.64.829-1.2,1.69l0,.024.008.02h-.012l-.024.012a9.737,9.737,0,0,0-1.5,3.82l-.008.016-.008.012c-.02.183-.045.366-.077.549-.106.61-.8.183-1.13.3-.561.2-.439-.475-.394-.768q.2-1.323.4-2.621c.089-.536.179-1.069.272-1.6a16.634,16.634,0,0,0,.378-2.166.049.049,0,0,0-.049-.049l-.033.008-1.459,1.2-.349.293a.056.056,0,0,0-.016.069,5.3,5.3,0,0,1,.085,3.885,4.576,4.576,0,0,1-1.711,2.414c-.951.626-1.914-.126-2.405-.935l-.037-.008-.012.008a3.126,3.126,0,0,1-1.715,1.491,1.242,1.242,0,0,1-1.438-1.1,9.208,9.208,0,0,1-.138-1.333.027.027,0,0,0-.028-.024L14.4,11.4l-.8.784a.08.08,0,0,0-.024.057,2.665,2.665,0,0,1-1.682,2.731c-.41.163-1.117.284-1.288-.3a1.133,1.133,0,0,1,.215-1.065,17.017,17.017,0,0,1,1.345-1.5l.012-.037a10.815,10.815,0,0,0-.906-2.763.026.026,0,0,0-.037-.012l-.012.016q-.512,1.3-1.048,2.621a13.832,13.832,0,0,1-.695,1.442,3.738,3.738,0,0,1-1.121,1.349,1.634,1.634,0,0,1-1.268.012,1.1,1.1,0,0,1-.52-.524A.035.035,0,0,0,6.53,14.2l-.012.012a7.339,7.339,0,0,1-1.853,1.776,3.514,3.514,0,0,1-.589.325,1.44,1.44,0,0,1-1.512-.423,2.383,2.383,0,0,1-.479-1.723A6.235,6.235,0,0,1,5.2,9.508a3.94,3.94,0,0,1,1.938-.683,4.219,4.219,0,0,1,.658.081.48.48,0,0,1,.26.163l.033.016a.827.827,0,0,1,.349.183.029.029,0,0,1,0,.045l0,0a.394.394,0,0,1-.276.11,2.216,2.216,0,0,0-.809.236,9.31,9.31,0,0,0-3.117,2.426,4.139,4.139,0,0,0-.857,3.052l0,.037a.044.044,0,0,0,.045.024l0,0A7.093,7.093,0,0,0,6.3,12.34L6.31,12.3a4.053,4.053,0,0,1,.354-1.837c.236-.479.589-.756,1.126-.52.2.085.358.069.492.284a.873.873,0,0,1,.065.3,3.543,3.543,0,0,1-.561,2.154l-.012.045a3.732,3.732,0,0,0,.045,1.024.051.051,0,0,0,.061.033l.028-.024a16.253,16.253,0,0,0,1.134-2.369q.664-1.6,1.308-3.214a1.3,1.3,0,0,0,.085-.333.087.087,0,0,1,.049-.069l.394-.179.033,0a5.116,5.116,0,0,1,.565.093c.142.033.223-.037.358-.024a.4.4,0,0,1,.374.317,31.844,31.844,0,0,1,1.174,3.011c.008.028.02.028.041.012a5.084,5.084,0,0,0,1.158-1.52c.163-.354.3-.658.4-.918a.615.615,0,0,1,.122-.2l.033-.016h.3l.045-.016.11-.081a.029.029,0,0,1,.037,0,2.244,2.244,0,0,0,.565.158l.037.02c.13.163.057.4-.008.6a10.09,10.09,0,0,0-.467,1.743c-.033.272-.134,1.682.317,1.694.337.008.947-1,1.1-1.284a9.342,9.342,0,0,0,.447-2.308c.1-.406-.033-.91.6-.861a1.119,1.119,0,0,1,.7.313.475.475,0,0,1,.11.52,5.989,5.989,0,0,0,.016,3.2.408.408,0,0,0,.122.167l.037.012c.378.008.861-.67,1.036-.955A4.543,4.543,0,0,0,20.8,7.5l-.028-.012a4.3,4.3,0,0,1-2.442.236c-.26-.053-.581-.2-.63-.488-.244-1.321,1.394-1.524,2.284-1.459a2.349,2.349,0,0,1,1.093.354.049.049,0,0,0,.057,0l.756-.573.012-.02.012-.016.02.008.024-.008c.354-.264.715-.52,1.085-.76a1.251,1.251,0,0,1,.979-.26c.232.037.463.073.695.114.463.1.516.609.447.991-.024.126-.049.252-.069.37l-.171,1.1.016.024.02-.008c.118-.154.228-.313.337-.475l.012-.033-.016-.037c.02,0,.045-.016.073-.057a11.926,11.926,0,0,1,1.247-1.629.865.865,0,0,1,.662-.337.374.374,0,0,0,.2-.077l.033,0a.133.133,0,0,0,.179.065.067.067,0,0,1,.041,0c.171.02.337.041.5.065l.037,0,.02-.008.033,0a1.713,1.713,0,0,1,.256,1.451q-.219,1.42-.484,2.832a7.784,7.784,0,0,0-.175,1.865.071.071,0,0,0,.077.069l.028,0a6.07,6.07,0,0,0,1.512-1.142.031.031,0,0,0,.012-.037,5.6,5.6,0,0,1-.033-1.483c.2-1.451.748-3.247,2.125-4.015a3.218,3.218,0,0,1,1.312-.431,1.246,1.246,0,0,1,.524-.024c.2.061.26.2.28.406.228,2-1.3,4.051-2.507,5.486a.03.03,0,0,0,0,.049l.1.122a.036.036,0,0,0,.049.012,18.916,18.916,0,0,0,3.409-2.141q1.268-1.012,2.857-2.332a14.119,14.119,0,0,0,1.922-1.987c.1-.122.211-.284.362-.256a3.135,3.135,0,0,1,.5.134c.093.033.264.012.264.179a.529.529,0,0,1-.033.187,13.349,13.349,0,0,0-.666,1.735m-7.741-.605a3.864,3.864,0,0,0-1.105,1.792,5.167,5.167,0,0,0-.207,1.934l.012.012.012,0a18.141,18.141,0,0,0,.975-1.812,3.173,3.173,0,0,0,.341-1.91l-.02-.016-.008,0M19.256,7.163c.309.138.784-.2,1.04-.394a.057.057,0,0,0,.012-.077l0,0a.927.927,0,0,0-1.162-.179c-.288.219-.163.532.114.654m17.33,3.275a1.71,1.71,0,0,0-.439.642c-.134.223-.337.947.276.642a3.413,3.413,0,0,0,2-2.43.027.027,0,0,0-.024-.028l-.016,0-.191.081-.028-.008.008-.028.2-.122a.031.031,0,0,0,.008-.041l-.02-.012c-.252-.028-.723.325-.943.5l-.008.028.033.008c.171-.093.345-.187.532-.28.02-.012.037-.008.045.008l-.008.024a5.275,5.275,0,0,0-1.43,1.008M12.247,13.266l0-.033-.033-.012-.008,0a1.566,1.566,0,0,0-.268.463c-.049.134-.061.427.045.52.077.069.163-.016.183-.093a2.494,2.494,0,0,0,.073-.817l0-.033" transform="translate(6.363 9.199)"/>
        <path id="Trazado_67161" data-name="Trazado 67161" d="M7.91,7.409a23.241,23.241,0,0,1-.886-2.6l1.459-1.2a.043.043,0,0,1,.065.008l.012.033a17.6,17.6,0,0,1-.374,2.166C8.093,6.34,8,6.872,7.91,7.409" transform="translate(21.517 11.022)" fill="#d718ff"/>
        <path id="Trazado_67162" data-name="Trazado 67162" d="M7.874,3.736l.2.565.016.037-.012.037c-.11.158-.223.317-.337.471l-.033,0L7.7,4.829Z" transform="translate(23.585 11.444)" fill="#d718ff"/>
        <path id="Trazado_67163" data-name="Trazado 67163" d="M6.419,4.883q-.049.049-.1-.012l-.041-.008c-.126.093-.232.02-.354-.012a2.164,2.164,0,0,0-.516-.033L5.387,4.8,5.18,4.472l0-.02c.073-.419.731-.585,1.073-.585.406,0,1.67.341.748.9l-.037.008a.11.11,0,0,0-.089.053.034.034,0,0,1-.045.012l-.065-.024a.031.031,0,0,0-.041.008.221.221,0,0,1-.256.049.043.043,0,0,0-.045.012" transform="translate(15.856 11.845)"/>
        <path id="Trazado_67164" data-name="Trazado 67164" d="M2.521,4.139a.517.517,0,0,1,.219-.1c.008.016-.077.081-.187.15a.563.563,0,0,1-.219.1c-.008-.012.073-.081.187-.15" transform="translate(7.149 12.361)"/>
        <path id="Trazado_67165" data-name="Trazado 67165" d="M13.842,4.109,12.176,6.677a.281.281,0,0,1,.037-.15c.016-.028.012-.053-.008-.065s-.024-.008-.028.008a4.114,4.114,0,0,1-.959,1.447,1.17,1.17,0,0,1-.228.175l-.028-.008,0-.016.024-.041a3.079,3.079,0,0,0,1.065-1.808c.045-.3.106-.54.146-.817a.046.046,0,0,1,.053-.037l.028.02a.164.164,0,0,1,.024.1,5.977,5.977,0,0,1-.049.662.027.027,0,0,0,.024.028l.016,0,.012-.033a9.4,9.4,0,0,0,.138-1.2.106.106,0,0,1,.053-.089,14.626,14.626,0,0,1,1.349-.735" transform="translate(33.565 12.586)" fill="#d718ff"/>
        <path id="Trazado_67166" data-name="Trazado 67166" d="M11.335,4.138a.869.869,0,0,1-.016.37l-.024.033-.341.175Z" transform="translate(33.553 12.675)" fill="#d718ff"/>
        <path id="Trazado_67167" data-name="Trazado 67167" d="M9.083,4.212c.219.528.471,1.065.76,1.605-.012.28-.028.573-.041.878a2.077,2.077,0,0,0,.1.707c.207.638.609,1.012,1.325.8q1.816,2.828,3.8,5.514a.051.051,0,0,0,.065.012l.008-.012c.28-.39.561-.784.825-1.178.841-1.26,1.686-2.519,2.523-3.787a1.458,1.458,0,0,0,1.284-.073l.037-.012a3.585,3.585,0,0,0,1.158-.455c.11-.045.2-.13.3-.183a2.577,2.577,0,0,0,.565-.419l.012,0q.018.03,0,.024c-2.174,3.287-3.673,5.563-5.7,8.216l-.012.041a.15.15,0,0,0,.057.118l.016.037c.106.419-.284.4-.573.386l-.049.012a2.42,2.42,0,0,1-.959.5l-.037.02c-.175.175-.366.158-.569.293-.228.158-.459.317-.691.471a.029.029,0,0,1-.045-.008l0-.02a.021.021,0,0,0-.037-.008c-.232.179-.467.362-.7.544a.823.823,0,0,1-.154.093l-.024-.008,0-.02.288-.333a.036.036,0,0,0-.008-.053c-.008-.008-.02-.008-.037,0a.769.769,0,0,0-.244.142l-.67.573a.306.306,0,0,1-.122.069.031.031,0,0,1-.041-.024l0-.028a1.239,1.239,0,0,0,.085-.163c.024-.041.024-.065.008-.077a.091.091,0,0,0-.114-.008l-.74.492a.042.042,0,0,1-.057-.012v-.041a.447.447,0,0,1,.093-.134c.569-.65,1.191-1.252,1.8-1.869.431-.443.841-.9,1.264-1.349v-.041a1.4,1.4,0,0,0-.11-.1A25.45,25.45,0,0,1,7.543,8.044a9.737,9.737,0,0,1,1.5-3.82l.024-.012h.012" transform="translate(23.107 12.902)" fill="#d718ff"/>
        <path id="Trazado_67168" data-name="Trazado 67168" d="M10.568,6.456l.443-.642a5.117,5.117,0,0,1,1.43-1l0-.028c-.008-.016-.024-.016-.045-.008-.183.093-.362.187-.532.28l-.033,0,.008-.033c.223-.175.695-.532.943-.5a.026.026,0,0,1,.024.033l-.012.02-.2.122-.008.028.028.008.2-.081a.029.029,0,0,1,.037.016l0,.012a3.426,3.426,0,0,1-2,2.426c-.618.3-.414-.419-.28-.642" transform="translate(31.938 13.823)" fill="#d718ff"/>
      </g>
    </g>
  </g>
</svg>
