<svg xmlns="http://www.w3.org/2000/svg" xmlns:xlink="http://www.w3.org/1999/xlink" width="86" height="84" viewBox="0 0 86 84">
  <defs>
    <filter id="Rect치ngulo_18265" x="0" y="0" width="86" height="84" filterUnits="userSpaceOnUse">
      <feOffset dy="3" input="SourceAlpha"/>
      <feGaussianBlur stdDeviation="3" result="blur"/>
      <feFlood flood-opacity="0.161"/>
      <feComposite operator="in" in2="blur"/>
      <feComposite in="SourceGraphic"/>
    </filter>
  </defs>
  <g id="Pxsports" transform="translate(-872 -1112)">
    <g transform="matrix(1, 0, 0, 1, 872, 1112)" filter="url(#Rect치ngulo_18265)">
      <rect id="Rect치ngulo_18265-2" data-name="Rect치ngulo 18265" width="68" height="66" rx="10" transform="translate(9 6)" fill="#f7fcfe"/>
    </g>
    <g id="Grupo_19232" data-name="Grupo 19232" transform="translate(889 1145)">
      <path id="Trazado_38588" data-name="Trazado 38588" d="M389.059,894.859a.009.009,0,0,1,0-.016c.02-.02,0-.052.022-.073h0c.024-.021.006-.054.023-.078a.012.012,0,0,1,0-.018.192.192,0,0,0,.018-.058l0-.008.006-.006c.022-.021,0-.053.022-.075v0c.026-.021.008-.055.023-.079a.01.01,0,0,1,0-.016c.021-.021,0-.053.022-.073.041-.2.11-.4.169-.6.479-1.614.955-3.23,1.461-4.837.108-.341.219-.681.356-1.011.02-.048.042-.095.063-.142a.792.792,0,0,1,.645-.47,3.565,3.565,0,0,1,.56-.04c.5,0,1.006-.006,1.508,0,1.017.013,2.034,0,3.052.007.031,0,.063,0,.095.007.037.078-.018.13-.058.179-.564.684-1.131,1.365-1.69,2.053a.243.243,0,0,1-.216.1.836.836,0,0,0-.285.018c-.438.018-.876.04-1.315.033a.473.473,0,0,0-.564.414c-.227.755-.448,1.513-.675,2.268a.679.679,0,0,1-.048.135c-.011.021-.024.039-.033.06s-.008.019-.011.029-.014.036-.021.055a.161.161,0,0,1-.01.026c-.007.018-.013.035-.018.053s-.006.018-.009.027a.411.411,0,0,0-.012.055.136.136,0,0,1-.007.028l-.018.053c0,.009-.006.018-.01.026a.5.5,0,0,0-.017.052.258.258,0,0,1-.008.026.436.436,0,0,0-.012.055.235.235,0,0,1-.007.028c-.006.018-.013.036-.018.055l-.009.027a.335.335,0,0,0-.013.055.22.22,0,0,1-.007.028.359.359,0,0,0-.018.052.178.178,0,0,1-.008.026c-.006.017-.012.034-.018.051a.177.177,0,0,1-.009.025.373.373,0,0,0-.016.051c0,.009-.006.018-.009.027a.4.4,0,0,0-.012.055.141.141,0,0,1-.007.028l-.018.053a.218.218,0,0,1-.01.026.447.447,0,0,0-.017.051.206.206,0,0,1-.008.026.558.558,0,0,0-.015.071.224.224,0,0,1-.011.03c-.381.419-.726.868-1.088,1.3-.47.563-.935,1.131-1.4,1.7-.383.465-.768.927-1.149,1.394a.194.194,0,0,1-.07.063c-.048.019-.081.013-.061-.051h0c.025-.021.008-.055.023-.079a.01.01,0,0,1,0-.016.168.168,0,0,0,.019-.059l0-.008.006-.005c.023-.021.005-.053.022-.075v0c.028-.021.009-.055.024-.08l0-.009.006-.006c.021-.02,0-.052.022-.073h0c.025-.021.007-.055.023-.079a.01.01,0,0,1,0-.016.168.168,0,0,0,.019-.059l0-.007.006-.005c.023-.021.005-.053.022-.075v0c.028-.021.009-.056.024-.08l0-.009.006-.006c.021-.021,0-.053.022-.074h0c.025-.021.008-.055.023-.079a.01.01,0,0,1,0-.016c.019-.02,0-.052.022-.072h0c.023-.021.006-.053.022-.075v0c.028-.021.009-.056.024-.081l0-.008.007-.006c.021-.021,0-.053.021-.074h0c.026-.021.008-.055.023-.079,0-.007,0-.013,0-.016.02-.021,0-.053.021-.073h0c.024-.02.006-.053.022-.075v0c.029-.021.01-.056.025-.081l0-.008.006-.006c.022-.02,0-.053.022-.074v0c.026-.021.008-.055.024-.08a.01.01,0,0,1,0-.016c.02-.021,0-.052.021-.073h0c.024-.021.006-.055.023-.078a.011.011,0,0,1,0-.017.2.2,0,0,0,.019-.058l0-.008.006-.006c.022-.021,0-.053.022-.075v0c.027-.021.008-.055.024-.08a.009.009,0,0,1,0-.016c.02-.02,0-.052.021-.073h0c.024-.021.006-.055.023-.078a.012.012,0,0,1,0-.018.193.193,0,0,0,.019-.058l0-.008.006-.006c.023-.021,0-.053.022-.075v0c.027-.021.009-.055.024-.08l0-.009.007-.006c.02-.021,0-.053.021-.073h0c.024-.021.006-.055.023-.078a.012.012,0,0,1,0-.018.188.188,0,0,0,.019-.058l0-.008.006-.006c.023-.02.005-.053.022-.075v0c.027-.021.009-.056.024-.08l0-.009.007-.006c.02-.021,0-.052.021-.073h0c.024-.021.006-.055.023-.078a.012.012,0,0,1,.005-.018.194.194,0,0,0,.018-.058l0-.008.007-.006c.022-.021,0-.053.021-.075v0c.027-.021.008-.055.024-.08" transform="translate(-387.86 -887.265)" fill="#040505"/>
      <path id="Trazado_38589" data-name="Trazado 38589" d="M387.952,902.061c.006.031.015.056.054.031a.564.564,0,0,0,.106-.128c.218-.263.433-.527.649-.789.164-.2.332-.394.5-.593s.339-.418.511-.626.333-.392.494-.594.347-.413.513-.624.347-.413.519-.62c.088-.106.176-.214.259-.325.046-.061.121-.09.162-.155.038.045.015.091,0,.135-.288.94-.567,1.884-.869,2.821-.071.219-.143.439-.211.659-.055.177-.013.242.167.28a.862.862,0,0,0,.179.018c.367,0,.733,0,1.1,0a.445.445,0,0,0,.481-.362c.173-.584.359-1.165.539-1.747a.568.568,0,0,1,.616-.453c.426-.015.852-.027,1.279-.021a.481.481,0,0,1,.06,0c.11.016.13.057.067.152a3.764,3.764,0,0,1-.247.307q-1.065,1.291-2.13,2.582c-.421.51-.843,1.019-1.263,1.531-.028.034-.055.069-.108.062h-2.842a.324.324,0,0,1-.13-.009.736.736,0,0,1-.335-.07.536.536,0,0,1-.331-.473,1.078,1.078,0,0,1,.02-.332,5.623,5.623,0,0,1,.194-.661" transform="translate(-387.734 -891.135)" fill="#0d0d0d"/>
      <path id="Trazado_38590" data-name="Trazado 38590" d="M409.176,887.3c.032,0,.063-.005.1-.005h3.715c.032,0,.063,0,.1,0,.226.024.452.006.678.01.151,0,.3,0,.454,0,.033,0,.077-.018.1.022a.107.107,0,0,1-.025.122c-.08.1-.159.2-.24.3-.489.591-.981,1.181-1.466,1.776-.028.034-.051.071-.078.105a.251.251,0,0,1-.117.055.986.986,0,0,0-.413.275c-.168.187-.346.364-.522.543-.386.392-.755.8-1.152,1.181a1.261,1.261,0,0,1-.312.239c-.162.079-.268.035-.32-.139-.1-.328-.182-.661-.281-.989-.089-.294-.164-.592-.266-.881a.378.378,0,0,0-.4-.291c-.183,0-.367,0-.55,0a.254.254,0,0,1-.14-.021c-.041-.061.011-.1.041-.134.328-.4.658-.8.987-1.2q.319-.387.638-.774c.027-.033.073-.064.051-.113s-.076-.033-.118-.034c-.115,0-.231,0-.347,0-.038,0-.092.014-.1-.05" transform="translate(-395.299 -887.275)" fill="#141414"/>
      <path id="Trazado_38591" data-name="Trazado 38591" d="M405.79,887.292c.033.035.075.021.113.021q.2,0,.394,0c.047,0,.087,0,.107.055s-.015.072-.04.1c-.173.211-.345.423-.518.634s-.33.394-.494.592-.34.417-.51.625c-.053.065-.108.127-.162.189a.112.112,0,0,0-.039.072c-.051.053-.118.04-.179.039-.345-.008-.689.014-1.032.037-.035.007-.068.014-.079.055l-.011.031a.477.477,0,0,0,0,.206.256.256,0,0,1,.007.03.473.473,0,0,0,.014.073.22.22,0,0,1,.007.027.318.318,0,0,0,.014.068c0,.009.006.018.009.026a.7.7,0,0,1,.019.071.108.108,0,0,1,0,.032c-.162.238-.357.45-.539.673a.116.116,0,0,1-.06.037.072.072,0,0,1-.031,0,.081.081,0,0,1-.03-.032.177.177,0,0,1-.013-.024c-.006-.012-.011-.025-.017-.036l-.012-.023-.012-.023a.163.163,0,0,1-.011-.023c0-.007-.008-.015-.011-.022l-.011-.022c0-.007-.008-.014-.011-.021l-.012-.019a.178.178,0,0,1-.014-.018.075.075,0,0,1-.012-.019l-.011-.019-.013-.018a.181.181,0,0,1-.014-.017.09.09,0,0,1-.011-.019l-.011-.019-.013-.018-.016-.017-.008-.009a.174.174,0,0,1-.018-.019l-.019-.02a.594.594,0,0,0-.051-.038,2.7,2.7,0,0,0-.959-.636,3.756,3.756,0,0,0-1.11-.213c-.418-.037-.835.02-1.253,0-.058,0-.121.015-.169-.037a.514.514,0,0,1,.258-.018.224.224,0,0,0,.2-.09c.157-.2.321-.4.484-.6.13-.159.265-.315.4-.473l.379-.458c.136-.165.27-.331.408-.494a.408.408,0,0,0,.1-.186c.039,0,.079-.007.118-.007h1.446l2.964.006c.032,0,.063,0,.1,0" transform="translate(-391.913 -887.271)" fill="#0d0d0d"/>
      <path id="Trazado_38592" data-name="Trazado 38592" d="M419.163,887.285a1.112,1.112,0,0,1,.587.057.316.316,0,0,1,.2.452,1.237,1.237,0,0,1-.2.325c-.25.32-.512.631-.776.94-1.409,1.658-2.844,3.294-4.283,4.927a.77.77,0,0,0-.223.618c-.117.176-.265.327-.4.49-.286.353-.577.7-.866,1.051-.048.058-.1.121-.189.091a.426.426,0,0,1-.1-.2c-.091-.234-.176-.471-.268-.7a.185.185,0,0,1-.022-.115c.164-.221.345-.427.52-.639q1.426-1.722,2.847-3.447,1.032-1.249,2.061-2.5c.318-.387.636-.776.96-1.16a1.025,1.025,0,0,1,.146-.187" transform="translate(-397.02 -887.267)" fill="#1e1e1e"/>
      <path id="Trazado_38593" data-name="Trazado 38593" d="M441.431,899.3c-.036,0-.071,0-.107,0H438.69a.936.936,0,0,1-.317-.048.492.492,0,0,1-.344-.432,1.429,1.429,0,0,1,.078-.635c.277-.829.5-1.675.76-2.51.03-.1.063-.2.088-.3a.555.555,0,0,1,.505-.388.16.16,0,0,1,.082-.009c.6,0,1.2,0,1.794,0,.065,0,.126,0,.127.085a6.389,6.389,0,0,1-.013.917c-.044.063-.113.049-.175.049-.3,0-.606,0-.91,0a.43.43,0,0,0-.5.378q-.206.705-.417,1.409a.78.78,0,0,0-.043.234c0,.125.049.174.174.179s.247,0,.371,0c.451,0,.9,0,1.352,0,.142.013.162.03.164.162,0,.258,0,.517,0,.775a.158.158,0,0,1-.037.122" transform="translate(-406.494 -890.145)" fill="#0a0b0b"/>
      <path id="Trazado_38594" data-name="Trazado 38594" d="M419.4,900.464a4.973,4.973,0,0,1-.538,0,.951.951,0,0,1-.787-.493c-.49-.824-.929-1.678-1.365-2.532a.38.38,0,0,1,.073-.443c.124-.15.256-.294.385-.441l1.653-1.906c.021-.024.044-.044.066-.067.075-.009.081.049.091.1a.928.928,0,0,1,.006.167v2.994a1.036,1.036,0,0,0,.019.249.276.276,0,0,1-.023.186c-.1.278-.2.556-.294.834a.633.633,0,0,0-.028.091c-.009.045.026,0,.032.015.192,0,.383,0,.574,0a.187.187,0,0,1,.147.034.264.264,0,0,1,.028.15q0,.453,0,.908a.214.214,0,0,1-.038.159" transform="translate(-398.529 -889.993)" fill="#c02628"/>
      <path id="Trazado_38595" data-name="Trazado 38595" d="M448.01,895.015c0-.02,0-.042.027-.044s.064,0,.1,0h3.259a1.1,1.1,0,0,1,.488.1.581.581,0,0,1,.337.628,2.431,2.431,0,0,1-.1.4q-.147.479-.292.959a.769.769,0,0,1-.192.34.51.51,0,0,1-.385.16c-.12,0-.239,0-.378,0l.463,1.723c-.016.028-.037.021-.055.021-.312,0-.623,0-.934,0a.089.089,0,0,1-.1-.081c-.139-.523-.282-1.044-.423-1.567-.026-.1-.027-.1-.125-.1l-.6-.005a.213.213,0,0,1-.036-.159c0-.187,0-.374,0-.56,0-.09-.034-.128-.127-.129-.061,0-.139.026-.176-.058.053-.049.12-.036.182-.037.467,0,.934,0,1.4,0,.044,0,.088,0,.132,0,.237-.011.288-.052.354-.278.018-.061.038-.122.054-.184a.143.143,0,0,0-.137-.2,1,1,0,0,0-.144-.005h-1.485a.28.28,0,0,1-.185-.031c-.006-.018,0-.036.014-.04.121-.028.118-.12.116-.214,0-.164,0-.327,0-.491,0-.1-.037-.134-.134-.133-.271,0-.543,0-.814,0a.17.17,0,0,1-.093-.014" transform="translate(-410.221 -890.139)" fill="#151515"/>
      <path id="Trazado_38596" data-name="Trazado 38596" d="M432.187,894.967c.036,0,.071,0,.107,0h2.947a1.218,1.218,0,0,1,.412.056.6.6,0,0,1,.4.774c-.083.32-.187.633-.282.949-.037.122-.071.245-.114.364a.635.635,0,0,1-.408.423.37.37,0,0,1-.117.02H432.9a.154.154,0,0,1-.023,0,.106.106,0,0,1-.033-.074c-.005-.277-.013-.553,0-.829.053-.05.119-.038.182-.038.4,0,.806,0,1.21,0,.328,0,.357-.024.446-.34.08-.287.047-.329-.255-.329-.523,0-1.046,0-1.569,0a.19.19,0,0,1-.105-.014c0-.011-.011-.028,0-.034.113-.077.088-.194.089-.3,0-.14,0-.28,0-.418s-.011-.14-.145-.142-.256,0-.383,0c-.048,0-.108.013-.129-.055" transform="translate(-404.318 -890.137)" fill="#060707"/>
      <path id="Trazado_38597" data-name="Trazado 38597" d="M442.289,899.294v-.883c0-.154,0-.142-.144-.142,0-.008,0-.019,0-.022.2-.111.229-.315.286-.5.136-.453.268-.907.406-1.36a.489.489,0,0,0,.026-.116.2.2,0,0,0-.2-.238c-.08-.006-.159,0-.239,0-.046,0-.1.008-.134-.034,0-.294,0-.589,0-.883,0-.118,0-.119-.119-.119h-1.7l-.155,0a.181.181,0,0,1,.116-.016h3.123a1.035,1.035,0,0,1,.295.042.5.5,0,0,1,.376.456,1.665,1.665,0,0,1-.085.659q-.411,1.369-.825,2.738a.566.566,0,0,1-.564.428c-.155,0-.311,0-.466,0" transform="translate(-407.352 -890.141)" fill="#0f0f10"/>
      <path id="Trazado_38598" data-name="Trazado 38598" d="M447.98,896.656c.057.042.123.02.184.021.157,0,.151-.012.151.147v.738l-.55,0c-.109,0-.109,0-.139.1l-.461,1.517a.333.333,0,0,0-.018.057c-.005.063-.042.073-.1.073-.239,0-.478,0-.718,0h-.392c.035-.12.067-.229.1-.339q.587-1.946,1.174-3.891a.405.405,0,0,1,.023-.053.208.208,0,0,1,.115-.024c.286,0,.572,0,.858,0,.1,0,.1,0,.1.108,0,.222,0,.444,0,.667,0,.076.014.117-.1.109a.063.063,0,0,0-.063.024c.038.069,0,.13-.021.193a4.073,4.073,0,0,0-.147.55" transform="translate(-409.449 -890.152)" fill="#111212"/>
      <path id="Trazado_38599" data-name="Trazado 38599" d="M431.9,896.64a.514.514,0,0,1,.024.187c0,.239,0,.478,0,.717l-.595,0c-.021.013-.017.037-.024.055-.051.225-.129.442-.194.663-.094.316-.192.631-.288.947-.012.042-.017.082-.08.082-.371,0-.742,0-1.112,0-.019-.036,0-.065.007-.093l1.24-4.119c.006-.019.013-.038.017-.057a.07.07,0,0,1,.083-.063c.083,0,.167,0,.251,0,.033.033.075.02.113.021.162,0,.325,0,.488,0,.09,0,.093,0,.093.1,0,.229,0,.46,0,.689,0,.056,0,.1-.078.1-.029,0-.039.021-.042.047.034.041.015.083,0,.125-.038.142-.086.282-.125.424-.034.124-.03.129.094.136.043,0,.089-.005.122.034" transform="translate(-403.362 -890.137)" fill="#010202"/>
      <path id="Trazado_38600" data-name="Trazado 38600" d="M415.143,889.614a2.124,2.124,0,0,1,.258-.341c.136-.175.28-.344.423-.515s.266-.315.4-.474.256-.313.385-.47l.281-.338a.568.568,0,0,0,.046-.055c.048-.075.032-.105-.06-.105h-1.006c-.043,0-.089.015-.125-.021.043,0,.087,0,.131,0h2.483c.207,0,.414,0,.621,0,.04,0,.08,0,.119.006.046.072-.006.121-.044.169l-1,1.217c-.233.283-.467.565-.7.849-.033.04-.062.084-.12.093a.342.342,0,0,1-.071.007c-.614,0-1.228.041-1.843.024-.059,0-.122.01-.171-.036" transform="translate(-397.959 -887.272)" fill="#181818"/>
      <path id="Trazado_38601" data-name="Trazado 38601" d="M419.035,887.289a.635.635,0,0,1-.137.221c-.173.211-.346.424-.52.634-.132.159-.266.315-.4.474s-.253.306-.379.459l-.409.5-.38.458-.416.5-.469.57-.416.5-.384.47-.387.468-.4.475-.416.5c-.157.189-.313.38-.469.57l-.294.359c-.167.2-.335.4-.5.606a.716.716,0,0,1-.15.151l-.013-.009a.465.465,0,0,1-.04-.053,4.266,4.266,0,0,1-.169-.4.1.1,0,0,1,0-.081.466.466,0,0,0,.18-.148q1.174-1.424,2.348-2.848c.352-.428.707-.851,1.053-1.283.041-.051.129-.09.087-.184a.073.073,0,0,1,.02-.076c.13-.135.261-.268.387-.407a.206.206,0,0,0,.137-.086q.555-.674,1.11-1.349c.213-.258.424-.518.643-.772a1.04,1.04,0,0,0,.132-.224q.323-.016.647,0" transform="translate(-396.892 -887.271)" fill="#1b1b1b"/>
      <path id="Trazado_38602" data-name="Trazado 38602" d="M463.638,897.558a.633.633,0,0,1-.606-.469.881.881,0,0,1,.023-.436q.182-.636.367-1.27a.494.494,0,0,1,.481-.391,5.269,5.269,0,0,1,.629,0,.189.189,0,0,1,.038.146c0,.207,0,.414,0,.621a.313.313,0,0,1-.083.229.927.927,0,0,0-.144.554.52.52,0,0,1,.036.21c0,.215,0,.43,0,.645a.246.246,0,0,1-.032.161,5.062,5.062,0,0,1-.71,0" transform="translate(-415.819 -890.144)" fill="#282827"/>
      <path id="Trazado_38603" data-name="Trazado 38603" d="M427.337,896.068c-.041.206-.11.4-.167.606-.133.465-.268.928-.4,1.392-.006.023-.006.048-.026.065-.072-.036-.064-.1-.065-.167,0-.214,0-.43,0-.645v-2.387c0-.04,0-.08,0-.12,0-.151-.016-.164-.163-.167-.06,0-.12,0-.179,0-.256,0-.511.005-.767,0-.2,0-.4,0-.6,0s-.384,0-.576,0c-.171.005-.342,0-.513,0a.213.213,0,0,1-.127-.027c-.023-.047.017-.053.043-.06a.594.594,0,0,1,.167-.01h2.491c.2,0,.2,0,.263-.187.081-.237.169-.471.253-.711-.145-.036-.293.032-.426-.046.138-.088.109-.227.11-.358,0-.265,0-.53,0-.8,0-.058-.009-.12.039-.169.187-.012.374,0,.561-.006.062,0,.085.03.093.084a.911.911,0,0,1,.006.131q0,1.665,0,3.33a1.734,1.734,0,0,1-.014.248" transform="translate(-401.168 -889.134)" fill="#e22325"/>
      <path id="Trazado_38604" data-name="Trazado 38604" d="M458.295,896.069c-.052.236-.133.465-.2.7q-.363,1.215-.733,2.427c-.011.037.008.107-.073.1-.066-.051-.061-.125-.061-.2,0-.322,0-.644,0-.967q0-1.427,0-2.852c0-.04,0-.08,0-.12,0-.09-.035-.129-.127-.129-.151,0-.3,0-.454,0-.258.006-.515,0-.773,0-.051,0-.115.016-.14-.056.194,0,.389,0,.583,0l1.262,0c.186.02.373,0,.559.009a.344.344,0,0,1,.141.01.113.113,0,0,1,.028.076c0,.335.018.67-.009,1" transform="translate(-413.102 -890.137)" fill="#1c1c1c"/>
      <path id="Trazado_38605" data-name="Trazado 38605" d="M414.523,900.6l.007,0v.008a.053.053,0,0,0,.019.036h0c.014.012.01.034.023.046h0c.014.012.01.034.024.046s.009.036.024.048.009.036.024.048h0c.013.014.008.036.024.048h0c.03.066-.019.107-.052.147q-.791.96-1.582,1.919c-.43.523-.87,1.039-1.288,1.572-.016.02-.031.037-.058.035h-.46c-.092-.019-.04-.071-.017-.1.084-.121.182-.232.276-.345.4-.476.787-.961,1.188-1.436a.5.5,0,0,0,.106-.172.281.281,0,0,0,.066-.338.5.5,0,0,1-.06-.24c.116-.029.176-.126.245-.21q.583-.708,1.169-1.416a.44.44,0,0,1,.108-.11,1.514,1.514,0,0,1,.145.282.066.066,0,0,0,.018.033.01.01,0,0,1,.006.015.063.063,0,0,0,.018.033l.007,0v.008a.053.053,0,0,0,.018.035" transform="translate(-396.48 -892.086)" fill="#262524"/>
      <path id="Trazado_38606" data-name="Trazado 38606" d="M456.885,895c.179,0,.359,0,.538,0,.06,0,.09.019.085.082,0,.031,0,.063,0,.1q0,1.969,0,3.938a.483.483,0,0,0,.024.187h-1.145c.055-.186.109-.367.164-.549q.275-.911.55-1.823a.255.255,0,0,1,.02-.042c.028-.02.009-.055.024-.079,0-.008,0-.013,0-.016.021-.02,0-.053.023-.072h0c.024-.019.006-.052.023-.075v0c.028-.021.009-.055.024-.08,0-.006,0-.011,0-.015.021-.02,0-.052.023-.072h0c.023-.021.006-.053.023-.075v0c.027-.021.008-.055.024-.079a.01.01,0,0,1,0-.016c.02-.02,0-.052.022-.072h0c.023-.02.005-.053.023-.074h0c.028-.02.008-.055.024-.079a.009.009,0,0,1,0-.016.155.155,0,0,0,.019-.06l0-.007.006-.005c.023-.021,0-.053.023-.075v0c.021-.037-.012-.036-.033-.043a3.067,3.067,0,0,1-.492,0,.187.187,0,0,1-.038-.123q0-.322,0-.644a.174.174,0,0,1,.038-.122" transform="translate(-413.347 -890.152)" fill="#1a1a1a"/>
      <path id="Trazado_38607" data-name="Trazado 38607" d="M415.926,902.481c.137.242.266.489.383.742.012.065-.039.1-.072.142-.51.615-1.014,1.235-1.53,1.846-.058.07-.083.174-.188.2h-.943c-.106-.014-.044-.073-.021-.106.093-.134.2-.256.305-.382.516-.621,1.026-1.247,1.543-1.867.14-.168.273-.342.419-.5.029-.032.052-.073.1-.072" transform="translate(-397.352 -892.942)" fill="#2b2b2a"/>
      <path id="Trazado_38608" data-name="Trazado 38608" d="M462.919,899.294c.036-.039.082-.018.123-.018q1.2,0,2.4,0a.716.716,0,0,0,.236-.026.335.335,0,0,0,.219-.2c.031-.082.062-.163.091-.245.041-.112.038-.12-.055-.2a8.476,8.476,0,0,1-.008-.865.1.1,0,0,1,.031-.074c.211-.016.422,0,.633-.008.068,0,.091.033.1.092a1.364,1.364,0,0,1,0,.143V900a.5.5,0,0,1-.015.154.5.5,0,0,1-.287.146,6.989,6.989,0,0,1-.769,0,.231.231,0,0,1-.036-.171c0-.219,0-.438,0-.656,0-.134-.01-.143-.142-.144-.323,0-.646,0-.969,0s-.637.005-.955,0c-.155.006-.31,0-.465,0a.176.176,0,0,1-.134-.036" transform="translate(-415.783 -891.141)" fill="#30302f"/>
      <path id="Trazado_38609" data-name="Trazado 38609" d="M427.365,896.062a1.434,1.434,0,0,1-.025-.355q0-1.618,0-3.237c0-.028,0-.056,0-.083,0-.1,0-.105-.108-.105l-.514,0c-.1.062-.216.025-.325.034a.963.963,0,0,1-.154,0c-.215,0-.43.005-.645,0q-.253.007-.505,0c-.207,0-.414.005-.621,0-.172.005-.343,0-.515,0-.048,0-.107.011-.133-.053.167-.011.335,0,.5,0h3.209c.091,0,.184-.006.275,0a.512.512,0,0,1,.458.277.394.394,0,0,1,.036.32c-.307,1.049-.609,2.1-.913,3.152a.366.366,0,0,1-.023.054" transform="translate(-401.197 -889.128)" fill="#e42225"/>
      <path id="Trazado_38610" data-name="Trazado 38610" d="M412.045,904.954c.005-.1.088-.147.14-.214.135-.176.28-.344.421-.515s.265-.316.4-.475.253-.305.379-.458l.408-.5.483-.589c.133-.162.269-.322.4-.486.1-.12.2-.233.292-.36a.131.131,0,0,0,.027-.065,4.5,4.5,0,0,1,.262.506.921.921,0,0,1-.231.323c-.586.708-1.167,1.419-1.755,2.127l-.531.644c-.031.037-.058.078-.115.073-.159,0-.318,0-.477,0-.034,0-.071.014-.1-.016" transform="translate(-396.804 -892.501)" fill="#292928"/>
      <path id="Trazado_38611" data-name="Trazado 38611" d="M415.179,905.837c0-.1.082-.143.132-.2.144-.178.29-.355.435-.532.171-.208.347-.411.518-.618s.318-.393.479-.589c.063-.076.131-.148.186-.231.154.274.3.552.431.838.011.041-.016.067-.038.095-.333.4-.663.795-.987,1.2a.119.119,0,0,1-.1.059c-.347,0-.694,0-1.041,0-.007,0-.013-.008-.018-.014" transform="translate(-397.973 -893.383)" fill="#2f2f2e"/>
      <path id="Trazado_38612" data-name="Trazado 38612" d="M415.082,899.733c-.029.1-.116.157-.176.234-.13.169-.269.33-.4.495l-.377.456c-.138.167-.278.334-.413.5-.04.049-.077.08-.139.038-.049-.016-.06-.061-.075-.1-.083-.219-.156-.441-.239-.66-.013-.032-.026-.068,0-.1a.212.212,0,0,0,.14-.083c.2-.243.393-.487.591-.729.13-.159.266-.315.4-.473.058-.07.113-.143.171-.212a.517.517,0,0,1,.139-.13c.109.215.219.43.328.645a.381.381,0,0,1,.053.119" transform="translate(-397.251 -891.632)" fill="#222322"/>
      <path id="Trazado_38613" data-name="Trazado 38613" d="M420.314,897.767a.177.177,0,0,1-.048-.153c0-.247,0-.494,0-.741q0-1.248,0-2.5c0-.057.019-.123-.057-.154.163-.206.332-.406.512-.6a.214.214,0,0,1,.038.169c0,.47.006.939,0,1.409a.487.487,0,0,0,.005.1.289.289,0,0,1-.022.162c-.05.164-.112.322-.17.483a1.008,1.008,0,0,0-.053.422.56.56,0,0,0,.168.384c.038.035.078.069.076.129,0,.234,0,.468,0,.7a.283.283,0,0,1-.027.162.77.77,0,0,1-.417.025" transform="translate(-399.849 -889.638)" fill="#c32628"/>
      <path id="Trazado_38614" data-name="Trazado 38614" d="M427.83,896c.092,0,.183,0,.275,0s.1.014.108.1c0,.027,0,.055,0,.083v3.164a.292.292,0,0,0,.028.174c-.034.186-.1.364-.149.547-.039.145-.082.288-.124.431a.332.332,0,0,1-.113.189c-.073-.064-.061-.152-.062-.234,0-.633,0-1.265,0-1.9a.234.234,0,0,0-.016-.127c-.028-.062,0-.115.022-.171a5.457,5.457,0,0,0,.219-.653.58.58,0,0,0-.185-.613c-.033-.027-.07-.056-.058-.108a5.962,5.962,0,0,0,.018-.7c0-.062-.011-.129.036-.182" transform="translate(-402.669 -890.523)" fill="#df2326"/>
      <path id="Trazado_38615" data-name="Trazado 38615" d="M405.339,906.335l1.029.005a.1.1,0,0,0,.089-.047c.217-.283.451-.552.677-.828q.193-.234.387-.466a2.392,2.392,0,0,1,.236.453.684.684,0,0,1-.373.817,1.354,1.354,0,0,1-.55.088l-5.078,0h-12.74a.552.552,0,0,1-.213-.018c.04,0,.079,0,.119,0h2.808c.031,0,.063,0,.1,0a.216.216,0,0,1,.137-.033c1.239,0,2.48,0,3.719,0q1.712,0,3.425,0c.543,0,1.086-.006,1.629,0,.343,0,.686-.006,1.029,0,.232,0,.463-.005.695,0a.942.942,0,0,1,.387.03h.526c.209.007.417.006.626,0a.359.359,0,0,1,.311,0h1.028" transform="translate(-388.133 -893.881)" fill="#323230"/>
      <path id="Trazado_38616" data-name="Trazado 38616" d="M427.343,899.845c.018,0,.041-.018.045.014s0,.063,0,.1v1.812a1.342,1.342,0,0,0,.024.354.856.856,0,0,1-.567.286c-.256.033-.263.028-.262-.228,0-.326-.008-.65.005-.975a.129.129,0,0,1,.07-.1.753.753,0,0,0,.345-.451c.06-.155.111-.313.181-.465a.448.448,0,0,0,.043-.069.16.16,0,0,1,.018-.024.078.078,0,0,0,.029-.075.11.11,0,0,1,0-.028c.006-.017.012-.034.017-.051a.164.164,0,0,1,.009-.025c.007-.016.013-.032.019-.048a.043.043,0,0,1,.018-.019" transform="translate(-402.227 -891.956)" fill="#dc2326"/>
      <path id="Trazado_38617" data-name="Trazado 38617" d="M423.635,892.264c.034.027.076.016.114.016.177,0,.354,0,.531,0a.144.144,0,0,1,.036.11c0,.365,0,.73,0,1.1a.184.184,0,0,1-.011.058.089.089,0,0,1-.028.037,1.387,1.387,0,0,1-.361.022,1.931,1.931,0,0,1-.477-.026.251.251,0,0,1-.034-.172c0-.295,0-.59,0-.885a.309.309,0,0,0-.082-.26,2.058,2.058,0,0,1,.312,0" transform="translate(-401.011 -889.128)" fill="#d02426"/>
      <path id="Trazado_38618" data-name="Trazado 38618" d="M468.454,900.144a.259.259,0,0,1-.023-.15q0-1.08,0-2.159c0-.028,0-.056,0-.084,0-.089,0-.092-.1-.092-.2,0-.4,0-.6,0a.036.036,0,0,1-.045.008.021.021,0,0,1-.008-.019c0-.007,0-.01.005-.01.246-.01.493-.007.74,0a.776.776,0,0,1,.176.031.61.61,0,0,1,.461.787c-.04.17-.1.335-.153.5-.1.3-.191.6-.288.9a.581.581,0,0,1-.169.293" transform="translate(-417.561 -891.132)" fill="#313130"/>
      <path id="Trazado_38619" data-name="Trazado 38619" d="M465.365,895.986a.781.781,0,0,0,.046-.3c0-.227,0-.454,0-.681.006-.005.013-.014.019-.014.37,0,.74-.011,1.111.006a.153.153,0,0,1,.034.111c0,.219,0,.438,0,.657a.186.186,0,0,1-.038.123c-.182.016-.365,0-.548.008-.124,0-.246,0-.37.006a.469.469,0,0,0-.253.089" transform="translate(-416.696 -890.145)" fill="#2c2c2b"/>
      <path id="Trazado_38620" data-name="Trazado 38620" d="M456.442,894.989v.889a.654.654,0,0,1-.178.007q-.471,0-.943,0a.218.218,0,0,1-.122-.013,1.309,1.309,0,0,1,.066-.236c.065-.208.118-.419.2-.622.01-.013.009-.031.021-.043a.064.064,0,0,1,.048,0c.037.035.083.02.125.02.261,0,.523,0,.785,0" transform="translate(-412.903 -890.138)" fill="#181818"/>
      <path id="Trazado_38621" data-name="Trazado 38621" d="M459.8,896.076a9.884,9.884,0,0,1-.026-1.081,4.728,4.728,0,0,1,.558-.011c.159,0,.318,0,.476,0,.066,0,.1.028.1.088q.014.369,0,.737a.131.131,0,0,1-.033.075c-.17.017-.34.005-.51.008-.139,0-.278,0-.416,0a.093.093,0,0,0-.114.087.164.164,0,0,1-.036.1" transform="translate(-414.611 -890.144)" fill="#212120"/>
      <path id="Trazado_38622" data-name="Trazado 38622" d="M424.37,903.22c-.256.008-.511.008-.767,0a.2.2,0,0,1-.038-.145q0-.469,0-.939a.217.217,0,0,1,.03-.137.132.132,0,0,1,.089-.029c.2,0,.408,0,.611,0a.133.133,0,0,1,.079.024.225.225,0,0,1,.034.148q0,.465,0,.93a.191.191,0,0,1-.038.145" transform="translate(-401.101 -892.751)" fill="#d02426"/>
      <path id="Trazado_38623" data-name="Trazado 38623" d="M413.354,905.256h-.311a.9.9,0,0,1,.155-.209c.214-.265.436-.523.649-.79.168-.211.347-.412.519-.619s.318-.394.48-.591c.13-.159.265-.316.4-.474.088-.107.181-.211.263-.322a1.279,1.279,0,0,0,.123-.145.647.647,0,0,1,.1.188c.014.013.008.037.025.048h0q-.207.228-.4.473c-.087.113-.184.218-.274.329-.171.207-.341.416-.512.623-.131.159-.264.316-.4.474s-.245.291-.366.438c-.133.162-.263.327-.4.489a.625.625,0,0,0-.057.09" transform="translate(-397.176 -892.802)" fill="#2a2a29"/>
      <path id="Trazado_38624" data-name="Trazado 38624" d="M420.724,887.289c.021.11-.058.175-.116.248-.169.209-.335.421-.514.622-.144.164-.27.341-.418.5-.085.093-.161.2-.241.293l-.408.5c-.06.073-.12.147-.179.221s-.078.076-.141.05c-.038-.065-.11-.091-.164-.139a1.149,1.149,0,0,1,.164-.218c.17-.213.344-.423.517-.633.134-.161.27-.32.4-.481l.364-.438c.1-.125.2-.251.308-.375a.21.21,0,0,0,.063-.148,2.006,2.006,0,0,1,.359,0" transform="translate(-399.228 -887.271)" fill="#1a1a1a"/>
      <path id="Trazado_38625" data-name="Trazado 38625" d="M467.233,895.884V895c.018-.022.043-.017.066-.017.295,0,.589,0,.883,0,.075,0,.114.025.116.1q.011.357,0,.715a.136.136,0,0,1-.035.087c-.241.016-.481.005-.722.007a1.852,1.852,0,0,1-.307-.007" transform="translate(-417.393 -890.145)" fill="#2f2f2e"/>
      <path id="Trazado_38626" data-name="Trazado 38626" d="M465.13,898.479q0-.507,0-1.014a.306.306,0,0,0,.236.11c.231.023.462,0,.693.011a.048.048,0,0,1,.04.021.27.27,0,0,1,.024.14c0,.207,0,.414,0,.621,0,.084-.026.13-.126.128-.263-.006-.527,0-.79,0-.027,0-.056.008-.08-.014" transform="translate(-416.608 -891.071)" fill="#2c2c2b"/>
      <path id="Trazado_38627" data-name="Trazado 38627" d="M467.218,895.88c0-.266,0-.532,0-.8,0-.084-.005-.089-.088-.089-.314,0-.628,0-.942,0q-.563-.01-1.127,0l-.629-.008a.2.2,0,0,1,.116-.014h3.53a.16.16,0,0,1,.092.01.076.076,0,0,1,0,.069q-.117.376-.234.752c-.013.041-.021.084-.083.082-.211-.006-.423.008-.633-.008" transform="translate(-416.348 -890.141)" fill="#323230"/>
      <path id="Trazado_38628" data-name="Trazado 38628" d="M422.982,892.268c.118.032.118.032.118.155v1.148c-.035.044-.085.037-.132.038-.107,0-.214,0-.322,0-.221,0-.231-.01-.232-.238,0-.27,0-.539,0-.809a.279.279,0,0,1,.014-.163,1.487,1.487,0,0,1,.554-.132" transform="translate(-400.67 -889.132)" fill="#cd2427"/>
      <path id="Trazado_38629" data-name="Trazado 38629" d="M460.469,895.876c0-.258,0-.516,0-.774,0-.112,0-.113-.112-.114h-.991c-.194,0-.387,0-.581,0-.038,0-.08.013-.113-.02.028,0,.056,0,.083,0h2.686c.018.045-.006.077-.016.109-.07.24-.143.48-.215.718-.028.092-.028.094-.121.092-.207,0-.414.011-.621-.007" transform="translate(-414.199 -890.137)" fill="#242423"/>
      <path id="Trazado_38630" data-name="Trazado 38630" d="M462.733,900.27l.6,0a.166.166,0,0,1,.038.132c0,.248,0,.5,0,.745a.178.178,0,0,1-.032.124,6.738,6.738,0,0,1-.914-.005c.1-.327.2-.656.3-.984,0-.006.011-.011.016-.016" transform="translate(-415.597 -892.117)" fill="#262524"/>
      <path id="Trazado_38631" data-name="Trazado 38631" d="M424.849,903.22V902a.125.125,0,0,1,.1-.033c.143,0,.286,0,.429,0a.113.113,0,0,1,.129.122c.007.337.006.675,0,1.013,0,.078-.038.113-.12.108a.913.913,0,0,0-.226.006,2.167,2.167,0,0,1-.312,0" transform="translate(-401.581 -892.751)" fill="#d42526"/>
      <path id="Trazado_38632" data-name="Trazado 38632" d="M423.261,902v1.219c-.192.008-.383.008-.575,0a.182.182,0,0,1-.038-.135q0-.478,0-.955a.223.223,0,0,1,.026-.127c.053-.05.12-.033.181-.034.107,0,.214,0,.32,0a.115.115,0,0,1,.085.032" transform="translate(-400.759 -892.751)" fill="#cd2426"/>
      <path id="Trazado_38633" data-name="Trazado 38633" d="M423.581,901.977h-.072a.027.027,0,0,1,.014-.038.382.382,0,0,1,.188-.023c.489,0,.979,0,1.468,0,.1,0,.2-.046.293.006,0,.361,0,.722,0,1.083,0,.028,0,.055,0,.083,0,.059.018.088.081.085.048,0,.1,0,.144,0a1.415,1.415,0,0,1-.333.013c-.235,0-.47,0-.705,0,.071-.038.149-.011.223-.018s.087-.006.088-.09q0-.507,0-1.014c0-.088,0-.091-.1-.091-.175,0-.35,0-.525,0h-.767" transform="translate(-401.079 -892.724)" fill="#d72326"/>
      <path id="Trazado_38634" data-name="Trazado 38634" d="M464.712,898.548c.286,0,.572,0,.858,0,.1,0,.1,0,.1-.1,0-.261,0-.523,0-.785a3.711,3.711,0,0,1,.646,0h.048c0,.27,0,.54,0,.811,0,.042.016.089-.024.124a.979.979,0,0,0-.283-.028q-.937,0-1.873,0a.334.334,0,0,1-.175-.018l.7-.006" transform="translate(-416.19 -891.14)" fill="#2e2d2c"/>
      <path id="Trazado_38635" data-name="Trazado 38635" d="M422.1,892.479a.627.627,0,0,1,.026.2c0,.287,0,.573,0,.86,0,.115,0,.117.121.117l.526,0,.479.01a.028.028,0,0,1-.016.035.378.378,0,0,1-.165.019c-.3,0-.591,0-.885,0a.707.707,0,0,0-.473.133.133.133,0,0,1-.1.036.107.107,0,0,1-.072-.112c-.009-.306,0-.612,0-.918a.072.072,0,0,1,.014-.033,1.321,1.321,0,0,1,.549-.34" transform="translate(-400.346 -889.21)" fill="#c72427"/>
      <path id="Trazado_38636" data-name="Trazado 38636" d="M421.028,903.218V902a.97.97,0,0,1,.533,0,.216.216,0,0,1,.031.137c0,.313,0,.628,0,.942a.2.2,0,0,1-.038.147c-.176,0-.352.007-.527,0" transform="translate(-400.155 -892.748)" fill="#c52527"/>
      <path id="Trazado_38637" data-name="Trazado 38637" d="M421.868,903.224V902a.081.081,0,0,1,.038-.025,3.315,3.315,0,0,1,.4-.007.105.105,0,0,1,.087.032v1.217a4.021,4.021,0,0,1-.527,0" transform="translate(-400.468 -892.751)" fill="#c92427"/>
      <path id="Trazado_38638" data-name="Trazado 38638" d="M421.362,893.022a.533.533,0,0,1,.024.186c0,.245,0,.49,0,.735,0,.051-.011.106.053.132a.033.033,0,0,1-.015.034c-.018.014,0,.036-.011.051-.093.208-.151.428-.226.642a.833.833,0,0,1-.056.144.459.459,0,0,0-.029.055l-.011.027c-.008.018-.014.036-.023.053a.041.041,0,0,1-.021.019c-.034-.037-.02-.083-.02-.125q0-.788,0-1.575a2.535,2.535,0,0,1,.337-.378" transform="translate(-400.153 -889.413)" fill="#c52627"/>
      <path id="Trazado_38639" data-name="Trazado 38639" d="M462.42,901.846h.908a.2.2,0,0,1,.136-.034c.274,0,.548,0,.823,0,.338-.007.676,0,1.014,0a.2.2,0,0,1,.135.034l.767.005c-.032.034-.074.023-.113.023q-1.781,0-3.562,0c-.037,0-.081.016-.109-.026" transform="translate(-415.597 -892.691)" fill="#cdecfb"/>
      <path id="Trazado_38640" data-name="Trazado 38640" d="M466.208,897.658c-.194,0-.388,0-.582,0-.038,0-.08.013-.113-.021q.348-.012.695,0c.008,0,.011.01.008.014s-.005.007-.008.007" transform="translate(-416.751 -891.132)" fill="#2e2d2c"/>
      <path id="Trazado_38641" data-name="Trazado 38641" d="M466.621,897.658v-.021c.224-.009.447-.008.671,0v.021h-.671Z" transform="translate(-417.165 -891.132)" fill="#30302f"/>
      <path id="Trazado_38642" data-name="Trazado 38642" d="M457.812,897.127c0,.029.009.06-.024.079a.1.1,0,0,1,.024-.079" transform="translate(-413.869 -890.944)" fill="#1c1c1c"/>
      <path id="Trazado_38643" data-name="Trazado 38643" d="M457.775,897.25c0,.028.007.057-.023.075a.086.086,0,0,1,.023-.075" transform="translate(-413.856 -890.99)" fill="#1c1c1c"/>
      <path id="Trazado_38644" data-name="Trazado 38644" d="M457.74,897.368c0,.026.005.055-.023.072a.082.082,0,0,1,.023-.072" transform="translate(-413.843 -891.034)" fill="#1c1c1c"/>
      <path id="Trazado_38645" data-name="Trazado 38645" d="M457.7,897.508c0,.03.01.061-.024.08a.1.1,0,0,1,.024-.08" transform="translate(-413.826 -891.086)" fill="#1c1c1c"/>
      <path id="Trazado_38646" data-name="Trazado 38646" d="M457.854,896.986c0,.027.005.054-.022.073a.081.081,0,0,1,.022-.073" transform="translate(-413.885 -890.892)" fill="#1c1c1c"/>
      <path id="Trazado_38647" data-name="Trazado 38647" d="M457.89,896.868c0,.028.007.056-.023.075a.086.086,0,0,1,.023-.075" transform="translate(-413.899 -890.848)" fill="#1c1c1c"/>
      <path id="Trazado_38648" data-name="Trazado 38648" d="M457.927,896.745c0,.03.009.061-.024.08a.1.1,0,0,1,.024-.08" transform="translate(-413.912 -890.802)" fill="#1c1c1c"/>
      <path id="Trazado_38649" data-name="Trazado 38649" d="M388.1,904.569c0,.029.009.06-.023.079a.1.1,0,0,1,.023-.079" transform="translate(-387.863 -893.721)" fill="#0d0d0d"/>
      <path id="Trazado_38650" data-name="Trazado 38650" d="M457.625,897.749c0,.026.005.055-.022.073a.082.082,0,0,1,.022-.073" transform="translate(-413.8 -891.176)" fill="#1c1c1c"/>
      <path id="Trazado_38651" data-name="Trazado 38651" d="M457.583,897.889c0,.03.009.061-.024.08a.1.1,0,0,1,.024-.08" transform="translate(-413.783 -891.229)" fill="#1c1c1c"/>
      <path id="Trazado_38652" data-name="Trazado 38652" d="M389.865,898.588c0,.026,0,.055-.022.073a.082.082,0,0,1,.022-.073" transform="translate(-388.521 -891.49)" fill="#0d0d0d"/>
      <path id="Trazado_38653" data-name="Trazado 38653" d="M389.823,898.73c0,.029.009.06-.024.079,0-.028,0-.058.024-.079" transform="translate(-388.504 -891.543)" fill="#0d0d0d"/>
      <path id="Trazado_38654" data-name="Trazado 38654" d="M388.182,904.309c0,.028.008.056-.022.075a.085.085,0,0,1,.022-.075" transform="translate(-387.892 -893.624)" fill="#0d0d0d"/>
      <path id="Trazado_38655" data-name="Trazado 38655" d="M389.788,898.853c0,.028.007.056-.022.075a.084.084,0,0,1,.022-.075" transform="translate(-388.491 -891.589)" fill="#0d0d0d"/>
      <path id="Trazado_38656" data-name="Trazado 38656" d="M388.218,904.184c0,.03.01.061-.024.081a.1.1,0,0,1,.024-.081" transform="translate(-387.905 -893.577)" fill="#0d0d0d"/>
      <path id="Trazado_38657" data-name="Trazado 38657" d="M458.005,896.487c0,.028.007.056-.023.075a.086.086,0,0,1,.023-.075" transform="translate(-413.942 -890.706)" fill="#1c1c1c"/>
      <path id="Trazado_38658" data-name="Trazado 38658" d="M388.259,904.044c0,.027.006.055-.022.073a.082.082,0,0,1,.022-.073" transform="translate(-387.921 -893.525)" fill="#0d0d0d"/>
      <path id="Trazado_38659" data-name="Trazado 38659" d="M388.3,903.92c0,.029.009.06-.023.079a.1.1,0,0,1,.023-.079" transform="translate(-387.935 -893.479)" fill="#0d0d0d"/>
      <path id="Trazado_38660" data-name="Trazado 38660" d="M388.373,903.66c0,.028.008.056-.022.075a.085.085,0,0,1,.022-.075" transform="translate(-387.964 -893.382)" fill="#0d0d0d"/>
      <path id="Trazado_38661" data-name="Trazado 38661" d="M389.71,899.114c0,.029.008.059-.023.078a.093.093,0,0,1,.023-.078" transform="translate(-388.462 -891.686)" fill="#0d0d0d"/>
      <path id="Trazado_38662" data-name="Trazado 38662" d="M389.674,899.237c0,.027.006.055-.022.073a.082.082,0,0,1,.022-.073" transform="translate(-388.449 -891.732)" fill="#0d0d0d"/>
      <path id="Trazado_38663" data-name="Trazado 38663" d="M389.632,899.378c0,.03.009.06-.024.08a.1.1,0,0,1,.024-.08" transform="translate(-388.433 -891.784)" fill="#0d0d0d"/>
      <path id="Trazado_38664" data-name="Trazado 38664" d="M389.6,899.5c0,.028.007.056-.022.075a.084.084,0,0,1,.022-.075" transform="translate(-388.42 -891.83)" fill="#0d0d0d"/>
      <path id="Trazado_38665" data-name="Trazado 38665" d="M388.409,903.536c0,.03.01.062-.024.08a.1.1,0,0,1,.024-.08" transform="translate(-387.977 -893.335)" fill="#0d0d0d"/>
      <path id="Trazado_38666" data-name="Trazado 38666" d="M389.519,899.762c0,.029.008.06-.023.078a.1.1,0,0,1,.023-.078" transform="translate(-388.391 -891.928)" fill="#0d0d0d"/>
      <path id="Trazado_38667" data-name="Trazado 38667" d="M457.966,896.42c.056.005.056.005.033.044a.07.07,0,0,0-.033-.044" transform="translate(-413.936 -890.681)" fill="#1c1c1c"/>
      <path id="Trazado_38668" data-name="Trazado 38668" d="M388.45,903.4c0,.027.006.055-.022.074a.082.082,0,0,1,.022-.074" transform="translate(-387.993 -893.283)" fill="#0d0d0d"/>
      <path id="Trazado_38669" data-name="Trazado 38669" d="M389.482,899.885c0,.027.006.055-.022.073a.082.082,0,0,1,.022-.073" transform="translate(-388.378 -891.973)" fill="#0d0d0d"/>
      <path id="Trazado_38670" data-name="Trazado 38670" d="M388.486,903.271c0,.029.009.06-.023.079a.1.1,0,0,1,.023-.079" transform="translate(-388.006 -893.237)" fill="#0d0d0d"/>
      <path id="Trazado_38671" data-name="Trazado 38671" d="M389.441,900.026c0,.03.01.061-.023.08a.1.1,0,0,1,.023-.08" transform="translate(-388.362 -892.026)" fill="#0d0d0d"/>
      <path id="Trazado_38672" data-name="Trazado 38672" d="M388.528,903.13c0,.026.005.054-.022.072a.081.081,0,0,1,.022-.072" transform="translate(-388.022 -893.184)" fill="#0d0d0d"/>
      <path id="Trazado_38673" data-name="Trazado 38673" d="M389.4,900.15c0,.028.007.056-.022.075a.084.084,0,0,1,.022-.075" transform="translate(-388.349 -892.072)" fill="#0d0d0d"/>
      <path id="Trazado_38674" data-name="Trazado 38674" d="M388.563,903.011c0,.028.008.056-.022.075a.087.087,0,0,1,.022-.075" transform="translate(-388.035 -893.14)" fill="#0d0d0d"/>
      <path id="Trazado_38675" data-name="Trazado 38675" d="M388.6,902.886c0,.03.011.062-.024.081a.105.105,0,0,1,.024-.081" transform="translate(-388.048 -893.093)" fill="#0d0d0d"/>
      <path id="Trazado_38676" data-name="Trazado 38676" d="M388.641,902.746c0,.028.006.056-.022.074a.085.085,0,0,1,.022-.074" transform="translate(-388.064 -893.041)" fill="#0d0d0d"/>
      <path id="Trazado_38677" data-name="Trazado 38677" d="M388.677,902.621c0,.03.009.061-.023.08a.1.1,0,0,1,.023-.08" transform="translate(-388.077 -892.994)" fill="#0d0d0d"/>
      <path id="Trazado_38678" data-name="Trazado 38678" d="M389.327,900.411c0,.029.008.059-.023.078a.092.092,0,0,1,.023-.078" transform="translate(-388.32 -892.17)" fill="#0d0d0d"/>
      <path id="Trazado_38679" data-name="Trazado 38679" d="M389.291,900.534c0,.027.006.055-.022.073a.083.083,0,0,1,.022-.073" transform="translate(-388.306 -892.216)" fill="#0d0d0d"/>
      <path id="Trazado_38680" data-name="Trazado 38680" d="M389.25,900.674c0,.029.01.061-.023.08a.1.1,0,0,1,.023-.08" transform="translate(-388.291 -892.268)" fill="#0d0d0d"/>
      <path id="Trazado_38681" data-name="Trazado 38681" d="M388.718,902.48c0,.027.006.055-.022.073a.083.083,0,0,1,.022-.073" transform="translate(-388.093 -892.941)" fill="#0d0d0d"/>
      <path id="Trazado_38682" data-name="Trazado 38682" d="M389.214,900.8c0,.028.007.056-.022.075a.084.084,0,0,1,.022-.075" transform="translate(-388.277 -892.314)" fill="#0d0d0d"/>
      <path id="Trazado_38683" data-name="Trazado 38683" d="M388.754,902.362c0,.028.008.057-.022.075a.087.087,0,0,1,.022-.075" transform="translate(-388.106 -892.898)" fill="#0d0d0d"/>
      <path id="Trazado_38684" data-name="Trazado 38684" d="M457.661,897.631c0,.028.008.056-.023.075a.086.086,0,0,1,.023-.075" transform="translate(-413.813 -891.132)" fill="#1c1c1c"/>
      <path id="Trazado_38685" data-name="Trazado 38685" d="M388.79,902.237c0,.03.011.062-.024.081,0-.029,0-.059.024-.081" transform="translate(-388.119 -892.851)" fill="#0d0d0d"/>
      <path id="Trazado_38686" data-name="Trazado 38686" d="M388.831,902.1c0,.028.007.056-.022.075a.084.084,0,0,1,.022-.075" transform="translate(-388.135 -892.798)" fill="#0d0d0d"/>
      <path id="Trazado_38687" data-name="Trazado 38687" d="M389.137,901.06c0,.029.008.059-.023.078a.091.091,0,0,1,.023-.078" transform="translate(-388.249 -892.412)" fill="#0d0d0d"/>
      <path id="Trazado_38688" data-name="Trazado 38688" d="M388.868,901.973c0,.03.009.06-.024.08a.1.1,0,0,1,.024-.08" transform="translate(-388.148 -892.752)" fill="#0d0d0d"/>
      <path id="Trazado_38689" data-name="Trazado 38689" d="M389.1,901.183c0,.027.006.055-.022.073a.082.082,0,0,1,.022-.073" transform="translate(-388.235 -892.458)" fill="#0d0d0d"/>
      <path id="Trazado_38690" data-name="Trazado 38690" d="M389.059,901.324c0,.03.009.06-.024.08a.1.1,0,0,1,.024-.08" transform="translate(-388.219 -892.51)" fill="#0d0d0d"/>
      <path id="Trazado_38691" data-name="Trazado 38691" d="M389.022,901.448c0,.028.007.056-.022.075a.084.084,0,0,1,.022-.075" transform="translate(-388.206 -892.556)" fill="#0d0d0d"/>
      <path id="Trazado_38692" data-name="Trazado 38692" d="M388.946,901.709c0,.029.008.059-.023.078a.093.093,0,0,1,.023-.078" transform="translate(-388.177 -892.654)" fill="#0d0d0d"/>
      <path id="Trazado_38693" data-name="Trazado 38693" d="M388.909,901.832c0,.026.006.055-.022.073a.082.082,0,0,1,.022-.073" transform="translate(-388.164 -892.7)" fill="#0d0d0d"/>
      <path id="Trazado_38694" data-name="Trazado 38694" d="M388.985,901.588a.054.054,0,0,1-.018.058.055.055,0,0,1,.018-.058" transform="translate(-388.193 -892.609)" fill="#0d0d0d"/>
      <path id="Trazado_38695" data-name="Trazado 38695" d="M416.734,901.27a.046.046,0,0,1-.024-.048.05.05,0,0,1,.024.048" transform="translate(-398.544 -892.472)" fill="#292928"/>
      <path id="Trazado_38696" data-name="Trazado 38696" d="M416.7,901.194a.047.047,0,0,1-.025-.048.05.05,0,0,1,.025.048" transform="translate(-398.529 -892.444)" fill="#292928"/>
      <path id="Trazado_38697" data-name="Trazado 38697" d="M416.657,901.119a.047.047,0,0,1-.024-.048.048.048,0,0,1,.024.048" transform="translate(-398.515 -892.416)" fill="#292928"/>
      <path id="Trazado_38698" data-name="Trazado 38698" d="M416.618,901.042a.048.048,0,0,1-.024-.047.05.05,0,0,1,.024.047" transform="translate(-398.501 -892.388)" fill="#292928"/>
      <path id="Trazado_38699" data-name="Trazado 38699" d="M388.143,904.448a.055.055,0,0,1-.019.059.056.056,0,0,1,.019-.059" transform="translate(-387.879 -893.676)" fill="#0d0d0d"/>
      <path id="Trazado_38700" data-name="Trazado 38700" d="M389.176,900.939a.054.054,0,0,1-.018.058.056.056,0,0,1,.018-.058" transform="translate(-388.264 -892.367)" fill="#0d0d0d"/>
      <path id="Trazado_38701" data-name="Trazado 38701" d="M455.64,894.974a.046.046,0,0,1-.022.043c0-.018-.006-.039.022-.043" transform="translate(-413.059 -890.141)" fill="#1c1c1c"/>
      <path id="Trazado_38702" data-name="Trazado 38702" d="M416.579,900.967a.049.049,0,0,1-.024-.047.048.048,0,0,1,.024.047" transform="translate(-398.486 -892.36)" fill="#292928"/>
      <path id="Trazado_38703" data-name="Trazado 38703" d="M457.966,896.625a.056.056,0,0,1-.019.06.06.06,0,0,1,.019-.06" transform="translate(-413.928 -890.757)" fill="#1c1c1c"/>
      <path id="Trazado_38704" data-name="Trazado 38704" d="M417.346,902.453a.046.046,0,0,1-.026-.048.049.049,0,0,1,.026.048" transform="translate(-398.772 -892.914)" fill="#2b2b2a"/>
      <path id="Trazado_38705" data-name="Trazado 38705" d="M389.749,898.994a.054.054,0,0,1-.018.058.055.055,0,0,1,.018-.058" transform="translate(-388.478 -891.641)" fill="#0d0d0d"/>
      <path id="Trazado_38706" data-name="Trazado 38706" d="M389.367,900.29a.054.054,0,0,1-.018.058.056.056,0,0,1,.018-.058" transform="translate(-388.336 -892.125)" fill="#0d0d0d"/>
      <path id="Trazado_38707" data-name="Trazado 38707" d="M432.307,899.144c0-.023,0-.044.024-.056-.006.019,0,.043-.024.056" transform="translate(-404.363 -891.676)" fill="#060707"/>
      <path id="Trazado_38708" data-name="Trazado 38708" d="M389.558,899.642a.053.053,0,0,1-.018.058.055.055,0,0,1,.018-.058" transform="translate(-388.407 -891.883)" fill="#0d0d0d"/>
      <path id="Trazado_38709" data-name="Trazado 38709" d="M388.334,903.8a.055.055,0,0,1-.019.059.057.057,0,0,1,.019-.059" transform="translate(-387.951 -893.434)" fill="#0d0d0d"/>
      <path id="Trazado_38710" data-name="Trazado 38710" d="M416.426,900.669l-.018-.033a.03.03,0,0,1,.018.033" transform="translate(-398.431 -892.254)" fill="#292928"/>
      <path id="Trazado_38711" data-name="Trazado 38711" d="M416.465,900.746a.039.039,0,0,1-.019-.033.03.03,0,0,1,.019.033" transform="translate(-398.446 -892.282)" fill="#292928"/>
      <path id="Trazado_38712" data-name="Trazado 38712" d="M416.5,900.82a.039.039,0,0,1-.018-.035.033.033,0,0,1,.018.035" transform="translate(-398.46 -892.309)" fill="#292928"/>
      <path id="Trazado_38713" data-name="Trazado 38713" d="M416.542,900.9a.041.041,0,0,1-.019-.035.035.035,0,0,1,.019.035" transform="translate(-398.474 -892.338)" fill="#292928"/>
      <path id="Trazado_38714" data-name="Trazado 38714" d="M396.451,890.983c.263.006.526,0,.789-.009a6.823,6.823,0,0,1,.847.028,3.164,3.164,0,0,1,.749.139,2.651,2.651,0,0,1,1.153.735c.023.005.017.033.034.042v0c.006.009.014.017.021.025a.053.053,0,0,1,.022.028l0,0c.02.008.013.033.029.043h0a.208.208,0,0,1,.02.028h0c.018.009.012.034.028.045h0c.006.009.017.016.019.029v0c.02.009.015.033.028.047h0c.016.011.011.034.026.047s.009.034.024.046h0c.013.013.009.035.023.048s.011.035.022.05h0a.755.755,0,0,1,.149.433,3.172,3.172,0,0,1-1.58,3.165,4.771,4.771,0,0,1-1.742.564.7.7,0,0,1-.273-.008.216.216,0,0,0-.129,0c-.28,0-.559,0-.838.009-.176,0-.351.012-.527.017a.612.612,0,0,0-.209.046.438.438,0,0,0-.277.291q-.278.906-.56,1.812c-.012.038-.021.077-.036.114a.422.422,0,0,1-.432.293c-.395,0-.791-.007-1.185,0a.844.844,0,0,1-.142-.013c-.219-.032-.268-.114-.2-.328.076-.239.155-.476.229-.716q.436-1.413.87-2.827a.45.45,0,0,0,.009-.058l.006-.005,0-.008c.014-.025,0-.06.025-.081v0c.016-.023,0-.055.023-.075h0c.019-.021,0-.053.023-.074l.006-.005,0-.008c.014-.026,0-.06.024-.081v0c.016-.023,0-.055.022-.075h0c.019-.021,0-.053.023-.073l.006-.005,0-.008a.219.219,0,0,1,.019-.06c.008,0,.009-.009,0-.016.016-.024,0-.057.023-.078h0c.019-.021,0-.053.022-.074l.006-.005,0-.007c.014-.026,0-.06.025-.082v0c.016-.023,0-.055.023-.075h0c.019-.021,0-.053.023-.074l.006-.005,0-.008c.014-.025,0-.06.024-.081v0c.016-.023,0-.055.022-.075h0c.019-.021,0-.053.022-.073l.006-.006,0-.008a.23.23,0,0,1,.019-.058c.085-.223.142-.454.211-.683q.273-.9.534-1.805a.488.488,0,0,1,.517-.384c.466.005.933-.013,1.4-.027" transform="translate(-389.426 -888.647)" fill="#fff"/>
      <path id="Trazado_38715" data-name="Trazado 38715" d="M394.184,897.255a.084.084,0,0,1-.022.074c0-.028-.006-.056.022-.074" transform="translate(-390.132 -890.992)" fill="#0d0d0d"/>
      <path id="Trazado_38716" data-name="Trazado 38716" d="M394.148,897.37a.089.089,0,0,1-.023.076c0-.028-.009-.058.023-.076" transform="translate(-390.118 -891.035)" fill="#0d0d0d"/>
      <path id="Trazado_38717" data-name="Trazado 38717" d="M394.113,897.487c0,.029,0,.059-.025.081,0-.03-.011-.063.025-.081" transform="translate(-390.103 -891.079)" fill="#0d0d0d"/>
      <path id="Trazado_38718" data-name="Trazado 38718" d="M394.228,897.1c0,.029,0,.059-.025.081,0-.03-.011-.063.025-.081" transform="translate(-390.146 -890.936)" fill="#0d0d0d"/>
      <path id="Trazado_38719" data-name="Trazado 38719" d="M394.263,896.989a.088.088,0,0,1-.023.075c0-.028-.009-.058.023-.075" transform="translate(-390.161 -890.893)" fill="#0d0d0d"/>
      <path id="Trazado_38720" data-name="Trazado 38720" d="M394.3,896.873a.081.081,0,0,1-.023.074c0-.028-.006-.056.023-.074" transform="translate(-390.174 -890.85)" fill="#0d0d0d"/>
      <path id="Trazado_38721" data-name="Trazado 38721" d="M394.378,896.607a.094.094,0,0,1-.023.078c0-.028-.009-.06.023-.078" transform="translate(-390.203 -890.751)" fill="#0d0d0d"/>
      <path id="Trazado_38722" data-name="Trazado 38722" d="M394.414,896.492a.081.081,0,0,1-.023.074c0-.028-.006-.056.023-.074" transform="translate(-390.217 -890.708)" fill="#0d0d0d"/>
      <path id="Trazado_38723" data-name="Trazado 38723" d="M394.457,896.342a.11.11,0,0,1-.025.082c0-.03-.011-.063.025-.082" transform="translate(-390.232 -890.651)" fill="#0d0d0d"/>
      <path id="Trazado_38724" data-name="Trazado 38724" d="M394.492,896.226a.088.088,0,0,1-.023.075c0-.028-.009-.057.023-.075" transform="translate(-390.246 -890.608)" fill="#0d0d0d"/>
      <path id="Trazado_38725" data-name="Trazado 38725" d="M394.528,896.11a.083.083,0,0,1-.023.074c0-.028-.006-.056.023-.074" transform="translate(-390.26 -890.565)" fill="#0d0d0d"/>
      <path id="Trazado_38726" data-name="Trazado 38726" d="M394.643,895.728a.083.083,0,0,1-.022.074c0-.028-.006-.056.022-.074" transform="translate(-390.303 -890.422)" fill="#0d0d0d"/>
      <path id="Trazado_38727" data-name="Trazado 38727" d="M394.607,895.844a.088.088,0,0,1-.023.075c0-.028-.009-.058.023-.075" transform="translate(-390.289 -890.466)" fill="#0d0d0d"/>
      <path id="Trazado_38728" data-name="Trazado 38728" d="M394.572,895.96c0,.029,0,.059-.025.081,0-.03-.011-.063.025-.081" transform="translate(-390.275 -890.509)" fill="#0d0d0d"/>
      <path id="Trazado_38729" data-name="Trazado 38729" d="M394.68,895.614a.058.058,0,0,1-.018.058.053.053,0,0,1,.018-.058" transform="translate(-390.318 -890.38)" fill="#0d0d0d"/>
      <path id="Trazado_38730" data-name="Trazado 38730" d="M394.337,896.759a.06.06,0,0,1-.019.06.057.057,0,0,1,.019-.06" transform="translate(-390.19 -890.807)" fill="#0d0d0d"/>
      <path id="Trazado_38731" data-name="Trazado 38731" d="M397.21,896.9a.572.572,0,0,1,.188-.016,4.027,4.027,0,0,0,2.643-1.115,3.011,3.011,0,0,0,.818-1.537,2.818,2.818,0,0,0,.051-1.019,3.48,3.48,0,0,0-.125-.471.118.118,0,0,0,.089-.053c.178-.226.374-.439.54-.674.062.021.06.079.074.127.238.79.465,1.584.722,2.367a2.572,2.572,0,0,1,.171.547.541.541,0,0,1-.184.482c-.25.223-.493.453-.739.68l-1.246,1.153c-.252.233-.5.467-.754.7-.4.37-.8.747-1.2,1.11-.124.11-.145.159-.1.255a.214.214,0,0,0,.139.021c.223,0,.446,0,.67,0,.046,0,.1-.01.127.043s-.016.091-.046.127q-.62.758-1.248,1.51a1.651,1.651,0,0,1-.317.354c-.036,0-.072,0-.107,0h-3.644c-.036,0-.071,0-.107,0a.389.389,0,0,1,.105-.156q.284-.337.561-.679c.162-.2.331-.4.5-.594s.339-.419.511-.626.349-.412.521-.619.318-.4.478-.592c.131-.16.266-.315.4-.475s.256-.313.384-.47c.07-.086.144-.169.211-.258.02-.026.06-.052.041-.093s-.063-.019-.1-.027l-.024,0" transform="translate(-389.932 -889.037)" fill="#131313"/>
      <path id="Trazado_38732" data-name="Trazado 38732" d="M400.783,899.067c-.059-.085-.061-.1-.008-.179a.65.65,0,0,1,.087-.1q1.963-1.819,3.926-3.633a.577.577,0,0,0,.223-.392.67.67,0,0,0-.043-.281c-.249-.66-.435-1.339-.641-2.012-.082-.269-.16-.54-.239-.811a.067.067,0,0,0-.021-.041.01.01,0,0,0,0-.016c-.019-.021,0-.053-.022-.074v0c-.023-.023-.008-.055-.023-.08,0-.006,0-.011,0-.015-.018-.023-.005-.055-.02-.079a.01.01,0,0,0,0-.016.543.543,0,0,1,0-.24L404,891.1l0-.008a.137.137,0,0,1,.051-.08.67.67,0,0,1,.314-.036c.316-.01.633-.013.949-.018.231,0,.463.007.694,0a.421.421,0,0,1,.434.318c.19.619.362,1.244.542,1.866.048.166.128.2.282.124a1.308,1.308,0,0,0,.314-.255c.448-.443.883-.9,1.318-1.354.091-.095.186-.186.271-.286a1.153,1.153,0,0,1,.6-.386c.393,0,.786,0,1.179-.008.318,0,.635-.014.952-.021.139.024.146.03.164.139a1.682,1.682,0,0,1-.246.3,1.315,1.315,0,0,0-.165.184c0,.055-.045.082-.077.115-.613.621-1.228,1.24-1.835,1.864-.55.565-1.112,1.118-1.666,1.678a.543.543,0,0,0-.134.6c.021.063.066.121.051.193a3.947,3.947,0,0,0,.2.5c.014.015.01.036.02.052h0c.079.251.186.493.276.74a1.856,1.856,0,0,0,.113.285c.083.236.165.471.25.706a.629.629,0,0,0,.06.155c.019.11.071.21.1.318a.215.215,0,0,1-.1.275.116.116,0,0,1-.038.028.243.243,0,0,1-.082.011c-.636,0-1.273,0-1.909,0a.255.255,0,0,1-.1-.032.625.625,0,0,1-.261-.356c-.1-.3-.2-.611-.315-.91-.1-.276-.2-.554-.312-.826a.587.587,0,0,0-.056-.119.163.163,0,0,0-.247-.055.314.314,0,0,0-.085.065,5,5,0,0,1-.444.433c-.539.543-1.1,1.059-1.661,1.584a.777.777,0,0,1-.544.215c-.327,0-.655.018-.981-.005-.362-.026-.723.007-1.085-.026" transform="translate(-392.585 -888.641)" fill="#fff"/>
      <path id="Trazado_38733" data-name="Trazado 38733" d="M405.914,891.188a1.17,1.17,0,0,0,0,.239.271.271,0,0,1,0-.239" transform="translate(-394.506 -888.729)" fill="#131313"/>
      <path id="Trazado_38734" data-name="Trazado 38734" d="M405.988,891.04l-.051.08a.063.063,0,0,1,.051-.08" transform="translate(-394.524 -888.673)" fill="#131313"/>
      <path id="Trazado_38735" data-name="Trazado 38735" d="M405.934,891.6a.094.094,0,0,1,.02.079c-.028-.021-.022-.051-.02-.079" transform="translate(-394.523 -888.881)" fill="#131313"/>
      <path id="Trazado_38736" data-name="Trazado 38736" d="M406.009,891.871a.085.085,0,0,1,.022.074c-.028-.019-.023-.047-.022-.074" transform="translate(-394.552 -888.984)" fill="#131313"/>
      <path id="Trazado_38737" data-name="Trazado 38737" d="M405.973,891.746a.1.1,0,0,1,.023.08c-.033-.019-.025-.05-.023-.08" transform="translate(-394.538 -888.937)" fill="#131313"/>
      <path id="Trazado_38738" data-name="Trazado 38738" d="M404.73,892.609a.051.051,0,0,1-.029-.043c.023.006.028.023.029.043" transform="translate(-394.064 -889.243)" fill="#131313"/>
      <path id="Trazado_38739" data-name="Trazado 38739" d="M404.808,892.723a.05.05,0,0,1-.028-.045.043.043,0,0,1,.028.045" transform="translate(-394.093 -889.285)" fill="#131313"/>
      <path id="Trazado_38740" data-name="Trazado 38740" d="M404.881,892.842a.053.053,0,0,1-.028-.047c.024.007.028.026.028.047" transform="translate(-394.121 -889.328)" fill="#131313"/>
      <path id="Trazado_38741" data-name="Trazado 38741" d="M404.613,892.456a.056.056,0,0,1-.033-.042c.024,0,.031.021.033.042" transform="translate(-394.019 -889.186)" fill="#131313"/>
      <path id="Trazado_38742" data-name="Trazado 38742" d="M405.036,893.146a.05.05,0,0,1-.023-.05.046.046,0,0,1,.023.05" transform="translate(-394.18 -889.44)" fill="#131313"/>
      <path id="Trazado_38743" data-name="Trazado 38743" d="M405,893.068a.047.047,0,0,1-.023-.048.048.048,0,0,1,.023.048" transform="translate(-394.167 -889.412)" fill="#131313"/>
      <path id="Trazado_38744" data-name="Trazado 38744" d="M404.922,892.915a.051.051,0,0,1-.026-.047.044.044,0,0,1,.026.047" transform="translate(-394.137 -889.356)" fill="#131313"/>
      <path id="Trazado_38745" data-name="Trazado 38745" d="M404.962,892.99a.05.05,0,0,1-.024-.046.046.046,0,0,1,.024.046" transform="translate(-394.152 -889.384)" fill="#131313"/>
      <path id="Trazado_38746" data-name="Trazado 38746" d="M404.657,892.51a.025.025,0,0,1-.021-.025l.021.025" transform="translate(-394.04 -889.213)" fill="#131313"/>
      <path id="Trazado_38747" data-name="Trazado 38747" d="M404.69,892.553a.027.027,0,0,1-.021-.028.032.032,0,0,1,.021.028" transform="translate(-394.052 -889.228)" fill="#131313"/>
      <path id="Trazado_38748" data-name="Trazado 38748" d="M404.845,892.781a.026.026,0,0,1-.019-.029l.019.029" transform="translate(-394.11 -889.312)" fill="#131313"/>
      <path id="Trazado_38749" data-name="Trazado 38749" d="M404.77,892.665a.025.025,0,0,1-.02-.028l.02.028" transform="translate(-394.082 -889.269)" fill="#131313"/>
      <path id="Trazado_38750" data-name="Trazado 38750" d="M420.584,895.59a.015.015,0,0,0,.005-.019c.011-.016.009-.036.019-.052a.013.013,0,0,0,0-.018c.01-.017.008-.037.019-.053a5.546,5.546,0,0,0,.184-.535,1.611,1.611,0,0,1,.125-.3.015.015,0,0,1,.014-.019.027.027,0,0,0,.019-.026.727.727,0,0,1,.552-.2c.318,0,.636,0,.954,0a.338.338,0,0,0,.118-.008,3.045,3.045,0,0,0,.365,0,.377.377,0,0,1,.165-.018c.477-.005.955,0,1.432,0,.129,0,.258-.007.387,0a.234.234,0,0,1,.125.021c.15.021.3,0,.454.012.019.035,0,.063-.013.09q-.143.4-.289.808c-.033.092-.034.092-.136.092h-2.632a.6.6,0,0,0-.2.015.067.067,0,0,1-.048.031.4.4,0,0,0-.327.361c-.006.027-.012.054-.016.081-.033.208-.01.241.2.28.479.016.959.007,1.437,0,.268,0,.535,0,.8,0a.97.97,0,0,1,.387.062.181.181,0,0,1,.12.09.609.609,0,0,1,.287.543,1.087,1.087,0,0,1-.043.258c-.055.2-.139.389-.206.584a.415.415,0,0,0-.039.124c-.007,0-.008.008,0,.015a.187.187,0,0,1-.021.056c-.023.019,0,.053-.026.071h0c-.017.04,0,.093-.046.122h0c-.023.018,0,.053-.026.07-.076.156-.124.323-.187.484a1.708,1.708,0,0,1-.1.226.62.62,0,0,1-.309.265,1.6,1.6,0,0,1-.4.031h-1.429c-.044,0-.087,0-.131,0-.335.018-.671,0-1.006.007h-1.176a.353.353,0,0,1-.118-.007c-.014-.008-.044,0-.034-.034s.018-.053.028-.079l.328-.934a.467.467,0,0,0,.014-.058c.032-.033.073-.021.112-.022l.3-.005a.2.2,0,0,1,.135-.034c.194,0,.387,0,.581,0,.177,0,.354,0,.53,0,.314,0,.628-.006.942,0,.107,0,.216.005.323,0a.422.422,0,0,0,.387-.256c.034-.076.067-.153.1-.231a.117.117,0,0,0-.077-.171.688.688,0,0,0-.26-.036q-.958,0-1.916,0h-.25c-.027,0-.054,0-.08,0a1.512,1.512,0,0,1-.283-.079c-.04-.016-.082-.03-.1-.076a.729.729,0,0,1-.235-.846c.06-.19.128-.377.191-.565a.366.366,0,0,0,.033-.114" transform="translate(-399.691 -889.902)" fill="#fff"/>
      <path id="Trazado_38751" data-name="Trazado 38751" d="M419.844,901.99q.646-.009,1.293,0c.007,0,.01.009.007.013s0,.006-.007.006h-1.179c-.038,0-.081.012-.113-.019" transform="translate(-399.713 -892.757)" fill="#cd2426"/>
      <path id="Trazado_38752" data-name="Trazado 38752" d="M412.237,896.38a.925.925,0,0,1-.093-.229.542.542,0,0,1,.144-.57c.364-.362.725-.728,1.087-1.093.824-.832,1.648-1.664,2.463-2.506.019-.019.041-.036.061-.055l.075-.033a.562.562,0,0,1-.154.251c-.09.1-.164.214-.251.317q-.212.249-.421.5c-.081.1-.16.2-.241.295l-.319.384-.475.579c-.144.174-.29.347-.433.52-.081.1-.159.2-.239.3-.141.171-.284.341-.426.512-.081.1-.16.2-.241.295l-.31.375c-.041.049-.083.1-.122.146a.074.074,0,0,1-.1.018" transform="translate(-396.83 -888.992)" fill="#1a1a1a"/>
      <path id="Trazado_38753" data-name="Trazado 38753" d="M412.641,899.9a.049.049,0,0,1-.02-.052.047.047,0,0,1,.02.052" transform="translate(-397.018 -891.96)" fill="#1e1e1e"/>
      <path id="Trazado_38754" data-name="Trazado 38754" d="M423.224,896.761c-.168-.014-.214-.075-.188-.24a1.2,1.2,0,0,1,.057-.255.375.375,0,0,1,.375-.276l.655.006c.007.015,0-.006.007.01a1.786,1.786,0,0,1,0,.756c-.3.013-.6.014-.9,0" transform="translate(-400.902 -890.52)" fill="#d02426"/>
      <path id="Trazado_38755" data-name="Trazado 38755" d="M427.919,893.6a3.236,3.236,0,0,1-.509,0l.013-.018c.1-.028.121-.093.12-.189-.005-.306,0-.613,0-.918a.228.228,0,0,1,.036-.171h.479v1.144c0,.019,0,.039,0,.06,0,.058-.013.092-.08.087a.265.265,0,0,0-.058.007" transform="translate(-402.536 -889.143)" fill="#de2326"/>
      <path id="Trazado_38756" data-name="Trazado 38756" d="M427.345,896.906a1.265,1.265,0,0,0-.487-.131c-.273,0-.273,0-.273-.273,0-.118,0-.237,0-.355a.2.2,0,0,1,.037-.145h.767c0,.26,0,.52,0,.781,0,.046.01.1-.044.124" transform="translate(-402.228 -890.524)" fill="#dc2326"/>
      <path id="Trazado_38757" data-name="Trazado 38757" d="M425.412,896c0,.223,0,.445,0,.668,0,.092,0,.091.094.1a.326.326,0,0,1,.141.011c-.128,0-.255,0-.383,0h-1.8a.238.238,0,0,1-.129-.013l.9-.007a.74.74,0,0,1,.352-.031c.185-.006.185,0,.186-.186,0-.131,0-.263,0-.394a.2.2,0,0,1,.036-.147Z" transform="translate(-401.018 -890.524)" fill="#d72326"/>
      <path id="Trazado_38758" data-name="Trazado 38758" d="M425.348,896c0,.219,0,.438,0,.658,0,.1,0,.1-.108.1-.155,0-.311,0-.466,0V896Z" transform="translate(-401.552 -890.524)" fill="#d42526"/>
      <path id="Trazado_38759" data-name="Trazado 38759" d="M412.55,903.893l.023-.006c.008.092-.066.14-.113.2-.137.174-.28.344-.423.515s-.265.315-.4.474c-.159.192-.318.385-.476.579-.055.067-.109.136-.164.2a.105.105,0,0,0-.031.062h-.384c-.031-.048,0-.085.028-.117.518-.621,1.026-1.249,1.547-1.868a.1.1,0,0,1,.037-.029c.042.006.092-.026.125.026a.051.051,0,0,1-.011.029c.014,0,0-.017.013-.018.061-.079.155-.011.226-.049" transform="translate(-396.254 -893.466)" fill="#262524"/>
      <path id="Trazado_38760" data-name="Trazado 38760" d="M466.525,901.27c-.383.006-.767.008-1.15,0a.155.155,0,0,1-.037-.122c0-.251,0-.5,0-.752a.158.158,0,0,1,.036-.123c.355,0,.71,0,1.065,0,.081,0,.085.005.085.092,0,.3,0,.606,0,.908" transform="translate(-416.685 -892.117)" fill="#2c2c2b"/>
      <path id="Trazado_38761" data-name="Trazado 38761" d="M464.827,900.274q0,.5,0,1-.479.009-.958,0,0-.5,0-1c.319-.007.639-.006.958,0" transform="translate(-416.138 -892.117)" fill="#282827"/>
      <path id="Trazado_38762" data-name="Trazado 38762" d="M427.269,892.3v1.147c0,.153,0,.142-.132.143a.215.215,0,0,0-.035,0c-.131.014-.263,0-.394.008-.093.008-.12-.039-.123-.119,0-.111,0-.222,0-.333,0-.227,0-.453,0-.68a.227.227,0,0,1,.038-.17h.647" transform="translate(-402.227 -889.143)" fill="#db2326"/>
      <path id="Trazado_38763" data-name="Trazado 38763" d="M424.851,893.586l0-1.286h.623a.189.189,0,0,1,.038.145c0,.33,0,.661,0,.991,0,.158-.01.168-.172.163a2.933,2.933,0,0,1-.487-.012" transform="translate(-401.581 -889.144)" fill="#d42526"/>
      <path id="Trazado_38764" data-name="Trazado 38764" d="M424.85,893.586c.171,0,.343,0,.514,0,.1,0,.107,0,.107-.107,0-.393,0-.787,0-1.181h.5v1.171c0,.117,0,.117.12.117l.359.006v0c-.028,0-.055.008-.082.008H424.93c-.028,0-.055-.006-.082-.008l0-.006Z" transform="translate(-401.579 -889.144)" fill="#d72326"/>
      <path id="Trazado_38765" data-name="Trazado 38765" d="M421.745,899.66c-.24.008-.479.007-.718,0,0-.256,0-.512,0-.769,0-.041-.014-.088.033-.118a1.485,1.485,0,0,0,.375.127c.033.019.07.008.1.011.244,0,.244,0,.244.247,0,.119,0,.238,0,.357a.193.193,0,0,1-.037.146" transform="translate(-400.154 -891.558)" fill="#c72527"/>
      <path id="Trazado_38766" data-name="Trazado 38766" d="M400.426,902.5h.922l1.09,0a.85.85,0,0,0,.616-.245c.621-.586,1.241-1.171,1.854-1.766.058-.056.112-.113.168-.171.026-.026.05-.052.077-.076.161-.14.307-.11.383.089.115.3.236.59.33.894.031.063-.008.1-.043.148-.317.4-.643.782-.964,1.172-.429.524-.862,1.044-1.294,1.566a2.954,2.954,0,0,1-.359.412c-.031,0-.063,0-.1,0h-3.247c-.028,0-.056,0-.084,0a1.181,1.181,0,0,1,.182-.235c.245-.306.495-.608.745-.911.172-.207.347-.412.52-.618.038-.045.076-.091.113-.139.018-.024.046-.051.029-.084s-.05-.017-.077-.017h-.466c-.1,0-.208,0-.311,0-.031,0-.065.007-.089-.023" transform="translate(-392.228 -892.077)" fill="#171717"/>
      <path id="Trazado_38767" data-name="Trazado 38767" d="M405.245,905.166a2.171,2.171,0,0,1,.261-.339c.167-.211.34-.418.512-.626.094-.114.19-.224.283-.337l.5-.606c.129-.156.256-.313.386-.468s.265-.316.4-.475c.093-.113.183-.229.278-.341a.145.145,0,0,0,.043-.107,8.594,8.594,0,0,1,.3.86.723.723,0,0,0,.248.381c.083.077.021.139-.026.194-.162.191-.318.386-.478.579-.322.389-.644.776-.963,1.168a.562.562,0,0,1-.118.117h-1.628" transform="translate(-394.267 -892.713)" fill="#1c1c1c"/>
      <path id="Trazado_38768" data-name="Trazado 38768" d="M407.842,905.9c.012-.072.075-.111.115-.162.155-.2.322-.39.483-.585.173-.21.344-.423.518-.633.134-.162.271-.319.4-.481.046-.055.113-.108.063-.2a.127.127,0,0,1,.07.031c.229.024.459,0,.689.011.083,0,.167,0,.25,0,.115.024.041.081.014.115q-.2.258-.413.51c-.31.374-.621.747-.927,1.123a3.124,3.124,0,0,1-.236.268h-1.031" transform="translate(-395.236 -893.451)" fill="#212120"/>
      <path id="Trazado_38769" data-name="Trazado 38769" d="M409.486,905.928a.185.185,0,0,1,.063-.112c.152-.157.268-.342.419-.5.085-.088.154-.19.232-.285.144-.173.288-.345.432-.519l.233-.284c.062-.077.124-.154.187-.229.018-.022.039-.041.039-.071a3.032,3.032,0,0,1,.695,0c-.02.087-.1.133-.147.2-.218.276-.444.546-.669.816s-.454.537-.671.814c-.044.055-.107.1-.118.174h-.695" transform="translate(-395.849 -893.475)" fill="#232323"/>
      <path id="Trazado_38770" data-name="Trazado 38770" d="M427.64,900.2a.241.241,0,0,1,.046-.122c.024.094.024.094-.046.122" transform="translate(-402.622 -892.044)" fill="#df2326"/>
      <path id="Trazado_38771" data-name="Trazado 38771" d="M427.711,900.035a.088.088,0,0,1,.026-.071c0,.026.005.055-.026.071" transform="translate(-402.648 -892.003)" fill="#df2326"/>
      <path id="Trazado_38772" data-name="Trazado 38772" d="M427.6,900.341a.087.087,0,0,1,.026-.07c0,.026,0,.055-.026.07" transform="translate(-402.606 -892.117)" fill="#df2326"/>
      <path id="Trazado_38773" data-name="Trazado 38773" d="M427.753,899.93a.058.058,0,0,1,.021-.056c0,.023,0,.043-.021.056" transform="translate(-402.664 -891.969)" fill="#df2326"/>
      <path id="Trazado_38774" data-name="Trazado 38774" d="M424.633,894.357l0,.006a1.636,1.636,0,0,1-.359,0v0c.119-.009.238,0,.357,0" transform="translate(-401.367 -889.91)" fill="#d42526"/>
      <path id="Trazado_38775" data-name="Trazado 38775" d="M421.906,902.009v-.02q.5-.009,1.006,0v.02h-1.006" transform="translate(-400.483 -892.757)" fill="#d02426"/>
      <path id="Trazado_38776" data-name="Trazado 38776" d="M421.125,896.111a.054.054,0,0,1-.019.053.051.051,0,0,1,.019-.053" transform="translate(-400.184 -890.565)" fill="#c32628"/>
      <path id="Trazado_38777" data-name="Trazado 38777" d="M421.087,896.225a.052.052,0,0,1-.019.051.052.052,0,0,1,.019-.051" transform="translate(-400.17 -890.608)" fill="#c32628"/>
      <path id="Trazado_38778" data-name="Trazado 38778" d="M421.642,894.742l-.014.019c-.014-.02,0-.019.014-.019" transform="translate(-400.377 -890.055)" fill="#c72427"/>
      <path id="Trazado_38779" data-name="Trazado 38779" d="M398.381,895.635a2.442,2.442,0,0,1-.359,0c-.163-.007-.224-.1-.178-.256q.239-.825.48-1.647c.028-.1.029-.1.129-.1.08,0,.159,0,.238-.005a.175.175,0,0,1,.026.159c-.071.56-.135,1.122-.207,1.682-.011.082-.023.16-.13.167" transform="translate(-391.5 -889.639)" fill="#060707"/>
      <path id="Trazado_38780" data-name="Trazado 38780" d="M399.913,895.472a1.52,1.52,0,0,1-.479.118,2.344,2.344,0,0,1,.042-.424c.047-.421.1-.843.155-1.263a.585.585,0,0,0-.006-.27,1.289,1.289,0,0,1,.5.093c.063.038.041.1.035.15-.052.441-.1.882-.162,1.322-.013.1.006.2-.089.272" transform="translate(-392.098 -889.641)" fill="#151515"/>
      <path id="Trazado_38781" data-name="Trazado 38781" d="M399.356,893.622a.1.1,0,0,1,.06.128c-.031.15-.041.305-.06.458-.021.168-.044.336-.065.5-.012.094-.019.189-.031.283q-.031.253-.066.5a.366.366,0,0,1-.029.078,1.656,1.656,0,0,1-.455.047.135.135,0,0,0,.092-.125c.007-.154.037-.306.053-.46s.043-.32.064-.481c.011-.086.016-.173.028-.26.024-.184.042-.369.072-.552a.915.915,0,0,0,0-.131.86.86,0,0,1,.335,0" transform="translate(-391.828 -889.629)" fill="#101110"/>
      <path id="Trazado_38782" data-name="Trazado 38782" d="M400.2,895.528a1.485,1.485,0,0,0,.07-.4c.028-.167.044-.337.068-.5.011-.082.013-.165.024-.248.026-.18.045-.361.068-.541a.147.147,0,0,0-.015-.056.553.553,0,0,1,.243.111.178.178,0,0,1,.018.127c-.05.426-.11.851-.154,1.278a.135.135,0,0,1-.057.112.714.714,0,0,1-.265.118" transform="translate(-392.384 -889.697)" fill="#1f1f1f"/>
      <path id="Trazado_38783" data-name="Trazado 38783" d="M400.621,895.476a.89.89,0,0,0,.041-.292c.031-.26.067-.518.1-.777.018-.149.04-.3.056-.448a.208.208,0,0,1,.1.069.962.962,0,0,0,.1.1h0a1.7,1.7,0,0,1-.038.425c-.019.218-.058.434-.077.652a.228.228,0,0,1-.034.1h0l-.023.022a.586.586,0,0,1-.215.146" transform="translate(-392.542 -889.762)" fill="#272726"/>
      <path id="Trazado_38784" data-name="Trazado 38784" d="M401,895.409a2.377,2.377,0,0,1,.043-.456c.023-.156.036-.312.053-.468a1.288,1.288,0,0,1,.053-.253.661.661,0,0,1,.16.484.865.865,0,0,1-.308.693" transform="translate(-392.683 -889.864)" fill="#2e2e2d"/>
      <path id="Trazado_38785" data-name="Trazado 38785" d="M401.182,894.173a.139.139,0,0,1-.1-.1.227.227,0,0,1,.1.1" transform="translate(-392.714 -889.804)" fill="#2e2e2d"/>
      <path id="Trazado_38786" data-name="Trazado 38786" d="M400.963,896.133l.024-.022a.024.024,0,0,1-.024.022" transform="translate(-392.669 -890.565)" fill="#2e2e2d"/>
      <path id="Trazado_38787" data-name="Trazado 38787" d="M412.156,903.924c-.231-.007-.463-.008-.695,0l-.858,0c-.042,0-.088.015-.124-.022q1.017.01,2.036,0a.088.088,0,0,1-.087.021.2.2,0,0,0-.152.049c-.018-.076-.077-.04-.12-.043" transform="translate(-396.22 -893.47)" fill="#262524"/>
      <path id="Trazado_38788" data-name="Trazado 38788" d="M423.946,899.741q-.48.011-.959,0c-.007-.014,0,.006-.007-.009a1.681,1.681,0,0,1,0-.733c.3-.019.606,0,.908-.009.049,0,.08.023.083.067a3.126,3.126,0,0,1-.009.655c0,.012-.013.019-.021.029" transform="translate(-400.869 -891.639)" fill="#cf2426"/>
      <path id="Trazado_38789" data-name="Trazado 38789" d="M423.674,899.736c0-.211,0-.422,0-.633,0-.1,0-.1-.108-.1h-.849a.888.888,0,0,1-.475.017c-.016,0-.024-.018-.026-.035.124,0,.247,0,.37,0h1.566a.943.943,0,0,1,.238.023c.132.035.167.105.115.228-.031.073-.066.145-.095.219a.44.44,0,0,1-.424.292c-.1.006-.207,0-.31,0" transform="translate(-400.598 -891.634)" fill="#d32526"/>
      <path id="Trazado_38790" data-name="Trazado 38790" d="M422.051,898.982c.034.027.075.016.113.016.13,0,.259,0,.389,0v.737c-.176.007-.352.007-.527,0,0-.215,0-.43,0-.645,0-.091,0-.091-.1-.093-.048,0-.1,0-.144,0-.008,0-.01-.008-.008-.012s.005-.006.008-.006l.265,0" transform="translate(-400.435 -891.636)" fill="#cb2427"/>
      <path id="Trazado_38791" data-name="Trazado 38791" d="M421.749,898.978V899c-.026,0-.053.005-.071-.021l.071,0" transform="translate(-400.398 -891.634)" fill="#cf2426"/>
      <path id="Trazado_38792" data-name="Trazado 38792" d="M413.34,904.009l-.006.01,0,0Z" transform="translate(-397.283 -893.512)" fill="#262524"/>
    </g>
  </g>
</svg>
