<svg xmlns="http://www.w3.org/2000/svg" xmlns:xlink="http://www.w3.org/1999/xlink" width="85" height="85" viewBox="0 0 85 85">
  <defs>
    <filter id="Rectángulo_18085" x="0" y="0" width="85" height="85" filterUnits="userSpaceOnUse">
      <feOffset dy="3" input="SourceAlpha"/>
      <feGaussianBlur stdDeviation="3" result="blur"/>
      <feFlood flood-opacity="0.161"/>
      <feComposite operator="in" in2="blur"/>
      <feComposite in="SourceGraphic"/>
    </filter>
  </defs>
  <g id="Grupo_18835" data-name="Grupo 18835" transform="translate(-345 -1494)">
    <g transform="matrix(1, 0, 0, 1, 345, 1494)" filter="url(#Rectángulo_18085)">
      <rect id="Rectángulo_18085-2" data-name="Rectángulo 18085" width="67" height="67" rx="10" transform="translate(9 6)" fill="#fff"/>
    </g>
    <g id="Grupo_18239" data-name="Grupo 18239" transform="translate(373 1516)">
      <rect id="Rectángulo_25" data-name="Rectángulo 25" width="28.85" height="28.849" transform="translate(0 0)" fill="#78b52e"/>
      <path id="Trazado_562" data-name="Trazado 562" d="M125.512,143.177a1.4,1.4,0,0,0,.924-.414,1.424,1.424,0,0,0,.414-1h0a1.428,1.428,0,0,0-.414-1,1.405,1.405,0,0,0-.924-.414h-1.726v2.83Zm3.582-3.868.239,0a2.442,2.442,0,0,1,2.35,2.449h0a2.445,2.445,0,0,1-.713,1.736,2.41,2.41,0,0,1-.98.6l2.772,3.7H127.67l-2.47-3.579h-1.414V147.8h-4.838v-8.488h10.146Z" transform="translate(-115.087 -129.126)" fill="#040505" fill-rule="evenodd"/>
      <path id="Trazado_563" data-name="Trazado 563" d="M127.83,140.349h-4.054v-1.038l12.732,0v1.043h-3.844V147.8H127.83v-7.451Z" transform="translate(-107.659 -129.129)" fill="#040505" fill-rule="evenodd"/>
      <path id="Trazado_564" data-name="Trazado 564" d="M122.84,151.167h-2.32v-3.521h2.32v.614h-1.632v.825H122.6v.612h-1.388v.855h1.632Z" transform="translate(-112.669 -116.302)" fill="#1a1718"/>
      <path id="Trazado_565" data-name="Trazado 565" d="M119.744,151.167h-2.317v-3.521h2.317v.614h-1.63v.825H119.5v.612h-1.388v.855h1.63Z" transform="translate(-117.427 -116.302)" fill="#1a1718"/>
      <path id="Trazado_566" data-name="Trazado 566" d="M124.155,150.145a.928.928,0,0,1-.368.782,1.486,1.486,0,0,1-.937.284,1.725,1.725,0,0,1-1.284-.465l.444-.444a1.152,1.152,0,0,0,.85.3c.416,0,.622-.145.622-.434a.376.376,0,0,0-.1-.294.556.556,0,0,0-.315-.127l-.426-.058a.929.929,0,0,1-.934-.985.98.98,0,0,1,.332-.772,1.286,1.286,0,0,1,.893-.294,1.577,1.577,0,0,1,1.137.409l-.434.432a1,1,0,0,0-.723-.244.585.585,0,0,0-.4.127.409.409,0,0,0-.142.317.344.344,0,0,0,.112.259.563.563,0,0,0,.32.132l.414.061a1.211,1.211,0,0,1,.673.272A.978.978,0,0,1,124.155,150.145Z" transform="translate(-111.06 -116.319)" fill="#1a1718"/>
      <path id="Trazado_567" data-name="Trazado 567" d="M125.355,148.745a1.043,1.043,0,0,1-.3.769,1.156,1.156,0,0,1-.855.327h-.678v1.325h-.688v-3.521h1.366a1.156,1.156,0,0,1,.855.327A1.048,1.048,0,0,1,125.355,148.745Zm-.685,0a.461.461,0,0,0-.14-.353.51.51,0,0,0-.371-.132h-.642v.962h.642a.519.519,0,0,0,.371-.129A.453.453,0,0,0,124.669,148.745Z" transform="translate(-109.117 -116.302)" fill="#1a1718"/>
      <path id="Trazado_568" data-name="Trazado 568" d="M126.993,151.167h-.716l-.208-.624H124.82l-.213.624h-.716l1.279-3.521h.538Zm-1.107-1.2-.429-1.279-.444,1.279Z" transform="translate(-107.483 -116.302)" fill="#1a1718"/>
      <path id="Trazado_569" data-name="Trazado 569" d="M138.295,151.79h-.614l-1.394-2.16v2.16H135.6v-3.521h.612l1.394,2.155v-2.155h.688Zm-17.037,0h-.614l-1.394-2.16v2.16h-.688v-3.521h.614l1.394,2.155v-2.155h.688Zm16.583-4.206a.832.832,0,0,1-.558.292.763.763,0,0,1-.381-.114.548.548,0,0,0-.277-.089.424.424,0,0,0-.292.142l-.277-.282a.827.827,0,0,1,.553-.292.721.721,0,0,1,.381.114.525.525,0,0,0,.272.089.424.424,0,0,0,.292-.142Z" transform="translate(-115.681 -116.925)" fill="#1a1718"/>
      <path id="Trazado_570" data-name="Trazado 570" d="M129.2,149.422a4.611,4.611,0,0,1-.046.8,1.108,1.108,0,0,1-.3.607,1.367,1.367,0,0,1-1.9,0,1.128,1.128,0,0,1-.307-.607,8.339,8.339,0,0,1,0-1.592,1.128,1.128,0,0,1,.307-.607,1.367,1.367,0,0,1,1.9,0,1.108,1.108,0,0,1,.3.607A4.6,4.6,0,0,1,129.2,149.422Zm-.688,0c0-.269,0-.439-.01-.513a.816.816,0,0,0-.162-.475.564.564,0,0,0-.439-.188.577.577,0,0,0-.447.188.855.855,0,0,0-.157.475c-.005.058-.01.231-.01.513s.005.457.01.515a.855.855,0,0,0,.157.475.577.577,0,0,0,.447.188.561.561,0,0,0,.48-.239A1.974,1.974,0,0,0,128.514,149.422Z" transform="translate(-103.312 -116.319)" fill="#1a1718"/>
      <path id="Trazado_571" data-name="Trazado 571" d="M130.177,151.167h-2.284v-3.521h.688v2.906h1.6Z" transform="translate(-101.327 -116.302)" fill="#1a1718"/>
    </g>
  </g>
</svg>
