<svg xmlns="http://www.w3.org/2000/svg" xmlns:xlink="http://www.w3.org/1999/xlink" width="85" height="85" viewBox="0 0 85 85">
  <defs>
    <filter id="Rectángulo_18090" x="0" y="0" width="85" height="85" filterUnits="userSpaceOnUse">
      <feOffset dy="3" input="SourceAlpha"/>
      <feGaussianBlur stdDeviation="3" result="blur"/>
      <feFlood flood-opacity="0.161"/>
      <feComposite operator="in" in2="blur"/>
      <feComposite in="SourceGraphic"/>
    </filter>
    <clipPath id="clip-path">
      <rect id="Rectángulo_27225" data-name="Rectángulo 27225" width="57.637" height="20.864" fill="none"/>
    </clipPath>
  </defs>
  <g id="Grupo_40778" data-name="Grupo 40778" transform="translate(9193 -2763)">
    <g transform="matrix(1, 0, 0, 1, -9193, 2763)" filter="url(#Rectángulo_18090)">
      <rect id="Rectángulo_18090-2" data-name="Rectángulo 18090" width="67" height="67" rx="10" transform="translate(9 6)" fill="#fff"/>
    </g>
    <g id="Grupo_40777" data-name="Grupo 40777" transform="translate(-9179 2792)">
      <g id="Grupo_40776" data-name="Grupo 40776" transform="translate(0 0)" clip-path="url(#clip-path)">
        <path id="Trazado_83738" data-name="Trazado 83738" d="M10.431,8.364a2.363,2.363,0,1,0,2.382,2.363,2.373,2.373,0,0,0-2.382-2.363m0-8.364A10.432,10.432,0,1,0,20.862,10.431,10.431,10.431,0,0,0,10.431,0m0,16.1a5.368,5.368,0,0,1-2.3-10.243V4.7a2.3,2.3,0,0,1,4.594,0L12.688,5.84A5.369,5.369,0,0,1,10.431,16.1" transform="translate(0 0.001)" fill="#040506"/>
        <path id="Trazado_83739" data-name="Trazado 83739" d="M21.628,5.5a2.741,2.741,0,0,0-2.9-2.7H16.3v7.8h1.7V8.2h.74a2.737,2.737,0,0,0,2.9-2.7M18.535,6.665h-.542V4.336h.542c1.4,0,1.4.88,1.4,1.168s0,1.161-1.4,1.161M13.5,6.007l-1.036-.335c-.928-.3-.928-.6-.928-.745,0-.222.108-.743,1.087-.743a3.441,3.441,0,0,1,2.3.882,8.273,8.273,0,0,1,.74-1.273,3.992,3.992,0,0,0-3.03-1.183c-1.7,0-2.927.985-2.927,2.343,0,1.08.687,1.835,2.1,2.3l1.048.352c.667.225,1.007.486,1.007.775,0,.4-.5.716-1.151.716-1.053,0-1.251-.481-1.3-.955H9.568l0,.081c.144,1.532,1.295,2.448,3.081,2.448s3.035-.975,3.035-2.363c0-1.068-.738-1.842-2.192-2.3M43.585,9.523l-.225.442-.222-.442H42.9v1h.244v-.476l.142.244h.156l.142-.244v.476h.244v-1h-.239M35.6,10.6h5.231V9.01H37.381V7.459h3.455V5.87H37.381V4.39h3.455V2.8H35.6v7.8M23.82,2.8l-2.5,5.818-.792,1.842-.059.139h1.855s.535-1.295.677-1.642h2.966c.142.347.674,1.642.674,1.642h1.855L25.14,2.8H23.82m-.188,4.625c.215-.535.533-1.307.85-2.082.315.775.63,1.547.848,2.082h-1.7M42.018,9.741h.244v.779H42.5V9.741h.249V9.523h-.735v.217M29.7,6.45a2.341,2.341,0,0,1,.709-1.424c.02-.022.044-.044.066-.066l.071-.059a2.756,2.756,0,0,1,1.246-.579l.024,0c.064-.01.129-.02.2-.027s.164-.012.247-.012l.061,0c.066,0,.137.01.21.012a2.614,2.614,0,0,1,1.4.618l.269.23,1.163-1.2-.3-.261a4.445,4.445,0,0,0-2.807-.992A4.128,4.128,0,0,0,27.93,6.7v0a4.129,4.129,0,0,0,4.327,4.007,4.457,4.457,0,0,0,2.807-.99l.3-.261L34.2,8.258l-.269.232a2.592,2.592,0,0,1-1.4.616c-.073,0-.144.012-.21.012l-.061,0c-.083,0-.166,0-.247-.01s-.132-.017-.2-.027l-.024,0A2.8,2.8,0,0,1,30.544,8.5c-.024-.022-.049-.039-.071-.061l-.066-.064A2.354,2.354,0,0,1,29.7,6.953a1.785,1.785,0,0,1-.012-.23l0-.024,0-.02a1.761,1.761,0,0,1,.012-.23" transform="translate(13.81 3.769)" fill="#040506"/>
      </g>
    </g>
  </g>
</svg>
