<svg xmlns="http://www.w3.org/2000/svg" xmlns:xlink="http://www.w3.org/1999/xlink" width="85" height="85" viewBox="0 0 85 85">
  <defs>
    <filter id="Rect치ngulo_17998" x="0" y="0" width="85" height="85" filterUnits="userSpaceOnUse">
      <feOffset dy="3" input="SourceAlpha"/>
      <feGaussianBlur stdDeviation="3" result="blur"/>
      <feFlood flood-opacity="0.161"/>
      <feComposite operator="in" in2="blur"/>
      <feComposite in="SourceGraphic"/>
    </filter>
  </defs>
  <g id="Grupo_18779" data-name="Grupo 18779" transform="translate(-171.113 -1246)">
    <g transform="matrix(1, 0, 0, 1, 171.11, 1246)" filter="url(#Rect치ngulo_17998)">
      <rect id="Rect치ngulo_17998-2" data-name="Rect치ngulo 17998" width="67" height="67" rx="10" transform="translate(9 6)" fill="#fff"/>
    </g>
    <g id="Grupo_783" data-name="Grupo 783" transform="translate(190.611 1272.161)">
      <path id="Trazado_672" data-name="Trazado 672" d="M66.1,80.966H59.527c-.085,0-.126-.041-.148-.129L57.316,74.61,55.3,80.837a.142.142,0,0,1-.151.129h-6.57l5.3,3.866a.161.161,0,0,0,.195,0,17.19,17.19,0,0,1,5.5-2.232,40.75,40.75,0,0,0-6.958,6.656.662.662,0,0,0-.129.236L51.9,91.276l5.3-3.847a.145.145,0,0,1,.214,0l5.3,3.847L60.71,85.005a.137.137,0,0,1,.063-.173Z" transform="translate(-31.073 -74.61)" fill="#1a1718"/>
      <path id="Trazado_673" data-name="Trazado 673" d="M58.089,77.912H59.87c1.074,0,1.76.56,1.76,1.527a1.639,1.639,0,0,1-1.76,1.738H58.089Zm3.07,5.39a3.877,3.877,0,0,0,3.372-3.844c0-2.619-1.782-4.058-4.659-4.058H55.233V88.585h2.856V83.3l3.542,5.283h3.309Z" transform="translate(-19.454 -73.231)" fill="#1a1718"/>
      <path id="Trazado_674" data-name="Trazado 674" d="M45.816,75.4V78h2.9V88.586h2.9V78h2.9V75.4Z" transform="translate(-35.894 -73.231)" fill="#1a1718"/>
      <path id="Trazado_675" data-name="Trazado 675" d="M46.754,80.363c-.857-.387-1.181-.815-1.181-1.376a1.228,1.228,0,0,1,1.4-1.159,1.9,1.9,0,0,1,1.738,1.395l2.471-1.1a4.239,4.239,0,0,0-4.338-2.79c-2.383,0-4.146,1.568-4.146,3.671a3.669,3.669,0,0,0,2.383,3.416l1.848.923c1.03.516,1.524.9,1.524,1.653a1.427,1.427,0,0,1-1.524,1.4A2.211,2.211,0,0,1,44.78,84.72l-2.578.752a4.609,4.609,0,0,0,4.7,3.438c2.512,0,4.445-1.612,4.445-3.932,0-1.782-.966-2.963-2.812-3.8Z" transform="translate(-42.202 -73.339)" fill="#1a1718"/>
      <path id="Trazado_676" data-name="Trazado 676" d="M47.271,83.663a1.247,1.247,0,0,0-1-.431,1.71,1.71,0,0,0-.036,3.4,1.262,1.262,0,0,0,1.087-.566l.966.722a2.3,2.3,0,0,1-1.905.914,2.77,2.77,0,1,1,0-5.538,2.259,2.259,0,0,1,1.779.774Z" transform="translate(-39.866 -61.428)" fill="#1a1718"/>
      <path id="Trazado_677" data-name="Trazado 677" d="M45.664,82.209h1.161v1.966h2.257V82.209h1.161v5.274H49.082V85.2H46.825v2.279H45.664Z" transform="translate(-36.158 -61.344)" fill="#1a1718"/>
      <path id="Trazado_678" data-name="Trazado 678" d="M49.966,82.209h.961l2.293,5.274H51.91l-.453-1.117H49.409l-.439,1.117H47.687Zm.448,1.535-.64,1.639h1.288Z" transform="translate(-32.627 -61.344)" fill="#1a1718"/>
      <path id="Trazado_679" data-name="Trazado 679" d="M50.058,82.209h1.579l2.24,3.666h.014V82.209h1.164v5.274H53.534l-2.3-3.753h-.014v3.753H50.058Z" transform="translate(-28.488 -61.344)" fill="#1a1718"/>
      <path id="Trazado_680" data-name="Trazado 680" d="M52.431,82.209H54.01l2.24,3.666h.016V82.209h1.161v5.274H55.907l-2.3-3.753h-.014v3.753H52.431Z" transform="translate(-24.345 -61.344)" fill="#1a1718"/>
      <path id="Trazado_681" data-name="Trazado 681" d="M54.82,82.209H58.4v1.074H55.981v.983h2.287v1.074H55.981V86.41h2.556v1.074H54.82Z" transform="translate(-20.175 -61.344)" fill="#1a1718"/>
      <path id="Trazado_682" data-name="Trazado 682" d="M56.692,82.209h1.161v4.2h2.153v1.074H56.692Z" transform="translate(-16.907 -61.344)" fill="#1a1718"/>
    </g>
  </g>
</svg>
