<svg xmlns="http://www.w3.org/2000/svg" xmlns:xlink="http://www.w3.org/1999/xlink" width="85" height="85" viewBox="0 0 85 85">
  <defs>
    <filter id="Rectángulo_18040" x="0" y="0" width="85" height="85" filterUnits="userSpaceOnUse">
      <feOffset dy="3" input="SourceAlpha"/>
      <feGaussianBlur stdDeviation="3" result="blur"/>
      <feFlood flood-opacity="0.161"/>
      <feComposite operator="in" in2="blur"/>
      <feComposite in="SourceGraphic"/>
    </filter>
  </defs>
  <g id="Grupo_18803" data-name="Grupo 18803" transform="translate(-171 -1325)">
    <g transform="matrix(1, 0, 0, 1, 171, 1325)" filter="url(#Rectángulo_18040)">
      <rect id="Rectángulo_18040-2" data-name="Rectángulo 18040" width="67" height="67" rx="10" transform="translate(9 6)" fill="#fff"/>
    </g>
    <g id="Negro" transform="translate(213.501 1364.168)">
      <g id="Grupo_18746" data-name="Grupo 18746" transform="translate(-27.501 -8.168)">
        <path id="Trazado_41230" data-name="Trazado 41230" d="M4.137,15.663c-.555,0-.845-.328-.845-.654V12.8h.627v2.081a.224.224,0,0,0,.255.223H4.51c.125,0,.259-.058.259-.223V12.8h.623v2.209c0,.325-.279.654-.809.654Z" transform="translate(0.173 0.673)" fill="#1a1818"/>
        <path id="Trazado_41231" data-name="Trazado 41231" d="M10.58,15.639l-.918-1.566v1.566H9.035V12.8h.62l.912,1.633V12.8h.622v2.84Z" transform="translate(0.475 0.673)" fill="#1a1818"/>
        <rect id="Rectángulo_18223" data-name="Rectángulo 18223" width="0.698" height="2.84" transform="translate(15.562 13.472)" fill="#1a1818"/>
        <path id="Trazado_41232" data-name="Trazado 41232" d="M19.938,15.639,19,12.8h.63l.62,2,.623-2h.626l-.94,2.836Z" transform="translate(0.998 0.673)" fill="#1a1818"/>
        <path id="Trazado_41233" data-name="Trazado 41233" d="M24.983,15.639V12.8h1.768v.559H25.61v.566h1v.559h-1v.6h1.18v.56Z" transform="translate(1.313 0.673)" fill="#1a1818"/>
        <path id="Trazado_41234" data-name="Trazado 41234" d="M31.618,14.128c.126,0,.259-.057.259-.215v-.337c0-.135-.1-.215-.266-.215h-.539v.766Zm.3,1.511-.421-.954h-.427v.954h-.626V12.8h1.237c.537,0,.817.326.817.649v.6a.642.642,0,0,1-.423.573l.5,1.022Z" transform="translate(1.6 0.673)" fill="#1a1818"/>
        <path id="Trazado_41235" data-name="Trazado 41235" d="M36.92,15.664c-.566,0-.862-.328-.862-.654v-.238h.623v.109c0,.165.142.223.274.223h.3c.082,0,.276-.022.276-.219v-.068c0-.107-.22-.188-.474-.281-.417-.154-.987-.364-.987-.864v-.254a.688.688,0,0,1,.774-.639h.469c.536,0,.817.325.817.645v.362h-.622v-.229c0-.137-.1-.219-.262-.219h-.3c-.162,0-.256.08-.256.211v.073c0,.116.236.205.509.309.424.161.95.361.95.787v.3c0,.322-.283.649-.825.649Z" transform="translate(1.895 0.672)" fill="#1a1818"/>
        <path id="Trazado_41236" data-name="Trazado 41236" d="M43.135,14.523l-.3-.912H42.8l-.3.912ZM43.5,15.64l-.182-.558-1.012,0-.183.556H41.57l.94-2.844h.617l.941,2.844Z" transform="translate(2.185 0.672)" fill="#1a1818"/>
        <path id="Trazado_41237" data-name="Trazado 41237" d="M47.556,15.639V12.8h.626v2.244H49.27v.6Z" transform="translate(2.499 0.673)" fill="#1a1818"/>
        <path id="Trazado_41238" data-name="Trazado 41238" d="M12.4,9.626V1.959H10.027V.069h6.879V1.959H14.538V9.626Zm21-1.889h1.582c.565,0,.9-.286.9-.765V2.738c0-.479-.337-.765-.9-.765H33.4ZM31.261,9.626V.083h4c1.816,0,2.765,1.078,2.765,2.142V7.484c0,1.065-.949,2.142-2.765,2.142ZM42.168.069h2.139V9.627H42.168ZM23.308,9.709c-1.906,0-2.9-1.078-2.9-2.142V.069h2.14V7.054c0,.479.337.765.9.765h.625c.565,0,.9-.286.9-.765V.069h2.14v7.5c0,1.064-.95,2.142-2.765,2.142ZM51.336,1.889c-.565,0-.9.286-.9.765v4.4c0,.479.338.765.9.765h.624c.565,0,.9-.286.9-.765v-4.4c0-.479-.338-.765-.9-.765ZM51.2,9.709c-1.906,0-2.9-1.078-2.9-2.142V2.142c0-1.064,1-2.142,2.9-2.142h1.04C54.053,0,55,1.078,55,2.142V7.567c0,1.064-.949,2.142-2.765,2.142ZM2.905,9.743C1,9.743,0,8.666,0,7.6V6.841H2.141V7.09c0,.478.337.763.9.763h.534c.246,0,.9,0,.9-.763V6.985c0-.464-.509-.669-1-.866-.087-.036-.176-.071-.26-.107l-.143-.062C1.776,5.391,0,4.626,0,3.062V2.177C0,1.113.9.035,2.626.035H3.869c1.816,0,2.765,1.078,2.765,2.142v1H4.5V2.688c0-.478-.338-.764-.9-.764H3.041c-.565,0-.9.286-.9.764V2.81c0,.467.615.742,1.326,1.061l.178.08.323.144C5.124,4.606,6.7,5.3,6.7,6.549V7.6c0,1.064-.949,2.142-2.764,2.142Z" fill="#1a1818"/>
      </g>
    </g>
  </g>
</svg>
