<svg xmlns="http://www.w3.org/2000/svg" xmlns:xlink="http://www.w3.org/1999/xlink" width="85" height="85" viewBox="0 0 85 85">
  <defs>
    <filter id="Rect치ngulo_18041" x="0" y="0" width="85" height="85" filterUnits="userSpaceOnUse">
      <feOffset dy="3" input="SourceAlpha"/>
      <feGaussianBlur stdDeviation="3" result="blur"/>
      <feFlood flood-opacity="0.161"/>
      <feComposite operator="in" in2="blur"/>
      <feComposite in="SourceGraphic"/>
    </filter>
  </defs>
  <g id="Grupo_18802" data-name="Grupo 18802" transform="translate(-259 -1325)">
    <g transform="matrix(1, 0, 0, 1, 259, 1325)" filter="url(#Rect치ngulo_18041)">
      <rect id="Rect치ngulo_18041-2" data-name="Rect치ngulo 18041" width="67" height="67" rx="10" transform="translate(9 6)" fill="#fff"/>
    </g>
    <g id="Grupo_18207" data-name="Grupo 18207" transform="translate(274 1358)">
      <path id="Trazado_1057" data-name="Trazado 1057" d="M83.824,94.916H74.707l-2.691,2.691v3.708l.307.307h5.751V100.3h5.751l.307-.309V95.223l-.307-.307" transform="translate(-72.016 -94.916)" fill="#1a1818"/>
      <path id="Trazado_1058" data-name="Trazado 1058" d="M72.323,99.363l-.307.309v4.83l.307.307H81.44l2.691-2.691v-3.77l-.307-.307H78.073v1.322Z" transform="translate(-72.016 -91.336)" fill="#1a1818"/>
      <path id="Trazado_1059" data-name="Trazado 1059" d="M91.517,95.223l-.309-.307H85.889l-.307.307v6.4H84.228v-6.4l-.307-.307H78.6l-.307.307v6.4l3.643,3.646v2.815l.309.307h5.319l.307-.307v-2.815l3.646-3.646Z" transform="translate(-64.824 -94.916)" fill="#1a1818"/>
      <path id="Trazado_1060" data-name="Trazado 1060" d="M104.586,95.223l-.307-.307H98.96l-.309.307v6.4H97.3v-6.4l-.307-.307H91.671l-.307.307v6.4l3.643,3.646v2.815l.307.307h5.321l.307-.307v-2.815l3.643-3.646Z" transform="translate(-49.848 -94.916)" fill="#1a1818"/>
      <path id="Trazado_1061" data-name="Trazado 1061" d="M96.894,94.916H87.777l-2.691,2.691v10.476l.309.307h5.319l.307-.307V106.4h5.873l.309-.307v-4.169l-.309-.307H91.021V100.3h5.873l.309-.309V95.223l-.309-.307" transform="translate(-57.041 -94.916)" fill="#1a1818"/>
    </g>
  </g>
</svg>
