<svg xmlns="http://www.w3.org/2000/svg" xmlns:xlink="http://www.w3.org/1999/xlink" width="85" height="84" viewBox="0 0 85 84">
  <defs>
    <filter id="Rectángulo_18071" x="0" y="0" width="85" height="84" filterUnits="userSpaceOnUse">
      <feOffset dy="3" input="SourceAlpha"/>
      <feGaussianBlur stdDeviation="3" result="blur"/>
      <feFlood flood-opacity="0.161"/>
      <feComposite operator="in" in2="blur"/>
      <feComposite in="SourceGraphic"/>
    </filter>
  </defs>
  <g id="Grupo_18816" data-name="Grupo 18816" transform="translate(-787 -1410)">
    <g transform="matrix(1, 0, 0, 1, 787, 1410)" filter="url(#Rectángulo_18071)">
      <rect id="Rectángulo_18071-2" data-name="Rectángulo 18071" width="67" height="66" rx="10" transform="translate(9 6)" fill="#fff"/>
    </g>
    <g id="teleritmo" transform="translate(810 1434)">
      <g id="Grupo_18229" data-name="Grupo 18229" transform="translate(0 0)">
        <rect id="Rectángulo_18082" data-name="Rectángulo 18082" width="29.724" height="29.724"/>
        <path id="Trazado_40180" data-name="Trazado 40180" d="M473.681,286.834l-13.941-.04,4.647-13.941,9.294.04Z" transform="translate(-434.699 -257.991)" fill="#e72572"/>
        <path id="Trazado_40181" data-name="Trazado 40181" d="M58.176,79.979v1.9H59.5v1.512h-1.32v3.852a.919.919,0,0,0,.164.613.823.823,0,0,0,.628.186,3.284,3.284,0,0,0,.606-.05v1.562a4.244,4.244,0,0,1-1.248.186,1.968,1.968,0,0,1-2.211-2.19V83.389H54.987V81.876h1.127v-1.9Z" transform="translate(-51.992 -75.623)" fill="#fff"/>
        <path id="Trazado_40182" data-name="Trazado 40182" d="M157.564,120.2a3.788,3.788,0,0,1-2.764-1.042,3.7,3.7,0,0,1-1.066-2.775v-.2a4.663,4.663,0,0,1,.449-2.079,3.3,3.3,0,0,1,1.273-1.412,3.574,3.574,0,0,1,1.88-.5,3.2,3.2,0,0,1,2.493,1,4.058,4.058,0,0,1,.909,2.832v.842h-4.915a1.915,1.915,0,0,0,.6,1.213,1.822,1.822,0,0,0,1.273.456,2.225,2.225,0,0,0,1.862-.863l1.013,1.134a3.094,3.094,0,0,1-1.255,1.024A4.12,4.12,0,0,1,157.564,120.2Zm-.235-6.342a1.288,1.288,0,0,0-1,.416,2.153,2.153,0,0,0-.489,1.189h2.868V115.3a1.536,1.536,0,0,0-.371-1.064A1.329,1.329,0,0,0,157.328,113.857Z" transform="translate(-145.359 -106.084)" fill="#fff"/>
        <path id="Trazado_40183" data-name="Trazado 40183" d="M307.849,66.315H305.78V55.358h2.069Z" transform="translate(-289.125 -52.343)" fill="#fff"/>
        <path id="Trazado_40184" data-name="Trazado 40184" d="M373.651,120.2a3.788,3.788,0,0,1-2.764-1.042,3.7,3.7,0,0,1-1.066-2.775v-.2a4.662,4.662,0,0,1,.449-2.079,3.3,3.3,0,0,1,1.273-1.412,3.574,3.574,0,0,1,1.88-.5,3.2,3.2,0,0,1,2.493,1,4.058,4.058,0,0,1,.91,2.832v.842H371.91a1.915,1.915,0,0,0,.6,1.213,1.822,1.822,0,0,0,1.273.456,2.225,2.225,0,0,0,1.862-.863l1.013,1.134a3.094,3.094,0,0,1-1.255,1.024A4.12,4.12,0,0,1,373.651,120.2Zm-.235-6.342a1.288,1.288,0,0,0-1,.416,2.152,2.152,0,0,0-.489,1.189H374.8V115.3a1.536,1.536,0,0,0-.371-1.064A1.329,1.329,0,0,0,373.415,113.857Z" transform="translate(-349.676 -106.084)" fill="#fff"/>
        <path id="Trazado_40185" data-name="Trazado 40185" d="M65.53,79.979v1.9h1.32v1.512H65.53v3.852a.919.919,0,0,0,.164.613.823.823,0,0,0,.628.186,3.283,3.283,0,0,0,.606-.05v1.562a4.244,4.244,0,0,1-1.248.186,1.968,1.968,0,0,1-2.211-2.19V83.389H62.341V81.876h1.127v-1.9Z" transform="translate(-58.945 -75.623)" fill="#282828" style="mix-blend-mode: difference;isolation: isolate"/>
        <path id="Trazado_40186" data-name="Trazado 40186" d="M164.918,120.2a3.788,3.788,0,0,1-2.764-1.042,3.7,3.7,0,0,1-1.066-2.775v-.2a4.663,4.663,0,0,1,.449-2.079,3.3,3.3,0,0,1,1.273-1.412,3.574,3.574,0,0,1,1.88-.5,3.2,3.2,0,0,1,2.493,1,4.058,4.058,0,0,1,.909,2.832v.842h-4.915a1.915,1.915,0,0,0,.6,1.213,1.822,1.822,0,0,0,1.273.456,2.225,2.225,0,0,0,1.862-.863l1.013,1.134a3.1,3.1,0,0,1-1.256,1.024A4.119,4.119,0,0,1,164.918,120.2Zm-.235-6.342a1.288,1.288,0,0,0-1,.416,2.152,2.152,0,0,0-.489,1.189h2.868V115.3a1.536,1.536,0,0,0-.371-1.064A1.329,1.329,0,0,0,164.682,113.857Z" transform="translate(-152.313 -106.084)" fill="#282828" style="mix-blend-mode: difference;isolation: isolate"/>
        <path id="Trazado_40187" data-name="Trazado 40187" d="M315.2,66.315h-2.069V55.358H315.2Z" transform="translate(-296.079 -52.343)" fill="#282828" style="mix-blend-mode: difference;isolation: isolate"/>
        <path id="Trazado_40188" data-name="Trazado 40188" d="M381.006,120.2a3.788,3.788,0,0,1-2.764-1.042,3.7,3.7,0,0,1-1.066-2.775v-.2a4.663,4.663,0,0,1,.449-2.079,3.3,3.3,0,0,1,1.273-1.412,3.574,3.574,0,0,1,1.88-.5,3.2,3.2,0,0,1,2.493,1,4.059,4.059,0,0,1,.909,2.832v.842h-4.915a1.915,1.915,0,0,0,.6,1.213,1.822,1.822,0,0,0,1.273.456,2.225,2.225,0,0,0,1.862-.863l1.013,1.134a3.094,3.094,0,0,1-1.255,1.024A4.119,4.119,0,0,1,381.006,120.2Zm-.235-6.342a1.288,1.288,0,0,0-1,.416,2.153,2.153,0,0,0-.489,1.189h2.868V115.3a1.536,1.536,0,0,0-.371-1.064A1.329,1.329,0,0,0,380.77,113.857Z" transform="translate(-356.631 -106.084)" fill="#282828" style="mix-blend-mode: difference;isolation: isolate"/>
        <g id="Grupo_18226" data-name="Grupo 18226" transform="translate(3.716 14.971)">
          <path id="Trazado_40189" data-name="Trazado 40189" d="M72.551,330.5a5.617,5.617,0,0,0-.742-.057,1.51,1.51,0,0,0-1.534.792v5.05H68.214v-7.718h1.947l.057.92a1.91,1.91,0,0,1,1.719-1.063,2.163,2.163,0,0,1,.642.093Z" transform="translate(-68.214 -325.505)" fill="#fff"/>
          <path id="Trazado_40190" data-name="Trazado 40190" d="M165.781,275.921a1.015,1.015,0,0,1,.31-.763,1.337,1.337,0,0,1,1.687,0,1.089,1.089,0,0,1,0,1.534,1.322,1.322,0,0,1-1.676,0A1.012,1.012,0,0,1,165.781,275.921Zm2.19,9.716H165.9v-7.718h2.069Z" transform="translate(-160.467 -274.858)" fill="#fff"/>
          <path id="Trazado_40191" data-name="Trazado 40191" d="M227.117,296.2v1.9h1.32v1.512h-1.32v3.852a.919.919,0,0,0,.164.613.823.823,0,0,0,.628.185,3.283,3.283,0,0,0,.606-.05v1.562a4.244,4.244,0,0,1-1.248.185,1.968,1.968,0,0,1-2.211-2.19v-4.159h-1.127V298.1h1.127v-1.9Z" transform="translate(-215.447 -295.042)" fill="#fff"/>
          <path id="Trazado_40192" data-name="Trazado 40192" d="M329.715,328.565l.064.863A2.712,2.712,0,0,1,332,328.422a2.058,2.058,0,0,1,2.047,1.177,2.65,2.65,0,0,1,2.318-1.177,2.3,2.3,0,0,1,1.869.731,3.361,3.361,0,0,1,.613,2.2v4.929h-2.069v-4.922a1.47,1.47,0,0,0-.257-.959,1.138,1.138,0,0,0-.906-.3,1.287,1.287,0,0,0-1.284.885l.007,5.3h-2.062v-4.915a1.452,1.452,0,0,0-.264-.97,1.149,1.149,0,0,0-.9-.3,1.336,1.336,0,0,0-1.27.728v5.457h-2.062v-7.718Z" transform="translate(-313.644 -325.505)" fill="#fff"/>
          <path id="Trazado_40193" data-name="Trazado 40193" d="M554.084,332.352a4.578,4.578,0,0,1,.442-2.047,3.239,3.239,0,0,1,1.273-1.391,3.716,3.716,0,0,1,1.93-.492,3.515,3.515,0,0,1,2.55.956,3.837,3.837,0,0,1,1.1,2.6l.014.528a4.034,4.034,0,0,1-.992,2.85,3.843,3.843,0,0,1-5.325,0,4.106,4.106,0,0,1-1-2.91Zm2.062.146a2.884,2.884,0,0,0,.414,1.682,1.486,1.486,0,0,0,2.354.007,3.157,3.157,0,0,0,.421-1.84,2.857,2.857,0,0,0-.421-1.672,1.368,1.368,0,0,0-1.184-.593,1.345,1.345,0,0,0-1.17.589A3.209,3.209,0,0,0,556.146,332.5Z" transform="translate(-527.62 -325.505)" fill="#fff"/>
        </g>
        <g id="Grupo_18228" data-name="Grupo 18228" transform="translate(4.036 14.971)" style="mix-blend-mode: difference;isolation: isolate">
          <g id="Grupo_18227" data-name="Grupo 18227" transform="translate(0 0)">
            <path id="Trazado_40194" data-name="Trazado 40194" d="M78.435,330.5a5.615,5.615,0,0,0-.742-.057,1.51,1.51,0,0,0-1.534.792v5.05H74.1v-7.718h1.947l.057.92a1.91,1.91,0,0,1,1.719-1.063,2.163,2.163,0,0,1,.642.093Z" transform="translate(-74.098 -325.505)" fill="#991915"/>
            <path id="Trazado_40195" data-name="Trazado 40195" d="M171.665,275.921a1.015,1.015,0,0,1,.31-.763,1.337,1.337,0,0,1,1.687,0,1.089,1.089,0,0,1,0,1.534,1.322,1.322,0,0,1-1.676,0A1.012,1.012,0,0,1,171.665,275.921Zm2.19,9.716h-2.069v-7.718h2.069Z" transform="translate(-166.351 -274.858)" fill="#991915"/>
            <path id="Trazado_40196" data-name="Trazado 40196" d="M233,296.2v1.9h1.32v1.512H233v3.852a.919.919,0,0,0,.164.613.823.823,0,0,0,.628.185,3.283,3.283,0,0,0,.606-.05v1.562a4.244,4.244,0,0,1-1.248.185,1.968,1.968,0,0,1-2.211-2.19v-4.159h-1.127V298.1h1.127v-1.9Z" transform="translate(-221.331 -295.042)" fill="#991915"/>
            <path id="Trazado_40197" data-name="Trazado 40197" d="M335.6,328.565l.064.863a2.712,2.712,0,0,1,2.218-1.006,2.058,2.058,0,0,1,2.047,1.177,2.65,2.65,0,0,1,2.318-1.177,2.3,2.3,0,0,1,1.869.731,3.361,3.361,0,0,1,.613,2.2v4.929h-2.069v-4.922a1.47,1.47,0,0,0-.257-.959,1.138,1.138,0,0,0-.906-.3,1.287,1.287,0,0,0-1.284.885l.007,5.3H338.16v-4.915a1.452,1.452,0,0,0-.264-.97,1.148,1.148,0,0,0-.9-.3,1.336,1.336,0,0,0-1.27.728v5.457h-2.062v-7.718Z" transform="translate(-319.528 -325.505)" fill="#991915"/>
            <path id="Trazado_40198" data-name="Trazado 40198" d="M559.967,332.352a4.577,4.577,0,0,1,.442-2.047,3.237,3.237,0,0,1,1.273-1.391,3.715,3.715,0,0,1,1.93-.492,3.515,3.515,0,0,1,2.55.956,3.836,3.836,0,0,1,1.1,2.6l.014.528a4.034,4.034,0,0,1-.992,2.85,3.843,3.843,0,0,1-5.325,0,4.105,4.105,0,0,1-1-2.91Zm2.062.146a2.884,2.884,0,0,0,.414,1.682,1.486,1.486,0,0,0,2.354.007,3.157,3.157,0,0,0,.421-1.84,2.857,2.857,0,0,0-.421-1.672,1.368,1.368,0,0,0-1.184-.593,1.345,1.345,0,0,0-1.17.589A3.209,3.209,0,0,0,562.029,332.5Z" transform="translate(-533.503 -325.505)" fill="#991915"/>
          </g>
        </g>
      </g>
    </g>
  </g>
</svg>
