<svg xmlns="http://www.w3.org/2000/svg" xmlns:xlink="http://www.w3.org/1999/xlink" width="85" height="85" viewBox="0 0 85 85">
  <defs>
    <filter id="Rectángulo_18090" x="0" y="0" width="85" height="85" filterUnits="userSpaceOnUse">
      <feOffset dy="3" input="SourceAlpha"/>
      <feGaussianBlur stdDeviation="3" result="blur"/>
      <feFlood flood-opacity="0.161"/>
      <feComposite operator="in" in2="blur"/>
      <feComposite in="SourceGraphic"/>
    </filter>
    <clipPath id="clip-path">
      <rect id="Rectángulo_23364" data-name="Rectángulo 23364" width="45.439" height="44.004" transform="translate(0 0)" fill="none"/>
    </clipPath>
  </defs>
  <g id="Grupo_32052" data-name="Grupo 32052" transform="translate(-319 -197)">
    <g id="Grupo_31989" data-name="Grupo 31989" transform="translate(-150 184)">
      <g transform="matrix(1, 0, 0, 1, 469, 13)" filter="url(#Rectángulo_18090)">
        <rect id="Rectángulo_18090-2" data-name="Rectángulo 18090" width="67" height="67" rx="10" transform="translate(9 6)" fill="#fff"/>
      </g>
    </g>
    <g id="Grupo_32051" data-name="Grupo 32051" transform="translate(339 213.999)">
      <g id="Grupo_32050" data-name="Grupo 32050" transform="translate(0 0.001)" clip-path="url(#clip-path)">
        <path id="Trazado_67240" data-name="Trazado 67240" d="M3,1052.081a2.08,2.08,0,0,1,.289-.03q.536,0,.536.47v3.589H3Z" transform="translate(-2.886 -1012.208)" fill="#132430"/>
        <path id="Trazado_67241" data-name="Trazado 67241" d="M54.328,1056.11h-.7l-1.716-2.649v2.649h-.789v-4.022a1.65,1.65,0,0,1,.367-.036.624.624,0,0,1,.286.057.558.558,0,0,1,.208.214l1.553,2.535v-2.776a1.832,1.832,0,0,1,.271-.03q.518,0,.518.47Z" transform="translate(-49.189 -1012.209)" fill="#132430"/>
        <path id="Trazado_67242" data-name="Trazado 67242" d="M153.721,1053.361h-1.258a1.467,1.467,0,0,1-.018-.241.393.393,0,0,1,.139-.316.558.558,0,0,1,.373-.117h2.83a1.834,1.834,0,0,1,.018.259.38.38,0,0,1-.129.3.541.541,0,0,1-.364.111h-.759v3.36h-.831Z" transform="translate(-146.672 -1012.82)" fill="#132430"/>
        <path id="Trazado_67243" data-name="Trazado 67243" d="M260.383,1056.083a.553.553,0,0,1,.37.111.4.4,0,0,1,.129.316c0,.044,0,.081,0,.112s-.005.063-.009.1h-2.607v-4.034h2.511a1.16,1.16,0,0,1,.018.223.4.4,0,0,1-.117.325.627.627,0,0,1-.394.1h-1.186v.994h1.276v.644h-1.276v1.114Z" transform="translate(-248.483 -1012.82)" fill="#132430"/>
        <path id="Trazado_67244" data-name="Trazado 67244" d="M348.426,1052.925a1.308,1.308,0,0,1-.2.734,1.11,1.11,0,0,1-.563.44l.993,1.662a1.194,1.194,0,0,1-.482.1.679.679,0,0,1-.373-.1.9.9,0,0,1-.277-.313l-.686-1.168H346.5v1.517h-.831v-4.01a9.216,9.216,0,0,1,1.066-.06,2.224,2.224,0,0,1,1.273.292,1.029,1.029,0,0,1,.412.9m-.867.078a.676.676,0,0,0-.181-.518.8.8,0,0,0-.56-.169q-.108,0-.187.006l-.132.012v1.391h.283a.816.816,0,0,0,.575-.187.694.694,0,0,0,.2-.536" transform="translate(-332.583 -1011.902)" fill="#132430"/>
        <path id="Trazado_67245" data-name="Trazado 67245" d="M444.68,1056.11h-.7l-1.716-2.649v2.649h-.789v-4.022a1.649,1.649,0,0,1,.367-.036.624.624,0,0,1,.286.057.558.558,0,0,1,.208.214l1.553,2.535v-2.776a1.832,1.832,0,0,1,.271-.03q.518,0,.518.47Z" transform="translate(-424.757 -1012.209)" fill="#132430"/>
        <path id="Trazado_67246" data-name="Trazado 67246" d="M545.681,1056.109l-.343-.988h-1.391l-.331.988H542.8l1.4-3.974a1.206,1.206,0,0,1,.482-.084.529.529,0,0,1,.566.373l1.295,3.685Zm-1.03-3.306-.548,1.716h1.078Z" transform="translate(-522.24 -1012.208)" fill="#132430"/>
        <path id="Trazado_67247" data-name="Trazado 67247" d="M653.555,1054.5a.882.882,0,0,1-.268.168,1.865,1.865,0,0,1-.391.12,2.393,2.393,0,0,1-.461.042,1.764,1.764,0,0,1-1.391-.548,2.25,2.25,0,0,1-.488-1.547,2.629,2.629,0,0,1,.229-1.138,1.644,1.644,0,0,1,.65-.732,1.938,1.938,0,0,1,1.006-.25,2.008,2.008,0,0,1,.65.1,1.373,1.373,0,0,1,.482.265.35.35,0,0,1,.132.259.749.749,0,0,1-.289.464,1.469,1.469,0,0,0-.446-.319,1.216,1.216,0,0,0-.488-.1.938.938,0,0,0-.8.379,2.093,2.093,0,0,0,.009,2.107.988.988,0,0,0,.831.373,1.194,1.194,0,0,0,.4-.072,1.215,1.215,0,0,0,.292-.157q.12-.09.193-.157a.979.979,0,0,1,.277.482.279.279,0,0,1-.027.126.531.531,0,0,1-.1.127" transform="translate(-625.918 -1010.831)" fill="#132430"/>
        <path id="Trazado_67248" data-name="Trazado 67248" d="M753.372,1052.081a2.079,2.079,0,0,1,.289-.03q.536,0,.536.47v3.589h-.825Z" transform="translate(-724.84 -1012.208)" fill="#132430"/>
        <path id="Trazado_67249" data-name="Trazado 67249" d="M801.569,1052.7a2.35,2.35,0,0,1-.479,1.565,1.687,1.687,0,0,1-1.364.566,1.792,1.792,0,0,1-.987-.259,1.61,1.61,0,0,1-.611-.741,2.824,2.824,0,0,1-.208-1.126,2.561,2.561,0,0,1,.229-1.117,1.64,1.64,0,0,1,.644-.726,1.887,1.887,0,0,1,.981-.247,1.648,1.648,0,0,1,1.328.548,2.3,2.3,0,0,1,.467,1.535m-.849.006a1.918,1.918,0,0,0-.244-1.057.8.8,0,0,0-.707-.37.84.84,0,0,0-.741.37,1.864,1.864,0,0,0-.253,1.057,1.969,1.969,0,0,0,.253,1.081.865.865,0,0,0,1.442,0,1.986,1.986,0,0,0,.25-1.084" transform="translate(-767.701 -1010.831)" fill="#132430"/>
        <path id="Trazado_67250" data-name="Trazado 67250" d="M920.313,1056.11h-.7l-1.716-2.649v2.649h-.789v-4.022a1.65,1.65,0,0,1,.367-.036.624.624,0,0,1,.286.057.558.558,0,0,1,.208.214l1.553,2.535v-2.776a1.832,1.832,0,0,1,.271-.03q.518,0,.518.47Z" transform="translate(-882.377 -1012.209)" fill="#132430"/>
        <path id="Trazado_67251" data-name="Trazado 67251" d="M1021.314,1056.109l-.343-.988h-1.391l-.331.988h-.819l1.4-3.974a1.2,1.2,0,0,1,.482-.084.529.529,0,0,1,.566.373l1.294,3.685Zm-1.03-3.306-.548,1.716h1.078Z" transform="translate(-979.86 -1012.208)" fill="#132430"/>
        <path id="Trazado_67252" data-name="Trazado 67252" d="M1134.827,1055.441H1136q.488,0,.488.427a1.132,1.132,0,0,1-.012.241H1134v-4.028a2.082,2.082,0,0,1,.289-.03.6.6,0,0,1,.4.12.438.438,0,0,1,.138.349Z" transform="translate(-1091.049 -1012.208)" fill="#132430"/>
        <path id="Trazado_67253" data-name="Trazado 67253" d="M1.669,869.36H.024v-.008a1.539,1.539,0,0,1-.02-.158c0-.042,0-.092,0-.15a.582.582,0,0,1,.153-.39.652.652,0,0,1,.516-.177h3.7a2.4,2.4,0,0,1,.024.338.569.569,0,0,1-.142.374.629.629,0,0,1-.5.169H2.756v4.393H1.669Z" transform="translate(0 -835.587)" fill="#132430"/>
        <path id="Trazado_67254" data-name="Trazado 67254" d="M143.212,872.918a.631.631,0,0,1,.516.173.605.605,0,0,1,.138.386q0,.087,0,.146t-.012.13h-3.409v-5.275h3.283a1.344,1.344,0,0,1,.02.146c0,.039,0,.088,0,.146a.552.552,0,0,1-.142.413.763.763,0,0,1-.527.138h-1.551v1.3H143.2v.842h-1.669v1.457Z" transform="translate(-135.122 -835.587)" fill="#132430"/>
        <path id="Trazado_67255" data-name="Trazado 67255" d="M258.441,872.077h1.535a.9.9,0,0,1,.315.047.49.49,0,0,1,.2.126.438.438,0,0,1,.1.181.788.788,0,0,1,.027.2q0,.079,0,.189a.557.557,0,0,1-.012.126h-3.244v-5.267q.11-.016.217-.028a1.6,1.6,0,0,1,.161-.012,1.247,1.247,0,0,1,.24.024.662.662,0,0,1,.228.09.513.513,0,0,1,.173.185.639.639,0,0,1,.067.315Z" transform="translate(-247.607 -834.785)" fill="#132430"/>
        <path id="Trazado_67256" data-name="Trazado 67256" d="M372.136,872.918a.631.631,0,0,1,.516.173.605.605,0,0,1,.138.386q0,.087,0,.146t-.012.13h-3.409v-5.275h3.283a1.331,1.331,0,0,1,.02.146c0,.039,0,.088,0,.146a.552.552,0,0,1-.142.413.763.763,0,0,1-.527.138h-1.551v1.3h1.669v.842h-1.669v1.457Z" transform="translate(-355.376 -835.587)" fill="#132430"/>
        <path id="Trazado_67257" data-name="Trazado 67257" d="M664.243,870.824c0,.105,0,.21-.008.315s-.013.212-.024.323a2.021,2.021,0,0,1-.162.626,1.444,1.444,0,0,1-.378.512,1.818,1.818,0,0,1-.618.342,2.721,2.721,0,0,1-.874.126,2.946,2.946,0,0,1-.866-.11,1.594,1.594,0,0,1-.59-.319,1.375,1.375,0,0,1-.362-.512,2.628,2.628,0,0,1-.173-.7q-.016-.142-.024-.291t-.008-.315v-3.141q.11-.016.216-.028a1.586,1.586,0,0,1,.161-.012,1.249,1.249,0,0,1,.24.024.623.623,0,0,1,.224.09.527.527,0,0,1,.169.185.639.639,0,0,1,.067.315v2.637a3.372,3.372,0,0,0,.035.512.97.97,0,0,0,.142.39.71.71,0,0,0,.3.252,1.153,1.153,0,0,0,.5.091.841.841,0,0,0,.748-.311,1.528,1.528,0,0,0,.212-.87v-3.275q.11-.016.217-.028a1.586,1.586,0,0,1,.161-.012,1.245,1.245,0,0,1,.24.024.624.624,0,0,1,.224.09.528.528,0,0,1,.169.185.639.639,0,0,1,.067.315Z" transform="translate(-635.156 -834.784)" fill="#132430"/>
        <path id="Trazado_67258" data-name="Trazado 67258" d="M802.188,872.95h-.913l-2.244-3.464v3.464H798V867.69q.078-.016.213-.032a2.34,2.34,0,0,1,.268-.016.758.758,0,0,1,.394.086.782.782,0,0,1,.252.268l2.031,3.315v-3.629l.2-.028a1.289,1.289,0,0,1,.15-.012,1.191,1.191,0,0,1,.236.024.587.587,0,0,1,.217.09.51.51,0,0,1,.161.185.674.674,0,0,1,.063.315Z" transform="translate(-767.778 -834.784)" fill="#132430"/>
        <path id="Trazado_67259" data-name="Trazado 67259" d="M942.951,868.827a2.069,2.069,0,0,0-.441-.827,2.146,2.146,0,0,0-.831-.563,3.539,3.539,0,0,0-1.307-.208q-.26,0-.618.016t-.862.079v5.228h1.677a2.692,2.692,0,0,0,1.122-.216,2.16,2.16,0,0,0,.783-.587,2.444,2.444,0,0,0,.457-.866,3.637,3.637,0,0,0,.15-1.055,3.757,3.757,0,0,0-.13-1m-1.043,1.779a1.539,1.539,0,0,1-.248.594,1.168,1.168,0,0,1-.48.386,1.858,1.858,0,0,1-.768.138h-.433V868.1q.244-.024.472-.024a1.762,1.762,0,0,1,.744.138,1.177,1.177,0,0,1,.469.378,1.5,1.5,0,0,1,.244.563,3.227,3.227,0,0,1,.071.693,3.817,3.817,0,0,1-.071.764" transform="translate(-903.334 -834.385)" fill="#132430"/>
        <path id="Trazado_67260" data-name="Trazado 67260" d="M1078.471,867.426a2.42,2.42,0,0,0-.417-.862,1.985,1.985,0,0,0-.728-.579,2.785,2.785,0,0,0-2.153.008,2.148,2.148,0,0,0-.756.595,2.45,2.45,0,0,0-.441.87,3.8,3.8,0,0,0-.142,1.047,4.24,4.24,0,0,0,.13,1.063,2.53,2.53,0,0,0,.414.886,2.016,2.016,0,0,0,.732.606,2.407,2.407,0,0,0,1.086.225,2.521,2.521,0,0,0,1.1-.22,2.04,2.04,0,0,0,.748-.6,2.5,2.5,0,0,0,.425-.89,4.2,4.2,0,0,0,.134-1.075,4.1,4.1,0,0,0-.134-1.071m-1.043,1.8a2.107,2.107,0,0,1-.213.614,1.149,1.149,0,0,1-.39.425,1.216,1.216,0,0,1-1.2,0,1.18,1.18,0,0,1-.394-.425,2.041,2.041,0,0,1-.216-.614,3.8,3.8,0,0,1-.067-.724,3.683,3.683,0,0,1,.067-.716,1.836,1.836,0,0,1,.22-.595,1.1,1.1,0,0,1,1.012-.555,1.068,1.068,0,0,1,.583.15,1.172,1.172,0,0,1,.386.405,1.841,1.841,0,0,1,.213.595,3.923,3.923,0,0,1,.063.716,3.814,3.814,0,0,1-.067.724" transform="translate(-1033.166 -832.983)" fill="#132430"/>
        <path id="Trazado_67261" data-name="Trazado 67261" d="M490.928,868.495a2.733,2.733,0,0,0-.364-.024.752.752,0,0,0-.458.121.89.89,0,0,0-.26.317l-1.365,2.8-1.365-2.8a.89.89,0,0,0-.26-.317.752.752,0,0,0-.458-.121,2.733,2.733,0,0,0-.364.024,1.84,1.84,0,0,0-.289.069v5.183h1.021V870.3l1.185,2.353h1.059L490.2,870.3v3.448h1.021v-5.183a1.845,1.845,0,0,0-.289-.069" transform="translate(-467.35 -835.58)" fill="#132430"/>
        <path id="Trazado_67262" data-name="Trazado 67262" d="M461.633,97.889a14.98,14.98,0,0,0-5.666-11.745,15.007,15.007,0,0,0,0,23.491,14.98,14.98,0,0,0,5.666-11.745" transform="translate(-433.247 -82.882)" fill="#b10020"/>
        <path id="Trazado_67263" data-name="Trazado 67263" d="M240.056,3.263A14.943,14.943,0,0,0,230.714,0h-4.473a.35.35,0,0,0-.35.35V10.69a.35.35,0,0,0,.35.35h8.149v3.969a14.98,14.98,0,0,1,5.666-11.745" transform="translate(-217.336 -0.001)" fill="#890018"/>
        <path id="Trazado_67264" data-name="Trazado 67264" d="M450.3,396.279v14.1a.351.351,0,0,0,.448.337,14.965,14.965,0,0,0,5.218-2.687,14.98,14.98,0,0,1-5.666-11.745" transform="translate(-433.247 -381.271)" fill="#890018"/>
        <path id="Trazado_67265" data-name="Trazado 67265" d="M599.908,3.263A14.943,14.943,0,0,1,609.25,0h4.473a.35.35,0,0,1,.35.35V10.69a.35.35,0,0,1-.35.35h-8.149v3.969a14.98,14.98,0,0,0-5.666-11.745" transform="translate(-577.188 -0.001)" fill="#da0026"/>
        <path id="Trazado_67266" data-name="Trazado 67266" d="M605.574,396.279v14.1a.351.351,0,0,1-.448.337,14.965,14.965,0,0,1-5.218-2.687,14.98,14.98,0,0,0,5.666-11.745" transform="translate(-577.188 -381.271)" fill="#da0026"/>
      </g>
    </g>
  </g>
</svg>
