<svg xmlns="http://www.w3.org/2000/svg" xmlns:xlink="http://www.w3.org/1999/xlink" width="85" height="85" viewBox="0 0 85 85">
  <defs>
    <filter id="Rectángulo_17998" x="0" y="0" width="85" height="85" filterUnits="userSpaceOnUse">
      <feOffset dy="3" input="SourceAlpha"/>
      <feGaussianBlur stdDeviation="3" result="blur"/>
      <feFlood flood-opacity="0.161"/>
      <feComposite operator="in" in2="blur"/>
      <feComposite in="SourceGraphic"/>
    </filter>
  </defs>
  <g id="Grupo_18782" data-name="Grupo 18782" transform="translate(-523 -1246)">
    <g transform="matrix(1, 0, 0, 1, 523, 1246)" filter="url(#Rectángulo_17998)">
      <rect id="Rectángulo_17998-2" data-name="Rectángulo 17998" width="67" height="67" rx="10" transform="translate(9 6)" fill="#fff"/>
    </g>
    <g id="Grupo_786" data-name="Grupo 786" transform="translate(543 1270)">
      <rect id="Rectángulo_43" data-name="Rectángulo 43" width="14.325" height="21.906" rx="0.552" transform="translate(0 0.001)" fill="#e7181a"/>
      <rect id="Rectángulo_44" data-name="Rectángulo 44" width="45.701" height="31.071" transform="translate(0 0)" fill="none"/>
      <rect id="Rectángulo_45" data-name="Rectángulo 45" width="14.324" height="21.906" transform="translate(0 0)" fill="#ca001b"/>
      <path id="Rectángulo_46" data-name="Rectángulo 46" d="M.552,0h13.22a.552.552,0,0,1,.552.552v20.8a.551.551,0,0,1-.551.551H.551A.551.551,0,0,1,0,21.353V.552A.552.552,0,0,1,.552,0Z" transform="translate(0 0.001)" fill="none"/>
      <path id="Rectángulo_47" data-name="Rectángulo 47" d="M.551,0H13.774a.552.552,0,0,1,.552.552v20.8a.552.552,0,0,1-.552.552H.552A.552.552,0,0,1,0,21.354V.551A.551.551,0,0,1,.551,0Z" transform="translate(15.688 0.001)" fill="#e7181a"/>
      <rect id="Rectángulo_48" data-name="Rectángulo 48" width="45.701" height="31.071" transform="translate(0 0)" fill="none"/>
      <rect id="Rectángulo_49" data-name="Rectángulo 49" width="14.324" height="21.906" transform="translate(15.689 0)" fill="#ca001b"/>
      <path id="Rectángulo_50" data-name="Rectángulo 50" d="M.551,0H13.772a.552.552,0,0,1,.552.552v20.8a.552.552,0,0,1-.552.552H.551A.551.551,0,0,1,0,21.353V.551A.551.551,0,0,1,.551,0Z" transform="translate(15.689 0.001)" fill="none"/>
      <rect id="Rectángulo_51" data-name="Rectángulo 51" width="14.327" height="21.906" rx="0.552" transform="translate(31.375 0.001)" fill="#e7181a"/>
      <rect id="Rectángulo_52" data-name="Rectángulo 52" width="45.701" height="31.071" transform="translate(0 0)" fill="none"/>
      <rect id="Rectángulo_53" data-name="Rectángulo 53" width="14.325" height="21.906" transform="translate(31.376 0)" fill="#ca001b"/>
      <path id="Rectángulo_54" data-name="Rectángulo 54" d="M.552,0H13.774a.552.552,0,0,1,.552.552v20.8a.552.552,0,0,1-.552.552H.551A.551.551,0,0,1,0,21.353V.552A.552.552,0,0,1,.552,0Z" transform="translate(31.376 0.001)" fill="none"/>
      <path id="Trazado_617" data-name="Trazado 617" d="M191.538,75.937H183.18a.175.175,0,0,0-.176.173v1.653a.177.177,0,0,0,.176.176h2.477a.752.752,0,0,1,.752.752v7.46a.175.175,0,0,0,.176.176h1.647a.176.176,0,0,0,.178-.176v-7.46a.753.753,0,0,1,.752-.752h2.375a.179.179,0,0,0,.178-.176V76.11a.177.177,0,0,0-.178-.173" transform="translate(-180.394 -69.894)" fill="#fff"/>
      <path id="Trazado_618" data-name="Trazado 618" d="M195.3,84.324h-3.048a.958.958,0,0,1-.958-.961V76.112a.178.178,0,0,0-.178-.176h-1.647a.178.178,0,0,0-.178.176V84a2.1,2.1,0,0,0,2.265,2.328H195.3a.174.174,0,0,0,.176-.178V84.5a.176.176,0,0,0-.176-.178" transform="translate(-169.428 -69.896)" fill="#fff"/>
      <path id="Trazado_619" data-name="Trazado 619" d="M203.14,84.736l-1.167-1.167a.184.184,0,0,0-.255,0v-.005a3.226,3.226,0,1,1,0-4.816h0a.184.184,0,0,0,.255,0l1.167-1.164a.18.18,0,0,0,.011-.236,5.235,5.235,0,1,0,0,7.619.173.173,0,0,0-.011-.231" transform="translate(-160.624 -69.92)" fill="#fff"/>
      <path id="Trazado_620" data-name="Trazado 620" d="M189.618,85.08a2.356,2.356,0,0,1-2.5,2.361h-1.431a2.223,2.223,0,0,0,.7-.752h.728a1.6,1.6,0,1,0,0-3.2h-.928v.695a2.279,2.279,0,0,0-.475-.445,1.911,1.911,0,0,0-.351-.195v-.81h1.754a2.348,2.348,0,0,1,2.5,2.35m.475,2.389h.813V83.916h-.813Zm3.838-1.76a1.706,1.706,0,0,0-.354-.2c-.132-.055-.261-.1-.393-.143-.1-.036-.2-.069-.3-.1a1.5,1.5,0,0,1-.255-.1.6.6,0,0,1-.176-.126.228.228,0,0,1-.069-.165v-.014a.322.322,0,0,1,.129-.258.607.607,0,0,1,.371-.1,1.5,1.5,0,0,1,.483.091,2.546,2.546,0,0,1,.519.247l.324-.582a2.539,2.539,0,0,0-.629-.294,2.277,2.277,0,0,0-.681-.11,1.707,1.707,0,0,0-.494.074,1.264,1.264,0,0,0-.4.217.988.988,0,0,0-.269.34,1.007,1.007,0,0,0-.1.453v.014a.863.863,0,0,0,.1.431.991.991,0,0,0,.258.294,1.362,1.362,0,0,0,.36.189,3.275,3.275,0,0,0,.393.129c.1.033.206.06.3.091a1.3,1.3,0,0,1,.255.1.5.5,0,0,1,.176.129.259.259,0,0,1,.066.176v.011a.324.324,0,0,1-.148.28.66.66,0,0,1-.4.107,1.652,1.652,0,0,1-.577-.113,2.429,2.429,0,0,1-.59-.327l-.36.552a2.336,2.336,0,0,0,.73.4,2.407,2.407,0,0,0,.774.135,1.77,1.77,0,0,0,.519-.071,1.3,1.3,0,0,0,.423-.209,1.01,1.01,0,0,0,.277-.346,1.1,1.1,0,0,0,.1-.491v-.014a.777.777,0,0,0-.1-.412.989.989,0,0,0-.258-.286m7.861-.739a1.764,1.764,0,0,1,.143.714V85.7a1.781,1.781,0,0,1-.146.711,1.859,1.859,0,0,1-.4.59,1.981,1.981,0,0,1-2.114.4,1.885,1.885,0,0,1-.6-.393,1.83,1.83,0,0,1-.535-1.3V85.7a1.852,1.852,0,0,1,.143-.722,1.989,1.989,0,0,1,.4-.59,1.826,1.826,0,0,1,.6-.4,1.881,1.881,0,0,1,.755-.148,1.951,1.951,0,0,1,.758.146,1.82,1.82,0,0,1,.6.4,1.753,1.753,0,0,1,.393.588m-.67.73a1.245,1.245,0,0,0-.085-.445,1.1,1.1,0,0,0-.222-.365,1.07,1.07,0,0,0-.346-.244,1,1,0,0,0-.442-.091,1.054,1.054,0,0,0-.777.332,1.018,1.018,0,0,0-.217.354,1.31,1.31,0,0,0-.074.442V85.7a1.257,1.257,0,0,0,.08.439,1.175,1.175,0,0,0,.228.362,1.023,1.023,0,0,0,.34.25,1.055,1.055,0,0,0,.437.093,1.078,1.078,0,0,0,.448-.093,1.054,1.054,0,0,0,.34-.247,1.041,1.041,0,0,0,.214-.357,1.293,1.293,0,0,0,.077-.437Zm2.677.826-.955-2.611h-.876l1.463,3.58h.73l1.455-3.58h-.854Zm5.233-1.5a2.553,2.553,0,0,1,.1.73l0,.11c0,.041-.005.08-.011.121h-2.614a1.06,1.06,0,0,0,.349.67,1.028,1.028,0,0,0,.675.231,1.213,1.213,0,0,0,.527-.107,1.712,1.712,0,0,0,.437-.319l.481.426a2.023,2.023,0,0,1-.612.486,1.819,1.819,0,0,1-.843.181,1.884,1.884,0,0,1-.719-.135,1.8,1.8,0,0,1-.579-.379,1.77,1.77,0,0,1-.387-.582,1.929,1.929,0,0,1-.14-.75v-.014a2,2,0,0,1,.129-.719,1.741,1.741,0,0,1,.36-.59,1.661,1.661,0,0,1,.546-.4,1.824,1.824,0,0,1,1.447.008,1.531,1.531,0,0,1,.53.417,1.828,1.828,0,0,1,.324.61m-.706.335a.77.77,0,0,0-.085-.283.977.977,0,0,0-.181-.3.806.806,0,0,0-.272-.2.855.855,0,0,0-.362-.071.824.824,0,0,0-.623.258.942.942,0,0,0-.3.59Zm-11.79,1.483a1.084,1.084,0,0,1-1.068-1.15,1.07,1.07,0,0,1,1.027-1.137,1.192,1.192,0,0,1,.92.445l.505-.546a1.771,1.771,0,0,0-1.42-.61,1.853,1.853,0,0,0-.005,3.707,1.8,1.8,0,0,0,1.452-.664l-.491-.486a1.242,1.242,0,0,1-.92.442M210.562,84.5v-.588h-.815v3.553h.815V86.118a1.823,1.823,0,0,1,.085-.621,1.567,1.567,0,0,1,1.285-.884l-.28-.678a1.791,1.791,0,0,0-1.09.568m4.253-.588-.909,2.606-.851-2.606h-.868l1.318,3.528-.008.025a2.74,2.74,0,0,1-.508.892,1.941,1.941,0,0,1-.782.077v.667a3.28,3.28,0,0,0,1.178-.118,1.161,1.161,0,0,0,.522-.626c.2-.409,1.76-4.445,1.76-4.445Z" transform="translate(-176.278 -58.035)" fill="#868686"/>
      <path id="Trazado_621" data-name="Trazado 621" d="M188.1,84.97a1.881,1.881,0,1,0-1.881,1.878A1.88,1.88,0,0,0,188.1,84.97" transform="translate(-178.056 -57.409)" fill="#868686"/>
      <rect id="Rectángulo_55" data-name="Rectángulo 55" width="45.701" height="31.071" transform="translate(0 0)" fill="none"/>
      <rect id="Rectángulo_56" data-name="Rectángulo 56" width="45.701" height="31.071" transform="translate(0 0.001)" fill="none"/>
    </g>
  </g>
</svg>
