<svg xmlns="http://www.w3.org/2000/svg" xmlns:xlink="http://www.w3.org/1999/xlink" width="86" height="84" viewBox="0 0 86 84">
  <defs>
    <filter id="Rectángulo_18269" x="0" y="0" width="86" height="84" filterUnits="userSpaceOnUse">
      <feOffset dy="3" input="SourceAlpha"/>
      <feGaussianBlur stdDeviation="3" result="blur"/>
      <feFlood flood-opacity="0.161"/>
      <feComposite operator="in" in2="blur"/>
      <feComposite in="SourceGraphic"/>
    </filter>
    <clipPath id="clip-path">
      <path id="Trazado_38819" data-name="Trazado 38819" d="M424.141,1151.936l-1.522.113,1.232.9-.365,1.482,1.24-.892,1.3.8-.466-1.455,1.166-.986-1.527-.005-.579-1.414Z" transform="translate(-422.619 -1150.486)" fill="none"/>
    </clipPath>
    <linearGradient id="linear-gradient" x1="-73.86" y1="180.973" x2="-73.685" y2="180.973" gradientUnits="objectBoundingBox">
      <stop offset="0" stop-color="#643924"/>
      <stop offset="0.538" stop-color="#c7a45f"/>
      <stop offset="0.679" stop-color="#e3ccb2"/>
      <stop offset="0.785" stop-color="#cbaa6b"/>
      <stop offset="0.803" stop-color="#c7a45f"/>
      <stop offset="0.983" stop-color="#6d4329"/>
      <stop offset="1" stop-color="#643a24"/>
    </linearGradient>
  </defs>
  <g id="TRace" transform="translate(-1227 -1112)">
    <g transform="matrix(1, 0, 0, 1, 1227, 1112)" filter="url(#Rectángulo_18269)">
      <rect id="Rectángulo_18269-2" data-name="Rectángulo 18269" width="68" height="66" rx="10" transform="translate(9 6)" fill="#f7fcfe"/>
    </g>
    <g id="Grupo_19238" data-name="Grupo 19238" transform="translate(1247 1140)">
      <rect id="Rectángulo_17983" data-name="Rectángulo 17983" width="46.693" height="17.711" transform="translate(0 0)" fill="#009dd9"/>
      <path id="Trazado_38817" data-name="Trazado 38817" d="M439.442,1138.974v-2.469l-6.593.006v.643a4.21,4.21,0,0,0-2.881-.843c-2.657,0-3.61,1.038-3.61,2.619v2.321c0,.784-.153.934-.4.938s-.405-.189-.405-.938v-4.746H422.34c-1.149,0-2.006.539-2.609,2.14l-1.044,3.039c-.1.271-.217.314-.342.315-.145,0-.282-.089-.378-.39l-.352-.748a1.9,1.9,0,0,0,1.175-1.85v-.234c0-1.241-.718-2.271-3.646-2.271H402.988v2.469h1.992v-.518a.3.3,0,0,1,.3-.3h.8l0,4.549a1.529,1.529,0,0,0,1.533,1.526h1.514v-1.708l-.019,0a.548.548,0,0,1-.548-.548v-3.822h.8a.3.3,0,0,1,.3.3v.518h1.931v3.012a.547.547,0,0,1-.549.546v1.7h3.05v-2.944l.255,0a1.051,1.051,0,0,1,.943.524l1.263,2.418H419.1c1.121,0,1.362-.244,1.728-1.16l.445-1.246h1.793l0,2.406h16.384v-2.522h-2.01l0,.518a.3.3,0,0,1-.3.294l-1.79,0v-1.4h1.5v-1.633h-1.5v-1.327h1.79a.3.3,0,0,1,.3.3l0,.519Zm-23.233-.08c0,.4-.2.725-1.148.725l-.971,0v-1.459h.968c.945,0,1.151.334,1.151.734Zm6.845,1.3h-1.3l.233-.6c.378-.906.645-1.134,1.066-1.134Zm8.023,1.12v.064c0,.942-.5,1.145-1.115,1.145h0c-.615,0-1.114-.2-1.114-1.145v-2.1c0-.941.5-1.143,1.114-1.143h0c.615,0,1.115.2,1.115,1.143l0,.05h1.815l.04,1.987Z" transform="translate(-397.869 -1131.418)" fill="#fff"/>
      <path id="Trazado_38818" data-name="Trazado 38818" d="M420.64,1149.292l-.074-1.414-19.7,1.032.352,6.72,19.7-1.032.074,1.414,19.8-1.037-.352-6.721Z" transform="translate(-397.481 -1133.532)" fill="#121516"/>
      <g id="Grupo_17111" data-name="Grupo 17111" transform="translate(21.162 16.477)">
        <g id="Grupo_17110" data-name="Grupo 17110" clip-path="url(#clip-path)">
          <rect id="Rectángulo_17984" data-name="Rectángulo 17984" width="4.672" height="4.796" transform="matrix(0.195, -0.981, 0.981, 0.195, -0.755, 3.797)" fill="url(#linear-gradient)"/>
        </g>
      </g>
      <path id="Trazado_38820" data-name="Trazado 38820" d="M405.57,1153.378a2,2,0,0,1-.033.523.771.771,0,0,1-.2.382,1,1,0,0,1-.436.246,3.057,3.057,0,0,1-.731.111,3.456,3.456,0,0,1-.694-.034,2.694,2.694,0,0,1-.61-.159l.114-.708a5.37,5.37,0,0,0,.565.109,3.191,3.191,0,0,0,.6.023,1.76,1.76,0,0,0,.281-.033.345.345,0,0,0,.164-.077.253.253,0,0,0,.074-.136.841.841,0,0,0,.011-.208,1.671,1.671,0,0,0-.024-.216.217.217,0,0,0-.085-.133.629.629,0,0,0-.207-.086c-.092-.023-.22-.048-.386-.075a3.825,3.825,0,0,1-.588-.135.851.851,0,0,1-.347-.2.71.71,0,0,1-.174-.336,2.94,2.94,0,0,1-.067-.532,1.9,1.9,0,0,1,.033-.512.7.7,0,0,1,.2-.356.979.979,0,0,1,.413-.219,3.05,3.05,0,0,1,.678-.1c.176-.009.367-.009.572,0a5.735,5.735,0,0,1,.647.068l-.05.756c-.231-.028-.429-.047-.6-.056a5,5,0,0,0-.521,0,1.578,1.578,0,0,0-.245.029.315.315,0,0,0-.147.065.219.219,0,0,0-.069.118.649.649,0,0,0-.011.181,1.634,1.634,0,0,0,.024.225.2.2,0,0,0,.082.128.57.57,0,0,0,.2.08c.089.022.213.046.371.074a3.959,3.959,0,0,1,.641.162.923.923,0,0,1,.355.217.632.632,0,0,1,.155.326,4.338,4.338,0,0,1,.05.492" transform="translate(-397.832 -1134.012)" fill="#fff"/>
      <path id="Trazado_38821" data-name="Trazado 38821" d="M409.685,1151.953a1.061,1.061,0,0,1-.28.863,1.59,1.59,0,0,1-1.041.338l-.685.036.064,1.213-.9.047-.209-4,1.633-.086a2.293,2.293,0,0,1,.622.04,1.044,1.044,0,0,1,.422.191.816.816,0,0,1,.25.342,1.569,1.569,0,0,1,.1.491Zm-.923-.391a.443.443,0,0,0-.115-.313.538.538,0,0,0-.387-.082l-.684.035.063,1.207.685-.036a.383.383,0,0,0,.457-.463Z" transform="translate(-398.535 -1133.986)" fill="#fff"/>
      <path id="Trazado_38822" data-name="Trazado 38822" d="M413.925,1152.9a1.261,1.261,0,0,1-.06.452,1.079,1.079,0,0,1-.247.407,1.325,1.325,0,0,1-.466.3,2.517,2.517,0,0,1-1.438.076,1.345,1.345,0,0,1-.492-.255,1.063,1.063,0,0,1-.287-.378,1.22,1.22,0,0,1-.108-.443l-.087-1.669a1.245,1.245,0,0,1,.06-.452,1.07,1.07,0,0,1,.247-.406,1.32,1.32,0,0,1,.463-.3,2.531,2.531,0,0,1,1.438-.075,1.332,1.332,0,0,1,.494.254,1.068,1.068,0,0,1,.288.379,1.246,1.246,0,0,1,.108.443Zm-.984-1.544a.47.47,0,0,0-.172-.361.978.978,0,0,0-.99.052.467.467,0,0,0-.134.377l.079,1.513a.469.469,0,0,0,.172.362.978.978,0,0,0,.99-.052.469.469,0,0,0,.134-.378Z" transform="translate(-399.286 -1133.935)" fill="#fff"/>
      <path id="Trazado_38823" data-name="Trazado 38823" d="M416.727,1152.686l-.529.027.065,1.243-.9.047-.209-4,1.663-.087a2.293,2.293,0,0,1,.622.04,1.031,1.031,0,0,1,.423.192.808.808,0,0,1,.25.342,1.546,1.546,0,0,1,.1.492l.026.492a1.279,1.279,0,0,1-.105.635.86.86,0,0,1-.424.4l1.038,1.318-1.068.056Zm.586-1.572a.433.433,0,0,0-.118-.319.563.563,0,0,0-.383-.077l-.715.038.062,1.176.714-.037a.524.524,0,0,0,.378-.126.486.486,0,0,0,.079-.338Z" transform="translate(-400.093 -1133.904)" fill="#fff"/>
      <path id="Trazado_38824" data-name="Trazado 38824" d="M421.175,1150.474l.168,3.2-.9.047-.168-3.2-1.075.056-.042-.8,3.05-.159.042.8Z" transform="translate(-400.825 -1133.85)" fill="#fff"/>
      <path id="Trazado_38825" data-name="Trazado 38825" d="M430.614,1153.7a1.968,1.968,0,0,1-.033.523.763.763,0,0,1-.2.382,1.006,1.006,0,0,1-.436.246,3.066,3.066,0,0,1-.731.111,3.528,3.528,0,0,1-.695-.034,2.713,2.713,0,0,1-.61-.159l.113-.708a5.572,5.572,0,0,0,.566.109,3.18,3.18,0,0,0,.6.022,1.664,1.664,0,0,0,.281-.033.335.335,0,0,0,.165-.078.249.249,0,0,0,.074-.135.849.849,0,0,0,.011-.208,1.68,1.68,0,0,0-.023-.215.216.216,0,0,0-.086-.134.637.637,0,0,0-.206-.085c-.092-.023-.221-.048-.387-.076a3.832,3.832,0,0,1-.588-.134.857.857,0,0,1-.348-.2.715.715,0,0,1-.174-.337,3,3,0,0,1-.067-.531,1.9,1.9,0,0,1,.034-.512.7.7,0,0,1,.2-.355.983.983,0,0,1,.414-.221,3.054,3.054,0,0,1,.677-.1c.177-.009.367-.01.572,0a5.872,5.872,0,0,1,.647.067l-.05.757q-.346-.043-.6-.056a5,5,0,0,0-.521,0,1.6,1.6,0,0,0-.246.029.318.318,0,0,0-.147.064.221.221,0,0,0-.069.118.687.687,0,0,0-.011.182,1.644,1.644,0,0,0,.025.225.2.2,0,0,0,.082.128.571.571,0,0,0,.2.08c.09.021.213.046.372.074a4.025,4.025,0,0,1,.641.163.909.909,0,0,1,.354.217.61.61,0,0,1,.155.326,4.121,4.121,0,0,1,.05.492m2.15-2.193.167,3.2-.9.047-.167-3.2-1.075.056-.041-.8,3.049-.16.042.8Zm6.431,1.639-.528.027.065,1.243-.9.047-.209-4,1.663-.087a2.267,2.267,0,0,1,.622.039,1.036,1.036,0,0,1,.422.192.811.811,0,0,1,.25.341,1.6,1.6,0,0,1,.1.492l.025.492a1.289,1.289,0,0,1-.105.635.864.864,0,0,1-.424.4l1.038,1.318-1.069.056Zm.586-1.572a.431.431,0,0,0-.119-.319.558.558,0,0,0-.383-.076l-.714.038.062,1.176.713-.037a.522.522,0,0,0,.379-.126.484.484,0,0,0,.079-.338Zm4.29,1.431a2,2,0,0,1-.033.523.771.771,0,0,1-.2.382,1.011,1.011,0,0,1-.436.246,3.084,3.084,0,0,1-.732.111,3.52,3.52,0,0,1-.694-.034,2.663,2.663,0,0,1-.61-.159l.114-.709a5.609,5.609,0,0,0,.566.11,3.264,3.264,0,0,0,.6.023,1.878,1.878,0,0,0,.281-.033.354.354,0,0,0,.165-.078.259.259,0,0,0,.074-.136.851.851,0,0,0,.01-.208,1.563,1.563,0,0,0-.023-.215.209.209,0,0,0-.085-.133.63.63,0,0,0-.206-.086c-.092-.023-.221-.048-.387-.076a3.841,3.841,0,0,1-.588-.134.857.857,0,0,1-.347-.2.716.716,0,0,1-.174-.337,2.989,2.989,0,0,1-.067-.531,1.836,1.836,0,0,1,.033-.512.7.7,0,0,1,.2-.356.993.993,0,0,1,.413-.22,3.033,3.033,0,0,1,.678-.1q.265-.013.572,0a5.756,5.756,0,0,1,.647.067l-.051.757c-.23-.028-.429-.047-.6-.056a5,5,0,0,0-.521,0,1.775,1.775,0,0,0-.245.028.331.331,0,0,0-.147.065.22.22,0,0,0-.069.119.643.643,0,0,0-.011.181,1.647,1.647,0,0,0,.024.225.2.2,0,0,0,.083.128.57.57,0,0,0,.2.08c.089.021.213.046.371.074a3.987,3.987,0,0,1,.641.162.928.928,0,0,1,.355.217.623.623,0,0,1,.155.326,4.14,4.14,0,0,1,.05.492" transform="translate(-402.41 -1133.944)" fill="#fff"/>
      <path id="Trazado_38826" data-name="Trazado 38826" d="M438.749,1154.563l-.936.049-.257-.769-1.339.07-.175.792-.936.049,1.009-4.062,1.2-.063Zm-2.367-1.411.919-.048-.544-1.651Z" transform="translate(-403.74 -1134.035)" fill="#fff"/>
    </g>
  </g>
</svg>
