<svg xmlns="http://www.w3.org/2000/svg" width="59" height="58" viewBox="0 0 59 58">
  <g id="Grupo_18660" data-name="Grupo 18660" transform="translate(-0.013)">
    <rect id="Rectángulo_18198" data-name="Rectángulo 18198" width="59" height="58" transform="translate(0.013)" fill="none"/>
    <g id="_120_TV_UNAM_Color" data-name="120 TV UNAM Color" transform="translate(29.925 29.365)">
      <g id="Grupo_18582" data-name="Grupo 18582" transform="translate(-22.969 -6.757)">
        <path id="Trazado_40800" data-name="Trazado 40800" d="M4.36.42,4.817,1.84a5.016,5.016,0,0,1,.646-.207L5,.212A6.494,6.494,0,0,0,4.36.42Zm-.7,2.057L2.71,1.325c-.181.135-.356.279-.523.431l.952,1.152A5.219,5.219,0,0,1,3.66,2.476Zm-2.1,3.3L.083,5.6A6.482,6.482,0,0,0,0,6.269l1.482.181A5.3,5.3,0,0,1,1.563,5.778Zm4.888-4.3L6.269,0C6.041.017,5.817.044,5.6.082l.182,1.482A5.161,5.161,0,0,1,6.451,1.482ZM1.842,4.814.421,4.355C.341,4.564.273,4.781.213,5l1.42.458A5.535,5.535,0,0,1,1.842,4.814ZM2.3,3.923.988,3.206C.869,3.4.76,3.6.66,3.8l1.309.718A5.341,5.341,0,0,1,2.3,3.923Zm.613-.788L1.76,2.184a6.575,6.575,0,0,0-.432.522l1.15.952A5.11,5.11,0,0,1,2.91,3.136Zm8.972,2.327L13.3,5a6.106,6.106,0,0,0-.208-.644l-1.42.457A5.117,5.117,0,0,1,11.882,5.463Zm-.336-.941,1.31-.718c-.1-.2-.207-.4-.325-.594l-1.31.717A5.355,5.355,0,0,1,11.546,4.522ZM7.064,1.482a5.183,5.183,0,0,1,.672.082L7.919.082C7.7.044,7.473.017,7.246,0ZM12.031,6.45l1.482-.181a6.143,6.143,0,0,0-.082-.672l-1.48.181A5.3,5.3,0,0,1,12.031,6.45Zm-.992-2.789,1.151-.95c-.135-.182-.28-.356-.431-.522l-1.152.95A5.426,5.426,0,0,1,11.039,3.661Zm-.661-.75.954-1.152c-.168-.152-.341-.3-.523-.431L9.858,2.478A5.078,5.078,0,0,1,10.378,2.911ZM9.159.422Q8.844.3,8.515.212L8.056,1.634a5.478,5.478,0,0,1,.644.208ZM9.591,2.3l.718-1.31C10.116.87,9.918.759,9.716.661L9,1.971A5.182,5.182,0,0,1,9.591,2.3Zm-5.07-.329L3.8.658A6.531,6.531,0,0,0,3.21.986l.718,1.308A5.466,5.466,0,0,1,4.521,1.968Zm5.333,9.071.95,1.151c.182-.137.354-.28.523-.432l-.95-1.151A5.6,5.6,0,0,1,9.854,11.039Zm-.862.507.717,1.309a6.387,6.387,0,0,0,.6-.325l-.718-1.31A5.074,5.074,0,0,1,8.992,11.546ZM10.6,10.38l1.15.951a6.491,6.491,0,0,0,.433-.522l-1.15-.952A5.8,5.8,0,0,1,10.6,10.38Zm-2.554,1.5L8.509,13.3c.22-.059.435-.129.645-.207L8.7,11.674A5.191,5.191,0,0,1,8.051,11.882Zm3.9-4.147,1.48.184a6.175,6.175,0,0,0,.082-.673l-1.482-.182A5.245,5.245,0,0,1,11.951,7.735Zm-4.887,4.3.182,1.483c.227-.017.451-.044.673-.082L7.736,11.95A4.965,4.965,0,0,1,7.064,12.032Zm4.153-2.441,1.308.716a6.2,6.2,0,0,0,.326-.593L11.544,9A5.446,5.446,0,0,1,11.218,9.591Zm.454-.89,1.42.459a6.4,6.4,0,0,0,.209-.645L11.88,8.056A5.182,5.182,0,0,1,11.671,8.7ZM4.355,13.091A5.977,5.977,0,0,0,5,13.3l.459-1.42a4.992,4.992,0,0,1-.646-.208ZM3.134,10.6l-.951,1.15a6.755,6.755,0,0,0,.522.433l.952-1.15A5.33,5.33,0,0,1,3.134,10.6Zm-.659-.75-1.152.95c.136.181.28.354.431.521l1.152-.95A5.679,5.679,0,0,1,2.475,9.854Zm-.507-.861L.658,9.71q.149.3.325.593l1.31-.716A5.328,5.328,0,0,1,1.969,8.994Zm-.336-.941L.212,8.509a6.2,6.2,0,0,0,.208.646L1.84,8.7A5.215,5.215,0,0,1,1.633,8.052Zm2.291,3.166-.718,1.308c.192.117.391.227.593.326l.718-1.309A5.549,5.549,0,0,1,3.923,11.218ZM5.6,13.433c.222.038.445.065.673.082l.182-1.483a4.946,4.946,0,0,1-.673-.082ZM1.482,7.064,0,7.246a6.516,6.516,0,0,0,.083.673l1.48-.184A5.245,5.245,0,0,1,1.482,7.064Z" fill="#c1831a"/>
        <g id="Grupo_18581" data-name="Grupo 18581" transform="translate(16.34 4.416)">
          <g id="Grupo_18579" data-name="Grupo 18579">
            <path id="Trazado_40801" data-name="Trazado 40801" d="M26.571,6.757V7.784h1v.772H26.563v1.562a.449.449,0,0,0,.471.513,1.032,1.032,0,0,0,.433-.11l.25.762a1.993,1.993,0,0,1-.741.156,1.171,1.171,0,0,1-1.3-1.321V8.556H25V7.784h.674V6.851Z" transform="translate(-25.001 -6.757)" fill="#0e1e4a"/>
            <path id="Trazado_40802" data-name="Trazado 40802" d="M33.777,8.266l-1.541,3.64h-.969L29.72,8.266H30.7l.5,1.2.558,1.525.55-1.51.5-1.212Z" transform="translate(-26.636 -7.28)" fill="#0e1e4a"/>
          </g>
          <g id="Grupo_18580" data-name="Grupo 18580" transform="translate(10.163 0.867)">
            <path id="Trazado_40803" data-name="Trazado 40803" d="M41.445,8.3V10.19a.862.862,0,0,0,.873.967.951.951,0,0,0,.925-1.012V8.3h.888v3.625h-.612l-.245-.493a1.613,1.613,0,0,1-1.227.543c-.866,0-1.5-.652-1.5-1.776V8.3Z" transform="translate(-40.551 -8.157)" fill="#0e1e4a"/>
            <path id="Trazado_40804" data-name="Trazado 40804" d="M50.214,11.884V9.99a.862.862,0,0,0-.87-.97.953.953,0,0,0-.925,1.015v1.849H47.53V8.257h.613l.246.491a1.632,1.632,0,0,1,1.19-.541,1.574,1.574,0,0,1,1.532,1.776v1.9Z" transform="translate(-42.969 -8.126)" fill="#0e1e4a"/>
            <path id="Trazado_40805" data-name="Trazado 40805" d="M64.029,11.88V9.942c0-.478-.248-.909-.739-.909a.825.825,0,0,0-.771.909V11.88h-.895V8.253h.642l.253.442a1.046,1.046,0,0,1,.954-.5,1.082,1.082,0,0,1,1.071.674,1.31,1.31,0,0,1,1.211-.659c1.029,0,1.533.629,1.533,1.716V11.88h-.895V9.928c0-.478-.2-.88-.682-.88a.822.822,0,0,0-.786.894V11.88Z" transform="translate(-47.852 -8.122)" fill="#0e1e4a"/>
            <path id="Trazado_40806" data-name="Trazado 40806" d="M57.3,8.173l-.217.5a1.324,1.324,0,0,0-1.15-.587A1.761,1.761,0,0,0,54.05,9.975,1.75,1.75,0,0,0,55.914,11.9a1.371,1.371,0,0,0,1.173-.637l.045.579h.844V8.173Zm-1.367,2.976a1.138,1.138,0,1,1,1.136-1.139A1.137,1.137,0,0,1,55.937,11.149Z" transform="translate(-45.228 -8.083)" fill="#0e1e4a"/>
          </g>
          <path id="Trazado_40807" data-name="Trazado 40807" d="M37.355,11.254a.761.761,0,1,1,.76-.761A.762.762,0,0,1,37.355,11.254Z" transform="translate(-29.017 -7.788)" fill="#c1831a"/>
        </g>
      </g>
    </g>
  </g>
</svg>
