<svg xmlns="http://www.w3.org/2000/svg" xmlns:xlink="http://www.w3.org/1999/xlink" width="84" height="85" viewBox="0 0 84 85">
  <defs>
    <filter id="Rectángulo_17998" x="0" y="0" width="84" height="85" filterUnits="userSpaceOnUse">
      <feOffset dy="3" input="SourceAlpha"/>
      <feGaussianBlur stdDeviation="3" result="blur"/>
      <feFlood flood-opacity="0.161"/>
      <feComposite operator="in" in2="blur"/>
      <feComposite in="SourceGraphic"/>
    </filter>
    <clipPath id="clip-path">
      <path id="Trazado_39911" data-name="Trazado 39911" d="M850.45,398.858v6.779h4.987v-1.589h-3.226v-1.091h2.883v-1.48h-2.883v-1.028h3.179v-1.59Z" transform="translate(-850.45 -398.858)"/>
    </clipPath>
    <clipPath id="clip-path-2">
      <path id="Trazado_39913" data-name="Trazado 39913" d="M1069.64,400.432h1.091c.592,0,.95.3.95.841,0,.483-.343.81-.95.81h-1.091Zm-1.73-1.574h0v6.779h1.73v-2.073h.873l1.091,2.073h1.995l-1.465-2.369a2.129,2.129,0,0,0,1.263-2.072,2.31,2.31,0,0,0-2.618-2.337Z" transform="translate(-1067.91 -398.858)"/>
    </clipPath>
    <clipPath id="clip-path-3">
      <path id="Trazado_39915" data-name="Trazado 39915" d="M1755.25,413.278v6.373h4.628v-1.5l-2.914-.031v-4.769l-1.714-.078Z" transform="translate(-1755.25 -413.278)"/>
    </clipPath>
    <clipPath id="clip-path-4">
      <path id="Trazado_39917" data-name="Trazado 39917" d="M1282.321,400.414c0,1.2,1.012,1.792,2.337,2.135.826.218,1.029.358,1.029.654s-.249.452-.7.452a3,3,0,0,1-1.995-.81l-.951,1.231a4.04,4.04,0,0,0,2.883,1.122c1.5,0,2.493-.81,2.493-2.151,0-1.262-.872-1.761-2.291-2.119-.857-.218-1.075-.437-1.075-.67,0-.249.2-.421.623-.421a2.956,2.956,0,0,1,1.729.67l.842-1.278a3.649,3.649,0,0,0-2.525-.935,2.13,2.13,0,0,0-2.4,2.12" transform="translate(-1282.04 -398.295)"/>
    </clipPath>
    <clipPath id="clip-path-5">
      <path id="Trazado_39919" data-name="Trazado 39919" d="M1486.159,410.069l.7-1.839.685,1.854Zm-2.743,2.586h1.792l.452-1.169h2.369l.452,1.169h1.839l-2.617-6.529-1.652-.047Z" transform="translate(-1483.416 -406.08)"/>
    </clipPath>
    <clipPath id="clip-path-6">
      <path id="Trazado_39921" data-name="Trazado 39921" d="M499.282,402.218v6.654h1.745v-6.685h0c-.577.016-1.169.031-1.745.031" transform="translate(-499.282 -402.187)"/>
    </clipPath>
    <clipPath id="clip-path-7">
      <path id="Trazado_39923" data-name="Trazado 39923" d="M593.861,398.874l-1.325,4.285-1.48-4.254-1.9.031,2.509,6.7h1.652l2.431-6.779h0c-.638,0-1.262.016-1.885.016" transform="translate(-589.155 -398.858)"/>
    </clipPath>
    <clipPath id="clip-path-8">
      <path id="Trazado_39925" data-name="Trazado 39925" d="M4.021,412.226V415.8c0,.888-.452,1.309-1.137,1.309-.7,0-1.138-.405-1.138-1.309V412.32c-.576.031-1.169.062-1.745.078v3.46a2.554,2.554,0,0,0,2.868,2.821,2.621,2.621,0,0,0,2.883-2.961v-3.553h0Z" transform="translate(0 -412.164)"/>
    </clipPath>
    <clipPath id="clip-path-9">
      <path id="Trazado_39927" data-name="Trazado 39927" d="M250.454,404.45v3.475l-2.54-3.4-1.589.047v6.451h1.683v-3.569l2.634,3.569h1.511V404.4Z" transform="translate(-246.324 -404.403)"/>
    </clipPath>
    <clipPath id="clip-path-10">
      <path id="Trazado_39929" data-name="Trazado 39929" d="M449.915,9.724l2.166-.046a12.856,12.856,0,0,1,12.108-8.462,13.778,13.778,0,0,1,12.747,8.93h.7a14.64,14.64,0,0,0-27.723-.421" transform="translate(-449.915)"/>
    </clipPath>
    <clipPath id="clip-path-11">
      <path id="Trazado_39931" data-name="Trazado 39931" d="M453.8,700.645h0a14.594,14.594,0,0,0,25.261,4.067h-.779a13.206,13.206,0,0,1-10.394,4.768,13.07,13.07,0,0,1-12.747-8.836Z" transform="translate(-453.795 -700.645)"/>
    </clipPath>
    <clipPath id="clip-path-12">
      <path id="Trazado_39933" data-name="Trazado 39933" d="M1354.41,689.555l-.935,2.384-.935-2.384h-.592l1.278,3.132h.483l1.294-3.132Z" transform="translate(-1351.948 -689.555)"/>
    </clipPath>
    <clipPath id="clip-path-13">
      <path id="Trazado_39935" data-name="Trazado 39935" d="M1242.625,689.555h0v.514h.983v2.619h.545v-2.619h.982v-.514Z" transform="translate(-1242.625 -689.555)"/>
    </clipPath>
  </defs>
  <g id="Grupo_18789" data-name="Grupo 18789" transform="translate(-1140 -1246)">
    <g transform="matrix(1, 0, 0, 1, 1140, 1246)" filter="url(#Rectángulo_17998)">
      <rect id="Rectángulo_17998-2" data-name="Rectángulo 17998" width="66" height="67" rx="10" transform="translate(9 6)" fill="#fff"/>
    </g>
    <g id="_206_Universal_Negro" data-name="206 Universal Negro" transform="translate(1155 1271)">
      <g id="Grupo_18169" data-name="Grupo 18169" transform="translate(0 0)">
        <g id="Grupo_18144" data-name="Grupo 18144" transform="translate(23.89 11.204)">
          <path id="Trazado_39910" data-name="Trazado 39910" d="M850.45,398.858v6.779h4.987v-1.589h-3.226v-1.091h2.883v-1.48h-2.883v-1.028h3.179v-1.59Z" transform="translate(-850.45 -398.858)"/>
          <g id="Grupo_18143" data-name="Grupo 18143" clip-path="url(#clip-path)">
            <rect id="Rectángulo_18027" data-name="Rectángulo 18027" width="8.379" height="8.232" transform="translate(-3.367 3.779) rotate(-48.305)"/>
          </g>
        </g>
        <g id="Grupo_18146" data-name="Grupo 18146" transform="translate(29.998 11.204)">
          <path id="Trazado_39912" data-name="Trazado 39912" d="M1069.64,400.432h1.091c.592,0,.95.3.95.841,0,.483-.343.81-.95.81h-1.091Zm-1.73-1.574h0v6.779h1.73v-2.073h.873l1.091,2.073h1.995l-1.465-2.369a2.129,2.129,0,0,0,1.263-2.072,2.31,2.31,0,0,0-2.618-2.337Z" transform="translate(-1067.91 -398.858)"/>
          <g id="Grupo_18145" data-name="Grupo 18145" clip-path="url(#clip-path-2)">
            <rect id="Rectángulo_18028" data-name="Rectángulo 18028" width="8.845" height="8.756" transform="matrix(0.665, -0.747, 0.747, 0.665, -3.367, 3.78)"/>
          </g>
        </g>
        <g id="Grupo_18148" data-name="Grupo 18148" transform="translate(49.306 11.609)">
          <path id="Trazado_39914" data-name="Trazado 39914" d="M1755.25,413.278v6.373h4.628v-1.5l-2.914-.031v-4.769l-1.714-.078Z" transform="translate(-1755.25 -413.278)"/>
          <g id="Grupo_18147" data-name="Grupo 18147" clip-path="url(#clip-path-3)">
            <rect id="Rectángulo_18029" data-name="Rectángulo 18029" width="7.838" height="7.695" transform="translate(-3.166 3.554) rotate(-48.305)"/>
          </g>
        </g>
        <g id="Grupo_18150" data-name="Grupo 18150" transform="translate(36.013 11.188)">
          <path id="Trazado_39916" data-name="Trazado 39916" d="M1282.321,400.414c0,1.2,1.012,1.792,2.337,2.135.826.218,1.029.358,1.029.654s-.249.452-.7.452a3,3,0,0,1-1.995-.81l-.951,1.231a4.04,4.04,0,0,0,2.883,1.122c1.5,0,2.493-.81,2.493-2.151,0-1.262-.872-1.761-2.291-2.119-.857-.218-1.075-.437-1.075-.67,0-.249.2-.421.623-.421a2.956,2.956,0,0,1,1.729.67l.842-1.278a3.649,3.649,0,0,0-2.525-.935,2.13,2.13,0,0,0-2.4,2.12" transform="translate(-1282.04 -398.295)"/>
          <g id="Grupo_18149" data-name="Grupo 18149" clip-path="url(#clip-path-4)">
            <rect id="Rectángulo_18030" data-name="Rectángulo 18030" width="8.731" height="8.607" transform="translate(-3.429 3.849) rotate(-48.305)"/>
          </g>
        </g>
        <g id="Grupo_18152" data-name="Grupo 18152" transform="translate(41.67 11.407)">
          <path id="Trazado_39918" data-name="Trazado 39918" d="M1486.159,410.069l.7-1.839.685,1.854Zm-2.743,2.586h1.792l.452-1.169h2.369l.452,1.169h1.839l-2.617-6.529-1.652-.047Z" transform="translate(-1483.416 -406.08)"/>
          <g id="Grupo_18151" data-name="Grupo 18151" clip-path="url(#clip-path-5)">
            <rect id="Rectángulo_18031" data-name="Rectángulo 18031" width="9.502" height="9.529" transform="translate(-3.266 3.667) rotate(-48.305)"/>
          </g>
        </g>
        <g id="Grupo_18154" data-name="Grupo 18154" transform="translate(14.025 11.298)">
          <path id="Trazado_39920" data-name="Trazado 39920" d="M499.282,402.218v6.654h1.745v-6.685h0c-.577.016-1.169.031-1.745.031" transform="translate(-499.282 -402.187)"/>
          <g id="Grupo_18153" data-name="Grupo 18153" clip-path="url(#clip-path-6)">
            <rect id="Rectángulo_18032" data-name="Rectángulo 18032" width="6.153" height="5.75" transform="translate(-3.321 3.728) rotate(-48.305)"/>
          </g>
        </g>
        <g id="Grupo_18156" data-name="Grupo 18156" transform="translate(16.55 11.204)">
          <path id="Trazado_39922" data-name="Trazado 39922" d="M593.861,398.874l-1.325,4.285-1.48-4.254-1.9.031,2.509,6.7h1.652l2.431-6.779h0c-.638,0-1.262.016-1.885.016" transform="translate(-589.155 -398.858)"/>
          <g id="Grupo_18155" data-name="Grupo 18155" clip-path="url(#clip-path-7)">
            <rect id="Rectángulo_18033" data-name="Rectángulo 18033" width="9.446" height="9.431" transform="matrix(0.665, -0.747, 0.747, 0.665, -3.367, 3.78)"/>
          </g>
        </g>
        <g id="Grupo_18158" data-name="Grupo 18158" transform="translate(0 11.578)">
          <path id="Trazado_39924" data-name="Trazado 39924" d="M4.021,412.226V415.8c0,.888-.452,1.309-1.137,1.309-.7,0-1.138-.405-1.138-1.309V412.32c-.576.031-1.169.062-1.745.078v3.46a2.554,2.554,0,0,0,2.868,2.821,2.621,2.621,0,0,0,2.883-2.961v-3.553h0Z" transform="translate(0 -412.164)"/>
          <g id="Grupo_18157" data-name="Grupo 18157" clip-path="url(#clip-path-8)">
            <rect id="Rectángulo_18034" data-name="Rectángulo 18034" width="8.689" height="8.627" transform="translate(-3.236 3.632) rotate(-48.305)"/>
          </g>
        </g>
        <g id="Grupo_18160" data-name="Grupo 18160" transform="translate(6.919 11.36)">
          <path id="Trazado_39926" data-name="Trazado 39926" d="M250.454,404.45v3.475l-2.54-3.4-1.589.047v6.451h1.683v-3.569l2.634,3.569h1.511V404.4Z" transform="translate(-246.324 -404.403)"/>
          <g id="Grupo_18159" data-name="Grupo 18159" clip-path="url(#clip-path-9)">
            <rect id="Rectángulo_18035" data-name="Rectángulo 18035" width="8.822" height="8.757" transform="translate(-3.29 3.693) rotate(-48.305)"/>
          </g>
        </g>
        <g id="Grupo_18162" data-name="Grupo 18162" transform="translate(12.638)">
          <path id="Trazado_39928" data-name="Trazado 39928" d="M449.915,9.724l2.166-.046a12.856,12.856,0,0,1,12.108-8.462,13.778,13.778,0,0,1,12.747,8.93h.7a14.64,14.64,0,0,0-27.723-.421" transform="translate(-449.915)"/>
          <g id="Grupo_18161" data-name="Grupo 18161" clip-path="url(#clip-path-10)">
            <rect id="Rectángulo_18036" data-name="Rectángulo 18036" width="26.015" height="27.448" transform="translate(-5.039 5.656) rotate(-48.305)"/>
          </g>
        </g>
        <g id="Grupo_18164" data-name="Grupo 18164" transform="translate(12.747 19.681)">
          <path id="Trazado_39930" data-name="Trazado 39930" d="M453.8,700.645h0a14.594,14.594,0,0,0,25.261,4.067h-.779a13.206,13.206,0,0,1-10.394,4.768,13.07,13.07,0,0,1-12.747-8.836Z" transform="translate(-453.795 -700.645)"/>
          <g id="Grupo_18163" data-name="Grupo 18163" clip-path="url(#clip-path-11)">
            <rect id="Rectángulo_18037" data-name="Rectángulo 18037" width="24.04" height="25.309" transform="translate(-4.814 5.404) rotate(-48.305)"/>
          </g>
        </g>
        <g id="Grupo_18166" data-name="Grupo 18166" transform="translate(37.977 19.37)">
          <path id="Trazado_39932" data-name="Trazado 39932" d="M1354.41,689.555l-.935,2.384-.935-2.384h-.592l1.278,3.132h.483l1.294-3.132Z" transform="translate(-1351.948 -689.555)"/>
          <g id="Grupo_18165" data-name="Grupo 18165" clip-path="url(#clip-path-12)">
            <rect id="Rectángulo_18038" data-name="Rectángulo 18038" width="4.37" height="4.364" transform="translate(-1.556 1.746) rotate(-48.305)"/>
          </g>
        </g>
        <g id="Grupo_18168" data-name="Grupo 18168" transform="translate(34.906 19.37)">
          <path id="Trazado_39934" data-name="Trazado 39934" d="M1242.625,689.555h0v.514h.983v2.619h.545v-2.619h.982v-.514Z" transform="translate(-1242.625 -689.555)"/>
          <g id="Grupo_18167" data-name="Grupo 18167" clip-path="url(#clip-path-13)">
            <rect id="Rectángulo_18039" data-name="Rectángulo 18039" width="4.009" height="3.958" transform="matrix(0.665, -0.747, 0.747, 0.665, -1.556, 1.747)"/>
          </g>
        </g>
      </g>
    </g>
  </g>
</svg>
