<svg id="Grupo_18587" data-name="Grupo 18587" xmlns="http://www.w3.org/2000/svg" width="58" height="58" viewBox="0 0 58 58">
  <rect id="Rectángulo_18102" data-name="Rectángulo 18102" width="58" height="58" fill="none"/>
  <g id="Grupo_18466" data-name="Grupo 18466" transform="translate(18.464 16.765)">
    <path id="Trazado_1295" data-name="Trazado 1295" d="M34.08,251.31a1.259,1.259,0,0,1,.746-.227,1.023,1.023,0,0,1,.708.256.907.907,0,0,1,.292.713l.015,18.662a1,1,0,1,1-2.006,0L33.821,253.9l-2.327,1.425a.946.946,0,0,1-.517.163,1.034,1.034,0,0,1-.679-.275.908.908,0,0,1-.325-.727,1.105,1.105,0,0,1,.11-.485,1.007,1.007,0,0,1,.375-.388Z" transform="translate(-26.878 -248.348)" fill="#116155"/>
    <path id="Trazado_1296" data-name="Trazado 1296" d="M35.543,273.775a2.351,2.351,0,0,1-2.361-2.359l-.01-14.4-.265.16a2.343,2.343,0,0,1-2.784-.235,2.27,2.27,0,0,1-.8-1.75,2.491,2.491,0,0,1,.248-1.094,2.4,2.4,0,0,1,.871-.938l3.594-2.284a2.607,2.607,0,0,1,3.107.15,2.273,2.273,0,0,1,.746,1.725l.015,18.66a2.355,2.355,0,0,1-2.359,2.363Z" transform="translate(-29.322 -249.048)" fill="#116155"/>
    <text id="UNO" transform="translate(17.828 24.346) rotate(-90)" fill="#116155" font-size="10" font-family="Helvetica" letter-spacing="0.04em"><tspan x="0" y="0">UNO</tspan></text>
  </g>
</svg>
