<svg xmlns="http://www.w3.org/2000/svg" xmlns:xlink="http://www.w3.org/1999/xlink" width="84" height="84" viewBox="0 0 84 84">
  <defs>
    <filter id="Rect치ngulo_18067" x="0" y="0" width="84" height="84" filterUnits="userSpaceOnUse">
      <feOffset dy="3" input="SourceAlpha"/>
      <feGaussianBlur stdDeviation="3" result="blur"/>
      <feFlood flood-opacity="0.161"/>
      <feComposite operator="in" in2="blur"/>
      <feComposite in="SourceGraphic"/>
    </filter>
  </defs>
  <g id="Grupo_18812" data-name="Grupo 18812" transform="translate(-435 -1410)">
    <g transform="matrix(1, 0, 0, 1, 435, 1410)" filter="url(#Rect치ngulo_18067)">
      <rect id="Rect치ngulo_18067-2" data-name="Rect치ngulo 18067" width="66" height="66" rx="10" transform="translate(9 6)" fill="#fff"/>
    </g>
    <g id="Grupo_18222" data-name="Grupo 18222" transform="translate(459 1432)">
      <path id="Trazado_426" data-name="Trazado 426" d="M167.1,145.708s-18.376-7.691-15.517-26.279l2.972-.612,1.112-1.293,2.792-.743.73-1.982,8.228-1.022,8.189,1.362.485,1.656,3.063.728.544,1.5,3.2.341s2.464,18.11-15.481,26.346" transform="translate(-150.568 -113.057)" fill="#1a1818"/>
      <path id="Trazado_427" data-name="Trazado 427" d="M160.7,126.008v.2h-.279v1h-.253v-1h-.279v-.2Z" transform="translate(-136.965 -93.733)" fill="#5bb894"/>
      <path id="Trazado_428" data-name="Trazado 428" d="M160.657,126.008l.188.82h0l.2-.82h.392v1.2H161.2v-.929h-.005l-.23.929h-.243l-.219-.929h0v.929h-.245v-1.2Z" transform="translate(-136.399 -93.733)" fill="#5bb894"/>
      <path id="Trazado_429" data-name="Trazado 429" d="M155.6,124.05a15.289,15.289,0,0,0,1.218,4.283l.632-1.122s-.33-3.122-.413-4.515.041-5.831.041-5.831.82-.454,1.272-.658.934-.39,1.182-.224a.476.476,0,0,1,.214.428s0,2.219,0,6.861a18.065,18.065,0,0,0,1.724,8.166V115.466a6.486,6.486,0,0,1,1.29-.433,2.806,2.806,0,0,1,1.4.008c.224.111.224.47.224.47v25.376a16.692,16.692,0,0,1-4.066-5.052c-.764-1.548-2.051-5.093-2.051-5.093l-1.6,2.34a20.034,20.034,0,0,1-3.039-5.653,23.859,23.859,0,0,1-.9-4.172,29.472,29.472,0,0,1-.165-3.5s.805-.73,1.146-1,.973-.738,1.254-.64.268.839.268.839A34.468,34.468,0,0,0,155.6,124.05Z" transform="translate(-148.563 -111.209)" fill="#e1e2e3"/>
      <path id="Trazado_430" data-name="Trazado 430" d="M176.7,138.3a40.784,40.784,0,0,1-9.178,6.9l-.018.008-.021-.008c-.562-.307-7.284-3.976-10.473-8.522-5.008-7.144-4.27-15.85-4.27-15.85l2.874-.575.372-1.355,3.365-.862.41-1.682,7.722-1.146.021,0,.018,0,7.722,1.146.41,1.682,3.37.862.369,1.355,2.874.575a27.38,27.38,0,0,1-.738,7.774l-.005.023a6.2,6.2,0,0,1,1.853.3,30.05,30.05,0,0,0,.529-9.621l-3.612-.738-.258-1.277-3.279-.759-.5-1.724-8.731-1.321-8.775,1.321L158.3,116.5l-3.171.761-.369,1.357-3.574.7s-1.512,10.026,4.353,18.314c3.78,5.338,11.317,9.036,11.951,9.374l.021.01.021-.01a45.977,45.977,0,0,0,10.465-7.433A6.128,6.128,0,0,1,176.7,138.3Z" transform="translate(-151.007 -113.499)" fill="#5bb894"/>
      <ellipse id="Elipse_1" data-name="Elipse 1" cx="5.113" cy="5.113" rx="5.113" ry="5.113" transform="translate(25.433 16.306)" fill="#1a1818"/>
      <path id="Trazado_431" data-name="Trazado 431" d="M170.964,126.35a6.046,6.046,0,0,0-3.9,1.417,4.785,4.785,0,0,0-1.553-2.09s3.457-1.863,3.486-4.035c.039-3.109-7.155-6.022-8.406-6.326-1.024-.25-2.343-.521-2.74-.273a.4.4,0,0,0-.183.3v25.523a20.159,20.159,0,0,0,5.522-4.342c.4-.454,1.184-1.264,1.958-2.3a6.084,6.084,0,1,0,5.816-7.88ZM160.6,118.119s5,1.427,5.057,3.344c.067,2.09-5.057,3.963-5.057,3.963Zm.036,17.129v-6.987a6.029,6.029,0,0,1,2.033-.74c.212.005,1.579-.175,1.553,1.762S160.64,135.249,160.64,135.249Zm12.746-.191h-1.574L170.4,131.3h-1.112v3.754H168.04V131.3h-1.189a7.375,7.375,0,0,0,.261-.867l.039-.219H171.4l1.2,3.488,1.189-3.488h1.414Z" transform="translate(-140.482 -111.217)" fill="#e1e2e3"/>
    </g>
  </g>
</svg>
